<svg width="22" height="22" viewBox="0 0 22 22" fill="none" xmlns="http://www.w3.org/2000/svg">
<defs id="defs3051"><style type="text/css" id="current-color-scheme">.ColorScheme-Text { color: #232629; }</style></defs>
<path d="M9.91431 7.71484C9.59366 9.02656 8.41051 10 7 10C5.34315 10 4 8.65685 4 7C4 5.34315 5.34315 4 7 4C8.41051 4 9.59366 4.97344 9.91431 6.28516H17C17.3949 6.28516 17.7148 6.60512 17.7148 7C17.7148 7.39488 17.3949 7.71484 17 7.71484H9.91431Z" class="ColorScheme-Text" fill="currentColor"/>
<path d="M16 18C17.6569 18 19 16.6569 19 15C19 13.3431 17.6569 12 16 12C14.5895 12 13.4063 12.9734 13.0857 14.2852H6C5.60512 14.2852 5.28516 14.6051 5.28516 15C5.28516 15.3949 5.60512 15.7148 6 15.7148H13.0857C13.4063 17.0266 14.5895 18 16 18Z" class="ColorScheme-Text" fill="currentColor"/>
</svg>
