<svg width="22" height="22" viewBox="0 0 22 22" fill="none" xmlns="http://www.w3.org/2000/svg">
<defs id="defs3051"><style type="text/css" id="current-color-scheme">.ColorScheme-Text { color: #232629; }</style></defs>
<path d="M13.1828 16.8944V18.2947H8.44939V16.8944H13.1828ZM17.0002 6.29474L15.1515 16.6463C14.9812 17.6002 14.1517 18.2947 13.1828 18.2947V16.8944C13.4735 16.8944 13.7225 16.6864 13.7736 16.4002L15.3283 7.69513H6.61443L7.85466 16.3797C7.89691 16.6753 8.15081 16.8944 8.44939 16.8944V18.2947L8.26482 18.286C7.41233 18.2077 6.70243 17.5923 6.50407 16.7596L6.46892 16.5779L5.00017 6.29474H17.0002Z" class="ColorScheme-Text" fill="currentColor"/>
<path d="M13.0138 2.88462C14.0365 2.88462 14.9715 3.46307 15.4289 4.37778L16.3762 6.27134C16.549 6.61699 16.4092 7.03778 16.0637 7.21079C15.718 7.38362 15.2972 7.24379 15.1242 6.89829L14.1769 5.00376C13.9567 4.56334 13.5063 4.28501 13.0138 4.28501H8.9865C8.4941 4.28501 8.04363 4.56334 7.82342 5.00376L6.87615 6.89829C6.70314 7.24379 6.28235 7.38362 5.9367 7.21079C5.5912 7.03778 5.45137 6.61699 5.6242 6.27134L6.57146 4.37778C7.02882 3.46307 7.96382 2.88462 8.9865 2.88462H13.0138Z" class="ColorScheme-Text" fill="currentColor"/>
<path d="M17.3758 6.33235C17.7622 6.33278 18.0748 6.64647 18.0746 7.03294C18.0744 7.41941 17.7614 7.73274 17.375 7.73274L4.62497 7.72547C4.23837 7.72525 3.92495 7.41147 3.92517 7.02487C3.92539 6.63827 4.23917 6.32486 4.62577 6.32508L17.3758 6.33235Z" class="ColorScheme-Text" fill="currentColor"/>
</svg>
