<svg width="22" height="22" viewBox="0 0 22 22" fill="none" xmlns="http://www.w3.org/2000/svg">
<defs id="defs3051"><style type="text/css" id="current-color-scheme">.ColorScheme-Text { color: #232629; }</style></defs>
<path fill-rule="evenodd" clip-rule="evenodd" d="M8.42969 4.92969C8.42969 4.65355 8.65355 4.42969 8.92969 4.42969H13.0703C13.3465 4.42969 13.5703 4.65355 13.5703 4.92969V5.92969C13.5703 6.20583 13.7942 6.42969 14.0703 6.42969H16.0703C16.3465 6.42969 16.5703 6.65355 16.5703 6.92969V17.0703C16.5703 17.3465 16.3465 17.5703 16.0703 17.5703H5.92969C5.65355 17.5703 5.42969 17.3465 5.42969 17.0703V7.42969C5.42969 6.8774 5.8774 6.42969 6.42969 6.42969H7.92969C8.20583 6.42969 8.42969 6.20583 8.42969 5.92969V4.92969ZM7 5H6C4.89543 5 4 5.89543 4 7V17C4 18.1046 4.89543 19 6 19H16C17.1046 19 18 18.1046 18 17V7C18 5.89543 17.1046 5 16 5H15C15 3.89543 14.1046 3 13 3H9C7.89543 3 7 3.89543 7 5Z" class="ColorScheme-Text" fill="currentColor"/>
<path d="M15 8.5C15.2761 8.5 15.5 8.72386 15.5 9C15.5 9.27614 15.2761 9.5 15 9.5H7C6.72386 9.5 6.5 9.27614 6.5 9C6.5 8.72386 6.72386 8.5 7 8.5H15Z" class="ColorScheme-Text" fill="currentColor"/>
<path d="M15 11C15.2761 11 15.5 11.2239 15.5 11.5C15.5 11.7761 15.2761 12 15 12H7C6.72386 12 6.5 11.7761 6.5 11.5C6.5 11.2239 6.72386 11 7 11H15Z" class="ColorScheme-Text" fill="currentColor"/>
<path d="M15 14C15.2761 14 15.5 14.2239 15.5 14.5C15.5 14.7761 15.2761 15 15 15H7C6.72386 15 6.5 14.7761 6.5 14.5C6.5 14.2239 6.72386 14 7 14H15Z" class="ColorScheme-Text" fill="currentColor"/>
</svg>
