<svg width="22" height="22" viewBox="0 0 22 22" fill="none" xmlns="http://www.w3.org/2000/svg">
<defs id="defs3051"><style type="text/css" id="current-color-scheme">.ColorScheme-Text { color: #232629; }</style></defs>
<path fill-rule="evenodd" clip-rule="evenodd" d="M8.33743 5.92736C8.6898 5.6505 9.12495 5.5 9.57307 5.5H16.8813C17.9859 5.5 18.8813 6.39543 18.8813 7.5V14.5C18.8813 15.6046 17.9859 16.5 16.8813 16.5H9.57307C9.12495 16.5 8.6898 16.3495 8.33743 16.0726L3.88288 12.5726C2.86374 11.7719 2.86374 10.2281 3.88288 9.42736L8.33743 5.92736ZM11.8864 12.4481C12.1597 12.1747 12.603 12.1747 12.8763 12.4481L14.731 14.3027C14.994 14.5658 15.421 14.5658 15.6841 14.3027C15.9471 14.0397 15.9471 13.6127 15.6841 13.3496L13.8294 11.495C13.5561 11.2216 13.5561 10.7784 13.8294 10.505L15.6841 8.65038C15.9471 8.38733 15.9471 7.96033 15.6841 7.69728C15.421 7.43424 14.994 7.43424 14.731 7.69728L12.8763 9.55193C12.603 9.8253 12.1597 9.8253 11.8864 9.55193L10.0317 7.69728C9.76868 7.43424 9.34168 7.43424 9.07863 7.69728C8.81559 7.96033 8.81559 8.38733 9.07863 8.65038L10.9333 10.505C11.2066 10.7784 11.2066 11.2216 10.9333 11.495L9.07863 13.3496C8.81559 13.6127 8.81559 14.0397 9.07863 14.3027C9.34168 14.5658 9.76868 14.5658 10.0317 14.3027L11.8864 12.4481Z" class="ColorScheme-Text" fill="currentColor"/>
</svg>
