<svg width="22" height="22" viewBox="0 0 22 22" fill="none" xmlns="http://www.w3.org/2000/svg">
<defs id="defs3051"><style type="text/css" id="current-color-scheme">.ColorScheme-Text { color: #232629; }</style></defs>
<path d="M15.0109 3.93945C15.5966 3.35366 16.5462 3.35366 17.132 3.93945C17.7177 4.52523 17.7177 5.47475 17.132 6.06054L6.13196 17.0605C5.54617 17.6463 3.35963 18.2884 3.07124 18C2.78286 17.7116 3.42508 15.5252 4.01086 14.9394L15.0109 3.93945Z" class="ColorScheme-Text" fill="currentColor"/>
<path d="M18.0713 13.7852C18.4662 13.7852 18.7861 14.1051 18.7861 14.5C18.7861 14.8949 18.4662 15.2148 18.0713 15.2148C17.8875 15.2148 17.8192 15.2638 17.7568 15.3262C17.6489 15.4341 17.5599 15.5931 17.3838 15.9102C17.0511 16.5089 16.5483 17.3674 15.2451 17.6934C14.0079 18.0027 13.0767 17.5161 12.3242 17.3154C11.5344 17.1049 10.4276 16.9689 8.29785 17.6787C7.92333 17.8036 7.51756 17.601 7.39257 17.2266C7.26773 16.852 7.47029 16.4463 7.84472 16.3213C10.2144 15.5314 11.6082 15.6452 12.6934 15.9346C13.8153 16.2338 14.1351 16.4971 14.8975 16.3066C15.5936 16.1326 15.8415 15.741 16.1338 15.2148C16.2701 14.9694 16.4626 14.597 16.7451 14.3145C17.0734 13.9862 17.505 13.7852 18.0713 13.7852Z" class="ColorScheme-Text" fill="currentColor"/>
</svg>
