<svg width="22" height="22" viewBox="0 0 22 22" fill="none" xmlns="http://www.w3.org/2000/svg">
<defs id="defs3051"><style type="text/css" id="current-color-scheme">.ColorScheme-Text { color: #232629; }</style></defs>
<path d="M15 9C15 10.3991 14.5212 11.6863 13.7184 12.7067L18.5059 17.4941C18.7851 17.7734 18.7851 18.2266 18.5059 18.5059C18.2266 18.7851 17.7734 18.7851 17.4941 18.5059L12.7067 13.7184C11.6863 14.5212 10.3991 15 9 15C5.68629 15 3 12.3137 3 9C3 5.68629 5.68629 3 9 3C12.3137 3 15 5.68629 15 9ZM9 13.5703C11.5239 13.5703 13.5703 11.5239 13.5703 9C13.5703 6.47606 11.5239 4.42969 9 4.42969C6.47606 4.42969 4.42969 6.47606 4.42969 9C4.42969 11.5239 6.47606 13.5703 9 13.5703Z" class="ColorScheme-Text" fill="currentColor"/>
</svg>
