<svg width="22" height="22" viewBox="0 0 22 22" fill="none" xmlns="http://www.w3.org/2000/svg">
<defs id="defs3051"><style type="text/css" id="current-color-scheme">.ColorScheme-Text { color: #232629; }</style></defs>
<path d="M18.1914 12.5C18.1914 9.34369 15.6329 6.78515 12.4766 6.78515L6.93285 6.85098C6.75353 6.85311 6.66224 6.63637 6.78905 6.50957L8.72111 4.57751C9.00033 4.29828 9.00033 3.84502 8.72111 3.56579C8.44188 3.28657 7.98861 3.28657 7.70939 3.56579L4.20939 7.06579C3.93016 7.34502 3.93016 7.79828 4.20939 8.07751L7.70939 11.5775C7.98861 11.8567 8.44188 11.8567 8.72111 11.5775C9.00033 11.2983 9.00033 10.845 8.72111 10.5658L6.77758 8.62226C6.6524 8.49708 6.7396 8.28296 6.91663 8.28086L12.4766 8.21484C14.8431 8.21484 16.7617 10.1335 16.7617 12.5C16.7617 14.8665 14.8431 16.7851 12.4766 16.7851H9.97656C9.58168 16.7851 9.26172 17.1051 9.26172 17.5C9.26172 17.8949 9.58168 18.2148 9.97656 18.2148H12.4766C15.6329 18.2148 18.1914 15.6563 18.1914 12.5Z" class="ColorScheme-Text" fill="currentColor"/>
</svg>
