<svg width="22" height="22" viewBox="0 0 22 22" fill="none" xmlns="http://www.w3.org/2000/svg">
<defs id="defs3051"><style type="text/css" id="current-color-scheme">.ColorScheme-Text { color: #232629; }</style></defs>
<path fill-rule="evenodd" clip-rule="evenodd" d="M18.1504 16.5C18.1504 17.9678 16.9678 19.1504 15.5 19.1504C14.0322 19.1504 12.8496 17.9678 12.8496 16.5C12.8496 16.3372 12.8656 16.1773 12.8936 16.0225L11.3701 13.3799C11.3332 13.3942 11.2958 13.4177 11.2549 13.4531C11.2014 13.4995 11.1528 13.5543 11.0949 13.6195C11.0697 13.6479 11.0427 13.6783 11.0127 13.7109C10.8363 13.9028 10.6008 14.1129 10.2031 14.1416L9.10645 16.041C9.13249 16.1895 9.15039 16.3427 9.15039 16.5C9.15039 17.9678 7.96784 19.1504 6.5 19.1504C5.03216 19.1504 3.84961 17.9678 3.84961 16.5C3.84961 15.0322 5.03216 13.8496 6.5 13.8496C7.12969 13.8496 7.70123 14.0736 8.15332 14.4375L10.0781 11.1396L6.58105 5.0752C6.36306 4.69762 6.25006 4.43144 6.25 4.1875C6.24994 3.93767 6.36853 3.73743 6.51953 3.50293C6.7446 3.15351 7.27535 3.15506 7.48828 3.51953L11.0059 9.54883L14.5234 3.51953C14.7364 3.15506 15.2671 3.15351 15.4922 3.50293C15.6432 3.73743 15.7618 3.93767 15.7617 4.1875C15.7617 4.43144 15.6487 4.69762 15.4307 5.0752L11.9326 11.1396L13.8535 14.4326C14.3044 14.0718 14.8732 13.8496 15.5 13.8496C16.9678 13.8496 18.1504 15.0322 18.1504 16.5ZM11.3496 11.5C11.3496 11.3058 11.1942 11.1504 11 11.1504C10.8058 11.1504 10.6504 11.3058 10.6504 11.5C10.6504 11.6942 10.8058 11.8496 11 11.8496C11.1942 11.8496 11.3496 11.6942 11.3496 11.5ZM6.5 15.1504C7.24816 15.1504 7.84961 15.7518 7.84961 16.5C7.84961 17.2482 7.24816 17.8496 6.5 17.8496C5.75184 17.8496 5.15039 17.2482 5.15039 16.5C5.15039 15.7518 5.75184 15.1504 6.5 15.1504ZM16.8496 16.5C16.8496 15.7518 16.2482 15.1504 15.5 15.1504C14.7518 15.1504 14.1504 15.7518 14.1504 16.5C14.1504 17.2482 14.7518 17.8496 15.5 17.8496C16.2482 17.8496 16.8496 17.2482 16.8496 16.5Z" class="ColorScheme-Text" fill="currentColor"/>
</svg>
