<svg width="22" height="22" viewBox="0 0 22 22" fill="none" xmlns="http://www.w3.org/2000/svg">
<defs id="defs3051"><style type="text/css" id="current-color-scheme">.ColorScheme-Text { color: #232629; }</style></defs>
<path fill-rule="evenodd" clip-rule="evenodd" d="M8.33756 5.92736C8.68993 5.6505 9.12507 5.5 9.5732 5.5H16.8815C17.986 5.5 18.8815 6.39543 18.8815 7.5V14.5C18.8815 15.6046 17.986 16.5 16.8815 16.5H9.5732C9.12507 16.5 8.68993 16.3495 8.33756 16.0726L3.88301 12.5726C2.86387 11.7719 2.86387 10.2281 3.88301 9.42736L8.33756 5.92736ZM11.8865 12.4481C12.1599 12.1747 12.6031 12.1747 12.8764 12.4481L14.7311 14.3027C14.9941 14.5658 15.4211 14.5658 15.6842 14.3027C15.9472 14.0397 15.9472 13.6127 15.6842 13.3496L13.8295 11.495C13.5562 11.2216 13.5562 10.7784 13.8295 10.505L15.6842 8.65038C15.9472 8.38733 15.9472 7.96033 15.6842 7.69728C15.4211 7.43424 14.9941 7.43424 14.7311 7.69728L12.8764 9.55193C12.6031 9.8253 12.1599 9.8253 11.8865 9.55193L10.0319 7.69728C9.76881 7.43424 9.3418 7.43424 9.07876 7.69728C8.81571 7.96033 8.81571 8.38733 9.07876 8.65038L10.9334 10.505C11.2068 10.7784 11.2068 11.2216 10.9334 11.495L9.07876 13.3496C8.81571 13.6127 8.81571 14.0397 9.07876 14.3027C9.3418 14.5658 9.76881 14.5658 10.0319 14.3027L11.8865 12.4481Z" class="ColorScheme-Text" fill="currentColor"/>
</svg>
