<svg width="22" height="22" viewBox="0 0 22 22" fill="none" xmlns="http://www.w3.org/2000/svg">
<defs id="defs3051"><style type="text/css" id="current-color-scheme">.ColorScheme-Text { color: #232629; }</style></defs>
<path d="M4 12.5C4 9.34369 6.55854 6.78515 9.71484 6.78515L15.2586 6.85098C15.4379 6.85311 15.5292 6.63637 15.4024 6.50957L13.4703 4.57751C13.1911 4.29828 13.1911 3.84502 13.4703 3.56579C13.7495 3.28657 14.2028 3.28657 14.482 3.56579L17.982 7.06579C18.2612 7.34502 18.2612 7.79828 17.982 8.07751L14.482 11.5775C14.2028 11.8567 13.7495 11.8567 13.4703 11.5775C13.1911 11.2983 13.1911 10.845 13.4703 10.5658L15.4138 8.62226C15.539 8.49708 15.4518 8.28296 15.2748 8.28086L9.71484 8.21484C7.3483 8.21484 5.42969 10.1335 5.42969 12.5C5.42969 14.8665 7.3483 16.7851 9.71484 16.7851H12.2148C12.6097 16.7851 12.9297 17.1051 12.9297 17.5C12.9297 17.8949 12.6097 18.2148 12.2148 18.2148H9.71484C6.55854 18.2148 4 15.6563 4 12.5Z" class="ColorScheme-Text" fill="currentColor"/>
</svg>
