<svg width="22" height="22" viewBox="0 0 22 22" fill="none" xmlns="http://www.w3.org/2000/svg">
<defs id="defs3051"><style type="text/css" id="current-color-scheme">.ColorScheme-Text { color: #232629; }</style></defs>
<path d="M15 7H16C16.5523 7 17 7.44772 17 8V17C17 17.5523 16.5523 18 16 18H9C8.44772 18 8 17.5523 8 17V16V15V8C8 7.44772 8.44772 7 9 7H14H15ZM16 6H15V5C15 3.96435 14.2128 3.113 13.2041 3.01074L13 3H6C4.89543 3 4 3.89543 4 5V14L4.01074 14.2041C4.113 15.2128 4.96435 16 6 16H7V17L7.01074 17.2041C7.113 18.2128 7.96435 19 9 19H16L16.2041 18.9893C17.2128 18.887 18 18.0357 18 17V8C18 6.96435 17.2128 6.113 16.2041 6.01074L16 6ZM14 6H9C7.89543 6 7 6.89543 7 8V15H6C5.44772 15 5 14.5523 5 14V5C5 4.44772 5.44772 4 6 4H13C13.5523 4 14 4.44772 14 5V6Z" class="ColorScheme-Text" fill="currentColor"/>
</svg>
