<svg width="22" height="22" viewBox="0 0 22 22" fill="none" xmlns="http://www.w3.org/2000/svg">
<defs id="defs3051"><style type="text/css" id="current-color-scheme">.ColorScheme-Text { color: #232629; }</style></defs>
<path d="M12.5 9.5H15.5V6.5H12.5V9.5ZM16.5 9.7998C16.5 10.1864 16.1864 10.5 15.7998 10.5H12.2002L12.0586 10.4854C11.7398 10.4199 11.5 10.1379 11.5 9.7998V6.2002C11.5 5.86206 11.7398 5.58008 12.0586 5.51465L12.2002 5.5H15.7998C16.1864 5.5 16.5 5.8136 16.5 6.2002V9.7998Z" class="ColorScheme-Text" fill="currentColor"/>
<path d="M12.5 15.5H15.5V12.5H12.5V15.5ZM16.5 15.7998C16.5 16.1864 16.1864 16.5 15.7998 16.5H12.2002L12.0586 16.4854C11.7398 16.4199 11.5 16.1379 11.5 15.7998V12.2002C11.5 11.8621 11.7398 11.5801 12.0586 11.5146L12.2002 11.5H15.7998C16.1864 11.5 16.5 11.8136 16.5 12.2002V15.7998Z" class="ColorScheme-Text" fill="currentColor"/>
<path d="M17.7852 7.5V4.21484H14.5C14.1051 4.21484 13.7852 3.89488 13.7852 3.5C13.7852 3.10512 14.1051 2.78516 14.5 2.78516H18.5C18.8949 2.78516 19.2148 3.10512 19.2148 3.5V7.5C19.2148 7.89488 18.8949 8.21484 18.5 8.21484C18.1051 8.21484 17.7852 7.89488 17.7852 7.5Z" class="ColorScheme-Text" fill="currentColor"/>
<path d="M17.7852 14.5V17.7852H14.5C14.1051 17.7852 13.7852 18.1051 13.7852 18.5C13.7852 18.8949 14.1051 19.2148 14.5 19.2148H18.5C18.8949 19.2148 19.2148 18.8949 19.2148 18.5V14.5C19.2148 14.1051 18.8949 13.7852 18.5 13.7852C18.1051 13.7852 17.7852 14.1051 17.7852 14.5Z" class="ColorScheme-Text" fill="currentColor"/>
<path d="M9.5 12.5H6.5V15.5H9.5V12.5ZM5.5 12.2002C5.5 11.8136 5.8136 11.5 6.2002 11.5H9.7998L9.94141 11.5146C10.2602 11.5801 10.5 11.8621 10.5 12.2002V15.7998C10.5 16.1379 10.2602 16.4199 9.94141 16.4854L9.7998 16.5H6.2002C5.8136 16.5 5.5 16.1864 5.5 15.7998V12.2002Z" class="ColorScheme-Text" fill="currentColor"/>
<path d="M9.5 6.5H6.5V9.5H9.5V6.5ZM5.5 6.2002C5.5 5.8136 5.8136 5.5 6.2002 5.5H9.7998L9.94141 5.51465C10.2602 5.58008 10.5 5.86206 10.5 6.2002V9.7998C10.5 10.1379 10.2602 10.4199 9.94141 10.4854L9.7998 10.5H6.2002C5.8136 10.5 5.5 10.1864 5.5 9.7998V6.2002Z" class="ColorScheme-Text" fill="currentColor"/>
<path d="M4.21484 14.5V17.7852H7.5C7.89488 17.7852 8.21484 18.1051 8.21484 18.5C8.21484 18.8949 7.89488 19.2148 7.5 19.2148H3.5C3.10512 19.2148 2.78516 18.8949 2.78516 18.5V14.5C2.78516 14.1051 3.10512 13.7852 3.5 13.7852C3.89488 13.7852 4.21484 14.1051 4.21484 14.5Z" class="ColorScheme-Text" fill="currentColor"/>
<path d="M4.21484 7.5V4.21484H7.5C7.89488 4.21484 8.21484 3.89488 8.21484 3.5C8.21484 3.10512 7.89488 2.78516 7.5 2.78516H3.5C3.10512 2.78516 2.78516 3.10512 2.78516 3.5V7.5C2.78516 7.89488 3.10512 8.21484 3.5 8.21484C3.89488 8.21484 4.21484 7.89488 4.21484 7.5Z" class="ColorScheme-Text" fill="currentColor"/>
</svg>
