<svg width="22" height="22" viewBox="0 0 22 22" fill="none" xmlns="http://www.w3.org/2000/svg">
<defs id="defs3051"><style type="text/css" id="current-color-scheme">.ColorScheme-Text { color: #232629; }</style></defs>
<path d="M16.1788 9.67141C16.1788 10.8613 15.8562 11.9758 15.2938 12.9323C15.0406 13.3629 15.061 13.9195 15.4078 14.2791L18.0933 17.0631C18.3598 17.3296 18.3598 17.7622 18.0933 18.0288C17.8268 18.2953 17.3942 18.2953 17.1277 18.0288L14.3436 15.3432C13.9841 14.9964 13.4275 14.976 12.9969 15.2292C12.0403 15.7916 10.9258 16.1142 9.73599 16.1142C6.17774 16.1142 3.29321 13.2297 3.29321 9.67141C3.29321 6.11317 6.17774 3.22864 9.73599 3.22864C13.2942 3.22864 16.1788 6.11317 16.1788 9.67141ZM9.73599 14.579C12.4462 14.579 14.6436 12.3816 14.6436 9.67141C14.6436 6.96122 12.4462 4.76383 9.73599 4.76383C7.02579 4.76383 4.82841 6.96122 4.82841 9.67141C4.82841 12.3816 7.02579 14.579 9.73599 14.579Z" class="ColorScheme-Text" fill="currentColor"/>
<circle cx="13.4116" cy="17.7714" r="1" class="ColorScheme-Text" fill="currentColor"/>
<circle cx="17.707" cy="13.5431" r="1" class="ColorScheme-Text" fill="currentColor"/>
</svg>
