<svg width="22" height="22" viewBox="0 0 22 22" fill="none" xmlns="http://www.w3.org/2000/svg">
<defs id="defs3051"><style type="text/css" id="current-color-scheme">.ColorScheme-Text { color: #232629; }</style></defs>
<path d="M2.72667 4.95201C2.18753 4.95201 1.74934 4.51515 1.74934 3.97601C1.74934 3.43686 2.18753 3.00001 2.72667 3.00001L19.2747 3C19.8138 3 20.2507 3.43686 20.2507 3.976C20.2507 4.51515 19.8138 4.952 19.2747 4.952L2.72667 4.95201Z" class="ColorScheme-Text" fill="currentColor"/>
<path d="M2.72667 9.63467C2.18753 9.63467 1.74934 9.19782 1.74934 8.65867C1.74934 8.11952 2.18753 7.68267 2.72667 7.68267L19.2747 7.68267C19.8138 7.68267 20.2507 8.11952 20.2507 8.65867C20.2507 9.19781 19.8138 9.63467 19.2747 9.63467L2.72667 9.63467Z" class="ColorScheme-Text" fill="currentColor"/>
<path d="M2.72667 19C2.18753 19 1.74934 18.5631 1.74934 18.024C1.74934 17.4849 2.18753 17.048 2.72667 17.048L19.2747 17.048C19.8138 17.048 20.2507 17.4849 20.2507 18.024C20.2507 18.5631 19.8138 19 19.2747 19L2.72667 19Z" class="ColorScheme-Text" fill="currentColor"/>
<path d="M2.72667 14.3173C2.18753 14.3173 1.74934 13.8805 1.74934 13.3413C1.74934 12.8022 2.18753 12.3653 2.72667 12.3653L19.2747 12.3653C19.8138 12.3653 20.2507 12.8022 20.2507 13.3413C20.2507 13.8805 19.8138 14.3173 19.2747 14.3173L2.72667 14.3173Z" class="ColorScheme-Text" fill="currentColor"/>
</svg>
