<svg width="22" height="22" viewBox="0 0 22 22" fill="none" xmlns="http://www.w3.org/2000/svg">
<defs id="defs3051"><style type="text/css" id="current-color-scheme">.ColorScheme-Text { color: #232629; }</style></defs>
<path d="M19.3161 10.8663C19.5963 10.7046 19.9465 10.9068 19.9465 11.2303V14.7661C19.9465 15.0896 19.5963 15.2918 19.3161 15.1301L16.254 13.3622C15.9738 13.2004 15.9738 12.796 16.254 12.6342L19.3161 10.8663Z" class="ColorScheme-Text" fill="currentColor"/>
<path d="M19.0826 4.80216C19.5801 4.80194 19.9836 4.39871 19.9836 3.90108C19.9836 3.40346 19.5801 3.00023 19.0826 3.00001L2.91731 3.00001C2.41955 3.00001 2.01624 3.40332 2.01624 3.90108C2.01624 4.39884 2.41955 4.80216 2.91731 4.80216L19.0826 4.80216Z" class="ColorScheme-Text" fill="currentColor"/>
<path d="M13.1581 13.8542C13.6556 13.8539 14.0591 13.4507 14.0591 12.9531C14.0591 12.4555 13.6556 12.0523 13.1581 12.052L5.35118 12.052C4.85342 12.052 4.4501 12.4553 4.4501 12.9531C4.4501 13.4508 4.85342 13.8542 5.35118 13.8542L13.1581 13.8542Z" class="ColorScheme-Text" fill="currentColor"/>
<path d="M19.0827 17.1979C19.5802 17.1981 19.9838 17.6013 19.9838 18.0989C19.9838 18.5965 19.5802 18.9997 19.0827 19L9.98946 19C9.4917 19 9.08838 18.5967 9.08838 18.0989C9.08838 17.6012 9.4917 17.1979 9.98946 17.1979L19.0827 17.1979Z" class="ColorScheme-Text" fill="currentColor"/>
<path d="M19.0827 7.43244C19.5805 7.43244 19.9838 7.83576 19.9838 8.33352C19.9838 8.83128 19.5805 9.2346 19.0827 9.2346L10.259 9.2346C9.76129 9.2346 9.35797 8.83128 9.35797 8.33352C9.35797 7.83576 9.76129 7.43244 10.259 7.43244L19.0827 7.43244Z" class="ColorScheme-Text" fill="currentColor"/>
</svg>
