<svg width="22" height="22" viewBox="0 0 22 22" fill="none" xmlns="http://www.w3.org/2000/svg">
<defs id="defs3051"><style type="text/css" id="current-color-scheme">.ColorScheme-Text { color: #232629; }</style></defs>
<path d="M2.24535 4.952C1.7064 4.95177 1.26935 4.515 1.26935 3.976C1.26935 3.437 1.7064 3.00024 2.24535 3L19.7547 3C20.2938 3 20.7307 3.43686 20.7307 3.976C20.7307 4.51515 20.2938 4.952 19.7547 4.952L2.24535 4.952Z" class="ColorScheme-Text" fill="currentColor"/>
<path d="M2.24625 9.63467C1.70734 9.6344 1.27025 9.19765 1.27025 8.65867C1.27025 8.11969 1.70734 7.68294 2.24625 7.68267L10.7023 7.68267C11.2414 7.68267 11.6783 8.11952 11.6783 8.65867C11.6783 9.19781 11.2414 9.63467 10.7023 9.63467L2.24625 9.63467Z" class="ColorScheme-Text" fill="currentColor"/>
<path d="M2.24653 14.3173C1.70749 14.3172 1.27053 13.8804 1.27053 13.3413C1.27053 12.8023 1.70749 12.3655 2.24653 12.3653L16.0345 12.3653C16.5737 12.3653 17.0105 12.8022 17.0105 13.3413C17.0105 13.8805 16.5737 14.3173 16.0345 14.3173L2.24653 14.3173Z" class="ColorScheme-Text" fill="currentColor"/>
<path d="M2.24678 17.048C1.70763 17.048 1.27078 17.4849 1.27078 18.024C1.27078 18.5632 1.70763 19 2.24678 19L13.1694 19C13.7086 19 14.1454 18.5632 14.1454 18.024C14.1454 17.4849 13.7086 17.048 13.1694 17.048L2.24678 17.048Z" class="ColorScheme-Text" fill="currentColor"/>
</svg>
