<svg width="22" height="22" viewBox="0 0 22 22" fill="none" xmlns="http://www.w3.org/2000/svg">
<defs id="defs3051"><style type="text/css" id="current-color-scheme">.ColorScheme-Text { color: #232629; }</style></defs>
<path d="M19.7547 4.952C20.2936 4.95177 20.7307 4.515 20.7307 3.976C20.7307 3.437 20.2936 3.00024 19.7547 3L2.24533 3C1.70619 3 1.26933 3.43686 1.26933 3.976C1.26933 4.51515 1.70619 4.952 2.24533 4.952L19.7547 4.952Z" class="ColorScheme-Text" fill="currentColor"/>
<path d="M19.7535 14.3173C20.2925 14.3172 20.7295 13.8804 20.7295 13.3413C20.7295 12.8023 20.2925 12.3655 19.7535 12.3653L5.9655 12.3653C5.42635 12.3653 4.9895 12.8022 4.9895 13.3413C4.9895 13.8805 5.42635 14.3173 5.9655 14.3173L19.7535 14.3173Z" class="ColorScheme-Text" fill="currentColor"/>
<path d="M19.7533 17.048C20.2924 17.048 20.7293 17.4849 20.7293 18.024C20.7293 18.5632 20.2924 19 19.7533 19L8.83063 19C8.29148 19 7.85463 18.5632 7.85463 18.024C7.85463 17.4849 8.29148 17.048 8.83063 17.048L19.7533 17.048Z" class="ColorScheme-Text" fill="currentColor"/>
<path d="M19.7533 7.68266C20.2924 7.68266 20.7293 8.11952 20.7293 8.65866C20.7293 9.19781 20.2924 9.63466 19.7533 9.63466L10.196 9.63466C9.65681 9.63466 9.21996 9.19781 9.21996 8.65866C9.21996 8.11952 9.65681 7.68266 10.196 7.68266L19.7533 7.68266Z" class="ColorScheme-Text" fill="currentColor"/>
</svg>
