<svg width="22" height="22" viewBox="0 0 22 22" fill="none" xmlns="http://www.w3.org/2000/svg">
<defs id="defs3051"><style type="text/css" id="current-color-scheme">.ColorScheme-Text { color: #232629; }</style></defs>
<path d="M6.50792 10.0939C6.79582 10.3861 7.14429 10.6526 7.55332 10.8933H4.86016C4.55503 10.8933 4.30768 11.1407 4.30768 11.4458C4.30768 11.7509 4.55503 11.9983 4.86016 11.9983H10.3369C10.5438 12.0707 10.7446 12.1431 10.9391 12.2155C11.429 12.3923 11.8595 12.5912 12.2306 12.8122C12.6017 13.0184 12.8912 13.2689 13.099 13.5635C13.3068 13.8582 13.4108 14.2118 13.4108 14.6243C13.4108 15.0074 13.3143 15.3389 13.1213 15.6188C12.9283 15.8987 12.6537 16.1197 12.2974 16.2818C11.956 16.4291 11.5477 16.5028 11.0727 16.5028C10.5234 16.5028 10.0484 16.3996 9.64759 16.1934C9.26163 15.9724 8.95731 15.6777 8.73464 15.3094C8.51197 14.9411 8.39321 14.5285 8.37836 14.0718H5.19415C5.209 15.1179 5.46878 16.0092 5.9735 16.7459C6.49307 17.4825 7.19078 18.0424 8.06662 18.4254C8.95731 18.8085 9.96676 19 11.095 19C12.2974 19 13.3068 18.7864 14.1233 18.3591C14.9398 17.9319 15.5558 17.372 15.9715 16.6796C16.402 15.9871 16.6172 15.2357 16.6172 14.4254C16.6172 13.4825 16.4242 12.7238 16.0383 12.1492C16.0039 12.098 15.9685 12.0477 15.932 11.9983H17.2937C17.5988 11.9983 17.8461 11.7509 17.8461 11.4458C17.8461 11.1407 17.5988 10.8933 17.2937 10.8933H14.716C14.6393 10.8462 14.5604 10.8007 14.4796 10.7569C13.8264 10.3886 13.1139 10.0718 12.3419 9.80663C11.8224 9.64457 11.3399 9.48987 10.8946 9.34254C10.4492 9.18048 10.0632 9.01105 9.73666 8.83425C9.41008 8.64273 9.15771 8.42173 8.97958 8.17127C8.80144 7.92081 8.71237 7.61142 8.71237 7.24309C8.71237 6.86004 8.80144 6.54328 8.97958 6.29282C9.15771 6.02762 9.40265 5.82873 9.7144 5.69613C10.041 5.56354 10.3973 5.5046 10.7832 5.51934C11.2286 5.51934 11.6145 5.6151 11.9411 5.80663C12.2677 5.98343 12.5201 6.22652 12.6982 6.53591C12.8912 6.83057 12.9951 7.14733 13.0099 7.48619H16.2387C16.209 6.57274 15.9566 5.77716 15.4816 5.09945C15.0214 4.42173 14.3905 3.90608 13.5889 3.55249C12.8021 3.18416 11.8817 3 10.8278 3C9.80346 3 8.89051 3.1768 8.08889 3.53039C7.28727 3.88398 6.65637 4.39226 6.19618 5.05525C5.75083 5.71823 5.52816 6.51381 5.52816 7.44199C5.52816 8.53223 5.85475 9.41621 6.50792 10.0939Z" class="ColorScheme-Text" fill="currentColor"/>
</svg>
