<svg width="22" height="22" viewBox="0 0 22 22" fill="none" xmlns="http://www.w3.org/2000/svg">
<defs id="defs3051"><style type="text/css" id="current-color-scheme">.ColorScheme-Text { color: #232629; }</style></defs>
<path d="M2.68387 10.8663C2.40369 10.7046 2.05347 10.9068 2.05347 11.2303V14.7661C2.05347 15.0896 2.40369 15.2918 2.68387 15.1301L5.74598 13.3621C6.02616 13.2004 6.02616 12.796 5.74598 12.6342L2.68387 10.8663Z" class="ColorScheme-Text" fill="currentColor"/>
<path d="M2.91745 4.80215C2.41987 4.80193 2.01637 4.3987 2.01637 3.90108C2.01637 3.40345 2.41987 3.00022 2.91745 3L19.0827 3C19.5804 3 19.9838 3.40332 19.9838 3.90108C19.9838 4.39884 19.5804 4.80215 19.0827 4.80215L2.91745 4.80215Z" class="ColorScheme-Text" fill="currentColor"/>
<path d="M8.84194 13.8542C8.34439 13.8539 7.94086 13.4507 7.94086 12.9531C7.94086 12.4555 8.34439 12.0523 8.84194 12.052L16.6488 12.052C17.1466 12.052 17.5499 12.4553 17.5499 12.9531C17.5499 13.4508 17.1466 13.8542 16.6488 13.8542L8.84194 13.8542Z" class="ColorScheme-Text" fill="currentColor"/>
<path d="M2.91729 17.1978C2.41978 17.1981 2.01621 17.6013 2.01621 18.0989C2.01621 18.5965 2.41977 18.9997 2.91729 19L12.0105 19C12.5083 19 12.9116 18.5967 12.9116 18.0989C12.9116 17.6012 12.5083 17.1978 12.0105 17.1978L2.91729 17.1978Z" class="ColorScheme-Text" fill="currentColor"/>
<path d="M2.91728 7.43243C2.41952 7.43243 2.0162 7.83575 2.0162 8.33351C2.0162 8.83127 2.41952 9.23459 2.91728 9.23459L11.741 9.23459C12.2387 9.23459 12.642 8.83127 12.642 8.33351C12.642 7.83575 12.2387 7.43243 11.741 7.43243L2.91728 7.43243Z" class="ColorScheme-Text" fill="currentColor"/>
</svg>
