<svg width="22" height="22" viewBox="0 0 22 22" fill="none" xmlns="http://www.w3.org/2000/svg">
<defs id="defs3051"><style type="text/css" id="current-color-scheme">.ColorScheme-Text { color: #232629; }</style></defs>
<path d="M2.72667 4.95201C2.18752 4.95201 1.74934 4.51515 1.74934 3.97601C1.74934 3.43686 2.18752 3.00001 2.72667 3L19.2747 3C19.8138 3 20.2507 3.43686 20.2507 3.976C20.2507 4.51515 19.8138 4.952 19.2747 4.952L2.72667 4.95201Z" class="ColorScheme-Text" fill="currentColor"/>
<path d="M3.58216 14.3173C3.04329 14.317 2.60616 13.8803 2.60616 13.3413C2.60616 12.8024 3.04329 12.3657 3.58216 12.3653L18.4182 12.3653C18.9573 12.3653 19.3942 12.8022 19.3942 13.3413C19.3942 13.8805 18.9573 14.3173 18.4182 14.3173L3.58216 14.3173Z" class="ColorScheme-Text" fill="currentColor"/>
<path d="M4.7914 19C4.25225 19 3.81407 18.5631 3.81407 18.024C3.81407 17.4849 4.25225 17.048 4.7914 17.048H17.2101C17.7492 17.048 18.1861 17.4849 18.1861 18.024C18.1861 18.5631 17.7492 19 17.2101 19H4.7914Z" class="ColorScheme-Text" fill="currentColor"/>
<path d="M5.70217 9.63467C5.16329 9.63435 4.72617 9.19762 4.72617 8.65867C4.72617 8.11971 5.16329 7.68298 5.70217 7.68267L16.2982 7.68267C16.8373 7.68267 17.2742 8.11952 17.2742 8.65867C17.2742 9.19781 16.8373 9.63467 16.2982 9.63467L5.70217 9.63467Z" class="ColorScheme-Text" fill="currentColor"/>
</svg>
