<svg width="22" height="22" viewBox="0 0 22 22" fill="none" xmlns="http://www.w3.org/2000/svg">
<defs id="defs3051"><style type="text/css" id="current-color-scheme">.ColorScheme-Text { color: #232629; }</style></defs>
<path d="M5.41428 3C5.02768 3 4.71428 3.3134 4.71428 3.7V18.3C4.71428 18.6866 5.02768 19 5.41428 19H11.7991C12.976 19 13.9699 18.8171 14.781 18.4514C15.592 18.0705 16.2122 17.5524 16.6416 16.8971C17.071 16.2419 17.2857 15.4876 17.2857 14.6343C17.2857 13.9333 17.1108 13.2857 16.7609 12.6914C16.4269 12.0971 15.9578 11.6248 15.3535 11.2743C14.95 11.0235 14.5053 10.8515 14.0196 10.7584C14.3275 10.6759 14.621 10.566 14.9002 10.4286C15.5046 10.1238 15.9896 9.69714 16.3554 9.14857C16.7211 8.6 16.904 7.9219 16.904 7.11428C16.904 6.30667 16.6973 5.5981 16.2838 4.98857C15.8862 4.36381 15.2899 3.87619 14.4947 3.52571C13.6995 3.17524 12.7215 3 11.5606 3H5.41428ZM11.2743 16.4857H7.93466V11.9829H11.2266C12.1013 11.9829 12.7851 12.1886 13.2781 12.6C13.7711 12.9962 14.0176 13.5524 14.0176 14.2686C14.0176 14.9848 13.7791 15.5333 13.302 15.9143C12.8249 16.2952 12.149 16.4857 11.2743 16.4857ZM11.0358 9.67429H7.93466V5.46857H11.0119C11.8707 5.46857 12.5227 5.65905 12.968 6.04C13.4133 6.40571 13.6359 6.91619 13.6359 7.57143C13.6359 8.2419 13.4133 8.76 12.968 9.12571C12.5227 9.49143 11.8786 9.67429 11.0358 9.67429Z" class="ColorScheme-Text" fill="currentColor"/>
</svg>
