<svg width="22" height="22" viewBox="0 0 22 22" fill="none" xmlns="http://www.w3.org/2000/svg">
<defs id="defs3051"><style type="text/css" id="current-color-scheme">.ColorScheme-Text { color: #232629; }</style></defs>
<path d="M6.07692 19L6.15874 18.7576L6.97698 18.4424C7.41338 18.2808 7.67703 17.9899 7.76795 17.5697L9.26806 10.5152C9.44989 9.6101 9.6499 8.61616 9.8681 7.53333C10.0863 6.4505 10.2863 5.43232 10.4681 4.47879C10.5591 3.99394 10.3409 3.64646 9.81355 3.43636L9.26806 3.24242L9.34988 3H15.9231L15.8685 3.24242L15.0776 3.50909C14.6412 3.65454 14.3593 3.95353 14.232 4.40606L12.7319 11.4606C12.5501 12.3657 12.3501 13.3596 12.1319 14.4424C11.9137 15.5253 11.7046 16.5434 11.5046 17.497C11.45 17.9657 11.6591 18.3051 12.1319 18.5152L12.7592 18.7576L12.6774 19H6.07692Z" class="ColorScheme-Text" fill="currentColor"/>
</svg>
