<svg width="22" height="22" viewBox="0 0 22 22" fill="none" xmlns="http://www.w3.org/2000/svg">
<defs id="defs3051"><style type="text/css" id="current-color-scheme">.ColorScheme-Text { color: #232629; }</style></defs>
<path d="M11.1109 15.8585C10.1597 15.8585 9.29287 15.6719 8.51028 15.2987C7.73973 14.9134 7.1257 14.3415 6.66819 13.583C6.22271 12.8245 5.99998 11.8673 5.99998 10.7115V4.35448C5.99998 3.60642 6.6064 3 7.35446 3C8.10252 3 8.70894 3.60642 8.70894 4.35448V10.7296C8.70894 11.2954 8.79924 11.777 8.97983 12.1744C9.17247 12.5717 9.44939 12.8727 9.81058 13.0773C10.1838 13.27 10.6293 13.3663 11.147 13.3663C11.6768 13.3663 12.1222 13.27 12.4834 13.0773C12.8567 12.8727 13.1396 12.5717 13.3322 12.1744C13.5249 11.777 13.6212 11.2954 13.6212 10.7296V4.35448C13.6212 3.60642 14.2276 3 14.9757 3C15.7237 3 16.3301 3.60642 16.3301 4.35448V10.7115C16.3301 11.8673 16.0894 12.8245 15.6078 13.583C15.1382 14.3415 14.5061 14.9134 13.7115 15.2987C12.9289 15.6719 12.062 15.8585 11.1109 15.8585Z" class="ColorScheme-Text" fill="currentColor"/>
<path d="M19.0989 18.3085C19.0989 18.6904 18.7892 19 18.4073 19H3.59268C3.21075 19 2.90114 18.6904 2.90114 18.3085C2.90114 17.9265 3.21075 17.6169 3.59268 17.6169H18.4073C18.7892 17.6169 19.0989 17.9265 19.0989 18.3085Z" class="ColorScheme-Text" fill="currentColor"/>
</svg>
