<svg width="22" height="22" viewBox="0 0 22 22" fill="none" xmlns="http://www.w3.org/2000/svg">
<defs id="defs3051"><style type="text/css" id="current-color-scheme">.ColorScheme-Text { color: #232629; }</style></defs>
<path d="M9.31429 3C9.06181 3 8.85714 3.20467 8.85714 3.45714V5.28571H10.6857C10.9382 5.28571 11.1429 5.08104 11.1429 4.82857V3.45714C11.1429 3.20467 10.9382 3 10.6857 3H9.31429Z" class="ColorScheme-Text" fill="currentColor"/>
<path d="M7.02857 5.28571C6.7761 5.28571 6.57143 5.49038 6.57143 5.74286V7.57143H8.4C8.65247 7.57143 8.85714 7.36676 8.85714 7.11429V5.28571H7.02857Z" class="ColorScheme-Text" fill="currentColor"/>
<path d="M4.74286 7.57143C4.49038 7.57143 4.28571 7.7761 4.28571 8.02857V9.85714H6.11429C6.36676 9.85714 6.57143 9.65247 6.57143 9.4V7.57143H4.74286Z" class="ColorScheme-Text" fill="currentColor"/>
<path d="M2.45714 9.85714C2.20467 9.85714 2 10.0618 2 10.3143V11.6857C2 11.9382 2.20467 12.1429 2.45714 12.1429H4.28571V9.85714H2.45714Z" class="ColorScheme-Text" fill="currentColor"/>
<path d="M4.28571 12.1429V13.9714C4.28571 14.2239 4.49038 14.4286 4.74286 14.4286H6.57143V12.6C6.57143 12.3475 6.36676 12.1429 6.11429 12.1429H4.28571Z" class="ColorScheme-Text" fill="currentColor"/>
<path d="M6.57143 14.4286V16.2571C6.57143 16.5096 6.7761 16.7143 7.02857 16.7143H8.85714V14.8857C8.85714 14.6332 8.65247 14.4286 8.4 14.4286H6.57143Z" class="ColorScheme-Text" fill="currentColor"/>
<path d="M8.85714 16.7143V18.5429C8.85714 18.7953 9.06181 19 9.31429 19H10.6857C10.9382 19 11.1429 18.7953 11.1429 18.5429V17.1714C11.1429 16.919 10.9382 16.7143 10.6857 16.7143H8.85714Z" class="ColorScheme-Text" fill="currentColor"/>
<path d="M18.3143 3C18.0618 3 17.8571 3.20467 17.8571 3.45714V5.28571H19.6857C19.9382 5.28571 20.1429 5.08104 20.1429 4.82857V3.45714C20.1429 3.20467 19.9382 3 19.6857 3H18.3143Z" class="ColorScheme-Text" fill="currentColor"/>
<path d="M16.0286 5.28571C15.7761 5.28571 15.5714 5.49038 15.5714 5.74286V7.57143H17.4C17.6525 7.57143 17.8571 7.36676 17.8571 7.11429V5.28571H16.0286Z" class="ColorScheme-Text" fill="currentColor"/>
<path d="M13.7429 7.57143C13.4904 7.57143 13.2857 7.7761 13.2857 8.02857V9.85714H15.1143C15.3668 9.85714 15.5714 9.65247 15.5714 9.4V7.57143H13.7429Z" class="ColorScheme-Text" fill="currentColor"/>
<path d="M11.4571 9.85714C11.2047 9.85714 11 10.0618 11 10.3143V11.6857C11 11.9382 11.2047 12.1429 11.4571 12.1429H13.2857V9.85714H11.4571Z" class="ColorScheme-Text" fill="currentColor"/>
<path d="M13.2857 12.1429V13.9714C13.2857 14.2239 13.4904 14.4286 13.7429 14.4286H15.5714V12.6C15.5714 12.3475 15.3668 12.1429 15.1143 12.1429H13.2857Z" class="ColorScheme-Text" fill="currentColor"/>
<path d="M15.5714 14.4286V16.2571C15.5714 16.5096 15.7761 16.7143 16.0286 16.7143H17.8571V14.8857C17.8571 14.6332 17.6525 14.4286 17.4 14.4286H15.5714Z" class="ColorScheme-Text" fill="currentColor"/>
<path d="M17.8571 16.7143V18.5429C17.8571 18.7953 18.0618 19 18.3143 19H19.6857C19.9382 19 20.1429 18.7953 20.1429 18.5429V17.1714C20.1429 16.919 19.9382 16.7143 19.6857 16.7143H17.8571Z" class="ColorScheme-Text" fill="currentColor"/>
</svg>
