<svg width="22" height="22" viewBox="0 0 22 22" fill="none" xmlns="http://www.w3.org/2000/svg">
<defs id="defs3051"><style type="text/css" id="current-color-scheme">.ColorScheme-Text { color: #232629; }</style></defs>
<path d="M3 10.4C3 10.1791 3.17909 10 3.4 10H5V17H3.4C3.17909 17 3 16.8209 3 16.6V10.4Z" class="ColorScheme-Text" fill="currentColor"/>
<path d="M5 8.4C5 8.17909 5.17909 8 5.4 8H7V9.6C7 9.82091 6.82091 10 6.6 10H5V8.4Z" class="ColorScheme-Text" fill="currentColor"/>
<path d="M17 8.4C17 8.17909 16.8209 8 16.6 8H15V9.6C15 9.82091 15.1791 10 15.4 10H17V8.4Z" class="ColorScheme-Text" fill="currentColor"/>
<path d="M7 6.4C7 6.17909 7.17909 6 7.4 6H9V7.6C9 7.82091 8.82091 8 8.6 8H7V6.4Z" class="ColorScheme-Text" fill="currentColor"/>
<path d="M15 6.4C15 6.17909 14.8209 6 14.6 6H13V7.6C13 7.82091 13.1791 8 13.4 8H15V6.4Z" class="ColorScheme-Text" fill="currentColor"/>
<path d="M19 10.4C19 10.1791 18.8209 10 18.6 10H17V17H13.4C13.1791 17 13 16.8209 13 16.6V15V13.4C13 13.1791 12.8209 13 12.6 13H11H9.4C9.17909 13 9 13.1791 9 13.4V15V16.6C9 16.8209 8.82091 17 8.6 17H5V18.6C5 18.8209 5.17909 19 5.4 19H16.6C16.8209 19 17 18.8209 17 18.6V17H18.6C18.8209 17 19 16.8209 19 16.6V10.4Z" class="ColorScheme-Text" fill="currentColor"/>
<path d="M11 4H9.4C9.17909 4 9 4.17909 9 4.4V6H11H13V4.4C13 4.17909 12.8209 4 12.6 4H11Z" class="ColorScheme-Text" fill="currentColor"/>
</svg>
