<svg width="22" height="22" viewBox="0 0 22 22" fill="none" xmlns="http://www.w3.org/2000/svg">
<defs id="defs3051"><style type="text/css" id="current-color-scheme">.ColorScheme-Text { color: #232629; }</style></defs>
<path d="M12.8285 3C13.081 3 13.2857 3.20467 13.2857 3.45714V5.28571H11.4571C11.2046 5.28571 11 5.08104 11 4.82857V3.45714C11 3.20467 11.2046 3 11.4571 3H12.8285Z" class="ColorScheme-Text" fill="currentColor"/>
<path d="M15.1143 5.28571C15.3667 5.28571 15.5714 5.49038 15.5714 5.74286V7.57143H13.7428C13.4903 7.57143 13.2857 7.36676 13.2857 7.11429V5.28571H15.1143Z" class="ColorScheme-Text" fill="currentColor"/>
<path d="M17.4 7.57143C17.6524 7.57143 17.8571 7.7761 17.8571 8.02857V9.85714H16.0285C15.7761 9.85714 15.5714 9.65247 15.5714 9.4V7.57143H17.4Z" class="ColorScheme-Text" fill="currentColor"/>
<path d="M19.6857 9.85714C19.9382 9.85714 20.1428 10.0618 20.1428 10.3143V11.6857C20.1428 11.9382 19.9382 12.1429 19.6857 12.1429H17.8571V9.85714H19.6857Z" class="ColorScheme-Text" fill="currentColor"/>
<path d="M17.8571 12.1429V13.9714C17.8571 14.2239 17.6524 14.4286 17.4 14.4286H15.5714V12.6C15.5714 12.3475 15.7761 12.1429 16.0285 12.1429H17.8571Z" class="ColorScheme-Text" fill="currentColor"/>
<path d="M15.5714 14.4286V16.2571C15.5714 16.5096 15.3667 16.7143 15.1143 16.7143H13.2857V14.8857C13.2857 14.6332 13.4903 14.4286 13.7428 14.4286H15.5714Z" class="ColorScheme-Text" fill="currentColor"/>
<path d="M13.2857 16.7143V18.5429C13.2857 18.7953 13.081 19 12.8285 19H11.4571C11.2046 19 11 18.7953 11 18.5429V17.1714C11 16.919 11.2046 16.7143 11.4571 16.7143H13.2857Z" class="ColorScheme-Text" fill="currentColor"/>
<path d="M3.82854 3C4.08101 3 4.28568 3.20467 4.28568 3.45714V5.28571H2.45711C2.20463 5.28571 1.99996 5.08104 1.99996 4.82857V3.45714C1.99996 3.20467 2.20463 3 2.45711 3H3.82854Z" class="ColorScheme-Text" fill="currentColor"/>
<path d="M6.11425 5.28571C6.36672 5.28571 6.57139 5.49038 6.57139 5.74286V7.57143H4.74282C4.49035 7.57143 4.28568 7.36676 4.28568 7.11429V5.28571H6.11425Z" class="ColorScheme-Text" fill="currentColor"/>
<path d="M8.39996 7.57143C8.65244 7.57143 8.85711 7.7761 8.85711 8.02857V9.85714H7.02854C6.77606 9.85714 6.57139 9.65247 6.57139 9.4V7.57143H8.39996Z" class="ColorScheme-Text" fill="currentColor"/>
<path d="M10.6857 9.85714C10.9382 9.85714 11.1428 10.0618 11.1428 10.3143V11.6857C11.1428 11.9382 10.9382 12.1429 10.6857 12.1429H8.85711V9.85714H10.6857Z" class="ColorScheme-Text" fill="currentColor"/>
<path d="M8.85711 12.1429V13.9714C8.85711 14.2239 8.65244 14.4286 8.39997 14.4286H6.57139V12.6C6.57139 12.3475 6.77606 12.1429 7.02854 12.1429H8.85711Z" class="ColorScheme-Text" fill="currentColor"/>
<path d="M6.57139 14.4286V16.2571C6.57139 16.5096 6.36672 16.7143 6.11425 16.7143H4.28568V14.8857C4.28568 14.6332 4.49035 14.4286 4.74282 14.4286H6.57139Z" class="ColorScheme-Text" fill="currentColor"/>
<path d="M4.28568 16.7143V18.5429C4.28568 18.7953 4.08101 19 3.82854 19H2.45711C2.20463 19 1.99996 18.7953 1.99996 18.5429V17.1714C1.99996 16.919 2.20463 16.7143 2.45711 16.7143H4.28568Z" class="ColorScheme-Text" fill="currentColor"/>
</svg>
