<svg width="22" height="22" viewBox="0 0 22 22" fill="none" xmlns="http://www.w3.org/2000/svg">
<defs id="defs3051"><style type="text/css" id="current-color-scheme">.ColorScheme-Text { color: #232629; }</style></defs>
<rect x="3" y="17" width="2" height="2" class="ColorScheme-Text" fill="currentColor"/>
<rect x="7" y="13" width="2" height="2" class="ColorScheme-Text" fill="currentColor"/>
<rect x="10" y="10" width="2" height="2" class="ColorScheme-Text" fill="currentColor"/>
<rect x="13" y="7" width="2" height="2" class="ColorScheme-Text" fill="currentColor"/>
<rect x="15" y="5" width="2" height="2" class="ColorScheme-Text" fill="currentColor"/>
<rect x="17" y="3" width="2" height="2" class="ColorScheme-Text" fill="currentColor"/>
<rect x="5" y="15" width="2" height="2" class="ColorScheme-Text" fill="currentColor"/>
<rect width="2" height="2" transform="matrix(-1 0 0 1 19 17)" class="ColorScheme-Text" fill="currentColor"/>
<rect width="2" height="2" transform="matrix(-1 0 0 1 15 13)" class="ColorScheme-Text" fill="currentColor"/>
<rect width="2" height="2" transform="matrix(-1 0 0 1 9 7)" class="ColorScheme-Text" fill="currentColor"/>
<rect width="2" height="2" transform="matrix(-1 0 0 1 7 5)" class="ColorScheme-Text" fill="currentColor"/>
<rect width="2" height="2" transform="matrix(-1 0 0 1 5 3)" class="ColorScheme-Text" fill="currentColor"/>
<rect width="2" height="2" transform="matrix(-1 0 0 1 17 15)" class="ColorScheme-Text" fill="currentColor"/>
</svg>
