<svg width="22" height="22" viewBox="0 0 22 22" fill="none" xmlns="http://www.w3.org/2000/svg">
<defs id="defs3051"><style type="text/css" id="current-color-scheme">.ColorScheme-Text { color: #232629; }</style></defs>
<path d="M11.4941 7.49414C11.7733 7.21492 12.2266 7.21492 12.5058 7.49414C12.785 7.77336 12.785 8.22663 12.5058 8.50586L10.0117 11L12.5058 13.4941C12.785 13.7734 12.785 14.2266 12.5058 14.5059C12.2266 14.7851 11.7733 14.7851 11.4941 14.5059L8.49409 11.5059C8.21486 11.2266 8.21486 10.7734 8.49409 10.4941L11.4941 7.49414Z" class="ColorScheme-Text" fill="currentColor"/>
<path d="M17.5703 11C17.5703 7.37149 14.6285 4.42969 11 4.42969C7.37149 4.42969 4.42969 7.37149 4.42969 11C4.42969 14.6285 7.37149 17.5703 11 17.5703C14.6285 17.5703 17.5703 14.6285 17.5703 11ZM19 11C19 15.4183 15.4183 19 11 19C6.58172 19 3 15.4183 3 11C3 6.58172 6.58172 3 11 3C15.4183 3 19 6.58172 19 11Z" class="ColorScheme-Text" fill="currentColor"/>
</svg>
