<svg width="22" height="22" viewBox="0 0 22 22" fill="none" xmlns="http://www.w3.org/2000/svg">
<defs id="defs3051"><style type="text/css" id="current-color-scheme">.ColorScheme-Text { color: #232629; }</style></defs>
<path d="M11 4.42969C14.6285 4.42969 17.5703 7.37149 17.5703 11C17.5703 14.0814 15.4488 16.6676 12.5868 17.3774C12.2383 17.4638 11.9739 17.7644 11.9739 18.1235C11.9739 18.5583 12.3556 18.8977 12.7796 18.8014C16.3413 17.9923 19 14.8066 19 11C19 6.58172 15.4183 3 11 3C8.40353 3 6.09597 4.23695 4.63444 6.15372L4.54421 4.11627C4.53062 3.80949 4.27104 3.57193 3.96427 3.58552C3.65749 3.5991 3.41993 3.85868 3.43351 4.16546L3.60553 8.04987C3.61912 8.35664 3.8787 8.59421 4.18548 8.58062L8.06989 8.4086C8.37666 8.39501 8.61422 8.13543 8.60064 7.82865C8.58705 7.52188 8.32747 7.28431 8.0207 7.2979L5.49659 7.40968C6.66961 5.61536 8.69641 4.42969 11 4.42969Z" class="ColorScheme-Text" fill="currentColor"/>
<path fill-rule="evenodd" clip-rule="evenodd" d="M3.02793 10.3267C3.0566 9.9827 3.35397 9.73196 3.69915 9.73196C4.14105 9.73196 4.47109 10.1362 4.44308 10.5772C4.4342 10.717 4.42969 10.858 4.42969 11C4.42969 14.0814 6.55118 16.6675 9.41313 17.3774C9.76161 17.4638 10.026 17.7644 10.026 18.1235C10.026 18.5583 9.64431 18.8976 9.22032 18.8013C5.65863 17.9922 3 14.8066 3 11C3 10.7732 3.00943 10.5487 3.02793 10.3267Z" class="ColorScheme-Text" fill="currentColor"/>
</svg>
