<svg width="22" height="22" viewBox="0 0 22 22" fill="none" xmlns="http://www.w3.org/2000/svg">
<defs id="defs3051"><style type="text/css" id="current-color-scheme">.ColorScheme-Text { color: #232629; }</style></defs>
<path fill-rule="evenodd" clip-rule="evenodd" d="M11 3C10.3461 3 9.71044 3.07846 9.10205 3.22649C8.6344 3.34027 8.46332 3.89006 8.73938 4.28431C8.92305 4.54663 9.25443 4.65597 9.56702 4.58643C10.0283 4.48381 10.5078 4.42969 11 4.42969C14.6285 4.42969 17.5703 7.37149 17.5703 11C17.5703 12.3031 17.1909 13.5176 16.5366 14.5391C16.3638 14.8088 16.353 15.1578 16.5368 15.4201C16.8126 15.8141 17.3873 15.8415 17.6547 15.4417C18.5045 14.171 19 12.6434 19 11C19 6.58172 15.4183 3 11 3ZM13.261 17.7156C13.537 18.1098 13.366 18.6596 12.8983 18.7734C12.2898 18.9215 11.6541 19 11 19C6.58172 19 3 15.4183 3 11C3 9.35647 3.49561 7.8287 4.34553 6.55798C4.6129 6.15824 5.18759 6.18561 5.46343 6.57956C5.64716 6.84196 5.63642 7.1909 5.46363 7.46062C4.80916 8.48218 4.42969 9.6968 4.42969 11C4.42969 14.6285 7.37149 17.5703 11 17.5703C11.4923 17.5703 11.9719 17.5162 12.4333 17.4135C12.7459 17.3439 13.0773 17.4533 13.261 17.7156Z" class="ColorScheme-Text" fill="currentColor"/>
<path d="M14.5 10.134C15.1667 10.5189 15.1667 11.4811 14.5 11.866L10 14.4641C9.33333 14.849 8.5 14.3679 8.5 13.5981L8.5 8.40192C8.5 7.63212 9.33333 7.151 10 7.5359L14.5 10.134Z" class="ColorScheme-Text" fill="currentColor"/>
</svg>
