<svg width="22" height="22" viewBox="0 0 22 22" fill="none" xmlns="http://www.w3.org/2000/svg">
<defs id="defs3051"><style type="text/css" id="current-color-scheme">.ColorScheme-Text { color: #232629; }</style></defs>
<path d="M15 19L15.2041 18.9893C16.1457 18.8938 16.8938 18.1457 16.9893 17.2041L17 17V9C17 7.96435 16.2128 7.113 15.2041 7.01074L15 7H7C5.89543 7 5 7.89543 5 9V17L5.01074 17.2041C5.113 18.2128 5.96435 19 7 19H15ZM15.5703 17C15.5703 17.3148 15.3148 17.5703 15 17.5703H7C6.6852 17.5703 6.42969 17.3148 6.42969 17V9C6.42969 8.6852 6.6852 8.42969 7 8.42969H15C15.3148 8.42969 15.5703 8.6852 15.5703 9V17Z" class="ColorScheme-Text" fill="currentColor"/>
<path d="M12.8672 5.63057C12.8672 4.49765 11.9484 3.57883 10.8155 3.57883C9.68257 3.57883 8.76375 4.49765 8.76375 5.63057V7.02902H12.8672V5.63057ZM14.7352 8.24373H6.89575V5.63057C6.89575 3.46576 8.65068 1.71083 10.8155 1.71083C12.9803 1.71083 14.7352 3.46576 14.7352 5.63057V8.24373Z" class="ColorScheme-Text" fill="currentColor"/>
</svg>
