<svg width="22" height="22" viewBox="0 0 22 22" fill="none" xmlns="http://www.w3.org/2000/svg">
<defs id="defs3051"><style type="text/css" id="current-color-scheme">.ColorScheme-Text { color: #232629; }</style></defs>
<path fill-rule="evenodd" clip-rule="evenodd" d="M14 5.29894C14 4.77375 14.5282 4.41574 14.9879 4.66981C17.3857 5.99516 18.9999 8.47899 19 11.3245C19 15.5634 15.4183 19.0003 11 19.0003L10.5879 18.9896C6.36114 18.7838 3 15.4308 3 11.3245C3.00012 8.47899 4.61433 5.99516 7.01213 4.66981C7.47178 4.41574 8 4.77375 8 5.29894C8 5.58425 7.83551 5.84149 7.58864 5.98452C5.6814 7.08952 4.42981 9.08944 4.42969 11.3245C4.42969 14.7183 7.31504 17.5697 11 17.5697C14.685 17.5697 17.5703 14.7183 17.5703 11.3245C17.5702 9.08944 16.3186 7.08952 14.4114 5.98452C14.1645 5.84149 14 5.58425 14 5.29894Z" class="ColorScheme-Text" fill="currentColor"/>
<path d="M10.2852 9.55739V3.82818C10.2852 3.50498 10.6051 3.24311 11 3.24311C11.3949 3.24311 11.7148 3.50498 11.7148 3.82818V9.55739C11.7148 9.88059 11.3949 10.1425 11 10.1425C10.6051 10.1425 10.2852 9.88059 10.2852 9.55739Z" class="ColorScheme-Text" fill="currentColor"/>
</svg>
