<svg width="22" height="22" viewBox="0 0 22 22" fill="none" xmlns="http://www.w3.org/2000/svg">
<defs id="defs3051"><style type="text/css" id="current-color-scheme">.ColorScheme-Text { color: #232629; }</style></defs>
<path d="M17.2469 6.0529C15.782 4.19368 13.5101 2.99999 10.9595 2.99999C7.09157 2.99999 3.86481 5.74493 3.12089 9.39306C3.03536 9.81251 3.3724 10.1837 3.80049 10.1837C4.16537 10.1837 4.46876 9.91042 4.5487 9.5544C5.20733 6.62127 7.8276 4.42968 10.9595 4.42968C13.1679 4.42968 15.122 5.51946 16.3132 7.19057L13.4177 6.9528C13.1425 6.9302 12.9011 7.13494 12.8785 7.41015C12.8559 7.68537 13.0606 7.92674 13.3359 7.94934L17.5643 8.29656L17.6655 8.29518C17.8964 8.26737 18.0837 8.08003 18.1034 7.83921L18.4507 3.6108C18.4733 3.33558 18.2685 3.09421 17.9933 3.07161C17.7181 3.04901 17.4767 3.25375 17.4541 3.52897L17.2469 6.0529Z" class="ColorScheme-Text" fill="currentColor"/>
<path fill-rule="evenodd" clip-rule="evenodd" d="M5.02801 13.8298L8.19757 14.09C8.47279 14.1126 8.71416 13.9079 8.73676 13.6327C8.75936 13.3575 8.55462 13.1161 8.2794 13.0935L4.05099 12.7463L3.94972 12.7477C3.71881 12.7755 3.53159 12.9628 3.51181 13.2036L3.16459 17.432C3.14199 17.7073 3.34673 17.9486 3.62194 17.9712C3.89716 17.9938 4.13853 17.7891 4.16113 17.5139L4.32839 15.477C5.7664 17.6027 8.1997 19 10.9593 19C15.0087 19 18.3553 15.9915 18.886 12.0878C18.952 11.6028 18.4888 11.2407 18.016 11.3674C17.7133 11.4485 17.4989 11.713 17.4505 12.0226C16.9593 15.1655 14.24 17.5703 10.9593 17.5703C8.344 17.5703 6.0854 16.042 5.02801 13.8298Z" class="ColorScheme-Text" fill="currentColor"/>
</svg>
