<svg width="22" height="22" viewBox="0 0 22 22" fill="none" xmlns="http://www.w3.org/2000/svg">
<defs id="defs3051"><style type="text/css" id="current-color-scheme">.ColorScheme-Text { color: #232629; }</style></defs>
<path d="M13.2851 3.99999V7.99999C13.2851 8.39488 13.6051 8.71484 13.9999 8.71484H17.9999C18.3948 8.71484 18.7148 8.39488 18.7148 7.99999C18.7148 7.60511 18.3948 7.28515 17.9999 7.28515H15.7265L18.5058 4.50585C18.785 4.22663 18.785 3.77336 18.5058 3.49413C18.2266 3.21491 17.7733 3.21491 17.4941 3.49413L14.7148 6.27343V3.99999C14.7148 3.60511 14.3948 3.28515 13.9999 3.28515C13.6051 3.28515 13.2851 3.60511 13.2851 3.99999Z" class="ColorScheme-Text" fill="currentColor"/>
<path d="M8.71479 18V14C8.71479 13.6051 8.39483 13.2851 7.99995 13.2851H3.99995C3.60506 13.2851 3.2851 13.6051 3.2851 14C3.2851 14.3949 3.60506 14.7148 3.99995 14.7148H6.27338L3.49409 17.4941C3.21486 17.7734 3.21486 18.2266 3.49409 18.5059C3.77331 18.7851 4.22658 18.7851 4.50581 18.5059L7.2851 15.7266V18C7.2851 18.3949 7.60506 18.7148 7.99995 18.7148C8.39483 18.7148 8.71479 18.3949 8.71479 18Z" class="ColorScheme-Text" fill="currentColor"/>
<path d="M13.2851 18V14C13.2851 13.6051 13.6051 13.2851 13.9999 13.2851H17.9999C18.3948 13.2851 18.7148 13.6051 18.7148 14C18.7148 14.3949 18.3948 14.7148 17.9999 14.7148H15.7265L18.5058 17.4941C18.785 17.7734 18.785 18.2266 18.5058 18.5059C18.2266 18.7851 17.7733 18.7851 17.4941 18.5059L14.7148 15.7266V18C14.7148 18.3949 14.3948 18.7148 13.9999 18.7148C13.6051 18.7148 13.2851 18.3949 13.2851 18Z" class="ColorScheme-Text" fill="currentColor"/>
<path d="M8.71479 3.99999V7.99999C8.71479 8.39488 8.39483 8.71484 7.99995 8.71484H3.99995C3.60506 8.71484 3.2851 8.39488 3.2851 7.99999C3.2851 7.60511 3.60506 7.28515 3.99995 7.28515H6.27338L3.49409 4.50585C3.21486 4.22663 3.21486 3.77336 3.49409 3.49413C3.77331 3.21491 4.22658 3.21491 4.50581 3.49413L7.2851 6.27343V3.99999C7.2851 3.60511 7.60506 3.28515 7.99995 3.28515C8.39483 3.28515 8.71479 3.60511 8.71479 3.99999Z" class="ColorScheme-Text" fill="currentColor"/>
</svg>
