<svg width="22" height="22" viewBox="0 0 22 22" fill="none" xmlns="http://www.w3.org/2000/svg">
<defs id="defs3051"><style type="text/css" id="current-color-scheme">.ColorScheme-Text { color: #232629; }</style></defs>
<path d="M3 4C3 3.44772 3.44772 3 4 3H9C9.55228 3 10 3.44772 10 4V9C10 9.55228 9.55228 10 9 10H4C3.44772 10 3 9.55228 3 9V4Z" class="ColorScheme-Text" fill="currentColor"/>
<path d="M13.4297 8.57031H17.5703V4.42969H13.4297V8.57031ZM19 9C19 9.51768 18.6067 9.94379 18.1025 9.99512L18 10H13L12.8975 9.99512C12.427 9.94722 12.0528 9.57297 12.0049 9.10254L12 9V4C12 3.44772 12.4477 3 13 3H18C18.5523 3 19 3.44772 19 4V9Z" class="ColorScheme-Text" fill="currentColor"/>
<path d="M12 13C12 12.4477 12.4477 12 13 12H18C18.5523 12 19 12.4477 19 13V18C19 18.5523 18.5523 19 18 19H13C12.4477 19 12 18.5523 12 18V13Z" class="ColorScheme-Text" fill="currentColor"/>
<path d="M4.42969 17.5703H8.57031V13.4297H4.42969V17.5703ZM10 18C10 18.5177 9.60667 18.9438 9.10254 18.9951L9 19H4L3.89746 18.9951C3.42703 18.9472 3.05278 18.573 3.00488 18.1025L3 18V13C3 12.4477 3.44772 12 4 12H9C9.55228 12 10 12.4477 10 13V18Z" class="ColorScheme-Text" fill="currentColor"/>
</svg>
