<svg width="22" height="22" viewBox="0 0 22 22" fill="none" xmlns="http://www.w3.org/2000/svg">
<defs id="defs3051"><style type="text/css" id="current-color-scheme">.ColorScheme-Text { color: #232629; }</style></defs>
<path d="M5.64209 3.28516C6.03697 3.28516 6.35693 3.60512 6.35693 4C6.35693 4.39488 6.03697 4.71484 5.64209 4.71484H3.64209C3.24721 4.71484 2.92725 4.39488 2.92725 4C2.92725 3.60512 3.24721 3.28516 3.64209 3.28516H5.64209Z" class="ColorScheme-Text" fill="currentColor"/>
<path d="M11.6421 12.2852C12.037 12.2852 12.3569 12.6051 12.3569 13C12.3569 13.3949 12.037 13.7148 11.6421 13.7148H3.64209C3.24721 13.7148 2.92725 13.3949 2.92725 13C2.92725 12.6051 3.24721 12.2852 3.64209 12.2852H11.6421Z" class="ColorScheme-Text" fill="currentColor"/>
<path d="M8.64209 7.28516C9.03697 7.28516 9.35693 7.60512 9.35693 8C9.35693 8.39488 9.03697 8.71484 8.64209 8.71484H3.64209C3.24721 8.71484 2.92725 8.39488 2.92725 8C2.92725 7.60512 3.24721 7.28516 3.64209 7.28516H8.64209Z" class="ColorScheme-Text" fill="currentColor"/>
<path d="M17.9483 17.2852C18.3258 17.2852 18.6316 17.6051 18.6316 18C18.6316 18.3949 18.3258 18.7148 17.9483 18.7148H3.61053C3.23308 18.7148 2.92725 18.3949 2.92725 18C2.92725 17.6051 3.23308 17.2852 3.61053 17.2852H17.9483Z" class="ColorScheme-Text" fill="currentColor"/>
<path fill-rule="evenodd" clip-rule="evenodd" d="M14.9586 4.12196C14.9201 4.14789 14.8845 4.17647 14.8515 4.20948L14.9586 4.12196Z" class="ColorScheme-Text" fill="currentColor"/>
<path d="M14.8515 4.20948L14.9586 4.12196C15.2361 3.93881 15.6189 3.96519 15.8632 4.20948L18.8632 7.20948C19.1425 7.4887 19.1425 7.94197 18.8632 8.2212C18.584 8.50042 18.1307 8.50042 17.8515 8.2212L16.4137 6.78338C16.2877 6.65738 16.0723 6.74662 16.0723 6.9248V11.7153C16.0723 12.1102 15.7523 12.4302 15.3574 12.4302C14.9625 12.4302 14.6426 12.1102 14.6426 11.7153V6.92469C14.6426 6.74651 14.4271 6.65728 14.3012 6.78327L12.8632 8.2212C12.584 8.50042 12.1307 8.50042 11.8515 8.2212C11.5723 7.94197 11.5723 7.4887 11.8515 7.20948L14.8515 4.20948Z" class="ColorScheme-Text" fill="currentColor"/>
</svg>
