<svg width="22" height="22" viewBox="0 0 22 22" fill="none" xmlns="http://www.w3.org/2000/svg">
<defs id="defs3051"><style type="text/css" id="current-color-scheme">.ColorScheme-Text { color: #232629; }</style></defs>
<path d="M3 17C3 18.1046 3.89543 19 5 19H17C18.1046 19 19 18.1046 19 17V5C19 3.89543 18.1046 3 17 3H5C3.89543 3 3 3.89543 3 5V17ZM9.5 6.4C9.5 6.17909 9.67909 6 9.9 6H17C17.3148 6 17.5703 6.25551 17.5703 6.57031V17C17.5703 17.3148 17.3148 17.5703 17 17.5703H9.9C9.67909 17.5703 9.5 17.3912 9.5 17.1703V6.4ZM8.1 6C8.32091 6 8.5 6.17909 8.5 6.4V17.1703C8.5 17.3912 8.32091 17.5703 8.1 17.5703H5C4.6852 17.5703 4.42969 17.3148 4.42969 17V6.57031C4.42969 6.25551 4.6852 6 5 6H8.1Z" class="ColorScheme-Text" fill="currentColor"/>
<path d="M15.9827 10.1035L14.619 11.4672C14.4628 11.6234 14.4628 11.8766 14.619 12.0328L15.9827 13.3965C16.1779 13.5917 16.1779 13.9083 15.9827 14.1035C15.7874 14.2988 15.4709 14.2988 15.2756 14.1035L13.912 12.7399C13.7558 12.5837 13.5025 12.5837 13.3463 12.7399L11.9827 14.1035C11.7874 14.2988 11.4709 14.2988 11.2756 14.1035C11.0804 13.9083 11.0804 13.5917 11.2756 13.3965L12.6393 12.0328C12.7955 11.8766 12.7955 11.6234 12.6393 11.4672L11.2756 10.1035C11.0804 9.90825 11.0804 9.59175 11.2756 9.39648C11.4709 9.20122 11.7874 9.20122 11.9827 9.39648L13.3463 10.7601C13.5025 10.9163 13.7558 10.9163 13.912 10.7601L15.2756 9.39648C15.4709 9.20122 15.7874 9.20122 15.9827 9.39648C16.1779 9.59175 16.1779 9.90825 15.9827 10.1035Z" class="ColorScheme-Text" fill="currentColor"/>
</svg>
