<svg width="22" height="22" viewBox="0 0 22 22" fill="none" xmlns="http://www.w3.org/2000/svg">
<defs id="defs3051"><style type="text/css" id="current-color-scheme">.ColorScheme-Text { color: #232629; }</style></defs>
<path d="M3.53531 7.34756C4.84973 16.3019 17.8453 16.0739 18.8449 7.079C18.8885 6.68657 18.6055 6.33263 18.213 6.28896C17.8206 6.24536 17.4667 6.52839 17.423 6.9208C16.6087 14.2494 6.02125 14.4351 4.95034 7.13955L4.84097 6.39639C4.78363 6.00578 4.42102 5.73568 4.03042 5.79287C3.63981 5.85021 3.36972 6.21283 3.42691 6.60342L3.53531 7.34756Z" class="ColorScheme-Text" fill="currentColor"/>
<path d="M10.4191 15.4999V13.4999C10.4191 13.105 10.7391 12.7851 11.1339 12.7851C11.5288 12.7851 11.8488 13.105 11.8488 13.4999V15.4999C11.8488 15.8948 11.5288 16.2147 11.1339 16.2147C10.7391 16.2147 10.4191 15.8948 10.4191 15.4999Z" class="ColorScheme-Text" fill="currentColor"/>
<path d="M15.0156 14.7258L14.0156 12.9938C13.8182 12.6518 13.9353 12.2147 14.2773 12.0173C14.6192 11.8199 15.0563 11.937 15.2537 12.279L16.2537 14.011C16.4512 14.353 16.3341 14.7901 15.9921 14.9875C15.6501 15.1849 15.213 15.0678 15.0156 14.7258Z" class="ColorScheme-Text" fill="currentColor"/>
<path d="M18.5086 12.119L16.7765 11.119C16.4345 10.9215 16.3174 10.4845 16.5149 10.1425C16.7123 9.8005 17.1494 9.68339 17.4914 9.88083L19.2234 10.8808C19.5654 11.0783 19.6825 11.5153 19.4851 11.8573C19.2876 12.1993 18.8505 12.3164 18.5086 12.119Z" class="ColorScheme-Text" fill="currentColor"/>
<path d="M6.98421 14.7258L7.98421 12.9938C8.18165 12.6518 8.06454 12.2147 7.72256 12.0173C7.38058 11.8199 6.94351 11.937 6.74607 12.279L5.74607 14.011C5.54863 14.353 5.66574 14.7901 6.00772 14.9875C6.3497 15.1849 6.78677 15.0678 6.98421 14.7258Z" class="ColorScheme-Text" fill="currentColor"/>
<path d="M3.49124 12.119L5.22329 11.119C5.56527 10.9215 5.68239 10.4845 5.48495 10.1425C5.2875 9.8005 4.85043 9.68339 4.50845 9.88083L2.7764 10.8808C2.43442 11.0783 2.31731 11.5153 2.51475 11.8573C2.71219 12.1993 3.14926 12.3164 3.49124 12.119Z" class="ColorScheme-Text" fill="currentColor"/>
</svg>
