<svg width="22" height="22" viewBox="0 0 22 22" fill="none" xmlns="http://www.w3.org/2000/svg">
<defs id="defs3051"><style type="text/css" id="current-color-scheme">.ColorScheme-Text { color: #232629; }</style></defs>
<path fill-rule="evenodd" clip-rule="evenodd" d="M10.7148 14.7852L10.7148 7.09535H12V9L12.0049 9.10254C12.0528 9.57297 12.427 9.94722 12.8975 9.99512L13 10H18L18.1025 9.99512C18.6067 9.94379 19 9.51768 19 9V4C19 3.44772 18.5523 3 18 3H13C12.4477 3 12 3.44772 12 4V5.66566H10V4C10 3.44772 9.55228 3 9 3H4C3.44772 3 3 3.44772 3 4V9L3.00488 9.10254C3.05278 9.57297 3.42703 9.94722 3.89746 9.99512L4 10H9L9.10254 9.99512C9.16531 9.98873 9.22637 9.97652 9.28516 9.95906V15.5C9.28516 15.8949 9.60512 16.2148 10 16.2148H12V18C12 18.5523 12.4477 19 13 19H18C18.5523 19 19 18.5523 19 18V13C19 12.4477 18.5523 12 18 12H13C12.4477 12 12 12.4477 12 13V14.7852H10.7148ZM4.42969 8.57031H8.57031V4.42969H4.42969V8.57031ZM17.5703 8.57031H13.4297V4.42969H17.5703V8.57031Z" class="ColorScheme-Text" fill="currentColor"/>
</svg>
