<svg width="22" height="22" viewBox="0 0 22 22" fill="none" xmlns="http://www.w3.org/2000/svg">
<defs id="defs3051"><style type="text/css" id="current-color-scheme">.ColorScheme-Text { color: #232629; }</style></defs>
<path d="M3.28516 8V4C3.28516 3.60512 3.60512 3.28516 4 3.28516H8C8.39488 3.28516 8.71484 3.60512 8.71484 4C8.71484 4.39488 8.39488 4.71484 8 4.71484H5.72656L8.50586 7.49414C8.78508 7.77337 8.78508 8.22663 8.50586 8.50586C8.22663 8.78508 7.77337 8.78508 7.49414 8.50586L4.71484 5.72656V8C4.71484 8.39488 4.39488 8.71484 4 8.71484C3.60512 8.71484 3.28516 8.39488 3.28516 8Z" class="ColorScheme-Text" fill="currentColor"/>
<path d="M18.7148 14V18C18.7148 18.3949 18.3949 18.7148 18 18.7148H14C13.6051 18.7148 13.2852 18.3949 13.2852 18C13.2852 17.6051 13.6051 17.2852 14 17.2852H16.2734L13.4941 14.5059C13.2149 14.2266 13.2149 13.7734 13.4941 13.4941C13.7734 13.2149 14.2266 13.2149 14.5059 13.4941L17.2852 16.2734V14C17.2852 13.6051 17.6051 13.2852 18 13.2852C18.3949 13.2852 18.7148 13.6051 18.7148 14Z" class="ColorScheme-Text" fill="currentColor"/>
<path d="M3.28516 14V18C3.28516 18.3949 3.60512 18.7148 4 18.7148H8C8.39488 18.7148 8.71484 18.3949 8.71484 18C8.71484 17.6051 8.39488 17.2852 8 17.2852H5.72656L8.50586 14.5059C8.78508 14.2266 8.78508 13.7734 8.50586 13.4941C8.22663 13.2149 7.77337 13.2149 7.49414 13.4941L4.71484 16.2734V14C4.71484 13.6051 4.39488 13.2852 4 13.2852C3.60512 13.2852 3.28516 13.6051 3.28516 14Z" class="ColorScheme-Text" fill="currentColor"/>
<path d="M18.7148 8V4C18.7148 3.60512 18.3949 3.28516 18 3.28516H14C13.6051 3.28516 13.2852 3.60512 13.2852 4C13.2852 4.39488 13.6051 4.71484 14 4.71484H16.2734L13.4941 7.49414C13.2149 7.77337 13.2149 8.22663 13.4941 8.50586C13.7734 8.78508 14.2266 8.78508 14.5059 8.50586L17.2852 5.72656V8C17.2852 8.39488 17.6051 8.71484 18 8.71484C18.3949 8.71484 18.7148 8.39488 18.7148 8Z" class="ColorScheme-Text" fill="currentColor"/>
</svg>
