<svg width="22" height="22" viewBox="0 0 22 22" fill="none" xmlns="http://www.w3.org/2000/svg">
<defs id="defs3051"><style type="text/css" id="current-color-scheme">.ColorScheme-Text { color: #232629; }</style></defs>
<path d="M4.57227 8.57031H8.71289V4.42969H4.57227V8.57031ZM10.1426 9C10.1426 9.51768 9.74925 9.94379 9.24512 9.99512L9.14258 10H4.14258L4.04004 9.99512C3.56961 9.94722 3.19536 9.57297 3.14746 9.10254L3.14258 9V4C3.14258 3.44772 3.59029 3 4.14258 3H9.14258C9.69486 3 10.1426 3.44772 10.1426 4V9Z" class="ColorScheme-Text" fill="currentColor"/>
<path d="M18.1426 3.28516C18.5375 3.28516 18.8574 3.60512 18.8574 4C18.8574 4.39488 18.5375 4.71484 18.1426 4.71484H12.1426C11.7477 4.71484 11.4277 4.39488 11.4277 4C11.4277 3.60512 11.7477 3.28516 12.1426 3.28516H18.1426Z" class="ColorScheme-Text" fill="currentColor"/>
<path d="M16.1426 6.28516C16.5375 6.28516 16.8574 6.60512 16.8574 7C16.8574 7.39488 16.5375 7.71484 16.1426 7.71484H12.1426C11.7477 7.71484 11.4277 7.39488 11.4277 7C11.4277 6.60512 11.7477 6.28516 12.1426 6.28516H16.1426Z" class="ColorScheme-Text" fill="currentColor"/>
<path d="M3.14258 13C3.14258 12.4477 3.59029 12 4.14258 12H9.14258C9.69486 12 10.1426 12.4477 10.1426 13V18C10.1426 18.5523 9.69486 19 9.14258 19H4.14258C3.59029 19 3.14258 18.5523 3.14258 18V13Z" class="ColorScheme-Text" fill="currentColor"/>
<path d="M18.1426 13.2852C18.5375 13.2852 18.8574 13.6051 18.8574 14C18.8574 14.3949 18.5375 14.7148 18.1426 14.7148H12.1426C11.7477 14.7148 11.4277 14.3949 11.4277 14C11.4277 13.6051 11.7477 13.2852 12.1426 13.2852H18.1426Z" class="ColorScheme-Text" fill="currentColor"/>
<path d="M16.1426 16.2852C16.5375 16.2852 16.8574 16.6051 16.8574 17C16.8574 17.3949 16.5375 17.7148 16.1426 17.7148H12.1426C11.7477 17.7148 11.4277 17.3949 11.4277 17C11.4277 16.6051 11.7477 16.2852 12.1426 16.2852H16.1426Z" class="ColorScheme-Text" fill="currentColor"/>
</svg>
