<svg width="22" height="22" viewBox="0 0 22 22" fill="none" xmlns="http://www.w3.org/2000/svg">
<defs id="defs3051"><style type="text/css" id="current-color-scheme">.ColorScheme-Text { color: #232629; }</style></defs>
<path d="M6 18.7148C6.39488 18.7148 6.71484 18.3949 6.71484 18C6.71484 17.6051 6.39488 17.2852 6 17.2852H4C3.60512 17.2852 3.28516 17.6051 3.28516 18C3.28516 18.3949 3.60512 18.7148 4 18.7148H6Z" class="ColorScheme-Text" fill="currentColor"/>
<path d="M12 9.71484C12.3949 9.71484 12.7148 9.39488 12.7148 9C12.7148 8.60512 12.3949 8.28516 12 8.28516H4C3.60512 8.28516 3.28516 8.60512 3.28516 9C3.28516 9.39488 3.60512 9.71484 4 9.71484H12Z" class="ColorScheme-Text" fill="currentColor"/>
<path d="M9 14.7148C9.39488 14.7148 9.71484 14.3949 9.71484 14C9.71484 13.6051 9.39488 13.2852 9 13.2852H4C3.60512 13.2852 3.28516 13.6051 3.28516 14C3.28516 14.3949 3.60512 14.7148 4 14.7148H9Z" class="ColorScheme-Text" fill="currentColor"/>
<path d="M18.361 4.71484C18.7398 4.71484 19.0468 4.39488 19.0468 4C19.0468 3.60512 18.7398 3.28516 18.361 3.28516H3.97093C3.59211 3.28516 3.28516 3.60512 3.28516 4C3.28516 4.39488 3.59211 4.71484 3.97093 4.71484H18.361Z" class="ColorScheme-Text" fill="currentColor"/>
<path fill-rule="evenodd" clip-rule="evenodd" d="M15.2138 17.2243C15.2452 17.2556 15.2854 17.2875 15.3217 17.3125L15.2138 17.2243Z" class="ColorScheme-Text" fill="currentColor"/>
<path d="M16.7716 14.6468C16.6456 14.7728 16.4302 14.6836 16.4302 14.5054V9.71484C16.4302 9.31996 16.1102 9 15.7153 9C15.3204 9 15.0005 9.31996 15.0005 9.71484V14.5055C15.0005 14.6837 14.7851 14.7729 14.6591 14.6469L13.2211 13.209C12.9419 12.9298 12.4886 12.9298 12.2094 13.209C11.9302 13.4882 11.9302 13.9415 12.2094 14.2207L15.2138 17.2243L15.3217 17.3125C15.5992 17.4957 15.9768 17.465 16.2211 17.2207L19.2211 14.2207C19.5004 13.9415 19.5004 13.4882 19.2211 13.209C18.9419 12.9298 18.4886 12.9298 18.2094 13.209L16.7716 14.6468Z" class="ColorScheme-Text" fill="currentColor"/>
</svg>
