<svg width="22" height="22" viewBox="0 0 22 22" fill="none" xmlns="http://www.w3.org/2000/svg">
<defs id="defs3051"><style type="text/css" id="current-color-scheme">.ColorScheme-Text { color: #232629; }</style></defs>
<path d="M3.40107 12.6252C4.71549 3.6708 17.7111 3.89881 18.7106 12.8937C18.7542 13.2862 18.4712 13.6401 18.0788 13.6838C17.6864 13.7274 17.3324 13.4443 17.2888 13.0519C16.4745 5.7233 5.88702 5.53763 4.81611 12.8332L4.70674 13.5763C4.6494 13.9669 4.28679 14.237 3.89619 14.1799C3.50558 14.1225 3.23548 13.7599 3.29267 13.3693L3.40107 12.6252Z" class="ColorScheme-Text" fill="currentColor"/>
<path d="M13.9997 12.9728C13.9997 14.6297 12.6566 15.9728 10.9997 15.9728C9.34285 15.9728 7.9997 14.6297 7.9997 12.9728C7.9997 11.316 9.34285 9.97282 10.9997 9.97282C12.6566 9.97282 13.9997 11.316 13.9997 12.9728Z" class="ColorScheme-Text" fill="currentColor"/>
</svg>
