<svg width="22" height="22" viewBox="0 0 22 22" fill="none" xmlns="http://www.w3.org/2000/svg">
<defs id="defs3051"><style type="text/css" id="current-color-scheme">.ColorScheme-Text { color: #232629; }</style></defs>
<path fill-rule="evenodd" clip-rule="evenodd" d="M18.3157 11.8881C18.3157 12.266 18.0094 12.5723 17.6315 12.5723C17.2535 12.5723 16.9472 12.266 16.9472 11.8881V7.96542C16.9472 7.66408 16.7026 7.41949 16.4013 7.41949H4.91447C4.61313 7.41949 4.36854 7.66408 4.36854 7.96542V16.4013C4.36854 16.7026 4.61313 16.9472 4.91447 16.9472H11.8881C12.266 16.9472 12.5723 17.2535 12.5723 17.6315C12.5723 18.0094 12.266 18.3157 11.8881 18.3157H4.91447C3.85714 18.3157 3 17.4586 3 16.4013V4.91447C3 3.85714 3.85714 3 4.91447 3H16.4013C17.4586 3 18.3157 3.85714 18.3157 4.91447V11.8881Z" class="ColorScheme-Text" fill="currentColor"/>
<path d="M17.6069 15.2384C17.0546 15.2384 16.6069 14.7907 16.6069 14.2384V13.5296C16.6069 13.1516 16.3006 12.8453 15.9226 12.8453C15.5447 12.8453 15.2384 13.1516 15.2384 13.5296V14.2384C15.2384 14.7907 14.7907 15.2384 14.2384 15.2384H13.5296C13.1516 15.2384 12.8453 15.5447 12.8453 15.9226C12.8453 16.3006 13.1516 16.6069 13.5296 16.6069H14.2384C14.7907 16.6069 15.2384 17.0546 15.2384 17.6069V18.3157C15.2384 18.6937 15.5447 19 15.9226 19C16.3006 19 16.6069 18.6937 16.6069 18.3157V17.6069C16.6069 17.0546 17.0546 16.6069 17.6069 16.6069H18.3157C18.6937 16.6069 19 16.3006 19 15.9226C19 15.5447 18.6937 15.2384 18.3157 15.2384H17.6069Z" class="ColorScheme-Text" fill="currentColor"/>
</svg>
