<svg width="22" height="22" viewBox="0 0 22 22" fill="none" xmlns="http://www.w3.org/2000/svg">
<defs id="defs3051"><style type="text/css" id="current-color-scheme">.ColorScheme-Text { color: #232629; }</style></defs>
<path d="M17.4941 3.49414C17.7734 3.21492 18.2266 3.21492 18.5059 3.49414C18.7851 3.77336 18.7851 4.22663 18.5059 4.50586L17.6686 5.34315C14.5444 8.46734 14.5444 13.5327 17.6686 16.6569L18.5059 17.4941C18.7851 17.7734 18.7851 18.2266 18.5059 18.5059C18.2266 18.7851 17.7734 18.7851 17.4941 18.5059L16.6569 17.6686C13.5327 14.5444 8.46735 14.5444 5.34315 17.6686L4.50587 18.5059C4.22664 18.7851 3.77337 18.7851 3.49415 18.5059C3.21492 18.2266 3.21492 17.7734 3.49415 17.4941L4.33143 16.6569C7.45563 13.5327 7.45563 8.46734 4.33143 5.34314L3.49415 4.50586C3.21492 4.22663 3.21492 3.77336 3.49415 3.49414C3.77337 3.21492 4.22664 3.21492 4.50587 3.49414L5.34315 4.33143C8.46735 7.45562 13.5327 7.45562 16.6569 4.33143L17.4941 3.49414Z" class="ColorScheme-Text" fill="currentColor"/>
</svg>
