<svg width="22" height="22" viewBox="0 0 22 22" fill="none" xmlns="http://www.w3.org/2000/svg">
<defs id="defs3051"><style type="text/css" id="current-color-scheme">.ColorScheme-Text { color: #232629; }</style></defs>
<path d="M16.5 9.75C16.5 11.0114 16.154 12.1921 15.5517 13.2021C15.2958 13.6312 15.3166 14.1879 15.6634 14.5474L18.5059 17.4941C18.7851 17.7734 18.7851 18.2266 18.5059 18.5059C18.2266 18.7851 17.7734 18.7851 17.4941 18.5059L14.5474 15.6634C14.1879 15.3166 13.6312 15.2958 13.2021 15.5517C12.1921 16.154 11.0114 16.5 9.75 16.5C6.02208 16.5 3 13.4779 3 9.75C3 6.02208 6.02208 3 9.75 3C13.4779 3 16.5 6.02208 16.5 9.75ZM9.75 14.8916C12.5894 14.8916 14.8916 12.5894 14.8916 9.75C14.8916 6.91057 12.5894 4.6084 9.75 4.6084C6.91057 4.6084 4.6084 6.91057 4.6084 9.75C4.6084 12.5894 6.91057 14.8916 9.75 14.8916Z" class="ColorScheme-Text" fill="currentColor"/>
<path d="M11.0212 11.1981V11.9979H8.61011V11.1981H11.0212ZM11.2214 10.9979V8.58673C11.2214 8.47627 11.1317 8.38654 11.0212 8.38654H8.61011C8.49965 8.38654 8.40991 8.47627 8.40991 8.58673V10.9979C8.40991 11.1083 8.49965 11.1981 8.61011 11.1981V11.9979L8.50757 11.993C8.00344 11.9416 7.61011 11.5155 7.61011 10.9979V8.58673C7.61011 8.03445 8.05782 7.58673 8.61011 7.58673H11.0212C11.5735 7.58673 12.0212 8.03445 12.0212 8.58673V10.9979C12.0212 11.5501 11.5735 11.9979 11.0212 11.9979V11.1981C11.1317 11.1981 11.2214 11.1083 11.2214 10.9979Z" class="ColorScheme-Text" fill="currentColor"/>
</svg>
