<svg width="22" height="22" viewBox="0 0 22 22" fill="none" xmlns="http://www.w3.org/2000/svg">
<defs id="defs3051"><style type="text/css" id="current-color-scheme">.ColorScheme-Text { color: #232629; }</style></defs>
<path d="M16.5 9.75C16.5 11.0114 16.154 12.1921 15.5517 13.2021C15.2958 13.6312 15.3166 14.1879 15.6634 14.5474L18.5059 17.4941C18.7851 17.7734 18.7851 18.2266 18.5059 18.5059C18.2266 18.7851 17.7734 18.7851 17.4941 18.5059L14.5474 15.6634C14.1879 15.3166 13.6312 15.2958 13.2021 15.5517C12.1921 16.154 11.0114 16.5 9.75 16.5C6.02208 16.5 3 13.4779 3 9.75C3 6.02208 6.02208 3 9.75 3C13.4779 3 16.5 6.02208 16.5 9.75ZM9.75 14.8916C12.5894 14.8916 14.8916 12.5894 14.8916 9.75C14.8916 6.91057 12.5894 4.6084 9.75 4.6084C6.91057 4.6084 4.6084 6.91057 4.6084 9.75C4.6084 12.5894 6.91057 14.8916 9.75 14.8916Z" class="ColorScheme-Text" fill="currentColor"/>
<path d="M11.733 8.89354C12.1279 8.89354 12.4479 9.2135 12.4479 9.60838C12.4479 10.0033 12.1279 10.3232 11.733 10.3232H7.73303C7.33815 10.3232 7.01819 10.0033 7.01819 9.60838C7.01819 9.2135 7.33815 8.89354 7.73303 8.89354H11.733Z" class="ColorScheme-Text" fill="currentColor"/>
<path d="M10.4479 11.6084C10.4479 12.0033 10.1279 12.3232 9.73303 12.3232C9.33815 12.3232 9.01819 12.0033 9.01819 11.6084V7.60838C9.01819 7.2135 9.33815 6.89354 9.73303 6.89354C10.1279 6.89354 10.4479 7.2135 10.4479 7.60838V11.6084Z" class="ColorScheme-Text" fill="currentColor"/>
</svg>
