<svg width="22" height="22" viewBox="0 0 22 22" fill="none" xmlns="http://www.w3.org/2000/svg">
<defs id="defs3051"><style type="text/css" id="current-color-scheme">.ColorScheme-Text { color: #232629; }</style></defs>
<path d="M7.76746 3.29585L8.63455 1.28279C8.79077 0.920121 8.62348 0.499687 8.26081 0.343472C7.89814 0.187258 7.47771 0.354541 7.32149 0.717212L5.78352 4.2878L5.7391 4.39091L5.73184 4.40841C5.61459 4.70161 5.70401 5.03813 5.95299 5.23479L8.98444 7.62936C9.29432 7.87412 9.74432 7.82118 9.98908 7.5113C10.2335 7.20143 10.1804 6.75222 9.87063 6.50757L7.90053 4.95114C8.47447 4.72977 9.09809 4.6084 9.75004 4.6084C12.5895 4.6084 14.8916 6.91057 14.8916 9.75C14.8916 12.5894 12.5895 14.8916 9.75004 14.8916C7.18312 14.8916 5.05529 13.0101 4.67049 10.5511C4.60183 10.1123 4.24838 9.75 3.80424 9.75C3.36009 9.75 2.99501 10.1117 3.04728 10.5528C3.44419 13.9023 6.29375 16.5 9.75004 16.5C11.324 16.5 12.7721 15.9613 13.9201 15.0582L17.4942 18.5059C17.7734 18.7851 18.2267 18.7851 18.5059 18.5059C18.7851 18.2266 18.7851 17.7734 18.5059 17.4941L15.0583 13.92C15.9613 12.7721 16.5 11.3239 16.5 9.75C16.5 6.02208 13.478 3 9.75004 3C9.06011 3 8.39435 3.10351 7.76746 3.29585Z" class="ColorScheme-Text" fill="currentColor"/>
</svg>
