<svg width="512" height="512" viewBox="0 0 512 512" fill="none" xmlns="http://www.w3.org/2000/svg">
<path fill-rule="evenodd" clip-rule="evenodd" d="M477.85 392.333H460.558V409.389H443.502V426.445H426.445V443.502H409.389V460.558H102.611V477.85H409.625V460.794H443.738L443.502 443.738H460.794V409.625H477.85V392.333Z" fill="white"/>
<path fill-rule="evenodd" clip-rule="evenodd" d="M443.738 34.1496V51.206H460.794V68.2624H477.85V102.375H494.907V375.512H477.614V170.837H460.558V153.78H443.502V136.724H68.4986V153.78H51.4422V170.837H34.3858V392.333H51.4422V409.389H68.4986V426.445H85.5548V443.502H102.611V460.558L102.375 477.85H85.3186V460.794H68.2622V443.738H51.206V409.625H34.1496V392.569H17.0933V102.375H34.1496V68.2624H51.206V51.206H68.2622V34.1496H102.375V17.0933H409.625V34.1496H443.738Z" fill="white"/>
<path fill-rule="evenodd" clip-rule="evenodd" d="M85.3186 68.2625H102.611V85.555H85.3186V68.2625ZM68.2622 136.488H443.738V153.78H68.2622V136.488ZM51.206 153.544H68.4986V170.837H51.206V153.544ZM443.502 153.544H460.794V170.837H443.502V153.544ZM34.1497 170.6H51.4422V187.893H34.1497V170.6ZM460.558 170.6H477.85V187.893H460.558V170.6Z" fill="#6BB1F9"/>
<path fill-rule="evenodd" clip-rule="evenodd" d="M170.836 153.544H68.2622V170.6H51.206V187.657H34.1497V341.4H51.4422V307.287H68.4986V290.231H85.5548V256.118H102.611V239.062H119.668V222.006H136.724V187.893H153.78V170.837H170.836V153.544Z" fill="#60A2E6"/>
<path fill-rule="evenodd" clip-rule="evenodd" d="M170.836 68.2625H102.375V85.3188H85.3186V102.611H153.78V85.555H170.836V68.2625Z" fill="#60A2E6"/>
<path fill-rule="evenodd" clip-rule="evenodd" d="M221.769 68.2625H239.062V85.555H221.769V68.2625Z" fill="#4193F0"/>
<path fill-rule="evenodd" clip-rule="evenodd" d="M392.569 170.6H375.276V187.893H392.569V170.6ZM358.456 221.769H341.163V238.826H324.107V256.118H341.4V239.062H358.456V221.769ZM341.4 239.062V238.826H341.163V239.062H341.4ZM307.287 289.995H289.995V307.287H307.287V289.995ZM273.174 341.164H255.882V358.22H238.825V375.513H256.118V358.456H273.174V341.164ZM256.118 358.456V358.22H255.882V358.456H256.118ZM222.005 409.389H204.713V426.681H222.005V409.389Z" fill="#3D86D9"/>
<path fill-rule="evenodd" clip-rule="evenodd" d="M307.287 68.2625H238.825V85.3188H221.769V102.611H290.231V85.555H307.287V68.2625Z" fill="#3D86D9"/>
<path fill-rule="evenodd" clip-rule="evenodd" d="M341.163 68.2625H358.456V85.555H341.163V68.2625Z" fill="#328EFB"/>
<path fill-rule="evenodd" clip-rule="evenodd" d="M477.85 187.657H460.558V204.949H477.85V187.657ZM443.738 238.826H426.445V256.118H443.738V238.826ZM409.625 289.995H392.332V307.051H375.276V324.344H392.569V307.287H409.625V289.995ZM392.569 307.287V307.051H392.332V307.287H392.569ZM358.456 358.22H341.164V375.513H358.456V358.22ZM324.343 409.389H307.051V426.681H324.343V409.389Z" fill="#2E7AD4"/>
<path fill-rule="evenodd" clip-rule="evenodd" d="M426.681 68.2625H358.22V85.3188H341.164V102.611H409.625V85.555H426.681V68.2625Z" fill="#2E7AD4"/>
<path fill-rule="evenodd" clip-rule="evenodd" d="M153.544 85.3188H170.836V102.611H153.544V85.3188Z" fill="#5387BD"/>
<path fill-rule="evenodd" clip-rule="evenodd" d="M289.994 85.3188H307.287V102.611H289.994V85.3188Z" fill="#3A7FCD"/>
<path fill-rule="evenodd" clip-rule="evenodd" d="M409.389 85.3188H426.681V102.611H409.389V85.3188Z" fill="#296FC1"/>
<path fill-rule="evenodd" clip-rule="evenodd" d="M170.6 153.544H187.893V170.837H170.6V153.544ZM85.3184 272.938H102.611V290.231H85.3184V272.938ZM51.2058 324.107H68.4984V341.4H51.2058V324.107Z" fill="#5DA0E5"/>
<path fill-rule="evenodd" clip-rule="evenodd" d="M187.656 153.544H204.949V170.837H187.656V153.544ZM170.6 170.6H187.893V187.893H170.6V170.6ZM136.487 221.769H153.78V239.062H136.487V221.769ZM102.375 272.938H119.667V290.231H102.375V272.938ZM68.262 324.107H85.5546V341.4H68.262V324.107ZM51.2058 341.163H68.4984V358.456H51.2058V341.163Z" fill="#5B9EE4"/>
<path fill-rule="evenodd" clip-rule="evenodd" d="M204.713 153.544H222.005V170.837H204.713V153.544ZM119.431 272.938H136.724V290.231H119.431V272.938Z" fill="#589CE3"/>
<path fill-rule="evenodd" clip-rule="evenodd" d="M221.769 153.544H239.062V170.837H221.769V153.544ZM204.713 170.6H222.005V187.893H204.713V170.6ZM170.6 221.769H187.893V239.062H170.6V221.769ZM136.487 272.938H153.78V290.231H136.487V272.938ZM119.431 289.995H136.724V307.287H119.431V289.995ZM85.3184 341.163H102.611V358.456H85.3184V341.163Z" fill="#569AE2"/>
<path fill-rule="evenodd" clip-rule="evenodd" d="M238.826 153.544H256.118V170.837H238.826V153.544ZM187.657 221.769H204.949V239.062H187.657V221.769ZM153.544 272.938H170.836V290.231H153.544V272.938ZM68.2622 392.333H85.5548V409.625H68.2622V392.333Z" fill="#5398E1"/>
<path fill-rule="evenodd" clip-rule="evenodd" d="M255.882 153.544H273.174V170.837H255.882V153.544ZM221.769 204.713H239.062V222.005H221.769V204.713ZM187.656 255.882H204.949V273.174H187.656V255.882ZM153.544 307.051H170.836V324.343H153.544V307.051ZM136.487 324.107H153.78V341.4H136.487V324.107ZM102.375 375.276H119.667V392.569H102.375V375.276Z" fill="#5095E0"/>
<path fill-rule="evenodd" clip-rule="evenodd" d="M272.938 153.544H290.231V170.837H272.938V153.544ZM238.825 204.713H256.118V222.005H238.825V204.713ZM153.544 324.107H170.836V341.4H153.544V324.107Z" fill="#4E93DF"/>
<path fill-rule="evenodd" clip-rule="evenodd" d="M289.994 153.544H307.287V170.837H289.994V153.544ZM255.882 204.713H273.174V222.005H255.882V204.713ZM221.769 255.882H239.062V273.174H221.769V255.882ZM170.6 324.107H187.893V341.4H170.6V324.107ZM136.487 375.276H153.78V392.569H136.487V375.276ZM102.375 426.445H119.667V443.738H102.375V426.445Z" fill="#4B91DE"/>
<path fill-rule="evenodd" clip-rule="evenodd" d="M307.051 153.544H324.343V170.837H307.051V153.544ZM272.938 204.713H290.231V222.005H272.938V204.713ZM187.656 324.107H204.949V341.4H187.656V324.107Z" fill="#498FDD"/>
<path fill-rule="evenodd" clip-rule="evenodd" d="M324.107 153.544H341.4V170.837H324.107V153.544ZM238.825 272.938H256.118V290.231H238.825V272.938ZM204.713 324.107H222.005V341.4H204.713V324.107Z" fill="#468DDD"/>
<path fill-rule="evenodd" clip-rule="evenodd" d="M341.163 153.544H358.456V170.837H341.163V153.544ZM255.882 272.938H273.174V290.231H255.882V272.938ZM221.769 324.107H239.062V341.4H221.769V324.107Z" fill="#448BDC"/>
<path fill-rule="evenodd" clip-rule="evenodd" d="M358.22 153.544H375.512V170.837H358.22V153.544ZM324.107 204.713H341.4V222.005H324.107V204.713ZM289.994 255.882H307.287V273.174H289.994V255.882ZM272.938 272.938H290.231V290.231H272.938V272.938ZM238.825 324.107H256.118V341.4H238.825V324.107ZM204.713 375.276H222.005V392.569H204.713V375.276ZM187.656 392.333H204.949V409.625H187.656V392.333Z" fill="#4189DB"/>
<path fill-rule="evenodd" clip-rule="evenodd" d="M375.276 153.544H392.569V170.837H375.276V153.544ZM289.995 272.938H307.287V290.231H289.995V272.938ZM204.713 392.333H222.005V409.625H204.713V392.333Z" fill="#3F87DA"/>
<path fill-rule="evenodd" clip-rule="evenodd" d="M392.332 153.544H409.625V170.837H392.332V153.544ZM358.22 204.713H375.512V222.005H358.22V204.713ZM307.051 272.938H324.343V290.231H307.051V272.938ZM272.938 324.107H290.231V341.4H272.938V324.107ZM238.825 375.276H256.118V392.569H238.825V375.276ZM221.769 392.333H239.062V409.625H221.769V392.333Z" fill="#3C85D9"/>
<path fill-rule="evenodd" clip-rule="evenodd" d="M409.389 153.544H426.681V170.837H409.389V153.544ZM358.22 221.769H375.512V239.062H358.22V221.769ZM324.107 272.938H341.4V290.231H324.107V272.938ZM238.825 392.333H256.118V409.625H238.825V392.333Z" fill="#3A83D8"/>
<path fill-rule="evenodd" clip-rule="evenodd" d="M426.445 153.544H443.738V170.837H426.445V153.544ZM392.332 204.713H409.625V222.005H392.332V204.713ZM375.276 221.769H392.569V239.062H375.276V221.769ZM341.163 272.938H358.456V290.231H341.163V272.938ZM307.051 324.107H324.343V341.4H307.051V324.107ZM272.938 375.276H290.231V392.569H272.938V375.276ZM255.882 392.333H273.174V409.625H255.882V392.333Z" fill="#3781D7"/>
<path fill-rule="evenodd" clip-rule="evenodd" d="M153.544 170.6H170.836V187.893H153.544V170.6ZM119.431 221.769H136.724V239.062H119.431V221.769ZM68.2622 289.995H85.5548V307.287H68.2622V289.995ZM34.1497 341.164H51.4422V358.456H34.1497V341.164Z" fill="#5EA0E5"/>
<path fill-rule="evenodd" clip-rule="evenodd" d="M187.657 170.6H204.949V187.893H187.657V170.6ZM153.544 221.769H170.836V239.062H153.544V221.769ZM102.375 289.995H119.668V307.287H102.375V289.995ZM68.2622 341.164H85.5548V358.456H68.2622V341.164Z" fill="#599CE3"/>
<path fill-rule="evenodd" clip-rule="evenodd" d="M221.769 170.6H239.062V187.893H221.769V170.6ZM136.487 289.995H153.78V307.287H136.487V289.995ZM102.375 341.164H119.667V358.456H102.375V341.164Z" fill="#5498E1"/>
<path fill-rule="evenodd" clip-rule="evenodd" d="M238.825 170.6H256.118V187.893H238.825V170.6ZM204.713 221.769H222.005V239.062H204.713V221.769ZM170.6 272.938H187.893V290.231H170.6V272.938ZM119.431 341.164H136.724V358.456H119.431V341.164ZM85.3184 392.333H102.611V409.625H85.3184V392.333Z" fill="#5196E0"/>
<path fill-rule="evenodd" clip-rule="evenodd" d="M255.882 170.6H273.174V187.893H255.882V170.6ZM204.713 238.826H222.005V256.118H204.713V238.826ZM170.6 289.995H187.893V307.287H170.6V289.995ZM85.3184 409.389H102.611V426.682H85.3184V409.389Z" fill="#4F94E0"/>
<path fill-rule="evenodd" clip-rule="evenodd" d="M272.938 170.6H290.231V187.893H272.938V170.6ZM238.825 221.769H256.118V239.062H238.825V221.769ZM187.656 289.995H204.949V307.287H187.656V289.995ZM153.544 341.164H170.836V358.456H153.544V341.164ZM102.375 409.389H119.667V426.682H102.375V409.389Z" fill="#4C92DF"/>
<path fill-rule="evenodd" clip-rule="evenodd" d="M289.994 170.6H307.287V187.893H289.994V170.6ZM238.825 238.826H256.118V256.118H238.825V238.826ZM204.713 289.995H222.005V307.287H204.713V289.995ZM153.544 358.22H170.836V375.513H153.544V358.22ZM119.431 409.389H136.724V426.682H119.431V409.389Z" fill="#4A90DE"/>
<path fill-rule="evenodd" clip-rule="evenodd" d="M307.051 170.6H324.343V187.893H307.051V170.6ZM272.938 221.769H290.231V239.062H272.938V221.769ZM255.882 238.826H273.174V256.118H255.882V238.826ZM221.769 289.995H239.062V307.287H221.769V289.995ZM187.656 341.164H204.949V358.456H187.656V341.164ZM153.544 392.333H170.836V409.625H153.544V392.333ZM136.487 409.389H153.78V426.682H136.487V409.389Z" fill="#478EDD"/>
<path fill-rule="evenodd" clip-rule="evenodd" d="M324.107 170.6H341.4V187.893H324.107V170.6ZM289.994 221.769H307.287V239.062H289.994V221.769ZM204.713 341.164H222.005V358.456H204.713V341.164ZM170.6 392.333H187.893V409.625H170.6V392.333Z" fill="#448CDC"/>
<path fill-rule="evenodd" clip-rule="evenodd" d="M341.163 170.6H358.456V187.893H341.163V170.6ZM307.051 221.769H324.343V239.062H307.051V221.769ZM289.994 238.826H307.287V256.118H289.994V238.826ZM255.882 289.995H273.174V307.287H255.882V289.995ZM221.769 341.164H239.062V358.456H221.769V341.164ZM170.6 409.389H187.893V426.682H170.6V409.389Z" fill="#428ADB"/>
<path fill-rule="evenodd" clip-rule="evenodd" d="M358.22 170.6H375.512V187.893H358.22V170.6ZM324.107 221.769H341.4V239.062H324.107V221.769ZM238.825 341.164H256.118V358.456H238.825V341.164Z" fill="#3F88DA"/>
<path fill-rule="evenodd" clip-rule="evenodd" d="M392.332 170.6H409.625V187.893H392.332V170.6ZM307.051 289.995H324.343V307.287H307.051V289.995ZM272.938 341.164H290.231V358.456H272.938V341.164Z" fill="#3A84D8"/>
<path fill-rule="evenodd" clip-rule="evenodd" d="M409.389 170.6H426.681V187.893H409.389V170.6ZM324.107 289.995H341.4V307.287H324.107V289.995ZM289.994 341.164H307.287V358.456H289.994V341.164Z" fill="#3882D7"/>
<path fill-rule="evenodd" clip-rule="evenodd" d="M426.445 170.6H443.738V187.893H426.445V170.6ZM341.163 289.995H358.456V307.287H341.163V289.995ZM255.882 409.389H273.174V426.682H255.882V409.389Z" fill="#3580D7"/>
<path fill-rule="evenodd" clip-rule="evenodd" d="M443.502 170.6H460.794V187.893H443.502V170.6ZM426.445 187.657H443.738V204.949H426.445V187.657ZM392.332 238.826H409.625V256.118H392.332V238.826ZM358.22 289.995H375.512V307.287H358.22V289.995ZM307.051 358.22H324.343V375.513H307.051V358.22ZM272.938 409.389H290.231V426.682H272.938V409.389Z" fill="#337ED6"/>
<path fill-rule="evenodd" clip-rule="evenodd" d="M136.487 187.657H153.78V204.949H136.487V187.657ZM85.3184 255.882H102.611V273.175H85.3184V255.882ZM51.2058 307.051H68.4984V324.344H51.2058V307.051Z" fill="#5FA1E5"/>
<path fill-rule="evenodd" clip-rule="evenodd" d="M153.544 187.657H170.836V204.949H153.544V187.657ZM119.431 238.826H136.724V256.118H119.431V238.826ZM68.2622 307.051H85.5548V324.344H68.2622V307.051ZM34.1497 358.22H51.4422V375.513H34.1497V358.22Z" fill="#5C9FE4"/>
<path fill-rule="evenodd" clip-rule="evenodd" d="M170.6 187.657H187.893V204.949H170.6V187.657ZM85.3184 307.051H102.611V324.344H85.3184V307.051Z" fill="#5A9DE3"/>
<path fill-rule="evenodd" clip-rule="evenodd" d="M187.656 187.657H204.949V204.949H187.656V187.657ZM102.375 307.051H119.667V324.344H102.375V307.051Z" fill="#579BE3"/>
<path fill-rule="evenodd" clip-rule="evenodd" d="M204.713 187.657H222.006V204.949H204.713V187.657ZM187.657 204.713H204.949V222.006H187.657V204.713ZM153.544 255.882H170.836V273.175H153.544V255.882ZM119.431 307.051H136.724V324.344H119.431V307.051ZM102.375 324.107H119.668V341.4H102.375V324.107ZM68.2622 375.276H85.5548V392.569H68.2622V375.276Z" fill="#5599E2"/>
<path fill-rule="evenodd" clip-rule="evenodd" d="M221.769 187.657H239.062V204.949H221.769V187.657ZM170.6 255.882H187.893V273.175H170.6V255.882ZM136.487 307.051H153.78V324.344H136.487V307.051ZM102.375 358.22H119.667V375.513H102.375V358.22Z" fill="#5297E1"/>
<path fill-rule="evenodd" clip-rule="evenodd" d="M238.825 187.657H256.118V204.949H238.825V187.657ZM119.431 358.22H136.724V375.513H119.431V358.22Z" fill="#4F95E0"/>
<path fill-rule="evenodd" clip-rule="evenodd" d="M255.882 187.657H273.174V204.949H255.882V187.657ZM204.713 255.882H222.005V273.175H204.713V255.882ZM170.6 307.051H187.893V324.344H170.6V307.051ZM119.431 375.276H136.724V392.569H119.431V375.276Z" fill="#4D93DF"/>
<path fill-rule="evenodd" clip-rule="evenodd" d="M272.938 187.657H290.231V204.949H272.938V187.657ZM187.656 307.051H204.949V324.344H187.656V307.051Z" fill="#4A91DE"/>
<path fill-rule="evenodd" clip-rule="evenodd" d="M289.994 187.657H307.287V204.949H289.994V187.657ZM238.825 255.882H256.118V273.175H238.825V255.882ZM204.713 307.051H222.005V324.344H204.713V307.051ZM153.544 375.276H170.836V392.569H153.544V375.276ZM119.431 426.445H136.724V443.738H119.431V426.445Z" fill="#488FDD"/>
<path fill-rule="evenodd" clip-rule="evenodd" d="M307.051 187.657H324.343V204.949H307.051V187.657ZM272.938 238.826H290.231V256.118H272.938V238.826ZM238.825 289.995H256.118V307.287H238.825V289.995ZM187.656 358.22H204.949V375.513H187.656V358.22ZM153.544 409.389H170.836V426.682H153.544V409.389Z" fill="#458CDC"/>
<path fill-rule="evenodd" clip-rule="evenodd" d="M324.107 187.657H341.4V204.949H324.107V187.657ZM204.713 358.22H222.005V375.513H204.713V358.22Z" fill="#438ADB"/>
<path fill-rule="evenodd" clip-rule="evenodd" d="M341.163 187.657H358.456V204.949H341.163V187.657ZM307.051 238.826H324.343V256.118H307.051V238.826ZM272.938 289.995H290.231V307.287H272.938V289.995ZM221.769 358.22H239.062V375.513H221.769V358.22ZM187.656 409.389H204.949V426.682H187.656V409.389Z" fill="#4088DA"/>
<path fill-rule="evenodd" clip-rule="evenodd" d="M358.22 187.657H375.512V204.949H358.22V187.657Z" fill="#3E86D9"/>
<path fill-rule="evenodd" clip-rule="evenodd" d="M375.276 187.657H392.569V204.949H375.276V187.657ZM289.995 307.051H307.287V324.344H289.995V307.051ZM255.882 358.22H273.174V375.513H255.882V358.22Z" fill="#3B84D9"/>
<path fill-rule="evenodd" clip-rule="evenodd" d="M392.332 187.657H409.625V204.949H392.332V187.657ZM358.22 238.826H375.512V256.118H358.22V238.826ZM272.938 358.22H290.231V375.513H272.938V358.22ZM238.825 409.389H256.118V426.682H238.825V409.389Z" fill="#3882D8"/>
<path fill-rule="evenodd" clip-rule="evenodd" d="M409.389 187.657H426.681V204.949H409.389V187.657ZM375.276 238.826H392.569V256.118H375.276V238.826ZM324.107 307.051H341.4V324.344H324.107V307.051ZM289.995 358.22H307.287V375.513H289.995V358.22ZM238.825 426.445H256.118V443.738H238.825V426.445Z" fill="#3680D7"/>
<path fill-rule="evenodd" clip-rule="evenodd" d="M443.502 187.657H460.794V204.949H443.502V187.657ZM409.389 238.826H426.681V256.118H409.389V238.826ZM358.22 307.051H375.512V324.344H358.22V307.051ZM324.107 358.22H341.4V375.513H324.107V358.22ZM272.938 426.445H290.231V443.738H272.938V426.445Z" fill="#317CD5"/>
<path fill-rule="evenodd" clip-rule="evenodd" d="M136.487 204.713H153.78V222.005H136.487V204.713Z" fill="#5D9FE5"/>
<path fill-rule="evenodd" clip-rule="evenodd" d="M153.544 204.713H170.836V222.005H153.544V204.713ZM119.431 255.882H136.724V273.174H119.431V255.882Z" fill="#5A9DE4"/>
<path fill-rule="evenodd" clip-rule="evenodd" d="M170.6 204.713H187.893V222.005H170.6V204.713ZM136.487 255.882H153.78V273.174H136.487V255.882ZM85.3184 324.107H102.611V341.4H85.3184V324.107ZM51.2058 375.276H68.4984V392.569H51.2058V375.276Z" fill="#589BE3"/>
<path fill-rule="evenodd" clip-rule="evenodd" d="M204.713 204.713H222.005V222.005H204.713V204.713ZM119.431 324.107H136.724V341.4H119.431V324.107ZM85.3184 375.276H102.611V392.569H85.3184V375.276Z" fill="#5397E1"/>
<path fill-rule="evenodd" clip-rule="evenodd" d="M289.994 204.713H307.287V222.005H289.994V204.713ZM255.882 255.882H273.174V273.174H255.882V255.882ZM170.6 375.276H187.893V392.569H170.6V375.276ZM136.487 426.445H153.78V443.738H136.487V426.445Z" fill="#468DDC"/>
<path fill-rule="evenodd" clip-rule="evenodd" d="M307.051 204.713H324.343V222.005H307.051V204.713ZM187.656 375.276H204.949V392.569H187.656V375.276Z" fill="#438BDC"/>
<path fill-rule="evenodd" clip-rule="evenodd" d="M341.163 204.713H358.456V222.005H341.163V204.713ZM307.051 255.882H324.343V273.174H307.051V255.882ZM255.882 324.107H273.174V341.4H255.882V324.107ZM221.769 375.276H239.062V392.569H221.769V375.276ZM187.656 426.445H204.949V443.738H187.656V426.445Z" fill="#3E87DA"/>
<path fill-rule="evenodd" clip-rule="evenodd" d="M375.276 204.713H392.569V222.005H375.276V204.713ZM341.163 255.882H358.456V273.174H341.163V255.882ZM289.994 324.107H307.287V341.4H289.994V324.107ZM255.882 375.276H273.174V392.569H255.882V375.276ZM221.769 426.445H239.062V443.738H221.769V426.445Z" fill="#3983D8"/>
<path fill-rule="evenodd" clip-rule="evenodd" d="M409.389 204.713H426.681V222.005H409.389V204.713ZM375.276 255.882H392.568V273.174H375.276V255.882ZM324.107 324.107H341.4V341.4H324.107V324.107ZM289.994 375.276H307.287V392.569H289.994V375.276Z" fill="#347FD6"/>
<path fill-rule="evenodd" clip-rule="evenodd" d="M426.445 204.713H443.738V222.005H426.445V204.713ZM375.276 272.938H392.568V290.231H375.276V272.938ZM341.163 324.107H358.456V341.4H341.163V324.107ZM289.994 392.333H307.287V409.625H289.994V392.333Z" fill="#327DD5"/>
<path fill-rule="evenodd" clip-rule="evenodd" d="M443.502 204.713H460.794V222.005H443.502V204.713ZM358.22 324.107H375.512V341.4H358.22V324.107ZM324.107 375.276H341.4V392.569H324.107V375.276Z" fill="#2F7BD4"/>
<path fill-rule="evenodd" clip-rule="evenodd" d="M460.558 204.713H477.85V222.005H460.558V204.713ZM341.163 375.276H358.456V392.569H341.163V375.276Z" fill="#2C79D3"/>
<path fill-rule="evenodd" clip-rule="evenodd" d="M221.769 221.769H239.062V239.062H221.769V221.769ZM187.656 272.938H204.949V290.231H187.656V272.938ZM102.375 392.333H119.667V409.625H102.375V392.333Z" fill="#4E94DF"/>
<path fill-rule="evenodd" clip-rule="evenodd" d="M255.882 221.769H273.174V239.062H255.882V221.769ZM170.6 341.164H187.893V358.456H170.6V341.164ZM136.487 392.333H153.78V409.625H136.487V392.333Z" fill="#4990DE"/>
<path fill-rule="evenodd" clip-rule="evenodd" d="M392.332 221.769H409.625V239.062H392.332V221.769ZM358.22 272.938H375.512V290.231H358.22V272.938ZM272.938 392.333H290.231V409.625H272.938V392.333Z" fill="#357FD6"/>
<path fill-rule="evenodd" clip-rule="evenodd" d="M409.389 221.769H426.681V239.062H409.389V221.769ZM324.107 341.164H341.4V358.456H324.107V341.164Z" fill="#327DD6"/>
<path fill-rule="evenodd" clip-rule="evenodd" d="M426.445 221.769H443.738V239.062H426.445V221.769ZM341.164 341.164H358.456V358.456H341.164V341.164ZM307.051 392.333H324.343V409.625H307.051V392.333Z" fill="#307BD5"/>
<path fill-rule="evenodd" clip-rule="evenodd" d="M443.502 221.769H460.794V239.062H443.502V221.769ZM409.389 272.938H426.681V290.231H409.389V272.938ZM358.22 341.164H375.512V358.456H358.22V341.164ZM324.107 392.333H341.4V409.625H324.107V392.333Z" fill="#2D79D4"/>
<path fill-rule="evenodd" clip-rule="evenodd" d="M460.558 221.769H477.85V239.062H460.558V221.769ZM375.276 341.164H392.569V358.456H375.276V341.164ZM341.163 392.333H358.456V409.625H341.163V392.333Z" fill="#2B77D3"/>
<path fill-rule="evenodd" clip-rule="evenodd" d="M102.375 238.826H119.667V256.118H102.375V238.826Z" fill="#5EA1E5"/>
<path fill-rule="evenodd" clip-rule="evenodd" d="M136.487 238.826H153.78V256.118H136.487V238.826ZM51.2058 358.22H68.4984V375.512H51.2058V358.22Z" fill="#599DE3"/>
<path fill-rule="evenodd" clip-rule="evenodd" d="M153.544 238.826H170.836V256.118H153.544V238.826ZM68.2622 358.22H85.5548V375.512H68.2622V358.22Z" fill="#579BE2"/>
<path fill-rule="evenodd" clip-rule="evenodd" d="M170.6 238.826H187.893V256.118H170.6V238.826Z" fill="#5498E2"/>
<path fill-rule="evenodd" clip-rule="evenodd" d="M187.656 238.826H204.949V256.118H187.656V238.826Z" fill="#5296E1"/>
<path fill-rule="evenodd" clip-rule="evenodd" d="M221.769 238.826H239.062V256.118H221.769V238.826ZM136.487 358.22H153.78V375.512H136.487V358.22Z" fill="#4D92DF"/>
<path fill-rule="evenodd" clip-rule="evenodd" d="M341.163 238.826H358.456V256.118H341.163V238.826ZM221.769 409.389H239.062V426.681H221.769V409.389Z" fill="#3B84D8"/>
<path fill-rule="evenodd" clip-rule="evenodd" d="M443.502 238.826H460.794V256.118H443.502V238.826ZM409.389 289.995H426.681V307.287H409.389V289.995ZM324.107 409.389H341.4V426.681H324.107V409.389Z" fill="#2B78D3"/>
<path fill-rule="evenodd" clip-rule="evenodd" d="M460.558 238.826H477.85V256.118H460.558V238.826ZM426.445 289.995H443.738V307.287H426.445V289.995ZM409.389 307.051H426.681V324.344H409.389V307.051ZM375.276 358.22H392.569V375.512H375.276V358.22ZM341.164 409.389H358.456V426.681H341.164V409.389ZM324.107 426.445H341.4V443.738H324.107V426.445Z" fill="#2976D2"/>
<path fill-rule="evenodd" clip-rule="evenodd" d="M102.375 255.882H119.667V273.174H102.375V255.882Z" fill="#5D9FE4"/>
<path fill-rule="evenodd" clip-rule="evenodd" d="M272.938 255.882H290.231V273.174H272.938V255.882ZM238.825 307.051H256.118V324.343H238.825V307.051ZM153.544 426.445H170.836V443.738H153.544V426.445Z" fill="#438BDB"/>
<path fill-rule="evenodd" clip-rule="evenodd" d="M324.107 255.882H341.4V273.174H324.107V255.882ZM204.713 426.445H222.005V443.738H204.713V426.445Z" fill="#3B85D9"/>
<path fill-rule="evenodd" clip-rule="evenodd" d="M358.22 255.882H375.512V273.174H358.22V255.882Z" fill="#3681D7"/>
<path fill-rule="evenodd" clip-rule="evenodd" d="M392.332 255.882H409.625V273.174H392.332V255.882ZM307.051 375.276H324.343V392.569H307.051V375.276Z" fill="#317DD5"/>
<path fill-rule="evenodd" clip-rule="evenodd" d="M409.389 255.882H426.681V273.174H409.389V255.882ZM289.994 426.445H307.287V443.738H289.994V426.445Z" fill="#2F7AD4"/>
<path fill-rule="evenodd" clip-rule="evenodd" d="M426.445 255.882H443.738V273.174H426.445V255.882ZM392.332 307.051H409.625V324.343H392.332V307.051ZM358.22 358.22H375.512V375.512H358.22V358.22ZM307.051 426.445H324.343V443.738H307.051V426.445Z" fill="#2C78D3"/>
<path fill-rule="evenodd" clip-rule="evenodd" d="M443.501 255.882H460.794V273.174H443.501V255.882Z" fill="#2A76D2"/>
<path fill-rule="evenodd" clip-rule="evenodd" d="M460.558 255.882H477.85V273.174H460.558V255.882ZM375.276 375.276H392.569V392.569H375.276V375.276Z" fill="#2774D2"/>
<path fill-rule="evenodd" clip-rule="evenodd" d="M204.713 272.938H222.005V290.231H204.713V272.938ZM119.431 392.333H136.724V409.625H119.431V392.333Z" fill="#4C92DE"/>
<path fill-rule="evenodd" clip-rule="evenodd" d="M221.769 272.938H239.062V290.231H221.769V272.938Z" fill="#498FDE"/>
<path fill-rule="evenodd" clip-rule="evenodd" d="M392.332 272.938H409.625V290.231H392.332V272.938Z" fill="#2F7BD5"/>
<path fill-rule="evenodd" clip-rule="evenodd" d="M426.445 272.938H443.738V290.231H426.445V272.938ZM392.332 324.107H409.625V341.4H392.332V324.107Z" fill="#2A77D3"/>
<path fill-rule="evenodd" clip-rule="evenodd" d="M443.501 272.938H460.794V290.231H443.501V272.938ZM409.389 324.107H426.681V341.4H409.389V324.107ZM392.332 341.164H409.625V358.456H392.332V341.164ZM358.22 392.333H375.512V409.625H358.22V392.333Z" fill="#2875D2"/>
<path fill-rule="evenodd" clip-rule="evenodd" d="M460.558 272.938H477.85V290.231H460.558V272.938ZM426.445 324.107H443.738V341.4H426.445V324.107ZM375.276 392.333H392.569V409.625H375.276V392.333Z" fill="#2573D1"/>
<path fill-rule="evenodd" clip-rule="evenodd" d="M85.3184 289.995H102.611V307.287H85.3184V289.995Z" fill="#5C9EE4"/>
<path fill-rule="evenodd" clip-rule="evenodd" d="M153.544 289.995H170.836V307.287H153.544V289.995Z" fill="#5196E1"/>
<path fill-rule="evenodd" clip-rule="evenodd" d="M375.276 289.995H392.568V307.287H375.276V289.995ZM289.994 409.389H307.287V426.681H289.994V409.389Z" fill="#307CD5"/>
<path fill-rule="evenodd" clip-rule="evenodd" d="M443.501 289.995H460.794V307.287H443.501V289.995ZM392.332 358.22H409.625V375.512H392.332V358.22ZM358.22 409.389H375.512V426.681H358.22V409.389Z" fill="#2674D1"/>
<path fill-rule="evenodd" clip-rule="evenodd" d="M460.558 289.995H477.85V307.287H460.558V289.995ZM426.445 341.164H443.738V358.456H426.445V341.164ZM392.332 392.333H409.625V409.625H392.332V392.333Z" fill="#2371D0"/>
<path fill-rule="evenodd" clip-rule="evenodd" d="M221.769 307.051H239.062V324.344H221.769V307.051Z" fill="#458DDC"/>
<path fill-rule="evenodd" clip-rule="evenodd" d="M255.882 307.051H273.174V324.344H255.882V307.051Z" fill="#4089DA"/>
<path fill-rule="evenodd" clip-rule="evenodd" d="M272.938 307.051H290.231V324.344H272.938V307.051Z" fill="#3E86DA"/>
<path fill-rule="evenodd" clip-rule="evenodd" d="M307.051 307.051H324.343V324.344H307.051V307.051Z" fill="#3982D8"/>
<path fill-rule="evenodd" clip-rule="evenodd" d="M341.163 307.051H358.456V324.344H341.163V307.051ZM255.882 426.445H273.174V443.738H255.882V426.445Z" fill="#347ED6"/>
<path fill-rule="evenodd" clip-rule="evenodd" d="M426.445 307.051H443.738V324.344H426.445V307.051ZM341.163 426.445H358.456V443.738H341.163V426.445Z" fill="#2774D1"/>
<path fill-rule="evenodd" clip-rule="evenodd" d="M443.501 307.051H460.794V324.344H443.501V307.051ZM358.22 426.445H375.512V443.738H358.22V426.445Z" fill="#2472D1"/>
<path fill-rule="evenodd" clip-rule="evenodd" d="M460.558 307.051H477.85V324.344H460.558V307.051ZM409.389 375.276H426.681V392.569H409.389V375.276ZM375.276 426.445H392.569V443.738H375.276V426.445Z" fill="#2270D0"/>
<path fill-rule="evenodd" clip-rule="evenodd" d="M375.276 324.107H392.569V341.4H375.276V324.107Z" fill="#2D79D3"/>
<path fill-rule="evenodd" clip-rule="evenodd" d="M443.501 324.107H460.794V341.4H443.501V324.107Z" fill="#2271D0"/>
<path fill-rule="evenodd" clip-rule="evenodd" d="M460.558 324.107H477.85V341.4H460.558V324.107ZM409.389 392.333H426.681V409.625H409.389V392.333Z" fill="#206FCF"/>
<path fill-rule="evenodd" clip-rule="evenodd" d="M136.487 341.164H153.78V358.456H136.487V341.164Z" fill="#4F94DF"/>
<path fill-rule="evenodd" clip-rule="evenodd" d="M307.051 341.164H324.343V358.456H307.051V341.164Z" fill="#3580D6"/>
<path fill-rule="evenodd" clip-rule="evenodd" d="M409.389 341.164H426.681V358.456H409.389V341.164Z" fill="#2673D1"/>
<path fill-rule="evenodd" clip-rule="evenodd" d="M443.501 341.164H460.794V358.456H443.501V341.164Z" fill="#216FCF"/>
<path fill-rule="evenodd" clip-rule="evenodd" d="M477.85 341.164H460.558V358.22H443.501V392.333H426.445V409.389H409.389V426.445H392.332V443.738H409.625V426.681H426.681V409.625H443.738V392.569H460.794L460.558 375.512H477.85V341.164Z" fill="#1F6ECF"/>
<path fill-rule="evenodd" clip-rule="evenodd" d="M85.3184 358.22H102.611V375.513H85.3184V358.22Z" fill="#5499E2"/>
<path fill-rule="evenodd" clip-rule="evenodd" d="M170.6 358.22H187.893V375.513H170.6V358.22Z" fill="#488EDD"/>
<path fill-rule="evenodd" clip-rule="evenodd" d="M409.389 358.22H426.681V375.513H409.389V358.22ZM375.276 409.389H392.569V426.681H375.276V409.389Z" fill="#2472D0"/>
<path fill-rule="evenodd" clip-rule="evenodd" d="M426.445 358.22H443.738V375.513H426.445V358.22Z" fill="#2170D0"/>
<path fill-rule="evenodd" clip-rule="evenodd" d="M34.1497 375.276H51.4422V392.569H34.1497V375.276ZM460.558 375.276H477.85V392.569H460.558V375.276ZM51.206 392.333H68.4986V409.625H51.206V392.333ZM443.502 392.333H460.794V409.625H443.502V392.333ZM68.2622 409.389H85.5548V426.682H68.2622V409.389ZM426.445 409.389H443.738V426.682H426.445V409.389ZM85.3186 426.445H102.611V443.738H85.3186V426.445ZM409.389 426.445H426.681V443.738H409.389V426.445ZM102.375 443.502H409.625V460.794H102.375V443.502Z" fill="#1D5BA0"/>
<path fill-rule="evenodd" clip-rule="evenodd" d="M358.22 375.276H375.512V392.569H358.22V375.276Z" fill="#2A77D2"/>
<path fill-rule="evenodd" clip-rule="evenodd" d="M392.332 375.276H409.625V392.569H392.332V375.276Z" fill="#2572D1"/>
<path fill-rule="evenodd" clip-rule="evenodd" d="M426.445 375.276H443.738V392.569H426.445V375.276Z" fill="#206ECF"/>
<path fill-rule="evenodd" clip-rule="evenodd" d="M477.614 375.276H494.907V409.625H477.614V375.276ZM17.0933 392.333H34.3858V409.625H17.0933V392.333ZM34.1496 409.389H51.4422V443.738H34.1496V409.389ZM460.558 409.389H477.85V443.738H460.558V409.389ZM51.206 443.502H68.4986V460.794H51.206V443.502ZM443.502 443.502H460.794V460.794H443.502V443.502ZM68.2622 460.558H85.5548V477.851H68.2622V460.558ZM409.389 460.558H443.738V477.851H409.389V460.558ZM102.375 477.614H409.625V494.907H102.375V477.614Z" fill="#EFEFEF"/>
<path fill-rule="evenodd" clip-rule="evenodd" d="M392.332 409.389H409.625V426.682H392.332V409.389Z" fill="#2170CF"/>
<path fill-rule="evenodd" clip-rule="evenodd" d="M170.6 426.445H187.893V443.738H170.6V426.445Z" fill="#4089DB"/>
</svg>
