<?xml version='1.0' encoding='utf-8'?>
<svg xmlns="http://www.w3.org/2000/svg" viewBox="0 0 3358.459 3358.366" width="512" height="512" version="1.1" xml:space="preserve" style="fill-rule:evenodd;clip-rule:evenodd;stroke-linejoin:round;stroke-miterlimit:2;"><rect x="867.403" y="109.163" width="1732.908" height="108.307" style="fill:#060606;" /><rect x="650.789" y="217.469" width="324.92" height="108.307" style="fill:#060606;" /><rect x="975.709" y="217.469" width="1516.295" height="108.307" style="fill:#404040;" /><rect x="2492.004" y="217.469" width="324.92" height="108.307" style="fill:#060606;" /><rect x="434.175" y="325.776" width="324.92" height="108.307" style="fill:#060606;" /><rect x="759.096" y="325.776" width="324.92" height="108.307" style="fill:#404040;" /><rect x="1084.016" y="325.776" width="1299.681" height="649.841" style="fill:#121212;" /><rect x="2383.698" y="325.776" width="324.92" height="108.307" style="fill:#404040;" /><rect x="2708.618" y="325.776" width="216.614" height="108.307" style="fill:#060606;" /><rect x="325.869" y="434.083" width="216.614" height="108.307" style="fill:#060606;" /><rect x="542.482" y="434.083" width="324.92" height="108.307" style="fill:#404040;" /><rect x="867.403" y="434.083" width="216.614" height="541.534" style="fill:#121212;" /><rect x="2383.698" y="434.083" width="216.614" height="541.534" style="fill:#121212;" /><rect x="2600.311" y="434.083" width="216.614" height="108.307" style="fill:#404040;" /><rect x="2816.925" y="434.083" width="216.614" height="108.307" style="fill:#060606;" /><rect x="217.562" y="542.39" width="216.614" height="108.307" style="fill:#060606;" /><rect x="434.175" y="542.39" width="216.614" height="108.307" style="fill:#404040;" /><rect x="650.789" y="542.39" width="216.614" height="433.227" style="fill:#121212;" /><rect x="2600.311" y="542.39" width="108.307" height="433.227" style="fill:#121212;" /><rect x="2708.618" y="542.39" width="216.614" height="108.307" style="fill:#404040;" /><rect x="2925.231" y="542.39" width="216.614" height="108.307" style="fill:#060606;" /><rect x="217.562" y="650.696" width="108.307" height="216.614" style="fill:#060606;" /><rect x="325.869" y="650.696" width="216.614" height="108.307" style="fill:#404040;" /><rect x="542.482" y="650.696" width="108.307" height="324.92" style="fill:#121212;" /><rect x="2708.618" y="650.696" width="108.307" height="324.92" style="fill:#121212;" /><rect x="2816.925" y="650.696" width="216.614" height="108.307" style="fill:#404040;" /><rect x="3033.538" y="650.696" width="216.614" height="108.307" style="fill:#060606;" /><rect x="109.255" y="759.003" width="108.307" height="1841.215" style="fill:#060606;" /><rect x="325.869" y="759.003" width="108.307" height="216.614" style="fill:#404040;" /><rect x="434.175" y="759.003" width="108.307" height="324.92" style="fill:#121212;" /><rect x="2816.925" y="759.003" width="108.307" height="216.614" style="fill:#121212;" /><rect x="2925.231" y="759.003" width="216.614" height="108.307" style="fill:#404040;" /><rect x="3141.845" y="759.003" width="216.614" height="108.307" style="fill:#060606;" /><rect x="217.562" y="867.31" width="108.307" height="1624.602" style="fill:#404040;" /><rect x="2925.231" y="867.31" width="108.307" height="216.614" style="fill:#121212;" /><rect x="3033.538" y="867.31" width="216.614" height="108.307" style="fill:#404040;" /><rect x="3250.152" y="867.31" width="108.307" height="1732.908" style="fill:#060606;" /><rect x="325.869" y="975.617" width="108.307" height="1407.988" style="fill:#121212;" /><rect x="542.482" y="975.617" width="541.534" height="108.307" style="fill:#effffe;" /><rect x="1084.016" y="975.617" width="324.92" height="108.307" style="fill:#b6e0e1;" /><rect x="1408.937" y="975.617" width="108.307" height="108.307" style="fill:#b6dfe1;" /><rect x="1517.243" y="975.617" width="108.307" height="108.307" style="fill:#8dcdd5;" /><rect x="1625.55" y="975.617" width="108.307" height="108.307" style="fill:#8dcdd6;" /><rect x="1733.857" y="975.617" width="108.307" height="108.307" style="fill:#8dccd6;" /><rect x="1842.164" y="975.617" width="433.227" height="108.307" style="fill:#8cccd6;" /><rect x="2275.391" y="975.617" width="433.227" height="108.307" style="fill:#8bcbd6;" /><rect x="2708.618" y="975.617" width="216.614" height="108.307" style="fill:#8acbd6;" /><rect x="3033.538" y="975.617" width="108.307" height="216.614" style="fill:#121212;" /><rect x="3141.845" y="975.617" width="108.307" height="1516.295" style="fill:#404040;" /><rect x="434.175" y="1083.924" width="216.614" height="108.307" style="fill:#effffe;" /><rect x="650.789" y="1083.924" width="216.614" height="108.307" style="fill:#43afb5;" /><rect x="867.403" y="1083.924" width="108.307" height="108.307" style="fill:#42afb5;" /><rect x="975.709" y="1083.924" width="108.307" height="108.307" style="fill:#42aeb5;" /><rect x="1084.016" y="1083.924" width="108.307" height="108.307" style="fill:#41aeb5;" /><rect x="1192.323" y="1083.924" width="108.307" height="108.307" style="fill:#40aeb5;" /><rect x="1300.63" y="1083.924" width="108.307" height="108.307" style="fill:#40adb5;" /><rect x="1408.937" y="1083.924" width="108.307" height="108.307" style="fill:#3fadb5;" /><rect x="1517.243" y="1083.924" width="108.307" height="108.307" style="fill:#3facb5;" /><rect x="1625.55" y="1083.924" width="108.307" height="108.307" style="fill:#3eacb5;" /><rect x="1733.857" y="1083.924" width="108.307" height="108.307" style="fill:#3eacb6;" /><rect x="1842.164" y="1083.924" width="216.614" height="108.307" style="fill:#3dabb6;" /><rect x="2058.777" y="1083.924" width="108.307" height="108.307" style="fill:#3cabb6;" /><rect x="2167.084" y="1083.924" width="216.614" height="108.307" style="fill:#3baab6;" /><rect x="2383.698" y="1083.924" width="216.614" height="108.307" style="fill:#3aa9b6;" /><rect x="2600.311" y="1083.924" width="108.307" height="108.307" style="fill:#39a9b6;" /><rect x="2708.618" y="1083.924" width="108.307" height="108.307" style="fill:#39a8b6;" /><rect x="2816.925" y="1083.924" width="108.307" height="108.307" style="fill:#38a8b6;" /><rect x="2925.231" y="1083.924" width="108.307" height="108.307" style="fill:#38a8b7;" /><rect x="434.175" y="1192.23" width="108.307" height="324.92" style="fill:#effffe;" /><rect x="542.482" y="1192.23" width="108.307" height="108.307" style="fill:#4ab4b3;" /><rect x="650.789" y="1192.23" width="108.307" height="108.307" style="fill:#4ab4b4;" /><rect x="759.096" y="1192.23" width="108.307" height="108.307" style="fill:#49b4b4;" /><rect x="867.403" y="1192.23" width="108.307" height="108.307" style="fill:#49b3b4;" /><rect x="975.709" y="1192.23" width="108.307" height="108.307" style="fill:#48b3b4;" /><rect x="1084.016" y="1192.23" width="108.307" height="108.307" style="fill:#48b2b4;" /><rect x="1192.323" y="1192.23" width="108.307" height="108.307" style="fill:#47b2b4;" /><rect x="1300.63" y="1192.23" width="108.307" height="108.307" style="fill:#46b2b4;" /><rect x="1408.937" y="1192.23" width="108.307" height="108.307" style="fill:#46b1b4;" /><rect x="1517.243" y="1192.23" width="216.614" height="108.307" style="fill:#45b1b4;" /><rect x="1733.857" y="1192.23" width="108.307" height="108.307" style="fill:#44b0b4;" /><rect x="1842.164" y="1192.23" width="108.307" height="108.307" style="fill:#44b0b5;" /><rect x="1950.47" y="1192.23" width="216.614" height="108.307" style="fill:#43afb5;" /><rect x="2167.084" y="1192.23" width="108.307" height="108.307" style="fill:#42afb5;" /><rect x="2275.391" y="1192.23" width="108.307" height="108.307" style="fill:#42aeb5;" /><rect x="2383.698" y="1192.23" width="108.307" height="108.307" style="fill:#41aeb5;" /><rect x="2492.004" y="1192.23" width="108.307" height="108.307" style="fill:#40aeb5;" /><rect x="2600.311" y="1192.23" width="108.307" height="108.307" style="fill:#40adb5;" /><rect x="2708.618" y="1192.23" width="108.307" height="108.307" style="fill:#3fadb5;" /><rect x="2816.925" y="1192.23" width="216.614" height="108.307" style="fill:#3eacb5;" /><rect x="3033.538" y="1192.23" width="108.307" height="1083.068" style="fill:#080808;" /><rect x="542.482" y="1300.537" width="108.307" height="108.307" style="fill:#51b9b2;" /><rect x="650.789" y="1300.537" width="108.307" height="108.307" style="fill:#50b8b2;" /><rect x="759.096" y="1300.537" width="108.307" height="108.307" style="fill:#50b8b3;" /><rect x="867.403" y="1300.537" width="108.307" height="108.307" style="fill:#4fb8b3;" /><rect x="975.709" y="1300.537" width="108.307" height="108.307" style="fill:#4fb7b3;" /><rect x="1084.016" y="1300.537" width="108.307" height="108.307" style="fill:#4eb7b3;" /><rect x="1192.323" y="1300.537" width="108.307" height="108.307" style="fill:#4eb6b3;" /><rect x="1300.63" y="1300.537" width="216.614" height="108.307" style="fill:#4db6b3;" /><rect x="1517.243" y="1300.537" width="108.307" height="108.307" style="fill:#4cb5b3;" /><rect x="1625.55" y="1300.537" width="216.614" height="108.307" style="fill:#4bb5b3;" /><rect x="1842.164" y="1300.537" width="108.307" height="108.307" style="fill:#4ab4b3;" /><rect x="1950.47" y="1300.537" width="108.307" height="108.307" style="fill:#4ab4b4;" /><rect x="2058.777" y="1300.537" width="108.307" height="108.307" style="fill:#49b4b4;" /><rect x="2167.084" y="1300.537" width="108.307" height="108.307" style="fill:#49b3b4;" /><rect x="2275.391" y="1300.537" width="108.307" height="108.307" style="fill:#48b3b4;" /><rect x="2383.698" y="1300.537" width="108.307" height="108.307" style="fill:#48b2b4;" /><rect x="2492.004" y="1300.537" width="108.307" height="108.307" style="fill:#47b2b4;" /><rect x="2600.311" y="1300.537" width="108.307" height="108.307" style="fill:#46b2b4;" /><rect x="2708.618" y="1300.537" width="108.307" height="108.307" style="fill:#46b1b4;" /><rect x="2816.925" y="1300.537" width="216.614" height="108.307" style="fill:#45b1b4;" /><rect x="542.482" y="1408.844" width="108.307" height="108.307" style="fill:#58bdb1;" /><rect x="650.789" y="1408.844" width="108.307" height="108.307" style="fill:#57bdb1;" /><rect x="759.096" y="1408.844" width="108.307" height="108.307" style="fill:#56bcb1;" /><rect x="867.403" y="1408.844" width="108.307" height="108.307" style="fill:#56bcb2;" /><rect x="975.709" y="1408.844" width="1624.602" height="108.307" style="fill:#121212;" /><rect x="2600.311" y="1408.844" width="108.307" height="108.307" style="fill:#4db6b3;" /><rect x="2708.618" y="1408.844" width="324.92" height="108.307" style="fill:#4bb5b3;" /><rect x="434.175" y="1517.151" width="108.307" height="108.307" style="fill:#c1e7df;" /><rect x="542.482" y="1517.151" width="108.307" height="108.307" style="fill:#5ec2b0;" /><rect x="650.789" y="1517.151" width="108.307" height="108.307" style="fill:#5ec1b0;" /><rect x="759.096" y="1517.151" width="108.307" height="108.307" style="fill:#5dc1b0;" /><rect x="867.403" y="1517.151" width="216.614" height="108.307" style="fill:#121212;" /><rect x="1084.016" y="1517.151" width="108.307" height="324.92" style="fill:#747474;" /><rect x="1192.323" y="1517.151" width="1191.375" height="108.307" style="fill:#121212;" /><rect x="2383.698" y="1517.151" width="108.307" height="324.92" style="fill:#747474;" /><rect x="2492.004" y="1517.151" width="216.614" height="108.307" style="fill:#121212;" /><rect x="2708.618" y="1517.151" width="108.307" height="108.307" style="fill:#53bab2;" /><rect x="2816.925" y="1517.151" width="216.614" height="108.307" style="fill:#52b9b2;" /><rect x="434.175" y="1625.457" width="108.307" height="108.307" style="fill:#c3e9df;" /><rect x="542.482" y="1625.457" width="108.307" height="108.307" style="fill:#65c6af;" /><rect x="650.789" y="1625.457" width="108.307" height="108.307" style="fill:#64c6af;" /><rect x="759.096" y="1625.457" width="108.307" height="108.307" style="fill:#64c5af;" /><rect x="867.403" y="1625.457" width="108.307" height="216.614" style="fill:#121212;" /><rect x="975.709" y="1625.457" width="108.307" height="108.307" style="fill:#747474;" /><rect x="1192.323" y="1625.457" width="108.307" height="108.307" style="fill:#747474;" /><rect x="1300.63" y="1625.457" width="108.307" height="324.92" style="fill:#121212;" /><rect x="1408.937" y="1625.457" width="758.147" height="108.307" style="fill:#bad57b;" /><rect x="2167.084" y="1625.457" width="108.307" height="324.92" style="fill:#121212;" /><rect x="2275.391" y="1625.457" width="108.307" height="108.307" style="fill:#747474;" /><rect x="2492.004" y="1625.457" width="108.307" height="108.307" style="fill:#747474;" /><rect x="2600.311" y="1625.457" width="108.307" height="216.614" style="fill:#121212;" /><rect x="2708.618" y="1625.457" width="108.307" height="108.307" style="fill:#5abfb1;" /><rect x="2816.925" y="1625.457" width="216.614" height="108.307" style="fill:#59beb1;" /><rect x="434.175" y="1733.764" width="108.307" height="108.307" style="fill:#abe1d0;" /><rect x="542.482" y="1733.764" width="108.307" height="108.307" style="fill:#6bcbae;" /><rect x="650.789" y="1733.764" width="108.307" height="108.307" style="fill:#6bcaae;" /><rect x="759.096" y="1733.764" width="108.307" height="108.307" style="fill:#6acaae;" /><rect x="975.709" y="1733.764" width="108.307" height="216.614" style="fill:#121212;" /><rect x="1192.323" y="1733.764" width="108.307" height="216.614" style="fill:#121212;" /><rect x="1408.937" y="1733.764" width="758.147" height="216.614" style="fill:#121212;" /><rect x="2275.391" y="1733.764" width="108.307" height="216.614" style="fill:#121212;" /><rect x="2492.004" y="1733.764" width="108.307" height="216.614" style="fill:#121212;" /><rect x="2708.618" y="1733.764" width="108.307" height="108.307" style="fill:#60c3b0;" /><rect x="2816.925" y="1733.764" width="216.614" height="108.307" style="fill:#5fc2b0;" /><rect x="434.175" y="1842.071" width="108.307" height="108.307" style="fill:#afe3d0;" /><rect x="542.482" y="1842.071" width="216.614" height="108.307" style="fill:#72cfad;" /><rect x="759.096" y="1842.071" width="108.307" height="108.307" style="fill:#71cead;" /><rect x="867.403" y="1842.071" width="108.307" height="108.307" style="fill:#70cead;" /><rect x="1084.016" y="1842.071" width="108.307" height="108.307" style="fill:#121212;" /><rect x="2383.698" y="1842.071" width="108.307" height="108.307" style="fill:#121212;" /><rect x="2600.311" y="1842.071" width="108.307" height="108.307" style="fill:#68c8af;" /><rect x="2708.618" y="1842.071" width="108.307" height="108.307" style="fill:#67c8af;" /><rect x="2816.925" y="1842.071" width="216.614" height="108.307" style="fill:#66c7af;" /><rect x="434.175" y="1950.378" width="108.307" height="108.307" style="fill:#b2e6cf;" /><rect x="542.482" y="1950.378" width="108.307" height="108.307" style="fill:#79d4ac;" /><rect x="650.789" y="1950.378" width="216.614" height="108.307" style="fill:#78d3ac;" /><rect x="867.403" y="1950.378" width="108.307" height="108.307" style="fill:#77d2ac;" /><rect x="975.709" y="1950.378" width="216.614" height="108.307" style="fill:#76d2ac;" /><rect x="1192.323" y="1950.378" width="108.307" height="108.307" style="fill:#75d1ac;" /><rect x="1300.63" y="1950.378" width="108.307" height="108.307" style="fill:#75d1ad;" /><rect x="1408.937" y="1950.378" width="108.307" height="108.307" style="fill:#74d1ad;" /><rect x="1517.243" y="1950.378" width="108.307" height="108.307" style="fill:#74d0ad;" /><rect x="1625.55" y="1950.378" width="108.307" height="108.307" style="fill:#73d0ad;" /><rect x="1733.857" y="1950.378" width="108.307" height="108.307" style="fill:#73cfad;" /><rect x="1842.164" y="1950.378" width="216.614" height="108.307" style="fill:#72cfad;" /><rect x="2058.777" y="1950.378" width="108.307" height="108.307" style="fill:#71cead;" /><rect x="2167.084" y="1950.378" width="216.614" height="108.307" style="fill:#70cead;" /><rect x="2383.698" y="1950.378" width="108.307" height="108.307" style="fill:#6fcdad;" /><rect x="2492.004" y="1950.378" width="108.307" height="108.307" style="fill:#6fcdae;" /><rect x="2600.311" y="1950.378" width="216.614" height="108.307" style="fill:#6eccae;" /><rect x="2816.925" y="1950.378" width="216.614" height="108.307" style="fill:#6dcbae;" /><rect x="434.175" y="2058.685" width="108.307" height="108.307" style="fill:#b6e8cf;" /><rect x="542.482" y="2058.685" width="216.614" height="108.307" style="fill:#7fd8ab;" /><rect x="759.096" y="2058.685" width="216.614" height="108.307" style="fill:#7ed7ab;" /><rect x="975.709" y="2058.685" width="108.307" height="108.307" style="fill:#7dd7ab;" /><rect x="1084.016" y="2058.685" width="108.307" height="108.307" style="fill:#7dd6ab;" /><rect x="1192.323" y="2058.685" width="108.307" height="108.307" style="fill:#7cd6ab;" /><rect x="1300.63" y="2058.685" width="108.307" height="108.307" style="fill:#7bd5ab;" /><rect x="1408.937" y="2058.685" width="108.307" height="108.307" style="fill:#7bd5ac;" /><rect x="1517.243" y="2058.685" width="108.307" height="108.307" style="fill:#7ad5ac;" /><rect x="1625.55" y="2058.685" width="108.307" height="108.307" style="fill:#7ad4ac;" /><rect x="1733.857" y="2058.685" width="216.614" height="108.307" style="fill:#79d4ac;" /><rect x="1950.47" y="2058.685" width="216.614" height="108.307" style="fill:#78d3ac;" /><rect x="2167.084" y="2058.685" width="108.307" height="108.307" style="fill:#77d2ac;" /><rect x="2275.391" y="2058.685" width="216.614" height="108.307" style="fill:#76d2ac;" /><rect x="2492.004" y="2058.685" width="108.307" height="108.307" style="fill:#75d1ac;" /><rect x="2600.311" y="2058.685" width="108.307" height="108.307" style="fill:#75d1ad;" /><rect x="2708.618" y="2058.685" width="108.307" height="108.307" style="fill:#74d1ad;" /><rect x="2816.925" y="2058.685" width="216.614" height="108.307" style="fill:#73d0ad;" /><rect x="434.175" y="2166.991" width="108.307" height="108.307" style="fill:#b7e9cf;" /><rect x="542.482" y="2166.991" width="974.761" height="216.614" style="fill:#82daab;" /><rect x="1517.243" y="2166.991" width="108.307" height="108.307" style="fill:#81d9ab;" /><rect x="1625.55" y="2166.991" width="1299.681" height="108.307" style="fill:#80d9ab;" /><rect x="2925.231" y="2166.991" width="108.307" height="108.307" style="fill:#7ad4ac;" /><rect x="434.175" y="2275.298" width="108.307" height="324.92" style="fill:#121212;" /><rect x="1517.243" y="2275.298" width="1299.681" height="108.307" style="fill:#82daab;" /><rect x="2816.925" y="2275.298" width="108.307" height="108.307" style="fill:#81d9ab;" /><rect x="2925.231" y="2275.298" width="108.307" height="108.307" style="fill:#080808;" /><rect x="3033.538" y="2275.298" width="108.307" height="108.307" style="fill:#121212;" /><rect x="325.869" y="2383.605" width="108.307" height="324.92" style="fill:#404040;" /><rect x="542.482" y="2383.605" width="108.307" height="324.92" style="fill:#121212;" /><rect x="650.789" y="2383.605" width="2274.442" height="108.307" style="fill:#080808;" /><rect x="2925.231" y="2383.605" width="108.307" height="216.614" style="fill:#121212;" /><rect x="3033.538" y="2383.605" width="108.307" height="324.92" style="fill:#404040;" /><rect x="217.562" y="2491.912" width="108.307" height="324.92" style="fill:#060606;" /><rect x="650.789" y="2491.912" width="2274.442" height="216.614" style="fill:#121212;" /><rect x="3141.845" y="2491.912" width="108.307" height="324.92" style="fill:#060606;" /><rect x="434.175" y="2600.219" width="108.307" height="216.614" style="fill:#404040;" /><rect x="2925.231" y="2600.219" width="108.307" height="216.614" style="fill:#404040;" /><rect x="325.869" y="2708.525" width="108.307" height="216.614" style="fill:#060606;" /><rect x="542.482" y="2708.525" width="108.307" height="216.614" style="fill:#404040;" /><rect x="650.789" y="2708.525" width="2166.136" height="108.307" style="fill:#121212;" /><rect x="2816.925" y="2708.525" width="108.307" height="216.614" style="fill:#404040;" /><rect x="3033.538" y="2708.525" width="108.307" height="216.614" style="fill:#060606;" /><rect x="434.175" y="2816.832" width="108.307" height="216.614" style="fill:#060606;" /><rect x="650.789" y="2816.832" width="108.307" height="216.614" style="fill:#404040;" /><rect x="759.096" y="2816.832" width="1949.522" height="108.307" style="fill:#121212;" /><rect x="2708.618" y="2816.832" width="108.307" height="216.614" style="fill:#404040;" /><rect x="2925.231" y="2816.832" width="108.307" height="216.614" style="fill:#060606;" /><rect x="542.482" y="2925.139" width="108.307" height="216.614" style="fill:#060606;" /><rect x="759.096" y="2925.139" width="108.307" height="216.614" style="fill:#404040;" /><rect x="867.403" y="2925.139" width="1732.908" height="108.307" style="fill:#121212;" /><rect x="2600.311" y="2925.139" width="108.307" height="216.614" style="fill:#404040;" /><rect x="2816.925" y="2925.139" width="108.307" height="216.614" style="fill:#060606;" /><rect x="650.789" y="3033.446" width="108.307" height="216.614" style="fill:#060606;" /><rect x="867.403" y="3033.446" width="216.614" height="108.307" style="fill:#404040;" /><rect x="1084.016" y="3033.446" width="1407.988" height="108.307" style="fill:#121212;" /><rect x="2492.004" y="3033.446" width="108.307" height="216.614" style="fill:#404040;" /><rect x="2708.618" y="3033.446" width="108.307" height="216.614" style="fill:#060606;" /><rect x="759.096" y="3141.752" width="216.614" height="108.307" style="fill:#060606;" /><rect x="975.709" y="3141.752" width="1516.295" height="108.307" style="fill:#404040;" /><rect x="2600.311" y="3141.752" width="108.307" height="216.614" style="fill:#060606;" /><rect x="867.403" y="3250.059" width="1732.908" height="108.307" style="fill:#060606;" /></svg>