<?xml version='1.0' encoding='utf-8'?>
<svg xmlns="http://www.w3.org/2000/svg" viewBox="0 0 3357.9469999999997 3358.374" width="512" height="512" version="1.1" xml:space="preserve" style="fill-rule:evenodd;clip-rule:evenodd;stroke-linejoin:round;stroke-miterlimit:2;"><rect x="866.891" y="109.171" width="324.92" height="108.307" style="fill:#fff;" /><rect x="1191.811" y="109.171" width="1407.988" height="108.307" style="fill:#ffabab;" /><rect x="650.277" y="217.477" width="324.92" height="108.307" style="fill:#fff;" /><rect x="975.198" y="217.477" width="649.841" height="216.614" style="fill:#ff5656;" /><rect x="1625.038" y="217.477" width="108.307" height="324.92" style="fill:#616161;" /><rect x="1733.345" y="217.477" width="108.307" height="108.307" style="fill:#b73939;" /><rect x="1841.652" y="217.477" width="649.841" height="108.307" style="fill:#ff5656;" /><rect x="2491.493" y="217.477" width="324.92" height="108.307" style="fill:#ffabab;" /><rect x="541.971" y="325.784" width="216.614" height="108.307" style="fill:#fff;" /><rect x="758.584" y="325.784" width="216.614" height="1191.375" style="fill:#ff5656;" /><rect x="1733.345" y="325.784" width="108.307" height="216.614" style="fill:#373737;" /><rect x="1841.652" y="325.784" width="108.307" height="216.614" style="fill:#b73939;" /><rect x="1949.959" y="325.784" width="758.147" height="108.307" style="fill:#ff5656;" /><rect x="2708.106" y="325.784" width="216.614" height="108.307" style="fill:#ffabab;" /><rect x="433.664" y="434.091" width="216.614" height="108.307" style="fill:#fff;" /><rect x="650.277" y="434.091" width="108.307" height="974.761" style="fill:#ff5656;" /><rect x="975.198" y="434.091" width="541.534" height="216.614" style="fill:#ff5656;" /><rect x="1516.732" y="434.091" width="108.307" height="324.92" style="fill:#616161;" /><rect x="1949.959" y="434.091" width="108.307" height="324.92" style="fill:#b73939;" /><rect x="2058.266" y="434.091" width="758.147" height="216.614" style="fill:#ff5656;" /><rect x="2816.413" y="434.091" width="216.614" height="108.307" style="fill:#ffabab;" /><rect x="325.357" y="542.398" width="216.614" height="108.307" style="fill:#fff;" /><rect x="541.971" y="542.398" width="108.307" height="866.454" style="fill:#ff5656;" /><rect x="1625.038" y="542.398" width="108.307" height="541.534" style="fill:#373737;" /><rect x="1733.345" y="542.398" width="216.614" height="108.307" style="fill:#252525;" /><rect x="2816.413" y="542.398" width="108.307" height="866.454" style="fill:#ff5656;" /><rect x="2924.72" y="542.398" width="216.614" height="108.307" style="fill:#ffabab;" /><rect x="217.05" y="650.704" width="216.614" height="108.307" style="fill:#fff;" /><rect x="433.664" y="650.704" width="108.307" height="758.147" style="fill:#ff5656;" /><rect x="975.198" y="650.704" width="433.227" height="324.92" style="fill:#ff5656;" /><rect x="1408.425" y="650.704" width="108.307" height="433.227" style="fill:#616161;" /><rect x="1733.345" y="650.704" width="108.307" height="433.227" style="fill:#373737;" /><rect x="1841.652" y="650.704" width="108.307" height="216.614" style="fill:#252525;" /><rect x="2058.266" y="650.704" width="108.307" height="324.92" style="fill:#b73939;" /><rect x="2166.572" y="650.704" width="649.841" height="216.614" style="fill:#ff5656;" /><rect x="2924.72" y="650.704" width="108.307" height="758.147" style="fill:#ff5656;" /><rect x="3033.027" y="650.704" width="216.614" height="108.307" style="fill:#ffabab;" /><rect x="217.05" y="759.011" width="108.307" height="216.614" style="fill:#fff;" /><rect x="325.357" y="759.011" width="108.307" height="541.534" style="fill:#ff5656;" /><rect x="1516.732" y="759.011" width="108.307" height="324.92" style="fill:#373737;" /><rect x="1949.959" y="759.011" width="108.307" height="216.614" style="fill:#252525;" /><rect x="3033.027" y="759.011" width="108.307" height="541.534" style="fill:#ff5656;" /><rect x="3141.333" y="759.011" width="108.307" height="216.614" style="fill:#ffabab;" /><rect x="108.744" y="867.318" width="108.307" height="324.92" style="fill:#fff;" /><rect x="1841.652" y="867.318" width="108.307" height="216.614" style="fill:#373737;" /><rect x="2166.572" y="867.318" width="108.307" height="324.92" style="fill:#b73939;" /><rect x="2274.879" y="867.318" width="541.534" height="216.614" style="fill:#ff5656;" /><rect x="3249.64" y="867.318" width="108.307" height="108.307" style="fill:#ffabab;" /><rect x="217.05" y="975.625" width="108.307" height="433.227" style="fill:#ff5656;" /><rect x="975.198" y="975.625" width="324.92" height="108.307" style="fill:#ff5656;" /><rect x="1300.118" y="975.625" width="108.307" height="216.614" style="fill:#616161;" /><rect x="1949.959" y="975.625" width="108.307" height="216.614" style="fill:#373737;" /><rect x="2058.266" y="975.625" width="108.307" height="324.92" style="fill:#252525;" /><rect x="3141.333" y="975.625" width="108.307" height="433.227" style="fill:#ff5656;" /><rect x="3249.64" y="975.625" width="108.307" height="1624.602" style="fill:#920404;" /><rect x="975.198" y="1083.932" width="216.614" height="324.92" style="fill:#ff5656;" /><rect x="1191.811" y="1083.932" width="108.307" height="433.227" style="fill:#616161;" /><rect x="1408.425" y="1083.932" width="108.307" height="108.307" style="fill:#373737;" /><rect x="1516.732" y="1083.932" width="216.614" height="108.307" style="fill:#ff6565;" /><rect x="1733.345" y="1083.932" width="216.614" height="649.841" style="fill:#ff4242;" /><rect x="2274.879" y="1083.932" width="108.307" height="324.92" style="fill:#b73939;" /><rect x="2383.186" y="1083.932" width="433.227" height="216.614" style="fill:#ff5656;" /><rect x="108.744" y="1192.238" width="108.307" height="1407.988" style="fill:#ffabab;" /><rect x="1300.118" y="1192.238" width="108.307" height="108.307" style="fill:#373737;" /><rect x="1408.425" y="1192.238" width="216.614" height="108.307" style="fill:#ffd0d0;" /><rect x="1625.038" y="1192.238" width="108.307" height="649.841" style="fill:#ff4242;" /><rect x="1949.959" y="1192.238" width="108.307" height="433.227" style="fill:#ff4242;" /><rect x="2166.572" y="1192.238" width="108.307" height="324.92" style="fill:#252525;" /><rect x="325.357" y="1300.545" width="108.307" height="108.307" style="fill:#5f5f5f;" /><rect x="1300.118" y="1300.545" width="108.307" height="216.614" style="fill:#ff6565;" /><rect x="1408.425" y="1300.545" width="108.307" height="108.307" style="fill:#ffd0d0;" /><rect x="1516.732" y="1300.545" width="108.307" height="541.534" style="fill:#ff4242;" /><rect x="2058.266" y="1300.545" width="108.307" height="433.227" style="fill:#9c0000;" /><rect x="2383.186" y="1300.545" width="108.307" height="216.614" style="fill:#b73939;" /><rect x="2491.493" y="1300.545" width="324.92" height="108.307" style="fill:#ff5656;" /><rect x="3033.027" y="1300.545" width="108.307" height="324.92" style="fill:#252525;" /><rect x="217.05" y="1408.852" width="216.614" height="108.307" style="fill:#252525;" /><rect x="433.664" y="1408.852" width="324.92" height="108.307" style="fill:#5f5f5f;" /><rect x="975.198" y="1408.852" width="108.307" height="108.307" style="fill:#ff5656;" /><rect x="1083.505" y="1408.852" width="108.307" height="108.307" style="fill:#616161;" /><rect x="1408.425" y="1408.852" width="108.307" height="433.227" style="fill:#ff4242;" /><rect x="2274.879" y="1408.852" width="108.307" height="216.614" style="fill:#252525;" /><rect x="2491.493" y="1408.852" width="108.307" height="108.307" style="fill:#ff5656;" /><rect x="2599.799" y="1408.852" width="433.227" height="108.307" style="fill:#252525;" /><rect x="3141.333" y="1408.852" width="108.307" height="108.307" style="fill:#252525;" /><rect x="217.05" y="1517.159" width="108.307" height="974.761" style="fill:#ff5656;" /><rect x="325.357" y="1517.159" width="108.307" height="108.307" style="fill:#252525;" /><rect x="433.664" y="1517.159" width="216.614" height="108.307" style="fill:#b73939;" /><rect x="650.277" y="1517.159" width="216.614" height="108.307" style="fill:#252525;" /><rect x="866.891" y="1517.159" width="216.614" height="108.307" style="fill:#5f5f5f;" /><rect x="1083.505" y="1517.159" width="216.614" height="108.307" style="fill:#373737;" /><rect x="1300.118" y="1517.159" width="108.307" height="216.614" style="fill:#ff4242;" /><rect x="2166.572" y="1517.159" width="108.307" height="216.614" style="fill:#dadada;" /><rect x="2383.186" y="1517.159" width="324.92" height="108.307" style="fill:#252525;" /><rect x="2708.106" y="1517.159" width="324.92" height="108.307" style="fill:#b73939;" /><rect x="3141.333" y="1517.159" width="108.307" height="108.307" style="fill:#b73939;" /><rect x="325.357" y="1625.466" width="108.307" height="1083.068" style="fill:#ff5656;" /><rect x="433.664" y="1625.466" width="108.307" height="108.307" style="fill:#b73939;" /><rect x="541.971" y="1625.466" width="108.307" height="1299.681" style="fill:#ff5656;" /><rect x="650.277" y="1625.466" width="433.227" height="108.307" style="fill:#b73939;" /><rect x="1083.505" y="1625.466" width="108.307" height="216.614" style="fill:#373737;" /><rect x="1191.811" y="1625.466" width="108.307" height="324.92" style="fill:#fff;" /><rect x="1949.959" y="1625.466" width="108.307" height="216.614" style="fill:#9c0000;" /><rect x="2274.879" y="1625.466" width="108.307" height="216.614" style="fill:#dadada;" /><rect x="2383.186" y="1625.466" width="108.307" height="108.307" style="fill:#252525;" /><rect x="2491.493" y="1625.466" width="324.92" height="108.307" style="fill:#b73939;" /><rect x="2816.413" y="1625.466" width="216.614" height="1191.375" style="fill:#ff5656;" /><rect x="3033.027" y="1625.466" width="108.307" height="108.307" style="fill:#b73939;" /><rect x="3141.333" y="1625.466" width="108.307" height="866.454" style="fill:#ff5656;" /><rect x="433.664" y="1733.772" width="108.307" height="1083.068" style="fill:#ff5656;" /><rect x="650.277" y="1733.772" width="324.92" height="216.614" style="fill:#ff5656;" /><rect x="975.198" y="1733.772" width="108.307" height="108.307" style="fill:#373737;" /><rect x="1300.118" y="1733.772" width="108.307" height="1083.068" style="fill:#f5f5f5;" /><rect x="1733.345" y="1733.772" width="108.307" height="108.307" style="fill:#ff4242;" /><rect x="1841.652" y="1733.772" width="108.307" height="216.614" style="fill:#9c0000;" /><rect x="2058.266" y="1733.772" width="216.614" height="974.761" style="fill:#f5f5f5;" /><rect x="2383.186" y="1733.772" width="108.307" height="324.92" style="fill:#dadada;" /><rect x="2491.493" y="1733.772" width="108.307" height="216.614" style="fill:#b73939;" /><rect x="2599.799" y="1733.772" width="216.614" height="108.307" style="fill:#ff5656;" /><rect x="3033.027" y="1733.772" width="108.307" height="974.761" style="fill:#ff5656;" /><rect x="975.198" y="1842.079" width="216.614" height="108.307" style="fill:#fff;" /><rect x="1408.425" y="1842.079" width="108.307" height="1083.068" style="fill:#f5f5f5;" /><rect x="1516.732" y="1842.079" width="324.92" height="108.307" style="fill:#9c0000;" /><rect x="1949.959" y="1842.079" width="108.307" height="1083.068" style="fill:#f5f5f5;" /><rect x="2274.879" y="1842.079" width="108.307" height="758.147" style="fill:#f5f5f5;" /><rect x="2599.799" y="1842.079" width="108.307" height="866.454" style="fill:#b73939;" /><rect x="2708.106" y="1842.079" width="108.307" height="1191.375" style="fill:#ff5656;" /><rect x="650.277" y="1950.386" width="216.614" height="1083.068" style="fill:#ff5656;" /><rect x="866.891" y="1950.386" width="216.614" height="541.534" style="fill:#fff;" /><rect x="1083.505" y="1950.386" width="216.614" height="541.534" style="fill:#f5f5f5;" /><rect x="1516.732" y="1950.386" width="433.227" height="974.761" style="fill:#f5f5f5;" /><rect x="2491.493" y="1950.386" width="108.307" height="649.841" style="fill:#dadada;" /><rect x="2383.186" y="2058.693" width="108.307" height="433.227" style="fill:#f5f5f5;" /><rect x="217.05" y="2491.92" width="108.307" height="108.307" style="fill:#ce5a5a;" /><rect x="866.891" y="2491.92" width="108.307" height="649.841" style="fill:#ff5656;" /><rect x="975.198" y="2491.92" width="216.614" height="216.614" style="fill:#fff;" /><rect x="1191.811" y="2491.92" width="108.307" height="216.614" style="fill:#f5f5f5;" /><rect x="2383.186" y="2491.92" width="108.307" height="216.614" style="fill:#dadada;" /><rect x="3141.333" y="2491.92" width="108.307" height="324.92" style="fill:#920404;" /><rect x="217.05" y="2600.227" width="108.307" height="216.614" style="fill:#ffabab;" /><rect x="2274.879" y="2600.227" width="108.307" height="216.614" style="fill:#dadada;" /><rect x="2491.493" y="2600.227" width="108.307" height="216.614" style="fill:#b73939;" /><rect x="325.357" y="2708.533" width="108.307" height="216.614" style="fill:#ffabab;" /><rect x="975.198" y="2708.533" width="108.307" height="541.534" style="fill:#ff5656;" /><rect x="1083.505" y="2708.533" width="216.614" height="108.307" style="fill:#fff;" /><rect x="2058.266" y="2708.533" width="108.307" height="108.307" style="fill:#f5f5f5;" /><rect x="2166.572" y="2708.533" width="108.307" height="216.614" style="fill:#dadada;" /><rect x="2383.186" y="2708.533" width="108.307" height="216.614" style="fill:#b73939;" /><rect x="2599.799" y="2708.533" width="108.307" height="433.227" style="fill:#ff5656;" /><rect x="3033.027" y="2708.533" width="108.307" height="216.614" style="fill:#920404;" /><rect x="433.664" y="2816.84" width="108.307" height="216.614" style="fill:#ffabab;" /><rect x="1083.505" y="2816.84" width="108.307" height="433.227" style="fill:#ff5656;" /><rect x="1191.811" y="2816.84" width="216.614" height="108.307" style="fill:#fff;" /><rect x="2058.266" y="2816.84" width="108.307" height="216.614" style="fill:#dadada;" /><rect x="2274.879" y="2816.84" width="108.307" height="216.614" style="fill:#b73939;" /><rect x="2491.493" y="2816.84" width="108.307" height="324.92" style="fill:#ff5656;" /><rect x="2816.413" y="2816.84" width="108.307" height="108.307" style="fill:#ff5656;" /><rect x="2924.72" y="2816.84" width="108.307" height="216.614" style="fill:#920404;" /><rect x="541.971" y="2925.147" width="108.307" height="216.614" style="fill:#ffabab;" /><rect x="1191.811" y="2925.147" width="108.307" height="324.92" style="fill:#ff5656;" /><rect x="1300.118" y="2925.147" width="324.92" height="108.307" style="fill:#fff;" /><rect x="1625.038" y="2925.147" width="433.227" height="108.307" style="fill:#dadada;" /><rect x="2166.572" y="2925.147" width="108.307" height="216.614" style="fill:#b73939;" /><rect x="2383.186" y="2925.147" width="108.307" height="324.92" style="fill:#ff5656;" /><rect x="2816.413" y="2925.147" width="108.307" height="216.614" style="fill:#920404;" /><rect x="650.277" y="3033.454" width="108.307" height="216.614" style="fill:#ffabab;" /><rect x="758.584" y="3033.454" width="108.307" height="108.307" style="fill:#ff5656;" /><rect x="1300.118" y="3033.454" width="108.307" height="216.614" style="fill:#ff5656;" /><rect x="1408.425" y="3033.454" width="758.147" height="108.307" style="fill:#b73939;" /><rect x="2274.879" y="3033.454" width="108.307" height="216.614" style="fill:#ff5656;" /><rect x="2708.106" y="3033.454" width="108.307" height="216.614" style="fill:#920404;" /><rect x="758.584" y="3141.76" width="216.614" height="108.307" style="fill:#ffabab;" /><rect x="1408.425" y="3141.76" width="866.454" height="108.307" style="fill:#ff5656;" /><rect x="2491.493" y="3141.76" width="216.614" height="108.307" style="fill:#920404;" /><rect x="866.891" y="3250.067" width="108.307" height="108.307" style="fill:#ffabab;" /><rect x="975.198" y="3250.067" width="1624.602" height="108.307" style="fill:#920404;" /></svg>