<svg width="512" height="512" viewBox="0 0 512 512" fill="none" xmlns="http://www.w3.org/2000/svg">
<path fill-rule="evenodd" clip-rule="evenodd" d="M107.334 8.30029H206.597V25.0346H124.069V41.5404H107.563V58.0459H91.0574V74.5517H74.5517V91.0574H58.0459V107.563H41.5402V140.575H25.0346V173.586H8.30029V123.84H24.8059V107.563V107.335V90.8288H41.3116V74.3231H57.8173V57.8173H74.3231V41.3116H90.8288V24.806H107.334V8.30029Z" fill="#FF7278"/>
<path fill-rule="evenodd" clip-rule="evenodd" d="M25.0346 173.357H8.30029V371.654H25.0346V173.357Z" fill="#A7191F"/>
<path fill-rule="evenodd" clip-rule="evenodd" d="M57.8171 107.335H41.3114V140.346H24.8057V272.62H41.54V256.114H57.8171H58.0457H74.5515L255.885 256.114H256.114L321.908 256.114H338.643L387.931 256.114H388.16L437.448 256.114H453.954H454.183H470.46V272.62H487.194V140.346H470.688V107.335H454.183V90.8288H437.677V74.3231H421.171V57.8173H404.665V41.3116H371.654V24.806H123.84V41.3116H107.334V57.8173H90.8286V74.3231H74.3229V90.8288H57.8171V107.335Z" fill="#ED333B"/>
<path fill-rule="evenodd" clip-rule="evenodd" d="M41.5404 371.426H8.30029V388.16H24.8059V421.171H41.3116V437.677H57.8173V454.183H74.3231V470.688H90.8288V487.194H107.334V470.46H107.563V487.194H123.84V503.7H388.16V486.965H140.574V470.46H107.563V453.954H91.0574V437.448H74.5517V420.943H58.0459V404.437H41.5402L41.5404 388.16V371.426ZM140.574 486.965V487.194H123.84V486.965H140.574ZM91.0574 453.954V470.688H90.8288V453.954H91.0574ZM74.5517 437.448V454.183H74.3231V437.448H74.5517ZM58.0459 420.943V437.677H57.8173V420.943H58.0459ZM41.5402 404.437V421.171H41.3116V404.437H41.5402ZM41.5404 388.16H24.8059V387.931H41.5402L41.5404 388.16Z" fill="#A11A20"/>
<path fill-rule="evenodd" clip-rule="evenodd" d="M74.3231 157.08V173.586H322.137V157.08H338.643V140.346H322.137V123.84H74.3231V140.346H57.8174V157.08H74.3231Z" fill="#FBD7D5"/>
<path fill-rule="evenodd" clip-rule="evenodd" d="M387.931 123.84H404.666V140.575H387.931V123.84ZM420.942 123.84H437.677V140.575H420.942V123.84ZM387.931 189.863H404.666V206.597H387.931V189.863ZM420.942 189.863H437.677V206.597H420.942V189.863Z" fill="#E7686D"/>
<path fill-rule="evenodd" clip-rule="evenodd" d="M404.437 123.84H421.171V140.346H437.677V190.092H421.171V206.597H404.437V190.092H387.931V140.346H404.437V123.84Z" fill="#FF898E"/>
<path fill-rule="evenodd" clip-rule="evenodd" d="M74.3228 189.863H256.114V206.597H74.3228V189.863Z" fill="#FAA197"/>
<path fill-rule="evenodd" clip-rule="evenodd" d="M41.3114 255.886H470.688V272.62H41.3114V255.886ZM24.8057 272.391H41.54V371.654H24.8057V272.391Z" fill="white"/>
<path fill-rule="evenodd" clip-rule="evenodd" d="M421.171 421.171H437.677V404.666H454.183V371.654H470.688V288.897L470.688 272.391H41.3115V288.897V289.126V404.665H57.8173V421.171H74.323V437.677H90.8287V454.183H107.334V470.688H140.346V487.194H371.654V470.46L371.654 454.183H404.666V437.677H421.171V421.171Z" fill="#EFEFEF"/>
<path fill-rule="evenodd" clip-rule="evenodd" d="M470.46 272.391H487.194V371.654H470.46V272.391ZM453.954 371.426H470.688V404.666H453.954V371.426ZM437.448 404.437H454.182V421.171H437.448V404.437ZM420.942 420.943H437.677V437.677H420.942V420.943ZM404.437 437.448H421.171V454.183H404.437V437.448ZM371.425 453.954H404.665V470.688H371.425V453.954Z" fill="#E6E6E6"/>
<path fill-rule="evenodd" clip-rule="evenodd" d="M74.3228 288.897H322.137V305.632H74.3228V288.897ZM74.3228 321.909H140.574V338.643H74.3228V321.909ZM74.3228 371.426H421.171V388.16H74.3228V371.426Z" fill="#D0D0D0"/>
<path fill-rule="evenodd" clip-rule="evenodd" d="M503.699 321.909H486.965V371.426H470.46V404.437H453.954V420.943H437.448V437.449H420.942V453.954H404.437V470.46H371.425V487.194H404.437H404.665H421.171V470.689H437.677V454.183H454.182V437.677H470.688V421.171H487.194V388.16H503.699V321.909Z" fill="#701418"/>
<path fill-rule="evenodd" clip-rule="evenodd" d="M470.46 107.563H453.954V91.0574H437.448V74.5517H420.943V58.0459H404.437V41.5404H371.426V25.0346H206.369V8.30029H388.16V24.806H421.171V41.3116H437.677V57.8173H454.183V74.3231H470.688V90.8288L487.194 90.8288V123.84H503.7V322.137H486.965V140.574H470.46V107.563Z" fill="#A7191F"/>
</svg>
