<?xml version='1.0' encoding='utf-8'?>
<svg xmlns="http://www.w3.org/2000/svg" viewBox="0 0 3358.011 3357.98" width="512" height="512" version="1.1" xml:space="preserve" style="fill-rule:evenodd;clip-rule:evenodd;stroke-linejoin:round;stroke-miterlimit:2;"><rect x="866.955" y="108.777" width="216.614" height="108.307" style="fill:#b4b4ff;" /><rect x="1083.568" y="108.777" width="649.841" height="1083.068" style="fill:#9797d9;" /><rect x="1733.409" y="108.777" width="866.454" height="974.761" style="fill:#0a0a0a;" /><rect x="650.341" y="217.083" width="324.92" height="108.307" style="fill:#b4b4ff;" /><rect x="975.261" y="217.083" width="108.307" height="866.454" style="fill:#9797d9;" /><rect x="2599.863" y="217.083" width="216.614" height="866.454" style="fill:#0a0a0a;" /><rect x="433.727" y="325.39" width="324.92" height="108.307" style="fill:#b4b4ff;" /><rect x="758.648" y="325.39" width="216.614" height="758.147" style="fill:#9797d9;" /><rect x="2816.477" y="325.39" width="216.614" height="866.454" style="fill:#0a0a0a;" /><rect x="325.421" y="433.697" width="216.614" height="108.307" style="fill:#b4b4ff;" /><rect x="542.034" y="433.697" width="216.614" height="649.841" style="fill:#9797d9;" /><rect x="3033.09" y="433.697" width="108.307" height="866.454" style="fill:#0a0a0a;" /><rect x="217.114" y="542.004" width="216.614" height="108.307" style="fill:#b4b4ff;" /><rect x="433.727" y="542.004" width="108.307" height="649.841" style="fill:#9797d9;" /><rect x="3141.397" y="542.004" width="108.307" height="974.761" style="fill:#0a0a0a;" /><rect x="217.114" y="650.311" width="108.307" height="216.614" style="fill:#b4b4ff;" /><rect x="325.421" y="650.311" width="108.307" height="649.841" style="fill:#9797d9;" /><rect x="108.807" y="758.617" width="108.307" height="1841.215" style="fill:#b4b4ff;" /><rect x="3249.704" y="758.617" width="108.307" height="1841.215" style="fill:#101020;" /><rect x="217.114" y="866.924" width="108.307" height="649.841" style="fill:#9797d9;" /><rect x="542.034" y="1083.538" width="108.307" height="108.307" style="fill:#9797d9;" /><rect x="650.341" y="1083.538" width="433.227" height="1299.681" style="fill:#0a0a0a;" /><rect x="1733.409" y="1083.538" width="649.841" height="108.307" style="fill:#0a0a0a;" /><rect x="2383.25" y="1083.538" width="433.227" height="1299.681" style="fill:#9797d9;" /><rect x="433.727" y="1191.844" width="216.614" height="1083.068" style="fill:#0a0a0a;" /><rect x="1083.568" y="1191.844" width="216.614" height="1083.068" style="fill:#0a0a0a;" /><rect x="1300.182" y="1191.844" width="433.227" height="108.307" style="fill:#9797d9;" /><rect x="1733.409" y="1191.844" width="433.227" height="108.307" style="fill:#0a0a0a;" /><rect x="2166.636" y="1191.844" width="216.614" height="1083.068" style="fill:#9797d9;" /><rect x="2816.477" y="1191.844" width="216.614" height="1083.068" style="fill:#9797d9;" /><rect x="325.421" y="1300.151" width="108.307" height="866.454" style="fill:#0a0a0a;" /><rect x="1300.182" y="1300.151" width="108.307" height="866.454" style="fill:#0a0a0a;" /><rect x="1408.488" y="1300.151" width="324.92" height="216.614" style="fill:#9797d9;" /><rect x="1733.409" y="1300.151" width="324.92" height="216.614" style="fill:#0a0a0a;" /><rect x="2058.329" y="1300.151" width="108.307" height="866.454" style="fill:#9797d9;" /><rect x="3033.09" y="1300.151" width="108.307" height="866.454" style="fill:#9797d9;" /><rect x="217.114" y="1516.765" width="108.307" height="433.227" style="fill:#0a0a0a;" /><rect x="1408.488" y="1516.765" width="108.307" height="433.227" style="fill:#0a0a0a;" /><rect x="1516.795" y="1516.765" width="216.614" height="1841.215" style="fill:#9797d9;" /><rect x="1733.409" y="1516.765" width="216.614" height="1732.908" style="fill:#0a0a0a;" /><rect x="1950.022" y="1516.765" width="108.307" height="433.227" style="fill:#9797d9;" /><rect x="3141.397" y="1516.765" width="108.307" height="433.227" style="fill:#9797d9;" /><rect x="217.114" y="1949.992" width="108.307" height="866.454" style="fill:#9797d9;" /><rect x="1408.488" y="1949.992" width="108.307" height="1407.988" style="fill:#9797d9;" /><rect x="1950.022" y="1949.992" width="108.307" height="1299.681" style="fill:#0a0a0a;" /><rect x="3141.397" y="1949.992" width="108.307" height="541.534" style="fill:#0a0a0a;" /><rect x="325.421" y="2166.605" width="108.307" height="758.147" style="fill:#9797d9;" /><rect x="1300.182" y="2166.605" width="108.307" height="1191.375" style="fill:#9797d9;" /><rect x="2058.329" y="2166.605" width="108.307" height="1083.068" style="fill:#0a0a0a;" /><rect x="3033.09" y="2166.605" width="108.307" height="541.534" style="fill:#0a0a0a;" /><rect x="433.727" y="2274.912" width="216.614" height="758.147" style="fill:#9797d9;" /><rect x="1083.568" y="2274.912" width="216.614" height="1083.068" style="fill:#9797d9;" /><rect x="2166.636" y="2274.912" width="216.614" height="974.761" style="fill:#0a0a0a;" /><rect x="2816.477" y="2274.912" width="216.614" height="541.534" style="fill:#0a0a0a;" /><rect x="650.341" y="2383.219" width="433.227" height="866.454" style="fill:#9797d9;" /><rect x="2383.25" y="2383.219" width="433.227" height="649.841" style="fill:#0a0a0a;" /><rect x="3141.397" y="2491.526" width="108.307" height="324.92" style="fill:#101020;" /><rect x="3033.09" y="2708.139" width="108.307" height="216.614" style="fill:#101020;" /><rect x="2816.477" y="2816.446" width="108.307" height="108.307" style="fill:#0a0a0a;" /><rect x="2924.783" y="2816.446" width="108.307" height="216.614" style="fill:#101020;" /><rect x="2816.477" y="2924.753" width="108.307" height="216.614" style="fill:#101020;" /><rect x="542.034" y="3033.06" width="108.307" height="108.307" style="fill:#9797d9;" /><rect x="2383.25" y="3033.06" width="324.92" height="108.307" style="fill:#0a0a0a;" /><rect x="2708.17" y="3033.06" width="108.307" height="216.614" style="fill:#101020;" /><rect x="2383.25" y="3141.366" width="108.307" height="108.307" style="fill:#0a0a0a;" /><rect x="2491.556" y="3141.366" width="216.614" height="108.307" style="fill:#101020;" /><rect x="866.955" y="3249.673" width="216.614" height="108.307" style="fill:#9797d9;" /><rect x="1733.409" y="3249.673" width="866.454" height="108.307" style="fill:#101020;" /></svg>