<?xml version='1.0' encoding='utf-8'?>
<svg xmlns="http://www.w3.org/2000/svg" viewBox="0 0 3358.194 3358.366" width="512" height="512" version="1.1" xml:space="preserve" style="fill-rule:evenodd;clip-rule:evenodd;stroke-linejoin:round;stroke-miterlimit:2;"><rect x="867.138" y="109.163" width="1732.908" height="108.307" style="fill:#3f67ff;" /><rect x="650.524" y="217.469" width="324.92" height="108.307" style="fill:#3f67ff;" /><rect x="975.445" y="217.469" width="1516.295" height="541.534" style="fill:#223a97;" /><rect x="2491.74" y="217.469" width="324.92" height="108.307" style="fill:#3f67ff;" /><rect x="433.911" y="325.776" width="324.92" height="108.307" style="fill:#3f67ff;" /><rect x="758.831" y="325.776" width="216.614" height="433.227" style="fill:#223a97;" /><rect x="2491.74" y="325.776" width="216.614" height="433.227" style="fill:#223a97;" /><rect x="2708.353" y="325.776" width="324.92" height="108.307" style="fill:#3f67ff;" /><rect x="325.604" y="434.083" width="216.614" height="108.307" style="fill:#3f67ff;" /><rect x="542.217" y="434.083" width="216.614" height="541.534" style="fill:#223a97;" /><rect x="2708.353" y="434.083" width="216.614" height="541.534" style="fill:#223a97;" /><rect x="2924.967" y="434.083" width="216.614" height="108.307" style="fill:#3f67ff;" /><rect x="217.297" y="542.39" width="216.614" height="108.307" style="fill:#3f67ff;" /><rect x="433.911" y="542.39" width="108.307" height="974.761" style="fill:#223a97;" /><rect x="2924.967" y="542.39" width="108.307" height="974.761" style="fill:#223a97;" /><rect x="3033.273" y="542.39" width="216.614" height="108.307" style="fill:#3f67ff;" /><rect x="217.297" y="650.696" width="108.307" height="216.614" style="fill:#3f67ff;" /><rect x="325.604" y="650.696" width="108.307" height="2057.829" style="fill:#223a97;" /><rect x="3033.273" y="650.696" width="108.307" height="2057.829" style="fill:#223a97;" /><rect x="3141.58" y="650.696" width="108.307" height="216.614" style="fill:#3f67ff;" /><rect x="108.99" y="759.003" width="108.307" height="108.307" style="fill:#3f67ff;" /><rect x="758.831" y="759.003" width="108.307" height="108.307" style="fill:#223a97;" /><rect x="867.138" y="759.003" width="324.92" height="649.841" style="fill:#fff;" /><rect x="1192.058" y="759.003" width="1083.068" height="108.307" style="fill:#223a97;" /><rect x="2275.126" y="759.003" width="324.92" height="649.841" style="fill:#fff;" /><rect x="2600.046" y="759.003" width="108.307" height="108.307" style="fill:#223a97;" /><rect x="3249.887" y="759.003" width="108.307" height="108.307" style="fill:#3f67ff;" /><rect x="108.99" y="867.31" width="216.614" height="1732.908" style="fill:#223a97;" /><rect x="758.831" y="867.31" width="108.307" height="1732.908" style="fill:#fff;" /><rect x="1192.058" y="867.31" width="108.307" height="541.534" style="fill:#fff;" /><rect x="1300.365" y="867.31" width="866.454" height="108.307" style="fill:#223a97;" /><rect x="2166.819" y="867.31" width="108.307" height="541.534" style="fill:#fff;" /><rect x="2600.046" y="867.31" width="108.307" height="1732.908" style="fill:#fff;" /><rect x="3141.58" y="867.31" width="216.614" height="1732.908" style="fill:#223a97;" /><rect x="542.217" y="975.617" width="108.307" height="108.307" style="fill:#223a97;" /><rect x="650.524" y="975.617" width="108.307" height="1624.602" style="fill:#fff;" /><rect x="1300.365" y="975.617" width="866.454" height="1299.681" style="fill:#fff;" /><rect x="2708.353" y="975.617" width="108.307" height="1624.602" style="fill:#fff;" /><rect x="2816.66" y="975.617" width="108.307" height="108.307" style="fill:#223a97;" /><rect x="542.217" y="1083.924" width="108.307" height="1407.988" style="fill:#fff;" /><rect x="2816.66" y="1083.924" width="108.307" height="1407.988" style="fill:#fff;" /><rect x="867.138" y="1408.844" width="216.614" height="108.307" style="fill:#fff;" /><rect x="1083.751" y="1408.844" width="216.614" height="324.92" style="fill:#3a53b5;" /><rect x="2166.819" y="1408.844" width="216.614" height="324.92" style="fill:#3a53b5;" /><rect x="2383.433" y="1408.844" width="216.614" height="108.307" style="fill:#fff;" /><rect x="433.911" y="1517.151" width="108.307" height="866.454" style="fill:#fff;" /><rect x="867.138" y="1517.151" width="108.307" height="1083.068" style="fill:#fff;" /><rect x="975.445" y="1517.151" width="108.307" height="216.614" style="fill:#3a53b5;" /><rect x="2383.433" y="1517.151" width="108.307" height="216.614" style="fill:#3a53b5;" /><rect x="2491.74" y="1517.151" width="108.307" height="1083.068" style="fill:#fff;" /><rect x="2924.967" y="1517.151" width="108.307" height="866.454" style="fill:#fff;" /><rect x="975.445" y="1733.764" width="324.92" height="433.227" style="fill:#fff;" /><rect x="2166.819" y="1733.764" width="324.92" height="433.227" style="fill:#fff;" /><rect x="975.445" y="2166.991" width="108.307" height="108.307" style="fill:#14235a;" /><rect x="1083.751" y="2166.991" width="216.614" height="108.307" style="fill:#fff;" /><rect x="2166.819" y="2166.991" width="216.614" height="108.307" style="fill:#fff;" /><rect x="2383.433" y="2166.991" width="108.307" height="108.307" style="fill:#14235a;" /><rect x="975.445" y="2275.298" width="108.307" height="324.92" style="fill:#fff;" /><rect x="1083.751" y="2275.298" width="1299.681" height="108.307" style="fill:#14235a;" /><rect x="2383.433" y="2275.298" width="108.307" height="324.92" style="fill:#fff;" /><rect x="433.911" y="2383.605" width="108.307" height="108.307" style="fill:#14235a;" /><rect x="1083.751" y="2383.605" width="108.307" height="216.614" style="fill:#fff;" /><rect x="1192.058" y="2383.605" width="1083.068" height="108.307" style="fill:#223a97;" /><rect x="2275.126" y="2383.605" width="108.307" height="216.614" style="fill:#fff;" /><rect x="2924.967" y="2383.605" width="108.307" height="108.307" style="fill:#14235a;" /><rect x="433.911" y="2491.912" width="108.307" height="324.92" style="fill:#223a97;" /><rect x="542.217" y="2491.912" width="108.307" height="108.307" style="fill:#14235a;" /><rect x="1192.058" y="2491.912" width="108.307" height="108.307" style="fill:#fff;" /><rect x="1300.365" y="2491.912" width="866.454" height="758.147" style="fill:#223a97;" /><rect x="2166.819" y="2491.912" width="108.307" height="108.307" style="fill:#fff;" /><rect x="2816.66" y="2491.912" width="108.307" height="108.307" style="fill:#14235a;" /><rect x="2924.967" y="2491.912" width="108.307" height="324.92" style="fill:#223a97;" /><rect x="217.297" y="2600.219" width="108.307" height="216.614" style="fill:#14235a;" /><rect x="542.217" y="2600.219" width="108.307" height="433.227" style="fill:#223a97;" /><rect x="650.524" y="2600.219" width="649.841" height="108.307" style="fill:#14235a;" /><rect x="2166.819" y="2600.219" width="649.841" height="108.307" style="fill:#14235a;" /><rect x="2816.66" y="2600.219" width="108.307" height="324.92" style="fill:#223a97;" /><rect x="3141.58" y="2600.219" width="108.307" height="216.614" style="fill:#14235a;" /><rect x="325.604" y="2708.525" width="108.307" height="216.614" style="fill:#14235a;" /><rect x="650.524" y="2708.525" width="649.841" height="324.92" style="fill:#223a97;" /><rect x="2166.819" y="2708.525" width="649.841" height="324.92" style="fill:#223a97;" /><rect x="3033.273" y="2708.525" width="108.307" height="216.614" style="fill:#14235a;" /><rect x="433.911" y="2816.832" width="108.307" height="324.92" style="fill:#14235a;" /><rect x="2924.967" y="2816.832" width="108.307" height="216.614" style="fill:#14235a;" /><rect x="2816.66" y="2925.139" width="108.307" height="216.614" style="fill:#14235a;" /><rect x="542.217" y="3033.446" width="216.614" height="108.307" style="fill:#14235a;" /><rect x="758.831" y="3033.446" width="541.534" height="108.307" style="fill:#223a97;" /><rect x="2166.819" y="3033.446" width="541.534" height="108.307" style="fill:#223a97;" /><rect x="2708.353" y="3033.446" width="108.307" height="216.614" style="fill:#14235a;" /><rect x="650.524" y="3141.752" width="324.92" height="108.307" style="fill:#14235a;" /><rect x="975.445" y="3141.752" width="324.92" height="108.307" style="fill:#223a97;" /><rect x="2166.819" y="3141.752" width="324.92" height="108.307" style="fill:#223a97;" /><rect x="2491.74" y="3141.752" width="216.614" height="108.307" style="fill:#14235a;" /><rect x="867.138" y="3250.059" width="1732.908" height="108.307" style="fill:#14235a;" /></svg>