<?xml version='1.0' encoding='utf-8'?>
<svg xmlns="http://www.w3.org/2000/svg" viewBox="0 0 3359.0 3358.0" width="512" height="512" version="1.1" xml:space="preserve" style="fill-rule:evenodd;clip-rule:evenodd;stroke-linejoin:round;stroke-miterlimit:2;"><rect x="867" y="108" width="434" height="109" style="fill:#79c0ff;" /><rect x="1300" y="108" width="759" height="109" style="fill:#79c0ff;" /><rect x="2058" y="108" width="543" height="109" style="fill:#79c0ff;" /><rect x="650" y="217" width="326" height="109" style="fill:#79c0ff;" /><rect x="975" y="217" width="1517" height="651" style="fill:#2e7ec6;" /><rect x="2491" y="217" width="326" height="109" style="fill:#79c0ff;" /><rect x="434" y="325" width="326" height="109" style="fill:#79c0ff;" /><rect x="759" y="325" width="218" height="543" style="fill:#2e7ec6;" /><rect x="2491" y="325" width="218" height="543" style="fill:#2e7ec6;" /><rect x="2708" y="325" width="326" height="109" style="fill:#79c0ff;" /><rect x="325" y="433" width="218" height="109" style="fill:#79c0ff;" /><rect x="542" y="433" width="218" height="434" style="fill:#2e7ec6;" /><rect x="2708" y="433" width="218" height="434" style="fill:#2e7ec6;" /><rect x="2925" y="433" width="218" height="109" style="fill:#79c0ff;" /><rect x="217" y="542" width="218" height="109" style="fill:#79c0ff;" /><rect x="434" y="542" width="109" height="326" style="fill:#2e7ec6;" /><rect x="2925" y="542" width="109" height="326" style="fill:#2e7ec6;" /><rect x="3033" y="542" width="218" height="109" style="fill:#79c0ff;" /><rect x="217" y="650" width="109" height="218" style="fill:#175c99;" /><rect x="325" y="650" width="109" height="326" style="fill:#2e7ec6;" /><rect x="3033" y="650" width="109" height="218" style="fill:#2e7ec6;" /><rect x="3141" y="650" width="109" height="218" style="fill:#175c99;" /><rect x="109" y="758" width="109" height="543" style="fill:#175c99;" /><rect x="3250" y="758" width="109" height="1842" style="fill:#051e34;" /><rect x="217" y="866" width="109" height="651" style="fill:#2e7ec6;" /><rect x="434" y="866" width="2817" height="109" style="fill:#b7d1e9;" /><rect x="325" y="975" width="2925" height="218" style="fill:#fff;" /><rect x="325" y="1191" width="1517" height="109" style="fill:#fff;" /><rect x="1842" y="1191" width="1409" height="109" style="fill:#7cc1ff;" /><rect x="109" y="1300" width="109" height="867" style="fill:#175c99;" /><rect x="325" y="1300" width="1409" height="109" style="fill:#fff;" /><rect x="1733" y="1300" width="218" height="109" style="fill:#7cc1ff;" /><rect x="1950" y="1300" width="1301" height="1192" style="fill:#499ee8;" /><rect x="325" y="1408" width="1301" height="109" style="fill:#fff;" /><rect x="1625" y="1408" width="218" height="109" style="fill:#7cc1ff;" /><rect x="1842" y="1408" width="109" height="1842" style="fill:#499ee8;" /><rect x="217" y="1516" width="1517" height="109" style="fill:#7cc1ff;" /><rect x="1733" y="1516" width="109" height="1734" style="fill:#499ee8;" /><rect x="217" y="1625" width="1517" height="867" style="fill:#499ee8;" /><rect x="109" y="2166" width="109" height="434" style="fill:#175c99;" /><rect x="217" y="2491" width="109" height="326" style="fill:#175c99;" /><rect x="325" y="2491" width="1409" height="218" style="fill:#499ee8;" /><rect x="1950" y="2491" width="1192" height="218" style="fill:#499ee8;" /><rect x="3141" y="2491" width="109" height="326" style="fill:#051e34;" /><rect x="325" y="2708" width="109" height="218" style="fill:#175c99;" /><rect x="434" y="2708" width="1301" height="109" style="fill:#499ee8;" /><rect x="1950" y="2708" width="1084" height="109" style="fill:#499ee8;" /><rect x="3033" y="2708" width="109" height="218" style="fill:#051e34;" /><rect x="434" y="2816" width="109" height="218" style="fill:#175c99;" /><rect x="542" y="2816" width="1192" height="109" style="fill:#499ee8;" /><rect x="1950" y="2816" width="976" height="109" style="fill:#499ee8;" /><rect x="2925" y="2816" width="109" height="218" style="fill:#051e34;" /><rect x="542" y="2924" width="109" height="218" style="fill:#175c99;" /><rect x="650" y="2924" width="1084" height="109" style="fill:#499ee8;" /><rect x="1950" y="2924" width="867" height="109" style="fill:#499ee8;" /><rect x="2816" y="2924" width="109" height="218" style="fill:#051e34;" /><rect x="650" y="3033" width="109" height="218" style="fill:#175c99;" /><rect x="759" y="3033" width="976" height="109" style="fill:#499ee8;" /><rect x="1950" y="3033" width="759" height="109" style="fill:#499ee8;" /><rect x="2708" y="3033" width="109" height="218" style="fill:#051e34;" /><rect x="759" y="3141" width="218" height="109" style="fill:#175c99;" /><rect x="975" y="3141" width="759" height="109" style="fill:#499ee8;" /><rect x="1950" y="3141" width="543" height="109" style="fill:#499ee8;" /><rect x="2491" y="3141" width="218" height="109" style="fill:#051e34;" /><rect x="867" y="3249" width="1734" height="109" style="fill:#051e34;" /></svg>