<?xml version='1.0' encoding='utf-8'?>
<svg xmlns="http://www.w3.org/2000/svg" viewBox="0 0 3357.5469999999996 3358.0589999999997" width="512" height="512" version="1.1" xml:space="preserve" style="fill-rule:evenodd;clip-rule:evenodd;stroke-linejoin:round;stroke-miterlimit:2;"><rect x="866.491" y="108.856" width="1732.908" height="108.307" style="fill:#17754a;" /><rect x="649.877" y="217.162" width="324.92" height="108.307" style="fill:#17754a;" /><rect x="974.797" y="217.162" width="1516.295" height="324.92" style="fill:#13613d;" /><rect x="2491.092" y="217.162" width="324.92" height="108.307" style="fill:#17754a;" /><rect x="541.57" y="325.469" width="108.307" height="108.307" style="fill:#17754a;" /><rect x="649.877" y="325.469" width="324.92" height="324.92" style="fill:#13613d;" /><rect x="2491.092" y="325.469" width="216.614" height="324.92" style="fill:#13613d;" /><rect x="2707.706" y="325.469" width="216.614" height="108.307" style="fill:#17754a;" /><rect x="433.264" y="433.776" width="108.307" height="108.307" style="fill:#17754a;" /><rect x="541.57" y="433.776" width="108.307" height="541.534" style="fill:#13613d;" /><rect x="2707.706" y="433.776" width="108.307" height="433.227" style="fill:#13613d;" /><rect x="2816.013" y="433.776" width="216.614" height="108.307" style="fill:#17754a;" /><rect x="324.957" y="542.083" width="108.307" height="108.307" style="fill:#17754a;" /><rect x="433.264" y="542.083" width="108.307" height="541.534" style="fill:#13613d;" /><rect x="974.797" y="542.083" width="108.307" height="216.614" style="fill:#83f5b6;" /><rect x="1083.104" y="542.083" width="216.614" height="108.307" style="fill:#67ffab;" /><rect x="1299.718" y="542.083" width="866.454" height="108.307" style="fill:#13613d;" /><rect x="2166.172" y="542.083" width="108.307" height="108.307" style="fill:#83f5b6;" /><rect x="2274.479" y="542.083" width="108.307" height="108.307" style="fill:#67ffab;" /><rect x="2382.786" y="542.083" width="108.307" height="108.307" style="fill:#83f5b6;" /><rect x="2816.013" y="542.083" width="108.307" height="433.227" style="fill:#13613d;" /><rect x="2924.32" y="542.083" width="216.614" height="108.307" style="fill:#17754a;" /><rect x="216.65" y="650.389" width="108.307" height="216.614" style="fill:#17754a;" /><rect x="324.957" y="650.389" width="108.307" height="2057.829" style="fill:#13613d;" /><rect x="649.877" y="650.389" width="216.614" height="108.307" style="fill:#13613d;" /><rect x="866.491" y="650.389" width="108.307" height="216.614" style="fill:#47f193;" /><rect x="1083.104" y="650.389" width="108.307" height="324.92" style="fill:#36d57d;" /><rect x="1191.411" y="650.389" width="108.307" height="108.307" style="fill:#47f193;" /><rect x="1299.718" y="650.389" width="108.307" height="108.307" style="fill:#83f5b6;" /><rect x="1408.025" y="650.389" width="649.841" height="324.92" style="fill:#13613d;" /><rect x="2057.865" y="650.389" width="108.307" height="108.307" style="fill:#83f5b6;" /><rect x="2166.172" y="650.389" width="108.307" height="108.307" style="fill:#47f193;" /><rect x="2274.479" y="650.389" width="108.307" height="216.614" style="fill:#36d57d;" /><rect x="2382.786" y="650.389" width="108.307" height="108.307" style="fill:#47f193;" /><rect x="2491.092" y="650.389" width="108.307" height="108.307" style="fill:#83f5b6;" /><rect x="2599.399" y="650.389" width="108.307" height="108.307" style="fill:#13613d;" /><rect x="2924.32" y="650.389" width="108.307" height="324.92" style="fill:#13613d;" /><rect x="3032.626" y="650.389" width="216.614" height="108.307" style="fill:#17754a;" /><rect x="649.877" y="758.696" width="108.307" height="108.307" style="fill:#13613d;" /><rect x="758.184" y="758.696" width="108.307" height="108.307" style="fill:#47f193;" /><rect x="974.797" y="758.696" width="108.307" height="216.614" style="fill:#36d57d;" /><rect x="1191.411" y="758.696" width="108.307" height="324.92" style="fill:#36d57d;" /><rect x="1299.718" y="758.696" width="108.307" height="108.307" style="fill:#67ffab;" /><rect x="2057.865" y="758.696" width="108.307" height="108.307" style="fill:#47f193;" /><rect x="2166.172" y="758.696" width="108.307" height="324.92" style="fill:#36d57d;" /><rect x="2382.786" y="758.696" width="108.307" height="216.614" style="fill:#36d57d;" /><rect x="2491.092" y="758.696" width="216.614" height="108.307" style="fill:#47f193;" /><rect x="3032.626" y="758.696" width="108.307" height="1949.522" style="fill:#13613d;" /><rect x="3140.933" y="758.696" width="108.307" height="216.614" style="fill:#17754a;" /><rect x="108.343" y="867.003" width="108.307" height="1732.908" style="fill:#17754a;" /><rect x="216.65" y="867.003" width="108.307" height="1624.602" style="fill:#13613d;" /><rect x="649.877" y="867.003" width="108.307" height="108.307" style="fill:#47f193;" /><rect x="758.184" y="867.003" width="108.307" height="108.307" style="fill:#83f5b6;" /><rect x="866.491" y="867.003" width="108.307" height="108.307" style="fill:#36d57d;" /><rect x="1299.718" y="867.003" width="108.307" height="216.614" style="fill:#47f193;" /><rect x="2057.865" y="867.003" width="108.307" height="108.307" style="fill:#67ffab;" /><rect x="2274.479" y="867.003" width="108.307" height="108.307" style="fill:#33d17a;" /><rect x="2491.092" y="867.003" width="108.307" height="108.307" style="fill:#36d57d;" /><rect x="2599.399" y="867.003" width="108.307" height="108.307" style="fill:#47f193;" /><rect x="2707.706" y="867.003" width="108.307" height="108.307" style="fill:#83f5b6;" /><rect x="3249.24" y="867.003" width="108.307" height="1732.908" style="fill:#17754a;" /><rect x="541.57" y="975.31" width="216.614" height="108.307" style="fill:#67ffab;" /><rect x="758.184" y="975.31" width="108.307" height="108.307" style="fill:#36d57d;" /><rect x="866.491" y="975.31" width="108.307" height="108.307" style="fill:#3dd782;" /><rect x="974.797" y="975.31" width="108.307" height="108.307" style="fill:#34d27b;" /><rect x="1083.104" y="975.31" width="108.307" height="108.307" style="fill:#34d37b;" /><rect x="1408.025" y="975.31" width="108.307" height="216.614" style="fill:#47f193;" /><rect x="1516.331" y="975.31" width="433.227" height="108.307" style="fill:#13613d;" /><rect x="1949.559" y="975.31" width="108.307" height="108.307" style="fill:#67ffab;" /><rect x="2057.865" y="975.31" width="108.307" height="108.307" style="fill:#47f193;" /><rect x="2274.479" y="975.31" width="108.307" height="108.307" style="fill:#35d37c;" /><rect x="2382.786" y="975.31" width="108.307" height="108.307" style="fill:#34d37b;" /><rect x="2491.092" y="975.31" width="108.307" height="108.307" style="fill:#36d67e;" /><rect x="2599.399" y="975.31" width="108.307" height="108.307" style="fill:#36d57d;" /><rect x="2707.706" y="975.31" width="108.307" height="108.307" style="fill:#47f193;" /><rect x="2816.013" y="975.31" width="108.307" height="108.307" style="fill:#83f5b6;" /><rect x="2924.32" y="975.31" width="108.307" height="1624.602" style="fill:#124d32;" /><rect x="3140.933" y="975.31" width="108.307" height="1516.295" style="fill:#13613d;" /><rect x="433.264" y="1083.617" width="108.307" height="1407.988" style="fill:#124d32;" /><rect x="541.57" y="1083.617" width="108.307" height="108.307" style="fill:#67ffab;" /><rect x="649.877" y="1083.617" width="108.307" height="108.307" style="fill:#36d57d;" /><rect x="758.184" y="1083.617" width="108.307" height="108.307" style="fill:#3ad881;" /><rect x="866.491" y="1083.617" width="108.307" height="108.307" style="fill:#34d27b;" /><rect x="974.797" y="1083.617" width="108.307" height="1841.215" style="fill:#33d17a;" /><rect x="1083.104" y="1083.617" width="108.307" height="108.307" style="fill:#33d27a;" /><rect x="1191.411" y="1083.617" width="108.307" height="108.307" style="fill:#36d67e;" /><rect x="1299.718" y="1083.617" width="108.307" height="108.307" style="fill:#36d57d;" /><rect x="1516.331" y="1083.617" width="216.614" height="108.307" style="fill:#47f193;" /><rect x="1732.945" y="1083.617" width="108.307" height="108.307" style="fill:#67ffab;" /><rect x="1841.252" y="1083.617" width="216.614" height="108.307" style="fill:#47f193;" /><rect x="2057.865" y="1083.617" width="108.307" height="108.307" style="fill:#36d57d;" /><rect x="2166.172" y="1083.617" width="108.307" height="108.307" style="fill:#37d77f;" /><rect x="2274.479" y="1083.617" width="108.307" height="108.307" style="fill:#34d37b;" /><rect x="2382.786" y="1083.617" width="216.614" height="108.307" style="fill:#34d27b;" /><rect x="2599.399" y="1083.617" width="108.307" height="108.307" style="fill:#36d67e;" /><rect x="2707.706" y="1083.617" width="108.307" height="108.307" style="fill:#36d57d;" /><rect x="2816.013" y="1083.617" width="108.307" height="108.307" style="fill:#47f193;" /><rect x="541.57" y="1191.923" width="108.307" height="108.307" style="fill:#47f193;" /><rect x="649.877" y="1191.923" width="108.307" height="108.307" style="fill:#42e089;" /><rect x="758.184" y="1191.923" width="108.307" height="216.614" style="fill:#34d27b;" /><rect x="866.491" y="1191.923" width="108.307" height="1732.908" style="fill:#33d17a;" /><rect x="1083.104" y="1191.923" width="108.307" height="1841.215" style="fill:#33d17a;" /><rect x="1191.411" y="1191.923" width="108.307" height="108.307" style="fill:#34d37b;" /><rect x="1299.718" y="1191.923" width="108.307" height="108.307" style="fill:#37d87f;" /><rect x="1408.025" y="1191.923" width="108.307" height="108.307" style="fill:#3adc83;" /><rect x="1516.331" y="1191.923" width="108.307" height="108.307" style="fill:#3bde84;" /><rect x="1624.638" y="1191.923" width="108.307" height="108.307" style="fill:#3fdf86;" /><rect x="1732.945" y="1191.923" width="108.307" height="108.307" style="fill:#3fdf87;" /><rect x="1841.252" y="1191.923" width="216.614" height="108.307" style="fill:#36d57d;" /><rect x="2057.865" y="1191.923" width="108.307" height="108.307" style="fill:#36d67e;" /><rect x="2166.172" y="1191.923" width="108.307" height="108.307" style="fill:#34d37b;" /><rect x="2274.479" y="1191.923" width="108.307" height="108.307" style="fill:#34d27b;" /><rect x="2382.786" y="1191.923" width="216.614" height="1732.908" style="fill:#33d17a;" /><rect x="2599.399" y="1191.923" width="108.307" height="216.614" style="fill:#34d27b;" /><rect x="2707.706" y="1191.923" width="108.307" height="108.307" style="fill:#41dd87;" /><rect x="2816.013" y="1191.923" width="108.307" height="108.307" style="fill:#83f5b6;" /><rect x="541.57" y="1300.23" width="108.307" height="108.307" style="fill:#67ffab;" /><rect x="649.877" y="1300.23" width="108.307" height="108.307" style="fill:#3cdb83;" /><rect x="1191.411" y="1300.23" width="108.307" height="108.307" style="fill:#33d27a;" /><rect x="1299.718" y="1300.23" width="108.307" height="108.307" style="fill:#34d37c;" /><rect x="1408.025" y="1300.23" width="108.307" height="108.307" style="fill:#35d57d;" /><rect x="1516.331" y="1300.23" width="108.307" height="108.307" style="fill:#36d67e;" /><rect x="1624.638" y="1300.23" width="216.614" height="108.307" style="fill:#35d37c;" /><rect x="1841.252" y="1300.23" width="108.307" height="108.307" style="fill:#34d37b;" /><rect x="1949.559" y="1300.23" width="216.614" height="108.307" style="fill:#34d27b;" /><rect x="2166.172" y="1300.23" width="216.614" height="1732.908" style="fill:#33d17a;" /><rect x="2707.706" y="1300.23" width="108.307" height="108.307" style="fill:#3fda84;" /><rect x="2816.013" y="1300.23" width="108.307" height="108.307" style="fill:#47f193;" /><rect x="541.57" y="1408.537" width="108.307" height="108.307" style="fill:#36d57d;" /><rect x="649.877" y="1408.537" width="108.307" height="108.307" style="fill:#39d780;" /><rect x="758.184" y="1408.537" width="108.307" height="1299.681" style="fill:#33d17a;" /><rect x="1191.411" y="1408.537" width="216.614" height="1624.602" style="fill:#33d17a;" /><rect x="1408.025" y="1408.537" width="216.614" height="108.307" style="fill:#33d27a;" /><rect x="1624.638" y="1408.537" width="216.614" height="108.307" style="fill:#34d27b;" /><rect x="1841.252" y="1408.537" width="324.92" height="1083.068" style="fill:#33d17a;" /><rect x="2599.399" y="1408.537" width="108.307" height="1407.988" style="fill:#33d17a;" /><rect x="2707.706" y="1408.537" width="216.614" height="108.307" style="fill:#36d57d;" /><rect x="541.57" y="1516.844" width="216.614" height="974.761" style="fill:#33d17a;" /><rect x="1408.025" y="1516.844" width="433.227" height="974.761" style="fill:#33d17a;" /><rect x="2707.706" y="1516.844" width="216.614" height="1083.068" style="fill:#33d17a;" /><rect x="216.65" y="2491.605" width="108.307" height="324.92" style="fill:#17754a;" /><rect x="433.264" y="2491.605" width="108.307" height="324.92" style="fill:#13613d;" /><rect x="541.57" y="2491.605" width="108.307" height="108.307" style="fill:#124d32;" /><rect x="649.877" y="2491.605" width="108.307" height="108.307" style="fill:#33d17a;" /><rect x="1408.025" y="2491.605" width="108.307" height="108.307" style="fill:#33d17a;" /><rect x="1516.331" y="2491.605" width="433.227" height="108.307" style="fill:#124d32;" /><rect x="1949.559" y="2491.605" width="216.614" height="108.307" style="fill:#33d17a;" /><rect x="3140.933" y="2491.605" width="108.307" height="324.92" style="fill:#17754a;" /><rect x="541.57" y="2599.911" width="108.307" height="324.92" style="fill:#13613d;" /><rect x="649.877" y="2599.911" width="108.307" height="108.307" style="fill:#124d32;" /><rect x="1408.025" y="2599.911" width="216.614" height="108.307" style="fill:#124d32;" /><rect x="1624.638" y="2599.911" width="216.614" height="649.841" style="fill:#13613d;" /><rect x="1841.252" y="2599.911" width="216.614" height="108.307" style="fill:#124d32;" /><rect x="2057.865" y="2599.911" width="108.307" height="433.227" style="fill:#33d17a;" /><rect x="2707.706" y="2599.911" width="108.307" height="108.307" style="fill:#33d17a;" /><rect x="2816.013" y="2599.911" width="108.307" height="108.307" style="fill:#124d32;" /><rect x="2924.32" y="2599.911" width="108.307" height="216.614" style="fill:#13613d;" /><rect x="324.957" y="2708.218" width="108.307" height="216.614" style="fill:#17754a;" /><rect x="649.877" y="2708.218" width="108.307" height="324.92" style="fill:#13613d;" /><rect x="758.184" y="2708.218" width="108.307" height="216.614" style="fill:#124d32;" /><rect x="1408.025" y="2708.218" width="108.307" height="324.92" style="fill:#124d32;" /><rect x="1516.331" y="2708.218" width="108.307" height="541.534" style="fill:#13613d;" /><rect x="1841.252" y="2708.218" width="108.307" height="541.534" style="fill:#13613d;" /><rect x="1949.559" y="2708.218" width="108.307" height="324.92" style="fill:#124d32;" /><rect x="2707.706" y="2708.218" width="108.307" height="108.307" style="fill:#124d32;" /><rect x="2816.013" y="2708.218" width="108.307" height="216.614" style="fill:#13613d;" /><rect x="3032.626" y="2708.218" width="108.307" height="216.614" style="fill:#17754a;" /><rect x="433.264" y="2816.525" width="108.307" height="216.614" style="fill:#17754a;" /><rect x="2599.399" y="2816.525" width="108.307" height="108.307" style="fill:#124d32;" /><rect x="2707.706" y="2816.525" width="108.307" height="216.614" style="fill:#13613d;" /><rect x="2924.32" y="2816.525" width="108.307" height="216.614" style="fill:#17754a;" /><rect x="541.57" y="2924.832" width="108.307" height="216.614" style="fill:#17754a;" /><rect x="758.184" y="2924.832" width="108.307" height="216.614" style="fill:#13613d;" /><rect x="866.491" y="2924.832" width="216.614" height="108.307" style="fill:#124d32;" /><rect x="2382.786" y="2924.832" width="108.307" height="108.307" style="fill:#33d17a;" /><rect x="2491.092" y="2924.832" width="108.307" height="108.307" style="fill:#124d32;" /><rect x="2599.399" y="2924.832" width="108.307" height="216.614" style="fill:#13613d;" /><rect x="2816.013" y="2924.832" width="108.307" height="216.614" style="fill:#17754a;" /><rect x="649.877" y="3033.139" width="108.307" height="216.614" style="fill:#17754a;" /><rect x="866.491" y="3033.139" width="216.614" height="108.307" style="fill:#13613d;" /><rect x="1083.104" y="3033.139" width="324.92" height="108.307" style="fill:#124d32;" /><rect x="1408.025" y="3033.139" width="108.307" height="216.614" style="fill:#13613d;" /><rect x="1949.559" y="3033.139" width="108.307" height="216.614" style="fill:#13613d;" /><rect x="2057.865" y="3033.139" width="433.227" height="108.307" style="fill:#124d32;" /><rect x="2491.092" y="3033.139" width="108.307" height="108.307" style="fill:#13613d;" /><rect x="2707.706" y="3033.139" width="108.307" height="216.614" style="fill:#17754a;" /><rect x="758.184" y="3141.445" width="216.614" height="108.307" style="fill:#17754a;" /><rect x="974.797" y="3141.445" width="433.227" height="108.307" style="fill:#13613d;" /><rect x="2057.865" y="3141.445" width="433.227" height="108.307" style="fill:#13613d;" /><rect x="2491.092" y="3141.445" width="216.614" height="108.307" style="fill:#17754a;" /><rect x="866.491" y="3249.752" width="1732.908" height="108.307" style="fill:#17754a;" /></svg>