<?xml version='1.0' encoding='utf-8'?>
<svg xmlns="http://www.w3.org/2000/svg" viewBox="0 0 3357.7819999999997 3358.366" width="512" height="512" version="1.1" xml:space="preserve" style="fill-rule:evenodd;clip-rule:evenodd;stroke-linejoin:round;stroke-miterlimit:2;"><rect x="866.726" y="109.163" width="1516.295" height="108.307" style="fill:#e0e0e0;" /><rect x="2383.021" y="109.163" width="216.614" height="108.307" style="fill:#696969;" /><rect x="650.113" y="217.469" width="324.92" height="108.307" style="fill:#e0e0e0;" /><rect x="975.033" y="217.469" width="1516.295" height="758.147" style="fill:#313130;" /><rect x="2491.328" y="217.469" width="324.92" height="108.307" style="fill:#696969;" /><rect x="433.499" y="325.776" width="324.92" height="108.307" style="fill:#e0e0e0;" /><rect x="758.419" y="325.776" width="216.614" height="974.761" style="fill:#313130;" /><rect x="2491.328" y="325.776" width="216.614" height="866.454" style="fill:#313130;" /><rect x="2707.941" y="325.776" width="216.614" height="108.307" style="fill:#696969;" /><rect x="325.192" y="434.083" width="216.614" height="108.307" style="fill:#e0e0e0;" /><rect x="541.806" y="434.083" width="216.614" height="1083.068" style="fill:#313130;" /><rect x="2707.941" y="434.083" width="108.307" height="974.761" style="fill:#313130;" /><rect x="2816.248" y="434.083" width="216.614" height="108.307" style="fill:#696969;" /><rect x="216.885" y="542.39" width="216.614" height="108.307" style="fill:#e0e0e0;" /><rect x="433.499" y="542.39" width="108.307" height="1191.375" style="fill:#313130;" /><rect x="2816.248" y="542.39" width="108.307" height="974.761" style="fill:#313130;" /><rect x="2924.555" y="542.39" width="216.614" height="108.307" style="fill:#696969;" /><rect x="216.885" y="650.696" width="108.307" height="216.614" style="fill:#e0e0e0;" /><rect x="325.192" y="650.696" width="108.307" height="1407.988" style="fill:#313130;" /><rect x="2924.555" y="650.696" width="108.307" height="974.761" style="fill:#313130;" /><rect x="3032.862" y="650.696" width="216.614" height="108.307" style="fill:#696969;" /><rect x="108.579" y="759.003" width="108.307" height="1516.295" style="fill:#e0e0e0;" /><rect x="3032.862" y="759.003" width="108.307" height="974.761" style="fill:#313130;" /><rect x="3141.169" y="759.003" width="108.307" height="216.614" style="fill:#696969;" /><rect x="216.885" y="867.31" width="108.307" height="1624.602" style="fill:#313130;" /><rect x="3249.475" y="867.31" width="108.307" height="1732.908" style="fill:#232323;" /><rect x="975.033" y="975.617" width="433.227" height="108.307" style="fill:#313130;" /><rect x="1408.26" y="975.617" width="649.841" height="108.307" style="fill:#fff;" /><rect x="2058.101" y="975.617" width="324.92" height="108.307" style="fill:#272726;" /><rect x="2383.021" y="975.617" width="108.307" height="108.307" style="fill:#313130;" /><rect x="3141.169" y="975.617" width="108.307" height="1083.068" style="fill:#313130;" /><rect x="975.033" y="1083.924" width="108.307" height="108.307" style="fill:#313130;" /><rect x="1083.34" y="1083.924" width="324.92" height="108.307" style="fill:#fff;" /><rect x="1408.26" y="1083.924" width="974.761" height="216.614" style="fill:#d7e2ee;" /><rect x="2383.021" y="1083.924" width="108.307" height="108.307" style="fill:#272726;" /><rect x="975.033" y="1192.23" width="108.307" height="108.307" style="fill:#fff;" /><rect x="1083.34" y="1192.23" width="324.92" height="1407.988" style="fill:#d7e2ee;" /><rect x="2383.021" y="1192.23" width="108.307" height="108.307" style="fill:#dde8f5;" /><rect x="2491.328" y="1192.23" width="108.307" height="108.307" style="fill:#272726;" /><rect x="2599.635" y="1192.23" width="108.307" height="108.307" style="fill:#313130;" /><rect x="758.419" y="1300.537" width="108.307" height="108.307" style="fill:#313130;" /><rect x="866.726" y="1300.537" width="108.307" height="108.307" style="fill:#fff;" /><rect x="975.033" y="1300.537" width="108.307" height="1516.295" style="fill:#d7e2ee;" /><rect x="1408.26" y="1300.537" width="866.454" height="108.307" style="fill:#d7e2ee;" /><rect x="2274.714" y="1300.537" width="108.307" height="216.614" style="fill:#dde8f5;" /><rect x="2383.021" y="1300.537" width="216.614" height="974.761" style="fill:#e4ecf5;" /><rect x="2599.635" y="1300.537" width="108.307" height="108.307" style="fill:#272726;" /><rect x="758.419" y="1408.844" width="108.307" height="108.307" style="fill:#fff;" /><rect x="866.726" y="1408.844" width="108.307" height="1407.988" style="fill:#d7e2ee;" /><rect x="1408.26" y="1408.844" width="758.147" height="216.614" style="fill:#d7e2ee;" /><rect x="2166.408" y="1408.844" width="108.307" height="324.92" style="fill:#dde8f5;" /><rect x="2599.635" y="1408.844" width="108.307" height="758.147" style="fill:#e4ecf5;" /><rect x="2707.941" y="1408.844" width="108.307" height="108.307" style="fill:#272726;" /><rect x="541.806" y="1517.151" width="108.307" height="108.307" style="fill:#313130;" /><rect x="650.113" y="1517.151" width="108.307" height="108.307" style="fill:#fff;" /><rect x="758.419" y="1517.151" width="108.307" height="1407.988" style="fill:#d7e2ee;" /><rect x="2274.714" y="1517.151" width="108.307" height="758.147" style="fill:#e4ecf5;" /><rect x="2707.941" y="1517.151" width="108.307" height="649.841" style="fill:#e4ecf5;" /><rect x="2816.248" y="1517.151" width="108.307" height="108.307" style="fill:#272726;" /><rect x="541.806" y="1625.457" width="108.307" height="108.307" style="fill:#fff;" /><rect x="650.113" y="1625.457" width="108.307" height="1407.988" style="fill:#d7e2ee;" /><rect x="1408.26" y="1625.457" width="649.841" height="216.614" style="fill:#d7e2ee;" /><rect x="2058.101" y="1625.457" width="108.307" height="324.92" style="fill:#dde8f5;" /><rect x="2816.248" y="1625.457" width="108.307" height="541.534" style="fill:#e4ecf5;" /><rect x="2924.555" y="1625.457" width="108.307" height="108.307" style="fill:#272726;" /><rect x="433.499" y="1733.764" width="108.307" height="324.92" style="fill:#fff;" /><rect x="541.806" y="1733.764" width="108.307" height="1191.375" style="fill:#d7e2ee;" /><rect x="2166.408" y="1733.764" width="108.307" height="541.534" style="fill:#e4ecf5;" /><rect x="2924.555" y="1733.764" width="108.307" height="433.227" style="fill:#e4ecf5;" /><rect x="3032.862" y="1733.764" width="108.307" height="324.92" style="fill:#272726;" /><rect x="1408.26" y="1842.071" width="541.534" height="216.614" style="fill:#d7e2ee;" /><rect x="1949.794" y="1842.071" width="108.307" height="216.614" style="fill:#dde8f5;" /><rect x="2058.101" y="1950.378" width="108.307" height="216.614" style="fill:#e4ecf5;" /><rect x="325.192" y="2058.685" width="108.307" height="649.841" style="fill:#fff;" /><rect x="433.499" y="2058.685" width="108.307" height="758.147" style="fill:#d7e2ee;" /><rect x="1408.26" y="2058.685" width="108.307" height="108.307" style="fill:#d7e2ee;" /><rect x="1516.567" y="2058.685" width="541.534" height="108.307" style="fill:#9da7af;" /><rect x="3032.862" y="2058.685" width="108.307" height="108.307" style="fill:#e4ecf5;" /><rect x="3141.169" y="2058.685" width="108.307" height="433.227" style="fill:#272726;" /><rect x="1408.26" y="2166.991" width="216.614" height="108.307" style="fill:#9da7af;" /><rect x="1624.874" y="2166.991" width="324.92" height="108.307" style="fill:#606e7c;" /><rect x="1949.794" y="2166.991" width="216.614" height="108.307" style="fill:#949ea6;" /><rect x="2599.635" y="2166.991" width="541.534" height="108.307" style="fill:#dde8f5;" /><rect x="108.579" y="2275.298" width="108.307" height="324.92" style="fill:#696969;" /><rect x="1408.26" y="2275.298" width="108.307" height="216.614" style="fill:#9da7af;" /><rect x="1516.567" y="2275.298" width="108.307" height="324.92" style="fill:#606e7c;" /><rect x="1624.874" y="2275.298" width="324.92" height="108.307" style="fill:#272726;" /><rect x="1949.794" y="2275.298" width="108.307" height="324.92" style="fill:#606e7c;" /><rect x="2058.101" y="2275.298" width="108.307" height="433.227" style="fill:#949ea6;" /><rect x="2166.408" y="2275.298" width="433.227" height="108.307" style="fill:#dde8f5;" /><rect x="2599.635" y="2275.298" width="541.534" height="433.227" style="fill:#d7e2ee;" /><rect x="1624.874" y="2383.605" width="108.307" height="216.614" style="fill:#272726;" /><rect x="1733.18" y="2383.605" width="216.614" height="216.614" style="fill:#313130;" /><rect x="2166.408" y="2383.605" width="433.227" height="758.147" style="fill:#d7e2ee;" /><rect x="216.885" y="2491.912" width="108.307" height="324.92" style="fill:#696969;" /><rect x="1408.26" y="2491.912" width="108.307" height="216.614" style="fill:#949ea6;" /><rect x="3141.169" y="2491.912" width="108.307" height="324.92" style="fill:#232323;" /><rect x="1083.34" y="2600.219" width="216.614" height="108.307" style="fill:#d7e2ee;" /><rect x="1299.953" y="2600.219" width="108.307" height="216.614" style="fill:#c8d3de;" /><rect x="1516.567" y="2600.219" width="108.307" height="216.614" style="fill:#949ea6;" /><rect x="1624.874" y="2600.219" width="324.92" height="108.307" style="fill:#606e7c;" /><rect x="1949.794" y="2600.219" width="108.307" height="216.614" style="fill:#949ea6;" /><rect x="325.192" y="2708.525" width="108.307" height="216.614" style="fill:#696969;" /><rect x="1083.34" y="2708.525" width="216.614" height="108.307" style="fill:#c8d3de;" /><rect x="1408.26" y="2708.525" width="108.307" height="216.614" style="fill:#c8d3de;" /><rect x="1624.874" y="2708.525" width="324.92" height="108.307" style="fill:#949ea6;" /><rect x="2058.101" y="2708.525" width="108.307" height="541.534" style="fill:#d7e2ee;" /><rect x="2599.635" y="2708.525" width="433.227" height="108.307" style="fill:#d7e2ee;" /><rect x="3032.862" y="2708.525" width="108.307" height="216.614" style="fill:#232323;" /><rect x="433.499" y="2816.832" width="108.307" height="216.614" style="fill:#696969;" /><rect x="866.726" y="2816.832" width="324.92" height="108.307" style="fill:#c8d3de;" /><rect x="1191.647" y="2816.832" width="216.614" height="433.227" style="fill:#d0dce8;" /><rect x="1516.567" y="2816.832" width="108.307" height="433.227" style="fill:#c8d3de;" /><rect x="1624.874" y="2816.832" width="433.227" height="433.227" style="fill:#d7e2ee;" /><rect x="2599.635" y="2816.832" width="324.92" height="108.307" style="fill:#d7e2ee;" /><rect x="2924.555" y="2816.832" width="108.307" height="216.614" style="fill:#232323;" /><rect x="541.806" y="2925.139" width="108.307" height="216.614" style="fill:#696969;" /><rect x="758.419" y="2925.139" width="216.614" height="108.307" style="fill:#c8d3de;" /><rect x="975.033" y="2925.139" width="216.614" height="324.92" style="fill:#d0dce8;" /><rect x="1408.26" y="2925.139" width="108.307" height="324.92" style="fill:#d0dce8;" /><rect x="2599.635" y="2925.139" width="216.614" height="108.307" style="fill:#d7e2ee;" /><rect x="2816.248" y="2925.139" width="108.307" height="216.614" style="fill:#232323;" /><rect x="650.113" y="3033.446" width="108.307" height="216.614" style="fill:#696969;" /><rect x="758.419" y="3033.446" width="108.307" height="108.307" style="fill:#c8d3de;" /><rect x="866.726" y="3033.446" width="108.307" height="108.307" style="fill:#d0dce8;" /><rect x="2599.635" y="3033.446" width="108.307" height="108.307" style="fill:#d7e2ee;" /><rect x="2707.941" y="3033.446" width="108.307" height="216.614" style="fill:#232323;" /><rect x="758.419" y="3141.752" width="216.614" height="108.307" style="fill:#696969;" /><rect x="2166.408" y="3141.752" width="324.92" height="108.307" style="fill:#d7e2ee;" /><rect x="2491.328" y="3141.752" width="216.614" height="108.307" style="fill:#232323;" /><rect x="866.726" y="3250.059" width="1732.908" height="108.307" style="fill:#232323;" /></svg>