<?xml version='1.0' encoding='utf-8'?>
<svg xmlns="http://www.w3.org/2000/svg" viewBox="0 0 3358.138 3357.673" width="512" height="512" version="1.1" xml:space="preserve" style="fill-rule:evenodd;clip-rule:evenodd;stroke-linejoin:round;stroke-miterlimit:2;"><rect x="867.082" y="108.47" width="1732.908" height="108.307" style="fill:#515151;" /><rect x="650.468" y="216.776" width="324.92" height="108.307" style="fill:#515151;" /><rect x="975.388" y="216.776" width="1841.215" height="649.841" style="fill:#151515;" /><rect x="433.854" y="325.083" width="324.92" height="108.307" style="fill:#515151;" /><rect x="758.775" y="325.083" width="216.614" height="324.92" style="fill:#151515;" /><rect x="2816.604" y="325.083" width="108.307" height="1299.681" style="fill:#151515;" /><rect x="325.548" y="433.39" width="216.614" height="108.307" style="fill:#515151;" /><rect x="542.161" y="433.39" width="216.614" height="216.614" style="fill:#151515;" /><rect x="2924.91" y="433.39" width="108.307" height="2382.749" style="fill:#151515;" /><rect x="217.241" y="541.697" width="216.614" height="108.307" style="fill:#515151;" /><rect x="433.854" y="541.697" width="108.307" height="2491.056" style="fill:#151515;" /><rect x="3033.217" y="541.697" width="108.307" height="2166.136" style="fill:#151515;" /><rect x="217.241" y="650.003" width="108.307" height="216.614" style="fill:#515151;" /><rect x="325.548" y="650.003" width="108.307" height="2274.442" style="fill:#151515;" /><rect x="542.161" y="650.003" width="108.307" height="2491.056" style="fill:#151515;" /><rect x="650.468" y="650.003" width="216.614" height="108.307" style="fill:#fff;" /><rect x="867.082" y="650.003" width="108.307" height="108.307" style="fill:#151515;" /><rect x="3141.524" y="650.003" width="108.307" height="1841.215" style="fill:#151515;" /><rect x="108.934" y="758.31" width="108.307" height="1841.215" style="fill:#515151;" /><rect x="650.468" y="758.31" width="108.307" height="108.307" style="fill:#e4e4e4;" /><rect x="758.775" y="758.31" width="108.307" height="108.307" style="fill:#fbfbfb;" /><rect x="867.082" y="758.31" width="108.307" height="108.307" style="fill:#fff;" /><rect x="217.241" y="866.617" width="108.307" height="1949.522" style="fill:#151515;" /><rect x="650.468" y="866.617" width="108.307" height="2382.749" style="fill:#151515;" /><rect x="758.775" y="866.617" width="108.307" height="108.307" style="fill:#e4e4e4;" /><rect x="867.082" y="866.617" width="108.307" height="108.307" style="fill:#fbfbfb;" /><rect x="975.388" y="866.617" width="108.307" height="108.307" style="fill:#fff;" /><rect x="1083.695" y="866.617" width="1732.908" height="108.307" style="fill:#151515;" /><rect x="3249.831" y="866.617" width="108.307" height="1732.908" /><rect x="758.775" y="974.924" width="108.307" height="2274.442" style="fill:#151515;" /><rect x="867.082" y="974.924" width="108.307" height="108.307" style="fill:#e4e4e4;" /><rect x="975.388" y="974.924" width="108.307" height="108.307" style="fill:#fbfbfb;" /><rect x="1083.695" y="974.924" width="108.307" height="108.307" style="fill:#fff;" /><rect x="1192.002" y="974.924" width="1624.602" height="108.307" style="fill:#151515;" /><rect x="867.082" y="1083.231" width="108.307" height="2166.136" style="fill:#151515;" /><rect x="975.388" y="1083.231" width="108.307" height="108.307" style="fill:#e4e4e4;" /><rect x="1083.695" y="1083.231" width="108.307" height="108.307" style="fill:#fbfbfb;" /><rect x="1192.002" y="1083.231" width="108.307" height="108.307" style="fill:#fff;" /><rect x="1300.309" y="1083.231" width="1516.295" height="108.307" style="fill:#151515;" /><rect x="975.388" y="1191.537" width="108.307" height="1299.681" style="fill:#151515;" /><rect x="1083.695" y="1191.537" width="108.307" height="108.307" style="fill:#e4e4e4;" /><rect x="1192.002" y="1191.537" width="108.307" height="108.307" style="fill:#fbfbfb;" /><rect x="1300.309" y="1191.537" width="108.307" height="108.307" style="fill:#fff;" /><rect x="1408.615" y="1191.537" width="1407.988" height="108.307" style="fill:#151515;" /><rect x="1083.695" y="1299.844" width="108.307" height="1083.068" style="fill:#151515;" /><rect x="1192.002" y="1299.844" width="108.307" height="108.307" style="fill:#e4e4e4;" /><rect x="1300.309" y="1299.844" width="108.307" height="108.307" style="fill:#fbfbfb;" /><rect x="1408.615" y="1299.844" width="108.307" height="108.307" style="fill:#fff;" /><rect x="1516.922" y="1299.844" width="1299.681" height="108.307" style="fill:#151515;" /><rect x="1192.002" y="1408.151" width="108.307" height="866.454" style="fill:#151515;" /><rect x="1300.309" y="1408.151" width="108.307" height="108.307" style="fill:#e4e4e4;" /><rect x="1408.615" y="1408.151" width="108.307" height="108.307" style="fill:#fbfbfb;" /><rect x="1516.922" y="1408.151" width="108.307" height="108.307" style="fill:#fff;" /><rect x="1625.229" y="1408.151" width="1191.375" height="108.307" style="fill:#151515;" /><rect x="1300.309" y="1516.458" width="108.307" height="649.841" style="fill:#151515;" /><rect x="1408.615" y="1516.458" width="108.307" height="108.307" style="fill:#e4e4e4;" /><rect x="1516.922" y="1516.458" width="108.307" height="108.307" style="fill:#d8d8d8;" /><rect x="1625.229" y="1516.458" width="108.307" height="108.307" style="fill:#fff;" /><rect x="1733.536" y="1516.458" width="1083.068" height="108.307" style="fill:#151515;" /><rect x="1408.615" y="1624.765" width="108.307" height="433.227" style="fill:#151515;" /><rect x="1516.922" y="1624.765" width="108.307" height="108.307" style="fill:#e4e4e4;" /><rect x="1625.229" y="1624.765" width="108.307" height="108.307" style="fill:#d8d8d8;" /><rect x="1733.536" y="1624.765" width="108.307" height="108.307" style="fill:#fff;" /><rect x="1841.843" y="1624.765" width="1083.068" height="108.307" style="fill:#f00;" /><rect x="1516.922" y="1733.071" width="108.307" height="216.614" style="fill:#151515;" /><rect x="1625.229" y="1733.071" width="108.307" height="108.307" style="fill:#e4e4e4;" /><rect x="1733.536" y="1733.071" width="108.307" height="216.614" style="fill:#444;" /><rect x="1841.843" y="1733.071" width="1083.068" height="108.307" style="fill:#530808;" /><rect x="1625.229" y="1841.378" width="108.307" height="216.614" style="fill:#444;" /><rect x="1841.843" y="1841.378" width="1083.068" height="1083.068" style="fill:#151515;" /><rect x="1516.922" y="1949.685" width="108.307" height="216.614" style="fill:#444;" /><rect x="1733.536" y="1949.685" width="108.307" height="1299.681" style="fill:#151515;" /><rect x="1408.615" y="2057.992" width="108.307" height="216.614" style="fill:#444;" /><rect x="1625.229" y="2057.992" width="108.307" height="1191.375" style="fill:#151515;" /><rect x="1300.309" y="2166.298" width="108.307" height="216.614" style="fill:#444;" /><rect x="1516.922" y="2166.298" width="108.307" height="1083.068" style="fill:#151515;" /><rect x="1192.002" y="2274.605" width="108.307" height="216.614" style="fill:#444;" /><rect x="1408.615" y="2274.605" width="108.307" height="974.761" style="fill:#151515;" /><rect x="1083.695" y="2382.912" width="108.307" height="216.614" style="fill:#444;" /><rect x="1300.309" y="2382.912" width="108.307" height="866.454" style="fill:#151515;" /><rect x="975.388" y="2491.219" width="108.307" height="216.614" style="fill:#444;" /><rect x="1192.002" y="2491.219" width="108.307" height="758.147" style="fill:#151515;" /><rect x="3141.524" y="2491.219" width="108.307" height="324.92" /><rect x="1083.695" y="2599.526" width="108.307" height="649.841" style="fill:#151515;" /><rect x="975.388" y="2707.832" width="108.307" height="541.534" style="fill:#151515;" /><rect x="3033.217" y="2707.832" width="108.307" height="216.614" /><rect x="2924.91" y="2816.139" width="108.307" height="216.614" /><rect x="1841.843" y="2924.446" width="974.761" height="108.307" style="fill:#151515;" /><rect x="2816.604" y="2924.446" width="108.307" height="216.614" /><rect x="1841.843" y="3032.753" width="866.454" height="108.307" style="fill:#151515;" /><rect x="2708.297" y="3032.753" width="108.307" height="216.614" /><rect x="1841.843" y="3141.059" width="649.841" height="108.307" style="fill:#151515;" /><rect x="2491.683" y="3141.059" width="216.614" height="108.307" /><rect x="867.082" y="3249.366" width="1732.908" height="108.307" /></svg>