<svg width="512" height="512" viewBox="0 0 512 512" fill="none" xmlns="http://www.w3.org/2000/svg">
<g clip-path="url(#clip0_36_15702)">
<path fill-rule="evenodd" clip-rule="evenodd" d="M289.125 16.6006H123.84V33.1063H90.8284V49.6119H74.3227V66.1176H57.817V82.6234H41.3114V99.1291H24.8057V115.635V115.863V132.369H41.54V115.863H58.0457V99.3577H74.5515V82.852H91.057V66.3462H107.563V49.8406H140.574V33.3349H289.125V16.6006Z" fill="#DCB7FF"/>
<path fill-rule="evenodd" clip-rule="evenodd" d="M371.654 16.6006H288.897V33.3349H371.654V16.6006ZM503.7 247.68H486.966V313.932H503.7V247.68ZM239.609 495.266H123.84V512H239.609V495.266Z" fill="#B88EFF"/>
<path fill-rule="evenodd" clip-rule="evenodd" d="M41.5404 132.14H8.30029V148.646V148.875V214.898H25.0346V148.875H41.5404V132.14Z" fill="#B88EFF"/>
<path fill-rule="evenodd" clip-rule="evenodd" d="M371.425 16.6006H388.16V33.1063H421.171V49.6119H437.677V66.1176H454.183V82.6234H470.688V99.1291H487.194V115.635V115.863V148.875H470.46V115.863H453.954V99.3577H437.448V82.852H420.942V66.3462H404.437V49.8406H388.16H387.931H371.425V16.6006Z" fill="#A95CF5"/>
<path fill-rule="evenodd" clip-rule="evenodd" d="M140.345 495.494V478.988L107.334 478.989V462.483H90.8284V445.977H74.3227V429.472H57.817V412.966H41.3114V379.954H24.8057V148.646H41.3114V115.635H57.817V99.129H74.3227V82.6232H90.8284V66.1175H107.334V49.6118H140.345V33.1062H371.654V49.6118H404.665V66.1175H421.171V82.6232H437.677V99.129H454.182V115.635H470.688V148.646H487.194V379.954H470.688V412.966H454.182V429.472H437.677V445.977H421.171V462.483H404.665V478.989L371.654 478.988V495.494L140.345 495.494Z" fill="#361351"/>
<path fill-rule="evenodd" clip-rule="evenodd" d="M305.631 49.6118H288.897V66.1176L289.125 66.3461H305.402V82.8519H338.414V99.3576H387.931V115.863H404.437V132.369H420.942V165.38H437.677V132.14H421.171V115.635H404.665V99.129H388.16V82.6233H338.642V66.1176H305.631V49.6118ZM189.863 99.129H156.851V115.635H123.84V132.14H107.334V148.646H90.8284V181.658H74.3226V214.669H57.8169V313.932H74.5512V214.898H91.057V181.886H107.563V148.875H124.068V132.369H157.08V115.863H190.091V99.3576L189.863 99.129Z" fill="#7D562E"/>
<path fill-rule="evenodd" clip-rule="evenodd" d="M289.125 66.3461L288.897 66.1176H272.391V82.6233H189.863V99.129L190.091 99.3576H289.125V66.3461Z" fill="#7D562E"/>
<path fill-rule="evenodd" clip-rule="evenodd" d="M355.148 429.472H371.654V412.966H388.16V396.232H371.425V412.737H354.919V429.243L355.148 429.472Z" fill="#4D2E10"/>
<path fill-rule="evenodd" clip-rule="evenodd" d="M288.897 66.1177H305.631V82.6234H338.642V99.1291H388.16V115.635H404.665V132.14H421.171V181.886L387.931 181.886V148.875H239.608V165.381H206.597V181.886H190.091V214.669H206.597V231.175H223.103V247.68H239.608V280.92L206.368 280.92V264.415H189.863V247.909H156.851V231.403H140.574V247.909H124.068V346.715H140.574V379.726H157.08V396.232H173.585V412.737H206.597V429.243H239.608V445.749H305.402V429.243H354.919L355.148 429.472V445.977H322.137V462.483H222.874V445.977H189.863V429.472H156.851V412.966L123.84 412.966V396.46H107.334V363.449H90.8284V330.437L57.8169 330.438V313.703H74.3226V214.669H90.8284V181.658H107.334V148.646H123.84V132.14H156.851V115.635H189.863V99.1291H288.897V66.1177Z" fill="#4D2E10"/>
<path fill-rule="evenodd" clip-rule="evenodd" d="M486.966 132.14H503.7V247.909H486.966V132.14Z" fill="#9835F5"/>
<path fill-rule="evenodd" clip-rule="evenodd" d="M8.30029 214.669H25.0346V379.726H41.5404V412.737H58.0461V429.243H74.5517V445.749H91.0574V462.254H107.563V478.76H140.575V495.494H90.8288V478.989H74.3231V462.483H57.8173V445.977H41.3118V429.472H24.806V396.46H8.30029V214.669Z" fill="#9835F5"/>
<path fill-rule="evenodd" clip-rule="evenodd" d="M157.08 247.68H156.852V247.909H157.08V247.68Z" fill="white"/>
<path fill-rule="evenodd" clip-rule="evenodd" d="M321.909 214.897V198.392L239.609 198.392H223.103V214.897L206.597 214.898H189.863V181.658H206.369V165.152H239.38V148.646H371.654V181.658H437.677V198.392H404.666V214.669H437.677V231.403H371.426V214.897H321.909Z" fill="white"/>
<path fill-rule="evenodd" clip-rule="evenodd" d="M156.852 264.186H173.586V346.943H156.852V264.186Z" fill="#9A33E7"/>
<path fill-rule="evenodd" clip-rule="evenodd" d="M322.137 198.163H222.874V214.669H206.369V231.403H223.103V214.897H321.909V231.403H338.414H338.643H371.426V247.909H404.666V231.175H371.654V214.669H338.643H338.414H322.137V198.163Z" fill="#9A33E7"/>
<path fill-rule="evenodd" clip-rule="evenodd" d="M420.942 198.163H437.677V214.897H420.942V198.163Z" fill="#151515"/>
<path fill-rule="evenodd" clip-rule="evenodd" d="M322.137 412.966L354.92 412.966H355.148L371.654 412.966V396.46H388.16V379.954H404.665V346.943H421.171V247.68H404.665H404.437H371.654V231.175H322.137V214.669H222.874V247.909H239.38V297.197H206.597V280.692H190.091V264.186H173.357V379.954H189.863V396.46H206.368V412.966H239.38V429.472H305.631V412.966H321.908H322.137Z" fill="#B75BFD"/>
<path fill-rule="evenodd" clip-rule="evenodd" d="M173.357 247.68H190.091V264.415H173.357V247.68ZM189.863 264.186H206.597V280.92H189.863V264.186ZM206.368 280.692H239.608V297.426H206.368V280.692Z" fill="#8750B3"/>
<path fill-rule="evenodd" clip-rule="evenodd" d="M486.965 313.703H503.7V396.46H487.194V429.472H470.688V445.977H454.183V462.483H437.677V478.989H421.171V495.494H404.665H404.437H388.16V512H239.38V495.266H371.425V478.76H404.437V462.254H420.943V445.749H437.448V429.243H453.954V412.737H470.46V379.726H486.965V313.703Z" fill="#59348C"/>
<path fill-rule="evenodd" clip-rule="evenodd" d="M74.3228 330.209H91.0571V363.449H74.3228V330.209ZM90.8285 363.22H107.563V396.46H90.8285V363.22ZM387.931 379.726H404.665V412.966H387.931V379.726ZM107.334 396.232H124.069V412.966H107.334V396.232ZM123.84 412.737H157.08V429.472H123.84V412.737ZM371.425 412.737H388.16V429.472H371.425V412.737ZM156.851 429.243H190.091V445.977H156.851V429.243ZM354.92 429.243H371.654V445.977H354.92V429.243ZM189.863 445.749H223.103V462.483H189.863V445.749ZM321.908 445.749H355.148V462.483H321.908V445.749ZM222.874 462.254H322.137V478.989H222.874V462.254Z" fill="#391C01"/>
<path fill-rule="evenodd" clip-rule="evenodd" d="M157.08 247.68H156.851V247.909H157.08V247.68ZM239.608 429.243H305.403V412.737H355.148V429.472H305.631V445.977H239.38V429.472H206.368V412.966H173.357V396.46H156.851V379.954H140.346V346.943H123.84V247.68H140.346V231.175H157.08V247.68H173.586V264.415H157.08V346.714H173.586V379.726H190.091V396.232H206.597V412.737H239.608V429.243Z" fill="white"/>
</g>
<defs>
<clipPath id="clip0_36_15702">
<rect width="512" height="512" fill="white"/>
</clipPath>
</defs>
</svg>
