<?xml version="1.0" encoding="UTF-8" ?>
<svg viewBox="0 0 32 32" version="1.1" width="512" height="512" xmlns="http://www.w3.org/2000/svg" shape-rendering="crispEdges">
<rect x="7" y="1" width="18" height="1" fill="#57A1DC" />
<rect x="5" y="2" width="3" height="1" fill="#57A1DC" />
<rect x="8" y="2" width="16" height="2" fill="#0071CA" />
<rect x="24" y="2" width="3" height="1" fill="#57A1DC" />
<rect x="4" y="3" width="2" height="1" fill="#57A1DC" />
<rect x="6" y="3" width="2" height="2" fill="#0071CA" />
<rect x="24" y="3" width="2" height="2" fill="#0071CA" />
<rect x="26" y="3" width="2" height="1" fill="#57A1DC" />
<rect x="3" y="4" width="2" height="1" fill="#57A1DC" />
<rect x="5" y="4" width="1" height="3" fill="#0071CA" />
<rect x="8" y="4" width="2" height="1" fill="#0071CA" />
<rect x="10" y="4" width="13" height="1" fill="#FFFFFF" />
<rect x="23" y="4" width="1" height="1" fill="#0071CA" />
<rect x="26" y="4" width="1" height="3" fill="#0071CA" />
<rect x="27" y="4" width="2" height="1" fill="#57A1DC" />
<rect x="2" y="5" width="2" height="1" fill="#57A1DC" />
<rect x="4" y="5" width="1" height="3" fill="#0071CA" />
<rect x="6" y="5" width="1" height="1" fill="#0071CA" />
<rect x="7" y="5" width="4" height="1" fill="#FFFFFF" />
<rect x="11" y="5" width="11" height="8" fill="#E5F6FD" />
<rect x="22" y="5" width="3" height="1" fill="#FFFFFF" />
<rect x="25" y="5" width="1" height="1" fill="#0071CA" />
<rect x="27" y="5" width="1" height="3" fill="#0071CA" />
<rect x="28" y="5" width="2" height="1" fill="#57A1DC" />
<rect x="2" y="6" width="1" height="2" fill="#57A1DC" />
<rect x="3" y="6" width="1" height="20" fill="#0071CA" />
<rect x="6" y="6" width="2" height="1" fill="#FFFFFF" />
<rect x="8" y="6" width="3" height="4" fill="#E5F6FD" />
<rect x="22" y="6" width="2" height="5" fill="#E5F6FD" />
<rect x="24" y="6" width="2" height="1" fill="#FFFFFF" />
<rect x="28" y="6" width="1" height="20" fill="#0071CA" />
<rect x="29" y="6" width="1" height="2" fill="#57A1DC" />
<rect x="1" y="7" width="1" height="18" fill="#57A1DC" />
<rect x="5" y="7" width="2" height="2" fill="#FFFFFF" />
<rect x="7" y="7" width="1" height="2" fill="#E5F6FD" />
<rect x="24" y="7" width="1" height="3" fill="#E5F6FD" />
<rect x="25" y="7" width="2" height="1" fill="#FFFFFF" />
<rect x="30" y="7" width="1" height="18" fill="#57A1DC" />
<rect x="2" y="8" width="1" height="16" fill="#0071CA" />
<rect x="4" y="8" width="1" height="14" fill="#D3ECFF" />
<rect x="25" y="8" width="1" height="1" fill="#E5F6FD" />
<rect x="26" y="8" width="2" height="1" fill="#FFFFFF" />
<rect x="29" y="8" width="1" height="16" fill="#0071CA" />
<rect x="5" y="9" width="1" height="2" fill="#81B2DF" />
<rect x="6" y="9" width="2" height="1" fill="#FFFFFF" />
<rect x="25" y="9" width="2" height="1" fill="#FFFFFF" />
<rect x="27" y="9" width="1" height="13" fill="#D3ECFF" />
<rect x="6" y="10" width="1" height="2" fill="#81B2DF" />
<rect x="7" y="10" width="2" height="1" fill="#FFFFFF" />
<rect x="9" y="10" width="2" height="1" fill="#E5F6FD" />
<rect x="24" y="10" width="2" height="1" fill="#FFFFFF" />
<rect x="26" y="10" width="1" height="2" fill="#81B2DF" />
<rect x="5" y="11" width="1" height="10" fill="#BADFFC" />
<rect x="7" y="11" width="1" height="2" fill="#81B2DF" />
<rect x="8" y="11" width="2" height="1" fill="#FFFFFF" />
<rect x="10" y="11" width="1" height="1" fill="#E5F6FD" />
<rect x="22" y="11" width="1" height="1" fill="#E5F6FD" />
<rect x="23" y="11" width="2" height="1" fill="#FFFFFF" />
<rect x="25" y="11" width="1" height="2" fill="#81B2DF" />
<rect x="6" y="12" width="1" height="10" fill="#BADFFC" />
<rect x="8" y="12" width="1" height="2" fill="#81B2DF" />
<rect x="9" y="12" width="2" height="1" fill="#FFFFFF" />
<rect x="22" y="12" width="2" height="1" fill="#FFFFFF" />
<rect x="24" y="12" width="1" height="2" fill="#81B2DF" />
<rect x="26" y="12" width="1" height="9" fill="#BADFFC" />
<rect x="7" y="13" width="1" height="10" fill="#BADFFC" />
<rect x="9" y="13" width="1" height="2" fill="#81B2DF" />
<rect x="10" y="13" width="2" height="1" fill="#FFFFFF" />
<rect x="12" y="13" width="9" height="1" fill="#E5F6FD" />
<rect x="21" y="13" width="2" height="1" fill="#FFFFFF" />
<rect x="23" y="13" width="1" height="2" fill="#81B2DF" />
<rect x="25" y="13" width="1" height="9" fill="#BADFFC" />
<rect x="8" y="14" width="1" height="10" fill="#BADFFC" />
<rect x="10" y="14" width="1" height="2" fill="#81B2DF" />
<rect x="11" y="14" width="2" height="1" fill="#FFFFFF" />
<rect x="13" y="14" width="7" height="1" fill="#E5F6FD" />
<rect x="20" y="14" width="2" height="1" fill="#FFFFFF" />
<rect x="22" y="14" width="1" height="2" fill="#81B2DF" />
<rect x="24" y="14" width="1" height="9" fill="#BADFFC" />
<rect x="9" y="15" width="1" height="9" fill="#BADFFC" />
<rect x="11" y="15" width="1" height="2" fill="#81B2DF" />
<rect x="12" y="15" width="2" height="1" fill="#FFFFFF" />
<rect x="14" y="15" width="5" height="1" fill="#E5F6FD" />
<rect x="19" y="15" width="2" height="1" fill="#FFFFFF" />
<rect x="21" y="15" width="1" height="2" fill="#81B2DF" />
<rect x="23" y="15" width="1" height="9" fill="#BADFFC" />
<rect x="10" y="16" width="1" height="8" fill="#BADFFC" />
<rect x="12" y="16" width="1" height="2" fill="#81B2DF" />
<rect x="13" y="16" width="2" height="1" fill="#FFFFFF" />
<rect x="15" y="16" width="3" height="1" fill="#E5F6FD" />
<rect x="18" y="16" width="2" height="1" fill="#FFFFFF" />
<rect x="20" y="16" width="1" height="2" fill="#81B2DF" />
<rect x="22" y="16" width="1" height="8" fill="#BADFFC" />
<rect x="11" y="17" width="1" height="8" fill="#BADFFC" />
<rect x="13" y="17" width="1" height="1" fill="#81B2DF" />
<rect x="14" y="17" width="5" height="1" fill="#FFFFFF" />
<rect x="19" y="17" width="1" height="1" fill="#81B2DF" />
<rect x="21" y="17" width="1" height="8" fill="#BADFFC" />
<rect x="12" y="18" width="1" height="7" fill="#BADFFC" />
<rect x="13" y="18" width="1" height="1" fill="#9BC8F4" />
<rect x="14" y="18" width="5" height="2" fill="#81B2DF" />
<rect x="19" y="18" width="1" height="1" fill="#9BC8F4" />
<rect x="20" y="18" width="1" height="7" fill="#BADFFC" />
<rect x="13" y="19" width="1" height="6" fill="#BADFFC" />
<rect x="19" y="19" width="1" height="6" fill="#BADFFC" />
<rect x="14" y="20" width="5" height="5" fill="#BADFFC" />
<rect x="5" y="21" width="1" height="2" fill="#D3ECFF" />
<rect x="26" y="21" width="1" height="2" fill="#D3ECFF" />
<rect x="4" y="22" width="1" height="2" fill="#045B9F" />
<rect x="6" y="22" width="1" height="2" fill="#D3ECFF" />
<rect x="25" y="22" width="1" height="2" fill="#D3ECFF" />
<rect x="27" y="22" width="1" height="2" fill="#045B9F" />
<rect x="5" y="23" width="1" height="2" fill="#045B9F" />
<rect x="7" y="23" width="1" height="2" fill="#D3ECFF" />
<rect x="24" y="23" width="1" height="2" fill="#D3ECFF" />
<rect x="26" y="23" width="1" height="2" fill="#045B9F" />
<rect x="2" y="24" width="1" height="3" fill="#57A1DC" />
<rect x="4" y="24" width="1" height="3" fill="#0071CA" />
<rect x="6" y="24" width="1" height="2" fill="#045B9F" />
<rect x="8" y="24" width="3" height="1" fill="#D3ECFF" />
<rect x="22" y="24" width="2" height="1" fill="#D3ECFF" />
<rect x="25" y="24" width="1" height="2" fill="#045B9F" />
<rect x="27" y="24" width="1" height="3" fill="#0071CA" />
<rect x="29" y="24" width="1" height="3" fill="#57A1DC" />
<rect x="5" y="25" width="1" height="3" fill="#0071CA" />
<rect x="7" y="25" width="3" height="1" fill="#045B9F" />
<rect x="10" y="25" width="13" height="1" fill="#D3ECFF" />
<rect x="23" y="25" width="2" height="1" fill="#045B9F" />
<rect x="26" y="25" width="1" height="3" fill="#0071CA" />
<rect x="3" y="26" width="1" height="2" fill="#57A1DC" />
<rect x="6" y="26" width="3" height="3" fill="#0071CA" />
<rect x="9" y="26" width="15" height="1" fill="#045B9F" />
<rect x="24" y="26" width="2" height="3" fill="#0071CA" />
<rect x="28" y="26" width="1" height="2" fill="#57A1DC" />
<rect x="4" y="27" width="1" height="2" fill="#57A1DC" />
<rect x="9" y="27" width="15" height="3" fill="#0071CA" />
<rect x="27" y="27" width="1" height="2" fill="#57A1DC" />
<rect x="5" y="28" width="1" height="2" fill="#57A1DC" />
<rect x="26" y="28" width="1" height="2" fill="#57A1DC" />
<rect x="6" y="29" width="2" height="1" fill="#57A1DC" />
<rect x="8" y="29" width="1" height="1" fill="#0071CA" />
<rect x="24" y="29" width="2" height="1" fill="#57A1DC" />
<rect x="7" y="30" width="18" height="1" fill="#57A1DC" />
</svg>