<?xml version="1.0" encoding="UTF-8" ?>
<svg viewBox="0 0 32 32" version="1.1" width="512" height="512" xmlns="http://www.w3.org/2000/svg" shape-rendering="crispEdges">
<rect x="7" y="1" width="18" height="1" fill="#7A1711" />
<rect x="5" y="2" width="3" height="1" fill="#7A1711" />
<rect x="8" y="2" width="19" height="3" fill="#420C09" />
<rect x="4" y="3" width="2" height="1" fill="#7A1711" />
<rect x="6" y="3" width="2" height="3" fill="#420C09" />
<rect x="27" y="3" width="1" height="11" fill="#420C09" />
<rect x="3" y="4" width="2" height="1" fill="#7A1711" />
<rect x="5" y="4" width="1" height="26" fill="#420C09" />
<rect x="28" y="4" width="1" height="12" fill="#420C09" />
<rect x="2" y="5" width="2" height="1" fill="#7A1711" />
<rect x="4" y="5" width="1" height="24" fill="#420C09" />
<rect x="8" y="5" width="12" height="5" fill="#F3ACA8" />
<rect x="20" y="5" width="1" height="1" fill="#1E0504" />
<rect x="21" y="5" width="6" height="1" fill="#420C09" />
<rect x="29" y="5" width="1" height="11" fill="#420C09" />
<rect x="2" y="6" width="1" height="2" fill="#7A1711" />
<rect x="3" y="6" width="1" height="22" fill="#420C09" />
<rect x="6" y="6" width="1" height="24" fill="#420C09" />
<rect x="7" y="6" width="1" height="4" fill="#F3ACA8" />
<rect x="20" y="6" width="1" height="4" fill="#F3ACA8" />
<rect x="21" y="6" width="1" height="3" fill="#1E0504" />
<rect x="22" y="6" width="5" height="3" fill="#420C09" />
<rect x="1" y="7" width="1" height="18" fill="#7A1711" />
<rect x="30" y="7" width="1" height="18" fill="#1B0404" />
<rect x="2" y="8" width="1" height="19" fill="#420C09" />
<rect x="21" y="9" width="1" height="1" fill="#F3ACA8" />
<rect x="22" y="9" width="1" height="7" fill="#1E0504" />
<rect x="23" y="9" width="4" height="5" fill="#420C09" />
<rect x="7" y="10" width="5" height="5" fill="#E33F37" />
<rect x="12" y="10" width="1" height="5" fill="#1E0504" />
<rect x="13" y="10" width="5" height="5" fill="#420C09" />
<rect x="18" y="10" width="4" height="5" fill="#E33F37" />
<rect x="23" y="14" width="2" height="2" fill="#420C09" />
<rect x="25" y="14" width="2" height="6" fill="#DF2A21" />
<rect x="27" y="14" width="1" height="2" fill="#1E0504" />
<rect x="7" y="15" width="15" height="1" fill="#BF231B" />
<rect x="7" y="16" width="13" height="2" fill="#BF231B" />
<rect x="20" y="16" width="1" height="3" fill="#1E0504" />
<rect x="21" y="16" width="2" height="3" fill="#420C09" />
<rect x="23" y="16" width="2" height="2" fill="#DF2A21" />
<rect x="27" y="16" width="2" height="2" fill="#DF2A21" />
<rect x="29" y="16" width="1" height="2" fill="#1E0504" />
<rect x="7" y="18" width="5" height="1" fill="#BF231B" />
<rect x="12" y="18" width="1" height="5" fill="#1E0504" />
<rect x="13" y="18" width="5" height="5" fill="#420C09" />
<rect x="18" y="18" width="2" height="1" fill="#BF231B" />
<rect x="23" y="18" width="2" height="11" fill="#420C09" />
<rect x="27" y="18" width="1" height="2" fill="#1E0504" />
<rect x="28" y="18" width="2" height="6" fill="#420C09" />
<rect x="7" y="19" width="5" height="7" fill="#861813" />
<rect x="18" y="19" width="4" height="7" fill="#861813" />
<rect x="22" y="19" width="1" height="7" fill="#1E0504" />
<rect x="25" y="20" width="3" height="7" fill="#420C09" />
<rect x="12" y="23" width="6" height="4" fill="#861813" />
<rect x="28" y="24" width="1" height="2" fill="#420C09" />
<rect x="29" y="24" width="1" height="3" fill="#1B0404" />
<rect x="7" y="26" width="1" height="4" fill="#420C09" />
<rect x="8" y="26" width="4" height="1" fill="#861813" />
<rect x="18" y="26" width="3" height="1" fill="#861813" />
<rect x="21" y="26" width="1" height="1" fill="#1E0504" />
<rect x="22" y="26" width="1" height="4" fill="#420C09" />
<rect x="28" y="26" width="1" height="2" fill="#1B0404" />
<rect x="8" y="27" width="14" height="3" fill="#420C09" />
<rect x="25" y="27" width="2" height="1" fill="#420C09" />
<rect x="27" y="27" width="1" height="2" fill="#1B0404" />
<rect x="25" y="28" width="1" height="1" fill="#420C09" />
<rect x="26" y="28" width="1" height="2" fill="#1B0404" />
<rect x="23" y="29" width="1" height="1" fill="#420C09" />
<rect x="24" y="29" width="2" height="1" fill="#1B0404" />
<rect x="7" y="30" width="18" height="1" fill="#1B0404" />
</svg>