<?xml version='1.0' encoding='utf-8'?>
<svg xmlns="http://www.w3.org/2000/svg" viewBox="0 0 3357.8379999999997 3357.5939999999996" width="512" height="512" version="1.1" xml:space="preserve" style="fill-rule:evenodd;clip-rule:evenodd;stroke-linejoin:round;stroke-miterlimit:2;"><rect x="866.781" y="108.391" width="1732.908" height="108.307" style="fill:#ff3205;" /><rect x="650.168" y="216.697" width="324.92" height="108.307" style="fill:#ff3205;" /><rect x="975.088" y="216.697" width="1841.215" height="433.227" style="fill:#ff6646;" /><rect x="433.554" y="325.004" width="324.92" height="108.307" style="fill:#ff3205;" /><rect x="758.475" y="325.004" width="216.614" height="541.534" style="fill:#ff6646;" /><rect x="2816.304" y="325.004" width="216.614" height="2491.056" style="fill:#ff6646;" /><rect x="325.248" y="433.311" width="216.614" height="108.307" style="fill:#ff3205;" /><rect x="541.861" y="433.311" width="216.614" height="758.147" style="fill:#ff6646;" /><rect x="3032.917" y="433.311" width="108.307" height="2274.442" style="fill:#ff6646;" /><rect x="216.941" y="541.618" width="216.614" height="108.307" style="fill:#ff3205;" /><rect x="433.554" y="541.618" width="108.307" height="2599.363" style="fill:#ff6646;" /><rect x="3141.224" y="541.618" width="108.307" height="1949.522" style="fill:#ff6646;" /><rect x="216.941" y="649.925" width="108.307" height="216.614" style="fill:#ff3205;" /><rect x="325.248" y="649.925" width="108.307" height="2274.442" style="fill:#ff6646;" /><rect x="975.088" y="649.925" width="216.614" height="108.307" style="fill:#ff6646;" /><rect x="1191.702" y="649.925" width="1083.068" height="108.307" style="fill:#fff;" /><rect x="2274.77" y="649.925" width="541.534" height="108.307" style="fill:#ff6646;" /><rect x="108.634" y="758.231" width="108.307" height="1841.215" style="fill:#ff3205;" /><rect x="975.088" y="758.231" width="216.614" height="108.307" style="fill:#fff;" /><rect x="1191.702" y="758.231" width="1083.068" height="108.307" style="fill:#ff6646;" /><rect x="2274.77" y="758.231" width="216.614" height="108.307" style="fill:#fff;" /><rect x="2491.383" y="758.231" width="324.92" height="108.307" style="fill:#ff6646;" /><rect x="3249.531" y="758.231" width="108.307" height="1841.215" style="fill:#581c0f;" /><rect x="216.941" y="866.538" width="108.307" height="1949.522" style="fill:#ff6646;" /><rect x="758.475" y="866.538" width="108.307" height="108.307" style="fill:#ff6646;" /><rect x="866.781" y="866.538" width="216.614" height="108.307" style="fill:#fff;" /><rect x="1083.395" y="866.538" width="216.614" height="108.307" style="fill:#ff6646;" /><rect x="1300.009" y="866.538" width="866.454" height="108.307" style="fill:#fff;" /><rect x="2166.463" y="866.538" width="216.614" height="108.307" style="fill:#ff6646;" /><rect x="2383.076" y="866.538" width="216.614" height="108.307" style="fill:#fff;" /><rect x="2599.69" y="866.538" width="216.614" height="108.307" style="fill:#ff6646;" /><rect x="758.475" y="974.845" width="216.614" height="108.307" style="fill:#fff;" /><rect x="975.088" y="974.845" width="216.614" height="108.307" style="fill:#ff6646;" /><rect x="1191.702" y="974.845" width="108.307" height="108.307" style="fill:#fff;" /><rect x="1300.009" y="974.845" width="866.454" height="108.307" style="fill:#ff6646;" /><rect x="2166.463" y="974.845" width="108.307" height="108.307" style="fill:#fff;" /><rect x="2274.77" y="974.845" width="216.614" height="108.307" style="fill:#ff6646;" /><rect x="2491.383" y="974.845" width="216.614" height="108.307" style="fill:#fff;" /><rect x="2707.997" y="974.845" width="108.307" height="216.614" style="fill:#ff6646;" /><rect x="758.475" y="1083.152" width="108.307" height="108.307" style="fill:#fff;" /><rect x="866.781" y="1083.152" width="216.614" height="108.307" style="fill:#ff6646;" /><rect x="1083.395" y="1083.152" width="108.307" height="108.307" style="fill:#fff;" /><rect x="1191.702" y="1083.152" width="216.614" height="108.307" style="fill:#ff6646;" /><rect x="1408.315" y="1083.152" width="649.841" height="108.307" style="fill:#fff;" /><rect x="2058.156" y="1083.152" width="216.614" height="108.307" style="fill:#ff6646;" /><rect x="2274.77" y="1083.152" width="108.307" height="108.307" style="fill:#fff;" /><rect x="2383.076" y="1083.152" width="216.614" height="108.307" style="fill:#ff6646;" /><rect x="2599.69" y="1083.152" width="108.307" height="108.307" style="fill:#fff;" /><rect x="541.861" y="1191.458" width="108.307" height="1949.522" style="fill:#ff6646;" /><rect x="650.168" y="1191.458" width="108.307" height="1083.068" style="fill:#fff;" /><rect x="758.475" y="1191.458" width="216.614" height="108.307" style="fill:#ff6646;" /><rect x="975.088" y="1191.458" width="108.307" height="108.307" style="fill:#fff;" /><rect x="1083.395" y="1191.458" width="216.614" height="108.307" style="fill:#ff6646;" /><rect x="1300.009" y="1191.458" width="108.307" height="108.307" style="fill:#fff;" /><rect x="1408.315" y="1191.458" width="649.841" height="1083.068" style="fill:#ff6646;" /><rect x="2058.156" y="1191.458" width="108.307" height="108.307" style="fill:#fff;" /><rect x="2166.463" y="1191.458" width="216.614" height="108.307" style="fill:#ff6646;" /><rect x="2383.076" y="1191.458" width="108.307" height="108.307" style="fill:#fff;" /><rect x="2491.383" y="1191.458" width="216.614" height="108.307" style="fill:#ff6646;" /><rect x="2707.997" y="1191.458" width="108.307" height="1083.068" style="fill:#fff;" /><rect x="758.475" y="1299.765" width="108.307" height="974.761" style="fill:#ff6646;" /><rect x="866.781" y="1299.765" width="108.307" height="866.454" style="fill:#fff;" /><rect x="975.088" y="1299.765" width="216.614" height="108.307" style="fill:#ff6646;" /><rect x="1191.702" y="1299.765" width="108.307" height="108.307" style="fill:#fff;" /><rect x="1300.009" y="1299.765" width="108.307" height="866.454" style="fill:#ff6646;" /><rect x="2058.156" y="1299.765" width="108.307" height="866.454" style="fill:#ff6646;" /><rect x="2166.463" y="1299.765" width="108.307" height="108.307" style="fill:#fff;" /><rect x="2274.77" y="1299.765" width="216.614" height="108.307" style="fill:#ff6646;" /><rect x="2491.383" y="1299.765" width="108.307" height="866.454" style="fill:#fff;" /><rect x="2599.69" y="1299.765" width="108.307" height="974.761" style="fill:#ff6646;" /><rect x="975.088" y="1408.072" width="108.307" height="758.147" style="fill:#ff6646;" /><rect x="1083.395" y="1408.072" width="108.307" height="649.841" style="fill:#fff;" /><rect x="1191.702" y="1408.072" width="108.307" height="649.841" style="fill:#ff6646;" /><rect x="2166.463" y="1408.072" width="108.307" height="649.841" style="fill:#ff6646;" /><rect x="2274.77" y="1408.072" width="108.307" height="649.841" style="fill:#fff;" /><rect x="2383.076" y="1408.072" width="108.307" height="758.147" style="fill:#ff6646;" /><rect x="1083.395" y="2057.913" width="108.307" height="216.614" style="fill:#ff6646;" /><rect x="1191.702" y="2057.913" width="108.307" height="108.307" style="fill:#fff;" /><rect x="2166.463" y="2057.913" width="108.307" height="108.307" style="fill:#fff;" /><rect x="2274.77" y="2057.913" width="108.307" height="216.614" style="fill:#ff6646;" /><rect x="866.781" y="2166.22" width="108.307" height="216.614" style="fill:#ff6646;" /><rect x="975.088" y="2166.22" width="108.307" height="108.307" style="fill:#fff;" /><rect x="1191.702" y="2166.22" width="108.307" height="216.614" style="fill:#ff6646;" /><rect x="1300.009" y="2166.22" width="108.307" height="108.307" style="fill:#fff;" /><rect x="2058.156" y="2166.22" width="108.307" height="108.307" style="fill:#fff;" /><rect x="2166.463" y="2166.22" width="108.307" height="216.614" style="fill:#ff6646;" /><rect x="2383.076" y="2166.22" width="108.307" height="108.307" style="fill:#fff;" /><rect x="2491.383" y="2166.22" width="108.307" height="216.614" style="fill:#ff6646;" /><rect x="650.168" y="2274.526" width="108.307" height="974.761" style="fill:#ff6646;" /><rect x="758.475" y="2274.526" width="108.307" height="216.614" style="fill:#fff;" /><rect x="975.088" y="2274.526" width="108.307" height="216.614" style="fill:#ff6646;" /><rect x="1083.395" y="2274.526" width="108.307" height="108.307" style="fill:#fff;" /><rect x="1300.009" y="2274.526" width="108.307" height="216.614" style="fill:#ff6646;" /><rect x="1408.315" y="2274.526" width="649.841" height="108.307" style="fill:#fff;" /><rect x="2058.156" y="2274.526" width="108.307" height="216.614" style="fill:#ff6646;" /><rect x="2274.77" y="2274.526" width="108.307" height="108.307" style="fill:#fff;" /><rect x="2383.076" y="2274.526" width="108.307" height="216.614" style="fill:#ff6646;" /><rect x="2599.69" y="2274.526" width="108.307" height="216.614" style="fill:#fff;" /><rect x="2707.997" y="2274.526" width="108.307" height="758.147" style="fill:#ff6646;" /><rect x="866.781" y="2382.833" width="108.307" height="216.614" style="fill:#fff;" /><rect x="1083.395" y="2382.833" width="108.307" height="216.614" style="fill:#ff6646;" /><rect x="1191.702" y="2382.833" width="108.307" height="108.307" style="fill:#fff;" /><rect x="1408.315" y="2382.833" width="649.841" height="108.307" style="fill:#ff6646;" /><rect x="2166.463" y="2382.833" width="108.307" height="108.307" style="fill:#fff;" /><rect x="2274.77" y="2382.833" width="108.307" height="216.614" style="fill:#ff6646;" /><rect x="2491.383" y="2382.833" width="108.307" height="216.614" style="fill:#fff;" /><rect x="758.475" y="2491.14" width="108.307" height="758.147" style="fill:#ff6646;" /><rect x="975.088" y="2491.14" width="108.307" height="216.614" style="fill:#fff;" /><rect x="1191.702" y="2491.14" width="108.307" height="216.614" style="fill:#ff6646;" /><rect x="1300.009" y="2491.14" width="866.454" height="108.307" style="fill:#fff;" /><rect x="2166.463" y="2491.14" width="108.307" height="216.614" style="fill:#ff6646;" /><rect x="2383.076" y="2491.14" width="108.307" height="216.614" style="fill:#fff;" /><rect x="2599.69" y="2491.14" width="108.307" height="649.841" style="fill:#ff6646;" /><rect x="3141.224" y="2491.14" width="108.307" height="324.92" style="fill:#581c0f;" /><rect x="866.781" y="2599.447" width="108.307" height="649.841" style="fill:#ff6646;" /><rect x="1083.395" y="2599.447" width="108.307" height="108.307" style="fill:#fff;" /><rect x="1300.009" y="2599.447" width="866.454" height="108.307" style="fill:#ff6646;" /><rect x="2274.77" y="2599.447" width="108.307" height="108.307" style="fill:#fff;" /><rect x="2491.383" y="2599.447" width="108.307" height="541.534" style="fill:#ff6646;" /><rect x="975.088" y="2707.753" width="216.614" height="541.534" style="fill:#ff6646;" /><rect x="1191.702" y="2707.753" width="1083.068" height="108.307" style="fill:#fff;" /><rect x="2274.77" y="2707.753" width="216.614" height="541.534" style="fill:#ff6646;" /><rect x="3032.917" y="2707.753" width="108.307" height="216.614" style="fill:#581c0f;" /><rect x="1191.702" y="2816.06" width="1083.068" height="433.227" style="fill:#ff6646;" /><rect x="2816.304" y="2816.06" width="108.307" height="108.307" style="fill:#ff6646;" /><rect x="2924.61" y="2816.06" width="108.307" height="216.614" style="fill:#581c0f;" /><rect x="2816.304" y="2924.367" width="108.307" height="216.614" style="fill:#581c0f;" /><rect x="2707.997" y="3032.674" width="108.307" height="216.614" style="fill:#581c0f;" /><rect x="2491.383" y="3140.981" width="216.614" height="108.307" style="fill:#581c0f;" /><rect x="866.781" y="3249.287" width="1732.908" height="108.307" style="fill:#581c0f;" /></svg>