<?xml version='1.0' encoding='utf-8'?>
<svg xmlns="http://www.w3.org/2000/svg" viewBox="0 0 3357.5519999999997 3357.738" width="512" height="512" version="1.1" xml:space="preserve" style="fill-rule:evenodd;clip-rule:evenodd;stroke-linejoin:round;stroke-miterlimit:2;"><rect x="866.496" y="108.535" width="1732.908" height="108.307" style="fill:#00a7ff;" /><rect x="649.882" y="216.842" width="324.92" height="108.307" style="fill:#00a7ff;" /><rect x="974.803" y="216.842" width="1841.215" height="866.454" style="fill:#142c3a;" /><rect x="433.269" y="325.148" width="324.92" height="108.307" style="fill:#00a7ff;" /><rect x="758.189" y="325.148" width="216.614" height="1083.068" style="fill:#142c3a;" /><rect x="2816.018" y="325.148" width="108.307" height="758.147" style="fill:#142c3a;" /><rect x="324.962" y="433.455" width="216.614" height="108.307" style="fill:#00a7ff;" /><rect x="541.575" y="433.455" width="216.614" height="2707.67" style="fill:#142c3a;" /><rect x="2924.325" y="433.455" width="108.307" height="649.841" style="fill:#142c3a;" /><rect x="216.655" y="541.762" width="216.614" height="108.307" style="fill:#00a7ff;" /><rect x="433.269" y="541.762" width="108.307" height="2491.056" style="fill:#142c3a;" /><rect x="3032.631" y="541.762" width="108.307" height="541.534" style="fill:#142c3a;" /><rect x="216.655" y="650.069" width="108.307" height="216.614" style="fill:#00a7ff;" /><rect x="324.962" y="650.069" width="108.307" height="2274.442" style="fill:#142c3a;" /><rect x="3140.938" y="650.069" width="108.307" height="433.227" style="fill:#142c3a;" /><rect x="108.348" y="758.375" width="108.307" height="1841.215" style="fill:#00a7ff;" /><rect x="216.655" y="866.682" width="108.307" height="1949.522" style="fill:#142c3a;" /><rect x="3249.245" y="866.682" width="108.307" height="1732.908" style="fill:#021621;" /><rect x="974.803" y="1083.296" width="216.614" height="108.307" style="fill:#142c3a;" /><rect x="1191.416" y="1083.296" width="2057.829" height="108.307" style="fill:#03a7ee;" /><rect x="974.803" y="1191.603" width="108.307" height="108.307" style="fill:#142c3a;" /><rect x="1083.109" y="1191.603" width="216.614" height="108.307" style="fill:#03a7ee;" /><rect x="1299.723" y="1191.603" width="1949.522" height="216.614" style="fill:#0e87bb;" /><rect x="974.803" y="1299.909" width="216.614" height="108.307" style="fill:#03a7ee;" /><rect x="1191.416" y="1299.909" width="108.307" height="324.92" style="fill:#0e87bb;" /><rect x="758.189" y="1408.216" width="108.307" height="1841.215" style="fill:#142c3a;" /><rect x="866.496" y="1408.216" width="216.614" height="108.307" style="fill:#03a7ee;" /><rect x="1083.109" y="1408.216" width="108.307" height="1841.215" style="fill:#0e87bb;" /><rect x="1299.723" y="1408.216" width="108.307" height="108.307" style="fill:#0e87bb;" /><rect x="1408.03" y="1408.216" width="108.307" height="541.534" style="fill:#f9ff00;" /><rect x="1516.337" y="1408.216" width="1732.908" height="108.307" style="fill:#0e87bb;" /><rect x="866.496" y="1516.523" width="108.307" height="1732.908" style="fill:#03a7ee;" /><rect x="974.803" y="1516.523" width="108.307" height="1732.908" style="fill:#0e87bb;" /><rect x="1299.723" y="1516.523" width="108.307" height="324.92" style="fill:#f9ff00;" /><rect x="1516.337" y="1516.523" width="108.307" height="324.92" style="fill:#f9ff00;" /><rect x="1624.643" y="1516.523" width="1624.602" height="108.307" style="fill:#0e87bb;" /><rect x="1191.416" y="1624.83" width="108.307" height="108.307" style="fill:#f9ff00;" /><rect x="1624.643" y="1624.83" width="108.307" height="108.307" style="fill:#f9ff00;" /><rect x="1732.95" y="1624.83" width="1516.295" height="866.454" style="fill:#0e87bb;" /><rect x="1191.416" y="1733.136" width="108.307" height="1516.295" style="fill:#0e87bb;" /><rect x="1624.643" y="1733.136" width="108.307" height="1516.295" style="fill:#0e87bb;" /><rect x="1299.723" y="1841.443" width="108.307" height="1407.988" style="fill:#0e87bb;" /><rect x="1516.337" y="1841.443" width="108.307" height="1407.988" style="fill:#0e87bb;" /><rect x="1408.03" y="1949.75" width="108.307" height="1299.681" style="fill:#0e87bb;" /><rect x="1732.95" y="2491.284" width="1407.988" height="216.614" style="fill:#0e87bb;" /><rect x="3140.938" y="2491.284" width="108.307" height="324.92" style="fill:#021621;" /><rect x="1732.95" y="2707.897" width="1299.681" height="108.307" style="fill:#0e87bb;" /><rect x="3032.631" y="2707.897" width="108.307" height="216.614" style="fill:#021621;" /><rect x="1732.95" y="2816.204" width="1191.375" height="108.307" style="fill:#0e87bb;" /><rect x="2924.325" y="2816.204" width="108.307" height="216.614" style="fill:#021621;" /><rect x="1732.95" y="2924.511" width="1083.068" height="108.307" style="fill:#0e87bb;" /><rect x="2816.018" y="2924.511" width="108.307" height="216.614" style="fill:#021621;" /><rect x="1732.95" y="3032.818" width="974.761" height="108.307" style="fill:#0e87bb;" /><rect x="2707.711" y="3032.818" width="108.307" height="216.614" style="fill:#021621;" /><rect x="649.882" y="3141.125" width="108.307" height="108.307" style="fill:#142c3a;" /><rect x="1732.95" y="3141.125" width="758.147" height="108.307" style="fill:#0e87bb;" /><rect x="2491.098" y="3141.125" width="216.614" height="108.307" style="fill:#021621;" /><rect x="866.496" y="3249.431" width="1732.908" height="108.307" style="fill:#021621;" /></svg>