<svg width="512" height="512" viewBox="0 0 512 512" fill="none" xmlns="http://www.w3.org/2000/svg">
<path fill-rule="evenodd" clip-rule="evenodd" d="M256.114 0.139771H222.877V16.6438V16.8723V33.3763H239.61V16.8723H256.114V0.139771Z" fill="#686368"/>
<path fill-rule="evenodd" clip-rule="evenodd" d="M239.61 33.1476H222.877V82.8879H239.61V33.1476Z" fill="#5B5961"/>
<path fill-rule="evenodd" clip-rule="evenodd" d="M289.122 0.139771H255.885V16.8723H272.389V33.3763H289.122V16.8723V16.6438V0.139771Z" fill="#5B5961"/>
<path fill-rule="evenodd" clip-rule="evenodd" d="M239.381 16.6437H256.114V33.3762H239.381V16.6437ZM255.885 33.1475H272.618V49.8801H255.885V33.1475Z" fill="#8F8F8C"/>
<path fill-rule="evenodd" clip-rule="evenodd" d="M255.885 16.6437H272.618V33.3762H255.885V16.6437ZM239.381 33.1475H256.114V66.384H239.381V33.1475Z" fill="#737279"/>
<path fill-rule="evenodd" clip-rule="evenodd" d="M288.894 33.1476H371.642V49.6516H404.65V66.1556H421.154V82.6595H437.658V99.1634H454.162V115.667H470.666V313.943H454.162H453.933L437.658 313.943H421.154H420.925H404.421L371.642 313.943H371.413H288.894V280.935H256.114V280.707H255.886V280.935H256.114V313.943H222.878L140.587 313.943H140.358L107.579 313.943H91.0747H90.846H74.3422L58.0668 313.943H57.8382H41.3342V115.667H57.8382V99.1634H74.3422V82.6595H90.846V66.1556H107.35V49.6516H140.358V33.1476H223.106V82.6595H256.114V115.667H255.886V115.896H256.114V115.667H288.894V33.1476ZM256.114 181.912H255.886V181.683H256.114V181.912ZM256.114 148.675V148.904H255.886V148.675H256.114ZM256.114 214.92V214.691H255.886V214.92H256.114ZM255.886 247.699H256.114V247.928H255.886V247.699Z" fill="#CDAB8F"/>
<path fill-rule="evenodd" clip-rule="evenodd" d="M272.389 33.1476H289.122V82.8879L272.618 82.8881H239.381V66.1556H272.389V33.1476Z" fill="#4C4854"/>
<path fill-rule="evenodd" clip-rule="evenodd" d="M255.885 49.6515H272.618V66.384H255.885V49.6515ZM255.885 82.6595H272.618V99.392H255.885V82.6595ZM222.877 115.667H239.61V132.4H222.877V115.667ZM255.885 148.675H272.618V165.408H255.885V148.675ZM239.381 181.683H256.114V198.416H239.381V181.683ZM255.885 214.691H272.618V231.424H255.885V214.691ZM222.877 247.699H239.61V264.431H222.877V247.699ZM255.885 280.707H272.618V297.439H255.885V280.707Z" fill="#C5C5C3"/>
<path fill-rule="evenodd" clip-rule="evenodd" d="M272.389 82.6595H289.122V99.3921H272.389V82.6595ZM239.381 115.667H256.114V132.4H239.381V115.667ZM272.389 148.675H289.122V165.408H272.389V148.675ZM222.877 181.683H239.61V198.416H222.877V181.683ZM272.389 214.691H289.122V231.424H272.389V214.691ZM239.381 247.699H256.114V264.431H239.381V247.699ZM272.389 280.707H289.122V297.439H272.389V280.707Z" fill="#E4E3E1"/>
<path fill-rule="evenodd" clip-rule="evenodd" d="M255.885 99.1633H289.122V115.896H255.885V99.1633ZM222.877 132.171H256.114V148.904H222.877V132.171ZM255.885 165.179H289.122V181.912H255.885V165.179ZM222.877 198.187H256.114V214.92H222.877V198.187ZM255.885 231.195H289.122V247.928H255.885V231.195ZM222.877 264.203H256.114V280.935H222.877V264.203ZM255.885 297.211H289.122V313.943H255.885V297.211Z" fill="#D3D2D6"/>
<path fill-rule="evenodd" clip-rule="evenodd" d="M24.8301 132.171H41.5626V297.439H24.8301V132.171ZM470.437 148.675H487.169V297.439H470.437V148.675Z" fill="#CAA689"/>
<path fill-rule="evenodd" clip-rule="evenodd" d="M487.169 297.211H470.437V313.715H470.665V313.943H487.169V297.211Z" fill="#A37651"/>
<path fill-rule="evenodd" clip-rule="evenodd" d="M41.5626 297.211H24.8301V330.447H41.3341H41.5626H470.665V313.943H470.437V313.715H41.5626V297.211Z" fill="#A37651"/>
<path fill-rule="evenodd" clip-rule="evenodd" d="M470.437 346.723V346.951L470.666 346.951L470.666 346.723H470.437Z" fill="#B5835A"/>
<path fill-rule="evenodd" clip-rule="evenodd" d="M470.437 132.171H486.941H487.17H503.674V148.675V148.904V165.179V165.408V198.187V198.416V231.195V231.424V280.935H486.941V231.424V231.195V198.416V198.187V165.408V165.179V148.904H487.17V148.675H486.941V148.904H470.437V132.171Z" fill="#C09571"/>
<path fill-rule="evenodd" clip-rule="evenodd" d="M25.059 148.675V132.171H8.32642V148.675V148.904V181.683V181.912V231.195V231.423V247.699V247.928V264.203V264.431V280.935H25.059V264.431V264.203V247.928V247.699V231.423V231.195V181.912V181.683V148.904V148.675Z" fill="#C09571"/>
<path fill-rule="evenodd" clip-rule="evenodd" d="M487.169 346.723L487.169 313.715H470.437V330.219H24.8301L24.8301 379.959H41.3341V412.967H57.838V429.471H74.342V445.975H90.8459V462.479H107.35V478.983H140.358V495.487H371.642V478.983H404.649V462.479H421.154V445.975H437.657V429.471H454.161V412.967H470.665L470.665 379.959H487.169V346.723Z" fill="#AC7C55"/>
<path fill-rule="evenodd" clip-rule="evenodd" d="M25.059 280.707H8.32642V396.463H24.8302V429.471H41.3342V445.975H57.8382V462.479H74.3422V478.983H90.846V495.487L123.854 495.487V511.991H388.146V495.487L421.154 495.487V478.983H437.658V462.479H454.162V445.975H470.666V429.471H487.169V396.463H503.673V280.707H486.941V379.731H470.437V412.738H453.933V429.242H437.429V445.746H420.925V462.25H404.421V478.754H371.413V495.258H140.587V478.754H107.579V462.25H91.0747V445.746H74.5708V429.242H58.0668V412.738H41.5628V379.731H25.059V280.707Z" fill="#715138"/>
<path fill-rule="evenodd" clip-rule="evenodd" d="M387.912 16.9774V33.4812H420.92V49.9852H437.424V66.4892H453.928V82.9932H470.432V99.497H486.936V116.23L486.936 149.49H470.203V116.23H453.699V99.7257H437.195V83.2218H420.691V66.7178H404.188V50.2138H371.18V33.71H288.66V16.9774H387.912Z" fill="#DDB492"/>
<path fill-rule="evenodd" clip-rule="evenodd" d="M222.873 16.9774H123.62V33.4812H90.6125V49.9852H74.1086V66.4892H57.6046V82.9932H41.1007V99.497H24.5967V116.23V132.734H41.3292V116.23H57.8332V99.7257H74.3372V83.2218H90.8412V66.7178H107.345V50.2138H140.353V33.71H222.873V16.9774Z" fill="#DDB492"/>
</svg>
