<?xml version='1.0' encoding='utf-8'?>
<svg xmlns="http://www.w3.org/2000/svg" viewBox="0 0 3357.9449999999997 3357.6569999999997" width="512" height="512" version="1.1" xml:space="preserve" style="fill-rule:evenodd;clip-rule:evenodd;stroke-linejoin:round;stroke-miterlimit:2;"><rect x="866.888" y="108.454" width="1732.908" height="108.307" style="fill:#070a0b;" /><rect x="650.275" y="216.76" width="324.92" height="108.307" style="fill:#070a0b;" /><rect x="975.195" y="216.76" width="1516.295" height="108.307" style="fill:#fff;" /><rect x="2491.49" y="216.76" width="324.92" height="108.307" style="fill:#070a0b;" /><rect x="541.968" y="325.067" width="216.614" height="108.307" style="fill:#070a0b;" /><rect x="758.582" y="325.067" width="324.92" height="108.307" style="fill:#fff;" /><rect x="1083.502" y="325.067" width="1624.602" height="974.761" style="fill:#eee;" /><rect x="2708.104" y="325.067" width="216.614" height="108.307" style="fill:#070a0b;" /><rect x="433.661" y="433.374" width="216.614" height="108.307" style="fill:#070a0b;" /><rect x="650.275" y="433.374" width="216.614" height="108.307" style="fill:#fff;" /><rect x="866.888" y="433.374" width="216.614" height="1191.375" style="fill:#eee;" /><rect x="2708.104" y="433.374" width="108.307" height="1191.375" style="fill:#eee;" /><rect x="2816.411" y="433.374" width="216.614" height="108.307" style="fill:#070a0b;" /><rect x="325.355" y="541.681" width="216.614" height="108.307" style="fill:#070a0b;" /><rect x="541.968" y="541.681" width="216.614" height="108.307" style="fill:#fff;" /><rect x="758.582" y="541.681" width="108.307" height="758.147" style="fill:#eee;" /><rect x="2816.411" y="541.681" width="108.307" height="1083.068" style="fill:#eee;" /><rect x="2924.717" y="541.681" width="216.614" height="108.307" style="fill:#070a0b;" /><rect x="217.048" y="649.988" width="216.614" height="108.307" style="fill:#070a0b;" /><rect x="433.661" y="649.988" width="216.614" height="108.307" style="fill:#fff;" /><rect x="650.275" y="649.988" width="108.307" height="974.761" style="fill:#eee;" /><rect x="2924.717" y="649.988" width="108.307" height="974.761" style="fill:#eee;" /><rect x="3033.024" y="649.988" width="216.614" height="108.307" style="fill:#070a0b;" /><rect x="217.048" y="758.294" width="108.307" height="216.614" style="fill:#070a0b;" /><rect x="325.355" y="758.294" width="216.614" height="108.307" style="fill:#fff;" /><rect x="541.968" y="758.294" width="108.307" height="866.454" style="fill:#eee;" /><rect x="3033.024" y="758.294" width="108.307" height="649.841" style="fill:#eee;" /><rect x="3141.331" y="758.294" width="108.307" height="108.307" style="fill:#070a0b;" /><rect x="108.741" y="866.601" width="108.307" height="541.534" style="fill:#070a0b;" /><rect x="325.355" y="866.601" width="108.307" height="108.307" style="fill:#fff;" /><rect x="433.661" y="866.601" width="108.307" height="758.147" style="fill:#eee;" /><rect x="3141.331" y="866.601" width="108.307" height="541.534" style="fill:#eee;" /><rect x="3249.638" y="866.601" width="108.307" height="108.307" style="fill:#070a0b;" /><rect x="217.048" y="974.908" width="108.307" height="433.227" style="fill:#fff;" /><rect x="325.355" y="974.908" width="108.307" height="541.534" style="fill:#eee;" /><rect x="3249.638" y="974.908" width="108.307" height="216.614" style="fill:#0b0f10;" /><rect x="3249.638" y="1191.521" width="108.307" height="216.614" style="fill:#070a0b;" /><rect x="758.582" y="1299.828" width="108.307" height="108.307" style="fill:#37474f;" /><rect x="1083.502" y="1299.828" width="1407.988" height="108.307" style="fill:#eee;" /><rect x="2491.49" y="1299.828" width="108.307" height="108.307" style="fill:#607d8b;" /><rect x="2599.797" y="1299.828" width="108.307" height="324.92" style="fill:#eee;" /><rect x="108.741" y="1408.135" width="108.307" height="108.307" style="fill:#37474f;" /><rect x="217.048" y="1408.135" width="108.307" height="108.307" style="fill:#0b0f10;" /><rect x="758.582" y="1408.135" width="108.307" height="108.307" style="fill:#607d8b;" /><rect x="1083.502" y="1408.135" width="541.534" height="216.614" style="fill:#eee;" /><rect x="1625.036" y="1408.135" width="108.307" height="108.307" style="fill:#607d8b;" /><rect x="1733.343" y="1408.135" width="758.147" height="216.614" style="fill:#eee;" /><rect x="2491.49" y="1408.135" width="108.307" height="108.307" style="fill:#263238;" /><rect x="3033.024" y="1408.135" width="216.614" height="108.307" style="fill:#0b0f10;" /><rect x="3249.638" y="1408.135" width="108.307" height="541.534" style="fill:#546e7a;" /><rect x="108.741" y="1516.442" width="108.307" height="433.227" style="fill:#263238;" /><rect x="217.048" y="1516.442" width="216.614" height="433.227" style="fill:#070a0b;" /><rect x="758.582" y="1516.442" width="108.307" height="108.307" style="fill:#eee;" /><rect x="1625.036" y="1516.442" width="108.307" height="108.307" style="fill:#37474f;" /><rect x="2491.49" y="1516.442" width="108.307" height="108.307" style="fill:#eee;" /><rect x="3033.024" y="1516.442" width="216.614" height="433.227" style="fill:#070a0b;" /><rect x="433.661" y="1624.749" width="108.307" height="216.614" style="fill:#070a0b;" /><rect x="541.968" y="1624.749" width="108.307" height="216.614" style="fill:#0b0f10;" /><rect x="650.275" y="1624.749" width="2274.442" height="108.307" style="fill:#455a64;" /><rect x="2924.717" y="1624.749" width="108.307" height="216.614" style="fill:#070a0b;" /><rect x="650.275" y="1733.055" width="433.227" height="108.307" style="fill:#0b0f10;" /><rect x="1083.502" y="1733.055" width="216.614" height="108.307" style="fill:#b0bec5;" /><rect x="1300.116" y="1733.055" width="974.761" height="108.307" style="fill:#263238;" /><rect x="2274.877" y="1733.055" width="216.614" height="108.307" style="fill:#b0bec5;" /><rect x="2491.49" y="1733.055" width="433.227" height="108.307" style="fill:#0b0f10;" /><rect x="433.661" y="1841.362" width="2599.363" height="108.307" style="fill:#eee;" /><rect x="108.741" y="1949.669" width="108.307" height="108.307" style="fill:#37474f;" /><rect x="217.048" y="1949.669" width="108.307" height="108.307" style="fill:#0b0f10;" /><rect x="325.355" y="1949.669" width="108.307" height="216.614" style="fill:#b0bec5;" /><rect x="433.661" y="1949.669" width="324.92" height="866.454" style="fill:#eee;" /><rect x="758.582" y="1949.669" width="108.307" height="216.614" style="fill:#b0bec5;" /><rect x="866.888" y="1949.669" width="433.227" height="1191.375" style="fill:#eee;" /><rect x="1300.116" y="1949.669" width="108.307" height="216.614" style="fill:#b0bec5;" /><rect x="1408.422" y="1949.669" width="433.227" height="1191.375" style="fill:#eee;" /><rect x="1841.65" y="1949.669" width="108.307" height="216.614" style="fill:#b0bec5;" /><rect x="1949.956" y="1949.669" width="433.227" height="1191.375" style="fill:#eee;" /><rect x="2383.183" y="1949.669" width="108.307" height="216.614" style="fill:#b0bec5;" /><rect x="2491.49" y="1949.669" width="541.534" height="649.841" style="fill:#eee;" /><rect x="3033.024" y="1949.669" width="108.307" height="216.614" style="fill:#b0bec5;" /><rect x="3141.331" y="1949.669" width="108.307" height="108.307" style="fill:#0b0f10;" /><rect x="3249.638" y="1949.669" width="108.307" height="108.307" style="fill:#37474f;" /><rect x="108.741" y="2057.976" width="108.307" height="541.534" style="fill:#070a0b;" /><rect x="217.048" y="2057.976" width="108.307" height="108.307" style="fill:#b0bec5;" /><rect x="3141.331" y="2057.976" width="108.307" height="108.307" style="fill:#b0bec5;" /><rect x="3249.638" y="2057.976" width="108.307" height="541.534" style="fill:#070a0b;" /><rect x="217.048" y="2166.282" width="216.614" height="324.92" style="fill:#eee;" /><rect x="758.582" y="2166.282" width="108.307" height="974.761" style="fill:#eee;" /><rect x="1300.116" y="2166.282" width="108.307" height="974.761" style="fill:#eee;" /><rect x="1841.65" y="2166.282" width="108.307" height="974.761" style="fill:#eee;" /><rect x="2383.183" y="2166.282" width="108.307" height="866.454" style="fill:#eee;" /><rect x="3033.024" y="2166.282" width="108.307" height="216.614" style="fill:#eee;" /><rect x="3141.331" y="2166.282" width="108.307" height="324.92" style="fill:#d9d9d9;" /><rect x="3033.024" y="2382.896" width="108.307" height="324.92" style="fill:#d9d9d9;" /><rect x="217.048" y="2491.203" width="108.307" height="324.92" style="fill:#070a0b;" /><rect x="325.355" y="2491.203" width="108.307" height="216.614" style="fill:#eee;" /><rect x="3141.331" y="2491.203" width="108.307" height="324.92" style="fill:#070a0b;" /><rect x="2491.49" y="2599.51" width="433.227" height="108.307" style="fill:#eee;" /><rect x="2924.717" y="2599.51" width="108.307" height="216.614" style="fill:#d9d9d9;" /><rect x="325.355" y="2707.816" width="108.307" height="216.614" style="fill:#070a0b;" /><rect x="2491.49" y="2707.816" width="324.92" height="108.307" style="fill:#eee;" /><rect x="2816.411" y="2707.816" width="108.307" height="216.614" style="fill:#d9d9d9;" /><rect x="3033.024" y="2707.816" width="108.307" height="216.614" style="fill:#070a0b;" /><rect x="433.661" y="2816.123" width="108.307" height="216.614" style="fill:#070a0b;" /><rect x="541.968" y="2816.123" width="216.614" height="108.307" style="fill:#eee;" /><rect x="2491.49" y="2816.123" width="216.614" height="108.307" style="fill:#eee;" /><rect x="2708.104" y="2816.123" width="108.307" height="216.614" style="fill:#d9d9d9;" /><rect x="2924.717" y="2816.123" width="108.307" height="216.614" style="fill:#070a0b;" /><rect x="541.968" y="2924.43" width="108.307" height="216.614" style="fill:#070a0b;" /><rect x="650.275" y="2924.43" width="108.307" height="108.307" style="fill:#eee;" /><rect x="2491.49" y="2924.43" width="108.307" height="108.307" style="fill:#eee;" /><rect x="2599.797" y="2924.43" width="108.307" height="216.614" style="fill:#d9d9d9;" /><rect x="2816.411" y="2924.43" width="108.307" height="216.614" style="fill:#070a0b;" /><rect x="650.275" y="3032.737" width="108.307" height="216.614" style="fill:#070a0b;" /><rect x="2383.183" y="3032.737" width="216.614" height="108.307" style="fill:#d9d9d9;" /><rect x="2708.104" y="3032.737" width="108.307" height="216.614" style="fill:#070a0b;" /><rect x="758.582" y="3141.044" width="216.614" height="108.307" style="fill:#070a0b;" /><rect x="975.195" y="3141.044" width="1516.295" height="108.307" style="fill:#d9d9d9;" /><rect x="2491.49" y="3141.044" width="216.614" height="108.307" style="fill:#070a0b;" /><rect x="866.888" y="3249.35" width="1732.908" height="108.307" style="fill:#070a0b;" /></svg>