<?xml version='1.0' encoding='utf-8'?>
<svg xmlns="http://www.w3.org/2000/svg" viewBox="0 0 3358.4519999999998 3357.673" width="512" height="512" version="1.1" xml:space="preserve" style="fill-rule:evenodd;clip-rule:evenodd;stroke-linejoin:round;stroke-miterlimit:2;"><rect x="867.396" y="108.47" width="974.761" height="108.307" style="fill:#031f42;" /><rect x="1842.157" y="108.47" width="758.147" height="108.307" style="fill:#143052;" /><rect x="650.782" y="216.776" width="324.92" height="108.307" style="fill:#143052;" /><rect x="975.702" y="216.776" width="1516.295" height="433.227" style="fill:#010810;" /><rect x="2491.997" y="216.776" width="324.92" height="108.307" style="fill:#143052;" /><rect x="542.475" y="325.083" width="216.614" height="108.307" style="fill:#143052;" /><rect x="759.089" y="325.083" width="216.614" height="324.92" style="fill:#010810;" /><rect x="2491.997" y="325.083" width="216.614" height="324.92" style="fill:#010810;" /><rect x="2708.611" y="325.083" width="108.307" height="108.307" style="fill:#143052;" /><rect x="2816.918" y="325.083" width="108.307" height="216.614" style="fill:#031f42;" /><rect x="434.169" y="433.39" width="216.614" height="108.307" style="fill:#143052;" /><rect x="650.782" y="433.39" width="108.307" height="324.92" style="fill:#010810;" /><rect x="2708.611" y="433.39" width="108.307" height="324.92" style="fill:#010810;" /><rect x="2925.224" y="433.39" width="108.307" height="216.614" style="fill:#031f42;" /><rect x="325.862" y="541.697" width="216.614" height="108.307" style="fill:#143052;" /><rect x="542.475" y="541.697" width="108.307" height="2382.749" style="fill:#010810;" /><rect x="2816.918" y="541.697" width="108.307" height="324.92" style="fill:#010810;" /><rect x="3033.531" y="541.697" width="108.307" height="216.614" style="fill:#031f42;" /><rect x="217.555" y="650.003" width="216.614" height="108.307" style="fill:#031f42;" /><rect x="434.169" y="650.003" width="108.307" height="2166.136" style="fill:#010810;" /><rect x="759.089" y="650.003" width="216.614" height="541.534" style="fill:#0a274a;" /><rect x="975.702" y="650.003" width="324.92" height="108.307" style="fill:#e0edfd;" /><rect x="1300.623" y="650.003" width="974.761" height="108.307" style="fill:#bedbff;" /><rect x="2275.384" y="650.003" width="216.614" height="108.307" style="fill:#a3c1e5;" /><rect x="2491.997" y="650.003" width="108.307" height="108.307" style="fill:#bedbff;" /><rect x="2600.304" y="650.003" width="108.307" height="108.307" style="fill:#e0edfd;" /><rect x="2925.224" y="650.003" width="108.307" height="2166.136" style="fill:#010810;" /><rect x="3141.838" y="650.003" width="108.307" height="324.92" style="fill:#031f42;" /><rect x="217.555" y="758.31" width="108.307" height="216.614" style="fill:#031f42;" /><rect x="325.862" y="758.31" width="108.307" height="1949.522" style="fill:#010810;" /><rect x="650.782" y="758.31" width="108.307" height="649.841" style="fill:#0a274a;" /><rect x="975.702" y="758.31" width="108.307" height="216.614" style="fill:#031f42;" /><rect x="1084.009" y="758.31" width="108.307" height="216.614" style="fill:#bedbff;" /><rect x="1192.316" y="758.31" width="433.227" height="108.307" style="fill:#67a2eb;" /><rect x="1625.543" y="758.31" width="758.147" height="108.307" style="fill:#4f93e7;" /><rect x="2383.691" y="758.31" width="324.92" height="216.614" style="fill:#80baff;" /><rect x="2708.611" y="758.31" width="108.307" height="108.307" style="fill:#e0edfd;" /><rect x="3033.531" y="758.31" width="108.307" height="1949.522" style="fill:#010810;" /><rect x="109.248" y="866.617" width="108.307" height="108.307" style="fill:#031f42;" /><rect x="1192.316" y="866.617" width="108.307" height="324.92" style="fill:#67a2eb;" /><rect x="1300.623" y="866.617" width="216.614" height="216.614" style="fill:#438de9;" /><rect x="1517.236" y="866.617" width="216.614" height="216.614" style="fill:#67a2eb;" /><rect x="1733.85" y="866.617" width="649.841" height="216.614" style="fill:#4f93e7;" /><rect x="2708.611" y="866.617" width="108.307" height="324.92" style="fill:#80baff;" /><rect x="2816.918" y="866.617" width="108.307" height="108.307" style="fill:#e0edfd;" /><rect x="3250.145" y="866.617" width="108.307" height="108.307" style="fill:#031f42;" /><rect x="109.248" y="974.924" width="108.307" height="324.92" style="fill:#143052;" /><rect x="217.555" y="974.924" width="108.307" height="1516.295" style="fill:#010810;" /><rect x="975.702" y="974.924" width="108.307" height="1191.375" style="fill:#0a274a;" /><rect x="1084.009" y="974.924" width="108.307" height="1516.295" style="fill:#90c2ff;" /><rect x="2383.691" y="974.924" width="108.307" height="758.147" style="fill:#4f93e7;" /><rect x="2491.997" y="974.924" width="216.614" height="108.307" style="fill:#80baff;" /><rect x="2816.918" y="974.924" width="108.307" height="324.92" style="fill:#bedbff;" /><rect x="3141.838" y="974.924" width="108.307" height="1516.295" style="fill:#010810;" /><rect x="3250.145" y="974.924" width="108.307" height="758.147" style="fill:#143052;" /><rect x="1300.623" y="1083.231" width="324.92" height="108.307" style="fill:#67a2eb;" /><rect x="1625.543" y="1083.231" width="324.92" height="108.307" style="fill:#4f93e7;" /><rect x="1950.463" y="1083.231" width="216.614" height="216.614" style="fill:#1c71d8;" /><rect x="2167.077" y="1083.231" width="216.614" height="108.307" style="fill:#4f93e7;" /><rect x="2491.997" y="1083.231" width="108.307" height="541.534" style="fill:#4f93e7;" /><rect x="2600.304" y="1083.231" width="108.307" height="108.307" style="fill:#80baff;" /><rect x="759.089" y="1191.537" width="108.307" height="324.92" style="fill:#143052;" /><rect x="867.396" y="1191.537" width="108.307" height="1191.375" style="fill:#0a274a;" /><rect x="1192.316" y="1191.537" width="108.307" height="541.534" style="fill:#4f93e7;" /><rect x="1300.623" y="1191.537" width="216.614" height="108.307" style="fill:#67a2eb;" /><rect x="1517.236" y="1191.537" width="324.92" height="108.307" style="fill:#4f93e7;" /><rect x="1842.157" y="1191.537" width="108.307" height="433.227" style="fill:#1c71d8;" /><rect x="2167.077" y="1191.537" width="108.307" height="433.227" style="fill:#1c71d8;" /><rect x="2275.384" y="1191.537" width="108.307" height="108.307" style="fill:#4f93e7;" /><rect x="2600.304" y="1191.537" width="216.614" height="433.227" style="fill:#4f93e7;" /><rect x="109.248" y="1299.844" width="108.307" height="866.454" style="fill:#031f42;" /><rect x="1300.623" y="1299.844" width="433.227" height="324.92" style="fill:#4f93e7;" /><rect x="1733.85" y="1299.844" width="108.307" height="216.614" style="fill:#1c71d8;" /><rect x="1950.463" y="1299.844" width="216.614" height="216.614" style="fill:#247de9;" /><rect x="2275.384" y="1299.844" width="108.307" height="216.614" style="fill:#1c71d8;" /><rect x="2816.918" y="1299.844" width="108.307" height="1191.375" style="fill:#59a4ff;" /><rect x="650.782" y="1408.151" width="108.307" height="324.92" style="fill:#143052;" /><rect x="759.089" y="1516.458" width="108.307" height="216.614" style="fill:#0a274a;" /><rect x="1733.85" y="1516.458" width="108.307" height="974.761" style="fill:#4f93e7;" /><rect x="1950.463" y="1516.458" width="216.614" height="216.614" style="fill:#1c71d8;" /><rect x="2275.384" y="1516.458" width="108.307" height="324.92" style="fill:#4f93e7;" /><rect x="1300.623" y="1624.765" width="216.614" height="216.614" style="fill:#3584e4;" /><rect x="1517.236" y="1624.765" width="216.614" height="108.307" style="fill:#4f93e7;" /><rect x="1842.157" y="1624.765" width="108.307" height="758.147" style="fill:#4f93e7;" /><rect x="2167.077" y="1624.765" width="108.307" height="758.147" style="fill:#4f93e7;" /><rect x="2491.997" y="1624.765" width="216.614" height="216.614" style="fill:#3584e4;" /><rect x="2708.611" y="1624.765" width="108.307" height="108.307" style="fill:#4f93e7;" /><rect x="650.782" y="1733.071" width="108.307" height="649.841" style="fill:#0a274a;" /><rect x="759.089" y="1733.071" width="108.307" height="541.534" style="fill:#143052;" /><rect x="1192.316" y="1733.071" width="108.307" height="433.227" style="fill:#3584e4;" /><rect x="1517.236" y="1733.071" width="108.307" height="433.227" style="fill:#3584e4;" /><rect x="1625.543" y="1733.071" width="108.307" height="108.307" style="fill:#4f93e7;" /><rect x="1950.463" y="1733.071" width="216.614" height="541.534" style="fill:#4f93e7;" /><rect x="2383.691" y="1733.071" width="108.307" height="433.227" style="fill:#3584e4;" /><rect x="2708.611" y="1733.071" width="108.307" height="433.227" style="fill:#3584e4;" /><rect x="3250.145" y="1733.071" width="108.307" height="866.454" style="fill:#031f42;" /><rect x="1300.623" y="1841.378" width="216.614" height="216.614" style="fill:#4f93e7;" /><rect x="1625.543" y="1841.378" width="108.307" height="216.614" style="fill:#3584e4;" /><rect x="2275.384" y="1841.378" width="108.307" height="216.614" style="fill:#3584e4;" /><rect x="2491.997" y="1841.378" width="216.614" height="216.614" style="fill:#559cf3;" /><rect x="1300.623" y="2057.992" width="216.614" height="216.614" style="fill:#3584e4;" /><rect x="1625.543" y="2057.992" width="108.307" height="541.534" style="fill:#4f93e7;" /><rect x="2275.384" y="2057.992" width="108.307" height="433.227" style="fill:#4f93e7;" /><rect x="2491.997" y="2057.992" width="216.614" height="216.614" style="fill:#3584e4;" /><rect x="109.248" y="2166.298" width="108.307" height="433.227" style="fill:#143052;" /><rect x="975.702" y="2166.298" width="108.307" height="216.614" style="fill:#143052;" /><rect x="1192.316" y="2166.298" width="108.307" height="433.227" style="fill:#4f93e7;" /><rect x="1517.236" y="2166.298" width="108.307" height="433.227" style="fill:#4f93e7;" /><rect x="2383.691" y="2166.298" width="108.307" height="324.92" style="fill:#4f93e7;" /><rect x="2708.611" y="2166.298" width="108.307" height="324.92" style="fill:#4f93e7;" /><rect x="759.089" y="2274.605" width="108.307" height="108.307" style="fill:#0a274a;" /><rect x="1300.623" y="2274.605" width="216.614" height="216.614" style="fill:#4f93e7;" /><rect x="1950.463" y="2274.605" width="216.614" height="216.614" style="fill:#1c71d8;" /><rect x="2491.997" y="2274.605" width="216.614" height="324.92" style="fill:#4f93e7;" /><rect x="650.782" y="2382.912" width="108.307" height="108.307" style="fill:#143052;" /><rect x="759.089" y="2382.912" width="108.307" height="758.147" style="fill:#010810;" /><rect x="867.396" y="2382.912" width="108.307" height="216.614" style="fill:#143052;" /><rect x="975.702" y="2382.912" width="108.307" height="866.454" style="fill:#010810;" /><rect x="1842.157" y="2382.912" width="108.307" height="216.614" style="fill:#1c71d8;" /><rect x="2167.077" y="2382.912" width="108.307" height="216.614" style="fill:#1c71d8;" /><rect x="217.555" y="2491.219" width="108.307" height="324.92" style="fill:#143052;" /><rect x="650.782" y="2491.219" width="108.307" height="108.307" style="fill:#0a274a;" /><rect x="1084.009" y="2491.219" width="108.307" height="108.307" style="fill:#5fa7ff;" /><rect x="1300.623" y="2491.219" width="108.307" height="108.307" style="fill:#4f93e7;" /><rect x="1408.93" y="2491.219" width="108.307" height="758.147" style="fill:#010810;" /><rect x="1733.85" y="2491.219" width="108.307" height="758.147" style="fill:#010810;" /><rect x="1950.463" y="2491.219" width="108.307" height="108.307" style="fill:#1c71d8;" /><rect x="2058.77" y="2491.219" width="108.307" height="758.147" style="fill:#010810;" /><rect x="2275.384" y="2491.219" width="108.307" height="108.307" style="fill:#1c71d8;" /><rect x="2383.691" y="2491.219" width="108.307" height="758.147" style="fill:#010810;" /><rect x="2708.611" y="2491.219" width="108.307" height="541.534" style="fill:#010810;" /><rect x="2816.918" y="2491.219" width="108.307" height="216.614" style="fill:#bedbff;" /><rect x="3141.838" y="2491.219" width="108.307" height="216.614" style="fill:#031f42;" /><rect x="650.782" y="2599.526" width="108.307" height="433.227" style="fill:#010810;" /><rect x="867.396" y="2599.526" width="108.307" height="541.534" style="fill:#010810;" /><rect x="1084.009" y="2599.526" width="108.307" height="649.841" style="fill:#010810;" /><rect x="1192.316" y="2599.526" width="108.307" height="108.307" style="fill:#137cfb;" /><rect x="1300.623" y="2599.526" width="108.307" height="108.307" style="fill:#90c2ff;" /><rect x="1517.236" y="2599.526" width="108.307" height="108.307" style="fill:#137cfb;" /><rect x="1625.543" y="2599.526" width="108.307" height="108.307" style="fill:#5fa7ff;" /><rect x="1842.157" y="2599.526" width="108.307" height="108.307" style="fill:#137cfb;" /><rect x="1950.463" y="2599.526" width="108.307" height="108.307" style="fill:#90c2ff;" /><rect x="2167.077" y="2599.526" width="108.307" height="108.307" style="fill:#90c2ff;" /><rect x="2275.384" y="2599.526" width="108.307" height="108.307" style="fill:#137cfb;" /><rect x="2491.997" y="2599.526" width="108.307" height="108.307" style="fill:#90c2ff;" /><rect x="2600.304" y="2599.526" width="108.307" height="108.307" style="fill:#137cfb;" /><rect x="325.862" y="2707.832" width="108.307" height="216.614" style="fill:#143052;" /><rect x="1192.316" y="2707.832" width="216.614" height="541.534" style="fill:#010810;" /><rect x="1517.236" y="2707.832" width="216.614" height="541.534" style="fill:#010810;" /><rect x="1842.157" y="2707.832" width="216.614" height="541.534" style="fill:#010810;" /><rect x="2167.077" y="2707.832" width="216.614" height="541.534" style="fill:#010810;" /><rect x="2491.997" y="2707.832" width="216.614" height="433.227" style="fill:#010810;" /><rect x="2816.918" y="2707.832" width="108.307" height="216.614" style="fill:#010810;" /><rect x="3033.531" y="2707.832" width="216.614" height="108.307" style="fill:#143052;" /><rect x="434.169" y="2816.139" width="108.307" height="216.614" style="fill:#143052;" /><rect x="2925.224" y="2816.139" width="216.614" height="108.307" style="fill:#031f42;" /><rect x="542.475" y="2924.446" width="108.307" height="216.614" style="fill:#143052;" /><rect x="2816.918" y="2924.446" width="216.614" height="108.307" style="fill:#031f42;" /><rect x="650.782" y="3032.753" width="108.307" height="216.614" style="fill:#143052;" /><rect x="2708.611" y="3032.753" width="216.614" height="108.307" style="fill:#143052;" /><rect x="759.089" y="3141.059" width="216.614" height="108.307" style="fill:#143052;" /><rect x="2491.997" y="3141.059" width="216.614" height="108.307" style="fill:#031f42;" /><rect x="2708.611" y="3141.059" width="108.307" height="108.307" style="fill:#143052;" /><rect x="867.396" y="3249.366" width="108.307" height="108.307" style="fill:#143052;" /><rect x="975.702" y="3249.366" width="324.92" height="108.307" style="fill:#031f42;" /><rect x="1300.623" y="3249.366" width="216.614" height="108.307" style="fill:#143052;" /><rect x="1517.236" y="3249.366" width="866.454" height="108.307" style="fill:#031f42;" /><rect x="2383.691" y="3249.366" width="216.614" height="108.307" style="fill:#143052;" /></svg>