<svg width="512" height="512" viewBox="0 0 512 512" fill="none" xmlns="http://www.w3.org/2000/svg">
<path fill-rule="evenodd" clip-rule="evenodd" d="M173.349 321.915H190.085V338.651H173.578L173.349 338.422V321.915ZM156.842 354.93V338.422H173.349L173.578 338.651V355.158H157.07L156.842 354.93ZM140.334 371.437V354.93H156.842L157.07 355.158V371.666H140.563L140.334 371.437ZM107.32 387.945V371.437H140.334L140.563 371.666V388.173H124.056L107.32 387.945ZM90.8122 404.452V387.945H107.32L124.056 388.173V404.681H91.0408L90.8122 404.452ZM90.8122 404.452H74.3048V421.188H91.0408V404.681L90.8122 404.452Z" fill="#C3C3C3"/>
<path fill-rule="evenodd" clip-rule="evenodd" d="M123.827 8.27539H388.173V24.7826H404.681V41.5186H387.945V25.0114H140.563V41.5186H107.548V58.026H91.0408V74.5334H74.5336V91.0408H58.0262V107.548H41.5188V140.563H25.0114V157.07H8.27539V123.827H24.7828V90.812H41.2902V74.3048H57.7974V57.7974H74.3048V41.29H90.8122V24.7826H123.827V8.27539Z" fill="#C3C3C3"/>
<path fill-rule="evenodd" clip-rule="evenodd" d="M371.666 24.7826H140.334V41.29H107.32V57.7974H90.8121V74.3048H74.3047V90.812H57.7973V107.319H41.2901V140.334H24.7827V371.666H41.2901V404.68L57.7973 404.681H74.5333V387.945H58.0261V354.93H41.5187V157.07H58.0261V140.563H74.5333V124.055H91.0407V91.0408H107.548V74.5334H140.563V58.026H173.578V41.5186H354.93V58.026H371.437V74.5334H387.944V91.0408H404.452V107.548H420.959V124.055H437.466V140.563H470.481V354.93H453.974V387.945H437.466V404.452H420.959V420.959H404.452V437.467H387.944V453.974H354.93V470.481H140.334V487.217H371.666V470.71H387.944H388.173H404.681V454.203H421.188V437.695H437.695V421.188H454.203V404.68H470.71V371.666H487.217V140.334L487.217 123.827H470.71V107.319H454.203V90.812H437.695V74.3048H421.188V57.7974H404.681V41.29H371.666V24.7826Z" fill="#202020"/>
<path fill-rule="evenodd" clip-rule="evenodd" d="M371.437 24.7826H388.173V41.5186H371.437V24.7826ZM8.27539 156.842H25.0114V190.085H8.27539V156.842Z" fill="#A9A9A9"/>
<path fill-rule="evenodd" clip-rule="evenodd" d="M404.452 24.7826H421.188V58.026H404.452V24.7826ZM420.959 57.7974H437.695V74.5334H420.959V57.7974ZM453.974 74.3048H470.71V91.0408H453.974V74.3048ZM470.481 107.319H487.217V124.055H470.481V107.319ZM8.27539 239.378H25.0114V256.114H8.27539V239.378Z" fill="#7A7A7A"/>
<path fill-rule="evenodd" clip-rule="evenodd" d="M437.695 140.336V123.828H421.188V107.321H404.68V90.813H388.173V74.3055H371.666V57.7977H355.158V41.29H173.349V57.7977H140.334V74.3055H107.319V90.813H90.8121V123.827H74.3047V140.334H57.7973V156.842H41.29V355.158H57.7973V388.173H107.548V371.666H124.055V355.158H140.563V338.651H157.07V305.408H140.563V288.9H124.055V255.886H107.548V157.07H124.055V124.055H140.563V107.549H157.07V91.0418H173.577V74.5341H206.592V58.0264H305.408V74.5341H338.422V91.0418H354.93V107.549H371.437V124.057H387.944V157.072H404.452V255.89H387.944V288.905H371.437V305.413H354.93V321.92H338.422V338.428H305.408V354.936H206.363V387.951H189.856V404.459H173.349V420.967H156.841V470.718H355.158V454.211H388.173V437.703H404.68V421.195H421.188V404.688H437.695V388.18H454.202V355.164H470.71V140.336H437.695Z" fill="#292929"/>
<path fill-rule="evenodd" clip-rule="evenodd" d="M420.959 41.29H437.695V58.026H420.959V41.29ZM437.467 57.7974H454.203V91.0408H437.467V57.7974ZM453.974 90.812H487.217V107.548H453.974V90.812ZM8.27539 189.856H25.0114V239.607H8.27539V189.856Z" fill="#707070"/>
<path fill-rule="evenodd" clip-rule="evenodd" d="M206.363 57.7974H305.636V74.5334H206.363V57.7974ZM173.349 74.3048H206.592V91.0408H173.349V74.3048ZM305.408 74.3048H338.651V91.0408H305.408V74.3048ZM156.841 90.812H173.577V107.548H156.841V90.812ZM338.422 90.812H355.158V107.548H338.422V90.812ZM140.334 107.319H157.07V124.055H140.334V107.319ZM354.93 107.319H371.666V124.055H354.93V107.319ZM123.827 123.827H140.563V157.07H123.827V123.827ZM371.437 123.827H388.173V157.07H371.437V123.827ZM107.319 156.842H124.055V256.114H107.319V156.842ZM387.944 156.842H404.68V256.114H387.944V156.842ZM123.827 255.886H140.563V289.129H123.827V255.886ZM371.437 255.886H388.173V289.129H371.437V255.886ZM140.334 288.9H157.07V305.636H140.334V288.9ZM354.93 288.9H371.666V305.636H354.93V288.9ZM156.841 305.408H173.577V322.144H156.841V305.408ZM338.422 305.408H355.158V322.144H338.422V305.408ZM305.408 321.915H338.651V338.651H305.408V321.915ZM222.871 338.422H305.636V355.158H222.871V338.422Z" fill="#181818"/>
<path fill-rule="evenodd" clip-rule="evenodd" d="M206.364 74.3048H305.636V91.0408H206.364V74.3048ZM173.349 90.812H206.592V107.548H173.349V90.812ZM305.408 90.812H338.651V107.548H305.408V90.812ZM156.842 107.319H173.578V124.055H156.842V107.319ZM338.423 107.319H355.159V124.055H338.423V107.319ZM140.334 123.827H157.07V157.07H140.334V123.827ZM354.93 123.827H371.666V157.07H354.93V123.827ZM486.989 123.827H503.725V289.129H486.989V123.827ZM123.827 156.842H140.563V256.114H123.827V156.842ZM371.437 156.842H388.173V256.114H371.437V156.842ZM8.27539 255.886H25.0114V305.636H8.27539V255.886ZM140.334 255.886H157.07V289.129H140.334V255.886ZM354.93 255.886H371.666V289.129H354.93V255.886ZM156.842 288.9H173.578V305.636H156.842V288.9ZM338.423 288.9H355.159V305.636H338.423V288.9ZM305.408 305.408H338.651V322.144H305.408V305.408ZM239.378 321.915H305.636V338.651H239.378V321.915ZM156.842 486.989H256.114V503.725H156.842V486.989Z" fill="#444444"/>
<path fill-rule="evenodd" clip-rule="evenodd" d="M190.085 289.129V305.636H173.349V289.129H156.841V256.114H140.334V156.842H156.841V123.827H173.349V107.319H206.363V90.812H305.636V107.319H338.651V123.827H355.158V156.842H371.666V256.114H355.158V289.129H338.651V305.636H305.636V322.144H239.378V305.408H255.886V288.9H272.393V256.114L223.099 256.114V272.622H206.592V289.129H190.085ZM239.607 190.085V222.871H272.393V190.085H239.607ZM173.577 222.871V190.085H206.363V222.871H173.577ZM239.607 173.349V140.563H272.393V173.349H239.607ZM338.422 222.871H305.636V190.085H338.422V222.871Z" fill="#5E5E5E"/>
<path fill-rule="evenodd" clip-rule="evenodd" d="M239.378 140.334H272.622V157.07H239.378V140.334ZM173.349 189.856H190.085V223.1H173.349V189.856ZM321.915 189.856H338.651V223.1H321.915V189.856ZM239.378 272.393H272.622V289.129H239.378V272.393ZM486.989 288.9H503.725V388.173H486.989V288.9ZM305.408 486.989H388.173V503.725H305.408V486.989Z" fill="#1E1E1E"/>
<path fill-rule="evenodd" clip-rule="evenodd" d="M24.7827 371.437H41.5187V404.452H58.0261V420.959H74.5333V437.467H91.0407V453.974H107.548V470.481H124.056V487.217L107.548 487.217H90.8121V470.71H74.3047V454.203H57.7973V437.695H41.2901V421.188H24.7827V371.437Z" fill="#1E1E1E"/>
<path fill-rule="evenodd" clip-rule="evenodd" d="M239.378 156.842H272.622V173.578H239.378V156.842ZM189.856 189.856H206.592V223.1H189.856V189.856ZM305.408 189.856H322.144V223.1H305.408V189.856ZM255.886 255.886H272.622V272.622H255.886V255.886Z" fill="#121212"/>
<path fill-rule="evenodd" clip-rule="evenodd" d="M239.378 189.856H272.622V223.1H239.378V189.856Z" fill="#686868"/>
<path fill-rule="evenodd" clip-rule="evenodd" d="M256.114 255.886H222.871V272.393H206.363V288.9V289.129V305.636H223.099V289.129H239.607V272.622H256.114V255.886Z" fill="white"/>
<path fill-rule="evenodd" clip-rule="evenodd" d="M189.856 288.9H206.592V322.144H190.085H189.856H173.577V338.651H157.07V355.158H140.563V371.666H123.827V354.93H140.334V338.422H156.841V321.915H173.349V305.408H189.856V288.9Z" fill="#EDEDED"/>
<path fill-rule="evenodd" clip-rule="evenodd" d="M256.114 288.9H222.871V305.408V305.636V321.915H206.363V338.422H189.856V371.437H173.349V387.945H156.841V404.452H140.334V437.467H123.827V453.974H107.319V470.71H123.827H124.055L140.563 470.71H157.07V421.188H173.577V404.681H190.085V388.173H206.592V355.158H223.099V338.651H239.607V305.636H256.114V288.9Z" fill="#0E0E0E"/>
<path fill-rule="evenodd" clip-rule="evenodd" d="M8.27539 305.408H25.0114V388.173H8.27539V305.408Z" fill="#363636"/>
<path fill-rule="evenodd" clip-rule="evenodd" d="M140.563 470.481H123.827V503.725H140.334H140.563H157.07V486.989H140.563V470.481Z" fill="#363636"/>
<path fill-rule="evenodd" clip-rule="evenodd" d="M255.886 486.989H272.622V503.725H255.886V486.989Z" fill="#363636"/>
<path fill-rule="evenodd" clip-rule="evenodd" d="M206.363 305.408H223.099V322.144H206.592V338.651H190.085V355.158H173.577V388.173H157.07V404.681H140.563V421.188H124.055V454.202H90.8121V437.695H74.3047V420.959H90.8121V404.452H123.827V387.944H140.334V371.437H156.841V354.93H173.349V338.422H189.856V321.915H206.363V305.408Z" fill="#A1A1A1"/>
<path fill-rule="evenodd" clip-rule="evenodd" d="M173.349 354.93H190.085V371.666H173.349V354.93ZM123.827 420.959H140.563V437.695H123.827V420.959Z" fill="#6A6A6A"/>
<path fill-rule="evenodd" clip-rule="evenodd" d="M305.636 486.989H272.393V503.725H305.636V486.989Z" fill="#2A2A2A"/>
<path fill-rule="evenodd" clip-rule="evenodd" d="M487.217 371.437H470.481V404.452H453.974V420.959H437.466V437.467H420.959V453.974H404.452V470.481H371.437V487.217L404.452 487.217H421.188V470.71H437.695V454.203H454.202V437.695H470.71V421.188H487.217V371.437Z" fill="#2A2A2A"/>
<path fill-rule="evenodd" clip-rule="evenodd" d="M74.3048 387.945H91.0408V404.681H74.3048V387.945ZM57.7974 404.452H74.5334V421.188H57.7974V404.452Z" fill="#B1B1B1"/>
</svg>
