<?xml version='1.0' encoding='utf-8'?>
<svg xmlns="http://www.w3.org/2000/svg" viewBox="0 0 3357.7909999999997 3358.1319999999996" width="512" height="512" version="1.1" xml:space="preserve" style="fill-rule:evenodd;clip-rule:evenodd;stroke-linejoin:round;stroke-miterlimit:2;"><rect x="866.735" y="108.929" width="1732.908" height="108.307" style="fill:#2e2700;" /><rect x="650.122" y="217.236" width="324.92" height="108.307" style="fill:#2e2700;" /><rect x="975.042" y="217.236" width="1516.295" height="108.307" style="fill:#231e00;" /><rect x="2491.337" y="217.236" width="324.92" height="108.307" style="fill:#2e2700;" /><rect x="541.815" y="325.542" width="216.614" height="108.307" style="fill:#2e2700;" /><rect x="758.428" y="325.542" width="433.227" height="108.307" style="fill:#231e00;" /><rect x="1191.655" y="325.542" width="649.841" height="108.307" /><rect x="1841.496" y="325.542" width="866.454" height="108.307" style="fill:#231e00;" /><rect x="2707.95" y="325.542" width="216.614" height="108.307" style="fill:#2e2700;" /><rect x="433.508" y="433.849" width="216.614" height="108.307" style="fill:#2e2700;" /><rect x="650.122" y="433.849" width="324.92" height="108.307" style="fill:#231e00;" /><rect x="975.042" y="433.849" width="216.614" height="108.307" /><rect x="1191.655" y="433.849" width="649.841" height="216.614" style="fill:#fffdf1;" /><rect x="1841.496" y="433.849" width="216.614" height="108.307" /><rect x="2058.11" y="433.849" width="758.147" height="108.307" style="fill:#231e00;" /><rect x="2816.257" y="433.849" width="216.614" height="108.307" style="fill:#2e2700;" /><rect x="325.201" y="542.156" width="216.614" height="108.307" style="fill:#2e2700;" /><rect x="541.815" y="542.156" width="216.614" height="108.307" style="fill:#231e00;" /><rect x="758.428" y="542.156" width="216.614" height="108.307" /><rect x="975.042" y="542.156" width="216.614" height="216.614" style="fill:#fffdf1;" /><rect x="1841.496" y="542.156" width="216.614" height="108.307" style="fill:#fffdf1;" /><rect x="2058.11" y="542.156" width="216.614" height="108.307" /><rect x="2274.723" y="542.156" width="649.841" height="108.307" style="fill:#231e00;" /><rect x="2924.564" y="542.156" width="216.614" height="108.307" style="fill:#2e2700;" /><rect x="216.894" y="650.463" width="216.614" height="108.307" style="fill:#2e2700;" /><rect x="433.508" y="650.463" width="216.614" height="108.307" style="fill:#231e00;" /><rect x="650.122" y="650.463" width="108.307" height="108.307" /><rect x="758.428" y="650.463" width="216.614" height="108.307" style="fill:#fffdf1;" /><rect x="1191.655" y="650.463" width="216.614" height="108.307" style="fill:#fffdf1;" /><rect x="1408.269" y="650.463" width="324.92" height="108.307" style="fill:#fffadd;" /><rect x="1733.189" y="650.463" width="216.614" height="324.92" style="fill:#fff9d6;" /><rect x="1949.803" y="650.463" width="324.92" height="108.307" style="fill:#fffdf1;" /><rect x="2274.723" y="650.463" width="108.307" height="108.307" /><rect x="2383.03" y="650.463" width="649.841" height="108.307" style="fill:#231e00;" /><rect x="3032.871" y="650.463" width="216.614" height="108.307" style="fill:#2e2700;" /><rect x="216.894" y="758.77" width="108.307" height="216.614" style="fill:#2e2700;" /><rect x="325.201" y="758.77" width="216.614" height="216.614" style="fill:#231e00;" /><rect x="541.815" y="758.77" width="108.307" height="216.614" /><rect x="650.122" y="758.77" width="216.614" height="108.307" style="fill:#fffdf1;" /><rect x="866.735" y="758.77" width="649.841" height="108.307" style="fill:#fffadd;" /><rect x="1516.576" y="758.77" width="216.614" height="108.307" style="fill:#fffadd;" /><rect x="1949.803" y="758.77" width="108.307" height="108.307" style="fill:#fff9d6;" /><rect x="2058.11" y="758.77" width="216.614" height="541.534" style="fill:#fff8cd;" /><rect x="2274.723" y="758.77" width="108.307" height="216.614" style="fill:#fffdf1;" /><rect x="2383.03" y="758.77" width="433.227" height="108.307" /><rect x="2816.257" y="758.77" width="324.92" height="108.307" style="fill:#231e00;" /><rect x="3141.178" y="758.77" width="108.307" height="216.614" style="fill:#2e2700;" /><rect x="108.588" y="867.076" width="108.307" height="1732.908" style="fill:#2e2700;" /><rect x="650.122" y="867.076" width="108.307" height="108.307" style="fill:#fffdf1;" /><rect x="758.428" y="867.076" width="216.614" height="108.307" style="fill:#fffadd;" /><rect x="975.042" y="867.076" width="324.92" height="108.307" style="fill:#ffbe29;" /><rect x="1299.962" y="867.076" width="108.307" height="866.454" style="fill:#f5d68d;" /><rect x="1408.269" y="867.076" width="216.614" height="108.307" style="fill:#fffadd;" /><rect x="1624.883" y="867.076" width="108.307" height="216.614" style="fill:#fff9d6;" /><rect x="1949.803" y="867.076" width="108.307" height="433.227" style="fill:#fff8cd;" /><rect x="2383.03" y="867.076" width="433.227" height="108.307" style="fill:#fffdf1;" /><rect x="2816.257" y="867.076" width="108.307" height="108.307" /><rect x="2924.564" y="867.076" width="216.614" height="108.307" style="fill:#231e00;" /><rect x="3249.484" y="867.076" width="108.307" height="1732.908" style="fill:#2e2700;" /><rect x="216.894" y="975.383" width="216.614" height="108.307" style="fill:#231e00;" /><rect x="433.508" y="975.383" width="108.307" height="108.307" /><rect x="541.815" y="975.383" width="108.307" height="108.307" style="fill:#fffdf1;" /><rect x="650.122" y="975.383" width="216.614" height="108.307" style="fill:#fffadd;" /><rect x="866.735" y="975.383" width="216.614" height="108.307" style="fill:#ffbe29;" /><rect x="1083.349" y="975.383" width="216.614" height="758.147" style="fill:#f5d68d;" /><rect x="1408.269" y="975.383" width="108.307" height="649.841" style="fill:#f5d68d;" /><rect x="1516.576" y="975.383" width="108.307" height="108.307" style="fill:#fffadd;" /><rect x="1733.189" y="975.383" width="108.307" height="1299.681" style="fill:#fffbe4;" /><rect x="1841.496" y="975.383" width="108.307" height="324.92" style="fill:#fff8cd;" /><rect x="2274.723" y="975.383" width="433.227" height="433.227" style="fill:#fff8cd;" /><rect x="2707.95" y="975.383" width="216.614" height="108.307" style="fill:#fffdf1;" /><rect x="2924.564" y="975.383" width="108.307" height="108.307" /><rect x="3032.871" y="975.383" width="216.614" height="108.307" style="fill:#231e00;" /><rect x="216.894" y="1083.69" width="108.307" height="216.614" style="fill:#231e00;" /><rect x="325.201" y="1083.69" width="108.307" height="216.614" /><rect x="433.508" y="1083.69" width="108.307" height="649.841" style="fill:#fffdf1;" /><rect x="541.815" y="1083.69" width="216.614" height="108.307" style="fill:#fffadd;" /><rect x="758.428" y="1083.69" width="216.614" height="108.307" style="fill:#ffbe29;" /><rect x="975.042" y="1083.69" width="108.307" height="649.841" style="fill:#f5d68d;" /><rect x="1516.576" y="1083.69" width="108.307" height="433.227" style="fill:#f5d68d;" /><rect x="1624.883" y="1083.69" width="108.307" height="108.307" style="fill:#f7cb63;" /><rect x="2707.95" y="1083.69" width="108.307" height="974.761" style="fill:#fff8cd;" /><rect x="2816.257" y="1083.69" width="216.614" height="108.307" style="fill:#fffdf1;" /><rect x="3032.871" y="1083.69" width="108.307" height="433.227" /><rect x="3141.178" y="1083.69" width="108.307" height="433.227" style="fill:#231e00;" /><rect x="541.815" y="1191.997" width="108.307" height="324.92" style="fill:#fffadd;" /><rect x="650.122" y="1191.997" width="108.307" height="433.227" style="fill:#f7cb63;" /><rect x="758.428" y="1191.997" width="108.307" height="216.614" style="fill:#ffbe29;" /><rect x="866.735" y="1191.997" width="108.307" height="433.227" style="fill:#f5d68d;" /><rect x="1624.883" y="1191.997" width="108.307" height="433.227" style="fill:#f7cb63;" /><rect x="2816.257" y="1191.997" width="108.307" height="866.454" style="fill:#fff8cd;" /><rect x="2924.564" y="1191.997" width="108.307" height="324.92" style="fill:#fffdf1;" /><rect x="216.894" y="1300.303" width="108.307" height="866.454" /><rect x="325.201" y="1300.303" width="108.307" height="866.454" style="fill:#fffdf1;" /><rect x="1841.496" y="1300.303" width="108.307" height="108.307" style="fill:#fff8cd;" /><rect x="1949.803" y="1300.303" width="108.307" height="108.307" style="fill:#fff8cd;" /><rect x="2058.11" y="1300.303" width="108.307" height="108.307" style="fill:#fff8cd;" /><rect x="2166.417" y="1300.303" width="108.307" height="108.307" style="fill:#fff8cd;" /><rect x="758.428" y="1408.61" width="108.307" height="108.307" style="fill:#f5d68d;" /><rect x="1841.496" y="1408.61" width="108.307" height="108.307" style="fill:#fff8cd;" /><rect x="1949.803" y="1408.61" width="108.307" height="108.307" style="fill:#fff8cd;" /><rect x="2058.11" y="1408.61" width="108.307" height="108.307" style="fill:#fff8cd;" /><rect x="2166.417" y="1408.61" width="108.307" height="108.307" style="fill:#fff8cd;" /><rect x="2274.723" y="1408.61" width="108.307" height="108.307" style="fill:#fff8cd;" /><rect x="2383.03" y="1408.61" width="324.92" height="216.614" style="fill:#fff8cd;" /><rect x="541.815" y="1516.917" width="108.307" height="108.307" style="fill:#fffadd;" /><rect x="758.428" y="1516.917" width="108.307" height="216.614" style="fill:#f7cb63;" /><rect x="1516.576" y="1516.917" width="108.307" height="216.614" style="fill:#f7cb63;" /><rect x="1841.496" y="1516.917" width="108.307" height="866.454" style="fill:#fffbe4;" /><rect x="1949.803" y="1516.917" width="108.307" height="108.307" style="fill:#fff8cd;" /><rect x="2058.11" y="1516.917" width="108.307" height="108.307" style="fill:#fff8cd;" /><rect x="2166.417" y="1516.917" width="108.307" height="108.307" style="fill:#fff8cd;" /><rect x="2274.723" y="1516.917" width="108.307" height="108.307" style="fill:#fff8cd;" /><rect x="2924.564" y="1516.917" width="108.307" height="433.227" style="fill:#fff8cd;" /><rect x="3032.871" y="1516.917" width="108.307" height="758.147" style="fill:#fffdf1;" /><rect x="3141.178" y="1516.917" width="108.307" height="758.147" /><rect x="541.815" y="1625.224" width="108.307" height="649.841" style="fill:#fff8cd;" /><rect x="650.122" y="1625.224" width="108.307" height="108.307" style="fill:#ecb533;" /><rect x="866.735" y="1625.224" width="108.307" height="216.614" style="fill:#f7cb63;" /><rect x="1408.269" y="1625.224" width="108.307" height="216.614" style="fill:#f7cb63;" /><rect x="1624.883" y="1625.224" width="108.307" height="108.307" style="fill:#ecb533;" /><rect x="1949.803" y="1625.224" width="108.307" height="866.454" style="fill:#fffbe4;" /><rect x="2058.11" y="1625.224" width="108.307" height="216.614" style="fill:#fff8cd;" /><rect x="2166.417" y="1625.224" width="108.307" height="108.307" style="fill:#fff8cd;" /><rect x="2274.723" y="1625.224" width="108.307" height="108.307" style="fill:#fff8cd;" /><rect x="2383.03" y="1625.224" width="108.307" height="108.307" style="fill:#fff8cd;" /><rect x="2491.337" y="1625.224" width="216.614" height="108.307" style="fill:#fff8cd;" /><rect x="433.508" y="1733.531" width="108.307" height="324.92" style="fill:#fff8cd;" /><rect x="650.122" y="1733.531" width="108.307" height="649.841" style="fill:#fff8cd;" /><rect x="758.428" y="1733.531" width="108.307" height="108.307" style="fill:#ecb533;" /><rect x="975.042" y="1733.531" width="433.227" height="216.614" style="fill:#f7cb63;" /><rect x="1516.576" y="1733.531" width="108.307" height="108.307" style="fill:#ecb533;" /><rect x="1624.883" y="1733.531" width="108.307" height="541.534" style="fill:#fffbe4;" /><rect x="2166.417" y="1733.531" width="108.307" height="108.307" style="fill:#fff8cd;" /><rect x="2274.723" y="1733.531" width="108.307" height="108.307" style="fill:#fff8cd;" /><rect x="2383.03" y="1733.531" width="108.307" height="108.307" style="fill:#fff8cd;" /><rect x="2491.337" y="1733.531" width="108.307" height="108.307" style="fill:#fff8cd;" /><rect x="2599.644" y="1733.531" width="108.307" height="108.307" style="fill:#fff8cd;" /><rect x="758.428" y="1841.837" width="108.307" height="649.841" style="fill:#fff8cd;" /><rect x="866.735" y="1841.837" width="108.307" height="108.307" style="fill:#ecb533;" /><rect x="1408.269" y="1841.837" width="108.307" height="108.307" style="fill:#ecb533;" /><rect x="1516.576" y="1841.837" width="108.307" height="433.227" style="fill:#fffbe4;" /><rect x="2058.11" y="1841.837" width="108.307" height="649.841" style="fill:#fffbe4;" /><rect x="2166.417" y="1841.837" width="108.307" height="108.307" style="fill:#fff8cd;" /><rect x="2274.723" y="1841.837" width="108.307" height="108.307" style="fill:#fff8cd;" /><rect x="2383.03" y="1841.837" width="108.307" height="108.307" style="fill:#fff8cd;" /><rect x="2491.337" y="1841.837" width="108.307" height="108.307" style="fill:#fff8cd;" /><rect x="2599.644" y="1841.837" width="108.307" height="108.307" style="fill:#fff8cd;" /><rect x="866.735" y="1950.144" width="108.307" height="649.841" style="fill:#fff8cd;" /><rect x="975.042" y="1950.144" width="433.227" height="108.307" style="fill:#ecb533;" /><rect x="1408.269" y="1950.144" width="108.307" height="324.92" style="fill:#fffbe4;" /><rect x="2166.417" y="1950.144" width="108.307" height="541.534" style="fill:#fffbe4;" /><rect x="2274.723" y="1950.144" width="108.307" height="108.307" style="fill:#fff8cd;" /><rect x="2383.03" y="1950.144" width="108.307" height="108.307" style="fill:#fff8cd;" /><rect x="2491.337" y="1950.144" width="108.307" height="108.307" style="fill:#fff8cd;" /><rect x="2599.644" y="1950.144" width="108.307" height="108.307" style="fill:#fff8cd;" /><rect x="2924.564" y="1950.144" width="108.307" height="324.92" style="fill:#fffbe4;" /><rect x="433.508" y="2058.451" width="108.307" height="216.614" style="fill:#fffdf1;" /><rect x="975.042" y="2058.451" width="216.614" height="649.841" style="fill:#fff8cd;" /><rect x="1191.655" y="2058.451" width="216.614" height="108.307" style="fill:#fffbe4;" /><rect x="2274.723" y="2058.451" width="216.614" height="433.227" style="fill:#fffbe4;" /><rect x="2491.337" y="2058.451" width="108.307" height="108.307" style="fill:#fffbe4;" /><rect x="2599.644" y="2058.451" width="324.92" height="216.614" style="fill:#fffbe4;" /><rect x="216.894" y="2166.758" width="108.307" height="324.92" style="fill:#231e00;" /><rect x="325.201" y="2166.758" width="108.307" height="108.307" /><rect x="1191.655" y="2166.758" width="108.307" height="649.841" style="fill:#fff8cd;" /><rect x="1299.962" y="2166.758" width="108.307" height="108.307" style="fill:#fffbe4;" /><rect x="2491.337" y="2166.758" width="108.307" height="324.92" style="fill:#fffbe4;" /><rect x="325.201" y="2275.064" width="108.307" height="433.227" style="fill:#231e00;" /><rect x="433.508" y="2275.064" width="108.307" height="216.614" /><rect x="541.815" y="2275.064" width="108.307" height="216.614" style="fill:#fffdf1;" /><rect x="1299.962" y="2275.064" width="541.534" height="541.534" style="fill:#fff8cd;" /><rect x="2599.644" y="2275.064" width="216.614" height="108.307" style="fill:#fffbe4;" /><rect x="2816.257" y="2275.064" width="216.614" height="108.307" style="fill:#fffdf1;" /><rect x="3032.871" y="2275.064" width="108.307" height="108.307" /><rect x="3141.178" y="2275.064" width="108.307" height="216.614" style="fill:#231e00;" /><rect x="650.122" y="2383.371" width="108.307" height="216.614" style="fill:#fffdf1;" /><rect x="1841.496" y="2383.371" width="108.307" height="324.92" style="fill:#fff8cd;" /><rect x="2599.644" y="2383.371" width="108.307" height="108.307" style="fill:#fffbe4;" /><rect x="2707.95" y="2383.371" width="108.307" height="108.307" style="fill:#fffdf1;" /><rect x="2816.257" y="2383.371" width="216.614" height="108.307" /><rect x="3032.871" y="2383.371" width="108.307" height="324.92" style="fill:#231e00;" /><rect x="216.894" y="2491.678" width="108.307" height="324.92" style="fill:#2e2700;" /><rect x="433.508" y="2491.678" width="108.307" height="324.92" style="fill:#231e00;" /><rect x="541.815" y="2491.678" width="108.307" height="108.307" /><rect x="758.428" y="2491.678" width="108.307" height="216.614" style="fill:#fffdf1;" /><rect x="1949.803" y="2491.678" width="108.307" height="108.307" style="fill:#fff8cd;" /><rect x="2058.11" y="2491.678" width="649.841" height="108.307" style="fill:#fffdf1;" /><rect x="2707.95" y="2491.678" width="108.307" height="108.307" /><rect x="2816.257" y="2491.678" width="216.614" height="324.92" style="fill:#231e00;" /><rect x="3141.178" y="2491.678" width="108.307" height="324.92" style="fill:#2e2700;" /><rect x="541.815" y="2599.985" width="108.307" height="324.92" style="fill:#231e00;" /><rect x="650.122" y="2599.985" width="108.307" height="108.307" /><rect x="866.735" y="2599.985" width="108.307" height="216.614" style="fill:#fffdf1;" /><rect x="1949.803" y="2599.985" width="216.614" height="108.307" style="fill:#fffdf1;" /><rect x="2166.417" y="2599.985" width="541.534" height="108.307" /><rect x="2707.95" y="2599.985" width="108.307" height="433.227" style="fill:#231e00;" /><rect x="325.201" y="2708.292" width="108.307" height="216.614" style="fill:#2e2700;" /><rect x="650.122" y="2708.292" width="108.307" height="324.92" style="fill:#231e00;" /><rect x="758.428" y="2708.292" width="108.307" height="108.307" /><rect x="975.042" y="2708.292" width="108.307" height="216.614" style="fill:#fffdf1;" /><rect x="1083.349" y="2708.292" width="108.307" height="108.307" style="fill:#fff8cd;" /><rect x="1841.496" y="2708.292" width="216.614" height="108.307" style="fill:#fffdf1;" /><rect x="2058.11" y="2708.292" width="108.307" height="108.307" /><rect x="2166.417" y="2708.292" width="541.534" height="433.227" style="fill:#231e00;" /><rect x="3032.871" y="2708.292" width="108.307" height="216.614" style="fill:#2e2700;" /><rect x="433.508" y="2816.598" width="108.307" height="216.614" style="fill:#2e2700;" /><rect x="758.428" y="2816.598" width="108.307" height="324.92" style="fill:#231e00;" /><rect x="866.735" y="2816.598" width="108.307" height="108.307" /><rect x="1083.349" y="2816.598" width="216.614" height="108.307" style="fill:#fffdf1;" /><rect x="1299.962" y="2816.598" width="433.227" height="108.307" style="fill:#fff8cd;" /><rect x="1733.189" y="2816.598" width="216.614" height="108.307" style="fill:#fffdf1;" /><rect x="1949.803" y="2816.598" width="108.307" height="108.307" /><rect x="2058.11" y="2816.598" width="108.307" height="433.227" style="fill:#231e00;" /><rect x="2816.257" y="2816.598" width="108.307" height="108.307" style="fill:#231e00;" /><rect x="2924.564" y="2816.598" width="108.307" height="216.614" style="fill:#2e2700;" /><rect x="541.815" y="2924.905" width="108.307" height="216.614" style="fill:#2e2700;" /><rect x="866.735" y="2924.905" width="108.307" height="216.614" style="fill:#231e00;" /><rect x="975.042" y="2924.905" width="216.614" height="108.307" /><rect x="1191.655" y="2924.905" width="649.841" height="108.307" style="fill:#fffdf1;" /><rect x="1841.496" y="2924.905" width="108.307" height="108.307" /><rect x="1949.803" y="2924.905" width="108.307" height="324.92" style="fill:#231e00;" /><rect x="2816.257" y="2924.905" width="108.307" height="216.614" style="fill:#2e2700;" /><rect x="650.122" y="3033.212" width="108.307" height="216.614" style="fill:#2e2700;" /><rect x="975.042" y="3033.212" width="216.614" height="216.614" style="fill:#231e00;" /><rect x="1191.655" y="3033.212" width="649.841" height="108.307" /><rect x="1841.496" y="3033.212" width="108.307" height="216.614" style="fill:#231e00;" /><rect x="2707.95" y="3033.212" width="108.307" height="216.614" style="fill:#2e2700;" /><rect x="758.428" y="3141.519" width="216.614" height="108.307" style="fill:#2e2700;" /><rect x="1191.655" y="3141.519" width="649.841" height="108.307" style="fill:#231e00;" /><rect x="2166.417" y="3141.519" width="324.92" height="108.307" style="fill:#231e00;" /><rect x="2491.337" y="3141.519" width="216.614" height="108.307" style="fill:#2e2700;" /><rect x="866.735" y="3249.825" width="1732.908" height="108.307" style="fill:#2e2700;" /></svg>