<?xml version="1.0" encoding="UTF-8" ?>
<svg viewBox="0 0 32 32" version="1.1" width="512" height="512" xmlns="http://www.w3.org/2000/svg" shape-rendering="crispEdges">
<rect x="7" y="1" width="18" height="1" fill="#004BA4" />
<rect x="5" y="2" width="3" height="1" fill="#004BA4" />
<rect x="8" y="2" width="19" height="1" fill="#052F63" />
<rect x="4" y="3" width="2" height="1" fill="#004BA4" />
<rect x="6" y="3" width="7" height="1" fill="#052F63" />
<rect x="13" y="3" width="6" height="1" fill="#9EEA58" />
<rect x="19" y="3" width="9" height="1" fill="#052F63" />
<rect x="3" y="4" width="2" height="1" fill="#004BA4" />
<rect x="5" y="4" width="5" height="1" fill="#052F63" />
<rect x="10" y="4" width="4" height="1" fill="#9EEA58" />
<rect x="14" y="4" width="4" height="1" fill="#7AC139" />
<rect x="18" y="4" width="4" height="1" fill="#9EEA58" />
<rect x="22" y="4" width="7" height="1" fill="#052F63" />
<rect x="2" y="5" width="2" height="1" fill="#004BA4" />
<rect x="4" y="5" width="5" height="1" fill="#052F63" />
<rect x="9" y="5" width="2" height="1" fill="#9EEA58" />
<rect x="11" y="5" width="2" height="1" fill="#7AC139" />
<rect x="13" y="5" width="4" height="2" fill="#0075FF" />
<rect x="17" y="5" width="4" height="1" fill="#7AC139" />
<rect x="21" y="5" width="2" height="1" fill="#9EEA58" />
<rect x="23" y="5" width="7" height="1" fill="#052F63" />
<rect x="2" y="6" width="1" height="2" fill="#004BA4" />
<rect x="3" y="6" width="5" height="1" fill="#052F63" />
<rect x="8" y="6" width="2" height="1" fill="#9EEA58" />
<rect x="10" y="6" width="2" height="1" fill="#7AC139" />
<rect x="12" y="6" width="1" height="5" fill="#0075FF" />
<rect x="17" y="6" width="2" height="1" fill="#0075FF" />
<rect x="19" y="6" width="1" height="2" fill="#0066DE" />
<rect x="20" y="6" width="2" height="10" fill="#7AC139" />
<rect x="22" y="6" width="2" height="1" fill="#9EEA58" />
<rect x="24" y="6" width="6" height="1" fill="#052F63" />
<rect x="1" y="7" width="1" height="18" fill="#004BA4" />
<rect x="3" y="7" width="4" height="1" fill="#052F63" />
<rect x="7" y="7" width="5" height="1" fill="#0075FF" />
<rect x="13" y="7" width="1" height="3" fill="#0075FF" />
<rect x="14" y="7" width="2" height="1" fill="#9EEA58" />
<rect x="16" y="7" width="3" height="1" fill="#0066DE" />
<rect x="22" y="7" width="1" height="7" fill="#7AC139" />
<rect x="23" y="7" width="2" height="1" fill="#9EEA58" />
<rect x="25" y="7" width="5" height="1" fill="#052F63" />
<rect x="30" y="7" width="1" height="18" fill="#000A17" />
<rect x="2" y="8" width="4" height="1" fill="#052F63" />
<rect x="6" y="8" width="2" height="1" fill="#0075FF" />
<rect x="8" y="8" width="1" height="3" fill="#0F74EA" />
<rect x="9" y="8" width="3" height="1" fill="#0075FF" />
<rect x="14" y="8" width="1" height="7" fill="#7AC139" />
<rect x="15" y="8" width="2" height="1" fill="#9EEA58" />
<rect x="17" y="8" width="2" height="1" fill="#0066DE" />
<rect x="19" y="8" width="1" height="2" fill="#9EEA58" />
<rect x="23" y="8" width="1" height="6" fill="#7AC139" />
<rect x="24" y="8" width="2" height="1" fill="#9EEA58" />
<rect x="26" y="8" width="4" height="1" fill="#052F63" />
<rect x="2" y="9" width="3" height="1" fill="#052F63" />
<rect x="5" y="9" width="1" height="2" fill="#0066DE" />
<rect x="6" y="9" width="1" height="1" fill="#0075FF" />
<rect x="7" y="9" width="1" height="1" fill="#0F74EA" />
<rect x="9" y="9" width="1" height="1" fill="#0F74EA" />
<rect x="10" y="9" width="2" height="4" fill="#0075FF" />
<rect x="15" y="9" width="1" height="8" fill="#7AC139" />
<rect x="16" y="9" width="3" height="1" fill="#9EEA58" />
<rect x="24" y="9" width="1" height="6" fill="#7AC139" />
<rect x="25" y="9" width="2" height="1" fill="#9EEA58" />
<rect x="27" y="9" width="3" height="1" fill="#052F63" />
<rect x="2" y="10" width="2" height="3" fill="#052F63" />
<rect x="4" y="10" width="1" height="5" fill="#9EEA58" />
<rect x="6" y="10" width="1" height="2" fill="#0066DE" />
<rect x="7" y="10" width="1" height="2" fill="#0075FF" />
<rect x="9" y="10" width="1" height="3" fill="#0075FF" />
<rect x="13" y="10" width="1" height="4" fill="#7AC139" />
<rect x="16" y="10" width="4" height="8" fill="#7AC139" />
<rect x="25" y="10" width="1" height="8" fill="#7AC139" />
<rect x="26" y="10" width="2" height="1" fill="#9EEA58" />
<rect x="28" y="10" width="2" height="3" fill="#052F63" />
<rect x="5" y="11" width="1" height="10" fill="#7AC139" />
<rect x="8" y="11" width="1" height="2" fill="#0075FF" />
<rect x="12" y="11" width="1" height="3" fill="#7AC139" />
<rect x="26" y="11" width="1" height="7" fill="#7AC139" />
<rect x="27" y="11" width="1" height="3" fill="#9EEA58" />
<rect x="6" y="12" width="1" height="10" fill="#7AC139" />
<rect x="7" y="12" width="1" height="1" fill="#0066DE" />
<rect x="2" y="13" width="1" height="14" fill="#052F63" />
<rect x="3" y="13" width="1" height="6" fill="#9EEA58" />
<rect x="7" y="13" width="1" height="9" fill="#7AC139" />
<rect x="8" y="13" width="2" height="1" fill="#0066DE" />
<rect x="10" y="13" width="1" height="1" fill="#0075FF" />
<rect x="11" y="13" width="1" height="2" fill="#7AC139" />
<rect x="28" y="13" width="1" height="7" fill="#9EEA58" />
<rect x="29" y="13" width="1" height="11" fill="#052F63" />
<rect x="8" y="14" width="3" height="1" fill="#7AC139" />
<rect x="12" y="14" width="2" height="1" fill="#0066DE" />
<rect x="22" y="14" width="2" height="2" fill="#0066DE" />
<rect x="27" y="14" width="1" height="7" fill="#7AC139" />
<rect x="4" y="15" width="1" height="2" fill="#7AC139" />
<rect x="8" y="15" width="2" height="1" fill="#7AC139" />
<rect x="10" y="15" width="3" height="1" fill="#0066DE" />
<rect x="13" y="15" width="2" height="3" fill="#0075FF" />
<rect x="24" y="15" width="1" height="4" fill="#0066DE" />
<rect x="8" y="16" width="1" height="3" fill="#7AC139" />
<rect x="9" y="16" width="2" height="1" fill="#0066DE" />
<rect x="11" y="16" width="2" height="2" fill="#0075FF" />
<rect x="20" y="16" width="1" height="2" fill="#7AC139" />
<rect x="21" y="16" width="2" height="1" fill="#0066DE" />
<rect x="23" y="16" width="1" height="6" fill="#0075FF" />
<rect x="4" y="17" width="1" height="5" fill="#9EEA58" />
<rect x="9" y="17" width="1" height="3" fill="#0066DE" />
<rect x="10" y="17" width="1" height="9" fill="#0075FF" />
<rect x="15" y="17" width="1" height="2" fill="#0075FF" />
<rect x="21" y="17" width="1" height="2" fill="#0066DE" />
<rect x="22" y="17" width="1" height="6" fill="#0075FF" />
<rect x="11" y="18" width="1" height="1" fill="#0075FF" />
<rect x="12" y="18" width="3" height="1" fill="#1F86FF" />
<rect x="16" y="18" width="1" height="8" fill="#0075FF" />
<rect x="17" y="18" width="3" height="2" fill="#7AC139" />
<rect x="20" y="18" width="1" height="3" fill="#0066DE" />
<rect x="25" y="18" width="2" height="2" fill="#0066DE" />
<rect x="3" y="19" width="1" height="9" fill="#052F63" />
<rect x="8" y="19" width="1" height="4" fill="#0066DE" />
<rect x="11" y="19" width="2" height="1" fill="#1F86FF" />
<rect x="13" y="19" width="1" height="3" fill="#2E8EFF" />
<rect x="14" y="19" width="2" height="1" fill="#1F86FF" />
<rect x="21" y="19" width="1" height="7" fill="#0075FF" />
<rect x="24" y="19" width="1" height="2" fill="#0075FF" />
<rect x="9" y="20" width="1" height="6" fill="#0075FF" />
<rect x="11" y="20" width="1" height="2" fill="#1F86FF" />
<rect x="12" y="20" width="1" height="1" fill="#2E8EFF" />
<rect x="14" y="20" width="1" height="1" fill="#2E8EFF" />
<rect x="15" y="20" width="1" height="2" fill="#1F86FF" />
<rect x="17" y="20" width="1" height="6" fill="#0075FF" />
<rect x="18" y="20" width="2" height="1" fill="#7AC139" />
<rect x="25" y="20" width="1" height="2" fill="#0075FF" />
<rect x="26" y="20" width="1" height="2" fill="#0066DE" />
<rect x="28" y="20" width="1" height="6" fill="#052F63" />
<rect x="5" y="21" width="1" height="2" fill="#9EEA58" />
<rect x="12" y="21" width="1" height="2" fill="#1F86FF" />
<rect x="14" y="21" width="1" height="2" fill="#1F86FF" />
<rect x="18" y="21" width="3" height="5" fill="#0075FF" />
<rect x="24" y="21" width="1" height="2" fill="#9EEA58" />
<rect x="27" y="21" width="1" height="1" fill="#0066DE" />
<rect x="4" y="22" width="1" height="7" fill="#052F63" />
<rect x="6" y="22" width="2" height="1" fill="#9EEA58" />
<rect x="11" y="22" width="1" height="3" fill="#0075FF" />
<rect x="13" y="22" width="1" height="1" fill="#1F86FF" />
<rect x="15" y="22" width="1" height="4" fill="#0075FF" />
<rect x="23" y="22" width="1" height="2" fill="#9EEA58" />
<rect x="25" y="22" width="1" height="2" fill="#0066DE" />
<rect x="26" y="22" width="1" height="1" fill="#0075FF" />
<rect x="27" y="22" width="1" height="5" fill="#052F63" />
<rect x="5" y="23" width="1" height="7" fill="#052F63" />
<rect x="6" y="23" width="3" height="1" fill="#0075FF" />
<rect x="12" y="23" width="3" height="2" fill="#0075FF" />
<rect x="22" y="23" width="1" height="1" fill="#9EEA58" />
<rect x="24" y="23" width="1" height="1" fill="#0066DE" />
<rect x="26" y="23" width="1" height="5" fill="#052F63" />
<rect x="6" y="24" width="1" height="6" fill="#052F63" />
<rect x="7" y="24" width="2" height="1" fill="#0075FF" />
<rect x="22" y="24" width="3" height="1" fill="#0075FF" />
<rect x="25" y="24" width="1" height="5" fill="#052F63" />
<rect x="29" y="24" width="1" height="3" fill="#000A17" />
<rect x="7" y="25" width="1" height="5" fill="#052F63" />
<rect x="8" y="25" width="1" height="1" fill="#0075FF" />
<rect x="11" y="25" width="4" height="2" fill="#1D85FF" />
<rect x="22" y="25" width="2" height="1" fill="#0075FF" />
<rect x="24" y="25" width="1" height="4" fill="#052F63" />
<rect x="8" y="26" width="1" height="4" fill="#052F63" />
<rect x="9" y="26" width="2" height="1" fill="#1D85FF" />
<rect x="15" y="26" width="8" height="1" fill="#1D85FF" />
<rect x="23" y="26" width="1" height="4" fill="#052F63" />
<rect x="28" y="26" width="1" height="2" fill="#000A17" />
<rect x="9" y="27" width="1" height="3" fill="#052F63" />
<rect x="10" y="27" width="5" height="1" fill="#4399FF" />
<rect x="15" y="27" width="3" height="1" fill="#1D85FF" />
<rect x="18" y="27" width="4" height="1" fill="#4399FF" />
<rect x="22" y="27" width="1" height="3" fill="#052F63" />
<rect x="27" y="27" width="1" height="2" fill="#000A17" />
<rect x="10" y="28" width="3" height="2" fill="#052F63" />
<rect x="13" y="28" width="4" height="1" fill="#8CC1FF" />
<rect x="17" y="28" width="2" height="1" fill="#77B5FF" />
<rect x="19" y="28" width="3" height="2" fill="#052F63" />
<rect x="26" y="28" width="1" height="2" fill="#000A17" />
<rect x="13" y="29" width="6" height="1" fill="#052F63" />
<rect x="24" y="29" width="2" height="1" fill="#000A17" />
<rect x="7" y="30" width="18" height="1" fill="#000A17" />
</svg>