<?xml version="1.0" encoding="UTF-8" ?>
<svg viewBox="0 0 32 32" version="1.1" width="512" height="512" xmlns="http://www.w3.org/2000/svg" shape-rendering="crispEdges">
<rect x="7" y="1" width="2" height="1" fill="#6CC2F9" />
<rect x="9" y="1" width="1" height="1" fill="#6CC1F8" />
<rect x="10" y="1" width="2" height="1" fill="#6CC0F8" />
<rect x="12" y="1" width="1" height="1" fill="#6CBFF8" />
<rect x="13" y="1" width="2" height="1" fill="#6CBEF8" />
<rect x="15" y="1" width="2" height="1" fill="#6CBDF7" />
<rect x="17" y="1" width="1" height="1" fill="#6CBCF7" />
<rect x="18" y="1" width="1" height="1" fill="#6CBBF7" />
<rect x="19" y="1" width="1" height="1" fill="#6CBAF7" />
<rect x="20" y="1" width="2" height="1" fill="#6CB9F7" />
<rect x="22" y="1" width="1" height="1" fill="#6BB8F7" />
<rect x="23" y="1" width="2" height="1" fill="#6BB7F7" />
<rect x="5" y="2" width="1" height="1" fill="#6CC4F9" />
<rect x="6" y="2" width="1" height="1" fill="#6CC3F9" />
<rect x="7" y="2" width="1" height="1" fill="#6CC2F9" />
<rect x="8" y="2" width="16" height="1" fill="#133760" />
<rect x="24" y="2" width="1" height="1" fill="#1B90F3" />
<rect x="25" y="2" width="1" height="1" fill="#1B8FF3" />
<rect x="26" y="2" width="1" height="2" fill="#1B8DF3" />
<rect x="4" y="3" width="1" height="2" fill="#6CC4F9" />
<rect x="5" y="3" width="1" height="1" fill="#6CC3F9" />
<rect x="6" y="3" width="3" height="1" fill="#133760" />
<rect x="9" y="3" width="14" height="2" fill="#FFFFFF" />
<rect x="23" y="3" width="3" height="1" fill="#133760" />
<rect x="27" y="3" width="1" height="1" fill="#1B8CF2" />
<rect x="3" y="4" width="1" height="2" fill="#6CC4F9" />
<rect x="5" y="4" width="2" height="1" fill="#133760" />
<rect x="7" y="4" width="2" height="24" fill="#FFFFFF" />
<rect x="23" y="4" width="2" height="24" fill="#FFFFFF" />
<rect x="25" y="4" width="2" height="1" fill="#133760" />
<rect x="27" y="4" width="1" height="1" fill="#1B8BF2" />
<rect x="28" y="4" width="1" height="2" fill="#1B8AF2" />
<rect x="2" y="5" width="1" height="3" fill="#6CC4F9" />
<rect x="4" y="5" width="2" height="1" fill="#133760" />
<rect x="6" y="5" width="1" height="22" fill="#FFFFFF" />
<rect x="9" y="5" width="6" height="1" fill="#FFFFFF" />
<rect x="15" y="5" width="1" height="1" fill="#73C1F8" />
<rect x="16" y="5" width="1" height="1" fill="#73BDF8" />
<rect x="17" y="5" width="1" height="1" fill="#72B8F7" />
<rect x="18" y="5" width="5" height="1" fill="#FFFFFF" />
<rect x="25" y="5" width="1" height="22" fill="#FFFFFF" />
<rect x="26" y="5" width="2" height="1" fill="#133760" />
<rect x="29" y="5" width="1" height="1" fill="#1A89F2" />
<rect x="3" y="6" width="2" height="1" fill="#133760" />
<rect x="5" y="6" width="1" height="20" fill="#FFFFFF" />
<rect x="9" y="6" width="5" height="23" fill="#FFFFFF" />
<rect x="14" y="6" width="1" height="1" fill="#73C2F8" />
<rect x="15" y="6" width="1" height="1" fill="#73BEF8" />
<rect x="16" y="6" width="1" height="1" fill="#1B8FF3" />
<rect x="17" y="6" width="1" height="1" fill="#6AB2F6" />
<rect x="18" y="6" width="1" height="1" fill="#6AAEF5" />
<rect x="19" y="6" width="4" height="23" fill="#FFFFFF" />
<rect x="26" y="6" width="1" height="20" fill="#FFFFFF" />
<rect x="27" y="6" width="2" height="1" fill="#133760" />
<rect x="29" y="6" width="1" height="2" fill="#1A88F2" />
<rect x="1" y="7" width="1" height="4" fill="#6CC4F9" />
<rect x="3" y="7" width="1" height="2" fill="#133760" />
<rect x="4" y="7" width="1" height="18" fill="#FFFFFF" />
<rect x="14" y="7" width="1" height="1" fill="#73BFF8" />
<rect x="15" y="7" width="1" height="1" fill="#1B92F3" />
<rect x="16" y="7" width="1" height="1" fill="#1B8BF2" />
<rect x="17" y="7" width="1" height="1" fill="#1A84F1" />
<rect x="18" y="7" width="1" height="2" fill="#6AACF5" />
<rect x="27" y="7" width="1" height="18" fill="#FFFFFF" />
<rect x="28" y="7" width="1" height="2" fill="#133760" />
<rect x="30" y="7" width="1" height="1" fill="#1A87F2" />
<rect x="2" y="8" width="1" height="16" fill="#133760" />
<rect x="14" y="8" width="1" height="1" fill="#73BDF8" />
<rect x="15" y="8" width="1" height="1" fill="#1B8DF3" />
<rect x="16" y="8" width="1" height="1" fill="#1A86F2" />
<rect x="17" y="8" width="1" height="2" fill="#1A80F1" />
<rect x="29" y="8" width="1" height="16" fill="#133760" />
<rect x="30" y="8" width="1" height="1" fill="#1A86F2" />
<rect x="3" y="9" width="1" height="14" fill="#FFFFFF" />
<rect x="14" y="9" width="1" height="1" fill="#EAEAEA" />
<rect x="15" y="9" width="1" height="1" fill="#1A89F2" />
<rect x="16" y="9" width="1" height="1" fill="#1A82F1" />
<rect x="18" y="9" width="1" height="1" fill="#EAEAEA" />
<rect x="28" y="9" width="1" height="14" fill="#FFFFFF" />
<rect x="30" y="9" width="1" height="1" fill="#1A86F1" />
<rect x="14" y="10" width="1" height="3" fill="#FFFFFF" />
<rect x="15" y="10" width="3" height="1" fill="#EAEAEA" />
<rect x="18" y="10" width="1" height="3" fill="#FFFFFF" />
<rect x="30" y="10" width="1" height="2" fill="#1A85F1" />
<rect x="1" y="11" width="1" height="2" fill="#6CC3F9" />
<rect x="15" y="11" width="3" height="1" fill="#FFFFFF" />
<rect x="15" y="12" width="3" height="1" fill="#6ECFFB" />
<rect x="30" y="12" width="1" height="2" fill="#1A84F1" />
<rect x="1" y="13" width="1" height="4" fill="#6CC2F9" />
<rect x="14" y="13" width="2" height="1" fill="#6ECDFA" />
<rect x="16" y="13" width="1" height="1" fill="#1FB2F8" />
<rect x="17" y="13" width="2" height="1" fill="#6ECDFA" />
<rect x="14" y="14" width="1" height="1" fill="#6DCAFA" />
<rect x="15" y="14" width="3" height="1" fill="#1EAEF8" />
<rect x="18" y="14" width="1" height="1" fill="#6DCAFA" />
<rect x="30" y="14" width="1" height="2" fill="#1A83F1" />
<rect x="14" y="15" width="1" height="1" fill="#6DC8F9" />
<rect x="15" y="15" width="3" height="1" fill="#1EAAF7" />
<rect x="18" y="15" width="1" height="1" fill="#6DC8F9" />
<rect x="14" y="16" width="1" height="1" fill="#6CC5F9" />
<rect x="15" y="16" width="3" height="1" fill="#1DA6F7" />
<rect x="18" y="16" width="1" height="1" fill="#6CC5F9" />
<rect x="30" y="16" width="1" height="1" fill="#1A82F1" />
<rect x="1" y="17" width="1" height="2" fill="#6CC1F8" />
<rect x="14" y="17" width="1" height="1" fill="#6CC2F9" />
<rect x="15" y="17" width="3" height="1" fill="#1DA2F6" />
<rect x="18" y="17" width="1" height="1" fill="#6CC2F9" />
<rect x="30" y="17" width="1" height="2" fill="#1A81F1" />
<rect x="14" y="18" width="1" height="1" fill="#6CC0F9" />
<rect x="15" y="18" width="3" height="1" fill="#1D9EF6" />
<rect x="18" y="18" width="1" height="1" fill="#6CC0F9" />
<rect x="1" y="19" width="1" height="4" fill="#6CC0F8" />
<rect x="14" y="19" width="1" height="1" fill="#6CBDF8" />
<rect x="15" y="19" width="3" height="1" fill="#1C99F5" />
<rect x="18" y="19" width="1" height="1" fill="#6CBDF8" />
<rect x="30" y="19" width="1" height="6" fill="#1A80F1" />
<rect x="14" y="20" width="1" height="1" fill="#6CBAF7" />
<rect x="15" y="20" width="3" height="1" fill="#1C95F4" />
<rect x="18" y="20" width="1" height="1" fill="#6CBAF7" />
<rect x="14" y="21" width="1" height="1" fill="#6BB7F7" />
<rect x="15" y="21" width="3" height="1" fill="#1B91F4" />
<rect x="18" y="21" width="1" height="1" fill="#6BB7F7" />
<rect x="14" y="22" width="1" height="1" fill="#6BB5F7" />
<rect x="15" y="22" width="3" height="1" fill="#1B8DF3" />
<rect x="18" y="22" width="1" height="1" fill="#6BB5F7" />
<rect x="1" y="23" width="1" height="2" fill="#6CBFF8" />
<rect x="3" y="23" width="1" height="3" fill="#133760" />
<rect x="14" y="23" width="1" height="1" fill="#6AB2F7" />
<rect x="15" y="23" width="3" height="1" fill="#1A89F3" />
<rect x="18" y="23" width="1" height="1" fill="#6AB2F7" />
<rect x="28" y="23" width="1" height="3" fill="#133760" />
<rect x="2" y="24" width="1" height="2" fill="#1C9BF5" />
<rect x="14" y="24" width="1" height="1" fill="#6AB0F6" />
<rect x="15" y="24" width="3" height="1" fill="#1A85F2" />
<rect x="18" y="24" width="1" height="1" fill="#6AB0F6" />
<rect x="29" y="24" width="1" height="3" fill="#1A80F1" />
<rect x="4" y="25" width="1" height="2" fill="#133760" />
<rect x="14" y="25" width="1" height="1" fill="#EAEAEA" />
<rect x="15" y="25" width="3" height="1" fill="#1A81F2" />
<rect x="18" y="25" width="1" height="1" fill="#EAEAEA" />
<rect x="27" y="25" width="1" height="2" fill="#133760" />
<rect x="2" y="26" width="1" height="1" fill="#1C9AF5" />
<rect x="3" y="26" width="1" height="2" fill="#1C99F4" />
<rect x="5" y="26" width="1" height="2" fill="#133760" />
<rect x="14" y="26" width="1" height="3" fill="#FFFFFF" />
<rect x="15" y="26" width="3" height="1" fill="#EAEAEA" />
<rect x="18" y="26" width="1" height="3" fill="#FFFFFF" />
<rect x="26" y="26" width="1" height="2" fill="#133760" />
<rect x="28" y="26" width="1" height="2" fill="#1A80F1" />
<rect x="4" y="27" width="1" height="1" fill="#1C98F4" />
<rect x="6" y="27" width="1" height="2" fill="#133760" />
<rect x="15" y="27" width="3" height="2" fill="#FFFFFF" />
<rect x="25" y="27" width="1" height="2" fill="#133760" />
<rect x="27" y="27" width="1" height="2" fill="#1A80F1" />
<rect x="4" y="28" width="1" height="1" fill="#1C97F4" />
<rect x="5" y="28" width="1" height="2" fill="#1C96F4" />
<rect x="7" y="28" width="2" height="1" fill="#133760" />
<rect x="23" y="28" width="2" height="1" fill="#133760" />
<rect x="26" y="28" width="1" height="2" fill="#1A80F1" />
<rect x="6" y="29" width="1" height="1" fill="#1C95F4" />
<rect x="7" y="29" width="1" height="1" fill="#1C94F4" />
<rect x="8" y="29" width="16" height="1" fill="#133760" />
<rect x="24" y="29" width="1" height="1" fill="#1A82F1" />
<rect x="25" y="29" width="1" height="1" fill="#1A81F1" />
<rect x="7" y="30" width="1" height="1" fill="#1B93F3" />
<rect x="8" y="30" width="1" height="1" fill="#1B92F3" />
<rect x="9" y="30" width="1" height="1" fill="#1B91F3" />
<rect x="10" y="30" width="1" height="1" fill="#1B90F3" />
<rect x="11" y="30" width="1" height="1" fill="#1B8FF3" />
<rect x="12" y="30" width="1" height="1" fill="#1B8EF3" />
<rect x="13" y="30" width="1" height="1" fill="#1B8DF3" />
<rect x="14" y="30" width="1" height="1" fill="#1B8CF2" />
<rect x="15" y="30" width="1" height="1" fill="#1B8BF2" />
<rect x="16" y="30" width="1" height="1" fill="#1B8AF2" />
<rect x="17" y="30" width="1" height="1" fill="#1A89F2" />
<rect x="18" y="30" width="1" height="1" fill="#1A87F2" />
<rect x="19" y="30" width="1" height="1" fill="#1A86F2" />
<rect x="20" y="30" width="1" height="1" fill="#1A85F1" />
<rect x="21" y="30" width="1" height="1" fill="#1A84F1" />
<rect x="22" y="30" width="1" height="1" fill="#1A83F1" />
<rect x="23" y="30" width="1" height="1" fill="#1A82F1" />
<rect x="24" y="30" width="1" height="1" fill="#1A81F1" />
</svg>