<?xml version='1.0' encoding='utf-8'?>
<svg xmlns="http://www.w3.org/2000/svg" viewBox="0 0 3357.9449999999997 3358.0589999999997" width="512" height="512" version="1.1" xml:space="preserve" style="fill-rule:evenodd;clip-rule:evenodd;stroke-linejoin:round;stroke-miterlimit:2;"><rect x="866.888" y="108.856" width="433.227" height="108.307" style="fill:#86f586;" /><rect x="1300.116" y="108.856" width="433.227" height="108.307" style="fill:#6bc36b;" /><rect x="1733.343" y="108.856" width="866.454" height="108.307" style="fill:#489148;" /><rect x="650.275" y="217.162" width="324.92" height="108.307" style="fill:#86f586;" /><rect x="975.195" y="217.162" width="1516.295" height="108.307" style="fill:#000c00;" /><rect x="2491.49" y="217.162" width="324.92" height="108.307" style="fill:#489148;" /><rect x="433.661" y="325.469" width="324.92" height="108.307" style="fill:#86f586;" /><rect x="758.582" y="325.469" width="324.92" height="108.307" style="fill:#000c00;" /><rect x="1083.502" y="325.469" width="1299.681" height="108.307" style="fill:#2ea72e;" /><rect x="2383.183" y="325.469" width="324.92" height="108.307" style="fill:#000c00;" /><rect x="2708.104" y="325.469" width="324.92" height="108.307" style="fill:#489148;" /><rect x="325.355" y="433.776" width="216.614" height="108.307" style="fill:#86f586;" /><rect x="541.968" y="433.776" width="324.92" height="108.307" style="fill:#000c00;" /><rect x="866.888" y="433.776" width="324.92" height="108.307" style="fill:#2ea72e;" /><rect x="1191.809" y="433.776" width="1407.988" height="974.761" style="fill:#197e19;" /><rect x="2599.797" y="433.776" width="324.92" height="108.307" style="fill:#000c00;" /><rect x="2924.717" y="433.776" width="216.614" height="108.307" style="fill:#489148;" /><rect x="217.048" y="542.083" width="216.614" height="108.307" style="fill:#86f586;" /><rect x="433.661" y="542.083" width="216.614" height="108.307" style="fill:#000c00;" /><rect x="650.275" y="542.083" width="324.92" height="108.307" style="fill:#2ea72e;" /><rect x="975.195" y="542.083" width="216.614" height="1083.068" style="fill:#197e19;" /><rect x="2599.797" y="542.083" width="216.614" height="866.454" style="fill:#197e19;" /><rect x="2816.411" y="542.083" width="216.614" height="108.307" style="fill:#000c00;" /><rect x="3033.024" y="542.083" width="216.614" height="108.307" style="fill:#489148;" /><rect x="217.048" y="650.389" width="108.307" height="216.614" style="fill:#86f586;" /><rect x="325.355" y="650.389" width="216.614" height="108.307" style="fill:#000c00;" /><rect x="541.968" y="650.389" width="216.614" height="108.307" style="fill:#2ea72e;" /><rect x="758.582" y="650.389" width="216.614" height="758.147" style="fill:#197e19;" /><rect x="2816.411" y="650.389" width="108.307" height="1841.215" style="fill:#197e19;" /><rect x="2924.717" y="650.389" width="216.614" height="108.307" style="fill:#000c00;" /><rect x="3141.331" y="650.389" width="108.307" height="216.614" style="fill:#489148;" /><rect x="108.741" y="758.696" width="108.307" height="433.227" style="fill:#86f586;" /><rect x="325.355" y="758.696" width="108.307" height="216.614" style="fill:#000c00;" /><rect x="433.661" y="758.696" width="216.614" height="108.307" style="fill:#2ea72e;" /><rect x="650.275" y="758.696" width="108.307" height="2166.136" style="fill:#197e19;" /><rect x="2924.717" y="758.696" width="108.307" height="1516.295" style="fill:#197e19;" /><rect x="3033.024" y="758.696" width="108.307" height="216.614" style="fill:#000c00;" /><rect x="3249.638" y="758.696" width="108.307" height="1841.215" style="fill:#012201;" /><rect x="217.048" y="867.003" width="108.307" height="1624.602" style="fill:#000c00;" /><rect x="433.661" y="867.003" width="108.307" height="216.614" style="fill:#2ea72e;" /><rect x="541.968" y="867.003" width="108.307" height="1841.215" style="fill:#197e19;" /><rect x="3141.331" y="867.003" width="108.307" height="1624.602" style="fill:#000c00;" /><rect x="325.355" y="975.31" width="108.307" height="1407.988" style="fill:#2ea72e;" /><rect x="3033.024" y="975.31" width="108.307" height="1407.988" style="fill:#074c07;" /><rect x="433.661" y="1083.617" width="108.307" height="1516.295" style="fill:#197e19;" /><rect x="108.741" y="1191.923" width="108.307" height="541.534" style="fill:#6bc36b;" /><rect x="758.582" y="1408.537" width="108.307" height="649.841" style="fill:#013001;" /><rect x="866.888" y="1408.537" width="108.307" height="216.614" style="fill:#197e19;" /><rect x="1191.809" y="1408.537" width="108.307" height="1624.602" style="fill:#197e19;" /><rect x="1300.116" y="1408.537" width="108.307" height="541.534" style="fill:#013001;" /><rect x="1408.422" y="1408.537" width="1299.681" height="108.307" style="fill:#197e19;" /><rect x="2708.104" y="1408.537" width="108.307" height="433.227" style="fill:#013001;" /><rect x="1408.422" y="1516.844" width="108.307" height="108.307" style="fill:#013001;" /><rect x="1516.729" y="1516.844" width="216.614" height="108.307" style="fill:#197e19;" /><rect x="1733.343" y="1516.844" width="216.614" height="108.307" style="fill:#013001;" /><rect x="1949.956" y="1516.844" width="324.92" height="108.307" style="fill:#197e19;" /><rect x="2274.877" y="1516.844" width="216.614" height="108.307" style="fill:#013001;" /><rect x="2491.49" y="1516.844" width="216.614" height="108.307" style="fill:#197e19;" /><rect x="866.888" y="1625.15" width="216.614" height="108.307" style="fill:#013001;" /><rect x="1083.502" y="1625.15" width="108.307" height="108.307" style="fill:#197e19;" /><rect x="1408.422" y="1625.15" width="216.614" height="324.92" style="fill:#197e19;" /><rect x="1625.036" y="1625.15" width="108.307" height="324.92" style="fill:#013001;" /><rect x="1733.343" y="1625.15" width="216.614" height="324.92" style="fill:#197e19;" /><rect x="1949.956" y="1625.15" width="108.307" height="324.92" style="fill:#013001;" /><rect x="2058.263" y="1625.15" width="108.307" height="1407.988" style="fill:#197e19;" /><rect x="2166.57" y="1625.15" width="108.307" height="649.841" style="fill:#013001;" /><rect x="2274.877" y="1625.15" width="216.614" height="216.614" style="fill:#197e19;" /><rect x="2491.49" y="1625.15" width="108.307" height="216.614" style="fill:#013001;" /><rect x="2599.797" y="1625.15" width="108.307" height="1083.068" style="fill:#197e19;" /><rect x="108.741" y="1733.457" width="108.307" height="758.147" style="fill:#489148;" /><rect x="866.888" y="1733.457" width="216.614" height="1299.681" style="fill:#197e19;" /><rect x="1083.502" y="1733.457" width="108.307" height="324.92" style="fill:#013001;" /><rect x="2274.877" y="1841.764" width="216.614" height="108.307" style="fill:#013001;" /><rect x="2491.49" y="1841.764" width="108.307" height="974.761" style="fill:#197e19;" /><rect x="2708.104" y="1841.764" width="108.307" height="108.307" style="fill:#197e19;" /><rect x="1300.116" y="1950.071" width="108.307" height="1083.068" style="fill:#197e19;" /><rect x="1408.422" y="1950.071" width="108.307" height="108.307" style="fill:#013001;" /><rect x="1516.729" y="1950.071" width="216.614" height="1083.068" style="fill:#197e19;" /><rect x="1733.343" y="1950.071" width="216.614" height="108.307" style="fill:#013001;" /><rect x="1949.956" y="1950.071" width="108.307" height="1083.068" style="fill:#197e19;" /><rect x="2274.877" y="1950.071" width="216.614" height="974.761" style="fill:#197e19;" /><rect x="2708.104" y="1950.071" width="108.307" height="108.307" style="fill:#013001;" /><rect x="758.582" y="2058.378" width="108.307" height="866.454" style="fill:#197e19;" /><rect x="1083.502" y="2058.378" width="108.307" height="974.761" style="fill:#197e19;" /><rect x="1408.422" y="2058.378" width="108.307" height="974.761" style="fill:#197e19;" /><rect x="1733.343" y="2058.378" width="216.614" height="974.761" style="fill:#197e19;" /><rect x="2708.104" y="2058.378" width="108.307" height="541.534" style="fill:#197e19;" /><rect x="2166.57" y="2274.991" width="108.307" height="758.147" style="fill:#197e19;" /><rect x="2924.717" y="2274.991" width="108.307" height="324.92" style="fill:#074c07;" /><rect x="325.355" y="2383.298" width="108.307" height="324.92" style="fill:#000c00;" /><rect x="3033.024" y="2383.298" width="108.307" height="324.92" style="fill:#000c00;" /><rect x="108.741" y="2491.605" width="216.614" height="108.307" style="fill:#012201;" /><rect x="2816.411" y="2491.605" width="108.307" height="216.614" style="fill:#074c07;" /><rect x="3141.331" y="2491.605" width="108.307" height="324.92" style="fill:#012201;" /><rect x="217.048" y="2599.911" width="108.307" height="216.614" style="fill:#012201;" /><rect x="433.661" y="2599.911" width="108.307" height="216.614" style="fill:#000c00;" /><rect x="2708.104" y="2599.911" width="108.307" height="216.614" style="fill:#074c07;" /><rect x="2924.717" y="2599.911" width="108.307" height="216.614" style="fill:#000c00;" /><rect x="325.355" y="2708.218" width="108.307" height="216.614" style="fill:#012201;" /><rect x="541.968" y="2708.218" width="108.307" height="324.92" style="fill:#000c00;" /><rect x="2599.797" y="2708.218" width="108.307" height="216.614" style="fill:#074c07;" /><rect x="2816.411" y="2708.218" width="108.307" height="216.614" style="fill:#000c00;" /><rect x="3033.024" y="2708.218" width="108.307" height="216.614" style="fill:#012201;" /><rect x="433.661" y="2816.525" width="108.307" height="324.92" style="fill:#012201;" /><rect x="2491.49" y="2816.525" width="108.307" height="216.614" style="fill:#074c07;" /><rect x="2708.104" y="2816.525" width="108.307" height="216.614" style="fill:#000c00;" /><rect x="2924.717" y="2816.525" width="108.307" height="216.614" style="fill:#012201;" /><rect x="650.275" y="2924.832" width="216.614" height="108.307" style="fill:#000c00;" /><rect x="2274.877" y="2924.832" width="216.614" height="108.307" style="fill:#074c07;" /><rect x="2599.797" y="2924.832" width="108.307" height="216.614" style="fill:#000c00;" /><rect x="2816.411" y="2924.832" width="108.307" height="216.614" style="fill:#012201;" /><rect x="541.968" y="3033.139" width="216.614" height="108.307" style="fill:#012201;" /><rect x="758.582" y="3033.139" width="324.92" height="108.307" style="fill:#000c00;" /><rect x="1083.502" y="3033.139" width="1299.681" height="108.307" style="fill:#074c07;" /><rect x="2383.183" y="3033.139" width="216.614" height="108.307" style="fill:#000c00;" /><rect x="2708.104" y="3033.139" width="108.307" height="216.614" style="fill:#012201;" /><rect x="650.275" y="3141.445" width="324.92" height="108.307" style="fill:#012201;" /><rect x="975.195" y="3141.445" width="1516.295" height="108.307" style="fill:#000c00;" /><rect x="2491.49" y="3141.445" width="216.614" height="108.307" style="fill:#012201;" /><rect x="866.888" y="3249.752" width="1732.908" height="108.307" style="fill:#012201;" /></svg>