<?xml version='1.0' encoding='utf-8'?>
<svg xmlns="http://www.w3.org/2000/svg" viewBox="0 0 3358.3269999999998 3357.9799999999996" width="512" height="512" version="1.1" xml:space="preserve" style="fill-rule:evenodd;clip-rule:evenodd;stroke-linejoin:round;stroke-miterlimit:2;"><rect x="867.271" y="108.777" width="1732.908" height="108.307" style="fill:#2b2b2b;" /><rect x="650.658" y="217.083" width="216.614" height="108.307" style="fill:#2b2b2b;" /><rect x="867.271" y="217.083" width="1949.522" height="216.614" style="fill:#0e0e0e;" /><rect x="542.351" y="325.39" width="108.307" height="108.307" style="fill:#2b2b2b;" /><rect x="650.658" y="325.39" width="216.614" height="2924.283" style="fill:#0e0e0e;" /><rect x="2816.793" y="325.39" width="108.307" height="541.534" style="fill:#0e0e0e;" /><rect x="434.044" y="433.697" width="108.307" height="108.307" style="fill:#2b2b2b;" /><rect x="542.351" y="433.697" width="108.307" height="2707.67" style="fill:#0e0e0e;" /><rect x="867.271" y="433.697" width="1191.375" height="108.307" style="fill:#0e0e0e;" /><rect x="2058.646" y="433.697" width="433.227" height="108.307" /><rect x="2491.873" y="433.697" width="324.92" height="108.307" style="fill:#0e0e0e;" /><rect x="2925.1" y="433.697" width="108.307" height="2382.749" style="fill:#0e0e0e;" /><rect x="325.737" y="542.004" width="108.307" height="216.614" style="fill:#2b2b2b;" /><rect x="434.044" y="542.004" width="108.307" height="2491.056" style="fill:#0e0e0e;" /><rect x="867.271" y="542.004" width="433.227" height="108.307" style="fill:#0e0e0e;" /><rect x="1300.498" y="542.004" width="324.92" height="108.307" style="fill:#fff;" /><rect x="1625.419" y="542.004" width="541.534" height="108.307" style="fill:#e1e1e1;" /><rect x="2166.953" y="542.004" width="108.307" height="108.307" style="fill:#8a8a8a;" /><rect x="2275.259" y="542.004" width="108.307" height="108.307" style="fill:#737373;" /><rect x="2383.566" y="542.004" width="216.614" height="108.307" /><rect x="2600.18" y="542.004" width="216.614" height="108.307" style="fill:#0e0e0e;" /><rect x="3033.407" y="542.004" width="108.307" height="2166.136" style="fill:#0e0e0e;" /><rect x="217.431" y="650.311" width="108.307" height="324.92" style="fill:#2b2b2b;" /><rect x="867.271" y="650.311" width="324.92" height="108.307" style="fill:#0e0e0e;" /><rect x="1192.192" y="650.311" width="216.614" height="108.307" style="fill:#fff;" /><rect x="1408.805" y="650.311" width="216.614" height="108.307" style="fill:#e1e1e1;" /><rect x="1625.419" y="650.311" width="541.534" height="541.534" style="fill:#f1f1f1;" /><rect x="2166.953" y="650.311" width="108.307" height="108.307" style="fill:#e1e1e1;" /><rect x="2275.259" y="650.311" width="108.307" height="108.307" style="fill:#8a8a8a;" /><rect x="2383.566" y="650.311" width="108.307" height="216.614" style="fill:#737373;" /><rect x="2491.873" y="650.311" width="216.614" height="108.307" /><rect x="2708.487" y="650.311" width="108.307" height="108.307" style="fill:#0e0e0e;" /><rect x="3141.714" y="650.311" width="108.307" height="1841.215" style="fill:#0e0e0e;" /><rect x="325.737" y="758.617" width="108.307" height="2166.136" style="fill:#0e0e0e;" /><rect x="867.271" y="758.617" width="216.614" height="108.307" style="fill:#0e0e0e;" /><rect x="1083.885" y="758.617" width="216.614" height="108.307" style="fill:#fff;" /><rect x="1300.498" y="758.617" width="216.614" height="108.307" style="fill:#e1e1e1;" /><rect x="1517.112" y="758.617" width="108.307" height="649.841" style="fill:#f1f1f1;" /><rect x="2166.953" y="758.617" width="216.614" height="541.534" style="fill:#f1f1f1;" /><rect x="2491.873" y="758.617" width="108.307" height="216.614" style="fill:#737373;" /><rect x="2600.18" y="758.617" width="216.614" height="108.307" /><rect x="109.124" y="866.924" width="108.307" height="1732.908" style="fill:#2b2b2b;" /><rect x="867.271" y="866.924" width="108.307" height="216.614" style="fill:#0e0e0e;" /><rect x="975.578" y="866.924" width="216.614" height="108.307" style="fill:#fff;" /><rect x="1192.192" y="866.924" width="216.614" height="108.307" style="fill:#e1e1e1;" /><rect x="1408.805" y="866.924" width="108.307" height="1407.988" style="fill:#f1f1f1;" /><rect x="2383.566" y="866.924" width="108.307" height="1083.068" style="fill:#f1f1f1;" /><rect x="2600.18" y="866.924" width="108.307" height="216.614" style="fill:#737373;" /><rect x="2708.487" y="866.924" width="216.614" height="108.307" /><rect x="3250.02" y="866.924" width="108.307" height="1732.908" /><rect x="217.431" y="975.231" width="108.307" height="1841.215" style="fill:#0e0e0e;" /><rect x="975.578" y="975.231" width="108.307" height="216.614" style="fill:#fff;" /><rect x="1083.885" y="975.231" width="216.614" height="108.307" style="fill:#e1e1e1;" /><rect x="1300.498" y="975.231" width="108.307" height="1299.681" style="fill:#f1f1f1;" /><rect x="2491.873" y="975.231" width="108.307" height="866.454" style="fill:#f1f1f1;" /><rect x="2708.487" y="975.231" width="108.307" height="974.761" style="fill:#737373;" /><rect x="2816.793" y="975.231" width="108.307" height="1083.068" /><rect x="867.271" y="1083.538" width="108.307" height="1624.602" style="fill:#fff;" /><rect x="1083.885" y="1083.538" width="108.307" height="216.614" style="fill:#e1e1e1;" /><rect x="1192.192" y="1083.538" width="108.307" height="1732.908" style="fill:#f1f1f1;" /><rect x="2600.18" y="1083.538" width="108.307" height="866.454" style="fill:#e1e1e1;" /><rect x="975.578" y="1191.844" width="108.307" height="108.307" style="fill:#e1e1e1;" /><rect x="1625.419" y="1191.844" width="108.307" height="108.307" style="fill:#0e0e0e;" /><rect x="1733.726" y="1191.844" width="433.227" height="649.841" /><rect x="975.578" y="1300.151" width="216.614" height="1516.295" style="fill:#f1f1f1;" /><rect x="1625.419" y="1300.151" width="108.307" height="541.534" /><rect x="2166.953" y="1300.151" width="108.307" height="433.227" /><rect x="2275.259" y="1300.151" width="108.307" height="758.147" style="fill:#f1f1f1;" /><rect x="1517.112" y="1408.458" width="108.307" height="108.307" style="fill:#0e0e0e;" /><rect x="1517.112" y="1516.765" width="108.307" height="216.614" /><rect x="1517.112" y="1733.378" width="108.307" height="541.534" style="fill:#f1f1f1;" /><rect x="2166.953" y="1733.378" width="108.307" height="433.227" style="fill:#f1f1f1;" /><rect x="1625.419" y="1841.685" width="541.534" height="324.92" style="fill:#f1f1f1;" /><rect x="2491.873" y="1841.685" width="108.307" height="216.614" style="fill:#e1e1e1;" /><rect x="2383.566" y="1949.992" width="108.307" height="216.614" style="fill:#e1e1e1;" /><rect x="2600.18" y="1949.992" width="108.307" height="108.307" style="fill:#737373;" /><rect x="2708.487" y="1949.992" width="108.307" height="324.92" /><rect x="2275.259" y="2058.299" width="108.307" height="216.614" style="fill:#e1e1e1;" /><rect x="2491.873" y="2058.299" width="108.307" height="216.614" style="fill:#737373;" /><rect x="2600.18" y="2058.299" width="108.307" height="108.307" style="fill:#797979;" /><rect x="2816.793" y="2058.299" width="108.307" height="866.454" style="fill:#0e0e0e;" /><rect x="1625.419" y="2166.605" width="433.227" height="108.307" style="fill:#f1f1f1;" /><rect x="2058.646" y="2166.605" width="216.614" height="108.307" style="fill:#e1e1e1;" /><rect x="2383.566" y="2166.605" width="108.307" height="216.614" style="fill:#737373;" /><rect x="2600.18" y="2166.605" width="108.307" height="216.614" /><rect x="1300.498" y="2274.912" width="216.614" height="108.307" style="fill:#797979;" /><rect x="1517.112" y="2274.912" width="649.841" height="108.307" style="fill:#e1e1e1;" /><rect x="2166.953" y="2274.912" width="216.614" height="108.307" style="fill:#737373;" /><rect x="2491.873" y="2274.912" width="108.307" height="216.614" /><rect x="2708.487" y="2274.912" width="108.307" height="758.147" style="fill:#0e0e0e;" /><rect x="1300.498" y="2383.219" width="108.307" height="541.534" style="fill:#797979;" /><rect x="1408.805" y="2383.219" width="108.307" height="649.841" /><rect x="1517.112" y="2383.219" width="758.147" height="108.307" style="fill:#6d6d6d;" /><rect x="2275.259" y="2383.219" width="216.614" height="108.307" /><rect x="2600.18" y="2383.219" width="108.307" height="758.147" style="fill:#0e0e0e;" /><rect x="1517.112" y="2491.526" width="866.454" height="108.307" /><rect x="2383.566" y="2491.526" width="216.614" height="649.841" style="fill:#0e0e0e;" /><rect x="3141.714" y="2491.526" width="108.307" height="324.92" /><rect x="1517.112" y="2599.833" width="866.454" height="649.841" style="fill:#0e0e0e;" /><rect x="867.271" y="2708.139" width="108.307" height="216.614" style="fill:#cecece;" /><rect x="3033.407" y="2708.139" width="108.307" height="216.614" /><rect x="975.578" y="2816.446" width="108.307" height="108.307" style="fill:#cecece;" /><rect x="1083.885" y="2816.446" width="216.614" height="108.307" style="fill:#8a8a8a;" /><rect x="2925.1" y="2816.446" width="108.307" height="216.614" /><rect x="867.271" y="2924.753" width="216.614" height="324.92" style="fill:#0e0e0e;" /><rect x="1083.885" y="2924.753" width="324.92" height="108.307" /><rect x="2816.793" y="2924.753" width="108.307" height="216.614" /><rect x="1083.885" y="3033.06" width="433.227" height="216.614" style="fill:#0e0e0e;" /><rect x="2708.487" y="3033.06" width="108.307" height="216.614" /><rect x="2383.566" y="3141.366" width="108.307" height="108.307" style="fill:#0e0e0e;" /><rect x="2491.873" y="3141.366" width="216.614" height="108.307" /><rect x="867.271" y="3249.673" width="1732.908" height="108.307" /></svg>