<?xml version='1.0' encoding='utf-8'?>
<svg xmlns="http://www.w3.org/2000/svg" viewBox="0 0 3357.841 3358.366" width="512" height="512" version="1.1" xml:space="preserve" style="fill-rule:evenodd;clip-rule:evenodd;stroke-linejoin:round;stroke-miterlimit:2;"><rect x="866.785" y="109.163" width="758.147" height="108.307" style="fill:#a4a4a4;" /><rect x="1624.932" y="109.163" width="758.147" height="108.307" style="fill:#b6b6b6;" /><rect x="2383.08" y="109.163" width="216.614" height="108.307" style="fill:#aaa;" /><rect x="650.171" y="217.469" width="324.92" height="108.307" style="fill:#a4a4a4;" /><rect x="975.092" y="217.469" width="1516.295" height="108.307" /><rect x="2491.387" y="217.469" width="324.92" height="108.307" style="fill:#aaa;" /><rect x="541.865" y="325.776" width="216.614" height="108.307" style="fill:#a4a4a4;" /><rect x="758.478" y="325.776" width="324.92" height="108.307" /><rect x="1083.398" y="325.776" width="324.92" height="108.307" style="fill:#333;" /><rect x="1408.319" y="325.776" width="108.307" height="108.307" style="fill:#383838;" /><rect x="1516.626" y="325.776" width="216.614" height="108.307" style="fill:#3f3f3f;" /><rect x="1733.239" y="325.776" width="108.307" height="108.307" style="fill:#3a3a3a;" /><rect x="1841.546" y="325.776" width="216.614" height="108.307" style="fill:#565656;" /><rect x="2058.159" y="325.776" width="108.307" height="108.307" style="fill:#575757;" /><rect x="2166.466" y="325.776" width="216.614" height="108.307" style="fill:#707070;" /><rect x="2383.08" y="325.776" width="324.92" height="108.307" /><rect x="2708" y="325.776" width="216.614" height="108.307" style="fill:#aaa;" /><rect x="433.558" y="434.083" width="216.614" height="108.307" style="fill:#a4a4a4;" /><rect x="650.171" y="434.083" width="216.614" height="108.307" /><rect x="866.785" y="434.083" width="324.92" height="108.307" style="fill:#333;" /><rect x="1191.705" y="434.083" width="216.614" height="866.454" style="fill:#0c0c0c;" /><rect x="1408.319" y="434.083" width="108.307" height="866.454" style="fill:#131313;" /><rect x="1516.626" y="434.083" width="216.614" height="1191.375" style="fill:#1b1b1b;" /><rect x="1733.239" y="434.083" width="108.307" height="1191.375" style="fill:#151515;" /><rect x="1841.546" y="434.083" width="216.614" height="1516.295" style="fill:#363636;" /><rect x="2058.159" y="434.083" width="108.307" height="1516.295" style="fill:#383838;" /><rect x="2166.466" y="434.083" width="324.92" height="2057.829" style="fill:#555;" /><rect x="2491.387" y="434.083" width="108.307" height="2057.829" style="fill:#818181;" /><rect x="2599.693" y="434.083" width="216.614" height="108.307" /><rect x="2816.307" y="434.083" width="216.614" height="108.307" style="fill:#aaa;" /><rect x="325.251" y="542.39" width="216.614" height="108.307" style="fill:#a4a4a4;" /><rect x="541.865" y="542.39" width="216.614" height="108.307" /><rect x="758.478" y="542.39" width="216.614" height="108.307" style="fill:#333;" /><rect x="975.092" y="542.39" width="216.614" height="866.454" style="fill:#0c0c0c;" /><rect x="2599.693" y="542.39" width="108.307" height="2274.442" style="fill:#8d8d8d;" /><rect x="2708" y="542.39" width="216.614" height="108.307" /><rect x="2924.614" y="542.39" width="216.614" height="108.307" style="fill:#aaa;" /><rect x="216.944" y="650.696" width="216.614" height="108.307" style="fill:#a4a4a4;" /><rect x="433.558" y="650.696" width="216.614" height="108.307" /><rect x="650.171" y="650.696" width="216.614" height="108.307" style="fill:#333;" /><rect x="866.785" y="650.696" width="108.307" height="758.147" style="fill:#0c0c0c;" /><rect x="2708" y="650.696" width="108.307" height="2057.829" style="fill:#8d8d8d;" /><rect x="2816.307" y="650.696" width="216.614" height="108.307" /><rect x="3032.921" y="650.696" width="216.614" height="108.307" style="fill:#aaa;" /><rect x="216.944" y="759.003" width="108.307" height="216.614" style="fill:#a4a4a4;" /><rect x="325.251" y="759.003" width="216.614" height="108.307" /><rect x="541.865" y="759.003" width="216.614" height="108.307" style="fill:#333;" /><rect x="758.478" y="759.003" width="108.307" height="649.841" style="fill:#0c0c0c;" /><rect x="2816.307" y="759.003" width="108.307" height="1841.215" style="fill:#8d8d8d;" /><rect x="2924.614" y="759.003" width="216.614" height="108.307" /><rect x="3141.227" y="759.003" width="108.307" height="216.614" style="fill:#aaa;" /><rect x="108.637" y="867.31" width="108.307" height="108.307" style="fill:#a4a4a4;" /><rect x="325.251" y="867.31" width="108.307" height="216.614" /><rect x="433.558" y="867.31" width="216.614" height="108.307" style="fill:#333;" /><rect x="650.171" y="867.31" width="108.307" height="541.534" style="fill:#0c0c0c;" /><rect x="2924.614" y="867.31" width="108.307" height="1516.295" style="fill:#8d8d8d;" /><rect x="3032.921" y="867.31" width="108.307" height="216.614" /><rect x="3249.534" y="867.31" width="108.307" height="216.614" style="fill:#aaa;" /><rect x="108.637" y="975.617" width="108.307" height="1516.295" style="fill:#aaa;" /><rect x="216.944" y="975.617" width="108.307" height="1516.295" /><rect x="433.558" y="975.617" width="108.307" height="216.614" style="fill:#333;" /><rect x="541.865" y="975.617" width="108.307" height="433.227" style="fill:#0c0c0c;" /><rect x="3141.227" y="975.617" width="108.307" height="1516.295" /><rect x="325.251" y="1083.924" width="108.307" height="324.92" style="fill:#333;" /><rect x="3032.921" y="1083.924" width="108.307" height="1299.681" style="fill:#a0a0a0;" /><rect x="3249.534" y="1083.924" width="108.307" height="758.147" style="fill:#7a7a7a;" /><rect x="433.558" y="1192.23" width="108.307" height="216.614" style="fill:#0c0c0c;" /><rect x="1191.705" y="1300.537" width="108.307" height="108.307" style="fill:#0c0c0c;" /><rect x="1300.012" y="1300.537" width="108.307" height="108.307" style="fill:#131313;" /><rect x="1408.319" y="1300.537" width="108.307" height="433.227" style="fill:#1b1b1b;" /><rect x="325.251" y="1408.844" width="108.307" height="108.307" style="fill:#383838;" /><rect x="433.558" y="1408.844" width="866.454" height="108.307" style="fill:#131313;" /><rect x="1300.012" y="1408.844" width="108.307" height="324.92" style="fill:#1b1b1b;" /><rect x="325.251" y="1517.151" width="108.307" height="216.614" style="fill:#3f3f3f;" /><rect x="433.558" y="1517.151" width="866.454" height="216.614" style="fill:#1b1b1b;" /><rect x="1516.626" y="1625.457" width="108.307" height="108.307" style="fill:#1b1b1b;" /><rect x="1624.932" y="1625.457" width="108.307" height="108.307" style="fill:#151515;" /><rect x="1733.239" y="1625.457" width="108.307" height="433.227" style="fill:#363636;" /><rect x="325.251" y="1733.764" width="108.307" height="108.307" style="fill:#3a3a3a;" /><rect x="433.558" y="1733.764" width="1191.375" height="108.307" style="fill:#151515;" /><rect x="1624.932" y="1733.764" width="108.307" height="324.92" style="fill:#363636;" /><rect x="325.251" y="1842.071" width="108.307" height="216.614" style="fill:#565656;" /><rect x="433.558" y="1842.071" width="1191.375" height="216.614" style="fill:#363636;" /><rect x="3249.534" y="1842.071" width="108.307" height="324.92" style="fill:#464646;" /><rect x="1841.546" y="1950.378" width="108.307" height="108.307" style="fill:#363636;" /><rect x="1949.853" y="1950.378" width="108.307" height="108.307" style="fill:#383838;" /><rect x="2058.159" y="1950.378" width="108.307" height="649.841" style="fill:#555;" /><rect x="325.251" y="2058.685" width="108.307" height="108.307" style="fill:#575757;" /><rect x="433.558" y="2058.685" width="1516.295" height="108.307" style="fill:#383838;" /><rect x="1949.853" y="2058.685" width="108.307" height="541.534" style="fill:#555;" /><rect x="325.251" y="2166.991" width="108.307" height="216.614" style="fill:#707070;" /><rect x="433.558" y="2166.991" width="1516.295" height="433.227" style="fill:#555;" /><rect x="3249.534" y="2166.991" width="108.307" height="433.227" style="fill:#303030;" /><rect x="325.251" y="2383.605" width="108.307" height="324.92" /><rect x="2924.614" y="2383.605" width="108.307" height="216.614" style="fill:#a0a0a0;" /><rect x="3032.921" y="2383.605" width="108.307" height="324.92" /><rect x="108.637" y="2491.912" width="216.614" height="108.307" style="fill:#7a7a7a;" /><rect x="2166.466" y="2491.912" width="216.614" height="108.307" style="fill:#555;" /><rect x="2383.08" y="2491.912" width="108.307" height="108.307" style="fill:#818181;" /><rect x="2491.387" y="2491.912" width="108.307" height="433.227" style="fill:#8d8d8d;" /><rect x="3141.227" y="2491.912" width="108.307" height="324.92" style="fill:#303030;" /><rect x="216.944" y="2600.219" width="108.307" height="216.614" style="fill:#7a7a7a;" /><rect x="433.558" y="2600.219" width="108.307" height="216.614" /><rect x="541.865" y="2600.219" width="1841.215" height="108.307" style="fill:#818181;" /><rect x="2383.08" y="2600.219" width="108.307" height="324.92" style="fill:#8d8d8d;" /><rect x="2816.307" y="2600.219" width="108.307" height="108.307" style="fill:#a0a0a0;" /><rect x="2924.614" y="2600.219" width="108.307" height="216.614" /><rect x="325.251" y="2708.525" width="108.307" height="216.614" style="fill:#7a7a7a;" /><rect x="541.865" y="2708.525" width="108.307" height="216.614" /><rect x="650.171" y="2708.525" width="1732.908" height="108.307" style="fill:#8d8d8d;" /><rect x="2708" y="2708.525" width="108.307" height="108.307" style="fill:#a0a0a0;" /><rect x="2816.307" y="2708.525" width="108.307" height="216.614" /><rect x="3032.921" y="2708.525" width="108.307" height="216.614" style="fill:#303030;" /><rect x="433.558" y="2816.832" width="108.307" height="216.614" style="fill:#7a7a7a;" /><rect x="650.171" y="2816.832" width="108.307" height="216.614" /><rect x="758.478" y="2816.832" width="1624.602" height="108.307" style="fill:#8d8d8d;" /><rect x="2599.693" y="2816.832" width="108.307" height="108.307" style="fill:#a0a0a0;" /><rect x="2708" y="2816.832" width="108.307" height="216.614" /><rect x="2924.614" y="2816.832" width="108.307" height="216.614" style="fill:#303030;" /><rect x="541.865" y="2925.139" width="108.307" height="216.614" style="fill:#7a7a7a;" /><rect x="758.478" y="2925.139" width="108.307" height="216.614" /><rect x="866.785" y="2925.139" width="1516.295" height="108.307" style="fill:#8d8d8d;" /><rect x="2383.08" y="2925.139" width="216.614" height="108.307" style="fill:#a0a0a0;" /><rect x="2599.693" y="2925.139" width="108.307" height="216.614" /><rect x="2816.307" y="2925.139" width="108.307" height="216.614" style="fill:#303030;" /><rect x="650.171" y="3033.446" width="108.307" height="216.614" style="fill:#7a7a7a;" /><rect x="866.785" y="3033.446" width="216.614" height="108.307" /><rect x="1083.398" y="3033.446" width="1299.681" height="108.307" style="fill:#a0a0a0;" /><rect x="2383.08" y="3033.446" width="216.614" height="108.307" /><rect x="2708" y="3033.446" width="108.307" height="216.614" style="fill:#303030;" /><rect x="758.478" y="3141.752" width="216.614" height="108.307" style="fill:#7a7a7a;" /><rect x="975.092" y="3141.752" width="1516.295" height="108.307" /><rect x="2491.387" y="3141.752" width="216.614" height="108.307" style="fill:#303030;" /><rect x="866.785" y="3250.059" width="324.92" height="108.307" style="fill:#7a7a7a;" /><rect x="1191.705" y="3250.059" width="541.534" height="108.307" style="fill:#464646;" /><rect x="1733.239" y="3250.059" width="866.454" height="108.307" style="fill:#303030;" /></svg>