<?xml version='1.0' encoding='utf-8'?>
<svg xmlns="http://www.w3.org/2000/svg" viewBox="0 0 3357.536 3358.059" width="512" height="512" version="1.1" xml:space="preserve" style="fill-rule:evenodd;clip-rule:evenodd;stroke-linejoin:round;stroke-miterlimit:2;"><rect x="866.48" y="108.856" width="974.761" height="108.307" style="fill:#ebdaad;" /><rect x="1841.241" y="108.856" width="758.147" height="108.307" style="fill:#b5a885;" /><rect x="649.866" y="217.162" width="324.92" height="108.307" style="fill:#ebdaad;" /><rect x="974.786" y="217.162" width="1516.295" height="108.307" style="fill:#a89d81;" /><rect x="2491.081" y="217.162" width="324.92" height="108.307" style="fill:#b5a885;" /><rect x="541.559" y="325.469" width="216.614" height="108.307" style="fill:#ebdaad;" /><rect x="758.173" y="325.469" width="324.92" height="108.307" style="fill:#a89d81;" /><rect x="1083.093" y="325.469" width="1299.681" height="108.307" style="fill:#e0d9c7;" /><rect x="2382.774" y="325.469" width="324.92" height="108.307" style="fill:#a89d81;" /><rect x="2707.695" y="325.469" width="216.614" height="108.307" style="fill:#b5a885;" /><rect x="433.252" y="433.776" width="216.614" height="108.307" style="fill:#ebdaad;" /><rect x="649.866" y="433.776" width="216.614" height="108.307" style="fill:#a89d81;" /><rect x="866.48" y="433.776" width="324.92" height="108.307" style="fill:#e0d9c7;" /><rect x="1191.4" y="433.776" width="1407.988" height="2382.749" style="fill:#d6cfbd;" /><rect x="2599.388" y="433.776" width="216.614" height="108.307" style="fill:#a89d81;" /><rect x="2816.002" y="433.776" width="216.614" height="108.307" style="fill:#b5a885;" /><rect x="324.946" y="542.083" width="216.614" height="108.307" style="fill:#ebdaad;" /><rect x="541.559" y="542.083" width="216.614" height="108.307" style="fill:#a89d81;" /><rect x="758.173" y="542.083" width="216.614" height="108.307" style="fill:#e0d9c7;" /><rect x="974.786" y="542.083" width="216.614" height="2491.056" style="fill:#d6cfbd;" /><rect x="2599.388" y="542.083" width="108.307" height="2166.136" style="fill:#d6cfbd;" /><rect x="2707.695" y="542.083" width="216.614" height="108.307" style="fill:#a89d81;" /><rect x="2924.308" y="542.083" width="216.614" height="108.307" style="fill:#b5a885;" /><rect x="216.639" y="650.389" width="216.614" height="108.307" style="fill:#ebdaad;" /><rect x="433.252" y="650.389" width="216.614" height="108.307" style="fill:#a89d81;" /><rect x="649.866" y="650.389" width="216.614" height="108.307" style="fill:#e0d9c7;" /><rect x="866.48" y="650.389" width="108.307" height="2382.749" style="fill:#d6cfbd;" /><rect x="2707.695" y="650.389" width="108.307" height="1949.522" style="fill:#d6cfbd;" /><rect x="2816.002" y="650.389" width="216.614" height="108.307" style="fill:#a89d81;" /><rect x="3032.615" y="650.389" width="216.614" height="108.307" style="fill:#b5a885;" /><rect x="216.639" y="758.696" width="108.307" height="216.614" style="fill:#ebdaad;" /><rect x="324.946" y="758.696" width="216.614" height="108.307" style="fill:#a89d81;" /><rect x="541.559" y="758.696" width="216.614" height="108.307" style="fill:#e0d9c7;" /><rect x="758.173" y="758.696" width="108.307" height="2166.136" style="fill:#d6cfbd;" /><rect x="2816.002" y="758.696" width="108.307" height="1732.908" style="fill:#d6cfbd;" /><rect x="2924.308" y="758.696" width="216.614" height="108.307" style="fill:#a89d81;" /><rect x="3140.922" y="758.696" width="108.307" height="216.614" style="fill:#b5a885;" /><rect x="108.332" y="867.003" width="108.307" height="866.454" style="fill:#ebdaad;" /><rect x="324.946" y="867.003" width="108.307" height="216.614" style="fill:#a89d81;" /><rect x="433.252" y="867.003" width="216.614" height="216.614" style="fill:#e0d9c7;" /><rect x="649.866" y="867.003" width="108.307" height="1949.522" style="fill:#d6cfbd;" /><rect x="2924.308" y="867.003" width="108.307" height="1407.988" style="fill:#d6cfbd;" /><rect x="3032.615" y="867.003" width="108.307" height="216.614" style="fill:#a89d81;" /><rect x="3249.229" y="867.003" width="108.307" height="324.92" style="fill:#b5a885;" /><rect x="216.639" y="975.31" width="108.307" height="1516.295" style="fill:#a89d81;" /><rect x="3140.922" y="975.31" width="108.307" height="1516.295" style="fill:#a89d81;" /><rect x="324.946" y="1083.617" width="216.614" height="108.307" style="fill:#e0d9c7;" /><rect x="541.559" y="1083.617" width="108.307" height="1624.602" style="fill:#d6cfbd;" /><rect x="3032.615" y="1083.617" width="108.307" height="1299.681" style="fill:#c3bca9;" /><rect x="324.946" y="1191.923" width="108.307" height="1191.375" style="fill:#e0d9c7;" /><rect x="433.252" y="1191.923" width="108.307" height="1407.988" style="fill:#d6cfbd;" /><rect x="3249.229" y="1191.923" width="108.307" height="1299.681" style="fill:#797058;" /><rect x="108.332" y="1733.457" width="108.307" height="541.534" style="fill:#b5a885;" /><rect x="108.332" y="2274.991" width="108.307" height="324.92" style="fill:#5e5745;" /><rect x="2924.308" y="2274.991" width="108.307" height="324.92" style="fill:#c3bca9;" /><rect x="324.946" y="2383.298" width="108.307" height="324.92" style="fill:#a89d81;" /><rect x="3032.615" y="2383.298" width="108.307" height="324.92" style="fill:#a89d81;" /><rect x="216.639" y="2491.605" width="108.307" height="324.92" style="fill:#5e5745;" /><rect x="2816.002" y="2491.605" width="108.307" height="216.614" style="fill:#c3bca9;" /><rect x="3140.922" y="2491.605" width="216.614" height="108.307" style="fill:#5e5745;" /><rect x="433.252" y="2599.911" width="108.307" height="216.614" style="fill:#a89d81;" /><rect x="2707.695" y="2599.911" width="108.307" height="216.614" style="fill:#c3bca9;" /><rect x="2924.308" y="2599.911" width="108.307" height="216.614" style="fill:#a89d81;" /><rect x="3140.922" y="2599.911" width="108.307" height="216.614" style="fill:#5e5745;" /><rect x="324.946" y="2708.218" width="108.307" height="216.614" style="fill:#5e5745;" /><rect x="541.559" y="2708.218" width="108.307" height="216.614" style="fill:#a89d81;" /><rect x="2599.388" y="2708.218" width="108.307" height="216.614" style="fill:#c3bca9;" /><rect x="2816.002" y="2708.218" width="108.307" height="216.614" style="fill:#a89d81;" /><rect x="3032.615" y="2708.218" width="108.307" height="216.614" style="fill:#5e5745;" /><rect x="433.252" y="2816.525" width="108.307" height="216.614" style="fill:#5e5745;" /><rect x="649.866" y="2816.525" width="108.307" height="216.614" style="fill:#a89d81;" /><rect x="1191.4" y="2816.525" width="1299.681" height="108.307" style="fill:#d6cfbd;" /><rect x="2491.081" y="2816.525" width="108.307" height="216.614" style="fill:#c3bca9;" /><rect x="2707.695" y="2816.525" width="108.307" height="216.614" style="fill:#a89d81;" /><rect x="2924.308" y="2816.525" width="108.307" height="216.614" style="fill:#5e5745;" /><rect x="541.559" y="2924.832" width="108.307" height="216.614" style="fill:#5e5745;" /><rect x="758.173" y="2924.832" width="108.307" height="216.614" style="fill:#a89d81;" /><rect x="1191.4" y="2924.832" width="758.147" height="108.307" style="fill:#d6cfbd;" /><rect x="1949.547" y="2924.832" width="541.534" height="108.307" style="fill:#c3bca9;" /><rect x="2599.388" y="2924.832" width="108.307" height="216.614" style="fill:#a89d81;" /><rect x="2816.002" y="2924.832" width="108.307" height="216.614" style="fill:#5e5745;" /><rect x="649.866" y="3033.139" width="108.307" height="216.614" style="fill:#5e5745;" /><rect x="866.48" y="3033.139" width="541.534" height="108.307" style="fill:#a89d81;" /><rect x="1408.013" y="3033.139" width="649.841" height="108.307" style="fill:#c3bca9;" /><rect x="2057.854" y="3033.139" width="541.534" height="108.307" style="fill:#a89d81;" /><rect x="2707.695" y="3033.139" width="108.307" height="216.614" style="fill:#5e5745;" /><rect x="758.173" y="3141.445" width="108.307" height="108.307" style="fill:#5e5745;" /><rect x="866.48" y="3141.445" width="433.227" height="216.614" style="fill:#29210d;" /><rect x="1299.707" y="3141.445" width="866.454" height="108.307" style="fill:#a89d81;" /><rect x="2166.161" y="3141.445" width="433.227" height="216.614" style="fill:#29210d;" /><rect x="2599.388" y="3141.445" width="108.307" height="108.307" style="fill:#5e5745;" /><rect x="1299.707" y="3249.752" width="866.454" height="108.307" style="fill:#5e5745;" /></svg>