<svg width="512" height="512" viewBox="0 0 512 512" fill="none" xmlns="http://www.w3.org/2000/svg">
<path fill-rule="evenodd" clip-rule="evenodd" d="M157.083 8.3075H123.844V25.0413H157.083V8.3075ZM338.64 8.3075H222.875V25.0413H338.64V8.3075ZM454.177 57.8231H437.443V91.0622H454.177V57.8231ZM58.0518 74.3283H41.318V107.567H58.0518V74.3283ZM25.0415 140.349H8.30762V157.083H25.0415V140.349ZM503.693 140.349H486.959V173.588H503.693V140.349ZM25.0415 173.36H8.30762V206.599H25.0415V173.36ZM25.0415 222.875H8.30762V239.609H25.0415V222.875ZM503.693 222.875H486.959V289.125H503.693V222.875ZM25.0415 272.391H8.30762V322.135H25.0415V272.391ZM25.0415 338.412H8.30762V371.651H25.0415V338.412ZM41.5466 387.927H24.8127V421.167H41.318V437.672H58.0518V404.433H41.5466V387.927ZM41.5466 404.433H41.318V421.167H41.5466V404.433ZM107.567 453.948H90.8336V487.187H107.567V453.948ZM404.661 470.453H387.928V487.187H404.661V470.453ZM173.588 486.959H140.349V503.692H173.588V486.959ZM355.146 486.959H321.907V503.692H355.146V486.959Z" fill="#B65F0B"/>
<path fill-rule="evenodd" clip-rule="evenodd" d="M437.443 437.443H454.177V454.177H437.443V437.443Z" fill="#B65F0B"/>
<path fill-rule="evenodd" clip-rule="evenodd" d="M503.693 371.422H470.454V388.156V404.661H487.187V388.156H503.693V371.422Z" fill="#B65F0B"/>
<path fill-rule="evenodd" clip-rule="evenodd" d="M107.568 41.3178H74.3285V58.0517V74.5569H91.0623V58.0517H107.568V41.3178Z" fill="#B65F0B"/>
<path fill-rule="evenodd" clip-rule="evenodd" d="M355.146 107.339H206.37V123.844H189.865V140.349H173.36V156.854H156.855V206.599H173.36V223.104H206.37V239.609H223.104V222.875H206.599V206.37H173.588V157.083H190.093V140.578H206.599V124.073H354.917V140.578H387.928V157.083H420.938V173.588H437.443V190.093H453.948V206.599H470.454V256.114H487.187V206.37H470.682V189.865H454.177V173.36H437.672V156.854H421.167V140.349H388.156V123.844H355.146V107.339ZM470.682 206.37H470.454V206.599H470.682V206.37ZM454.177 189.865V190.093H453.948V189.865H454.177ZM437.672 173.36V173.588H437.443V173.36H437.672ZM421.167 156.854V157.083H420.938V156.854H421.167ZM388.156 140.349V140.578H387.928V140.349H388.156ZM355.146 123.844V124.073H354.917V123.844H355.146ZM206.599 222.875H206.37V223.104H206.599V222.875ZM173.588 206.37V206.599H173.36V206.37H173.588ZM173.588 157.083H173.36V156.854H173.588V157.083ZM190.093 140.578H189.865V140.349H190.093V140.578ZM206.599 124.073H206.37V123.844H206.599V124.073ZM355.146 206.37H288.896V222.875H272.391V239.609H289.125V223.104H354.917V239.609H371.422V256.114H387.928V272.619H404.433V404.433H387.928V420.938H371.422V437.443H354.917V453.948H338.412V470.453H321.907V487.187H338.64V470.682H355.146V454.177H371.651V437.672H388.156V421.166H404.661V404.661H421.167V272.391H404.661V255.886H388.156V239.381H371.651V222.875H355.146V206.37ZM338.64 470.682V470.453H338.412V470.682H338.64ZM355.146 454.177H354.917V453.948H355.146V454.177ZM371.651 437.672H371.422V437.443H371.651V437.672ZM388.156 421.166H387.928V420.938H388.156V421.166ZM404.661 404.661H404.433V404.433H404.661V404.661ZM404.661 272.391V272.619H404.433V272.391H404.661ZM388.156 255.886V256.114H387.928V255.886H388.156ZM371.651 239.381V239.609H371.422V239.381H371.651ZM355.146 222.875V223.104H354.917V222.875H355.146ZM289.125 223.104V222.875H288.896V223.104H289.125ZM140.578 470.453H107.339V487.187H123.844V503.692H140.578V487.187H123.844V486.959H140.578V470.453Z" fill="#9E540D"/>
<path fill-rule="evenodd" clip-rule="evenodd" d="M371.422 470.453H388.156V503.692H371.651H371.422H354.917V486.959H371.422V470.453Z" fill="#9E540D"/>
<path fill-rule="evenodd" clip-rule="evenodd" d="M57.8232 420.938H74.5571V437.443H91.0623V470.682H74.3285V454.177H57.8232V420.938Z" fill="#9E540D"/>
<path fill-rule="evenodd" clip-rule="evenodd" d="M8.30762 206.37H25.0415V223.104H8.30762V206.37ZM8.30762 239.381H25.0415V272.62H8.30762V239.381ZM25.0415 321.906H8.30762V338.64H25.0415V321.906ZM8.30762 371.422H41.5467V388.156H8.30762V371.422Z" fill="#9E540D"/>
<path fill-rule="evenodd" clip-rule="evenodd" d="M74.5571 57.8231H57.8232V91.0622H74.5571V57.8231ZM41.5466 90.8336H24.8127V107.567H41.5466V90.8336Z" fill="#9E540D"/>
<path fill-rule="evenodd" clip-rule="evenodd" d="M156.855 8.3075H223.104V25.0413H156.855V8.3075Z" fill="#9E540D"/>
<path fill-rule="evenodd" clip-rule="evenodd" d="M388.156 8.3075H354.917V25.0413H371.422V41.5464H388.156V25.0413H371.422V24.8126H388.156V8.3075Z" fill="#9E540D"/>
<path fill-rule="evenodd" clip-rule="evenodd" d="M421.167 24.8126H404.433V58.0517H420.938V74.5569H437.672V57.8231H421.167V24.8126ZM421.167 57.8231V58.0517H420.938V57.8231H421.167Z" fill="#9E540D"/>
<path fill-rule="evenodd" clip-rule="evenodd" d="M453.948 107.567H470.454V140.578H486.959V123.844H487.187V140.578H503.693V123.844H487.187L487.188 107.567V90.8336H453.948V107.567Z" fill="#9E540D"/>
<path fill-rule="evenodd" clip-rule="evenodd" d="M487.188 404.433H453.948V420.938H437.443V437.672H470.682V421.166H487.188V404.433Z" fill="#9E540D"/>
<path fill-rule="evenodd" clip-rule="evenodd" d="M503.693 288.896H486.959V371.651H503.693V288.896Z" fill="#9E540D"/>
<path fill-rule="evenodd" clip-rule="evenodd" d="M338.412 8.3075H355.146V25.0413H338.412V8.3075ZM90.8336 24.8126H140.578V41.5464H90.8336V24.8126ZM387.928 24.8126H404.661V41.5464H387.928V24.8126ZM420.938 41.3178H437.672V58.0517H420.938V41.3178ZM453.948 74.3283H470.682V91.0622H453.948V74.3283ZM24.8127 107.339H41.5466V140.578H25.0415V123.844H24.8127V107.339ZM24.8127 123.844V140.578H8.30762V123.844H24.8127ZM8.30762 156.854H25.0415V173.588H8.30762V156.854ZM486.959 173.36H503.693V223.104H486.959V173.36Z" fill="#C86B11"/>
<path fill-rule="evenodd" clip-rule="evenodd" d="M420.938 437.443H437.672V470.682H421.167V487.187H404.433V453.948H420.938V437.443Z" fill="#C86B11"/>
<path fill-rule="evenodd" clip-rule="evenodd" d="M206.599 486.959H173.36V503.692H206.599V486.959ZM322.135 486.959H272.391V503.692H322.135V486.959Z" fill="#C86B11"/>
<path fill-rule="evenodd" clip-rule="evenodd" d="M140.35 24.8126H173.589V41.5465H157.083V58.0517H140.578V74.557H124.073V91.0622H107.568V107.567H91.0624V239.381H107.568V272.391H124.073V288.896H157.083V305.401H239.381V288.896H255.886V256.114L256.115 255.886H272.62V272.391H305.63V288.896H322.136V305.401H338.641V355.146H322.136V371.651H305.63V388.156L156.855 388.156V371.651H123.844V355.146H90.8338V338.64H74.3287V322.135H57.8235V305.63H41.3182V256.114H24.813V140.349H41.3182V107.339H57.8235V90.8336H74.3287V74.3284H90.8338V57.8231H107.339V41.3179H140.35V24.8126Z" fill="#491F08"/>
<path fill-rule="evenodd" clip-rule="evenodd" d="M256.115 255.886V239.609H272.62V223.104H289.125V206.599H354.917V223.104H371.423V239.609H387.928V256.114H404.433V272.62H420.938V404.433H404.433V420.938H387.928V437.443H371.423V453.948H354.917V470.453H338.412V487.187L371.651 487.187V470.682L404.662 470.682V454.177H421.167V437.672H437.672V421.166H454.177V404.661H470.683V371.651H487.188V255.886H470.683V206.37H454.177V189.865H437.672V173.36H421.167V156.854H388.156V140.349H355.146V123.844H206.37V140.349H189.865V156.854H173.36V206.599H206.37V223.104H222.876V239.609H239.381V256.114H255.886L256.115 255.886Z" fill="#491F08"/>
<path fill-rule="evenodd" clip-rule="evenodd" d="M173.36 24.8126H190.094V41.5465H173.36V24.8126ZM156.855 41.3179H173.589V58.0517H156.855V41.3179ZM140.35 57.8231H157.083V74.557H140.35V57.8231ZM123.844 74.3284H140.578V91.0622H123.844V74.3284ZM107.339 90.8336H124.073V107.567H107.339V90.8336ZM90.8338 107.339H107.568V239.609H90.8338V107.339ZM107.339 239.381H124.073V272.62H107.339V239.381ZM24.813 255.886H41.5468V305.63H24.813V255.886ZM123.844 272.391H157.083V289.125H123.844V272.391ZM239.381 272.391H256.115V289.125H239.381V272.391ZM156.855 288.896H239.61V305.63H156.855V288.896ZM41.3182 305.401H58.0521V322.135H41.3182V305.401ZM338.412 305.401H355.146V355.146H338.412V305.401ZM57.8235 321.906H74.5573V338.64H57.8235V321.906ZM74.3287 338.412H91.0626V355.146H74.3287V338.412ZM90.8338 354.917H124.073V371.651H90.8338V354.917ZM321.907 354.917H338.641V371.651H321.907V354.917ZM123.844 371.422H157.083V388.156H123.844V371.422ZM305.402 371.422H322.136V388.156H305.402V371.422ZM156.855 387.927H305.63V404.661H156.855V387.927Z" fill="#FFAB5B"/>
<path fill-rule="evenodd" clip-rule="evenodd" d="M189.865 24.8126H206.599V41.5465H189.865V24.8126ZM173.36 41.3179H190.094V58.0517H173.36V41.3179ZM156.855 57.8231H173.588V74.557H156.855V57.8231ZM140.349 74.3284H157.083V91.0622H140.349V74.3284ZM123.844 90.8336H140.578V107.567H123.844V90.8336ZM107.339 123.844H124.073V239.609H107.339V123.844ZM123.844 255.886H157.083V272.62H123.844V255.886ZM156.855 272.391H206.599V289.125H156.855V272.391ZM305.402 272.391H322.135V289.125H305.402V272.391ZM321.907 288.896H355.146V305.63H321.907V288.896Z" fill="#E1740E"/>
<path fill-rule="evenodd" clip-rule="evenodd" d="M206.37 24.8126H371.651V41.3179H354.917V41.5465H206.37V24.8126ZM387.928 58.0517H354.917V41.5465H371.651V41.3179H404.662V57.8231H387.928V58.0517ZM404.433 74.557H387.928V58.0517H404.662V57.8231H421.167V74.3284H404.433V74.557ZM420.938 91.0622H404.433V74.557H421.167V74.3284H437.672V90.8336H420.938V91.0622ZM437.443 107.567H420.938V91.0622H437.672V90.8336H454.177V107.339H437.443V107.567ZM453.949 124.073H437.443V107.567H454.177V107.339H470.683V123.844H453.949V124.073ZM470.683 140.349V124.073H453.949V157.083H470.454V206.599H487.188V140.349H470.683ZM470.683 140.349V157.083H470.454V140.349H470.683Z" fill="#FF8C20"/>
<path fill-rule="evenodd" clip-rule="evenodd" d="M41.5468 338.412H24.813V371.651H41.3182V404.661H57.8235V421.167H74.3287V437.672H90.8338V454.177H107.339V470.682H123.844H124.073H140.35V487.187H289.125V470.453H157.083V453.948H124.073V437.443H107.568V420.938H91.0626V404.433H74.5573V387.927H58.0521V354.917H41.5468V338.412Z" fill="#FF8C20"/>
<path fill-rule="evenodd" clip-rule="evenodd" d="M140.35 123.844V124.073H140.578V123.844H140.35ZM189.865 107.339H190.094V107.567H189.865V107.339ZM289.125 256.114H288.897V255.886H289.125V256.114Z" fill="#F58215"/>
<path fill-rule="evenodd" clip-rule="evenodd" d="M355.146 41.3179H189.865V57.8231H173.36V74.3284H156.855V90.8336H140.35V107.339H107.339V124.073H123.844V256.114L140.35 256.114H156.855V272.62H173.36H173.589H206.37V289.125H239.61V272.62H256.115V256.114H255.886V255.886H239.61V239.381H206.599V222.875H173.589V206.37H157.083V157.083H173.589V140.578H190.094V124.073H206.599V107.567H354.917V124.073H387.928V140.578H404.433H404.662H420.938V157.083H437.443V173.588H453.949V190.094H470.683V156.854H454.177V123.844H437.672V107.339H421.167V90.8336H404.662V74.3284H388.156V57.8231H355.146V41.3179ZM58.0521 338.412V321.906H41.5468V305.401H24.813V338.641H41.3182V355.146H57.8235V338.412H58.0521ZM189.865 107.339V107.567H190.094V107.339H189.865ZM140.35 123.844V124.073H140.578V123.844H140.35Z" fill="#F58215"/>
<path fill-rule="evenodd" clip-rule="evenodd" d="M289.125 256.114H288.897V255.886H289.125V256.114Z" fill="#F58215"/>
<path fill-rule="evenodd" clip-rule="evenodd" d="M107.339 421.166V437.672H123.844V454.177H156.855V470.682H288.897V487.187L305.402 487.187H322.136V470.682H338.641V454.177H355.146V437.672H371.651V421.166H388.156V404.661H404.662V272.391H388.156V255.886H371.651V239.381H355.146V222.875H288.897V239.381H255.886V255.886H256.115V256.114H272.391V272.62H288.897H289.125H321.907V289.125H354.917V354.917H338.412V371.422H321.907V387.927H305.402V404.433H157.083V387.927H124.073V371.422H91.0626V354.917H74.5573V338.412H58.0521V355.146H57.8235V388.156H74.3287V404.661H90.8338V421.166H107.339ZM288.897 256.114H289.125V255.886H288.897V256.114Z" fill="#F58215"/>
<path fill-rule="evenodd" clip-rule="evenodd" d="M206.371 486.959H272.62V503.692H206.371V486.959Z" fill="#D57519"/>
</svg>
