<?xml version="1.0" encoding="UTF-8" standalone="no"?>
<svg
   viewBox="0 0 32 32"
   version="1.1"
   width="512"
   height="512"
   shape-rendering="crispEdges"
   id="svg146"
   sodipodi:docname="mother-sublime_merge.svg"
   inkscape:version="1.4.4 (dcaf3e7d9e, 2026-05-05)"
   xmlns:inkscape="http://www.inkscape.org/namespaces/inkscape"
   xmlns:sodipodi="http://sodipodi.sourceforge.net/DTD/sodipodi-0.dtd"
   xmlns="http://www.w3.org/2000/svg"
   xmlns:svg="http://www.w3.org/2000/svg">
  <defs
     id="defs146" />
  <sodipodi:namedview
     id="namedview146"
     pagecolor="#505050"
     bordercolor="#ffffff"
     borderopacity="1"
     inkscape:showpageshadow="0"
     inkscape:pageopacity="0"
     inkscape:pagecheckerboard="1"
     inkscape:deskcolor="#505050"
     inkscape:zoom="1.6367188"
     inkscape:cx="256"
     inkscape:cy="256"
     inkscape:window-width="1920"
     inkscape:window-height="1024"
     inkscape:window-x="0"
     inkscape:window-y="0"
     inkscape:window-maximized="1"
     inkscape:current-layer="svg146" />
  <rect
     x="7"
     y="1"
     width="2"
     height="1"
     fill="#003874"
     id="rect1" />
  <rect
     x="9"
     y="1"
     width="13"
     height="1"
     fill="#0061C9"
     id="rect2" />
  <rect
     x="5"
     y="2"
     width="3"
     height="1"
     fill="#003874"
     id="rect4" />
  <rect
     x="4"
     y="3"
     width="2"
     height="1"
     fill="#003874"
     id="rect7" />
  <rect
     x="3"
     y="4"
     width="2"
     height="1"
     fill="#003874"
     id="rect12" />
  <rect
     x="2"
     y="5"
     width="2"
     height="1"
     fill="#003874"
     id="rect18" />
  <rect
     x="2"
     y="6"
     width="1"
     height="2"
     fill="#003874"
     id="rect24" />
  <rect
     x="1"
     y="7"
     width="1"
     height="17"
     fill="#003874"
     id="rect30" />
  <rect
     x="7"
     y="7"
     width="3"
     height="1"
     fill="#2073CD"
     id="rect33" />
  <path
     id="rect37"
     style="fill:#115baa"
     d="m 30,7 h 1 v 3 H 30 Z M 29,6 h 1 V 8 H 29 Z M 28,5 h 2 V 6 H 28 Z M 27,4 h 2 V 5 H 27 Z M 26,3 h 2 V 4 H 26 Z M 24,2 h 3 V 3 H 24 Z M 22,1 h 3 v 1 h -3 z" />
  <rect
     x="6"
     y="8"
     width="3"
     height="3"
     fill="#0B60BB"
     id="rect39" />
  <rect
     x="9"
     y="8"
     width="2"
     height="1"
     fill="#2073CD"
     id="rect40" />
  <rect
     x="9"
     y="9"
     width="1"
     height="5"
     fill="#0B60BB"
     id="rect44" />
  <rect
     x="10"
     y="9"
     width="2"
     height="1"
     fill="#2073CD"
     id="rect45" />
  <rect
     x="10"
     y="10"
     width="1"
     height="5"
     fill="#0B60BB"
     id="rect48" />
  <rect
     x="11"
     y="10"
     width="2"
     height="1"
     fill="#2073CD"
     id="rect49" />
  <rect
     x="30"
     y="10"
     width="1"
     height="14"
     fill="#0D69CB"
     id="rect51" />
  <rect
     x="7"
     y="11"
     width="2"
     height="1"
     fill="#0B60BB"
     id="rect53" />
  <rect
     x="11"
     y="11"
     width="1"
     height="5"
     fill="#0B60BB"
     id="rect54" />
  <rect
     x="12"
     y="11"
     width="2"
     height="1"
     fill="#2073CD"
     id="rect55" />
  <rect
     x="8"
     y="12"
     width="1"
     height="1"
     fill="#0B60BB"
     id="rect58" />
  <rect
     x="12"
     y="12"
     width="1"
     height="5"
     fill="#0B60BB"
     id="rect59" />
  <rect
     x="13"
     y="12"
     width="2"
     height="1"
     fill="#2073CD"
     id="rect60" />
  <rect
     x="13"
     y="13"
     width="1"
     height="3"
     fill="#0B60BB"
     id="rect63" />
  <rect
     x="14"
     y="13"
     width="2"
     height="1"
     fill="#2073CD"
     id="rect64" />
  <rect
     x="16"
     y="13"
     width="8"
     height="1"
     fill="#3898FF"
     id="rect65" />
  <rect
     x="14"
     y="14"
     width="1"
     height="1"
     fill="#0B60BB"
     id="rect68" />
  <rect
     x="15"
     y="14"
     width="2"
     height="1"
     fill="#3898FF"
     id="rect69" />
  <rect
     x="23"
     y="14"
     width="3"
     height="1"
     fill="#3898FF"
     id="rect71" />
  <rect
     x="14"
     y="15"
     width="2"
     height="1"
     fill="#3898FF"
     id="rect73" />
  <rect
     x="25"
     y="15"
     width="2"
     height="1"
     fill="#3898FF"
     id="rect76" />
  <rect
     x="27"
     y="15"
     width="1"
     height="3"
     fill="#001E3E"
     id="rect77" />
  <rect
     x="13"
     y="16"
     width="2"
     height="1"
     fill="#3898FF"
     id="rect79" />
  <rect
     x="26"
     y="16"
     width="1"
     height="1"
     fill="#3898FF"
     id="rect82" />
  <rect
     x="12"
     y="17"
     width="2"
     height="1"
     fill="#3898FF"
     id="rect83" />
  <rect
     x="26"
     y="17"
     width="1"
     height="2"
     fill="#001E3E"
     id="rect85" />
  <rect
     x="11"
     y="18"
     width="2"
     height="1"
     fill="#3898FF"
     id="rect86" />
  <rect
     x="24"
     y="18"
     width="2"
     height="1"
     fill="#001E3E"
     id="rect89" />
  <rect
     x="10"
     y="19"
     width="2"
     height="1"
     fill="#3898FF"
     id="rect91" />
  <rect
     x="17"
     y="19"
     width="8"
     height="1"
     fill="#001E3E"
     id="rect93" />
  <rect
     x="9"
     y="20"
     width="2"
     height="1"
     fill="#3898FF"
     id="rect95" />
  <rect
     x="16"
     y="20"
     width="2"
     height="1"
     fill="#001E3E"
     id="rect97" />
  <rect
     x="8"
     y="21"
     width="2"
     height="1"
     fill="#3898FF"
     id="rect99" />
  <rect
     x="15"
     y="21"
     width="2"
     height="1"
     fill="#001E3E"
     id="rect101" />
  <rect
     x="7"
     y="22"
     width="2"
     height="1"
     fill="#3898FF"
     id="rect103" />
  <rect
     x="14"
     y="22"
     width="2"
     height="1"
     fill="#001E3E"
     id="rect105" />
  <rect
     x="7"
     y="23"
     width="1"
     height="2"
     fill="#3898FF"
     id="rect108" />
  <path
     id="rect109"
     style="fill:#2989f0"
     d="m 8,23 h 1 v 3 H 8 Z m 1,-1 h 1 v 4 H 9 Z m 1,-1 h 1 v 5 h -1 z m 1,-1 h 1 v 5 h -1 z m 1,-1 h 1 v 5 h -1 z m 11,-1 h 1 v 1 h -1 z m -10,0 h 1 v 5 h -1 z m 1,-1 h 1 v 5 h -1 z m 11,-1 h 1 v 2 h -1 z m -10,0 h 1 v 5 h -1 z m 8,-1 h 2 v 3 h -2 z m -7,0 h 1 v 5 h -1 z m 1,-1 h 6 v 5 h -6 z" />
  <rect
     x="13"
     y="23"
     width="2"
     height="1"
     fill="#001E3E"
     id="rect110" />
  <rect
     x="12"
     y="24"
     width="2"
     height="1"
     fill="#001E3E"
     id="rect114" />
  <rect
     x="11"
     y="25"
     width="2"
     height="1"
     fill="#001E3E"
     id="rect120" />
  <rect
     x="8"
     y="26"
     width="4"
     height="1"
     fill="#001E3E"
     id="rect126" />
  <path
     d="M 9,3 V 4 H 7 V 5 H 6 V 6 H 5 V 7 H 4 V 9 H 3 v 14 h 1 v 2 h 1 v 1 h 1 v 1 h 1 v 1 h 1 1 v 1 h 3 1 1 1 1 1 1 5 v -1 h 2 v -1 h 1 v -1 h 1 v -1 h 1 v -2 h 1 V 9 H 28 V 7 H 27 V 6 H 26 V 5 H 25 V 4 H 23 V 3 Z M 7,7 h 2 1 v 1 h 1 v 1 h 1 v 1 h 1 v 1 h 1 v 1 h 1 v 1 h 8 1 v 1 h 1 1 v 1 h 1 1 v 3 h -1 v 1 h -2 v 1 h -7 v 1 h -1 v 1 h -1 v 1 h -1 v 1 h -1 v 1 h -1 v 1 h -1 v 1 H 8 V 25 H 7 v -3 h 1 v -1 h 1 v -1 h 1 v -1 h 1 v -1 h 1 V 16 H 11 V 15 H 10 V 14 H 9 V 13 H 8 V 12 H 7 V 11 H 6 V 8 h 1 z"
     style="fill:#002e5f"
     id="path146" />
  <path
     id="rect143"
     style="fill:#001225"
     d="m 8,29 h 16 v 1 H 8 Z m 15,-1 h 2 v 1 H 23 Z M 7,28 h 2 v 1 H 7 Z m 18,-1 h 1 v 2 H 25 Z M 6,27 h 1 v 2 H 6 Z m 20,-1 h 1 v 2 H 26 Z M 5,26 h 1 v 2 H 5 Z m 22,-1 h 1 v 2 H 27 Z M 4,25 h 1 v 2 H 4 Z m 24,-2 h 1 v 3 H 28 Z M 3,23 h 1 v 3 H 3 Z M 29,8 h 1 V 24 H 29 Z M 2,8 H 3 V 24 H 2 Z M 28,7 h 1 V 9 H 28 Z M 3,7 H 4 V 9 H 3 Z M 27,6 h 2 V 7 H 27 Z M 3,6 H 5 V 7 H 3 Z M 26,5 h 2 V 6 H 26 Z M 4,5 H 6 V 6 H 4 Z M 25,4 h 2 V 5 H 25 Z M 5,4 H 7 V 5 H 5 Z M 23,3 h 3 V 4 H 23 Z M 6,3 H 9 V 4 H 6 Z M 8,2 H 24 V 3 H 8 Z" />
  <path
     id="rect145"
     style="fill:#0a57aa"
     d="m 7,30 h 11 v 1 H 7 Z M 6,29 h 2 v 1 H 6 Z M 5,28 h 1 v 2 H 5 Z M 4,27 h 1 v 2 H 4 Z M 3,26 h 1 v 2 H 3 Z M 2,25 h 1 v 2 H 2 Z M 1,24 h 2 v 1 H 1 Z" />
  <path
     id="rect146"
     style="fill:#0d4b8d"
     d="m 18,30 h 7 v 1 h -7 z m 6,-1 h 2 v 1 h -2 z m 2,-1 h 1 v 2 h -1 z m 1,-1 h 1 v 2 h -1 z m 1,-1 h 1 v 2 h -1 z m 1,-1 h 1 v 2 h -1 z m 0,-1 h 2 v 1 h -2 z" />
</svg>
