<?xml version='1.0' encoding='utf-8'?>
<svg xmlns="http://www.w3.org/2000/svg" viewBox="0 0 3357.583 3357.738" width="512" height="512" version="1.1" xml:space="preserve" style="fill-rule:evenodd;clip-rule:evenodd;stroke-linejoin:round;stroke-miterlimit:2;"><rect x="866.527" y="108.535" width="1732.908" height="108.307" style="fill:#f7f7f7;" /><rect x="649.913" y="216.842" width="324.92" height="108.307" style="fill:#f7f7f7;" /><rect x="974.833" y="216.842" width="1516.295" height="324.92" style="fill:#ebebeb;" /><rect x="2491.128" y="216.842" width="324.92" height="108.307" style="fill:#f7f7f7;" /><rect x="541.606" y="325.148" width="216.614" height="108.307" style="fill:#f7f7f7;" /><rect x="758.22" y="325.148" width="216.614" height="541.534" style="fill:#ebebeb;" /><rect x="2491.128" y="325.148" width="216.614" height="324.92" style="fill:#ebebeb;" /><rect x="2707.742" y="325.148" width="216.614" height="108.307" style="fill:#f7f7f7;" /><rect x="433.299" y="433.455" width="216.614" height="108.307" style="fill:#f7f7f7;" /><rect x="649.913" y="433.455" width="108.307" height="2599.363" style="fill:#ebebeb;" /><rect x="2707.742" y="433.455" width="108.307" height="2599.363" style="fill:#ebebeb;" /><rect x="2816.049" y="433.455" width="216.614" height="108.307" style="fill:#f7f7f7;" /><rect x="324.993" y="541.762" width="216.614" height="108.307" style="fill:#f7f7f7;" /><rect x="541.606" y="541.762" width="108.307" height="2382.749" style="fill:#ebebeb;" /><rect x="974.833" y="541.762" width="1083.068" height="108.307" style="fill:#ebebeb;" /><rect x="2057.901" y="541.762" width="433.227" height="108.307" style="fill:#fff;" /><rect x="2816.049" y="541.762" width="108.307" height="2382.749" style="fill:#ebebeb;" /><rect x="2924.355" y="541.762" width="216.614" height="108.307" style="fill:#f7f7f7;" /><rect x="216.686" y="650.069" width="216.614" height="108.307" style="fill:#f7f7f7;" /><rect x="433.299" y="650.069" width="108.307" height="2166.136" style="fill:#ebebeb;" /><rect x="974.833" y="650.069" width="108.307" height="108.307" style="fill:#ebebeb;" /><rect x="1083.14" y="650.069" width="866.454" height="108.307" style="fill:#1a5fb4;" /><rect x="1949.594" y="650.069" width="108.307" height="108.307" style="fill:#fff;" /><rect x="2057.901" y="650.069" width="433.227" height="649.841" style="fill:#eaeaea;" /><rect x="2491.128" y="650.069" width="108.307" height="108.307" style="fill:#fff;" /><rect x="2599.435" y="650.069" width="108.307" height="108.307" style="fill:#ebebeb;" /><rect x="2924.355" y="650.069" width="108.307" height="2166.136" style="fill:#ebebeb;" /><rect x="3032.662" y="650.069" width="216.614" height="108.307" style="fill:#f7f7f7;" /><rect x="216.686" y="758.375" width="108.307" height="216.614" style="fill:#f7f7f7;" /><rect x="324.993" y="758.375" width="108.307" height="1949.522" style="fill:#ebebeb;" /><rect x="974.833" y="758.375" width="108.307" height="108.307" style="fill:#1a5fb4;" /><rect x="1083.14" y="758.375" width="758.147" height="758.147" style="fill:#3584e4;" /><rect x="1841.288" y="758.375" width="108.307" height="433.227" style="fill:#fff;" /><rect x="1949.594" y="758.375" width="108.307" height="433.227" style="fill:#eaeaea;" /><rect x="2491.128" y="758.375" width="108.307" height="433.227" style="fill:#eaeaea;" /><rect x="2599.435" y="758.375" width="108.307" height="433.227" style="fill:#fff;" /><rect x="3032.662" y="758.375" width="108.307" height="1949.522" style="fill:#ebebeb;" /><rect x="3140.969" y="758.375" width="108.307" height="216.614" style="fill:#f7f7f7;" /><rect x="108.379" y="866.682" width="108.307" height="216.614" style="fill:#f7f7f7;" /><rect x="758.22" y="866.682" width="108.307" height="2274.442" style="fill:#ebebeb;" /><rect x="866.527" y="866.682" width="108.307" height="108.307" style="fill:#1a5fb4;" /><rect x="974.833" y="866.682" width="108.307" height="541.534" style="fill:#3584e4;" /><rect x="3249.276" y="866.682" width="108.307" height="216.614" style="fill:#f7f7f7;" /><rect x="216.686" y="974.989" width="108.307" height="1516.295" style="fill:#ebebeb;" /><rect x="866.527" y="974.989" width="108.307" height="433.227" style="fill:#3584e4;" /><rect x="3140.969" y="974.989" width="108.307" height="1516.295" style="fill:#ebebeb;" /><rect x="108.379" y="1083.296" width="108.307" height="1407.988" style="fill:#efefef;" /><rect x="3249.276" y="1083.296" width="108.307" height="1407.988" style="fill:#efefef;" /><rect x="1841.288" y="1191.603" width="108.307" height="108.307" style="fill:#c1c1c1;" /><rect x="1949.594" y="1191.603" width="108.307" height="108.307" style="fill:#fff;" /><rect x="2491.128" y="1191.603" width="108.307" height="108.307" style="fill:#fff;" /><rect x="2599.435" y="1191.603" width="108.307" height="108.307" style="fill:#c1c1c1;" /><rect x="1841.288" y="1299.909" width="108.307" height="216.614" style="fill:#3584e4;" /><rect x="1949.594" y="1299.909" width="108.307" height="108.307" style="fill:#c1c1c1;" /><rect x="2057.901" y="1299.909" width="433.227" height="108.307" style="fill:#fff;" /><rect x="2491.128" y="1299.909" width="108.307" height="108.307" style="fill:#c1c1c1;" /><rect x="2599.435" y="1299.909" width="108.307" height="758.147" style="fill:#ebebeb;" /><rect x="866.527" y="1408.216" width="216.614" height="433.227" style="fill:#ebebeb;" /><rect x="1949.594" y="1408.216" width="108.307" height="108.307" style="fill:#3584e4;" /><rect x="2057.901" y="1408.216" width="433.227" height="108.307" style="fill:#c1c1c1;" /><rect x="2491.128" y="1408.216" width="108.307" height="541.534" style="fill:#ebebeb;" /><rect x="1083.14" y="1516.523" width="1407.988" height="216.614" style="fill:#ebebeb;" /><rect x="1083.14" y="1733.136" width="433.227" height="108.307" style="fill:#fff;" /><rect x="1516.367" y="1733.136" width="974.761" height="108.307" style="fill:#ebebeb;" /><rect x="866.527" y="1841.443" width="108.307" height="108.307" style="fill:#ebebeb;" /><rect x="974.833" y="1841.443" width="108.307" height="108.307" style="fill:#fff;" /><rect x="1083.14" y="1841.443" width="433.227" height="649.841" style="fill:#eaeaea;" /><rect x="1516.367" y="1841.443" width="108.307" height="108.307" style="fill:#fff;" /><rect x="1624.674" y="1841.443" width="866.454" height="108.307" style="fill:#848484;" /><rect x="866.527" y="1949.75" width="108.307" height="433.227" style="fill:#fff;" /><rect x="974.833" y="1949.75" width="108.307" height="433.227" style="fill:#eaeaea;" /><rect x="1516.367" y="1949.75" width="108.307" height="433.227" style="fill:#eaeaea;" /><rect x="1624.674" y="1949.75" width="108.307" height="433.227" style="fill:#fff;" /><rect x="1732.981" y="1949.75" width="758.147" height="758.147" style="fill:#a0a0a0;" /><rect x="2491.128" y="1949.75" width="108.307" height="108.307" style="fill:#848484;" /><rect x="2491.128" y="2058.057" width="108.307" height="541.534" style="fill:#a0a0a0;" /><rect x="2599.435" y="2058.057" width="108.307" height="108.307" style="fill:#848484;" /><rect x="2599.435" y="2166.364" width="108.307" height="324.92" style="fill:#a0a0a0;" /><rect x="866.527" y="2382.977" width="108.307" height="108.307" style="fill:#c1c1c1;" /><rect x="974.833" y="2382.977" width="108.307" height="108.307" style="fill:#fff;" /><rect x="1516.367" y="2382.977" width="108.307" height="108.307" style="fill:#fff;" /><rect x="1624.674" y="2382.977" width="108.307" height="108.307" style="fill:#c1c1c1;" /><rect x="108.379" y="2491.284" width="216.614" height="108.307" style="fill:#deddda;" /><rect x="866.527" y="2491.284" width="108.307" height="649.841" style="fill:#ebebeb;" /><rect x="974.833" y="2491.284" width="108.307" height="108.307" style="fill:#c1c1c1;" /><rect x="1083.14" y="2491.284" width="433.227" height="108.307" style="fill:#fff;" /><rect x="1516.367" y="2491.284" width="108.307" height="108.307" style="fill:#c1c1c1;" /><rect x="1624.674" y="2491.284" width="108.307" height="216.614" style="fill:#a0a0a0;" /><rect x="2599.435" y="2491.284" width="108.307" height="649.841" style="fill:#ebebeb;" /><rect x="3140.969" y="2491.284" width="216.614" height="108.307" style="fill:#deddda;" /><rect x="216.686" y="2599.591" width="108.307" height="216.614" style="fill:#deddda;" /><rect x="974.833" y="2599.591" width="108.307" height="649.841" style="fill:#ebebeb;" /><rect x="1083.14" y="2599.591" width="433.227" height="108.307" style="fill:#c1c1c1;" /><rect x="1516.367" y="2599.591" width="108.307" height="108.307" style="fill:#a0a0a0;" /><rect x="2491.128" y="2599.591" width="108.307" height="541.534" style="fill:#ebebeb;" /><rect x="3140.969" y="2599.591" width="108.307" height="216.614" style="fill:#deddda;" /><rect x="324.993" y="2707.897" width="108.307" height="216.614" style="fill:#deddda;" /><rect x="1083.14" y="2707.897" width="1407.988" height="541.534" style="fill:#ebebeb;" /><rect x="3032.662" y="2707.897" width="108.307" height="216.614" style="fill:#deddda;" /><rect x="433.299" y="2816.204" width="108.307" height="216.614" style="fill:#deddda;" /><rect x="2924.355" y="2816.204" width="108.307" height="216.614" style="fill:#deddda;" /><rect x="541.606" y="2924.511" width="108.307" height="216.614" style="fill:#deddda;" /><rect x="2816.049" y="2924.511" width="108.307" height="216.614" style="fill:#deddda;" /><rect x="649.913" y="3032.818" width="108.307" height="216.614" style="fill:#deddda;" /><rect x="2707.742" y="3032.818" width="108.307" height="216.614" style="fill:#deddda;" /><rect x="758.22" y="3141.125" width="216.614" height="108.307" style="fill:#deddda;" /><rect x="2491.128" y="3141.125" width="216.614" height="108.307" style="fill:#deddda;" /><rect x="866.527" y="3249.431" width="1732.908" height="108.307" style="fill:#deddda;" /></svg>