<?xml version="1.0" encoding="UTF-8" ?>
<svg viewBox="0 0 32 32" version="1.1" width="512" height="512" xmlns="http://www.w3.org/2000/svg" shape-rendering="crispEdges">
<rect x="7" y="1" width="18" height="1" fill="#313131" />
<rect x="5" y="2" width="3" height="1" fill="#313131" />
<rect x="8" y="2" width="16" height="3" fill="#393939" />
<rect x="24" y="2" width="3" height="1" fill="#313131" />
<rect x="4" y="3" width="2" height="1" fill="#313131" />
<rect x="6" y="3" width="2" height="2" fill="#393939" />
<rect x="24" y="3" width="2" height="2" fill="#393939" />
<rect x="26" y="3" width="2" height="1" fill="#313131" />
<rect x="3" y="4" width="2" height="1" fill="#313131" />
<rect x="5" y="4" width="1" height="3" fill="#393939" />
<rect x="26" y="4" width="1" height="3" fill="#393939" />
<rect x="27" y="4" width="2" height="1" fill="#313131" />
<rect x="2" y="5" width="2" height="1" fill="#313131" />
<rect x="4" y="5" width="1" height="22" fill="#393939" />
<rect x="6" y="5" width="1" height="1" fill="#393939" />
<rect x="7" y="5" width="18" height="1" fill="#C7C7C7" />
<rect x="25" y="5" width="1" height="1" fill="#393939" />
<rect x="27" y="5" width="1" height="22" fill="#393939" />
<rect x="28" y="5" width="2" height="1" fill="#313131" />
<rect x="2" y="6" width="1" height="2" fill="#313131" />
<rect x="3" y="6" width="1" height="20" fill="#393939" />
<rect x="6" y="6" width="1" height="1" fill="#C7C7C7" />
<rect x="7" y="6" width="18" height="4" fill="#ECECEC" />
<rect x="25" y="6" width="1" height="1" fill="#C7C7C7" />
<rect x="28" y="6" width="1" height="20" fill="#393939" />
<rect x="29" y="6" width="1" height="2" fill="#313131" />
<rect x="1" y="7" width="1" height="18" fill="#313131" />
<rect x="5" y="7" width="1" height="2" fill="#C7C7C7" />
<rect x="6" y="7" width="1" height="2" fill="#ECECEC" />
<rect x="25" y="7" width="1" height="2" fill="#ECECEC" />
<rect x="26" y="7" width="1" height="2" fill="#C7C7C7" />
<rect x="30" y="7" width="1" height="18" fill="#313131" />
<rect x="2" y="8" width="1" height="16" fill="#393939" />
<rect x="29" y="8" width="1" height="16" fill="#393939" />
<rect x="5" y="9" width="1" height="19" fill="#393939" />
<rect x="6" y="9" width="1" height="1" fill="#FFFFFF" />
<rect x="25" y="9" width="1" height="1" fill="#FFFFFF" />
<rect x="26" y="9" width="1" height="19" fill="#393939" />
<rect x="6" y="10" width="1" height="5" fill="#393939" />
<rect x="7" y="10" width="18" height="1" fill="#FFFFFF" />
<rect x="25" y="10" width="1" height="4" fill="#393939" />
<rect x="7" y="11" width="18" height="2" fill="#393939" />
<rect x="7" y="13" width="16" height="1" fill="#393939" />
<rect x="23" y="13" width="2" height="1" fill="#59B8F4" />
<rect x="7" y="14" width="2" height="3" fill="#B1B1B1" />
<rect x="9" y="14" width="6" height="1" fill="#393939" />
<rect x="15" y="14" width="2" height="3" fill="#B1B1B1" />
<rect x="17" y="14" width="5" height="1" fill="#393939" />
<rect x="22" y="14" width="2" height="9" fill="#0B95ED" />
<rect x="24" y="14" width="2" height="1" fill="#4CB3F4" />
<rect x="6" y="15" width="1" height="2" fill="#B1B1B1" />
<rect x="9" y="15" width="1" height="1" fill="#B1B1B1" />
<rect x="10" y="15" width="4" height="15" fill="#393939" />
<rect x="14" y="15" width="1" height="2" fill="#B1B1B1" />
<rect x="17" y="15" width="1" height="1" fill="#B1B1B1" />
<rect x="18" y="15" width="4" height="15" fill="#393939" />
<rect x="24" y="15" width="1" height="9" fill="#0B95ED" />
<rect x="25" y="15" width="1" height="8" fill="#4CB3F4" />
<rect x="9" y="16" width="1" height="1" fill="#959595" />
<rect x="17" y="16" width="1" height="1" fill="#959595" />
<rect x="6" y="17" width="1" height="5" fill="#393939" />
<rect x="7" y="17" width="2" height="1" fill="#959595" />
<rect x="9" y="17" width="1" height="5" fill="#393939" />
<rect x="14" y="17" width="1" height="5" fill="#393939" />
<rect x="15" y="17" width="2" height="1" fill="#959595" />
<rect x="17" y="17" width="1" height="5" fill="#393939" />
<rect x="7" y="18" width="2" height="3" fill="#393939" />
<rect x="15" y="18" width="2" height="3" fill="#393939" />
<rect x="7" y="21" width="2" height="3" fill="#B1B1B1" />
<rect x="15" y="21" width="2" height="3" fill="#B1B1B1" />
<rect x="6" y="22" width="1" height="2" fill="#B1B1B1" />
<rect x="9" y="22" width="1" height="1" fill="#B1B1B1" />
<rect x="14" y="22" width="1" height="2" fill="#B1B1B1" />
<rect x="17" y="22" width="1" height="1" fill="#B1B1B1" />
<rect x="9" y="23" width="1" height="1" fill="#959595" />
<rect x="17" y="23" width="1" height="1" fill="#959595" />
<rect x="22" y="23" width="1" height="1" fill="#035C94" />
<rect x="23" y="23" width="1" height="1" fill="#0B95ED" />
<rect x="25" y="23" width="1" height="1" fill="#035C94" />
<rect x="2" y="24" width="1" height="3" fill="#313131" />
<rect x="6" y="24" width="1" height="5" fill="#393939" />
<rect x="7" y="24" width="2" height="1" fill="#959595" />
<rect x="9" y="24" width="1" height="6" fill="#393939" />
<rect x="14" y="24" width="1" height="6" fill="#393939" />
<rect x="15" y="24" width="2" height="1" fill="#959595" />
<rect x="17" y="24" width="1" height="6" fill="#393939" />
<rect x="22" y="24" width="1" height="6" fill="#393939" />
<rect x="23" y="24" width="2" height="1" fill="#035C94" />
<rect x="25" y="24" width="1" height="5" fill="#393939" />
<rect x="29" y="24" width="1" height="3" fill="#313131" />
<rect x="7" y="25" width="2" height="4" fill="#393939" />
<rect x="15" y="25" width="2" height="5" fill="#393939" />
<rect x="23" y="25" width="2" height="4" fill="#393939" />
<rect x="3" y="26" width="1" height="2" fill="#313131" />
<rect x="28" y="26" width="1" height="2" fill="#313131" />
<rect x="4" y="27" width="1" height="2" fill="#313131" />
<rect x="27" y="27" width="1" height="2" fill="#313131" />
<rect x="5" y="28" width="1" height="2" fill="#313131" />
<rect x="26" y="28" width="1" height="2" fill="#313131" />
<rect x="6" y="29" width="2" height="1" fill="#313131" />
<rect x="8" y="29" width="1" height="1" fill="#393939" />
<rect x="23" y="29" width="1" height="1" fill="#393939" />
<rect x="24" y="29" width="2" height="1" fill="#313131" />
<rect x="7" y="30" width="18" height="1" fill="#313131" />
</svg>