<?xml version="1.0" encoding="UTF-8" ?>
<svg viewBox="0 0 32 32" version="1.1" width="512" height="512" xmlns="http://www.w3.org/2000/svg" shape-rendering="crispEdges">
<rect x="7" y="1" width="1" height="1" fill="#E102FF" />
<rect x="8" y="1" width="1" height="1" fill="#E004FF" />
<rect x="9" y="1" width="1" height="1" fill="#E005FF" />
<rect x="10" y="1" width="1" height="1" fill="#E107FF" />
<rect x="11" y="1" width="1" height="1" fill="#E108FF" />
<rect x="12" y="1" width="1" height="1" fill="#E20AFF" />
<rect x="13" y="1" width="1" height="1" fill="#E10CFF" />
<rect x="14" y="1" width="1" height="1" fill="#E10DFF" />
<rect x="15" y="1" width="1" height="1" fill="#E20FFF" />
<rect x="16" y="1" width="1" height="1" fill="#E210FF" />
<rect x="17" y="1" width="1" height="1" fill="#E312FF" />
<rect x="18" y="1" width="1" height="1" fill="#E313FF" />
<rect x="19" y="1" width="1" height="1" fill="#E215FF" />
<rect x="20" y="1" width="1" height="1" fill="#E216FF" />
<rect x="21" y="1" width="1" height="1" fill="#E318FF" />
<rect x="22" y="1" width="1" height="1" fill="#E41AFF" />
<rect x="23" y="1" width="1" height="1" fill="#E41BFF" />
<rect x="24" y="1" width="1" height="1" fill="#E41DFF" />
<rect x="5" y="2" width="1" height="1" fill="#E000FF" />
<rect x="6" y="2" width="1" height="1" fill="#E102FF" />
<rect x="7" y="2" width="1" height="1" fill="#E003FF" />
<rect x="8" y="2" width="16" height="1" fill="#000000" />
<rect x="24" y="2" width="1" height="1" fill="#E41EFF" />
<rect x="25" y="2" width="1" height="1" fill="#E41FFF" />
<rect x="26" y="2" width="1" height="1" fill="#E421FF" />
<rect x="4" y="3" width="1" height="1" fill="#E000FF" />
<rect x="5" y="3" width="1" height="1" fill="#E001FF" />
<rect x="6" y="3" width="3" height="1" fill="#000000" />
<rect x="9" y="3" width="14" height="4" fill="#310C36" />
<rect x="23" y="3" width="3" height="1" fill="#000000" />
<rect x="26" y="3" width="1" height="1" fill="#E522FF" />
<rect x="27" y="3" width="1" height="1" fill="#E524FF" />
<rect x="3" y="4" width="1" height="2" fill="#E000FF" />
<rect x="4" y="4" width="1" height="1" fill="#E101FF" />
<rect x="5" y="4" width="2" height="1" fill="#000000" />
<rect x="7" y="4" width="2" height="10" fill="#310C36" />
<rect x="23" y="4" width="2" height="3" fill="#310C36" />
<rect x="25" y="4" width="2" height="1" fill="#000000" />
<rect x="27" y="4" width="1" height="1" fill="#E525FF" />
<rect x="28" y="4" width="1" height="1" fill="#E426FF" />
<rect x="2" y="5" width="1" height="2" fill="#E000FF" />
<rect x="4" y="5" width="2" height="1" fill="#000000" />
<rect x="6" y="5" width="1" height="12" fill="#310C36" />
<rect x="25" y="5" width="1" height="11" fill="#310C36" />
<rect x="26" y="5" width="2" height="1" fill="#000000" />
<rect x="28" y="5" width="1" height="1" fill="#E527FF" />
<rect x="29" y="5" width="1" height="1" fill="#E629FF" />
<rect x="3" y="6" width="2" height="1" fill="#000000" />
<rect x="5" y="6" width="1" height="8" fill="#310C36" />
<rect x="26" y="6" width="1" height="9" fill="#310C36" />
<rect x="27" y="6" width="2" height="1" fill="#000000" />
<rect x="29" y="6" width="1" height="1" fill="#E62AFF" />
<rect x="1" y="7" width="1" height="2" fill="#E000FF" />
<rect x="2" y="7" width="1" height="1" fill="#E101FF" />
<rect x="3" y="7" width="1" height="2" fill="#000000" />
<rect x="4" y="7" width="1" height="13" fill="#310C36" />
<rect x="9" y="7" width="3" height="5" fill="#310C36" />
<rect x="12" y="7" width="1" height="1" fill="#F499FF" />
<rect x="13" y="7" width="9" height="5" fill="#310C36" />
<rect x="22" y="7" width="3" height="1" fill="#FCEBFF" />
<rect x="27" y="7" width="1" height="8" fill="#310C36" />
<rect x="28" y="7" width="1" height="2" fill="#000000" />
<rect x="29" y="7" width="1" height="1" fill="#E62BFF" />
<rect x="30" y="7" width="1" height="1" fill="#E62CFF" />
<rect x="2" y="8" width="1" height="16" fill="#000000" />
<rect x="12" y="8" width="1" height="4" fill="#310C36" />
<rect x="22" y="8" width="1" height="2" fill="#FCEBFF" />
<rect x="23" y="8" width="2" height="2" fill="#F499FF" />
<rect x="29" y="8" width="1" height="16" fill="#000000" />
<rect x="30" y="8" width="1" height="1" fill="#E62DFF" />
<rect x="1" y="9" width="1" height="1" fill="#E001FF" />
<rect x="3" y="9" width="1" height="12" fill="#310C36" />
<rect x="28" y="9" width="1" height="6" fill="#310C36" />
<rect x="30" y="9" width="1" height="1" fill="#E52EFF" />
<rect x="1" y="10" width="1" height="1" fill="#E102FF" />
<rect x="22" y="10" width="3" height="7" fill="#310C36" />
<rect x="30" y="10" width="1" height="1" fill="#E52FFF" />
<rect x="1" y="11" width="1" height="1" fill="#E003FF" />
<rect x="30" y="11" width="1" height="1" fill="#E630FF" />
<rect x="1" y="12" width="1" height="1" fill="#E004FF" />
<rect x="9" y="12" width="1" height="1" fill="#310C36" />
<rect x="10" y="12" width="4" height="1" fill="#D1A1D8" />
<rect x="14" y="12" width="8" height="1" fill="#310C36" />
<rect x="30" y="12" width="1" height="1" fill="#E732FF" />
<rect x="1" y="13" width="1" height="1" fill="#E005FF" />
<rect x="9" y="13" width="1" height="1" fill="#D1A1D8" />
<rect x="10" y="13" width="4" height="14" fill="#AC87B1" />
<rect x="14" y="13" width="1" height="1" fill="#D1A1D8" />
<rect x="15" y="13" width="7" height="1" fill="#310C36" />
<rect x="30" y="13" width="1" height="1" fill="#E733FF" />
<rect x="1" y="14" width="1" height="1" fill="#E006FF" />
<rect x="5" y="14" width="1" height="1" fill="#F499FF" />
<rect x="7" y="14" width="1" height="2" fill="#310C36" />
<rect x="8" y="14" width="1" height="2" fill="#D1A1D8" />
<rect x="9" y="14" width="1" height="15" fill="#AC87B1" />
<rect x="14" y="14" width="1" height="12" fill="#AC87B1" />
<rect x="15" y="14" width="1" height="1" fill="#D1A1D8" />
<rect x="16" y="14" width="6" height="1" fill="#310C36" />
<rect x="30" y="14" width="1" height="1" fill="#E734FF" />
<rect x="1" y="15" width="1" height="1" fill="#E107FF" />
<rect x="5" y="15" width="1" height="3" fill="#310C36" />
<rect x="15" y="15" width="1" height="9" fill="#AC87B1" />
<rect x="16" y="15" width="1" height="2" fill="#D1A1D8" />
<rect x="17" y="15" width="5" height="2" fill="#310C36" />
<rect x="26" y="15" width="3" height="1" fill="#FCEBFF" />
<rect x="30" y="15" width="1" height="1" fill="#E835FF" />
<rect x="1" y="16" width="1" height="1" fill="#E108FF" />
<rect x="7" y="16" width="1" height="1" fill="#D1A1D8" />
<rect x="8" y="16" width="1" height="12" fill="#AC87B1" />
<rect x="25" y="16" width="2" height="1" fill="#FCEBFF" />
<rect x="27" y="16" width="2" height="7" fill="#E5C9E8" />
<rect x="30" y="16" width="1" height="1" fill="#E736FF" />
<rect x="1" y="17" width="1" height="1" fill="#E109FF" />
<rect x="6" y="17" width="1" height="1" fill="#D1A1D8" />
<rect x="7" y="17" width="1" height="11" fill="#AC87B1" />
<rect x="16" y="17" width="1" height="6" fill="#AC87B1" />
<rect x="17" y="17" width="2" height="1" fill="#D1A1D8" />
<rect x="19" y="17" width="3" height="1" fill="#310C36" />
<rect x="22" y="17" width="4" height="1" fill="#FCEBFF" />
<rect x="26" y="17" width="1" height="9" fill="#E5C9E8" />
<rect x="30" y="17" width="1" height="1" fill="#E737FF" />
<rect x="1" y="18" width="1" height="1" fill="#E10AFF" />
<rect x="5" y="18" width="1" height="2" fill="#D1A1D8" />
<rect x="6" y="18" width="1" height="9" fill="#AC87B1" />
<rect x="17" y="18" width="2" height="2" fill="#AC87B1" />
<rect x="19" y="18" width="4" height="1" fill="#FCEBFF" />
<rect x="23" y="18" width="3" height="9" fill="#E5C9E8" />
<rect x="30" y="18" width="1" height="1" fill="#E738FF" />
<rect x="1" y="19" width="1" height="1" fill="#E10BFF" />
<rect x="19" y="19" width="1" height="2" fill="#FCEBFF" />
<rect x="20" y="19" width="3" height="10" fill="#E5C9E8" />
<rect x="30" y="19" width="1" height="1" fill="#E739FF" />
<rect x="1" y="20" width="1" height="1" fill="#E10CFF" />
<rect x="4" y="20" width="1" height="1" fill="#D1A1D8" />
<rect x="5" y="20" width="1" height="6" fill="#AC87B1" />
<rect x="17" y="20" width="1" height="1" fill="#AC87B1" />
<rect x="18" y="20" width="1" height="2" fill="#FCEBFF" />
<rect x="30" y="20" width="1" height="1" fill="#E83AFF" />
<rect x="1" y="21" width="1" height="1" fill="#E10DFF" />
<rect x="3" y="21" width="1" height="1" fill="#D1A1D8" />
<rect x="4" y="21" width="1" height="4" fill="#AC87B1" />
<rect x="17" y="21" width="1" height="3" fill="#FCEBFF" />
<rect x="19" y="21" width="1" height="8" fill="#E5C9E8" />
<rect x="30" y="21" width="1" height="1" fill="#E83BFF" />
<rect x="1" y="22" width="1" height="1" fill="#E20FFF" />
<rect x="3" y="22" width="1" height="1" fill="#AC87B1" />
<rect x="18" y="22" width="1" height="7" fill="#E5C9E8" />
<rect x="30" y="22" width="1" height="1" fill="#E83CFF" />
<rect x="1" y="23" width="1" height="1" fill="#E210FF" />
<rect x="3" y="23" width="1" height="3" fill="#000000" />
<rect x="16" y="23" width="1" height="2" fill="#FCEBFF" />
<rect x="27" y="23" width="1" height="2" fill="#E5C9E8" />
<rect x="28" y="23" width="1" height="3" fill="#000000" />
<rect x="30" y="23" width="1" height="1" fill="#E83DFF" />
<rect x="1" y="24" width="1" height="1" fill="#E311FF" />
<rect x="2" y="24" width="1" height="1" fill="#E212FF" />
<rect x="15" y="24" width="1" height="3" fill="#FCEBFF" />
<rect x="17" y="24" width="1" height="5" fill="#E5C9E8" />
<rect x="29" y="24" width="1" height="1" fill="#E83CFF" />
<rect x="30" y="24" width="1" height="1" fill="#E93EFF" />
<rect x="2" y="25" width="1" height="1" fill="#E313FF" />
<rect x="4" y="25" width="1" height="2" fill="#000000" />
<rect x="16" y="25" width="1" height="4" fill="#E5C9E8" />
<rect x="27" y="25" width="1" height="2" fill="#000000" />
<rect x="29" y="25" width="1" height="1" fill="#E83DFF" />
<rect x="2" y="26" width="1" height="1" fill="#E214FF" />
<rect x="3" y="26" width="1" height="1" fill="#E316FF" />
<rect x="5" y="26" width="1" height="2" fill="#000000" />
<rect x="14" y="26" width="1" height="2" fill="#FCEBFF" />
<rect x="26" y="26" width="1" height="2" fill="#000000" />
<rect x="28" y="26" width="1" height="1" fill="#E83DFF" />
<rect x="29" y="26" width="1" height="1" fill="#E83EFF" />
<rect x="3" y="27" width="1" height="1" fill="#E317FF" />
<rect x="4" y="27" width="1" height="1" fill="#E318FF" />
<rect x="6" y="27" width="1" height="2" fill="#000000" />
<rect x="10" y="27" width="3" height="2" fill="#AC87B1" />
<rect x="13" y="27" width="1" height="2" fill="#FCEBFF" />
<rect x="15" y="27" width="1" height="2" fill="#E5C9E8" />
<rect x="23" y="27" width="2" height="1" fill="#E5C9E8" />
<rect x="25" y="27" width="1" height="2" fill="#000000" />
<rect x="27" y="27" width="1" height="1" fill="#E83CFF" />
<rect x="28" y="27" width="1" height="1" fill="#E93EFF" />
<rect x="4" y="28" width="1" height="1" fill="#E319FF" />
<rect x="5" y="28" width="1" height="1" fill="#E41BFF" />
<rect x="7" y="28" width="2" height="1" fill="#000000" />
<rect x="14" y="28" width="1" height="1" fill="#E5C9E8" />
<rect x="23" y="28" width="2" height="1" fill="#000000" />
<rect x="26" y="28" width="1" height="1" fill="#E83CFF" />
<rect x="27" y="28" width="1" height="1" fill="#E83DFF" />
<rect x="5" y="29" width="1" height="1" fill="#E31CFF" />
<rect x="6" y="29" width="1" height="1" fill="#E41EFF" />
<rect x="7" y="29" width="1" height="1" fill="#E41FFF" />
<rect x="8" y="29" width="16" height="1" fill="#000000" />
<rect x="24" y="29" width="1" height="1" fill="#E83AFF" />
<rect x="25" y="29" width="1" height="1" fill="#E83BFF" />
<rect x="26" y="29" width="1" height="1" fill="#E83DFF" />
<rect x="7" y="30" width="1" height="1" fill="#E420FF" />
<rect x="8" y="30" width="1" height="1" fill="#E522FF" />
<rect x="9" y="30" width="1" height="1" fill="#E523FF" />
<rect x="10" y="30" width="1" height="1" fill="#E425FF" />
<rect x="11" y="30" width="1" height="1" fill="#E426FF" />
<rect x="12" y="30" width="1" height="1" fill="#E528FF" />
<rect x="13" y="30" width="1" height="1" fill="#E62AFF" />
<rect x="14" y="30" width="1" height="1" fill="#E62BFF" />
<rect x="15" y="30" width="1" height="1" fill="#E72DFF" />
<rect x="16" y="30" width="1" height="1" fill="#E52EFF" />
<rect x="17" y="30" width="1" height="1" fill="#E630FF" />
<rect x="18" y="30" width="1" height="1" fill="#E631FF" />
<rect x="19" y="30" width="1" height="1" fill="#E733FF" />
<rect x="20" y="30" width="1" height="1" fill="#E835FF" />
<rect x="21" y="30" width="1" height="1" fill="#E636FF" />
<rect x="22" y="30" width="1" height="1" fill="#E738FF" />
<rect x="23" y="30" width="1" height="1" fill="#E739FF" />
<rect x="24" y="30" width="1" height="1" fill="#E83BFF" />
</svg>