<?xml version="1.0" encoding="UTF-8" ?>
<svg viewBox="0 0 32 32" version="1.1" width="512" height="512" xmlns="http://www.w3.org/2000/svg" shape-rendering="crispEdges">
<rect x="7" y="1" width="9" height="1" fill="#72ABFF" />
<rect x="16" y="1" width="9" height="1" fill="#4690FF" />
<rect x="5" y="2" width="3" height="1" fill="#72ABFF" />
<rect x="8" y="2" width="16" height="4" fill="#050B0D" />
<rect x="24" y="2" width="3" height="1" fill="#4690FF" />
<rect x="4" y="3" width="2" height="1" fill="#72ABFF" />
<rect x="6" y="3" width="2" height="6" fill="#050B0D" />
<rect x="24" y="3" width="2" height="6" fill="#050B0D" />
<rect x="26" y="3" width="2" height="1" fill="#4690FF" />
<rect x="3" y="4" width="2" height="1" fill="#72ABFF" />
<rect x="5" y="4" width="1" height="24" fill="#050B0D" />
<rect x="26" y="4" width="1" height="24" fill="#050B0D" />
<rect x="27" y="4" width="2" height="1" fill="#4690FF" />
<rect x="2" y="5" width="2" height="1" fill="#72ABFF" />
<rect x="4" y="5" width="1" height="22" fill="#050B0D" />
<rect x="27" y="5" width="1" height="22" fill="#050B0D" />
<rect x="28" y="5" width="2" height="1" fill="#4690FF" />
<rect x="2" y="6" width="1" height="2" fill="#72ABFF" />
<rect x="3" y="6" width="1" height="20" fill="#050B0D" />
<rect x="8" y="6" width="6" height="1" fill="#050B0D" />
<rect x="14" y="6" width="4" height="1" fill="#99C4FF" />
<rect x="18" y="6" width="6" height="1" fill="#050B0D" />
<rect x="28" y="6" width="1" height="20" fill="#050B0D" />
<rect x="29" y="6" width="1" height="2" fill="#4690FF" />
<rect x="1" y="7" width="1" height="9" fill="#72ABFF" />
<rect x="8" y="7" width="2" height="1" fill="#050B0D" />
<rect x="10" y="7" width="4" height="1" fill="#99C4FF" />
<rect x="14" y="7" width="4" height="2" fill="#4795FF" />
<rect x="18" y="7" width="4" height="1" fill="#99C4FF" />
<rect x="22" y="7" width="2" height="1" fill="#050B0D" />
<rect x="30" y="7" width="1" height="18" fill="#0065FB" />
<rect x="2" y="8" width="1" height="16" fill="#050B0D" />
<rect x="8" y="8" width="1" height="1" fill="#97C4FF" />
<rect x="9" y="8" width="1" height="1" fill="#99C4FF" />
<rect x="10" y="8" width="4" height="1" fill="#4795FF" />
<rect x="18" y="8" width="4" height="1" fill="#4795FF" />
<rect x="22" y="8" width="2" height="1" fill="#99C4FF" />
<rect x="29" y="8" width="1" height="16" fill="#050B0D" />
<rect x="6" y="9" width="1" height="20" fill="#050B0D" />
<rect x="7" y="9" width="1" height="1" fill="#95C7FF" />
<rect x="8" y="9" width="16" height="1" fill="#4199FF" />
<rect x="24" y="9" width="1" height="1" fill="#99C4FF" />
<rect x="25" y="9" width="1" height="20" fill="#050B0D" />
<rect x="7" y="10" width="1" height="1" fill="#75BAFF" />
<rect x="8" y="10" width="16" height="1" fill="#3D9EFF" />
<rect x="24" y="10" width="1" height="1" fill="#7BB4FF" />
<rect x="7" y="11" width="1" height="1" fill="#73BEFF" />
<rect x="8" y="11" width="16" height="1" fill="#39A3FF" />
<rect x="24" y="11" width="1" height="1" fill="#78B7FF" />
<rect x="7" y="12" width="1" height="1" fill="#70C1FF" />
<rect x="8" y="12" width="16" height="1" fill="#34A8FF" />
<rect x="24" y="12" width="1" height="1" fill="#75BAFF" />
<rect x="7" y="13" width="1" height="1" fill="#6DC4FF" />
<rect x="8" y="13" width="16" height="1" fill="#30AEFF" />
<rect x="24" y="13" width="1" height="1" fill="#73BDFF" />
<rect x="7" y="14" width="1" height="1" fill="#6BC9FF" />
<rect x="8" y="14" width="16" height="1" fill="#2CB4FF" />
<rect x="24" y="14" width="1" height="1" fill="#70C1FF" />
<rect x="7" y="15" width="1" height="1" fill="#67CDFF" />
<rect x="8" y="15" width="16" height="1" fill="#28BAFF" />
<rect x="24" y="15" width="1" height="1" fill="#6DC4FF" />
<rect x="1" y="16" width="1" height="9" fill="#4690FF" />
<rect x="7" y="16" width="1" height="1" fill="#64D1FF" />
<rect x="8" y="16" width="1" height="1" fill="#25BCFF" />
<rect x="9" y="16" width="15" height="1" fill="#22BFFF" />
<rect x="24" y="16" width="1" height="1" fill="#6BC8FF" />
<rect x="7" y="17" width="1" height="12" fill="#050B0D" />
<rect x="8" y="17" width="1" height="1" fill="#62D3FF" />
<rect x="9" y="17" width="14" height="1" fill="#1EC5FF" />
<rect x="23" y="17" width="1" height="1" fill="#67CDFF" />
<rect x="24" y="17" width="1" height="12" fill="#050B0D" />
<rect x="8" y="18" width="1" height="1" fill="#5FD8FF" />
<rect x="9" y="18" width="14" height="1" fill="#1ACCFF" />
<rect x="23" y="18" width="1" height="1" fill="#64D1FF" />
<rect x="8" y="19" width="1" height="11" fill="#050B0D" />
<rect x="9" y="19" width="1" height="1" fill="#5CDBFF" />
<rect x="10" y="19" width="12" height="1" fill="#16D2FF" />
<rect x="22" y="19" width="1" height="1" fill="#62D4FF" />
<rect x="23" y="19" width="1" height="11" fill="#050B0D" />
<rect x="9" y="20" width="1" height="1" fill="#59DFFF" />
<rect x="10" y="20" width="12" height="1" fill="#11D8FF" />
<rect x="22" y="20" width="1" height="1" fill="#5FD8FF" />
<rect x="9" y="21" width="1" height="9" fill="#050B0D" />
<rect x="10" y="21" width="1" height="1" fill="#58E3FF" />
<rect x="11" y="21" width="10" height="1" fill="#0DDEFF" />
<rect x="21" y="21" width="1" height="1" fill="#5ADEFF" />
<rect x="22" y="21" width="1" height="9" fill="#050B0D" />
<rect x="10" y="22" width="1" height="8" fill="#050B0D" />
<rect x="11" y="22" width="1" height="1" fill="#55E7FF" />
<rect x="12" y="22" width="8" height="1" fill="#09E5FF" />
<rect x="20" y="22" width="1" height="1" fill="#58E2FF" />
<rect x="21" y="22" width="1" height="8" fill="#050B0D" />
<rect x="11" y="23" width="1" height="7" fill="#050B0D" />
<rect x="12" y="23" width="1" height="1" fill="#51EBFF" />
<rect x="13" y="23" width="6" height="1" fill="#05ECFF" />
<rect x="19" y="23" width="1" height="1" fill="#55E7FF" />
<rect x="20" y="23" width="1" height="7" fill="#050B0D" />
<rect x="2" y="24" width="1" height="3" fill="#4690FF" />
<rect x="12" y="24" width="1" height="6" fill="#050B0D" />
<rect x="13" y="24" width="1" height="1" fill="#50EEFF" />
<rect x="14" y="24" width="4" height="1" fill="#05ECFF" />
<rect x="18" y="24" width="1" height="1" fill="#51ECFF" />
<rect x="19" y="24" width="1" height="6" fill="#050B0D" />
<rect x="29" y="24" width="1" height="3" fill="#0065FB" />
<rect x="13" y="25" width="1" height="5" fill="#050B0D" />
<rect x="14" y="25" width="3" height="1" fill="#4FF1FF" />
<rect x="17" y="25" width="1" height="1" fill="#4FF0FF" />
<rect x="18" y="25" width="1" height="5" fill="#050B0D" />
<rect x="3" y="26" width="1" height="2" fill="#4690FF" />
<rect x="14" y="26" width="4" height="4" fill="#050B0D" />
<rect x="28" y="26" width="1" height="2" fill="#0065FB" />
<rect x="4" y="27" width="1" height="2" fill="#4690FF" />
<rect x="27" y="27" width="1" height="2" fill="#0065FB" />
<rect x="5" y="28" width="1" height="2" fill="#4690FF" />
<rect x="26" y="28" width="1" height="2" fill="#0065FB" />
<rect x="6" y="29" width="2" height="1" fill="#4690FF" />
<rect x="24" y="29" width="2" height="1" fill="#0065FB" />
<rect x="7" y="30" width="1" height="1" fill="#4690FF" />
<rect x="8" y="30" width="17" height="1" fill="#0065FB" />
</svg>