<?xml version='1.0' encoding='utf-8'?>
<svg xmlns="http://www.w3.org/2000/svg" viewBox="0 0 3249.926 3249.366" width="512" height="512" version="1.1" xml:space="preserve" style="fill-rule:evenodd;clip-rule:evenodd;stroke-linejoin:round;stroke-miterlimit:2;"><rect x="758.87" y="216.776" width="866.454" height="108.307" style="fill:#534650;" /><rect x="1625.324" y="216.776" width="433.227" height="108.307" style="fill:#73616e;" /><rect x="2058.551" y="216.776" width="324.92" height="108.307" style="fill:#655561;" /><rect x="2383.472" y="216.776" width="324.92" height="108.307" style="fill:#534650;" /><rect x="542.256" y="325.083" width="324.92" height="108.307" style="fill:#534650;" /><rect x="867.177" y="325.083" width="541.534" height="108.307" style="fill:#73616e;" /><rect x="1408.711" y="325.083" width="541.534" height="108.307" style="fill:#655561;" /><rect x="1950.244" y="325.083" width="433.227" height="108.307" style="fill:#73616e;" /><rect x="2383.472" y="325.083" width="216.614" height="108.307" style="fill:#655561;" /><rect x="2600.085" y="325.083" width="324.92" height="108.307" style="fill:#534650;" /><rect x="433.949" y="433.39" width="216.614" height="108.307" style="fill:#534650;" /><rect x="650.563" y="433.39" width="108.307" height="108.307" style="fill:#655561;" /><rect x="758.87" y="433.39" width="108.307" height="108.307" style="fill:#73616e;" /><rect x="867.177" y="433.39" width="1732.908" height="541.534" style="fill:#fff;" /><rect x="2600.085" y="433.39" width="108.307" height="108.307" style="fill:#73616e;" /><rect x="2708.392" y="433.39" width="108.307" height="108.307" style="fill:#655561;" /><rect x="2816.699" y="433.39" width="216.614" height="108.307" style="fill:#534650;" /><rect x="325.643" y="541.697" width="216.614" height="108.307" style="fill:#534650;" /><rect x="542.256" y="541.697" width="108.307" height="108.307" style="fill:#655561;" /><rect x="650.563" y="541.697" width="216.614" height="1732.908" style="fill:#fff;" /><rect x="2600.085" y="541.697" width="216.614" height="1732.908" style="fill:#fff;" /><rect x="2816.699" y="541.697" width="216.614" height="108.307" style="fill:#655561;" /><rect x="3033.312" y="541.697" width="108.307" height="216.614" style="fill:#534650;" /><rect x="325.643" y="650.003" width="108.307" height="1191.375" style="fill:#534650;" /><rect x="433.949" y="650.003" width="108.307" height="108.307" style="fill:#655561;" /><rect x="542.256" y="650.003" width="108.307" height="1624.602" style="fill:#fff;" /><rect x="2816.699" y="650.003" width="108.307" height="1624.602" style="fill:#fff;" /><rect x="2925.005" y="650.003" width="108.307" height="108.307" style="fill:#73616e;" /><rect x="217.336" y="758.31" width="108.307" height="433.227" style="fill:#655561;" /><rect x="433.949" y="758.31" width="108.307" height="108.307" style="fill:#73616e;" /><rect x="2925.005" y="758.31" width="108.307" height="108.307" style="fill:#655561;" /><rect x="3033.312" y="758.31" width="108.307" height="108.307" style="fill:#73616e;" /><rect x="3141.619" y="758.31" width="108.307" height="108.307" style="fill:#534650;" /><rect x="433.949" y="866.617" width="108.307" height="1407.988" style="fill:#fff;" /><rect x="2925.005" y="866.617" width="108.307" height="1407.988" style="fill:#fff;" /><rect x="3033.312" y="866.617" width="216.614" height="216.614" style="fill:#655561;" /><rect x="867.177" y="974.924" width="108.307" height="1516.295" style="fill:#fff;" /><rect x="975.483" y="974.924" width="216.614" height="108.307" style="fill:#bca0b5;" /><rect x="1192.097" y="974.924" width="108.307" height="541.534" style="fill:#655561;" /><rect x="1300.404" y="974.924" width="866.454" height="1191.375" style="fill:#fff;" /><rect x="2166.858" y="974.924" width="216.614" height="108.307" style="fill:#bca0b5;" /><rect x="2383.472" y="974.924" width="108.307" height="541.534" style="fill:#655561;" /><rect x="2491.778" y="974.924" width="108.307" height="1516.295" style="fill:#fff;" /><rect x="975.483" y="1083.231" width="108.307" height="108.307" style="fill:#bca0b5;" /><rect x="1083.79" y="1083.231" width="108.307" height="433.227" style="fill:#655561;" /><rect x="2166.858" y="1083.231" width="108.307" height="108.307" style="fill:#bca0b5;" /><rect x="2275.165" y="1083.231" width="108.307" height="433.227" style="fill:#655561;" /><rect x="3033.312" y="1083.231" width="108.307" height="108.307" style="fill:#73616e;" /><rect x="3141.619" y="1083.231" width="108.307" height="108.307" style="fill:#655561;" /><rect x="217.336" y="1191.537" width="108.307" height="649.841" style="fill:#73616e;" /><rect x="975.483" y="1191.537" width="108.307" height="324.92" style="fill:#655561;" /><rect x="2166.858" y="1191.537" width="108.307" height="324.92" style="fill:#655561;" /><rect x="3033.312" y="1191.537" width="108.307" height="649.841" style="fill:#534650;" /><rect x="3141.619" y="1191.537" width="108.307" height="433.227" style="fill:#73616e;" /><rect x="975.483" y="1516.458" width="324.92" height="974.761" style="fill:#fff;" /><rect x="2166.858" y="1516.458" width="324.92" height="974.761" style="fill:#fff;" /><rect x="3141.619" y="1624.765" width="108.307" height="433.227" style="fill:#655561;" /><rect x="217.336" y="1841.378" width="108.307" height="216.614" style="fill:#534650;" /><rect x="325.643" y="1841.378" width="108.307" height="324.92" style="fill:#655561;" /><rect x="3033.312" y="1841.378" width="108.307" height="758.147" style="fill:#655561;" /><rect x="217.336" y="2057.992" width="108.307" height="433.227" style="fill:#655561;" /><rect x="3141.619" y="2057.992" width="108.307" height="541.534" style="fill:#534650;" /><rect x="325.643" y="2166.298" width="108.307" height="108.307" style="fill:#534650;" /><rect x="1300.404" y="2166.298" width="216.614" height="324.92" style="fill:#fff;" /><rect x="1517.017" y="2166.298" width="433.227" height="108.307" style="fill:#655561;" /><rect x="1950.244" y="2166.298" width="216.614" height="324.92" style="fill:#fff;" /><rect x="325.643" y="2274.605" width="108.307" height="216.614" style="fill:#73616e;" /><rect x="433.949" y="2274.605" width="324.92" height="324.92" style="fill:#faceef;" /><rect x="758.87" y="2274.605" width="108.307" height="108.307" style="fill:#fff;" /><rect x="1517.017" y="2274.605" width="433.227" height="216.614" style="fill:#fff;" /><rect x="2600.085" y="2274.605" width="108.307" height="108.307" style="fill:#fff;" /><rect x="2708.392" y="2274.605" width="324.92" height="324.92" style="fill:#faceef;" /><rect x="758.87" y="2382.912" width="108.307" height="108.307" style="fill:#f5e0f0;" /><rect x="2600.085" y="2382.912" width="108.307" height="108.307" style="fill:#f5e0f0;" /><rect x="217.336" y="2491.219" width="108.307" height="108.307" style="fill:#73616e;" /><rect x="325.643" y="2491.219" width="108.307" height="433.227" style="fill:#534650;" /><rect x="758.87" y="2491.219" width="1949.522" height="108.307" style="fill:#faceef;" /><rect x="217.336" y="2599.526" width="108.307" height="108.307" style="fill:#655561;" /><rect x="433.949" y="2599.526" width="108.307" height="216.614" style="fill:#73616e;" /><rect x="542.256" y="2599.526" width="433.227" height="108.307" style="fill:#deb0d3;" /><rect x="975.483" y="2599.526" width="108.307" height="108.307" style="fill:#f5e0f0;" /><rect x="1083.79" y="2599.526" width="974.761" height="108.307" style="fill:#deb0d3;" /><rect x="2058.551" y="2599.526" width="108.307" height="108.307" style="fill:#f5e0f0;" /><rect x="2166.858" y="2599.526" width="758.147" height="108.307" style="fill:#deb0d3;" /><rect x="2925.005" y="2599.526" width="108.307" height="216.614" style="fill:#655561;" /><rect x="3033.312" y="2599.526" width="108.307" height="216.614" style="fill:#73616e;" /><rect x="3141.619" y="2599.526" width="108.307" height="108.307" style="fill:#655561;" /><rect x="542.256" y="2707.832" width="2382.749" height="108.307" style="fill:#faceef;" /><rect x="433.949" y="2816.139" width="108.307" height="216.614" style="fill:#534650;" /><rect x="542.256" y="2816.139" width="108.307" height="108.307" style="fill:#655561;" /><rect x="650.563" y="2816.139" width="2166.136" height="108.307" style="fill:#faceef;" /><rect x="2816.699" y="2816.139" width="108.307" height="108.307" style="fill:#655561;" /><rect x="2925.005" y="2816.139" width="216.614" height="108.307" style="fill:#534650;" /><rect x="542.256" y="2924.446" width="108.307" height="216.614" style="fill:#534650;" /><rect x="650.563" y="2924.446" width="216.614" height="108.307" style="fill:#655561;" /><rect x="867.177" y="2924.446" width="649.841" height="108.307" style="fill:#deb0d3;" /><rect x="1517.017" y="2924.446" width="108.307" height="108.307" style="fill:#f5e0f0;" /><rect x="1625.324" y="2924.446" width="974.761" height="108.307" style="fill:#deb0d3;" /><rect x="2600.085" y="2924.446" width="216.614" height="108.307" style="fill:#73616e;" /><rect x="2816.699" y="2924.446" width="216.614" height="108.307" style="fill:#534650;" /><rect x="650.563" y="3032.753" width="216.614" height="108.307" style="fill:#534650;" /><rect x="867.177" y="3032.753" width="108.307" height="108.307" style="fill:#655561;" /><rect x="975.483" y="3032.753" width="541.534" height="108.307" style="fill:#73616e;" /><rect x="1517.017" y="3032.753" width="216.614" height="108.307" style="fill:#655561;" /><rect x="1733.631" y="3032.753" width="108.307" height="108.307" style="fill:#73616e;" /><rect x="1841.938" y="3032.753" width="324.92" height="108.307" style="fill:#655561;" /><rect x="2166.858" y="3032.753" width="216.614" height="108.307" style="fill:#73616e;" /><rect x="2383.472" y="3032.753" width="216.614" height="108.307" style="fill:#655561;" /><rect x="2600.085" y="3032.753" width="108.307" height="108.307" style="fill:#73616e;" /><rect x="2708.392" y="3032.753" width="216.614" height="108.307" style="fill:#534650;" /><rect x="758.87" y="3141.059" width="324.92" height="108.307" style="fill:#534650;" /><rect x="1083.79" y="3141.059" width="108.307" height="108.307" style="fill:#655561;" /><rect x="1192.097" y="3141.059" width="974.761" height="108.307" style="fill:#534650;" /><rect x="2166.858" y="3141.059" width="108.307" height="108.307" style="fill:#655561;" /><rect x="2275.165" y="3141.059" width="108.307" height="108.307" style="fill:#73616e;" /><rect x="2383.472" y="3141.059" width="108.307" height="108.307" style="fill:#655561;" /><rect x="2491.778" y="3141.059" width="324.92" height="108.307" style="fill:#534650;" /></svg>