<?xml version="1.0" encoding="UTF-8" ?>
<svg viewBox="0 0 32 32" version="1.1" width="512" height="512" xmlns="http://www.w3.org/2000/svg" shape-rendering="crispEdges">
<rect x="7" y="1" width="18" height="1" fill="#3E47FD" />
<rect x="5" y="2" width="3" height="1" fill="#3E47FD" />
<rect x="8" y="2" width="16" height="1" fill="#F0F0F0" />
<rect x="24" y="2" width="3" height="1" fill="#3E47FD" />
<rect x="4" y="3" width="2" height="1" fill="#3E47FD" />
<rect x="6" y="3" width="3" height="1" fill="#F0F0F0" />
<rect x="9" y="3" width="14" height="5" fill="#3E47FD" />
<rect x="23" y="3" width="3" height="1" fill="#F0F0F0" />
<rect x="26" y="3" width="2" height="1" fill="#3E47FD" />
<rect x="3" y="4" width="2" height="1" fill="#3E47FD" />
<rect x="5" y="4" width="2" height="1" fill="#F0F0F0" />
<rect x="7" y="4" width="2" height="5" fill="#3E47FD" />
<rect x="23" y="4" width="2" height="5" fill="#3E47FD" />
<rect x="25" y="4" width="2" height="1" fill="#F0F0F0" />
<rect x="27" y="4" width="2" height="1" fill="#3E47FD" />
<rect x="2" y="5" width="2" height="1" fill="#3E47FD" />
<rect x="4" y="5" width="2" height="1" fill="#F0F0F0" />
<rect x="6" y="5" width="1" height="6" fill="#3E47FD" />
<rect x="25" y="5" width="1" height="6" fill="#3E47FD" />
<rect x="26" y="5" width="2" height="1" fill="#F0F0F0" />
<rect x="28" y="5" width="2" height="1" fill="#3E47FD" />
<rect x="2" y="6" width="1" height="2" fill="#3E47FD" />
<rect x="3" y="6" width="2" height="1" fill="#F0F0F0" />
<rect x="5" y="6" width="1" height="6" fill="#3E47FD" />
<rect x="26" y="6" width="1" height="6" fill="#3E47FD" />
<rect x="27" y="6" width="2" height="1" fill="#F0F0F0" />
<rect x="29" y="6" width="1" height="2" fill="#3E47FD" />
<rect x="1" y="7" width="1" height="18" fill="#3E47FD" />
<rect x="3" y="7" width="1" height="2" fill="#F0F0F0" />
<rect x="4" y="7" width="1" height="18" fill="#3E47FD" />
<rect x="27" y="7" width="1" height="18" fill="#3E47FD" />
<rect x="28" y="7" width="1" height="2" fill="#F0F0F0" />
<rect x="30" y="7" width="1" height="18" fill="#3E47FD" />
<rect x="2" y="8" width="1" height="16" fill="#F0F0F0" />
<rect x="9" y="8" width="14" height="1" fill="#FFFFFF" />
<rect x="29" y="8" width="1" height="16" fill="#F0F0F0" />
<rect x="3" y="9" width="1" height="14" fill="#3E47FD" />
<rect x="7" y="9" width="1" height="1" fill="#3E47FD" />
<rect x="8" y="9" width="2" height="1" fill="#FFFFFF" />
<rect x="10" y="9" width="12" height="12" fill="#EEEEEE" />
<rect x="22" y="9" width="2" height="1" fill="#FFFFFF" />
<rect x="24" y="9" width="1" height="1" fill="#3E47FD" />
<rect x="28" y="9" width="1" height="14" fill="#3E47FD" />
<rect x="7" y="10" width="2" height="1" fill="#FFFFFF" />
<rect x="9" y="10" width="1" height="13" fill="#EEEEEE" />
<rect x="22" y="10" width="1" height="11" fill="#EEEEEE" />
<rect x="23" y="10" width="2" height="1" fill="#FFFFFF" />
<rect x="6" y="11" width="2" height="1" fill="#FFFFFF" />
<rect x="8" y="11" width="1" height="13" fill="#EEEEEE" />
<rect x="23" y="11" width="1" height="9" fill="#EEEEEE" />
<rect x="24" y="11" width="2" height="1" fill="#FFFFFF" />
<rect x="5" y="12" width="2" height="1" fill="#FFFFFF" />
<rect x="7" y="12" width="1" height="12" fill="#EEEEEE" />
<rect x="24" y="12" width="1" height="7" fill="#EEEEEE" />
<rect x="25" y="12" width="2" height="1" fill="#FFFFFF" />
<rect x="5" y="13" width="1" height="6" fill="#FFFFFF" />
<rect x="6" y="13" width="1" height="7" fill="#EEEEEE" />
<rect x="25" y="13" width="1" height="5" fill="#EEEEEE" />
<rect x="26" y="13" width="1" height="4" fill="#FFFFFF" />
<rect x="26" y="17" width="1" height="2" fill="#373FE1" />
<rect x="25" y="18" width="1" height="2" fill="#373FE1" />
<rect x="5" y="19" width="1" height="7" fill="#3E47FD" />
<rect x="24" y="19" width="1" height="2" fill="#373FE1" />
<rect x="26" y="19" width="1" height="7" fill="#3E47FD" />
<rect x="6" y="20" width="1" height="7" fill="#3E47FD" />
<rect x="23" y="20" width="1" height="2" fill="#373FE1" />
<rect x="25" y="20" width="1" height="7" fill="#3E47FD" />
<rect x="10" y="21" width="1" height="1" fill="#EEEEEE" />
<rect x="11" y="21" width="12" height="1" fill="#373FE1" />
<rect x="24" y="21" width="1" height="7" fill="#3E47FD" />
<rect x="10" y="22" width="2" height="1" fill="#373FE1" />
<rect x="12" y="22" width="12" height="6" fill="#3E47FD" />
<rect x="3" y="23" width="1" height="3" fill="#F0F0F0" />
<rect x="9" y="23" width="2" height="1" fill="#373FE1" />
<rect x="11" y="23" width="1" height="6" fill="#3E47FD" />
<rect x="28" y="23" width="1" height="3" fill="#F0F0F0" />
<rect x="2" y="24" width="1" height="3" fill="#3E47FD" />
<rect x="7" y="24" width="3" height="1" fill="#373FE1" />
<rect x="10" y="24" width="1" height="5" fill="#3E47FD" />
<rect x="29" y="24" width="1" height="3" fill="#3E47FD" />
<rect x="4" y="25" width="1" height="2" fill="#F0F0F0" />
<rect x="7" y="25" width="3" height="3" fill="#3E47FD" />
<rect x="27" y="25" width="1" height="2" fill="#F0F0F0" />
<rect x="3" y="26" width="1" height="2" fill="#3E47FD" />
<rect x="5" y="26" width="1" height="2" fill="#F0F0F0" />
<rect x="26" y="26" width="1" height="2" fill="#F0F0F0" />
<rect x="28" y="26" width="1" height="2" fill="#3E47FD" />
<rect x="4" y="27" width="1" height="2" fill="#3E47FD" />
<rect x="6" y="27" width="1" height="2" fill="#F0F0F0" />
<rect x="25" y="27" width="1" height="2" fill="#F0F0F0" />
<rect x="27" y="27" width="1" height="2" fill="#3E47FD" />
<rect x="5" y="28" width="1" height="2" fill="#3E47FD" />
<rect x="7" y="28" width="2" height="1" fill="#F0F0F0" />
<rect x="9" y="28" width="1" height="1" fill="#3E47FD" />
<rect x="12" y="28" width="11" height="1" fill="#3E47FD" />
<rect x="23" y="28" width="2" height="1" fill="#F0F0F0" />
<rect x="26" y="28" width="1" height="2" fill="#3E47FD" />
<rect x="6" y="29" width="2" height="1" fill="#3E47FD" />
<rect x="8" y="29" width="16" height="1" fill="#F0F0F0" />
<rect x="24" y="29" width="2" height="1" fill="#3E47FD" />
<rect x="7" y="30" width="18" height="1" fill="#3E47FD" />
</svg>