<?xml version="1.0" encoding="UTF-8" ?>
<svg viewBox="0 0 32 32" version="1.1" width="512" height="512" xmlns="http://www.w3.org/2000/svg" shape-rendering="crispEdges">
<rect x="7" y="1" width="18" height="1" fill="#FFFFFF" />
<rect x="5" y="2" width="3" height="1" fill="#FFFFFF" />
<rect x="8" y="2" width="1" height="29" fill="#E6E6E6" />
<rect x="9" y="2" width="1" height="10" fill="#000000" />
<rect x="10" y="2" width="13" height="10" fill="#2F3134" />
<rect x="23" y="2" width="4" height="5" fill="#E6E6E6" />
<rect x="4" y="3" width="2" height="1" fill="#FFFFFF" />
<rect x="6" y="3" width="2" height="4" fill="#E6E6E6" />
<rect x="27" y="3" width="1" height="4" fill="#E6E6E6" />
<rect x="3" y="4" width="2" height="1" fill="#FFFFFF" />
<rect x="5" y="4" width="1" height="3" fill="#E6E6E6" />
<rect x="28" y="4" width="1" height="24" fill="#E6E6E6" />
<rect x="2" y="5" width="2" height="1" fill="#FFFFFF" />
<rect x="4" y="5" width="1" height="2" fill="#E6E6E6" />
<rect x="29" y="5" width="1" height="22" fill="#E6E6E6" />
<rect x="2" y="6" width="1" height="2" fill="#FFFFFF" />
<rect x="3" y="6" width="1" height="22" fill="#E6E6E6" />
<rect x="1" y="7" width="1" height="18" fill="#FFFFFF" />
<rect x="4" y="7" width="3" height="1" fill="#000000" />
<rect x="7" y="7" width="1" height="24" fill="#E6E6E6" />
<rect x="23" y="7" width="2" height="24" fill="#E6E6E6" />
<rect x="25" y="7" width="3" height="1" fill="#000000" />
<rect x="30" y="7" width="1" height="18" fill="#E6E6E6" />
<rect x="2" y="8" width="1" height="19" fill="#E6E6E6" />
<rect x="4" y="8" width="1" height="2" fill="#000000" />
<rect x="5" y="8" width="2" height="2" fill="#2F3134" />
<rect x="25" y="8" width="1" height="2" fill="#000000" />
<rect x="26" y="8" width="2" height="2" fill="#2F3134" />
<rect x="4" y="10" width="3" height="5" fill="#E6E6E6" />
<rect x="25" y="10" width="3" height="5" fill="#E6E6E6" />
<rect x="9" y="12" width="2" height="9" fill="#E6E6E6" />
<rect x="11" y="12" width="10" height="1" fill="#2F3134" />
<rect x="21" y="12" width="2" height="9" fill="#E6E6E6" />
<rect x="11" y="13" width="1" height="7" fill="#E6E6E6" />
<rect x="12" y="13" width="8" height="1" fill="#2F3134" />
<rect x="20" y="13" width="1" height="7" fill="#E6E6E6" />
<rect x="12" y="14" width="8" height="5" fill="#E6E6E6" />
<rect x="4" y="15" width="3" height="1" fill="#000000" />
<rect x="25" y="15" width="3" height="1" fill="#000000" />
<rect x="4" y="16" width="1" height="2" fill="#000000" />
<rect x="5" y="16" width="2" height="2" fill="#2F3134" />
<rect x="25" y="16" width="1" height="2" fill="#000000" />
<rect x="26" y="16" width="2" height="2" fill="#2F3134" />
<rect x="4" y="18" width="3" height="5" fill="#E6E6E6" />
<rect x="25" y="18" width="3" height="6" fill="#E6E6E6" />
<rect x="12" y="19" width="8" height="1" fill="#000000" />
<rect x="11" y="20" width="2" height="1" fill="#000000" />
<rect x="13" y="20" width="8" height="11" fill="#2F3134" />
<rect x="9" y="21" width="3" height="1" fill="#000000" />
<rect x="12" y="21" width="1" height="10" fill="#2F3134" />
<rect x="21" y="21" width="2" height="10" fill="#2F3134" />
<rect x="9" y="22" width="1" height="9" fill="#000000" />
<rect x="10" y="22" width="2" height="9" fill="#2F3134" />
<rect x="4" y="23" width="3" height="1" fill="#000000" />
<rect x="4" y="24" width="1" height="2" fill="#000000" />
<rect x="5" y="24" width="2" height="2" fill="#2F3134" />
<rect x="25" y="24" width="3" height="1" fill="#000000" />
<rect x="25" y="25" width="1" height="2" fill="#000000" />
<rect x="26" y="25" width="2" height="2" fill="#2F3134" />
<rect x="4" y="26" width="3" height="3" fill="#E6E6E6" />
<rect x="25" y="27" width="3" height="2" fill="#E6E6E6" />
<rect x="5" y="29" width="2" height="1" fill="#E6E6E6" />
<rect x="25" y="29" width="2" height="1" fill="#E6E6E6" />
</svg>