<svg width="512" height="512" viewBox="0 0 512 512" fill="none" xmlns="http://www.w3.org/2000/svg">
<path fill-rule="evenodd" clip-rule="evenodd" d="M396.463 16.6023H132.152V33.1074H99.1415V49.6126H82.6362V66.3464H115.875V49.8412H148.886V33.3361H379.73V49.8412H412.74V66.3464H445.979V49.6126H429.474V33.1074H396.463V16.6023Z" fill="white"/>
<path fill-rule="evenodd" clip-rule="evenodd" d="M49.8547 264.18H33.1208V363.44H49.8547V264.18Z" fill="#6FB0FF"/>
<path fill-rule="evenodd" clip-rule="evenodd" d="M148.657 33.1074H379.958V49.8412H165.391V66.3465H132.381V82.8517H115.875V99.3569H99.3702V115.862H82.8651V132.367H66.3599V165.378H49.8547V247.904H33.1208V148.644H49.6261V132.367V132.139V115.633H66.1311V99.1282H82.6364V82.6231H99.1416V66.1179H115.647V49.6126H148.657V33.1074Z" fill="#6FB0FF"/>
<path fill-rule="evenodd" clip-rule="evenodd" d="M49.626 264.18H478.99V346.706V346.935V363.211V363.44V379.945H462.484V396.45H445.979V412.955H429.474V429.461H412.969V445.966H396.463V462.471H363.453V478.976H165.162V462.471H132.152V445.966H115.647V429.461H99.1415V412.955H82.6363V396.45H66.1311V363.44H49.626V346.935V346.706V264.18Z" fill="#3584E4"/>
<path fill-rule="evenodd" clip-rule="evenodd" d="M363.453 49.6125H165.162V66.1178H132.152V82.623H115.647V99.1281H99.1415V115.633H82.6363V132.139H66.1311V165.149H49.626V247.904H66.3598L82.6363 247.903H82.8649H99.1415H99.3701H115.647H115.875L132.152 247.904H132.381H165.162H165.391H181.896H346.719H363.224H363.453H396.235H396.464H412.969L429.245 247.903H429.474H445.75H445.979L462.256 247.904H478.99V148.644H462.484V132.139H445.979V115.633H429.474V99.1281H412.969V82.623H396.464V66.1178H363.453V49.6125Z" fill="#3584E4"/>
<path fill-rule="evenodd" clip-rule="evenodd" d="M478.761 247.675V264.409H445.751V247.675H478.761Z" fill="#1C71D8"/>
<path fill-rule="evenodd" clip-rule="evenodd" d="M412.969 49.6125H363.225V66.3464H396.235V82.8516H412.74V99.3568H429.245V115.862H445.751V132.367H462.256V148.872H478.761V247.675H478.99V264.409H478.761V363.44H495.495V148.644H478.99V132.367V132.139V115.633H462.484V99.1281H445.979V82.623H429.474V66.1178H412.969V49.6125ZM478.99 148.644H478.761V148.872H478.99V148.644Z" fill="#1C71D8"/>
<path fill-rule="evenodd" clip-rule="evenodd" d="M512 363.211H495.266V379.945H512V363.211Z" fill="#F6F5F4"/>
<path fill-rule="evenodd" clip-rule="evenodd" d="M495.495 99.1281V115.862V132.139H512V165.378H495.266V148.872H478.761V115.862H462.256V99.3568H445.75V82.8516H429.245V66.1178H462.484V82.623H478.989V99.1281H495.495Z" fill="#F6F5F4"/>
<path fill-rule="evenodd" clip-rule="evenodd" d="M99.37 66.1178H66.131V82.623H49.6259V99.1281H33.1207V115.633V115.862V132.139H16.6155V165.378H33.3493V148.872H49.8545V115.862H66.3597V99.3568H82.865V82.8516H99.37V66.1178Z" fill="#F6F5F4"/>
<path fill-rule="evenodd" clip-rule="evenodd" d="M198.173 132.139H214.907V148.872H198.173V132.139ZM313.709 132.139H330.443V148.872H313.709V132.139ZM181.667 148.644H198.401V165.378H181.667V148.644ZM330.214 148.644H346.948V165.378H330.214V148.644ZM198.173 346.706H214.907V363.44H198.173V346.706ZM313.709 346.706H330.443V363.44H313.709V346.706ZM181.667 363.211H198.401V379.945H181.667V363.211ZM330.214 363.211H346.948V379.945H330.214V363.211Z" fill="#DEDDDA"/>
<path fill-rule="evenodd" clip-rule="evenodd" d="M214.678 132.139H313.938V148.872H214.678V132.139ZM214.678 346.706H313.938V363.44H214.678V346.706Z" fill="#F5F5F5"/>
<path fill-rule="evenodd" clip-rule="evenodd" d="M198.173 148.644H330.443V165.378H198.173V148.644ZM181.667 165.149H198.401V181.883H181.667V165.149ZM330.214 165.149H346.948V181.883H330.214V165.149ZM198.173 363.211H330.443V379.945H198.173V363.211ZM181.667 379.716H198.401V396.45H181.667V379.716ZM330.214 379.716H346.948V396.45H330.214V379.716Z" fill="#BAB9B6"/>
<path fill-rule="evenodd" clip-rule="evenodd" d="M33.3493 165.149H16.6155V165.378H33.3493V165.149ZM512 165.149H495.266V363.44H512V165.149Z" fill="#ECECEC"/>
<path fill-rule="evenodd" clip-rule="evenodd" d="M198.173 165.149H330.443V181.883H198.173V165.149ZM33.1208 247.675H445.979V264.409H33.1208V247.675ZM198.173 379.717H330.443V396.45H198.173V379.717Z" fill="#2B6BBA"/>
<path fill-rule="evenodd" clip-rule="evenodd" d="M66.3599 363.211H33.1208V379.945H49.6261V412.956H66.1311V429.461H82.6364V445.966H99.1416V462.471H115.647V478.976H132.152H132.381H148.657V495.481H379.958V478.976H396.235H412.969V462.471H429.474V445.966H445.979V429.461H462.484V412.956H478.99V396.45H495.495V363.211H478.761V379.717H462.256V396.222H445.751V412.727H429.245V429.232H412.74V445.737H396.235V462.242H363.225V478.748H165.391V462.242H132.381V445.737H115.875V429.232H99.3702V412.727H82.865V396.222H66.3599V379.945V379.717V363.211Z" fill="#2B6BBA"/>
<path fill-rule="evenodd" clip-rule="evenodd" d="M16.6155 363.211H33.3493V379.717H49.8545V412.727H66.3597V429.232H82.8648V445.737H99.37V462.242H115.875V478.748H148.886V495.253H379.73V478.748H412.74V462.242H429.245V445.737H445.75V429.232H462.256V412.727H478.761V396.222H495.266V379.717H512V412.956H495.495V429.461H478.989V445.966H462.484V462.471H445.979V478.976H429.474V495.482H412.74L396.463 495.481V511.987H132.152V495.481L115.875 495.482H99.1414V478.976H82.6362V462.471H66.131V445.966H49.6259V429.461H33.1207V396.45H16.6155V363.211Z" fill="#DADADA"/>
<path fill-rule="evenodd" clip-rule="evenodd" d="M33.3493 346.706V165.378H16.6155V346.706V346.935V363.44H33.3493V346.935V346.706Z" fill="#ECECEC"/>
</svg>
