<?xml version="1.0" encoding="UTF-8" ?>
<svg viewBox="0 0 32 32" version="1.1" width="512" height="512" xmlns="http://www.w3.org/2000/svg" shape-rendering="crispEdges">
<rect x="7" y="1" width="18" height="1" fill="#1069AD" />
<rect x="5" y="2" width="3" height="1" fill="#1069AD" />
<rect x="8" y="2" width="19" height="1" fill="#031C2F" />
<rect x="4" y="3" width="2" height="1" fill="#1069AD" />
<rect x="6" y="3" width="14" height="1" fill="#031C2F" />
<rect x="20" y="3" width="1" height="7" fill="#005384" />
<rect x="21" y="3" width="3" height="1" fill="#4EB6F3" />
<rect x="24" y="3" width="4" height="1" fill="#031C2F" />
<rect x="3" y="4" width="2" height="1" fill="#1069AD" />
<rect x="5" y="4" width="14" height="1" fill="#031C2F" />
<rect x="19" y="4" width="1" height="7" fill="#066FAE" />
<rect x="21" y="4" width="2" height="23" fill="#27A6F1" />
<rect x="23" y="4" width="2" height="1" fill="#4EB6F3" />
<rect x="25" y="4" width="4" height="1" fill="#031C2F" />
<rect x="2" y="5" width="2" height="1" fill="#1069AD" />
<rect x="4" y="5" width="14" height="1" fill="#031C2F" />
<rect x="18" y="5" width="1" height="7" fill="#066FAE" />
<rect x="23" y="5" width="1" height="21" fill="#27A6F1" />
<rect x="24" y="5" width="2" height="1" fill="#4EB6F3" />
<rect x="26" y="5" width="4" height="19" fill="#031C2F" />
<rect x="2" y="6" width="1" height="2" fill="#1069AD" />
<rect x="3" y="6" width="14" height="1" fill="#031C2F" />
<rect x="17" y="6" width="1" height="7" fill="#066FAE" />
<rect x="24" y="6" width="1" height="19" fill="#27A6F1" />
<rect x="25" y="6" width="1" height="20" fill="#4EB6F3" />
<rect x="1" y="7" width="1" height="18" fill="#1069AD" />
<rect x="3" y="7" width="13" height="1" fill="#031C2F" />
<rect x="16" y="7" width="1" height="7" fill="#066FAE" />
<rect x="30" y="7" width="1" height="18" fill="#02111C" />
<rect x="2" y="8" width="3" height="1" fill="#031C2F" />
<rect x="5" y="8" width="3" height="1" fill="#2F8CD2" />
<rect x="8" y="8" width="7" height="1" fill="#031C2F" />
<rect x="15" y="8" width="1" height="7" fill="#066FAE" />
<rect x="2" y="9" width="2" height="18" fill="#031C2F" />
<rect x="4" y="9" width="3" height="3" fill="#0073C8" />
<rect x="7" y="9" width="2" height="1" fill="#2F8CD2" />
<rect x="9" y="9" width="5" height="1" fill="#031C2F" />
<rect x="14" y="9" width="1" height="6" fill="#066FAE" />
<rect x="7" y="10" width="1" height="5" fill="#0073C8" />
<rect x="8" y="10" width="2" height="1" fill="#2F8CD2" />
<rect x="10" y="10" width="3" height="1" fill="#031C2F" />
<rect x="13" y="10" width="1" height="4" fill="#066FAE" />
<rect x="20" y="10" width="1" height="2" fill="#031624" />
<rect x="8" y="11" width="1" height="5" fill="#0073C8" />
<rect x="9" y="11" width="2" height="1" fill="#2F8CD2" />
<rect x="11" y="11" width="1" height="1" fill="#031C2F" />
<rect x="12" y="11" width="1" height="2" fill="#066FAE" />
<rect x="19" y="11" width="1" height="2" fill="#031624" />
<rect x="4" y="12" width="1" height="2" fill="#031624" />
<rect x="5" y="12" width="2" height="1" fill="#0073C8" />
<rect x="9" y="12" width="1" height="5" fill="#0073C8" />
<rect x="10" y="12" width="2" height="1" fill="#2F8CD2" />
<rect x="18" y="12" width="1" height="2" fill="#031624" />
<rect x="20" y="12" width="1" height="9" fill="#031C2F" />
<rect x="5" y="13" width="1" height="2" fill="#031624" />
<rect x="6" y="13" width="1" height="1" fill="#0073C8" />
<rect x="10" y="13" width="1" height="5" fill="#0073C8" />
<rect x="11" y="13" width="2" height="1" fill="#2F8CD2" />
<rect x="17" y="13" width="1" height="2" fill="#031624" />
<rect x="19" y="13" width="1" height="7" fill="#031C2F" />
<rect x="4" y="14" width="1" height="5" fill="#031C2F" />
<rect x="6" y="14" width="1" height="2" fill="#031624" />
<rect x="11" y="14" width="1" height="5" fill="#0073C8" />
<rect x="12" y="14" width="2" height="1" fill="#2F8CD2" />
<rect x="16" y="14" width="1" height="2" fill="#031624" />
<rect x="18" y="14" width="1" height="5" fill="#031C2F" />
<rect x="5" y="15" width="1" height="3" fill="#031C2F" />
<rect x="7" y="15" width="1" height="1" fill="#031624" />
<rect x="12" y="15" width="1" height="5" fill="#0073C8" />
<rect x="13" y="15" width="2" height="1" fill="#2F8CD2" />
<rect x="15" y="15" width="1" height="1" fill="#031624" />
<rect x="17" y="15" width="1" height="3" fill="#031C2F" />
<rect x="6" y="16" width="1" height="1" fill="#031C2F" />
<rect x="7" y="16" width="2" height="6" fill="#00578A" />
<rect x="13" y="16" width="1" height="5" fill="#0073C8" />
<rect x="14" y="16" width="2" height="1" fill="#2F8CD2" />
<rect x="16" y="16" width="1" height="1" fill="#031C2F" />
<rect x="6" y="17" width="1" height="6" fill="#00578A" />
<rect x="9" y="17" width="1" height="4" fill="#00578A" />
<rect x="14" y="17" width="1" height="5" fill="#0073C8" />
<rect x="15" y="17" width="2" height="1" fill="#2F8CD2" />
<rect x="5" y="18" width="1" height="5" fill="#00578A" />
<rect x="10" y="18" width="1" height="2" fill="#00578A" />
<rect x="15" y="18" width="1" height="5" fill="#0073C8" />
<rect x="16" y="18" width="2" height="1" fill="#2F8CD2" />
<rect x="4" y="19" width="1" height="3" fill="#00578A" />
<rect x="11" y="19" width="1" height="2" fill="#031624" />
<rect x="16" y="19" width="1" height="5" fill="#0073C8" />
<rect x="17" y="19" width="2" height="1" fill="#2F8CD2" />
<rect x="10" y="20" width="1" height="2" fill="#031624" />
<rect x="12" y="20" width="1" height="10" fill="#031C2F" />
<rect x="17" y="20" width="1" height="5" fill="#0073C8" />
<rect x="18" y="20" width="1" height="1" fill="#2F8CD2" />
<rect x="19" y="20" width="1" height="1" fill="#2F80BC" />
<rect x="9" y="21" width="1" height="2" fill="#031624" />
<rect x="11" y="21" width="1" height="9" fill="#031C2F" />
<rect x="13" y="21" width="1" height="9" fill="#031C2F" />
<rect x="18" y="21" width="1" height="5" fill="#0073C8" />
<rect x="19" y="21" width="1" height="1" fill="#2F8CD2" />
<rect x="20" y="21" width="1" height="7" fill="#0065AF" />
<rect x="4" y="22" width="1" height="7" fill="#031C2F" />
<rect x="7" y="22" width="1" height="1" fill="#00578A" />
<rect x="8" y="22" width="1" height="2" fill="#031624" />
<rect x="10" y="22" width="1" height="8" fill="#031C2F" />
<rect x="14" y="22" width="1" height="8" fill="#031C2F" />
<rect x="19" y="22" width="1" height="5" fill="#0073C8" />
<rect x="5" y="23" width="1" height="7" fill="#031C2F" />
<rect x="6" y="23" width="2" height="1" fill="#031624" />
<rect x="9" y="23" width="1" height="7" fill="#031C2F" />
<rect x="15" y="23" width="1" height="7" fill="#031C2F" />
<rect x="6" y="24" width="3" height="6" fill="#031C2F" />
<rect x="16" y="24" width="1" height="6" fill="#031C2F" />
<rect x="26" y="24" width="3" height="2" fill="#031C2F" />
<rect x="29" y="24" width="1" height="3" fill="#02111C" />
<rect x="17" y="25" width="1" height="5" fill="#031C2F" />
<rect x="24" y="25" width="1" height="2" fill="#4EB6F3" />
<rect x="18" y="26" width="1" height="4" fill="#031C2F" />
<rect x="23" y="26" width="1" height="2" fill="#4EB6F3" />
<rect x="25" y="26" width="3" height="1" fill="#031C2F" />
<rect x="28" y="26" width="1" height="2" fill="#02111C" />
<rect x="3" y="27" width="1" height="1" fill="#031C2F" />
<rect x="19" y="27" width="1" height="3" fill="#031C2F" />
<rect x="21" y="27" width="2" height="1" fill="#4EB6F3" />
<rect x="24" y="27" width="3" height="1" fill="#031C2F" />
<rect x="27" y="27" width="1" height="2" fill="#02111C" />
<rect x="20" y="28" width="6" height="1" fill="#031C2F" />
<rect x="26" y="28" width="1" height="2" fill="#02111C" />
<rect x="20" y="29" width="4" height="1" fill="#031C2F" />
<rect x="24" y="29" width="2" height="1" fill="#02111C" />
<rect x="7" y="30" width="18" height="1" fill="#02111C" />
</svg>