<?xml version="1.0" encoding="UTF-8" ?>
<svg viewBox="0 0 32 32" version="1.1" width="512" height="512" xmlns="http://www.w3.org/2000/svg" shape-rendering="crispEdges">
<rect x="7" y="1" width="18" height="1" fill="#191919" />
<rect x="5" y="2" width="3" height="1" fill="#191919" />
<rect x="8" y="2" width="16" height="3" fill="#0C0C0C" />
<rect x="24" y="2" width="3" height="1" fill="#191919" />
<rect x="4" y="3" width="2" height="1" fill="#191919" />
<rect x="6" y="3" width="2" height="3" fill="#0C0C0C" />
<rect x="24" y="3" width="2" height="2" fill="#0C0C0C" />
<rect x="26" y="3" width="2" height="1" fill="#191919" />
<rect x="3" y="4" width="2" height="1" fill="#191919" />
<rect x="5" y="4" width="1" height="24" fill="#0C0C0C" />
<rect x="26" y="4" width="1" height="24" fill="#0C0C0C" />
<rect x="27" y="4" width="2" height="1" fill="#191919" />
<rect x="2" y="5" width="2" height="1" fill="#191919" />
<rect x="4" y="5" width="1" height="22" fill="#0C0C0C" />
<rect x="8" y="5" width="18" height="1" fill="#FEFEFE" />
<rect x="27" y="5" width="1" height="22" fill="#0C0C0C" />
<rect x="28" y="5" width="2" height="1" fill="#191919" />
<rect x="2" y="6" width="1" height="2" fill="#191919" />
<rect x="3" y="6" width="1" height="20" fill="#0C0C0C" />
<rect x="6" y="6" width="1" height="1" fill="#0C0C0C" />
<rect x="7" y="6" width="1" height="1" fill="#FEFEFE" />
<rect x="8" y="6" width="16" height="1" fill="#0C0C0C" />
<rect x="24" y="6" width="2" height="2" fill="#FEFEFE" />
<rect x="28" y="6" width="1" height="20" fill="#0C0C0C" />
<rect x="29" y="6" width="1" height="2" fill="#191919" />
<rect x="1" y="7" width="1" height="18" fill="#191919" />
<rect x="6" y="7" width="1" height="14" fill="#FEFEFE" />
<rect x="7" y="7" width="16" height="1" fill="#0C0C0C" />
<rect x="23" y="7" width="1" height="3" fill="#FEFEFE" />
<rect x="30" y="7" width="1" height="18" fill="#191919" />
<rect x="2" y="8" width="1" height="16" fill="#0C0C0C" />
<rect x="7" y="8" width="3" height="1" fill="#0C0C0C" />
<rect x="10" y="8" width="13" height="1" fill="#FEFEFE" />
<rect x="24" y="8" width="1" height="1" fill="#FEFEFE" />
<rect x="25" y="8" width="1" height="2" fill="#0C0C0C" />
<rect x="29" y="8" width="1" height="16" fill="#0C0C0C" />
<rect x="7" y="9" width="2" height="13" fill="#0C0C0C" />
<rect x="9" y="9" width="1" height="9" fill="#FEFEFE" />
<rect x="10" y="9" width="11" height="1" fill="#0C0C0C" />
<rect x="21" y="9" width="2" height="2" fill="#FEFEFE" />
<rect x="24" y="9" width="1" height="16" fill="#0C0C0C" />
<rect x="10" y="10" width="10" height="1" fill="#0C0C0C" />
<rect x="20" y="10" width="1" height="3" fill="#FEFEFE" />
<rect x="23" y="10" width="1" height="3" fill="#0C0C0C" />
<rect x="25" y="10" width="1" height="10" fill="#B4B4B4" />
<rect x="10" y="11" width="3" height="1" fill="#0C0C0C" />
<rect x="13" y="11" width="7" height="1" fill="#FEFEFE" />
<rect x="21" y="11" width="1" height="1" fill="#FEFEFE" />
<rect x="22" y="11" width="1" height="11" fill="#0C0C0C" />
<rect x="10" y="12" width="2" height="7" fill="#0C0C0C" />
<rect x="12" y="12" width="1" height="3" fill="#FEFEFE" />
<rect x="13" y="12" width="5" height="1" fill="#0C0C0C" />
<rect x="18" y="12" width="2" height="2" fill="#FEFEFE" />
<rect x="21" y="12" width="1" height="10" fill="#0C0C0C" />
<rect x="13" y="13" width="4" height="1" fill="#0C0C0C" />
<rect x="17" y="13" width="1" height="3" fill="#FEFEFE" />
<rect x="20" y="13" width="1" height="3" fill="#0C0C0C" />
<rect x="23" y="13" width="1" height="3" fill="#B4B4B4" />
<rect x="13" y="14" width="3" height="1" fill="#0C0C0C" />
<rect x="16" y="14" width="1" height="3" fill="#FEFEFE" />
<rect x="18" y="14" width="1" height="1" fill="#FEFEFE" />
<rect x="19" y="14" width="1" height="5" fill="#0C0C0C" />
<rect x="12" y="15" width="3" height="1" fill="#0C0C0C" />
<rect x="15" y="15" width="1" height="3" fill="#FEFEFE" />
<rect x="18" y="15" width="1" height="4" fill="#0C0C0C" />
<rect x="12" y="16" width="2" height="1" fill="#0C0C0C" />
<rect x="14" y="16" width="1" height="4" fill="#FEFEFE" />
<rect x="17" y="16" width="1" height="3" fill="#0C0C0C" />
<rect x="20" y="16" width="1" height="3" fill="#B4B4B4" />
<rect x="23" y="16" width="1" height="4" fill="#CDCDCD" />
<rect x="12" y="17" width="1" height="1" fill="#0C0C0C" />
<rect x="13" y="17" width="1" height="3" fill="#FEFEFE" />
<rect x="16" y="17" width="1" height="2" fill="#0C0C0C" />
<rect x="9" y="18" width="1" height="3" fill="#0C0C0C" />
<rect x="12" y="18" width="1" height="3" fill="#FEFEFE" />
<rect x="15" y="18" width="1" height="1" fill="#0C0C0C" />
<rect x="10" y="19" width="1" height="1" fill="#0C0C0C" />
<rect x="11" y="19" width="1" height="4" fill="#FEFEFE" />
<rect x="15" y="19" width="3" height="1" fill="#F1F1F1" />
<rect x="18" y="19" width="1" height="1" fill="#E2E2E2" />
<rect x="19" y="19" width="1" height="1" fill="#CDCDCD" />
<rect x="20" y="19" width="1" height="3" fill="#0C0C0C" />
<rect x="10" y="20" width="1" height="3" fill="#FEFEFE" />
<rect x="13" y="20" width="7" height="2" fill="#0C0C0C" />
<rect x="23" y="20" width="1" height="2" fill="#FEFEFE" />
<rect x="25" y="20" width="1" height="5" fill="#CDCDCD" />
<rect x="6" y="21" width="1" height="8" fill="#0C0C0C" />
<rect x="9" y="21" width="1" height="3" fill="#FEFEFE" />
<rect x="12" y="21" width="1" height="1" fill="#0C0C0C" />
<rect x="7" y="22" width="1" height="1" fill="#0C0C0C" />
<rect x="8" y="22" width="1" height="4" fill="#FEFEFE" />
<rect x="12" y="22" width="11" height="1" fill="#FEFEFE" />
<rect x="23" y="22" width="1" height="3" fill="#0C0C0C" />
<rect x="7" y="23" width="1" height="3" fill="#FEFEFE" />
<rect x="10" y="23" width="13" height="2" fill="#0C0C0C" />
<rect x="2" y="24" width="1" height="3" fill="#191919" />
<rect x="9" y="24" width="1" height="1" fill="#0C0C0C" />
<rect x="29" y="24" width="1" height="3" fill="#191919" />
<rect x="9" y="25" width="8" height="1" fill="#FEFEFE" />
<rect x="17" y="25" width="2" height="1" fill="#F0F0F0" />
<rect x="19" y="25" width="6" height="1" fill="#CDCDCD" />
<rect x="25" y="25" width="1" height="4" fill="#0C0C0C" />
<rect x="3" y="26" width="1" height="2" fill="#191919" />
<rect x="7" y="26" width="18" height="3" fill="#0C0C0C" />
<rect x="28" y="26" width="1" height="2" fill="#191919" />
<rect x="4" y="27" width="1" height="2" fill="#191919" />
<rect x="27" y="27" width="1" height="2" fill="#191919" />
<rect x="5" y="28" width="1" height="2" fill="#191919" />
<rect x="26" y="28" width="1" height="2" fill="#191919" />
<rect x="6" y="29" width="2" height="1" fill="#191919" />
<rect x="8" y="29" width="16" height="1" fill="#0C0C0C" />
<rect x="24" y="29" width="2" height="1" fill="#191919" />
<rect x="7" y="30" width="18" height="1" fill="#191919" />
</svg>