<?xml version='1.0' encoding='utf-8'?>
<svg xmlns="http://www.w3.org/2000/svg" viewBox="0 0 3358.419 3357.5939999999996" width="512" height="512" version="1.1" xml:space="preserve" style="fill-rule:evenodd;clip-rule:evenodd;stroke-linejoin:round;stroke-miterlimit:2;"><rect x="867.363" y="108.391" width="108.307" height="216.614" style="fill:#8a76d1;" /><rect x="975.67" y="108.391" width="108.307" height="108.307" style="fill:#af96ff;" /><rect x="1083.977" y="108.391" width="324.92" height="108.307" style="fill:#e2d8ff;" /><rect x="1408.897" y="108.391" width="649.841" height="108.307" style="fill:#fbf9ff;" /><rect x="2058.738" y="108.391" width="216.614" height="108.307" style="fill:#e2d8ff;" /><rect x="2275.351" y="108.391" width="108.307" height="108.307" style="fill:#af96ff;" /><rect x="2383.658" y="108.391" width="216.614" height="108.307" style="fill:#8a76d1;" /><rect x="650.749" y="216.697" width="216.614" height="108.307" style="fill:#8a76d1;" /><rect x="975.67" y="216.697" width="1516.295" height="108.307" style="fill:#090017;" /><rect x="2491.965" y="216.697" width="324.92" height="108.307" style="fill:#8a76d1;" /><rect x="542.443" y="325.004" width="216.614" height="108.307" style="fill:#755bcf;" /><rect x="759.056" y="325.004" width="216.614" height="108.307" style="fill:#090017;" /><rect x="975.67" y="325.004" width="1516.295" height="108.307" style="fill:#2c1e46;" /><rect x="2491.965" y="325.004" width="216.614" height="108.307" style="fill:#090017;" /><rect x="2708.578" y="325.004" width="216.614" height="108.307" style="fill:#755bcf;" /><rect x="434.136" y="433.311" width="216.614" height="108.307" style="fill:#755bcf;" /><rect x="650.749" y="433.311" width="108.307" height="108.307" style="fill:#090017;" /><rect x="759.056" y="433.311" width="216.614" height="108.307" style="fill:#2c1e46;" /><rect x="975.67" y="433.311" width="1299.681" height="108.307" style="fill:#170a2f;" /><rect x="2275.351" y="433.311" width="216.614" height="108.307" style="fill:#5b4b7a;" /><rect x="2491.965" y="433.311" width="216.614" height="108.307" style="fill:#2c1e46;" /><rect x="2708.578" y="433.311" width="108.307" height="108.307" style="fill:#090017;" /><rect x="2816.885" y="433.311" width="216.614" height="108.307" style="fill:#755bcf;" /><rect x="325.829" y="541.618" width="216.614" height="108.307" style="fill:#755bcf;" /><rect x="542.443" y="541.618" width="108.307" height="108.307" style="fill:#090017;" /><rect x="650.749" y="541.618" width="108.307" height="108.307" style="fill:#2c1e46;" /><rect x="759.056" y="541.618" width="1407.988" height="108.307" style="fill:#170a2f;" /><rect x="2167.044" y="541.618" width="216.614" height="108.307" style="fill:#5b4b7a;" /><rect x="2383.658" y="541.618" width="324.92" height="216.614" style="fill:#41335c;" /><rect x="2708.578" y="541.618" width="108.307" height="108.307" style="fill:#2c1e46;" /><rect x="2816.885" y="541.618" width="108.307" height="108.307" style="fill:#090017;" /><rect x="2925.192" y="541.618" width="216.614" height="108.307" style="fill:#755bcf;" /><rect x="217.522" y="649.925" width="216.614" height="108.307" style="fill:#755bcf;" /><rect x="434.136" y="649.925" width="108.307" height="108.307" style="fill:#090017;" /><rect x="542.443" y="649.925" width="108.307" height="108.307" style="fill:#2c1e46;" /><rect x="650.749" y="649.925" width="1407.988" height="108.307" style="fill:#170a2f;" /><rect x="2058.738" y="649.925" width="216.614" height="108.307" style="fill:#5b4b7a;" /><rect x="2275.351" y="649.925" width="108.307" height="433.227" style="fill:#41335c;" /><rect x="2708.578" y="649.925" width="108.307" height="108.307" style="fill:#1f1139;" /><rect x="2816.885" y="649.925" width="108.307" height="108.307" style="fill:#2c1e46;" /><rect x="2925.192" y="649.925" width="108.307" height="108.307" style="fill:#090017;" /><rect x="3033.499" y="649.925" width="216.614" height="108.307" style="fill:#755bcf;" /><rect x="217.522" y="758.231" width="108.307" height="216.614" style="fill:#755bcf;" /><rect x="325.829" y="758.231" width="108.307" height="216.614" style="fill:#090017;" /><rect x="434.136" y="758.231" width="108.307" height="216.614" style="fill:#2c1e46;" /><rect x="542.443" y="758.231" width="1407.988" height="216.614" style="fill:#170a2f;" /><rect x="1950.431" y="758.231" width="216.614" height="108.307" style="fill:#5b4b7a;" /><rect x="2167.044" y="758.231" width="108.307" height="541.534" style="fill:#41335c;" /><rect x="2383.658" y="758.231" width="216.614" height="108.307" style="fill:#41335c;" /><rect x="2600.272" y="758.231" width="108.307" height="108.307" style="fill:#1f1139;" /><rect x="2708.578" y="758.231" width="216.614" height="1516.295" style="fill:#170a2f;" /><rect x="2925.192" y="758.231" width="108.307" height="216.614" style="fill:#2c1e46;" /><rect x="3033.499" y="758.231" width="108.307" height="216.614" style="fill:#090017;" /><rect x="3141.805" y="758.231" width="108.307" height="216.614" style="fill:#755bcf;" /><rect x="109.216" y="866.538" width="108.307" height="433.227" style="fill:#7456cf;" /><rect x="1950.431" y="866.538" width="108.307" height="216.614" style="fill:#5b4b7a;" /><rect x="2058.738" y="866.538" width="108.307" height="541.534" style="fill:#41335c;" /><rect x="2383.658" y="866.538" width="108.307" height="108.307" style="fill:#41335c;" /><rect x="2491.965" y="866.538" width="108.307" height="108.307" style="fill:#1f1139;" /><rect x="2600.272" y="866.538" width="108.307" height="1299.681" style="fill:#170a2f;" /><rect x="3250.112" y="866.538" width="108.307" height="108.307" style="fill:#bfbfbf;" /><rect x="217.522" y="974.845" width="108.307" height="1516.295" style="fill:#090017;" /><rect x="325.829" y="974.845" width="108.307" height="1516.295" style="fill:#2c1e46;" /><rect x="434.136" y="974.845" width="1407.988" height="108.307" style="fill:#170a2f;" /><rect x="1842.124" y="974.845" width="108.307" height="324.92" style="fill:#5b4b7a;" /><rect x="2383.658" y="974.845" width="108.307" height="108.307" style="fill:#1f1139;" /><rect x="2491.965" y="974.845" width="108.307" height="1083.068" style="fill:#170a2f;" /><rect x="2925.192" y="974.845" width="108.307" height="1516.295" style="fill:#170a2f;" /><rect x="3033.499" y="974.845" width="108.307" height="1516.295" style="fill:#2c1e46;" /><rect x="3141.805" y="974.845" width="108.307" height="1516.295" style="fill:#090017;" /><rect x="3250.112" y="974.845" width="108.307" height="324.92" style="fill:#7456cd;" /><rect x="434.136" y="1083.152" width="866.454" height="866.454" style="fill:#170a2f;" /><rect x="1300.59" y="1083.152" width="216.614" height="108.307" style="fill:#fff;" /><rect x="1517.204" y="1083.152" width="108.307" height="108.307" style="fill:#cbb1ff;" /><rect x="1625.511" y="1083.152" width="216.614" height="108.307" style="fill:#170a2f;" /><rect x="1950.431" y="1083.152" width="108.307" height="433.227" style="fill:#41335c;" /><rect x="2275.351" y="1083.152" width="108.307" height="216.614" style="fill:#1f1139;" /><rect x="2383.658" y="1083.152" width="108.307" height="866.454" style="fill:#170a2f;" /><rect x="1300.59" y="1191.458" width="108.307" height="216.614" style="fill:#fff;" /><rect x="1408.897" y="1191.458" width="216.614" height="216.614" style="fill:#e6daff;" /><rect x="1625.511" y="1191.458" width="108.307" height="108.307" style="fill:#cbb1ff;" /><rect x="1733.817" y="1191.458" width="108.307" height="108.307" style="fill:#5b4b7a;" /><rect x="109.216" y="1299.765" width="108.307" height="1299.681" style="fill:#6418bb;" /><rect x="1625.511" y="1299.765" width="108.307" height="324.92" style="fill:#e6daff;" /><rect x="1733.817" y="1299.765" width="108.307" height="108.307" style="fill:#cbb1ff;" /><rect x="1842.124" y="1299.765" width="108.307" height="108.307" style="fill:#41335c;" /><rect x="2167.044" y="1299.765" width="108.307" height="108.307" style="fill:#1f1139;" /><rect x="2275.351" y="1299.765" width="108.307" height="541.534" style="fill:#170a2f;" /><rect x="3250.112" y="1299.765" width="108.307" height="866.454" style="fill:#6418bb;" /><rect x="1300.59" y="1408.072" width="108.307" height="433.227" style="fill:#170a2f;" /><rect x="1408.897" y="1408.072" width="108.307" height="108.307" style="fill:#fff;" /><rect x="1517.204" y="1408.072" width="108.307" height="108.307" style="fill:#e6daff;" /><rect x="1733.817" y="1408.072" width="108.307" height="324.92" style="fill:#e6daff;" /><rect x="1842.124" y="1408.072" width="108.307" height="108.307" style="fill:#cbb1ff;" /><rect x="2058.738" y="1408.072" width="108.307" height="216.614" style="fill:#1f1139;" /><rect x="2167.044" y="1408.072" width="108.307" height="324.92" style="fill:#170a2f;" /><rect x="1408.897" y="1516.379" width="108.307" height="216.614" style="fill:#170a2f;" /><rect x="1517.204" y="1516.379" width="108.307" height="108.307" style="fill:#fff;" /><rect x="1842.124" y="1516.379" width="108.307" height="324.92" style="fill:#e6daff;" /><rect x="1950.431" y="1516.379" width="108.307" height="108.307" style="fill:#cbb1ff;" /><rect x="1517.204" y="1624.686" width="108.307" height="216.614" style="fill:#5b4b7a;" /><rect x="1625.511" y="1624.686" width="108.307" height="108.307" style="fill:#fff;" /><rect x="1950.431" y="1624.686" width="108.307" height="324.92" style="fill:#e6daff;" /><rect x="2058.738" y="1624.686" width="108.307" height="108.307" style="fill:#cbb1ff;" /><rect x="1408.897" y="1732.992" width="108.307" height="216.614" style="fill:#5b4b7a;" /><rect x="1625.511" y="1732.992" width="108.307" height="649.841" style="fill:#41335c;" /><rect x="1733.817" y="1732.992" width="108.307" height="108.307" style="fill:#efe7ff;" /><rect x="2058.738" y="1732.992" width="108.307" height="108.307" style="fill:#e6daff;" /><rect x="2167.044" y="1732.992" width="108.307" height="108.307" style="fill:#cbb1ff;" /><rect x="1300.59" y="1841.299" width="108.307" height="216.614" style="fill:#5b4b7a;" /><rect x="1517.204" y="1841.299" width="108.307" height="649.841" style="fill:#41335c;" /><rect x="1733.817" y="1841.299" width="108.307" height="324.92" style="fill:#41335c;" /><rect x="1842.124" y="1841.299" width="108.307" height="108.307" style="fill:#efe7ff;" /><rect x="2058.738" y="1841.299" width="108.307" height="108.307" style="fill:#cbb1ff;" /><rect x="2167.044" y="1841.299" width="108.307" height="324.92" style="fill:#594382;" /><rect x="2275.351" y="1841.299" width="108.307" height="108.307" style="fill:#05020a;" /><rect x="434.136" y="1949.606" width="758.147" height="108.307" style="fill:#170a2f;" /><rect x="1192.283" y="1949.606" width="108.307" height="216.614" style="fill:#5b4b7a;" /><rect x="1408.897" y="1949.606" width="108.307" height="649.841" style="fill:#41335c;" /><rect x="1842.124" y="1949.606" width="108.307" height="108.307" style="fill:#41335c;" /><rect x="1950.431" y="1949.606" width="108.307" height="108.307" style="fill:#efe7ff;" /><rect x="2058.738" y="1949.606" width="108.307" height="108.307" style="fill:#594382;" /><rect x="2275.351" y="1949.606" width="108.307" height="108.307" style="fill:#594382;" /><rect x="2383.658" y="1949.606" width="108.307" height="108.307" style="fill:#05020a;" /><rect x="434.136" y="2057.913" width="649.841" height="108.307" style="fill:#170a2f;" /><rect x="1083.977" y="2057.913" width="108.307" height="216.614" style="fill:#5b4b7a;" /><rect x="1300.59" y="2057.913" width="108.307" height="758.147" style="fill:#41335c;" /><rect x="1842.124" y="2057.913" width="108.307" height="108.307" style="fill:#1f1139;" /><rect x="1950.431" y="2057.913" width="108.307" height="974.761" style="fill:#170a2f;" /><rect x="2058.738" y="2057.913" width="108.307" height="108.307" style="fill:#9c6dde;" /><rect x="2275.351" y="2057.913" width="108.307" height="108.307" style="fill:#5e448d;" /><rect x="2383.658" y="2057.913" width="108.307" height="108.307" style="fill:#594382;" /><rect x="2491.965" y="2057.913" width="108.307" height="108.307" style="fill:#05020a;" /><rect x="434.136" y="2166.22" width="433.227" height="108.307" style="fill:#170a2f;" /><rect x="867.363" y="2166.22" width="216.614" height="108.307" style="fill:#5b4b7a;" /><rect x="1192.283" y="2166.22" width="108.307" height="649.841" style="fill:#41335c;" /><rect x="1733.817" y="2166.22" width="108.307" height="216.614" style="fill:#1f1139;" /><rect x="1842.124" y="2166.22" width="108.307" height="866.454" style="fill:#170a2f;" /><rect x="2058.738" y="2166.22" width="108.307" height="866.454" style="fill:#170a2f;" /><rect x="2167.044" y="2166.22" width="108.307" height="108.307" style="fill:#9c6dde;" /><rect x="2275.351" y="2166.22" width="108.307" height="108.307" style="fill:#594382;" /><rect x="2383.658" y="2166.22" width="108.307" height="108.307" style="fill:#5e448d;" /><rect x="2491.965" y="2166.22" width="108.307" height="108.307" style="fill:#594382;" /><rect x="2600.272" y="2166.22" width="108.307" height="108.307" style="fill:#05020a;" /><rect x="3250.112" y="2166.22" width="108.307" height="433.227" style="fill:#2b0254;" /><rect x="434.136" y="2274.526" width="216.614" height="108.307" style="fill:#170a2f;" /><rect x="650.749" y="2274.526" width="324.92" height="108.307" style="fill:#5b4b7a;" /><rect x="975.67" y="2274.526" width="216.614" height="649.841" style="fill:#41335c;" /><rect x="2167.044" y="2274.526" width="108.307" height="758.147" style="fill:#170a2f;" /><rect x="2275.351" y="2274.526" width="108.307" height="108.307" style="fill:#9c6dde;" /><rect x="2383.658" y="2274.526" width="108.307" height="108.307" style="fill:#594382;" /><rect x="2491.965" y="2274.526" width="108.307" height="108.307" style="fill:#5e448d;" /><rect x="2600.272" y="2274.526" width="108.307" height="108.307" style="fill:#594382;" /><rect x="2708.578" y="2274.526" width="108.307" height="108.307" style="fill:#05020a;" /><rect x="2816.885" y="2274.526" width="108.307" height="108.307" style="fill:#170a2f;" /><rect x="434.136" y="2382.833" width="324.92" height="108.307" style="fill:#5b4b7a;" /><rect x="759.056" y="2382.833" width="216.614" height="541.534" style="fill:#41335c;" /><rect x="1625.511" y="2382.833" width="108.307" height="108.307" style="fill:#1f1139;" /><rect x="1733.817" y="2382.833" width="108.307" height="649.841" style="fill:#170a2f;" /><rect x="2275.351" y="2382.833" width="108.307" height="649.841" style="fill:#170a2f;" /><rect x="2383.658" y="2382.833" width="108.307" height="108.307" style="fill:#9c6dde;" /><rect x="2491.965" y="2382.833" width="108.307" height="108.307" style="fill:#594382;" /><rect x="2600.272" y="2382.833" width="108.307" height="108.307" style="fill:#5e448d;" /><rect x="2708.578" y="2382.833" width="108.307" height="108.307" style="fill:#594382;" /><rect x="2816.885" y="2382.833" width="108.307" height="108.307" /><rect x="217.522" y="2491.14" width="108.307" height="324.92" style="fill:#470592;" /><rect x="325.829" y="2491.14" width="108.307" height="216.614" style="fill:#090017;" /><rect x="434.136" y="2491.14" width="108.307" height="216.614" style="fill:#2c1e46;" /><rect x="542.443" y="2491.14" width="216.614" height="216.614" style="fill:#41335c;" /><rect x="1517.204" y="2491.14" width="108.307" height="108.307" style="fill:#1f1139;" /><rect x="1625.511" y="2491.14" width="108.307" height="541.534" style="fill:#170a2f;" /><rect x="2383.658" y="2491.14" width="108.307" height="541.534" style="fill:#170a2f;" /><rect x="2491.965" y="2491.14" width="108.307" height="108.307" style="fill:#9c6dde;" /><rect x="2600.272" y="2491.14" width="108.307" height="108.307" style="fill:#594382;" /><rect x="2708.578" y="2491.14" width="108.307" height="108.307" style="fill:#5e448d;" /><rect x="2816.885" y="2491.14" width="108.307" height="108.307" style="fill:#594382;" /><rect x="2925.192" y="2491.14" width="108.307" height="216.614" style="fill:#2c1e46;" /><rect x="3033.499" y="2491.14" width="108.307" height="108.307" style="fill:#090017;" /><rect x="3141.805" y="2491.14" width="108.307" height="324.92" style="fill:#2b0254;" /><rect x="1408.897" y="2599.447" width="108.307" height="216.614" style="fill:#1f1139;" /><rect x="1517.204" y="2599.447" width="108.307" height="433.227" style="fill:#170a2f;" /><rect x="2491.965" y="2599.447" width="108.307" height="324.92" style="fill:#170a2f;" /><rect x="2600.272" y="2599.447" width="108.307" height="108.307" style="fill:#9c6dde;" /><rect x="2708.578" y="2599.447" width="108.307" height="108.307" style="fill:#594382;" /><rect x="2816.885" y="2599.447" width="108.307" height="108.307" style="fill:#5e448d;" /><rect x="3033.499" y="2599.447" width="108.307" height="108.307" /><rect x="325.829" y="2707.753" width="108.307" height="216.614" style="fill:#470592;" /><rect x="434.136" y="2707.753" width="108.307" height="108.307" style="fill:#090017;" /><rect x="542.443" y="2707.753" width="108.307" height="108.307" style="fill:#2c1e46;" /><rect x="650.749" y="2707.753" width="108.307" height="108.307" style="fill:#41335c;" /><rect x="2600.272" y="2707.753" width="108.307" height="216.614" style="fill:#170a2f;" /><rect x="2708.578" y="2707.753" width="108.307" height="108.307" style="fill:#9c6dde;" /><rect x="2816.885" y="2707.753" width="108.307" height="108.307" style="fill:#2c1e46;" /><rect x="2925.192" y="2707.753" width="108.307" height="108.307" style="fill:#090017;" /><rect x="3033.499" y="2707.753" width="108.307" height="216.614" style="fill:#2b0254;" /><rect x="434.136" y="2816.06" width="108.307" height="216.614" style="fill:#470592;" /><rect x="542.443" y="2816.06" width="108.307" height="108.307" style="fill:#090017;" /><rect x="650.749" y="2816.06" width="108.307" height="108.307" style="fill:#2c1e46;" /><rect x="1192.283" y="2816.06" width="216.614" height="108.307" style="fill:#1f1139;" /><rect x="1408.897" y="2816.06" width="108.307" height="216.614" style="fill:#170a2f;" /><rect x="2708.578" y="2816.06" width="108.307" height="108.307" style="fill:#2c1e46;" /><rect x="2816.885" y="2816.06" width="108.307" height="108.307" style="fill:#090017;" /><rect x="2925.192" y="2816.06" width="108.307" height="216.614" style="fill:#2b0254;" /><rect x="542.443" y="2924.367" width="108.307" height="216.614" style="fill:#470592;" /><rect x="650.749" y="2924.367" width="108.307" height="108.307" style="fill:#090017;" /><rect x="759.056" y="2924.367" width="216.614" height="108.307" style="fill:#2c1e46;" /><rect x="975.67" y="2924.367" width="216.614" height="108.307" style="fill:#1f1139;" /><rect x="1192.283" y="2924.367" width="216.614" height="108.307" style="fill:#170a2f;" /><rect x="2491.965" y="2924.367" width="216.614" height="108.307" style="fill:#2c1e46;" /><rect x="2708.578" y="2924.367" width="108.307" height="108.307" style="fill:#090017;" /><rect x="2816.885" y="2924.367" width="108.307" height="216.614" style="fill:#2b0254;" /><rect x="650.749" y="3032.674" width="108.307" height="108.307" style="fill:#470592;" /><rect x="759.056" y="3032.674" width="216.614" height="108.307" style="fill:#090017;" /><rect x="975.67" y="3032.674" width="1516.295" height="108.307" style="fill:#2c1e46;" /><rect x="2491.965" y="3032.674" width="216.614" height="108.307" style="fill:#090017;" /><rect x="2708.578" y="3032.674" width="108.307" height="216.614" style="fill:#2b0254;" /><rect x="650.749" y="3140.981" width="324.92" height="108.307" style="fill:#3e007d;" /><rect x="975.67" y="3140.981" width="1516.295" height="108.307" style="fill:#090017;" /><rect x="2491.965" y="3140.981" width="216.614" height="108.307" style="fill:#2b0254;" /><rect x="867.363" y="3249.287" width="541.534" height="108.307" style="fill:#3e007d;" /><rect x="1408.897" y="3249.287" width="1191.375" height="108.307" style="fill:#2b0254;" /></svg>