<?xml version='1.0' encoding='utf-8'?>
<svg xmlns="http://www.w3.org/2000/svg" viewBox="0 0 3358.001 3357.5939999999996" width="512" height="512" version="1.1" xml:space="preserve" style="fill-rule:evenodd;clip-rule:evenodd;stroke-linejoin:round;stroke-miterlimit:2;"><rect x="866.945" y="108.391" width="324.92" height="108.307" style="fill:#0e4265;" /><rect x="1191.865" y="108.391" width="866.454" height="108.307" style="fill:#0f537a;" /><rect x="2058.319" y="108.391" width="324.92" height="108.307" style="fill:#0e4265;" /><rect x="2383.24" y="108.391" width="216.614" height="108.307" style="fill:#0f537a;" /><rect x="650.331" y="216.697" width="324.92" height="108.307" style="fill:#0e4265;" /><rect x="975.251" y="216.697" width="1516.295" height="108.307" style="fill:#0b1932;" /><rect x="2491.546" y="216.697" width="324.92" height="108.307" style="fill:#0f537a;" /><rect x="542.024" y="325.004" width="216.614" height="108.307" style="fill:#0e4265;" /><rect x="758.638" y="325.004" width="1949.522" height="216.614" style="fill:#061838;" /><rect x="2708.16" y="325.004" width="108.307" height="108.307" style="fill:#0f537a;" /><rect x="2816.467" y="325.004" width="108.307" height="216.614" style="fill:#0e4265;" /><rect x="433.717" y="433.311" width="216.614" height="108.307" style="fill:#0f537a;" /><rect x="650.331" y="433.311" width="108.307" height="108.307" style="fill:#061838;" /><rect x="2708.16" y="433.311" width="108.307" height="108.307" style="fill:#061838;" /><rect x="2924.773" y="433.311" width="108.307" height="108.307" style="fill:#0e4265;" /><rect x="325.411" y="541.618" width="216.614" height="108.307" style="fill:#0f537a;" /><rect x="542.024" y="541.618" width="2382.749" height="216.614" style="fill:#0a1c47;" /><rect x="2924.773" y="541.618" width="216.614" height="108.307" style="fill:#0f537a;" /><rect x="217.104" y="649.925" width="108.307" height="108.307" style="fill:#0f4b70;" /><rect x="325.411" y="649.925" width="108.307" height="108.307" style="fill:#0f537a;" /><rect x="433.717" y="649.925" width="108.307" height="108.307" style="fill:#0a1c47;" /><rect x="2924.773" y="649.925" width="108.307" height="108.307" style="fill:#0a1c47;" /><rect x="3033.08" y="649.925" width="216.614" height="108.307" style="fill:#0f537a;" /><rect x="217.104" y="758.231" width="108.307" height="108.307" style="fill:#0d3251;" /><rect x="325.411" y="758.231" width="1732.908" height="108.307" style="fill:#0d1e4b;" /><rect x="2058.319" y="758.231" width="433.227" height="108.307" style="fill:#fff;" /><rect x="2491.546" y="758.231" width="649.841" height="108.307" style="fill:#0d1e4b;" /><rect x="3141.387" y="758.231" width="108.307" height="216.614" style="fill:#0e4265;" /><rect x="108.797" y="866.538" width="108.307" height="324.92" style="fill:#0e4265;" /><rect x="217.104" y="866.538" width="108.307" height="108.307" style="fill:#0f4b70;" /><rect x="325.411" y="866.538" width="1624.602" height="108.307" style="fill:#0d1e4b;" /><rect x="1950.012" y="866.538" width="324.92" height="108.307" style="fill:#fff;" /><rect x="2274.933" y="866.538" width="108.307" height="108.307" style="fill:#f4f4f5;" /><rect x="2383.24" y="866.538" width="216.614" height="108.307" style="fill:#fff;" /><rect x="2599.853" y="866.538" width="541.534" height="108.307" style="fill:#0d1e4b;" /><rect x="3249.694" y="866.538" width="108.307" height="108.307" style="fill:#0e4265;" /><rect x="217.104" y="974.845" width="1624.602" height="108.307" style="fill:#0f204f;" /><rect x="1841.706" y="974.845" width="108.307" height="216.614" style="fill:#fff;" /><rect x="1950.012" y="974.845" width="108.307" height="108.307" style="fill:#f4f4f5;" /><rect x="2058.319" y="974.845" width="433.227" height="108.307" style="fill:#0f204f;" /><rect x="2491.546" y="974.845" width="108.307" height="108.307" style="fill:#f4f4f5;" /><rect x="2599.853" y="974.845" width="108.307" height="108.307" style="fill:#fff;" /><rect x="2708.16" y="974.845" width="541.534" height="108.307" style="fill:#0f204f;" /><rect x="3249.694" y="974.845" width="108.307" height="324.92" style="fill:#0f537a;" /><rect x="217.104" y="1083.152" width="1516.295" height="108.307" style="fill:#0f204f;" /><rect x="1733.399" y="1083.152" width="108.307" height="324.92" style="fill:#fff;" /><rect x="1950.012" y="1083.152" width="216.614" height="108.307" style="fill:#0f204f;" /><rect x="2166.626" y="1083.152" width="216.614" height="216.614" style="fill:#fff;" /><rect x="2383.24" y="1083.152" width="216.614" height="108.307" style="fill:#0f204f;" /><rect x="2599.853" y="1083.152" width="108.307" height="108.307" style="fill:#f4f4f5;" /><rect x="2708.16" y="1083.152" width="108.307" height="541.534" style="fill:#fbfbfb;" /><rect x="2816.467" y="1083.152" width="433.227" height="108.307" style="fill:#0f204f;" /><rect x="108.797" y="1191.458" width="108.307" height="541.534" style="fill:#0d3251;" /><rect x="217.104" y="1191.458" width="1516.295" height="108.307" style="fill:#12295a;" /><rect x="1841.706" y="1191.458" width="216.614" height="108.307" style="fill:#12295a;" /><rect x="2058.319" y="1191.458" width="108.307" height="216.614" style="fill:#fff;" /><rect x="2383.24" y="1191.458" width="108.307" height="216.614" style="fill:#fff;" /><rect x="2491.546" y="1191.458" width="216.614" height="108.307" style="fill:#12295a;" /><rect x="2816.467" y="1191.458" width="433.227" height="216.614" style="fill:#12295a;" /><rect x="217.104" y="1299.765" width="1407.988" height="108.307" style="fill:#12295a;" /><rect x="1625.092" y="1299.765" width="108.307" height="324.92" style="fill:#fff;" /><rect x="1841.706" y="1299.765" width="108.307" height="108.307" style="fill:#12295a;" /><rect x="1950.012" y="1299.765" width="108.307" height="108.307" style="fill:#fff;" /><rect x="2166.626" y="1299.765" width="216.614" height="108.307" style="fill:#f4f4f5;" /><rect x="2491.546" y="1299.765" width="108.307" height="108.307" style="fill:#fff;" /><rect x="2599.853" y="1299.765" width="108.307" height="108.307" style="fill:#12295a;" /><rect x="3249.694" y="1299.765" width="108.307" height="216.614" style="fill:#0e4265;" /><rect x="217.104" y="1408.072" width="1407.988" height="108.307" style="fill:#14396c;" /><rect x="1733.399" y="1408.072" width="108.307" height="216.614" style="fill:#f4f4f5;" /><rect x="1841.706" y="1408.072" width="216.614" height="108.307" style="fill:#14396c;" /><rect x="2058.319" y="1408.072" width="216.614" height="108.307" style="fill:#f4f4f5;" /><rect x="2274.933" y="1408.072" width="216.614" height="108.307" style="fill:#fbfbfb;" /><rect x="2491.546" y="1408.072" width="216.614" height="108.307" style="fill:#14396c;" /><rect x="2816.467" y="1408.072" width="433.227" height="216.614" style="fill:#14396c;" /><rect x="217.104" y="1516.379" width="1299.681" height="108.307" style="fill:#14396c;" /><rect x="1516.785" y="1516.379" width="108.307" height="216.614" style="fill:#fff;" /><rect x="1841.706" y="1516.379" width="108.307" height="324.92" style="fill:#f4f4f5;" /><rect x="1950.012" y="1516.379" width="216.614" height="108.307" style="fill:#14396c;" /><rect x="2166.626" y="1516.379" width="216.614" height="108.307" style="fill:#fbfbfb;" /><rect x="2383.24" y="1516.379" width="216.614" height="108.307" style="fill:#14396c;" /><rect x="2599.853" y="1516.379" width="108.307" height="216.614" style="fill:#fbfbfb;" /><rect x="3249.694" y="1516.379" width="108.307" height="108.307" style="fill:#105b84;" /><rect x="217.104" y="1624.686" width="108.307" height="216.614" style="fill:#fff;" /><rect x="325.411" y="1624.686" width="1083.068" height="108.307" style="fill:#144679;" /><rect x="1408.479" y="1624.686" width="108.307" height="216.614" style="fill:#fff;" /><rect x="1625.092" y="1624.686" width="108.307" height="108.307" style="fill:#f4f4f5;" /><rect x="1733.399" y="1624.686" width="108.307" height="216.614" style="fill:#fff;" /><rect x="1950.012" y="1624.686" width="108.307" height="108.307" style="fill:#f4f4f5;" /><rect x="2058.319" y="1624.686" width="433.227" height="108.307" style="fill:#144679;" /><rect x="2491.546" y="1624.686" width="108.307" height="216.614" style="fill:#fbfbfb;" /><rect x="2708.16" y="1624.686" width="541.534" height="216.614" style="fill:#144679;" /><rect x="3249.694" y="1624.686" width="108.307" height="108.307" style="fill:#0f537a;" /><rect x="108.797" y="1732.992" width="108.307" height="108.307" style="fill:#0f4b70;" /><rect x="325.411" y="1732.992" width="216.614" height="108.307" style="fill:#fff;" /><rect x="542.024" y="1732.992" width="758.147" height="108.307" style="fill:#144679;" /><rect x="1300.172" y="1732.992" width="108.307" height="216.614" style="fill:#fff;" /><rect x="1516.785" y="1732.992" width="108.307" height="216.614" style="fill:#f4f4f5;" /><rect x="1625.092" y="1732.992" width="108.307" height="324.92" style="fill:#fff;" /><rect x="1950.012" y="1732.992" width="108.307" height="216.614" style="fill:#fff;" /><rect x="2058.319" y="1732.992" width="216.614" height="108.307" style="fill:#f4f4f5;" /><rect x="2274.933" y="1732.992" width="216.614" height="108.307" style="fill:#fbfbfb;" /><rect x="2599.853" y="1732.992" width="108.307" height="108.307" style="fill:#144679;" /><rect x="3249.694" y="1732.992" width="108.307" height="108.307" style="fill:#0f4b70;" /><rect x="108.797" y="1841.299" width="108.307" height="108.307" style="fill:#0e4265;" /><rect x="217.104" y="1841.299" width="216.614" height="216.614" style="fill:#f4f4f5;" /><rect x="433.717" y="1841.299" width="324.92" height="108.307" style="fill:#fff;" /><rect x="758.638" y="1841.299" width="433.227" height="108.307" style="fill:#145083;" /><rect x="1191.865" y="1841.299" width="108.307" height="108.307" style="fill:#fff;" /><rect x="1408.479" y="1841.299" width="108.307" height="216.614" style="fill:#f4f4f5;" /><rect x="1733.399" y="1841.299" width="108.307" height="108.307" style="fill:#f4f4f5;" /><rect x="1841.706" y="1841.299" width="108.307" height="216.614" style="fill:#fff;" /><rect x="2058.319" y="1841.299" width="324.92" height="108.307" style="fill:#fbfbfb;" /><rect x="2383.24" y="1841.299" width="866.454" height="216.614" style="fill:#145083;" /><rect x="3249.694" y="1841.299" width="108.307" height="108.307" style="fill:#0e4265;" /><rect x="108.797" y="1949.606" width="108.307" height="108.307" style="fill:#0d3a5b;" /><rect x="433.717" y="1949.606" width="108.307" height="108.307" style="fill:#f4f4f5;" /><rect x="542.024" y="1949.606" width="541.534" height="108.307" style="fill:#fff;" /><rect x="1083.558" y="1949.606" width="324.92" height="108.307" style="fill:#145083;" /><rect x="1516.785" y="1949.606" width="108.307" height="108.307" style="fill:#fff;" /><rect x="1733.399" y="1949.606" width="108.307" height="108.307" style="fill:#fff;" /><rect x="1950.012" y="1949.606" width="216.614" height="108.307" style="fill:#fbfbfb;" /><rect x="2166.626" y="1949.606" width="216.614" height="108.307" style="fill:#145083;" /><rect x="3249.694" y="1949.606" width="108.307" height="108.307" style="fill:#0d3a5b;" /><rect x="108.797" y="2057.913" width="108.307" height="108.307" style="fill:#0d3251;" /><rect x="217.104" y="2057.913" width="324.92" height="108.307" style="fill:#fbfbfb;" /><rect x="542.024" y="2057.913" width="433.227" height="108.307" style="fill:#f4f4f5;" /><rect x="975.251" y="2057.913" width="216.614" height="108.307" style="fill:#fff;" /><rect x="1191.865" y="2057.913" width="324.92" height="108.307" style="fill:#145284;" /><rect x="1516.785" y="2057.913" width="324.92" height="108.307" style="fill:#f4f4f5;" /><rect x="1841.706" y="2057.913" width="216.614" height="108.307" style="fill:#fbfbfb;" /><rect x="2058.319" y="2057.913" width="1191.375" height="216.614" style="fill:#145284;" /><rect x="3249.694" y="2057.913" width="108.307" height="108.307" style="fill:#0d3251;" /><rect x="108.797" y="2166.22" width="108.307" height="108.307" style="fill:#0c2946;" /><rect x="217.104" y="2166.22" width="108.307" height="108.307" style="fill:#145284;" /><rect x="325.411" y="2166.22" width="108.307" height="108.307" style="fill:#f4f4f5;" /><rect x="433.717" y="2166.22" width="433.227" height="108.307" style="fill:#fbfbfb;" /><rect x="866.945" y="2166.22" width="216.614" height="108.307" style="fill:#f4f4f5;" /><rect x="1083.558" y="2166.22" width="324.92" height="108.307" style="fill:#fff;" /><rect x="1408.479" y="2166.22" width="216.614" height="108.307" style="fill:#145284;" /><rect x="1625.092" y="2166.22" width="108.307" height="108.307" style="fill:#f4f4f5;" /><rect x="1733.399" y="2166.22" width="216.614" height="108.307" style="fill:#fbfbfb;" /><rect x="1950.012" y="2166.22" width="108.307" height="108.307" style="fill:#145284;" /><rect x="3249.694" y="2166.22" width="108.307" height="108.307" style="fill:#0c2946;" /><rect x="108.797" y="2274.526" width="108.307" height="108.307" style="fill:#0b213c;" /><rect x="217.104" y="2274.526" width="324.92" height="216.614" style="fill:#146597;" /><rect x="542.024" y="2274.526" width="216.614" height="108.307" style="fill:#f4f4f5;" /><rect x="758.638" y="2274.526" width="216.614" height="108.307" style="fill:#fbfbfb;" /><rect x="975.251" y="2274.526" width="216.614" height="108.307" style="fill:#f4f4f5;" /><rect x="1191.865" y="2274.526" width="324.92" height="216.614" style="fill:#fff;" /><rect x="1516.785" y="2274.526" width="108.307" height="216.614" style="fill:#146597;" /><rect x="1625.092" y="2274.526" width="216.614" height="108.307" style="fill:#fbfbfb;" /><rect x="1841.706" y="2274.526" width="1407.988" height="216.614" style="fill:#146597;" /><rect x="3249.694" y="2274.526" width="108.307" height="108.307" style="fill:#0b213c;" /><rect x="108.797" y="2382.833" width="108.307" height="216.614" style="fill:#0b1932;" /><rect x="542.024" y="2382.833" width="216.614" height="108.307" style="fill:#146597;" /><rect x="758.638" y="2382.833" width="108.307" height="108.307" style="fill:#f4f4f5;" /><rect x="866.945" y="2382.833" width="216.614" height="108.307" style="fill:#fbfbfb;" /><rect x="1083.558" y="2382.833" width="108.307" height="108.307" style="fill:#fff;" /><rect x="1625.092" y="2382.833" width="108.307" height="216.614" style="fill:#fbfbfb;" /><rect x="1733.399" y="2382.833" width="108.307" height="108.307" style="fill:#146597;" /><rect x="3249.694" y="2382.833" width="108.307" height="108.307" style="fill:#0b1932;" /><rect x="217.104" y="2491.14" width="108.307" height="324.92" style="fill:#0b1932;" /><rect x="325.411" y="2491.14" width="649.841" height="216.614" style="fill:#14699b;" /><rect x="975.251" y="2491.14" width="108.307" height="108.307" style="fill:#fbfbfb;" /><rect x="1083.558" y="2491.14" width="324.92" height="108.307" style="fill:#f4f4f5;" /><rect x="1408.479" y="2491.14" width="216.614" height="108.307" style="fill:#14699b;" /><rect x="1733.399" y="2491.14" width="1407.988" height="216.614" style="fill:#14699b;" /><rect x="3141.387" y="2491.14" width="216.614" height="108.307" style="fill:#0c2946;" /><rect x="975.251" y="2599.447" width="541.534" height="108.307" style="fill:#14699b;" /><rect x="1516.785" y="2599.447" width="108.307" height="108.307" style="fill:#f4f4f5;" /><rect x="1625.092" y="2599.447" width="108.307" height="108.307" style="fill:#14699b;" /><rect x="3141.387" y="2599.447" width="108.307" height="216.614" style="fill:#0c2946;" /><rect x="325.411" y="2707.753" width="108.307" height="216.614" style="fill:#0b1932;" /><rect x="433.717" y="2707.753" width="649.841" height="108.307" style="fill:#146c9d;" /><rect x="1083.558" y="2707.753" width="433.227" height="108.307" style="fill:#f4f4f5;" /><rect x="1516.785" y="2707.753" width="1516.295" height="108.307" style="fill:#146c9d;" /><rect x="3033.08" y="2707.753" width="108.307" height="216.614" style="fill:#0c2946;" /><rect x="433.717" y="2816.06" width="108.307" height="216.614" style="fill:#0c2946;" /><rect x="542.024" y="2816.06" width="2382.749" height="108.307" style="fill:#146c9d;" /><rect x="2924.773" y="2816.06" width="108.307" height="216.614" style="fill:#0b213c;" /><rect x="542.024" y="2924.367" width="108.307" height="216.614" style="fill:#0c2946;" /><rect x="650.331" y="2924.367" width="2166.136" height="108.307" style="fill:#1370a1;" /><rect x="2816.467" y="2924.367" width="108.307" height="108.307" style="fill:#0b213c;" /><rect x="650.331" y="3032.674" width="108.307" height="216.614" style="fill:#0c2946;" /><rect x="758.638" y="3032.674" width="1949.522" height="108.307" style="fill:#1370a1;" /><rect x="2708.16" y="3032.674" width="216.614" height="108.307" style="fill:#0b1932;" /><rect x="758.638" y="3140.981" width="216.614" height="108.307" style="fill:#0b1932;" /><rect x="975.251" y="3140.981" width="1516.295" height="108.307" style="fill:#137dae;" /><rect x="2491.546" y="3140.981" width="108.307" height="108.307" style="fill:#0c2946;" /><rect x="2599.853" y="3140.981" width="108.307" height="108.307" style="fill:#0b213c;" /><rect x="2708.16" y="3140.981" width="108.307" height="108.307" style="fill:#0b1932;" /><rect x="866.945" y="3249.287" width="216.614" height="108.307" style="fill:#0b1932;" /><rect x="1083.558" y="3249.287" width="758.147" height="108.307" style="fill:#0f4b70;" /><rect x="1841.706" y="3249.287" width="541.534" height="108.307" style="fill:#0b213c;" /><rect x="2383.24" y="3249.287" width="216.614" height="108.307" style="fill:#0b1932;" /></svg>