<?xml version='1.0' encoding='utf-8'?>
<svg xmlns="http://www.w3.org/2000/svg" xmlns:ns1="http://sodipodi.sourceforge.net/DTD/sodipodi-0.dtd" xmlns:ns2="http://www.inkscape.org/namespaces/inkscape" viewBox="0 0 3357.5625 3357.7383" width="512" height="512" version="1.1" xml:space="preserve" style="fill-rule:evenodd;clip-rule:evenodd;stroke-linejoin:round;stroke-miterlimit:2;" id="svg71" ns1:docname="mothermicro.svg" ns2:version="1.4.4 (dcaf3e7d9e, 2026-05-05)"><defs id="defs71" /><ns1:namedview id="namedview71" pagecolor="#505050" bordercolor="#ffffff" borderopacity="1" ns2:showpageshadow="0" ns2:pageopacity="0" ns2:pagecheckerboard="1" ns2:deskcolor="#505050" ns2:zoom="0.16581419" ns2:cx="1402.1719" ns2:cy="1462.4803" ns2:window-width="1920" ns2:window-height="1016" ns2:window-x="0" ns2:window-y="0" ns2:window-maximized="1" ns2:current-layer="svg71" /><path style="fill:#9294ec;stroke:#9294ec;stroke-width:1px;stroke-linejoin:round;shape-rendering:crispEdges;" d="M 866.50586 108.53516 L 866.50586 216.8418 L 649.89258 216.8418 L 649.89258 325.14844 L 433.2793 325.14844 L 433.2793 433.45508 L 324.97266 433.45508 L 324.97266 541.76172 L 216.66406 541.76172 L 216.66406 650.06836 L 216.66406 758.375 L 108.35938 758.375 L 108.35938 2599.5898 L 216.66602 2599.5898 L 216.66602 866.68359 L 324.97266 866.68359 L 324.97266 650.06836 L 433.2793 650.06836 L 433.2793 541.76172 L 541.58594 541.76172 L 541.58594 433.45508 L 758.19922 433.45508 L 758.19922 325.14844 L 974.8125 325.14844 L 974.8125 216.8418 L 2599.4141 216.8418 L 2599.4141 108.53516 L 866.50586 108.53516 z " /><path style="fill:#2e3192;stroke:#2e3192;stroke-width:1px;stroke-linejoin:round;shape-rendering:crispEdges;" d="M 974.8125 216.8418 L 974.8125 325.14844 L 758.19922 325.14844 L 758.19922 433.45508 L 541.58594 433.45508 L 541.58594 541.76172 L 433.2793 541.76172 L 433.2793 650.06836 L 324.97266 650.06836 L 324.97266 866.68164 L 216.66406 866.68164 L 216.66406 2816.2031 L 324.97266 2816.2031 L 324.97266 2924.5117 L 433.2793 2924.5117 L 433.2793 3032.8184 L 541.58594 3032.8184 L 541.58594 3141.125 L 649.89258 3141.125 L 649.89258 3249.4316 L 758.19922 3249.4316 L 974.8125 3249.4316 L 1191.4277 3249.4316 L 1299.7324 3249.4316 L 1408.0391 3249.4316 L 1841.2676 3249.4316 L 2382.8008 3249.4316 L 2491.1074 3249.4316 L 2491.1074 3141.125 L 2707.7227 3141.125 L 2707.7227 3032.8184 L 2816.0273 3032.8184 L 2816.0273 2924.5117 L 2924.3359 2924.5117 L 2924.3359 2816.2031 L 3032.6426 2816.2031 L 3032.6426 2707.8984 L 3140.9492 2707.8984 L 3140.9492 2491.2832 L 3249.2559 2491.2832 L 3249.2559 650.06836 L 3140.9492 650.06836 L 3140.9492 541.76172 L 3032.6426 541.76172 L 3032.6426 433.45508 L 2924.3359 433.45508 L 2924.3359 325.14844 L 2816.0273 325.14844 L 2816.0273 216.8418 L 974.8125 216.8418 z M 1191.4277 1083.2969 L 1624.6543 1083.2969 L 1624.6543 1191.6035 L 1624.6543 1299.9082 L 1516.3477 1299.9082 L 1516.3477 1624.8301 L 1408.0391 1624.8301 L 1408.0391 1949.75 L 1516.3477 1949.75 L 1624.6543 1949.75 L 1732.9609 1949.75 L 1732.9609 1841.4434 L 1841.2676 1841.4434 L 1841.2676 1624.8301 L 1949.5742 1624.8301 L 1949.5742 1191.6035 L 2057.8809 1191.6035 L 2057.8809 1083.2969 L 2274.4941 1083.2969 L 2274.4941 1624.8301 L 2166.1875 1624.8301 L 2166.1875 1841.4434 L 2057.8809 1841.4434 L 2057.8809 2058.0566 L 2166.1875 2058.0566 L 2274.4941 2058.0566 L 2274.4941 1841.4434 L 2491.1074 1841.4434 L 2491.1074 2058.0566 L 2382.8008 2058.0566 L 2382.8008 2166.3633 L 1841.2676 2166.3633 L 1841.2676 2274.6699 L 1408.0391 2274.6699 L 1408.0391 2166.3633 L 1299.7324 2166.3633 L 1299.7324 2274.6699 L 1191.4258 2274.6699 L 1191.4258 2816.2031 L 974.8125 2816.2031 L 974.8125 2166.3633 L 1083.1191 2166.3633 L 1083.1191 1516.5234 L 1191.4277 1516.5234 L 1191.4277 1083.2969 z " /><path style="fill:#181a63;stroke:#181a63;stroke-width:1px;stroke-linejoin:round;shape-rendering:crispEdges;" d="M 3249.2539 866.68164 L 3249.2539 2491.2832 L 3140.9473 2491.2832 L 3140.9473 2707.8965 L 3032.6426 2707.8965 L 3032.6426 2816.2031 L 2924.3359 2816.2031 L 2924.3359 2924.5117 L 2816.0273 2924.5117 L 2816.0273 3032.8184 L 2707.7207 3032.8184 L 2707.7207 3141.125 L 2491.1074 3141.125 L 2491.1074 3249.4316 L 866.50586 3249.4316 L 866.50586 3357.7383 L 2599.4141 3357.7383 L 2599.4141 3249.4316 L 2707.7227 3249.4316 L 2816.0273 3249.4316 L 2816.0273 3141.125 L 2924.3359 3141.125 L 2924.3359 3032.8184 L 3032.6426 3032.8184 L 3032.6426 2924.5117 L 3140.9492 2924.5117 L 3140.9492 2816.2031 L 3249.2559 2816.2031 L 3249.2559 2599.5898 L 3357.5625 2599.5898 L 3357.5625 866.68164 L 3249.2539 866.68164 z " /><path style="fill:#cccde5;stroke:#cccde5;stroke-width:1px;stroke-linejoin:round;shape-rendering:crispEdges;" d="M 1191.4258 1083.2969 L 1191.4258 1191.6035 L 1299.7324 1191.6035 L 1299.7324 1083.2969 L 1191.4258 1083.2969 z M 1191.4258 2058.0566 L 1191.4258 2274.6699 L 1083.1191 2274.6699 L 1083.1191 2816.2031 L 1191.4277 2816.2031 L 1191.4277 2274.6699 L 1299.7324 2274.6699 L 1299.7324 2058.0566 L 1191.4258 2058.0566 z " /><path style="fill:#fff;stroke:#fff;stroke-width:1px;stroke-linejoin:round;shape-rendering:crispEdges;" d="M 1299.7324 1083.2969 L 1299.7324 1191.6035 L 1191.4258 1191.6035 L 1191.4258 1516.5234 L 1083.1191 1516.5234 L 1083.1191 2166.3633 L 974.8125 2166.3633 L 974.8125 2816.2051 L 1083.1191 2816.2051 L 1083.1191 2274.6699 L 1191.4277 2274.6699 L 1191.4277 2058.0566 L 1299.7324 2058.0566 L 1299.7324 2166.3633 L 1408.0391 2166.3633 L 1408.0391 2274.6719 L 1732.9609 2274.6719 L 1732.9609 2274.6699 L 1841.2676 2274.6699 L 1841.2676 2058.0566 L 1949.5742 2058.0566 L 1949.5742 2166.3633 L 2057.8809 2166.3633 L 2274.4941 2166.3633 L 2274.4941 2058.0566 L 2057.8809 2058.0566 L 2057.8809 1949.75 L 1949.5742 1949.75 L 1949.5742 1733.1367 L 2057.8809 1733.1367 L 2057.8809 1624.8301 L 2166.1875 1624.8301 L 2166.1875 1083.2969 L 2057.8809 1083.2969 L 2057.8809 1191.6035 L 1949.5742 1191.6035 L 1949.5742 1624.8301 L 1841.2676 1624.8301 L 1841.2676 1841.4434 L 1732.9609 1841.4434 L 1732.9609 1949.75 L 1299.7324 1949.75 L 1299.7324 1624.8281 L 1408.0391 1624.8281 L 1408.0391 1299.9102 L 1516.3477 1299.9102 L 1516.3477 1083.2969 L 1299.7324 1083.2969 z M 2274.4941 2058.0566 L 2382.8008 2058.0566 L 2382.8008 1841.4434 L 2274.4941 1841.4434 L 2274.4941 2058.0566 z " /><path style="fill:#c0c0c5;stroke:#c0c0c5;stroke-width:1px;stroke-linejoin:round;shape-rendering:crispEdges;" d="M 1516.3477 1083.2969 L 1516.3477 1299.9082 L 1408.0391 1299.9082 L 1408.0391 1624.8281 L 1516.3477 1624.8281 L 1516.3477 1299.9102 L 1624.6543 1299.9102 L 1624.6543 1083.2969 L 1516.3477 1083.2969 z M 2166.1875 1083.2969 L 2166.1875 1624.8301 L 2274.4941 1624.8301 L 2274.4941 1083.2969 L 2166.1875 1083.2969 z M 2166.1875 1624.8301 L 2057.8809 1624.8301 L 2057.8809 1733.1367 L 1949.5742 1733.1367 L 1949.5742 1949.75 L 2057.8809 1949.75 L 2057.8809 1841.4434 L 2166.1875 1841.4434 L 2166.1875 1624.8301 z M 1299.7324 1624.8301 L 1299.7324 1949.75 L 1408.0391 1949.75 L 1408.0391 1624.8301 L 1299.7324 1624.8301 z M 2382.8008 1841.4434 L 2382.8008 2058.0566 L 2491.1074 2058.0566 L 2491.1074 1841.4434 L 2382.8008 1841.4434 z M 2382.8008 2058.0566 L 2274.4941 2058.0566 L 2274.4941 2166.3633 L 2382.8008 2166.3633 L 2382.8008 2058.0566 z M 1841.2676 2058.0566 L 1841.2676 2166.3633 L 1949.5742 2166.3633 L 1949.5742 2058.0566 L 1841.2676 2058.0566 z " /></svg>