<?xml version='1.0' encoding='utf-8'?>
<svg xmlns="http://www.w3.org/2000/svg" viewBox="0 0 3358.165 3358.366" width="512" height="512" version="1.1" xml:space="preserve" style="fill-rule:evenodd;clip-rule:evenodd;stroke-linejoin:round;stroke-miterlimit:2;"><rect x="867.108" y="109.163" width="1732.908" height="108.307" style="fill:#e4e4e4;" /><rect x="650.495" y="217.469" width="324.92" height="108.307" style="fill:#e4e4e4;" /><rect x="975.415" y="217.469" width="1516.295" height="108.307" style="fill:#101010;" /><rect x="2491.71" y="217.469" width="324.92" height="108.307" style="fill:#e4e4e4;" /><rect x="542.188" y="325.776" width="216.614" height="108.307" style="fill:#b1b1b1;" /><rect x="758.802" y="325.776" width="324.92" height="108.307" style="fill:#101010;" /><rect x="1083.722" y="325.776" width="1299.681" height="108.307" style="fill:#75efeb;" /><rect x="2383.403" y="325.776" width="324.92" height="108.307" style="fill:#101010;" /><rect x="2708.324" y="325.776" width="216.614" height="108.307" style="fill:#b1b1b1;" /><rect x="433.881" y="434.083" width="216.614" height="108.307" style="fill:#b1b1b1;" /><rect x="650.495" y="434.083" width="216.614" height="108.307" style="fill:#101010;" /><rect x="867.108" y="434.083" width="216.614" height="108.307" style="fill:#75efeb;" /><rect x="1083.722" y="434.083" width="1299.681" height="108.307" style="fill:#90e2e0;" /><rect x="2383.403" y="434.083" width="216.614" height="108.307" style="fill:#75efeb;" /><rect x="2600.017" y="434.083" width="216.614" height="108.307" style="fill:#101010;" /><rect x="2816.63" y="434.083" width="216.614" height="108.307" style="fill:#b1b1b1;" /><rect x="325.575" y="542.39" width="216.614" height="108.307" style="fill:#b1b1b1;" /><rect x="542.188" y="542.39" width="216.614" height="108.307" style="fill:#101010;" /><rect x="758.802" y="542.39" width="108.307" height="108.307" style="fill:#75efeb;" /><rect x="867.108" y="542.39" width="216.614" height="108.307" style="fill:#90e2e0;" /><rect x="1083.722" y="542.39" width="1299.681" height="108.307" style="fill:#249d9b;" /><rect x="2383.403" y="542.39" width="216.614" height="108.307" style="fill:#90e2e0;" /><rect x="2600.017" y="542.39" width="108.307" height="108.307" style="fill:#75efeb;" /><rect x="2708.324" y="542.39" width="216.614" height="108.307" style="fill:#101010;" /><rect x="2924.937" y="542.39" width="216.614" height="108.307" style="fill:#b1b1b1;" /><rect x="217.268" y="650.696" width="216.614" height="108.307" style="fill:#b1b1b1;" /><rect x="433.881" y="650.696" width="216.614" height="108.307" style="fill:#101010;" /><rect x="650.495" y="650.696" width="108.307" height="108.307" style="fill:#75efeb;" /><rect x="758.802" y="650.696" width="108.307" height="108.307" style="fill:#90e2e0;" /><rect x="867.108" y="650.696" width="1732.908" height="108.307" style="fill:#2ba4a1;" /><rect x="2600.017" y="650.696" width="108.307" height="108.307" style="fill:#90e2e0;" /><rect x="2708.324" y="650.696" width="108.307" height="108.307" style="fill:#75efeb;" /><rect x="2816.63" y="650.696" width="216.614" height="108.307" style="fill:#101010;" /><rect x="3033.244" y="650.696" width="216.614" height="108.307" style="fill:#b1b1b1;" /><rect x="217.268" y="759.003" width="108.307" height="216.614" style="fill:#b1b1b1;" /><rect x="325.575" y="759.003" width="216.614" height="108.307" style="fill:#101010;" /><rect x="542.188" y="759.003" width="108.307" height="108.307" style="fill:#75efeb;" /><rect x="650.495" y="759.003" width="108.307" height="108.307" style="fill:#90e2e0;" /><rect x="758.802" y="759.003" width="1949.522" height="108.307" style="fill:#32aba8;" /><rect x="2708.324" y="759.003" width="108.307" height="108.307" style="fill:#90e2e0;" /><rect x="2816.63" y="759.003" width="108.307" height="108.307" style="fill:#75efeb;" /><rect x="2924.937" y="759.003" width="216.614" height="108.307" style="fill:#101010;" /><rect x="3141.551" y="759.003" width="108.307" height="216.614" style="fill:#b1b1b1;" /><rect x="108.961" y="867.31" width="108.307" height="758.147" style="fill:#888;" /><rect x="325.575" y="867.31" width="108.307" height="216.614" style="fill:#101010;" /><rect x="433.881" y="867.31" width="108.307" height="216.614" style="fill:#75efeb;" /><rect x="542.188" y="867.31" width="108.307" height="216.614" style="fill:#90e2e0;" /><rect x="650.495" y="867.31" width="2166.136" height="108.307" style="fill:#39b2af;" /><rect x="2816.63" y="867.31" width="108.307" height="216.614" style="fill:#90e2e0;" /><rect x="2924.937" y="867.31" width="108.307" height="216.614" style="fill:#75efeb;" /><rect x="3033.244" y="867.31" width="108.307" height="216.614" style="fill:#101010;" /><rect x="3249.858" y="867.31" width="108.307" height="108.307" style="fill:#bfbfbf;" /><rect x="217.268" y="975.617" width="108.307" height="758.147" style="fill:#101010;" /><rect x="650.495" y="975.617" width="2166.136" height="108.307" style="fill:#41bab6;" /><rect x="3141.551" y="975.617" width="108.307" height="758.147" style="fill:#101010;" /><rect x="3249.858" y="975.617" width="108.307" height="541.534" style="fill:#888;" /><rect x="325.575" y="1083.924" width="108.307" height="649.841" style="fill:#75efeb;" /><rect x="433.881" y="1083.924" width="108.307" height="649.841" style="fill:#90e2e0;" /><rect x="542.188" y="1083.924" width="2382.749" height="108.307" style="fill:#48c1bd;" /><rect x="2924.937" y="1083.924" width="108.307" height="649.841" style="fill:#90e2e0;" /><rect x="3033.244" y="1083.924" width="108.307" height="649.841" style="fill:#75efeb;" /><rect x="542.188" y="1192.23" width="2382.749" height="108.307" style="fill:#4fc8c4;" /><rect x="542.188" y="1300.537" width="2382.749" height="108.307" style="fill:#56cfcb;" /><rect x="542.188" y="1408.844" width="2382.749" height="216.614" style="fill:#5ed7d2;" /><rect x="3249.858" y="1517.151" width="108.307" height="866.454" style="fill:#6b6b6b;" /><rect x="108.961" y="1625.457" width="108.307" height="758.147" style="fill:#6b6b6b;" /><rect x="542.188" y="1625.457" width="2382.749" height="108.307" style="fill:#5aceca;" /><rect x="217.268" y="1733.764" width="324.92" height="108.307" style="fill:#f7fcff;" /><rect x="542.188" y="1733.764" width="433.227" height="108.307" style="fill:#e1fdff;" /><rect x="975.415" y="1733.764" width="758.147" height="108.307" style="fill:#f7fcff;" /><rect x="1733.563" y="1733.764" width="433.227" height="108.307" style="fill:#e1fdff;" /><rect x="2166.79" y="1733.764" width="541.534" height="108.307" style="fill:#f7fcff;" /><rect x="2708.324" y="1733.764" width="433.227" height="108.307" style="fill:#e1fdff;" /><rect x="3141.551" y="1733.764" width="108.307" height="108.307" style="fill:#f7fcff;" /><rect x="217.268" y="1842.071" width="108.307" height="649.841" style="fill:#101010;" /><rect x="325.575" y="1842.071" width="2815.976" height="433.227" style="fill:#ececec;" /><rect x="3141.551" y="1842.071" width="108.307" height="649.841" style="fill:#101010;" /><rect x="325.575" y="2275.298" width="2057.829" height="108.307" style="fill:#ececec;" /><rect x="2383.403" y="2275.298" width="433.227" height="108.307" style="fill:#d0d0d0;" /><rect x="2816.63" y="2275.298" width="108.307" height="108.307" style="fill:#cacaca;" /><rect x="2924.937" y="2275.298" width="108.307" height="108.307" style="fill:#b1b1b1;" /><rect x="3033.244" y="2275.298" width="108.307" height="433.227" style="fill:#101010;" /><rect x="108.961" y="2383.605" width="108.307" height="216.614" style="fill:#505050;" /><rect x="325.575" y="2383.605" width="108.307" height="324.92" style="fill:#101010;" /><rect x="433.881" y="2383.605" width="1841.215" height="216.614" style="fill:#ececec;" /><rect x="2275.097" y="2383.605" width="108.307" height="433.227" style="fill:#d0d0d0;" /><rect x="2383.403" y="2383.605" width="541.534" height="108.307" style="fill:#868686;" /><rect x="2924.937" y="2383.605" width="108.307" height="433.227" style="fill:#101010;" /><rect x="3249.858" y="2383.605" width="108.307" height="216.614" style="fill:#505050;" /><rect x="217.268" y="2491.912" width="108.307" height="324.92" style="fill:#505050;" /><rect x="2383.403" y="2491.912" width="433.227" height="108.307" style="fill:#868686;" /><rect x="2816.63" y="2491.912" width="108.307" height="433.227" style="fill:#101010;" /><rect x="3141.551" y="2491.912" width="108.307" height="324.92" style="fill:#505050;" /><rect x="433.881" y="2600.219" width="108.307" height="216.614" style="fill:#101010;" /><rect x="542.188" y="2600.219" width="1732.908" height="108.307" style="fill:#ececec;" /><rect x="2383.403" y="2600.219" width="324.92" height="108.307" style="fill:#868686;" /><rect x="2708.324" y="2600.219" width="108.307" height="433.227" style="fill:#101010;" /><rect x="325.575" y="2708.525" width="108.307" height="216.614" style="fill:#505050;" /><rect x="542.188" y="2708.525" width="108.307" height="216.614" style="fill:#101010;" /><rect x="650.495" y="2708.525" width="1624.602" height="108.307" style="fill:#ececec;" /><rect x="2383.403" y="2708.525" width="216.614" height="108.307" style="fill:#868686;" /><rect x="2600.017" y="2708.525" width="108.307" height="433.227" style="fill:#101010;" /><rect x="3033.244" y="2708.525" width="108.307" height="216.614" style="fill:#505050;" /><rect x="433.881" y="2816.832" width="108.307" height="216.614" style="fill:#505050;" /><rect x="650.495" y="2816.832" width="108.307" height="216.614" style="fill:#101010;" /><rect x="758.802" y="2816.832" width="1516.295" height="108.307" style="fill:#ececec;" /><rect x="2275.097" y="2816.832" width="108.307" height="108.307" style="fill:#cacaca;" /><rect x="2383.403" y="2816.832" width="108.307" height="108.307" style="fill:#868686;" /><rect x="2491.71" y="2816.832" width="108.307" height="324.92" style="fill:#101010;" /><rect x="2924.937" y="2816.832" width="108.307" height="216.614" style="fill:#505050;" /><rect x="542.188" y="2925.139" width="108.307" height="216.614" style="fill:#505050;" /><rect x="758.802" y="2925.139" width="108.307" height="216.614" style="fill:#101010;" /><rect x="867.108" y="2925.139" width="1407.988" height="108.307" style="fill:#ececec;" /><rect x="2275.097" y="2925.139" width="108.307" height="108.307" style="fill:#b1b1b1;" /><rect x="2383.403" y="2925.139" width="108.307" height="324.92" style="fill:#101010;" /><rect x="2816.63" y="2925.139" width="108.307" height="216.614" style="fill:#505050;" /><rect x="650.495" y="3033.446" width="108.307" height="108.307" style="fill:#505050;" /><rect x="867.108" y="3033.446" width="216.614" height="108.307" style="fill:#101010;" /><rect x="1083.722" y="3033.446" width="1191.375" height="108.307" style="fill:#ececec;" /><rect x="2275.097" y="3033.446" width="108.307" height="216.614" style="fill:#101010;" /><rect x="2708.324" y="3033.446" width="108.307" height="108.307" style="fill:#505050;" /><rect x="650.495" y="3141.752" width="324.92" height="108.307" style="fill:#444;" /><rect x="975.415" y="3141.752" width="1299.681" height="108.307" style="fill:#101010;" /><rect x="2491.71" y="3141.752" width="324.92" height="108.307" style="fill:#444;" /><rect x="867.108" y="3250.059" width="1732.908" height="108.307" style="fill:#444;" /></svg>