<?xml version="1.0" encoding="UTF-8" ?>
<svg viewBox="0 0 32 32" version="1.1" width="512" height="512" xmlns="http://www.w3.org/2000/svg" shape-rendering="crispEdges">
<rect x="7" y="1" width="18" height="1" fill="#FFAD00" />
<rect x="5" y="2" width="3" height="1" fill="#FFAD00" />
<rect x="8" y="2" width="16" height="1" fill="#000000" />
<rect x="24" y="2" width="3" height="1" fill="#FFAD00" />
<rect x="4" y="3" width="2" height="1" fill="#FFAD00" />
<rect x="6" y="3" width="3" height="1" fill="#000000" />
<rect x="9" y="3" width="14" height="1" fill="#FFC449" />
<rect x="23" y="3" width="3" height="1" fill="#000000" />
<rect x="26" y="3" width="2" height="1" fill="#FFAD00" />
<rect x="3" y="4" width="2" height="1" fill="#FFAD00" />
<rect x="5" y="4" width="2" height="1" fill="#000000" />
<rect x="7" y="4" width="3" height="1" fill="#FFC449" />
<rect x="10" y="4" width="15" height="5" fill="#FFAD00" />
<rect x="25" y="4" width="2" height="1" fill="#000000" />
<rect x="27" y="4" width="2" height="1" fill="#FFAD00" />
<rect x="2" y="5" width="2" height="1" fill="#FFAD00" />
<rect x="4" y="5" width="2" height="1" fill="#000000" />
<rect x="6" y="5" width="2" height="1" fill="#FFC449" />
<rect x="8" y="5" width="2" height="4" fill="#FFAD00" />
<rect x="25" y="5" width="1" height="6" fill="#FFAD00" />
<rect x="26" y="5" width="2" height="1" fill="#000000" />
<rect x="28" y="5" width="2" height="1" fill="#FFAD00" />
<rect x="2" y="6" width="1" height="2" fill="#FFAD00" />
<rect x="3" y="6" width="2" height="1" fill="#000000" />
<rect x="5" y="6" width="2" height="1" fill="#FFC449" />
<rect x="7" y="6" width="1" height="5" fill="#FFAD00" />
<rect x="26" y="6" width="1" height="20" fill="#FFAD00" />
<rect x="27" y="6" width="2" height="1" fill="#000000" />
<rect x="29" y="6" width="1" height="2" fill="#FFAD00" />
<rect x="1" y="7" width="1" height="18" fill="#FFAD00" />
<rect x="3" y="7" width="1" height="2" fill="#000000" />
<rect x="4" y="7" width="2" height="1" fill="#FFC449" />
<rect x="6" y="7" width="1" height="20" fill="#FFAD00" />
<rect x="27" y="7" width="1" height="18" fill="#FFAD00" />
<rect x="28" y="7" width="1" height="2" fill="#000000" />
<rect x="30" y="7" width="1" height="9" fill="#FFAD00" />
<rect x="2" y="8" width="1" height="16" fill="#000000" />
<rect x="4" y="8" width="1" height="2" fill="#FFC449" />
<rect x="5" y="8" width="1" height="18" fill="#FFAD00" />
<rect x="29" y="8" width="1" height="16" fill="#000000" />
<rect x="3" y="9" width="1" height="14" fill="#FFC449" />
<rect x="8" y="9" width="1" height="1" fill="#FFAD00" />
<rect x="9" y="9" width="3" height="1" fill="#2A1C00" />
<rect x="12" y="9" width="9" height="1" fill="#FFAD00" />
<rect x="21" y="9" width="3" height="1" fill="#2A1C00" />
<rect x="24" y="9" width="1" height="1" fill="#FFAD00" />
<rect x="28" y="9" width="1" height="14" fill="#FFAD00" />
<rect x="4" y="10" width="1" height="15" fill="#FFAD00" />
<rect x="8" y="10" width="2" height="2" fill="#FFFFFF" />
<rect x="10" y="10" width="3" height="5" fill="#2A1C00" />
<rect x="13" y="10" width="7" height="1" fill="#FFAD00" />
<rect x="20" y="10" width="2" height="2" fill="#FFFFFF" />
<rect x="22" y="10" width="3" height="5" fill="#2A1C00" />
<rect x="7" y="11" width="1" height="3" fill="#2A1C00" />
<rect x="13" y="11" width="1" height="3" fill="#2A1C00" />
<rect x="14" y="11" width="5" height="12" fill="#FFAD00" />
<rect x="19" y="11" width="1" height="3" fill="#2A1C00" />
<rect x="25" y="11" width="1" height="3" fill="#2A1C00" />
<rect x="8" y="12" width="2" height="3" fill="#2A1C00" />
<rect x="20" y="12" width="2" height="3" fill="#2A1C00" />
<rect x="7" y="14" width="1" height="14" fill="#FFAD00" />
<rect x="13" y="14" width="1" height="9" fill="#FFAD00" />
<rect x="19" y="14" width="1" height="8" fill="#FFAD00" />
<rect x="25" y="14" width="1" height="13" fill="#FFAD00" />
<rect x="8" y="15" width="1" height="13" fill="#FFAD00" />
<rect x="9" y="15" width="3" height="1" fill="#2A1C00" />
<rect x="12" y="15" width="1" height="7" fill="#FFAD00" />
<rect x="20" y="15" width="1" height="7" fill="#FFAD00" />
<rect x="21" y="15" width="3" height="1" fill="#2A1C00" />
<rect x="24" y="15" width="1" height="13" fill="#FFAD00" />
<rect x="9" y="16" width="3" height="6" fill="#FFAD00" />
<rect x="21" y="16" width="3" height="12" fill="#FFAD00" />
<rect x="30" y="16" width="1" height="1" fill="#FFAE05" />
<rect x="30" y="17" width="1" height="1" fill="#FFB00B" />
<rect x="30" y="18" width="1" height="1" fill="#FFB210" />
<rect x="30" y="19" width="1" height="1" fill="#FFB416" />
<rect x="30" y="20" width="1" height="1" fill="#FFB61B" />
<rect x="30" y="21" width="1" height="1" fill="#FFB721" />
<rect x="9" y="22" width="2" height="7" fill="#FFAD00" />
<rect x="11" y="22" width="2" height="2" fill="#2A1C00" />
<rect x="19" y="22" width="2" height="2" fill="#2A1C00" />
<rect x="30" y="22" width="1" height="1" fill="#FFB927" />
<rect x="3" y="23" width="1" height="3" fill="#000000" />
<rect x="13" y="23" width="6" height="2" fill="#2A1C00" />
<rect x="28" y="23" width="1" height="3" fill="#000000" />
<rect x="30" y="23" width="1" height="1" fill="#FFBB2C" />
<rect x="2" y="24" width="1" height="3" fill="#FFAD00" />
<rect x="11" y="24" width="2" height="5" fill="#FFAD00" />
<rect x="19" y="24" width="2" height="5" fill="#FFAD00" />
<rect x="29" y="24" width="1" height="1" fill="#FFB61B" />
<rect x="30" y="24" width="1" height="1" fill="#FFBD32" />
<rect x="4" y="25" width="1" height="2" fill="#000000" />
<rect x="13" y="25" width="6" height="4" fill="#FFAD00" />
<rect x="27" y="25" width="1" height="2" fill="#000000" />
<rect x="29" y="25" width="1" height="1" fill="#FFB721" />
<rect x="3" y="26" width="1" height="2" fill="#FFAD00" />
<rect x="5" y="26" width="1" height="2" fill="#000000" />
<rect x="26" y="26" width="1" height="2" fill="#000000" />
<rect x="28" y="26" width="1" height="1" fill="#FFB210" />
<rect x="29" y="26" width="1" height="1" fill="#FFB927" />
<rect x="4" y="27" width="1" height="2" fill="#FFAD00" />
<rect x="6" y="27" width="1" height="2" fill="#000000" />
<rect x="25" y="27" width="1" height="2" fill="#000000" />
<rect x="27" y="27" width="1" height="1" fill="#FFAD00" />
<rect x="28" y="27" width="1" height="1" fill="#FFB416" />
<rect x="5" y="28" width="1" height="2" fill="#FFAD00" />
<rect x="7" y="28" width="2" height="1" fill="#000000" />
<rect x="21" y="28" width="2" height="1" fill="#FFAD00" />
<rect x="23" y="28" width="2" height="1" fill="#000000" />
<rect x="26" y="28" width="1" height="2" fill="#FFAD00" />
<rect x="27" y="28" width="1" height="1" fill="#FFAE05" />
<rect x="6" y="29" width="2" height="1" fill="#FFAD00" />
<rect x="8" y="29" width="16" height="1" fill="#000000" />
<rect x="24" y="29" width="2" height="1" fill="#FFAD00" />
<rect x="7" y="30" width="18" height="1" fill="#FFAD00" />
</svg>