<?xml version='1.0' encoding='utf-8'?>
<svg xmlns="http://www.w3.org/2000/svg" viewBox="0 0 3358.328 3357.673" width="512" height="512" version="1.1" xml:space="preserve" style="fill-rule:evenodd;clip-rule:evenodd;stroke-linejoin:round;stroke-miterlimit:2;"><rect x="867.272" y="108.47" width="1732.908" height="108.307" style="fill:#fdfdfd;" /><rect x="650.658" y="216.776" width="324.92" height="108.307" style="fill:#fdfdfd;" /><rect x="975.578" y="216.776" width="1841.215" height="324.92" style="fill:#e8e9ea;" /><rect x="434.045" y="325.083" width="324.92" height="108.307" style="fill:#fdfdfd;" /><rect x="758.965" y="325.083" width="216.614" height="216.614" style="fill:#e8e9ea;" /><rect x="2816.794" y="325.083" width="108.307" height="433.227" style="fill:#e8e9ea;" /><rect x="325.738" y="433.39" width="216.614" height="108.307" style="fill:#fdfdfd;" /><rect x="542.351" y="433.39" width="216.614" height="216.614" style="fill:#e8e9ea;" /><rect x="2925.101" y="433.39" width="108.307" height="2382.749" style="fill:#e8e9ea;" /><rect x="217.431" y="541.697" width="216.614" height="108.307" style="fill:#fdfdfd;" /><rect x="434.045" y="541.697" width="108.307" height="324.92" style="fill:#e8e9ea;" /><rect x="758.965" y="541.697" width="324.92" height="216.614" style="fill:#fcfcfc;" /><rect x="1083.885" y="541.697" width="758.147" height="108.307" style="fill:#e8e9ea;" /><rect x="1842.033" y="541.697" width="324.92" height="108.307" style="fill:#ffe0cf;" /><rect x="2166.953" y="541.697" width="433.227" height="108.307" style="fill:#ffb78f;" /><rect x="2600.18" y="541.697" width="216.614" height="108.307" style="fill:#e8e9ea;" /><rect x="3033.407" y="541.697" width="108.307" height="2166.136" style="fill:#e8e9ea;" /><rect x="217.431" y="650.003" width="108.307" height="216.614" style="fill:#fdfdfd;" /><rect x="325.738" y="650.003" width="108.307" height="2274.442" style="fill:#e8e9ea;" /><rect x="542.351" y="650.003" width="108.307" height="108.307" style="fill:#e8e9ea;" /><rect x="650.658" y="650.003" width="108.307" height="324.92" style="fill:#fcfcfc;" /><rect x="1083.885" y="650.003" width="108.307" height="324.92" style="fill:#fcfcfc;" /><rect x="1192.192" y="650.003" width="541.534" height="108.307" style="fill:#e8e9ea;" /><rect x="1733.726" y="650.003" width="216.614" height="108.307" style="fill:#ffe0cf;" /><rect x="1950.34" y="650.003" width="758.147" height="866.454" style="fill:#f78b4f;" /><rect x="2708.487" y="650.003" width="108.307" height="108.307" style="fill:#e8e9ea;" /><rect x="3141.714" y="650.003" width="108.307" height="1841.215" style="fill:#e8e9ea;" /><rect x="109.124" y="758.31" width="108.307" height="1841.215" style="fill:#fdfdfd;" /><rect x="542.351" y="758.31" width="108.307" height="541.534" style="fill:#fcfcfc;" /><rect x="758.965" y="758.31" width="108.307" height="216.614" style="fill:#fcfcfc;" /><rect x="867.272" y="758.31" width="108.307" height="541.534" style="fill:#1f1f1e;" /><rect x="975.578" y="758.31" width="108.307" height="216.614" style="fill:#fcfcfc;" /><rect x="1192.192" y="758.31" width="108.307" height="541.534" style="fill:#fcfcfc;" /><rect x="1300.499" y="758.31" width="324.92" height="108.307" style="fill:#e8e9ea;" /><rect x="1625.419" y="758.31" width="216.614" height="108.307" style="fill:#ffe0cf;" /><rect x="1842.033" y="758.31" width="108.307" height="2057.829" style="fill:#f78b4f;" /><rect x="2708.487" y="758.31" width="108.307" height="1841.215" style="fill:#f78b4f;" /><rect x="2816.794" y="758.31" width="108.307" height="1949.522" style="fill:#783f20;" /><rect x="217.431" y="866.617" width="108.307" height="1949.522" style="fill:#e8e9ea;" /><rect x="434.045" y="866.617" width="108.307" height="324.92" style="fill:#fcfcfc;" /><rect x="1300.499" y="866.617" width="108.307" height="324.92" style="fill:#fcfcfc;" /><rect x="1408.806" y="866.617" width="108.307" height="433.227" style="fill:#dedede;" /><rect x="1517.112" y="866.617" width="108.307" height="2382.749" style="fill:#e8e9ea;" /><rect x="1625.419" y="866.617" width="108.307" height="216.614" style="fill:#ffe0cf;" /><rect x="1733.726" y="866.617" width="108.307" height="1841.215" style="fill:#f78b4f;" /><rect x="3250.021" y="866.617" width="108.307" height="1732.908" style="fill:#b6b6b6;" /><rect x="650.658" y="974.924" width="216.614" height="108.307" style="fill:#1f1f1e;" /><rect x="975.578" y="974.924" width="216.614" height="108.307" style="fill:#1f1f1e;" /><rect x="650.658" y="1083.231" width="216.614" height="324.92" style="fill:#fcfcfc;" /><rect x="975.578" y="1083.231" width="216.614" height="324.92" style="fill:#fcfcfc;" /><rect x="1625.419" y="1083.231" width="108.307" height="1516.295" style="fill:#ffb78f;" /><rect x="434.045" y="1191.537" width="108.307" height="974.761" style="fill:#e8e9ea;" /><rect x="1300.499" y="1191.537" width="108.307" height="216.614" style="fill:#dedede;" /><rect x="542.351" y="1299.844" width="108.307" height="758.147" style="fill:#e8e9ea;" /><rect x="867.272" y="1299.844" width="108.307" height="216.614" style="fill:#fcfcfc;" /><rect x="1192.192" y="1299.844" width="108.307" height="216.614" style="fill:#dedede;" /><rect x="1408.806" y="1299.844" width="108.307" height="866.454" style="fill:#e8e9ea;" /><rect x="650.658" y="1408.151" width="108.307" height="541.534" style="fill:#e8e9ea;" /><rect x="758.965" y="1408.151" width="108.307" height="108.307" style="fill:#fcfcfc;" /><rect x="975.578" y="1408.151" width="108.307" height="108.307" style="fill:#fcfcfc;" /><rect x="1083.885" y="1408.151" width="108.307" height="216.614" style="fill:#dedede;" /><rect x="1300.499" y="1408.151" width="108.307" height="758.147" style="fill:#e8e9ea;" /><rect x="758.965" y="1516.458" width="324.92" height="108.307" style="fill:#dedede;" /><rect x="1192.192" y="1516.458" width="108.307" height="541.534" style="fill:#e8e9ea;" /><rect x="1950.34" y="1516.458" width="541.534" height="108.307" /><rect x="2491.873" y="1516.458" width="216.614" height="1191.375" style="fill:#f78b4f;" /><rect x="758.965" y="1624.765" width="433.227" height="216.614" style="fill:#e8e9ea;" /><rect x="1950.34" y="1624.765" width="541.534" height="216.614" style="fill:#f78b4f;" /><rect x="758.965" y="1841.378" width="324.92" height="433.227" style="fill:#fcfcfc;" /><rect x="1083.885" y="1841.378" width="108.307" height="108.307" style="fill:#e8e9ea;" /><rect x="1950.34" y="1841.378" width="541.534" height="108.307" /><rect x="650.658" y="1949.685" width="108.307" height="324.92" style="fill:#fcfcfc;" /><rect x="1083.885" y="1949.685" width="108.307" height="324.92" style="fill:#fcfcfc;" /><rect x="1950.34" y="1949.685" width="541.534" height="866.454" style="fill:#f78b4f;" /><rect x="542.351" y="2057.992" width="108.307" height="541.534" style="fill:#fcfcfc;" /><rect x="1192.192" y="2057.992" width="108.307" height="541.534" style="fill:#fcfcfc;" /><rect x="434.045" y="2166.298" width="108.307" height="324.92" style="fill:#fcfcfc;" /><rect x="1300.499" y="2166.298" width="108.307" height="324.92" style="fill:#fcfcfc;" /><rect x="1408.806" y="2166.298" width="108.307" height="433.227" style="fill:#dedede;" /><rect x="650.658" y="2274.605" width="541.534" height="108.307" style="fill:#1f1f1e;" /><rect x="650.658" y="2382.912" width="541.534" height="324.92" style="fill:#fcfcfc;" /><rect x="434.045" y="2491.219" width="108.307" height="541.534" style="fill:#e8e9ea;" /><rect x="1300.499" y="2491.219" width="108.307" height="216.614" style="fill:#dedede;" /><rect x="3141.714" y="2491.219" width="108.307" height="324.92" style="fill:#b6b6b6;" /><rect x="542.351" y="2599.526" width="108.307" height="541.534" style="fill:#e8e9ea;" /><rect x="1192.192" y="2599.526" width="108.307" height="216.614" style="fill:#dedede;" /><rect x="1408.806" y="2599.526" width="108.307" height="649.841" style="fill:#e8e9ea;" /><rect x="1625.419" y="2599.526" width="108.307" height="649.841" style="fill:#e8e9ea;" /><rect x="2708.487" y="2599.526" width="108.307" height="216.614" style="fill:#783f20;" /><rect x="650.658" y="2707.832" width="108.307" height="541.534" style="fill:#e8e9ea;" /><rect x="758.965" y="2707.832" width="324.92" height="108.307" style="fill:#fcfcfc;" /><rect x="1083.885" y="2707.832" width="108.307" height="216.614" style="fill:#dedede;" /><rect x="1300.499" y="2707.832" width="108.307" height="541.534" style="fill:#e8e9ea;" /><rect x="1733.726" y="2707.832" width="108.307" height="541.534" style="fill:#e8e9ea;" /><rect x="2491.873" y="2707.832" width="108.307" height="108.307" style="fill:#f78b4f;" /><rect x="2600.18" y="2707.832" width="108.307" height="216.614" style="fill:#783f20;" /><rect x="2816.794" y="2707.832" width="108.307" height="216.614" style="fill:#e8e9ea;" /><rect x="3033.407" y="2707.832" width="108.307" height="216.614" style="fill:#b6b6b6;" /><rect x="758.965" y="2816.139" width="324.92" height="108.307" style="fill:#dedede;" /><rect x="1192.192" y="2816.139" width="108.307" height="433.227" style="fill:#e8e9ea;" /><rect x="1842.033" y="2816.139" width="758.147" height="108.307" style="fill:#783f20;" /><rect x="2708.487" y="2816.139" width="108.307" height="216.614" style="fill:#e8e9ea;" /><rect x="2925.101" y="2816.139" width="108.307" height="216.614" style="fill:#b6b6b6;" /><rect x="758.965" y="2924.446" width="433.227" height="324.92" style="fill:#e8e9ea;" /><rect x="1842.033" y="2924.446" width="866.454" height="216.614" style="fill:#e8e9ea;" /><rect x="2816.794" y="2924.446" width="108.307" height="216.614" style="fill:#b6b6b6;" /><rect x="2708.487" y="3032.753" width="108.307" height="216.614" style="fill:#b6b6b6;" /><rect x="1842.033" y="3141.059" width="649.841" height="108.307" style="fill:#e8e9ea;" /><rect x="2491.873" y="3141.059" width="216.614" height="108.307" style="fill:#b6b6b6;" /><rect x="867.272" y="3249.366" width="1732.908" height="108.307" style="fill:#b6b6b6;" /></svg>