<?xml version="1.0" encoding="UTF-8" ?>
<svg viewBox="0 0 32 32" version="1.1" width="512" height="512" xmlns="http://www.w3.org/2000/svg" shape-rendering="crispEdges">
<rect x="7" y="1" width="18" height="1" fill="#FF7425" />
<rect x="5" y="2" width="3" height="1" fill="#FF7323" />
<rect x="8" y="2" width="16" height="1" fill="#431800" />
<rect x="24" y="2" width="3" height="1" fill="#FF7323" />
<rect x="4" y="3" width="2" height="1" fill="#FF7221" />
<rect x="6" y="3" width="3" height="1" fill="#431800" />
<rect x="9" y="3" width="14" height="2" fill="#561F00" />
<rect x="23" y="3" width="3" height="1" fill="#431800" />
<rect x="26" y="3" width="2" height="1" fill="#FF7221" />
<rect x="3" y="4" width="2" height="1" fill="#FF7120" />
<rect x="5" y="4" width="2" height="1" fill="#431800" />
<rect x="7" y="4" width="2" height="1" fill="#561F00" />
<rect x="23" y="4" width="2" height="3" fill="#561F00" />
<rect x="25" y="4" width="2" height="1" fill="#431800" />
<rect x="27" y="4" width="2" height="1" fill="#FF7120" />
<rect x="2" y="5" width="2" height="1" fill="#FF701E" />
<rect x="4" y="5" width="2" height="1" fill="#431800" />
<rect x="6" y="5" width="1" height="1" fill="#561F00" />
<rect x="7" y="5" width="6" height="1" fill="#FF7425" />
<rect x="13" y="5" width="10" height="1" fill="#561F00" />
<rect x="25" y="5" width="1" height="3" fill="#561F00" />
<rect x="26" y="5" width="2" height="1" fill="#431800" />
<rect x="28" y="5" width="2" height="1" fill="#FF701E" />
<rect x="2" y="6" width="1" height="1" fill="#FF6F1D" />
<rect x="3" y="6" width="2" height="1" fill="#431800" />
<rect x="5" y="6" width="1" height="1" fill="#561F00" />
<rect x="6" y="6" width="1" height="1" fill="#FF7425" />
<rect x="7" y="6" width="6" height="11" fill="#FF5D00" />
<rect x="13" y="6" width="1" height="1" fill="#FF7425" />
<rect x="14" y="6" width="9" height="1" fill="#561F00" />
<rect x="26" y="6" width="1" height="3" fill="#561F00" />
<rect x="27" y="6" width="2" height="1" fill="#431800" />
<rect x="29" y="6" width="1" height="1" fill="#FF6F1D" />
<rect x="1" y="7" width="2" height="1" fill="#FF6E1B" />
<rect x="3" y="7" width="1" height="2" fill="#431800" />
<rect x="4" y="7" width="1" height="1" fill="#561F00" />
<rect x="5" y="7" width="1" height="1" fill="#FF7425" />
<rect x="6" y="7" width="1" height="9" fill="#FF5D00" />
<rect x="13" y="7" width="1" height="9" fill="#FF5D00" />
<rect x="14" y="7" width="1" height="1" fill="#FF7425" />
<rect x="15" y="7" width="7" height="1" fill="#561F00" />
<rect x="22" y="7" width="3" height="1" fill="#FF7425" />
<rect x="27" y="7" width="1" height="18" fill="#561F00" />
<rect x="28" y="7" width="1" height="2" fill="#431800" />
<rect x="29" y="7" width="2" height="1" fill="#FF6E1B" />
<rect x="1" y="8" width="1" height="1" fill="#FF6D1A" />
<rect x="2" y="8" width="1" height="16" fill="#431800" />
<rect x="4" y="8" width="1" height="1" fill="#FF7425" />
<rect x="5" y="8" width="1" height="7" fill="#FF5D00" />
<rect x="14" y="8" width="1" height="7" fill="#FF5D00" />
<rect x="15" y="8" width="1" height="1" fill="#FF7425" />
<rect x="16" y="8" width="5" height="1" fill="#561F00" />
<rect x="21" y="8" width="1" height="1" fill="#FF7425" />
<rect x="22" y="8" width="3" height="6" fill="#FF5D00" />
<rect x="25" y="8" width="1" height="1" fill="#FF7425" />
<rect x="29" y="8" width="1" height="16" fill="#431800" />
<rect x="30" y="8" width="1" height="1" fill="#FF6D1A" />
<rect x="1" y="9" width="1" height="1" fill="#FF6C18" />
<rect x="3" y="9" width="1" height="14" fill="#561F00" />
<rect x="4" y="9" width="1" height="5" fill="#FF5D00" />
<rect x="15" y="9" width="1" height="5" fill="#FF5D00" />
<rect x="16" y="9" width="4" height="1" fill="#561F00" />
<rect x="20" y="9" width="1" height="1" fill="#FF7425" />
<rect x="21" y="9" width="1" height="4" fill="#FF5D00" />
<rect x="25" y="9" width="1" height="4" fill="#FF5D00" />
<rect x="26" y="9" width="1" height="1" fill="#FF7425" />
<rect x="28" y="9" width="1" height="14" fill="#561F00" />
<rect x="30" y="9" width="1" height="1" fill="#FF6C18" />
<rect x="1" y="10" width="1" height="1" fill="#FF6B17" />
<rect x="16" y="10" width="5" height="1" fill="#FF5D00" />
<rect x="26" y="10" width="1" height="2" fill="#FF5D00" />
<rect x="30" y="10" width="1" height="1" fill="#FF6B17" />
<rect x="1" y="11" width="1" height="1" fill="#FF6A15" />
<rect x="16" y="11" width="4" height="1" fill="#431800" />
<rect x="20" y="11" width="1" height="1" fill="#FF5D00" />
<rect x="30" y="11" width="1" height="1" fill="#FF6A15" />
<rect x="1" y="12" width="1" height="1" fill="#FF6914" />
<rect x="16" y="12" width="4" height="17" fill="#561F00" />
<rect x="20" y="12" width="1" height="1" fill="#431800" />
<rect x="26" y="12" width="1" height="1" fill="#431800" />
<rect x="30" y="12" width="1" height="1" fill="#FF6914" />
<rect x="1" y="13" width="1" height="1" fill="#FF6812" />
<rect x="20" y="13" width="1" height="8" fill="#561F00" />
<rect x="21" y="13" width="1" height="1" fill="#431800" />
<rect x="25" y="13" width="1" height="1" fill="#431800" />
<rect x="26" y="13" width="1" height="8" fill="#561F00" />
<rect x="30" y="13" width="1" height="1" fill="#FF6812" />
<rect x="1" y="14" width="1" height="1" fill="#FF6710" />
<rect x="4" y="14" width="1" height="1" fill="#431800" />
<rect x="15" y="14" width="1" height="1" fill="#431800" />
<rect x="21" y="14" width="1" height="6" fill="#561F00" />
<rect x="22" y="14" width="1" height="1" fill="#431800" />
<rect x="23" y="14" width="1" height="12" fill="#FF5D00" />
<rect x="24" y="14" width="1" height="1" fill="#431800" />
<rect x="25" y="14" width="1" height="6" fill="#561F00" />
<rect x="30" y="14" width="1" height="1" fill="#FF6710" />
<rect x="1" y="15" width="1" height="1" fill="#FF660F" />
<rect x="4" y="15" width="1" height="10" fill="#561F00" />
<rect x="5" y="15" width="1" height="1" fill="#431800" />
<rect x="14" y="15" width="1" height="1" fill="#431800" />
<rect x="15" y="15" width="1" height="14" fill="#561F00" />
<rect x="22" y="15" width="1" height="4" fill="#561F00" />
<rect x="24" y="15" width="1" height="4" fill="#561F00" />
<rect x="30" y="15" width="1" height="1" fill="#FF660F" />
<rect x="1" y="16" width="1" height="1" fill="#FF650D" />
<rect x="5" y="16" width="1" height="10" fill="#561F00" />
<rect x="6" y="16" width="1" height="1" fill="#431800" />
<rect x="13" y="16" width="1" height="1" fill="#431800" />
<rect x="14" y="16" width="1" height="13" fill="#561F00" />
<rect x="30" y="16" width="1" height="1" fill="#FF650D" />
<rect x="1" y="17" width="1" height="1" fill="#FF640C" />
<rect x="6" y="17" width="1" height="10" fill="#561F00" />
<rect x="7" y="17" width="6" height="1" fill="#431800" />
<rect x="13" y="17" width="1" height="12" fill="#561F00" />
<rect x="30" y="17" width="1" height="1" fill="#FF640C" />
<rect x="1" y="18" width="1" height="1" fill="#FF630A" />
<rect x="7" y="18" width="6" height="10" fill="#561F00" />
<rect x="30" y="18" width="1" height="1" fill="#FF630A" />
<rect x="1" y="19" width="1" height="1" fill="#FF6209" />
<rect x="22" y="19" width="1" height="1" fill="#FF7425" />
<rect x="24" y="19" width="1" height="1" fill="#FF7425" />
<rect x="30" y="19" width="1" height="1" fill="#FF6209" />
<rect x="1" y="20" width="1" height="1" fill="#FF6107" />
<rect x="21" y="20" width="1" height="1" fill="#FF7425" />
<rect x="22" y="20" width="1" height="6" fill="#FF5D00" />
<rect x="24" y="20" width="1" height="6" fill="#FF5D00" />
<rect x="25" y="20" width="1" height="1" fill="#FF7425" />
<rect x="30" y="20" width="1" height="1" fill="#FF6107" />
<rect x="1" y="21" width="1" height="1" fill="#FF6006" />
<rect x="20" y="21" width="1" height="1" fill="#FF7425" />
<rect x="21" y="21" width="1" height="4" fill="#FF5D00" />
<rect x="25" y="21" width="1" height="4" fill="#FF5D00" />
<rect x="26" y="21" width="1" height="1" fill="#FF7425" />
<rect x="30" y="21" width="1" height="1" fill="#FF6006" />
<rect x="1" y="22" width="1" height="1" fill="#FF5F04" />
<rect x="20" y="22" width="1" height="2" fill="#FF5D00" />
<rect x="26" y="22" width="1" height="2" fill="#FF5D00" />
<rect x="30" y="22" width="1" height="1" fill="#FF5F04" />
<rect x="1" y="23" width="1" height="1" fill="#FF5E03" />
<rect x="3" y="23" width="1" height="3" fill="#431800" />
<rect x="28" y="23" width="1" height="3" fill="#431800" />
<rect x="30" y="23" width="1" height="1" fill="#FF5E03" />
<rect x="1" y="24" width="2" height="1" fill="#FF5D01" />
<rect x="20" y="24" width="1" height="1" fill="#431800" />
<rect x="26" y="24" width="1" height="1" fill="#431800" />
<rect x="29" y="24" width="2" height="1" fill="#FF5D01" />
<rect x="2" y="25" width="1" height="2" fill="#FF5D00" />
<rect x="4" y="25" width="1" height="2" fill="#431800" />
<rect x="20" y="25" width="1" height="4" fill="#561F00" />
<rect x="21" y="25" width="1" height="1" fill="#431800" />
<rect x="25" y="25" width="1" height="1" fill="#431800" />
<rect x="26" y="25" width="1" height="1" fill="#561F00" />
<rect x="27" y="25" width="1" height="2" fill="#431800" />
<rect x="29" y="25" width="1" height="2" fill="#FF5D00" />
<rect x="3" y="26" width="1" height="2" fill="#FF5D00" />
<rect x="5" y="26" width="1" height="2" fill="#431800" />
<rect x="21" y="26" width="1" height="3" fill="#561F00" />
<rect x="22" y="26" width="3" height="1" fill="#431800" />
<rect x="25" y="26" width="1" height="1" fill="#561F00" />
<rect x="26" y="26" width="1" height="2" fill="#431800" />
<rect x="28" y="26" width="1" height="2" fill="#FF5D00" />
<rect x="4" y="27" width="1" height="2" fill="#FF5D00" />
<rect x="6" y="27" width="1" height="2" fill="#431800" />
<rect x="22" y="27" width="3" height="1" fill="#561F00" />
<rect x="25" y="27" width="1" height="2" fill="#431800" />
<rect x="27" y="27" width="1" height="2" fill="#FF5D00" />
<rect x="5" y="28" width="1" height="2" fill="#FF5D00" />
<rect x="7" y="28" width="2" height="1" fill="#431800" />
<rect x="9" y="28" width="4" height="1" fill="#561F00" />
<rect x="22" y="28" width="1" height="1" fill="#561F00" />
<rect x="23" y="28" width="2" height="1" fill="#431800" />
<rect x="26" y="28" width="1" height="2" fill="#FF5D00" />
<rect x="6" y="29" width="2" height="1" fill="#FF5D00" />
<rect x="8" y="29" width="16" height="1" fill="#431800" />
<rect x="24" y="29" width="2" height="1" fill="#FF5D00" />
<rect x="7" y="30" width="18" height="1" fill="#FF5D00" />
</svg>