<?xml version="1.0" encoding="UTF-8" ?>
<svg viewBox="0 0 32 32" version="1.1" width="512" height="512" xmlns="http://www.w3.org/2000/svg" shape-rendering="crispEdges">
<rect x="7" y="1" width="18" height="1" fill="#462A95" />
<rect x="5" y="2" width="3" height="1" fill="#462A95" />
<rect x="8" y="2" width="16" height="1" fill="#7E52FF" />
<rect x="24" y="2" width="3" height="1" fill="#462A95" />
<rect x="4" y="3" width="2" height="1" fill="#462A95" />
<rect x="6" y="3" width="3" height="1" fill="#7E52FF" />
<rect x="9" y="3" width="17" height="6" fill="#4F2ABE" />
<rect x="26" y="3" width="2" height="1" fill="#462A95" />
<rect x="3" y="4" width="2" height="1" fill="#462A95" />
<rect x="5" y="4" width="2" height="1" fill="#7E52FF" />
<rect x="7" y="4" width="2" height="5" fill="#4F2ABE" />
<rect x="26" y="4" width="1" height="14" fill="#4F2ABE" />
<rect x="27" y="4" width="2" height="1" fill="#462A95" />
<rect x="2" y="5" width="2" height="1" fill="#462A95" />
<rect x="4" y="5" width="2" height="1" fill="#7E52FF" />
<rect x="6" y="5" width="1" height="5" fill="#4F2ABE" />
<rect x="27" y="5" width="1" height="22" fill="#4F2ABE" />
<rect x="28" y="5" width="2" height="1" fill="#462A95" />
<rect x="2" y="6" width="1" height="2" fill="#462A95" />
<rect x="3" y="6" width="2" height="1" fill="#7E52FF" />
<rect x="5" y="6" width="1" height="12" fill="#4F2ABE" />
<rect x="28" y="6" width="1" height="20" fill="#4F2ABE" />
<rect x="29" y="6" width="1" height="2" fill="#462A95" />
<rect x="1" y="7" width="1" height="18" fill="#462A95" />
<rect x="3" y="7" width="1" height="2" fill="#7E52FF" />
<rect x="4" y="7" width="1" height="20" fill="#4F2ABE" />
<rect x="30" y="7" width="1" height="18" fill="#462A95" />
<rect x="2" y="8" width="1" height="16" fill="#7E52FF" />
<rect x="29" y="8" width="1" height="16" fill="#4F2ABE" />
<rect x="3" y="9" width="1" height="17" fill="#4F2ABE" />
<rect x="7" y="9" width="15" height="1" fill="#FFFFFF" />
<rect x="22" y="9" width="2" height="1" fill="#6F4BD9" />
<rect x="24" y="9" width="2" height="1" fill="#4F2ABE" />
<rect x="6" y="10" width="2" height="1" fill="#FFFFFF" />
<rect x="8" y="10" width="14" height="1" fill="#ECECFB" />
<rect x="22" y="10" width="1" height="1" fill="#AB8FFF" />
<rect x="23" y="10" width="2" height="1" fill="#6F4BD9" />
<rect x="25" y="10" width="1" height="7" fill="#4F2ABE" />
<rect x="6" y="11" width="1" height="6" fill="#4F2ABE" />
<rect x="7" y="11" width="15" height="1" fill="#FFFFFF" />
<rect x="22" y="11" width="2" height="1" fill="#6F4BD9" />
<rect x="24" y="11" width="1" height="6" fill="#4F2ABE" />
<rect x="7" y="12" width="17" height="1" fill="#4F2ABE" />
<rect x="7" y="13" width="3" height="1" fill="#4F2ABE" />
<rect x="10" y="13" width="9" height="1" fill="#FFFFFF" />
<rect x="19" y="13" width="4" height="1" fill="#6F4BD9" />
<rect x="23" y="13" width="1" height="1" fill="#4F2ABE" />
<rect x="7" y="14" width="2" height="3" fill="#4F2ABE" />
<rect x="9" y="14" width="2" height="1" fill="#FFFFFF" />
<rect x="11" y="14" width="8" height="1" fill="#ECECFB" />
<rect x="19" y="14" width="1" height="1" fill="#AB8FFF" />
<rect x="20" y="14" width="4" height="1" fill="#6F4BD9" />
<rect x="9" y="15" width="1" height="2" fill="#4F2ABE" />
<rect x="10" y="15" width="9" height="1" fill="#FFFFFF" />
<rect x="19" y="15" width="4" height="1" fill="#6F4BD9" />
<rect x="23" y="15" width="1" height="2" fill="#4F2ABE" />
<rect x="10" y="16" width="13" height="1" fill="#4F2ABE" />
<rect x="6" y="17" width="12" height="1" fill="#FFFFFF" />
<rect x="18" y="17" width="8" height="1" fill="#6F4BD9" />
<rect x="5" y="18" width="2" height="1" fill="#FFFFFF" />
<rect x="7" y="18" width="11" height="1" fill="#ECECFB" />
<rect x="18" y="18" width="1" height="1" fill="#AB8FFF" />
<rect x="19" y="18" width="8" height="1" fill="#6F4BD9" />
<rect x="5" y="19" width="1" height="9" fill="#4F2ABE" />
<rect x="6" y="19" width="12" height="1" fill="#FFFFFF" />
<rect x="18" y="19" width="8" height="1" fill="#6F4BD9" />
<rect x="26" y="19" width="1" height="3" fill="#4F2ABE" />
<rect x="6" y="20" width="20" height="1" fill="#4F2ABE" />
<rect x="6" y="21" width="6" height="1" fill="#4F2ABE" />
<rect x="12" y="21" width="11" height="1" fill="#FFFFFF" />
<rect x="23" y="21" width="3" height="1" fill="#6F4BD9" />
<rect x="6" y="22" width="5" height="7" fill="#4F2ABE" />
<rect x="11" y="22" width="2" height="1" fill="#FFFFFF" />
<rect x="13" y="22" width="10" height="1" fill="#ECECFB" />
<rect x="23" y="22" width="1" height="1" fill="#AB8FFF" />
<rect x="24" y="22" width="3" height="1" fill="#6F4BD9" />
<rect x="11" y="23" width="1" height="7" fill="#4F2ABE" />
<rect x="12" y="23" width="11" height="1" fill="#FFFFFF" />
<rect x="23" y="23" width="3" height="1" fill="#6F4BD9" />
<rect x="26" y="23" width="1" height="5" fill="#4F2ABE" />
<rect x="2" y="24" width="1" height="3" fill="#462A95" />
<rect x="12" y="24" width="14" height="5" fill="#4F2ABE" />
<rect x="29" y="24" width="1" height="3" fill="#462A95" />
<rect x="3" y="26" width="1" height="2" fill="#462A95" />
<rect x="28" y="26" width="1" height="2" fill="#462A95" />
<rect x="4" y="27" width="1" height="2" fill="#462A95" />
<rect x="27" y="27" width="1" height="2" fill="#462A95" />
<rect x="5" y="28" width="1" height="2" fill="#462A95" />
<rect x="26" y="28" width="1" height="2" fill="#462A95" />
<rect x="6" y="29" width="2" height="1" fill="#462A95" />
<rect x="8" y="29" width="3" height="1" fill="#4F2ABE" />
<rect x="12" y="29" width="12" height="1" fill="#4F2ABE" />
<rect x="24" y="29" width="2" height="1" fill="#462A95" />
<rect x="7" y="30" width="18" height="1" fill="#462A95" />
</svg>