<?xml version="1.0" encoding="UTF-8" ?>
<svg viewBox="0 0 32 32" version="1.1" width="512" height="512" xmlns="http://www.w3.org/2000/svg" shape-rendering="crispEdges">
<rect x="7" y="1" width="9" height="1" fill="#C9C9C9" />
<rect x="16" y="1" width="3" height="1" fill="#AAAAAA" />
<rect x="19" y="1" width="5" height="1" fill="#6C6C6C" />
<rect x="24" y="1" width="1" height="2" fill="#757779" />
<rect x="5" y="2" width="3" height="1" fill="#C9C9C9" />
<rect x="8" y="2" width="16" height="1" fill="#0E0E0E" />
<rect x="25" y="2" width="2" height="1" fill="#757779" />
<rect x="4" y="3" width="2" height="1" fill="#C9C9C9" />
<rect x="6" y="3" width="3" height="1" fill="#0E0E0E" />
<rect x="9" y="3" width="14" height="1" fill="#5B5B5B" />
<rect x="23" y="3" width="3" height="1" fill="#0E0E0E" />
<rect x="26" y="3" width="2" height="1" fill="#757779" />
<rect x="3" y="4" width="2" height="1" fill="#C9C9C9" />
<rect x="5" y="4" width="2" height="1" fill="#0E0E0E" />
<rect x="7" y="4" width="3" height="1" fill="#5B5B5B" />
<rect x="10" y="4" width="15" height="5" fill="#1F1F1F" />
<rect x="25" y="4" width="2" height="1" fill="#0E0E0E" />
<rect x="27" y="4" width="2" height="1" fill="#757779" />
<rect x="2" y="5" width="2" height="1" fill="#C9C9C9" />
<rect x="4" y="5" width="2" height="1" fill="#0E0E0E" />
<rect x="6" y="5" width="2" height="1" fill="#5B5B5B" />
<rect x="8" y="5" width="2" height="6" fill="#1F1F1F" />
<rect x="25" y="5" width="1" height="22" fill="#1F1F1F" />
<rect x="26" y="5" width="2" height="1" fill="#0E0E0E" />
<rect x="28" y="5" width="2" height="1" fill="#757779" />
<rect x="2" y="6" width="1" height="2" fill="#C9C9C9" />
<rect x="3" y="6" width="2" height="1" fill="#0E0E0E" />
<rect x="5" y="6" width="2" height="1" fill="#5B5B5B" />
<rect x="7" y="6" width="1" height="22" fill="#1F1F1F" />
<rect x="26" y="6" width="1" height="20" fill="#1F1F1F" />
<rect x="27" y="6" width="2" height="1" fill="#0E0E0E" />
<rect x="29" y="6" width="1" height="2" fill="#757779" />
<rect x="1" y="7" width="1" height="7" fill="#C9C9C9" />
<rect x="3" y="7" width="1" height="2" fill="#0E0E0E" />
<rect x="4" y="7" width="2" height="1" fill="#5B5B5B" />
<rect x="6" y="7" width="1" height="20" fill="#1F1F1F" />
<rect x="27" y="7" width="1" height="18" fill="#1F1F1F" />
<rect x="28" y="7" width="1" height="2" fill="#0E0E0E" />
<rect x="30" y="7" width="1" height="2" fill="#757779" />
<rect x="2" y="8" width="1" height="16" fill="#0E0E0E" />
<rect x="4" y="8" width="1" height="2" fill="#5B5B5B" />
<rect x="5" y="8" width="1" height="18" fill="#1F1F1F" />
<rect x="29" y="8" width="1" height="16" fill="#0E0E0E" />
<rect x="3" y="9" width="1" height="14" fill="#5B5B5B" />
<rect x="10" y="9" width="11" height="1" fill="#1F1F1F" />
<rect x="21" y="9" width="2" height="1" fill="#F3F3F3" />
<rect x="23" y="9" width="2" height="1" fill="#1F1F1F" />
<rect x="28" y="9" width="1" height="14" fill="#1F1F1F" />
<rect x="30" y="9" width="1" height="4" fill="#6C6C6C" />
<rect x="4" y="10" width="1" height="15" fill="#1F1F1F" />
<rect x="10" y="10" width="10" height="1" fill="#1F1F1F" />
<rect x="20" y="10" width="1" height="1" fill="#F3F3F3" />
<rect x="21" y="10" width="3" height="4" fill="#E6E6E6" />
<rect x="24" y="10" width="1" height="1" fill="#1F1F1F" />
<rect x="8" y="11" width="11" height="1" fill="#4B4B4B" />
<rect x="19" y="11" width="1" height="2" fill="#F3F3F3" />
<rect x="20" y="11" width="1" height="3" fill="#E6E6E6" />
<rect x="24" y="11" width="1" height="2" fill="#E6E6E6" />
<rect x="8" y="12" width="11" height="1" fill="#474747" />
<rect x="8" y="13" width="12" height="5" fill="#1F1F1F" />
<rect x="24" y="13" width="1" height="7" fill="#1F1F1F" />
<rect x="30" y="13" width="1" height="9" fill="#515151" />
<rect x="1" y="14" width="1" height="9" fill="#AAAAAA" />
<rect x="20" y="14" width="1" height="6" fill="#1F1F1F" />
<rect x="21" y="14" width="2" height="1" fill="#E6E6E6" />
<rect x="23" y="14" width="1" height="6" fill="#1F1F1F" />
<rect x="21" y="15" width="2" height="5" fill="#1F1F1F" />
<rect x="8" y="18" width="2" height="1" fill="#1F1F1F" />
<rect x="10" y="18" width="2" height="1" fill="#F3F3F3" />
<rect x="12" y="18" width="8" height="1" fill="#1F1F1F" />
<rect x="8" y="19" width="1" height="1" fill="#1F1F1F" />
<rect x="9" y="19" width="1" height="1" fill="#F3F3F3" />
<rect x="10" y="19" width="3" height="4" fill="#E6E6E6" />
<rect x="13" y="19" width="7" height="1" fill="#1F1F1F" />
<rect x="8" y="20" width="1" height="2" fill="#F3F3F3" />
<rect x="9" y="20" width="1" height="3" fill="#E6E6E6" />
<rect x="13" y="20" width="1" height="2" fill="#E6E6E6" />
<rect x="14" y="20" width="11" height="1" fill="#4B4B4B" />
<rect x="14" y="21" width="11" height="1" fill="#474747" />
<rect x="8" y="22" width="1" height="6" fill="#1F1F1F" />
<rect x="13" y="22" width="12" height="6" fill="#1F1F1F" />
<rect x="30" y="22" width="1" height="3" fill="#474747" />
<rect x="1" y="23" width="1" height="2" fill="#6C6C6C" />
<rect x="3" y="23" width="1" height="3" fill="#0E0E0E" />
<rect x="9" y="23" width="1" height="6" fill="#1F1F1F" />
<rect x="10" y="23" width="2" height="1" fill="#E6E6E6" />
<rect x="12" y="23" width="1" height="6" fill="#1F1F1F" />
<rect x="28" y="23" width="1" height="3" fill="#0E0E0E" />
<rect x="2" y="24" width="1" height="3" fill="#6C6C6C" />
<rect x="10" y="24" width="2" height="5" fill="#1F1F1F" />
<rect x="29" y="24" width="1" height="3" fill="#474747" />
<rect x="4" y="25" width="1" height="2" fill="#0E0E0E" />
<rect x="27" y="25" width="1" height="2" fill="#0E0E0E" />
<rect x="3" y="26" width="1" height="2" fill="#6C6C6C" />
<rect x="5" y="26" width="1" height="2" fill="#0E0E0E" />
<rect x="26" y="26" width="1" height="2" fill="#0E0E0E" />
<rect x="28" y="26" width="1" height="2" fill="#474747" />
<rect x="4" y="27" width="1" height="2" fill="#757779" />
<rect x="6" y="27" width="1" height="2" fill="#0E0E0E" />
<rect x="25" y="27" width="1" height="2" fill="#0E0E0E" />
<rect x="27" y="27" width="1" height="2" fill="#474747" />
<rect x="5" y="28" width="1" height="2" fill="#757779" />
<rect x="7" y="28" width="2" height="1" fill="#0E0E0E" />
<rect x="13" y="28" width="10" height="1" fill="#1F1F1F" />
<rect x="23" y="28" width="2" height="1" fill="#0E0E0E" />
<rect x="26" y="28" width="1" height="2" fill="#474747" />
<rect x="6" y="29" width="2" height="1" fill="#757779" />
<rect x="8" y="29" width="16" height="1" fill="#0E0E0E" />
<rect x="24" y="29" width="2" height="1" fill="#474747" />
<rect x="7" y="30" width="1" height="1" fill="#757779" />
<rect x="8" y="30" width="3" height="1" fill="#6C6C6C" />
<rect x="11" y="30" width="9" height="1" fill="#515151" />
<rect x="20" y="30" width="5" height="1" fill="#474747" />
</svg>