<?xml version="1.0" encoding="UTF-8" ?>
<svg viewBox="0 0 32 32" version="1.1" width="512" height="512" xmlns="http://www.w3.org/2000/svg" shape-rendering="crispEdges">
<rect x="7" y="1" width="18" height="1" fill="#F0C419" />
<rect x="5" y="2" width="3" height="1" fill="#F0C419" />
<rect x="8" y="2" width="16" height="1" fill="#000515" />
<rect x="24" y="2" width="3" height="1" fill="#F0C419" />
<rect x="4" y="3" width="2" height="1" fill="#F0C419" />
<rect x="6" y="3" width="3" height="1" fill="#000515" />
<rect x="9" y="3" width="14" height="1" fill="#D26A31" />
<rect x="23" y="3" width="3" height="1" fill="#000515" />
<rect x="26" y="3" width="2" height="1" fill="#F0C419" />
<rect x="3" y="4" width="2" height="1" fill="#F0C419" />
<rect x="5" y="4" width="2" height="1" fill="#000515" />
<rect x="7" y="4" width="3" height="1" fill="#D26A31" />
<rect x="10" y="4" width="15" height="1" fill="#BC6A3D" />
<rect x="25" y="4" width="2" height="1" fill="#000515" />
<rect x="27" y="4" width="2" height="1" fill="#F0C419" />
<rect x="2" y="5" width="2" height="1" fill="#F0C419" />
<rect x="4" y="5" width="2" height="1" fill="#000515" />
<rect x="6" y="5" width="2" height="1" fill="#A4501C" />
<rect x="8" y="5" width="18" height="4" fill="#77431D" />
<rect x="26" y="5" width="2" height="1" fill="#000515" />
<rect x="28" y="5" width="2" height="1" fill="#F0C419" />
<rect x="2" y="6" width="1" height="2" fill="#F0C419" />
<rect x="3" y="6" width="2" height="1" fill="#000515" />
<rect x="5" y="6" width="2" height="1" fill="#A4501C" />
<rect x="7" y="6" width="1" height="3" fill="#77431D" />
<rect x="26" y="6" width="1" height="3" fill="#77431D" />
<rect x="27" y="6" width="2" height="1" fill="#000515" />
<rect x="29" y="6" width="1" height="2" fill="#F0C419" />
<rect x="1" y="7" width="1" height="11" fill="#F0C419" />
<rect x="3" y="7" width="1" height="2" fill="#000515" />
<rect x="4" y="7" width="2" height="1" fill="#A4501C" />
<rect x="6" y="7" width="1" height="2" fill="#77431D" />
<rect x="27" y="7" width="1" height="2" fill="#77431D" />
<rect x="28" y="7" width="1" height="2" fill="#000515" />
<rect x="30" y="7" width="1" height="11" fill="#F0C419" />
<rect x="2" y="8" width="1" height="16" fill="#000515" />
<rect x="4" y="8" width="1" height="1" fill="#A4501C" />
<rect x="5" y="8" width="1" height="1" fill="#77431D" />
<rect x="29" y="8" width="1" height="16" fill="#000515" />
<rect x="3" y="9" width="2" height="1" fill="#D26A31" />
<rect x="5" y="9" width="23" height="4" fill="#BC6A3D" />
<rect x="28" y="9" width="1" height="14" fill="#542F14" />
<rect x="3" y="10" width="1" height="3" fill="#D26A31" />
<rect x="4" y="10" width="1" height="3" fill="#BC6A3D" />
<rect x="3" y="13" width="1" height="4" fill="#A4501C" />
<rect x="4" y="13" width="24" height="4" fill="#77431D" />
<rect x="3" y="17" width="1" height="4" fill="#D26A31" />
<rect x="4" y="17" width="24" height="4" fill="#BC6A3D" />
<rect x="1" y="18" width="1" height="7" fill="#F29C1F" />
<rect x="30" y="18" width="1" height="7" fill="#F29C1F" />
<rect x="3" y="21" width="1" height="2" fill="#A4501C" />
<rect x="4" y="21" width="24" height="1" fill="#77431D" />
<rect x="4" y="22" width="23" height="2" fill="#77431D" />
<rect x="27" y="22" width="1" height="3" fill="#542F14" />
<rect x="3" y="23" width="1" height="3" fill="#000515" />
<rect x="28" y="23" width="1" height="3" fill="#000515" />
<rect x="2" y="24" width="1" height="3" fill="#F29C1F" />
<rect x="4" y="24" width="22" height="1" fill="#77431D" />
<rect x="26" y="24" width="1" height="2" fill="#542F14" />
<rect x="29" y="24" width="1" height="3" fill="#F29C1F" />
<rect x="4" y="25" width="1" height="2" fill="#000515" />
<rect x="5" y="25" width="20" height="1" fill="#BC6A3D" />
<rect x="25" y="25" width="1" height="2" fill="#542F14" />
<rect x="27" y="25" width="1" height="2" fill="#000515" />
<rect x="3" y="26" width="1" height="2" fill="#F29C1F" />
<rect x="5" y="26" width="1" height="2" fill="#000515" />
<rect x="6" y="26" width="18" height="1" fill="#BC6A3D" />
<rect x="24" y="26" width="1" height="2" fill="#542F14" />
<rect x="26" y="26" width="1" height="2" fill="#000515" />
<rect x="28" y="26" width="1" height="2" fill="#F29C1F" />
<rect x="4" y="27" width="1" height="2" fill="#F29C1F" />
<rect x="6" y="27" width="1" height="2" fill="#000515" />
<rect x="7" y="27" width="15" height="1" fill="#BC6A3D" />
<rect x="22" y="27" width="2" height="1" fill="#542F14" />
<rect x="25" y="27" width="1" height="2" fill="#000515" />
<rect x="27" y="27" width="1" height="2" fill="#F29C1F" />
<rect x="5" y="28" width="1" height="2" fill="#F29C1F" />
<rect x="7" y="28" width="2" height="1" fill="#000515" />
<rect x="9" y="28" width="14" height="1" fill="#542F14" />
<rect x="23" y="28" width="2" height="1" fill="#000515" />
<rect x="26" y="28" width="1" height="2" fill="#F29C1F" />
<rect x="6" y="29" width="2" height="1" fill="#F29C1F" />
<rect x="8" y="29" width="16" height="1" fill="#000515" />
<rect x="24" y="29" width="2" height="1" fill="#F29C1F" />
<rect x="7" y="30" width="18" height="1" fill="#F29C1F" />
</svg>