<?xml version='1.0' encoding='utf-8'?>
<svg xmlns="http://www.w3.org/2000/svg" viewBox="0 0 3358.274 3357.5939999999996" width="512" height="512" version="1.1" xml:space="preserve" style="fill-rule:evenodd;clip-rule:evenodd;stroke-linejoin:round;stroke-miterlimit:2;"><rect x="867.218" y="108.391" width="1732.908" height="108.307" style="fill:#4a4a4a;" /><rect x="650.604" y="216.697" width="324.92" height="108.307" style="fill:#4a4a4a;" /><rect x="975.524" y="216.697" width="1516.295" height="108.307" style="fill:#0a0a0a;" /><rect x="2491.819" y="216.697" width="324.92" height="108.307" style="fill:#4a4a4a;" /><rect x="433.991" y="325.004" width="324.92" height="108.307" style="fill:#4a4a4a;" /><rect x="758.911" y="325.004" width="324.92" height="108.307" style="fill:#0a0a0a;" /><rect x="1083.831" y="325.004" width="1299.681" height="108.307" style="fill:#161616;" /><rect x="2383.513" y="325.004" width="324.92" height="108.307" style="fill:#0a0a0a;" /><rect x="2708.433" y="325.004" width="216.614" height="108.307" style="fill:#4a4a4a;" /><rect x="325.684" y="433.311" width="216.614" height="108.307" style="fill:#4a4a4a;" /><rect x="542.297" y="433.311" width="324.92" height="108.307" style="fill:#0a0a0a;" /><rect x="867.218" y="433.311" width="216.614" height="108.307" style="fill:#161616;" /><rect x="1083.831" y="433.311" width="433.227" height="866.454" style="fill:#b2b8bd;" /><rect x="1517.058" y="433.311" width="216.614" height="108.307" style="fill:#b3b1b1;" /><rect x="1733.672" y="433.311" width="649.841" height="108.307" style="fill:#161616;" /><rect x="2383.513" y="433.311" width="108.307" height="108.307" style="fill:#b1b2b3;" /><rect x="2491.819" y="433.311" width="108.307" height="866.454" style="fill:#161616;" /><rect x="2600.126" y="433.311" width="216.614" height="108.307" style="fill:#0a0a0a;" /><rect x="2816.74" y="433.311" width="216.614" height="108.307" style="fill:#4a4a4a;" /><rect x="217.377" y="541.618" width="216.614" height="108.307" style="fill:#4a4a4a;" /><rect x="433.991" y="541.618" width="216.614" height="108.307" style="fill:#0a0a0a;" /><rect x="650.604" y="541.618" width="324.92" height="108.307" style="fill:#161616;" /><rect x="975.524" y="541.618" width="108.307" height="649.841" style="fill:#b2b8bd;" /><rect x="1517.058" y="541.618" width="108.307" height="649.841" style="fill:#b2b8bd;" /><rect x="1625.365" y="541.618" width="324.92" height="108.307" style="fill:#b3b1b1;" /><rect x="1950.285" y="541.618" width="541.534" height="108.307" style="fill:#161616;" /><rect x="2600.126" y="541.618" width="108.307" height="649.841" style="fill:#161616;" /><rect x="2708.433" y="541.618" width="108.307" height="108.307" style="fill:#b1b2b3;" /><rect x="2816.74" y="541.618" width="108.307" height="216.614" style="fill:#0a0a0a;" /><rect x="2925.046" y="541.618" width="216.614" height="108.307" style="fill:#4a4a4a;" /><rect x="217.377" y="649.925" width="108.307" height="216.614" style="fill:#4a4a4a;" /><rect x="325.684" y="649.925" width="216.614" height="108.307" style="fill:#0a0a0a;" /><rect x="542.297" y="649.925" width="216.614" height="108.307" style="fill:#161616;" /><rect x="758.911" y="649.925" width="108.307" height="1299.681" style="fill:#dbdbdb;" /><rect x="867.218" y="649.925" width="108.307" height="433.227" style="fill:#b2b8bd;" /><rect x="1625.365" y="649.925" width="108.307" height="433.227" style="fill:#b2b8bd;" /><rect x="1733.672" y="649.925" width="108.307" height="541.534" style="fill:#dbdbdb;" /><rect x="1841.979" y="649.925" width="324.92" height="108.307" style="fill:#b3b1b1;" /><rect x="2166.899" y="649.925" width="324.92" height="108.307" style="fill:#161616;" /><rect x="2708.433" y="649.925" width="108.307" height="433.227" style="fill:#161616;" /><rect x="2925.046" y="649.925" width="108.307" height="216.614" style="fill:#0a0a0a;" /><rect x="3033.353" y="649.925" width="216.614" height="108.307" style="fill:#4a4a4a;" /><rect x="109.07" y="758.231" width="108.307" height="1841.215" style="fill:#4a4a4a;" /><rect x="325.684" y="758.231" width="108.307" height="216.614" style="fill:#0a0a0a;" /><rect x="433.991" y="758.231" width="216.614" height="216.614" style="fill:#161616;" /><rect x="650.604" y="758.231" width="108.307" height="433.227" style="fill:#fff;" /><rect x="1841.979" y="758.231" width="216.614" height="324.92" style="fill:#dbdbdb;" /><rect x="2058.592" y="758.231" width="216.614" height="108.307" style="fill:#b3b1b1;" /><rect x="2275.206" y="758.231" width="216.614" height="216.614" style="fill:#161616;" /><rect x="2816.74" y="758.231" width="108.307" height="216.614" style="fill:#161616;" /><rect x="3033.353" y="758.231" width="108.307" height="324.92" style="fill:#0a0a0a;" /><rect x="3141.66" y="758.231" width="108.307" height="216.614" style="fill:#4a4a4a;" /><rect x="217.377" y="866.538" width="108.307" height="1624.602" style="fill:#0a0a0a;" /><rect x="2058.592" y="866.538" width="108.307" height="216.614" style="fill:#dbdbdb;" /><rect x="2166.899" y="866.538" width="108.307" height="216.614" style="fill:#b3b1b1;" /><rect x="2925.046" y="866.538" width="108.307" height="108.307" style="fill:#161616;" /><rect x="3249.967" y="866.538" width="108.307" height="1732.908" style="fill:#4a4a4a;" /><rect x="325.684" y="974.845" width="216.614" height="216.614" style="fill:#161616;" /><rect x="542.297" y="974.845" width="108.307" height="974.761" style="fill:#fff;" /><rect x="2275.206" y="974.845" width="108.307" height="324.92" style="fill:#b3b1b1;" /><rect x="2383.513" y="974.845" width="108.307" height="216.614" style="fill:#161616;" /><rect x="2816.74" y="974.845" width="216.614" height="108.307" style="fill:#e3f2ff;" /><rect x="3141.66" y="974.845" width="108.307" height="1516.295" style="fill:#0a0a0a;" /><rect x="867.218" y="1083.152" width="108.307" height="974.761" style="fill:#dbdbdb;" /><rect x="1625.365" y="1083.152" width="108.307" height="216.614" style="fill:#dbdbdb;" /><rect x="1841.979" y="1083.152" width="433.227" height="866.454" style="fill:#b2b8bd;" /><rect x="2708.433" y="1083.152" width="216.614" height="108.307" style="fill:#e3f2ff;" /><rect x="2925.046" y="1083.152" width="216.614" height="433.227" style="fill:#b7d5ef;" /><rect x="325.684" y="1191.458" width="108.307" height="974.761" style="fill:#161616;" /><rect x="433.991" y="1191.458" width="108.307" height="541.534" style="fill:#fff;" /><rect x="650.604" y="1191.458" width="108.307" height="541.534" style="fill:#dbdbdb;" /><rect x="975.524" y="1191.458" width="108.307" height="974.761" style="fill:#dbdbdb;" /><rect x="1517.058" y="1191.458" width="108.307" height="866.454" style="fill:#dbdbdb;" /><rect x="1733.672" y="1191.458" width="108.307" height="649.841" style="fill:#b2b8bd;" /><rect x="2383.513" y="1191.458" width="108.307" height="108.307" style="fill:#b3b1b1;" /><rect x="2600.126" y="1191.458" width="216.614" height="108.307" style="fill:#e3f2ff;" /><rect x="2816.74" y="1191.458" width="108.307" height="433.227" style="fill:#b7d5ef;" /><rect x="1083.831" y="1299.765" width="433.227" height="866.454" style="fill:#dbdbdb;" /><rect x="1625.365" y="1299.765" width="108.307" height="433.227" style="fill:#b2b8bd;" /><rect x="2275.206" y="1299.765" width="108.307" height="108.307" style="fill:#b2b8bd;" /><rect x="2383.513" y="1299.765" width="324.92" height="108.307" style="fill:#e3f2ff;" /><rect x="2708.433" y="1299.765" width="108.307" height="324.92" style="fill:#b7d5ef;" /><rect x="2275.206" y="1408.072" width="216.614" height="108.307" style="fill:#e3f2ff;" /><rect x="2491.819" y="1408.072" width="216.614" height="216.614" style="fill:#b7d5ef;" /><rect x="2275.206" y="1516.379" width="108.307" height="108.307" style="fill:#e3f2ff;" /><rect x="2383.513" y="1516.379" width="108.307" height="108.307" style="fill:#b7d5ef;" /><rect x="2925.046" y="1516.379" width="108.307" height="108.307" style="fill:#b7d5ef;" /><rect x="3033.353" y="1516.379" width="108.307" height="216.614" style="fill:#597893;" /><rect x="2275.206" y="1624.686" width="108.307" height="324.92" style="fill:#b3b1b1;" /><rect x="2383.513" y="1624.686" width="649.841" height="108.307" style="fill:#597893;" /><rect x="433.991" y="1732.992" width="108.307" height="866.454" style="fill:#161616;" /><rect x="650.604" y="1732.992" width="108.307" height="433.227" style="fill:#fff;" /><rect x="1625.365" y="1732.992" width="108.307" height="324.92" style="fill:#dbdbdb;" /><rect x="2383.513" y="1732.992" width="758.147" height="216.614" style="fill:#161616;" /><rect x="1733.672" y="1841.299" width="108.307" height="324.92" style="fill:#dbdbdb;" /><rect x="542.297" y="1949.606" width="108.307" height="758.147" style="fill:#161616;" /><rect x="758.911" y="1949.606" width="108.307" height="324.92" style="fill:#fff;" /><rect x="1841.979" y="1949.606" width="324.92" height="108.307" style="fill:#dbdbdb;" /><rect x="2166.899" y="1949.606" width="324.92" height="108.307" style="fill:#e3f2ff;" /><rect x="2491.819" y="1949.606" width="649.841" height="108.307" style="fill:#161616;" /><rect x="867.218" y="2057.913" width="108.307" height="216.614" style="fill:#fff;" /><rect x="1517.058" y="2057.913" width="216.614" height="324.92" style="fill:#b2b8bd;" /><rect x="1841.979" y="2057.913" width="216.614" height="108.307" style="fill:#dbdbdb;" /><rect x="2058.592" y="2057.913" width="216.614" height="108.307" style="fill:#e3f2ff;" /><rect x="2275.206" y="2057.913" width="324.92" height="433.227" style="fill:#b7d5ef;" /><rect x="2600.126" y="2057.913" width="541.534" height="108.307" style="fill:#161616;" /><rect x="325.684" y="2166.22" width="108.307" height="108.307" style="fill:#f7f7f7;" /><rect x="650.604" y="2166.22" width="108.307" height="649.841" style="fill:#161616;" /><rect x="975.524" y="2166.22" width="216.614" height="216.614" style="fill:#fff;" /><rect x="1192.138" y="2166.22" width="216.614" height="108.307" style="fill:#dbdbdb;" /><rect x="1408.752" y="2166.22" width="108.307" height="216.614" style="fill:#b2b8bd;" /><rect x="1733.672" y="2166.22" width="108.307" height="108.307" style="fill:#b2b8bd;" /><rect x="1841.979" y="2166.22" width="108.307" height="108.307" style="fill:#b3b1b1;" /><rect x="1950.285" y="2166.22" width="216.614" height="108.307" style="fill:#e3f2ff;" /><rect x="2166.899" y="2166.22" width="108.307" height="433.227" style="fill:#b7d5ef;" /><rect x="2600.126" y="2166.22" width="108.307" height="108.307" style="fill:#b7d5ef;" /><rect x="2708.433" y="2166.22" width="433.227" height="108.307" style="fill:#161616;" /><rect x="325.684" y="2274.526" width="108.307" height="108.307" style="fill:#161616;" /><rect x="758.911" y="2274.526" width="216.614" height="649.841" style="fill:#161616;" /><rect x="1192.138" y="2274.526" width="108.307" height="216.614" style="fill:#fff;" /><rect x="1300.445" y="2274.526" width="108.307" height="108.307" style="fill:#dbdbdb;" /><rect x="1733.672" y="2274.526" width="324.92" height="108.307" style="fill:#e3f2ff;" /><rect x="2058.592" y="2274.526" width="108.307" height="324.92" style="fill:#b7d5ef;" /><rect x="2600.126" y="2274.526" width="216.614" height="433.227" style="fill:#597893;" /><rect x="2816.74" y="2274.526" width="324.92" height="108.307" style="fill:#161616;" /><rect x="325.684" y="2382.833" width="108.307" height="324.92" style="fill:#0a0a0a;" /><rect x="975.524" y="2382.833" width="216.614" height="649.841" style="fill:#161616;" /><rect x="1300.445" y="2382.833" width="216.614" height="108.307" style="fill:#fff;" /><rect x="1517.058" y="2382.833" width="108.307" height="108.307" style="fill:#b3b1b1;" /><rect x="1625.365" y="2382.833" width="216.614" height="108.307" style="fill:#e3f2ff;" /><rect x="1841.979" y="2382.833" width="216.614" height="216.614" style="fill:#b7d5ef;" /><rect x="2816.74" y="2382.833" width="108.307" height="216.614" style="fill:#597893;" /><rect x="2925.046" y="2382.833" width="108.307" height="216.614" style="fill:#161616;" /><rect x="3033.353" y="2382.833" width="108.307" height="324.92" style="fill:#0a0a0a;" /><rect x="217.377" y="2491.14" width="108.307" height="324.92" style="fill:#4a4a4a;" /><rect x="1192.138" y="2491.14" width="433.227" height="433.227" style="fill:#161616;" /><rect x="1625.365" y="2491.14" width="108.307" height="108.307" style="fill:#e3f2ff;" /><rect x="1733.672" y="2491.14" width="108.307" height="108.307" style="fill:#b7d5ef;" /><rect x="2275.206" y="2491.14" width="108.307" height="108.307" style="fill:#b7d5ef;" /><rect x="2383.513" y="2491.14" width="216.614" height="216.614" style="fill:#597893;" /><rect x="3141.66" y="2491.14" width="108.307" height="324.92" style="fill:#4a4a4a;" /><rect x="433.991" y="2599.447" width="108.307" height="216.614" style="fill:#0a0a0a;" /><rect x="1625.365" y="2599.447" width="108.307" height="541.534" style="fill:#161616;" /><rect x="1733.672" y="2599.447" width="649.841" height="108.307" style="fill:#597893;" /><rect x="2816.74" y="2599.447" width="108.307" height="108.307" style="fill:#161616;" /><rect x="2925.046" y="2599.447" width="108.307" height="216.614" style="fill:#0a0a0a;" /><rect x="325.684" y="2707.753" width="108.307" height="216.614" style="fill:#4a4a4a;" /><rect x="542.297" y="2707.753" width="108.307" height="216.614" style="fill:#0a0a0a;" /><rect x="1733.672" y="2707.753" width="1083.068" height="108.307" style="fill:#161616;" /><rect x="2816.74" y="2707.753" width="108.307" height="216.614" style="fill:#0a0a0a;" /><rect x="3033.353" y="2707.753" width="108.307" height="216.614" style="fill:#4a4a4a;" /><rect x="433.991" y="2816.06" width="108.307" height="216.614" style="fill:#4a4a4a;" /><rect x="650.604" y="2816.06" width="108.307" height="216.614" style="fill:#0a0a0a;" /><rect x="1733.672" y="2816.06" width="541.534" height="324.92" style="fill:#161616;" /><rect x="2275.206" y="2816.06" width="108.307" height="108.307" style="fill:#707374;" /><rect x="2383.513" y="2816.06" width="324.92" height="108.307" style="fill:#161616;" /><rect x="2708.433" y="2816.06" width="108.307" height="216.614" style="fill:#0a0a0a;" /><rect x="2925.046" y="2816.06" width="108.307" height="216.614" style="fill:#4a4a4a;" /><rect x="542.297" y="2924.367" width="108.307" height="216.614" style="fill:#4a4a4a;" /><rect x="758.911" y="2924.367" width="108.307" height="216.614" style="fill:#0a0a0a;" /><rect x="867.218" y="2924.367" width="108.307" height="108.307" style="fill:#161616;" /><rect x="1192.138" y="2924.367" width="108.307" height="216.614" style="fill:#161616;" /><rect x="1300.445" y="2924.367" width="108.307" height="108.307" style="fill:#b1b2b3;" /><rect x="1408.752" y="2924.367" width="216.614" height="216.614" style="fill:#161616;" /><rect x="2275.206" y="2924.367" width="324.92" height="108.307" style="fill:#161616;" /><rect x="2600.126" y="2924.367" width="108.307" height="216.614" style="fill:#0a0a0a;" /><rect x="2816.74" y="2924.367" width="108.307" height="216.614" style="fill:#4a4a4a;" /><rect x="650.604" y="3032.674" width="108.307" height="216.614" style="fill:#4a4a4a;" /><rect x="867.218" y="3032.674" width="216.614" height="108.307" style="fill:#0a0a0a;" /><rect x="1083.831" y="3032.674" width="108.307" height="108.307" style="fill:#161616;" /><rect x="1300.445" y="3032.674" width="108.307" height="108.307" style="fill:#161616;" /><rect x="2275.206" y="3032.674" width="108.307" height="108.307" style="fill:#161616;" /><rect x="2383.513" y="3032.674" width="216.614" height="108.307" style="fill:#0a0a0a;" /><rect x="2708.433" y="3032.674" width="108.307" height="216.614" style="fill:#4a4a4a;" /><rect x="758.911" y="3140.981" width="216.614" height="108.307" style="fill:#4a4a4a;" /><rect x="975.524" y="3140.981" width="1516.295" height="108.307" style="fill:#0a0a0a;" /><rect x="2491.819" y="3140.981" width="216.614" height="108.307" style="fill:#4a4a4a;" /><rect x="867.218" y="3249.287" width="1732.908" height="108.307" style="fill:#4a4a4a;" /></svg>