<?xml version="1.0" encoding="UTF-8" ?>
<svg viewBox="0 0 32 32" version="1.1" width="512" height="512" xmlns="http://www.w3.org/2000/svg" shape-rendering="crispEdges">
<rect x="7" y="1" width="4" height="1" fill="#4D4D8D" />
<rect x="11" y="1" width="10" height="1" fill="#8989FF" />
<rect x="21" y="1" width="4" height="1" fill="#4D4D8D" />
<rect x="5" y="2" width="3" height="1" fill="#252555" />
<rect x="8" y="2" width="16" height="1" fill="#020202" />
<rect x="24" y="2" width="3" height="1" fill="#252555" />
<rect x="4" y="3" width="2" height="1" fill="#252555" />
<rect x="6" y="3" width="3" height="1" fill="#020202" />
<rect x="9" y="3" width="14" height="2" fill="#141419" />
<rect x="23" y="3" width="3" height="1" fill="#020202" />
<rect x="26" y="3" width="2" height="1" fill="#252555" />
<rect x="3" y="4" width="2" height="1" fill="#252555" />
<rect x="5" y="4" width="2" height="1" fill="#020202" />
<rect x="7" y="4" width="2" height="1" fill="#141419" />
<rect x="23" y="4" width="2" height="1" fill="#141419" />
<rect x="25" y="4" width="2" height="1" fill="#020202" />
<rect x="27" y="4" width="2" height="1" fill="#252555" />
<rect x="2" y="5" width="2" height="1" fill="#252555" />
<rect x="4" y="5" width="2" height="1" fill="#020202" />
<rect x="6" y="5" width="20" height="2" fill="#0D0D0F" />
<rect x="26" y="5" width="2" height="1" fill="#020202" />
<rect x="28" y="5" width="2" height="1" fill="#252555" />
<rect x="2" y="6" width="1" height="2" fill="#252555" />
<rect x="3" y="6" width="2" height="1" fill="#020202" />
<rect x="5" y="6" width="1" height="1" fill="#0D0D0F" />
<rect x="26" y="6" width="1" height="1" fill="#0D0D0F" />
<rect x="27" y="6" width="2" height="1" fill="#020202" />
<rect x="29" y="6" width="1" height="2" fill="#252555" />
<rect x="1" y="7" width="1" height="3" fill="#4D4D8D" />
<rect x="3" y="7" width="1" height="2" fill="#020202" />
<rect x="4" y="7" width="24" height="2" fill="#141419" />
<rect x="28" y="7" width="1" height="2" fill="#020202" />
<rect x="30" y="7" width="1" height="3" fill="#4D4D8D" />
<rect x="2" y="8" width="1" height="16" fill="#020202" />
<rect x="29" y="8" width="1" height="16" fill="#020202" />
<rect x="3" y="9" width="4" height="2" fill="#0D0D0F" />
<rect x="7" y="9" width="2" height="2" fill="#C0C0F1" />
<rect x="9" y="9" width="14" height="2" fill="#0D0D0F" />
<rect x="23" y="9" width="2" height="2" fill="#6B6BF5" />
<rect x="25" y="9" width="4" height="2" fill="#0D0D0F" />
<rect x="1" y="10" width="1" height="12" fill="#8989FF" />
<rect x="30" y="10" width="1" height="12" fill="#8989FF" />
<rect x="3" y="11" width="4" height="2" fill="#141419" />
<rect x="7" y="11" width="2" height="1" fill="#09090C" />
<rect x="9" y="11" width="2" height="2" fill="#D6D6FF" />
<rect x="11" y="11" width="10" height="2" fill="#141419" />
<rect x="21" y="11" width="2" height="2" fill="#6B6BF5" />
<rect x="23" y="11" width="2" height="1" fill="#09090C" />
<rect x="25" y="11" width="4" height="2" fill="#141419" />
<rect x="7" y="12" width="2" height="1" fill="#141419" />
<rect x="23" y="12" width="2" height="1" fill="#141419" />
<rect x="3" y="13" width="6" height="2" fill="#0D0D0F" />
<rect x="9" y="13" width="2" height="1" fill="#09090C" />
<rect x="11" y="13" width="2" height="2" fill="#D6D6FF" />
<rect x="13" y="13" width="6" height="2" fill="#0D0D0F" />
<rect x="19" y="13" width="2" height="2" fill="#6B6BF5" />
<rect x="21" y="13" width="2" height="1" fill="#09090C" />
<rect x="23" y="13" width="6" height="2" fill="#0D0D0F" />
<rect x="9" y="14" width="2" height="1" fill="#0D0D0F" />
<rect x="21" y="14" width="2" height="1" fill="#0D0D0F" />
<rect x="3" y="15" width="6" height="2" fill="#141419" />
<rect x="9" y="15" width="2" height="2" fill="#D6D6FF" />
<rect x="11" y="15" width="2" height="1" fill="#09090C" />
<rect x="13" y="15" width="6" height="2" fill="#141419" />
<rect x="19" y="15" width="2" height="1" fill="#09090C" />
<rect x="21" y="15" width="2" height="2" fill="#6B6BF5" />
<rect x="23" y="15" width="6" height="2" fill="#141419" />
<rect x="11" y="16" width="2" height="1" fill="#141419" />
<rect x="19" y="16" width="2" height="1" fill="#141419" />
<rect x="3" y="17" width="4" height="2" fill="#0D0D0F" />
<rect x="7" y="17" width="2" height="2" fill="#D6D6FF" />
<rect x="9" y="17" width="2" height="1" fill="#09090C" />
<rect x="11" y="17" width="10" height="2" fill="#0D0D0F" />
<rect x="21" y="17" width="2" height="1" fill="#09090C" />
<rect x="23" y="17" width="2" height="2" fill="#6B6BF5" />
<rect x="25" y="17" width="4" height="2" fill="#0D0D0F" />
<rect x="9" y="18" width="2" height="1" fill="#0D0D0F" />
<rect x="21" y="18" width="2" height="1" fill="#0D0D0F" />
<rect x="3" y="19" width="4" height="2" fill="#141419" />
<rect x="7" y="19" width="2" height="1" fill="#09090C" />
<rect x="9" y="19" width="4" height="2" fill="#141419" />
<rect x="13" y="19" width="6" height="2" fill="#C0C0F1" />
<rect x="19" y="19" width="1" height="3" fill="#09090C" />
<rect x="20" y="19" width="3" height="2" fill="#141419" />
<rect x="23" y="19" width="2" height="1" fill="#09090C" />
<rect x="25" y="19" width="4" height="2" fill="#141419" />
<rect x="7" y="20" width="2" height="1" fill="#141419" />
<rect x="23" y="20" width="2" height="1" fill="#141419" />
<rect x="3" y="21" width="10" height="2" fill="#0D0D0F" />
<rect x="13" y="21" width="6" height="1" fill="#09090C" />
<rect x="20" y="21" width="9" height="2" fill="#0D0D0F" />
<rect x="1" y="22" width="1" height="3" fill="#4D4D8D" />
<rect x="13" y="22" width="7" height="1" fill="#0D0D0F" />
<rect x="30" y="22" width="1" height="3" fill="#4D4D8D" />
<rect x="3" y="23" width="1" height="3" fill="#020202" />
<rect x="4" y="23" width="24" height="2" fill="#141419" />
<rect x="28" y="23" width="1" height="3" fill="#020202" />
<rect x="2" y="24" width="1" height="3" fill="#252555" />
<rect x="29" y="24" width="1" height="3" fill="#252555" />
<rect x="4" y="25" width="1" height="2" fill="#020202" />
<rect x="5" y="25" width="22" height="1" fill="#0D0D0F" />
<rect x="27" y="25" width="1" height="2" fill="#020202" />
<rect x="3" y="26" width="1" height="2" fill="#252555" />
<rect x="5" y="26" width="1" height="2" fill="#020202" />
<rect x="6" y="26" width="20" height="1" fill="#0D0D0F" />
<rect x="26" y="26" width="1" height="2" fill="#020202" />
<rect x="28" y="26" width="1" height="2" fill="#252555" />
<rect x="4" y="27" width="1" height="2" fill="#252555" />
<rect x="6" y="27" width="1" height="2" fill="#020202" />
<rect x="7" y="27" width="18" height="1" fill="#141419" />
<rect x="25" y="27" width="1" height="2" fill="#020202" />
<rect x="27" y="27" width="1" height="2" fill="#252555" />
<rect x="5" y="28" width="1" height="2" fill="#252555" />
<rect x="7" y="28" width="2" height="1" fill="#020202" />
<rect x="9" y="28" width="14" height="1" fill="#141419" />
<rect x="23" y="28" width="2" height="1" fill="#020202" />
<rect x="26" y="28" width="1" height="2" fill="#252555" />
<rect x="6" y="29" width="2" height="1" fill="#252555" />
<rect x="8" y="29" width="16" height="1" fill="#020202" />
<rect x="24" y="29" width="2" height="1" fill="#252555" />
<rect x="7" y="30" width="3" height="1" fill="#4D4D8D" />
<rect x="10" y="30" width="12" height="1" fill="#8989FF" />
<rect x="22" y="30" width="3" height="1" fill="#4D4D8D" />
</svg>