<?xml version='1.0' encoding='utf-8'?>
<svg xmlns="http://www.w3.org/2000/svg" viewBox="0 0 3358.138 3358.0589999999997" width="512" height="512" version="1.1" xml:space="preserve" style="fill-rule:evenodd;clip-rule:evenodd;stroke-linejoin:round;stroke-miterlimit:2;"><rect x="867.082" y="108.856" width="1732.908" height="216.614" style="fill:#011522;" /><rect x="650.468" y="217.162" width="216.614" height="324.92" style="fill:#011522;" /><rect x="2599.99" y="217.162" width="216.614" height="324.92" style="fill:#011522;" /><rect x="433.855" y="325.469" width="216.614" height="324.92" style="fill:#011522;" /><rect x="867.082" y="325.469" width="649.841" height="108.307" style="fill:#011522;" /><rect x="1516.922" y="325.469" width="541.534" height="108.307" style="fill:#4ab3ff;" /><rect x="2058.456" y="325.469" width="541.534" height="108.307" style="fill:#011522;" /><rect x="2816.604" y="325.469" width="216.614" height="324.92" style="fill:#011522;" /><rect x="325.548" y="433.776" width="108.307" height="433.227" style="fill:#011522;" /><rect x="867.082" y="433.776" width="216.614" height="108.307" style="fill:#011522;" /><rect x="1083.695" y="433.776" width="541.534" height="108.307" style="fill:#4ab3ff;" /><rect x="1625.229" y="433.776" width="324.92" height="1299.681" style="fill:#39a2ef;" /><rect x="1950.15" y="433.776" width="433.227" height="108.307" style="fill:#4ab3ff;" /><rect x="2383.377" y="433.776" width="216.614" height="108.307" style="fill:#011522;" /><rect x="3033.217" y="433.776" width="108.307" height="433.227" style="fill:#011522;" /><rect x="217.241" y="542.083" width="108.307" height="2274.442" style="fill:#011522;" /><rect x="650.468" y="542.083" width="108.307" height="108.307" style="fill:#011522;" /><rect x="758.775" y="542.083" width="433.227" height="108.307" style="fill:#4ab3ff;" /><rect x="1192.002" y="542.083" width="433.227" height="758.147" style="fill:#39a2ef;" /><rect x="1950.15" y="542.083" width="324.92" height="758.147" style="fill:#39a2ef;" /><rect x="2275.07" y="542.083" width="433.227" height="108.307" style="fill:#4ab3ff;" /><rect x="2708.297" y="542.083" width="108.307" height="108.307" style="fill:#011522;" /><rect x="3141.524" y="542.083" width="108.307" height="2274.442" style="fill:#011522;" /><rect x="433.855" y="650.389" width="108.307" height="108.307" style="fill:#011522;" /><rect x="542.161" y="650.389" width="324.92" height="108.307" style="fill:#4ab3ff;" /><rect x="867.082" y="650.389" width="324.92" height="433.227" style="fill:#39a2ef;" /><rect x="2275.07" y="650.389" width="324.92" height="433.227" style="fill:#39a2ef;" /><rect x="2599.99" y="650.389" width="324.92" height="108.307" style="fill:#4ab3ff;" /><rect x="2924.911" y="650.389" width="108.307" height="108.307" style="fill:#011522;" /><rect x="108.934" y="758.696" width="108.307" height="1841.215" style="fill:#011522;" /><rect x="433.855" y="758.696" width="216.614" height="108.307" style="fill:#4ab3ff;" /><rect x="650.468" y="758.696" width="216.614" height="324.92" style="fill:#39a2ef;" /><rect x="2599.99" y="758.696" width="216.614" height="324.92" style="fill:#39a2ef;" /><rect x="2816.604" y="758.696" width="216.614" height="108.307" style="fill:#4ab3ff;" /><rect x="3249.831" y="758.696" width="108.307" height="1841.215" style="fill:#011522;" /><rect x="325.548" y="867.003" width="216.614" height="108.307" style="fill:#4ab3ff;" /><rect x="542.161" y="867.003" width="108.307" height="433.227" style="fill:#39a2ef;" /><rect x="2816.604" y="867.003" width="108.307" height="433.227" style="fill:#39a2ef;" /><rect x="2924.911" y="867.003" width="216.614" height="108.307" style="fill:#4ab3ff;" /><rect x="325.548" y="975.31" width="108.307" height="1299.681" style="fill:#4ab3ff;" /><rect x="433.855" y="975.31" width="108.307" height="1299.681" style="fill:#39a2ef;" /><rect x="2924.911" y="975.31" width="108.307" height="1299.681" style="fill:#39a2ef;" /><rect x="3033.217" y="975.31" width="108.307" height="1299.681" style="fill:#4ab3ff;" /><rect x="650.468" y="1083.617" width="108.307" height="108.307" style="fill:#39a2ef;" /><rect x="758.775" y="1083.617" width="324.92" height="108.307" style="fill:#fff;" /><rect x="1083.695" y="1083.617" width="108.307" height="108.307" style="fill:#39a2ef;" /><rect x="2275.07" y="1083.617" width="108.307" height="108.307" style="fill:#39a2ef;" /><rect x="2383.377" y="1083.617" width="324.92" height="108.307" style="fill:#fff;" /><rect x="2708.297" y="1083.617" width="108.307" height="108.307" style="fill:#39a2ef;" /><rect x="650.468" y="1191.923" width="108.307" height="108.307" style="fill:#fff;" /><rect x="758.775" y="1191.923" width="324.92" height="108.307" style="fill:#0a0a0a;" /><rect x="1083.695" y="1191.923" width="108.307" height="108.307" style="fill:#fff;" /><rect x="2275.07" y="1191.923" width="108.307" height="108.307" style="fill:#fff;" /><rect x="2383.377" y="1191.923" width="324.92" height="108.307" style="fill:#0a0a0a;" /><rect x="2708.297" y="1191.923" width="108.307" height="108.307" style="fill:#fff;" /><rect x="542.161" y="1300.23" width="108.307" height="324.92" style="fill:#fff;" /><rect x="650.468" y="1300.23" width="108.307" height="324.92" style="fill:#0a0a0a;" /><rect x="758.775" y="1300.23" width="108.307" height="108.307" style="fill:#7a7a7a;" /><rect x="867.082" y="1300.23" width="324.92" height="324.92" style="fill:#0a0a0a;" /><rect x="1192.002" y="1300.23" width="108.307" height="324.92" style="fill:#fff;" /><rect x="1300.309" y="1300.23" width="324.92" height="974.761" style="fill:#39a2ef;" /><rect x="1950.15" y="1300.23" width="216.614" height="974.761" style="fill:#39a2ef;" /><rect x="2166.763" y="1300.23" width="108.307" height="324.92" style="fill:#fff;" /><rect x="2275.07" y="1300.23" width="108.307" height="324.92" style="fill:#0a0a0a;" /><rect x="2383.377" y="1300.23" width="108.307" height="108.307" style="fill:#7a7a7a;" /><rect x="2491.684" y="1300.23" width="324.92" height="324.92" style="fill:#0a0a0a;" /><rect x="2816.604" y="1300.23" width="108.307" height="324.92" style="fill:#fff;" /><rect x="758.775" y="1408.537" width="108.307" height="324.92" style="fill:#0a0a0a;" /><rect x="2383.377" y="1408.537" width="108.307" height="324.92" style="fill:#0a0a0a;" /><rect x="542.161" y="1625.15" width="108.307" height="649.841" style="fill:#39a2ef;" /><rect x="650.468" y="1625.15" width="108.307" height="108.307" style="fill:#fff;" /><rect x="867.082" y="1625.15" width="216.614" height="108.307" style="fill:#0a0a0a;" /><rect x="1083.695" y="1625.15" width="108.307" height="108.307" style="fill:#fff;" /><rect x="1192.002" y="1625.15" width="108.307" height="758.147" style="fill:#39a2ef;" /><rect x="2166.763" y="1625.15" width="108.307" height="758.147" style="fill:#39a2ef;" /><rect x="2275.07" y="1625.15" width="108.307" height="108.307" style="fill:#fff;" /><rect x="2491.684" y="1625.15" width="216.614" height="108.307" style="fill:#0a0a0a;" /><rect x="2708.297" y="1625.15" width="108.307" height="108.307" style="fill:#fff;" /><rect x="2816.604" y="1625.15" width="108.307" height="649.841" style="fill:#39a2ef;" /><rect x="650.468" y="1733.457" width="108.307" height="541.534" style="fill:#39a2ef;" /><rect x="758.775" y="1733.457" width="324.92" height="108.307" style="fill:#fff;" /><rect x="1083.695" y="1733.457" width="108.307" height="649.841" style="fill:#39a2ef;" /><rect x="1625.229" y="1733.457" width="216.614" height="108.307" style="fill:#97d3ff;" /><rect x="1841.843" y="1733.457" width="108.307" height="541.534" style="fill:#39a2ef;" /><rect x="2275.07" y="1733.457" width="108.307" height="649.841" style="fill:#39a2ef;" /><rect x="2383.377" y="1733.457" width="324.92" height="108.307" style="fill:#fff;" /><rect x="2708.297" y="1733.457" width="108.307" height="541.534" style="fill:#39a2ef;" /><rect x="758.775" y="1841.764" width="324.92" height="433.227" style="fill:#39a2ef;" /><rect x="1625.229" y="1841.764" width="216.614" height="108.307" style="fill:#71c3ff;" /><rect x="2383.377" y="1841.764" width="324.92" height="433.227" style="fill:#39a2ef;" /><rect x="1625.229" y="1950.071" width="216.614" height="324.92" style="fill:#39a2ef;" /><rect x="325.548" y="2274.991" width="108.307" height="216.614" style="fill:#00080e;" /><rect x="433.855" y="2274.991" width="541.534" height="108.307" style="fill:#1d89d9;" /><rect x="975.389" y="2274.991" width="108.307" height="108.307" style="fill:#39a2ef;" /><rect x="1300.309" y="2274.991" width="216.614" height="108.307" style="fill:#39a2ef;" /><rect x="1516.922" y="2274.991" width="541.534" height="108.307" style="fill:#1d89d9;" /><rect x="2058.456" y="2274.991" width="108.307" height="108.307" style="fill:#39a2ef;" /><rect x="2383.377" y="2274.991" width="216.614" height="108.307" style="fill:#39a2ef;" /><rect x="2599.99" y="2274.991" width="433.227" height="108.307" style="fill:#1d89d9;" /><rect x="3033.217" y="2274.991" width="108.307" height="216.614" style="fill:#00080e;" /><rect x="433.855" y="2383.298" width="108.307" height="324.92" style="fill:#00080e;" /><rect x="542.161" y="2383.298" width="324.92" height="216.614" style="fill:#39a2ef;" /><rect x="867.082" y="2383.298" width="758.147" height="108.307" style="fill:#0c70bb;" /><rect x="1625.229" y="2383.298" width="324.92" height="433.227" style="fill:#39a2ef;" /><rect x="1950.15" y="2383.298" width="758.147" height="108.307" style="fill:#0c70bb;" /><rect x="2708.297" y="2383.298" width="216.614" height="216.614" style="fill:#39a2ef;" /><rect x="2924.911" y="2383.298" width="108.307" height="324.92" style="fill:#00080e;" /><rect x="325.548" y="2491.605" width="108.307" height="433.227" style="fill:#011522;" /><rect x="867.082" y="2491.605" width="758.147" height="324.92" style="fill:#39a2ef;" /><rect x="1950.15" y="2491.605" width="758.147" height="324.92" style="fill:#39a2ef;" /><rect x="3033.217" y="2491.605" width="108.307" height="433.227" style="fill:#011522;" /><rect x="542.161" y="2599.911" width="108.307" height="216.614" style="fill:#00080e;" /><rect x="650.468" y="2599.911" width="216.614" height="108.307" style="fill:#39a2ef;" /><rect x="2708.297" y="2599.911" width="108.307" height="108.307" style="fill:#39a2ef;" /><rect x="2816.604" y="2599.911" width="108.307" height="216.614" style="fill:#00080e;" /><rect x="433.855" y="2708.218" width="108.307" height="433.227" style="fill:#011522;" /><rect x="650.468" y="2708.218" width="108.307" height="216.614" style="fill:#00080e;" /><rect x="758.775" y="2708.218" width="108.307" height="108.307" style="fill:#39a2ef;" /><rect x="2708.297" y="2708.218" width="108.307" height="216.614" style="fill:#00080e;" /><rect x="2924.911" y="2708.218" width="108.307" height="324.92" style="fill:#011522;" /><rect x="542.161" y="2816.525" width="108.307" height="324.92" style="fill:#011522;" /><rect x="758.775" y="2816.525" width="1949.522" height="108.307" style="fill:#00080e;" /><rect x="2816.604" y="2816.525" width="108.307" height="324.92" style="fill:#011522;" /><rect x="650.468" y="2924.832" width="2166.136" height="324.92" style="fill:#011522;" /><rect x="867.082" y="3249.752" width="1732.908" height="108.307" style="fill:#011522;" /></svg>