<?xml version="1.0" encoding="UTF-8" ?>
<svg viewBox="0 0 32 32" version="1.1" width="512" height="512" xmlns="http://www.w3.org/2000/svg" shape-rendering="crispEdges">
<rect x="7" y="1" width="1" height="1" fill="#5689F5" />
<rect x="8" y="1" width="1" height="1" fill="#5889F4" />
<rect x="9" y="1" width="1" height="1" fill="#598BF3" />
<rect x="10" y="1" width="1" height="1" fill="#5A8CF3" />
<rect x="11" y="1" width="1" height="1" fill="#5A8EF2" />
<rect x="12" y="1" width="1" height="1" fill="#5B8FF2" />
<rect x="13" y="1" width="1" height="1" fill="#5D90F1" />
<rect x="14" y="1" width="1" height="1" fill="#5E91F0" />
<rect x="15" y="1" width="1" height="1" fill="#5F93EF" />
<rect x="16" y="1" width="1" height="1" fill="#4582EC" />
<rect x="17" y="1" width="1" height="1" fill="#4684EC" />
<rect x="18" y="1" width="1" height="1" fill="#4885EB" />
<rect x="19" y="1" width="1" height="1" fill="#4986EA" />
<rect x="20" y="1" width="1" height="1" fill="#4A88E9" />
<rect x="21" y="1" width="1" height="1" fill="#4B89E8" />
<rect x="22" y="1" width="1" height="1" fill="#4C8BE8" />
<rect x="23" y="1" width="1" height="1" fill="#4E8CE7" />
<rect x="24" y="1" width="1" height="1" fill="#4F8EE6" />
<rect x="5" y="2" width="1" height="1" fill="#5484F7" />
<rect x="6" y="2" width="1" height="1" fill="#5486F7" />
<rect x="7" y="2" width="1" height="1" fill="#5587F6" />
<rect x="8" y="2" width="16" height="1" fill="#000515" />
<rect x="24" y="2" width="1" height="1" fill="#4D8CE7" />
<rect x="25" y="2" width="1" height="1" fill="#4F8DE6" />
<rect x="26" y="2" width="1" height="1" fill="#508FE6" />
<rect x="4" y="3" width="1" height="1" fill="#5182F9" />
<rect x="5" y="3" width="1" height="1" fill="#5283F8" />
<rect x="6" y="3" width="3" height="1" fill="#000515" />
<rect x="9" y="3" width="14" height="2" fill="#3C77F3" />
<rect x="23" y="3" width="3" height="1" fill="#000515" />
<rect x="26" y="3" width="1" height="1" fill="#4E8DE6" />
<rect x="27" y="3" width="1" height="1" fill="#508FE6" />
<rect x="3" y="4" width="1" height="1" fill="#4E7FFA" />
<rect x="4" y="4" width="1" height="1" fill="#4F80F9" />
<rect x="5" y="4" width="2" height="1" fill="#000515" />
<rect x="7" y="4" width="2" height="3" fill="#3C77F3" />
<rect x="23" y="4" width="2" height="3" fill="#3C77F3" />
<rect x="25" y="4" width="2" height="1" fill="#000515" />
<rect x="27" y="4" width="1" height="1" fill="#4E8DE7" />
<rect x="28" y="4" width="1" height="1" fill="#4F8EE6" />
<rect x="2" y="5" width="2" height="1" fill="#4978FF" />
<rect x="4" y="5" width="2" height="1" fill="#000515" />
<rect x="6" y="5" width="1" height="2" fill="#3C77F3" />
<rect x="9" y="5" width="5" height="1" fill="#3C77F3" />
<rect x="14" y="5" width="1" height="3" fill="#FFFFFF" />
<rect x="15" y="5" width="8" height="1" fill="#3C77F3" />
<rect x="25" y="5" width="1" height="2" fill="#3C77F3" />
<rect x="26" y="5" width="2" height="1" fill="#000515" />
<rect x="28" y="5" width="2" height="1" fill="#2B62FF" />
<rect x="2" y="6" width="1" height="2" fill="#4978FF" />
<rect x="3" y="6" width="2" height="1" fill="#000515" />
<rect x="5" y="6" width="1" height="1" fill="#3C77F3" />
<rect x="9" y="6" width="4" height="1" fill="#3C77F3" />
<rect x="13" y="6" width="1" height="1" fill="#FFFFFF" />
<rect x="15" y="6" width="1" height="1" fill="#FFFFFF" />
<rect x="16" y="6" width="7" height="1" fill="#3C77F3" />
<rect x="26" y="6" width="1" height="1" fill="#3C77F3" />
<rect x="27" y="6" width="2" height="1" fill="#000515" />
<rect x="29" y="6" width="1" height="2" fill="#2B62FF" />
<rect x="1" y="7" width="1" height="2" fill="#4978FF" />
<rect x="3" y="7" width="1" height="2" fill="#000515" />
<rect x="4" y="7" width="10" height="1" fill="#3974ED" />
<rect x="15" y="7" width="13" height="1" fill="#3974ED" />
<rect x="28" y="7" width="1" height="2" fill="#000515" />
<rect x="30" y="7" width="1" height="2" fill="#2B62FF" />
<rect x="2" y="8" width="1" height="16" fill="#000515" />
<rect x="4" y="8" width="16" height="1" fill="#3671E7" />
<rect x="20" y="8" width="3" height="1" fill="#FFFFFF" />
<rect x="23" y="8" width="5" height="1" fill="#3671E7" />
<rect x="29" y="8" width="1" height="16" fill="#000515" />
<rect x="1" y="9" width="1" height="9" fill="#6889E8" />
<rect x="3" y="9" width="4" height="1" fill="#336EE2" />
<rect x="7" y="9" width="3" height="1" fill="#FFFFFF" />
<rect x="10" y="9" width="10" height="1" fill="#336EE2" />
<rect x="20" y="9" width="1" height="1" fill="#FFFFFF" />
<rect x="21" y="9" width="3" height="2" fill="#EBF6FF" />
<rect x="24" y="9" width="5" height="1" fill="#336EE2" />
<rect x="30" y="9" width="1" height="9" fill="#4F76E5" />
<rect x="3" y="10" width="3" height="1" fill="#316BDC" />
<rect x="6" y="10" width="1" height="3" fill="#FFFFFF" />
<rect x="7" y="10" width="3" height="4" fill="#EBF6FF" />
<rect x="10" y="10" width="1" height="2" fill="#FFFFFF" />
<rect x="11" y="10" width="10" height="1" fill="#316BDC" />
<rect x="24" y="10" width="1" height="7" fill="#EBF6FF" />
<rect x="25" y="10" width="4" height="1" fill="#316BDC" />
<rect x="3" y="11" width="3" height="1" fill="#2E68D6" />
<rect x="11" y="11" width="11" height="1" fill="#2E68D6" />
<rect x="22" y="11" width="2" height="1" fill="#EBF6FF" />
<rect x="25" y="11" width="1" height="5" fill="#EBF6FF" />
<rect x="26" y="11" width="3" height="1" fill="#2E68D6" />
<rect x="3" y="12" width="3" height="1" fill="#2B66D1" />
<rect x="10" y="12" width="1" height="1" fill="#EBF6FF" />
<rect x="11" y="12" width="12" height="1" fill="#2B66D1" />
<rect x="23" y="12" width="1" height="1" fill="#EBF6FF" />
<rect x="26" y="12" width="1" height="3" fill="#EBF6FF" />
<rect x="27" y="12" width="2" height="1" fill="#2B66D1" />
<rect x="3" y="13" width="4" height="1" fill="#2963CB" />
<rect x="10" y="13" width="14" height="1" fill="#2963CB" />
<rect x="27" y="13" width="2" height="1" fill="#2963CB" />
<rect x="3" y="14" width="20" height="1" fill="#2660C6" />
<rect x="23" y="14" width="1" height="4" fill="#EBF6FF" />
<rect x="27" y="14" width="2" height="1" fill="#2660C6" />
<rect x="3" y="15" width="19" height="1" fill="#235DC0" />
<rect x="22" y="15" width="1" height="4" fill="#EBF6FF" />
<rect x="26" y="15" width="3" height="1" fill="#235DC0" />
<rect x="3" y="16" width="18" height="1" fill="#215ABA" />
<rect x="21" y="16" width="1" height="3" fill="#EBF6FF" />
<rect x="25" y="16" width="4" height="1" fill="#215ABA" />
<rect x="3" y="17" width="17" height="1" fill="#1E58B5" />
<rect x="20" y="17" width="1" height="2" fill="#EBF6FF" />
<rect x="24" y="17" width="5" height="1" fill="#1E58B5" />
<rect x="1" y="18" width="1" height="2" fill="#114A99" />
<rect x="3" y="18" width="7" height="1" fill="#1B55AF" />
<rect x="10" y="18" width="4" height="1" fill="#FFFFFF" />
<rect x="14" y="18" width="6" height="1" fill="#1B55AF" />
<rect x="23" y="18" width="6" height="1" fill="#1B55AF" />
<rect x="30" y="18" width="1" height="1" fill="#114399" />
<rect x="3" y="19" width="6" height="1" fill="#1952A9" />
<rect x="9" y="19" width="2" height="1" fill="#FFFFFF" />
<rect x="11" y="19" width="4" height="6" fill="#EBF6FF" />
<rect x="15" y="19" width="14" height="1" fill="#1952A9" />
<rect x="30" y="19" width="1" height="1" fill="#114099" />
<rect x="1" y="20" width="1" height="1" fill="#114499" />
<rect x="3" y="20" width="5" height="1" fill="#164FA4" />
<rect x="8" y="20" width="2" height="1" fill="#FFFFFF" />
<rect x="10" y="20" width="1" height="6" fill="#EBF6FF" />
<rect x="15" y="20" width="1" height="4" fill="#EBF6FF" />
<rect x="16" y="20" width="13" height="1" fill="#164FA4" />
<rect x="30" y="20" width="1" height="1" fill="#113D99" />
<rect x="1" y="21" width="1" height="1" fill="#113F99" />
<rect x="3" y="21" width="5" height="1" fill="#134C9E" />
<rect x="8" y="21" width="1" height="3" fill="#FFFFFF" />
<rect x="9" y="21" width="1" height="4" fill="#EBF6FF" />
<rect x="16" y="21" width="13" height="1" fill="#134C9E" />
<rect x="30" y="21" width="1" height="1" fill="#113A99" />
<rect x="1" y="22" width="1" height="1" fill="#113999" />
<rect x="3" y="22" width="5" height="1" fill="#114A99" />
<rect x="16" y="22" width="13" height="1" fill="#114A99" />
<rect x="30" y="22" width="1" height="1" fill="#113799" />
<rect x="1" y="23" width="1" height="2" fill="#113499" />
<rect x="3" y="23" width="1" height="3" fill="#000515" />
<rect x="4" y="23" width="4" height="2" fill="#114A99" />
<rect x="16" y="23" width="12" height="2" fill="#114A99" />
<rect x="28" y="23" width="1" height="3" fill="#000515" />
<rect x="30" y="23" width="1" height="2" fill="#113499" />
<rect x="2" y="24" width="1" height="1" fill="#113C99" />
<rect x="8" y="24" width="1" height="4" fill="#114A99" />
<rect x="15" y="24" width="1" height="5" fill="#114A99" />
<rect x="29" y="24" width="1" height="1" fill="#113C99" />
<rect x="2" y="25" width="1" height="1" fill="#113B99" />
<rect x="4" y="25" width="1" height="2" fill="#000515" />
<rect x="5" y="25" width="3" height="1" fill="#114A99" />
<rect x="9" y="25" width="1" height="4" fill="#114A99" />
<rect x="11" y="25" width="3" height="1" fill="#EBF6FF" />
<rect x="14" y="25" width="1" height="4" fill="#114A99" />
<rect x="16" y="25" width="11" height="1" fill="#114A99" />
<rect x="27" y="25" width="1" height="2" fill="#000515" />
<rect x="29" y="25" width="1" height="1" fill="#113B99" />
<rect x="2" y="26" width="2" height="1" fill="#113999" />
<rect x="5" y="26" width="1" height="2" fill="#000515" />
<rect x="6" y="26" width="2" height="1" fill="#114A99" />
<rect x="10" y="26" width="4" height="3" fill="#114A99" />
<rect x="16" y="26" width="10" height="1" fill="#114A99" />
<rect x="26" y="26" width="1" height="2" fill="#000515" />
<rect x="28" y="26" width="2" height="1" fill="#113999" />
<rect x="3" y="27" width="2" height="1" fill="#113899" />
<rect x="6" y="27" width="1" height="2" fill="#000515" />
<rect x="7" y="27" width="1" height="1" fill="#114A99" />
<rect x="16" y="27" width="9" height="1" fill="#114A99" />
<rect x="25" y="27" width="1" height="2" fill="#000515" />
<rect x="27" y="27" width="2" height="1" fill="#113899" />
<rect x="4" y="28" width="2" height="1" fill="#113699" />
<rect x="7" y="28" width="2" height="1" fill="#000515" />
<rect x="16" y="28" width="7" height="1" fill="#114A99" />
<rect x="23" y="28" width="2" height="1" fill="#000515" />
<rect x="26" y="28" width="2" height="1" fill="#113699" />
<rect x="5" y="29" width="3" height="1" fill="#113599" />
<rect x="8" y="29" width="16" height="1" fill="#000515" />
<rect x="24" y="29" width="3" height="1" fill="#113599" />
<rect x="7" y="30" width="18" height="1" fill="#113499" />
</svg>