<?xml version='1.0' encoding='utf-8'?>
<svg xmlns="http://www.w3.org/2000/svg" viewBox="0 0 3357.5179999999996 3358.366" width="512" height="512" version="1.1" xml:space="preserve" style="fill-rule:evenodd;clip-rule:evenodd;stroke-linejoin:round;stroke-miterlimit:2;"><rect x="866.461" y="109.163" width="108.307" height="108.307" style="fill:#182150;" /><rect x="974.768" y="109.163" width="216.614" height="108.307" style="fill:#202852;" /><rect x="1191.382" y="109.163" width="216.614" height="108.307" style="fill:#2c3358;" /><rect x="1407.995" y="109.163" width="216.614" height="108.307" style="fill:#182150;" /><rect x="1624.609" y="109.163" width="108.307" height="108.307" style="fill:#0d1642;" /><rect x="1732.916" y="109.163" width="108.307" height="108.307" style="fill:#202852;" /><rect x="1841.222" y="109.163" width="216.614" height="108.307" style="fill:#0d1642;" /><rect x="2057.836" y="109.163" width="541.534" height="108.307" style="fill:#182150;" /><rect x="649.848" y="217.469" width="216.614" height="108.307" style="fill:#38406d;" /><rect x="866.461" y="217.469" width="1732.908" height="108.307" style="fill:#0e1435;" /><rect x="2599.37" y="217.469" width="216.614" height="108.307" style="fill:#182150;" /><rect x="541.541" y="325.776" width="108.307" height="108.307" style="fill:#38406d;" /><rect x="649.848" y="325.776" width="324.92" height="108.307" style="fill:#0e1435;" /><rect x="974.768" y="325.776" width="1516.295" height="108.307" style="fill:#e2e2e2;" /><rect x="2491.063" y="325.776" width="324.92" height="108.307" style="fill:#0e1435;" /><rect x="2815.983" y="325.776" width="108.307" height="108.307" style="fill:#182150;" /><rect x="433.234" y="434.083" width="108.307" height="108.307" style="fill:#38406d;" /><rect x="541.541" y="434.083" width="216.614" height="108.307" style="fill:#0e1435;" /><rect x="758.155" y="434.083" width="324.92" height="108.307" style="fill:#e2e2e2;" /><rect x="1083.075" y="434.083" width="1624.602" height="324.92" style="fill:#f7f7f7;" /><rect x="2707.677" y="434.083" width="216.614" height="108.307" style="fill:#0e1435;" /><rect x="2924.29" y="434.083" width="108.307" height="108.307" style="fill:#182150;" /><rect x="324.927" y="542.39" width="108.307" height="108.307" style="fill:#38406d;" /><rect x="433.234" y="542.39" width="216.614" height="108.307" style="fill:#0e1435;" /><rect x="649.848" y="542.39" width="216.614" height="108.307" style="fill:#e2e2e2;" /><rect x="866.461" y="542.39" width="216.614" height="216.614" style="fill:#f7f7f7;" /><rect x="2707.677" y="542.39" width="108.307" height="2382.749" style="fill:#f7f7f7;" /><rect x="2815.983" y="542.39" width="216.614" height="108.307" style="fill:#0e1435;" /><rect x="3032.597" y="542.39" width="108.307" height="108.307" style="fill:#182150;" /><rect x="216.621" y="650.696" width="108.307" height="216.614" style="fill:#38406d;" /><rect x="324.927" y="650.696" width="216.614" height="108.307" style="fill:#0e1435;" /><rect x="541.541" y="650.696" width="216.614" height="108.307" style="fill:#e2e2e2;" /><rect x="758.155" y="650.696" width="108.307" height="541.534" style="fill:#f7f7f7;" /><rect x="2815.983" y="650.696" width="108.307" height="2166.136" style="fill:#f7f7f7;" /><rect x="2924.29" y="650.696" width="216.614" height="108.307" style="fill:#0e1435;" /><rect x="3140.904" y="650.696" width="108.307" height="216.614" style="fill:#182150;" /><rect x="324.927" y="759.003" width="108.307" height="216.614" style="fill:#0e1435;" /><rect x="433.234" y="759.003" width="216.614" height="108.307" style="fill:#e2e2e2;" /><rect x="649.848" y="759.003" width="108.307" height="2166.136" style="fill:#f7f7f7;" /><rect x="866.461" y="759.003" width="108.307" height="433.227" style="fill:#f7f7f7;" /><rect x="974.768" y="759.003" width="324.92" height="108.307" style="fill:#fff;" /><rect x="1299.688" y="759.003" width="758.147" height="216.614" style="fill:#f7f7f7;" /><rect x="2057.836" y="759.003" width="324.92" height="108.307" style="fill:#fff;" /><rect x="2382.756" y="759.003" width="324.92" height="541.534" style="fill:#f7f7f7;" /><rect x="2924.29" y="759.003" width="108.307" height="1949.522" style="fill:#f7f7f7;" /><rect x="3032.597" y="759.003" width="108.307" height="216.614" style="fill:#0e1435;" /><rect x="108.314" y="867.31" width="108.307" height="216.614" style="fill:#182150;" /><rect x="216.621" y="867.31" width="108.307" height="1732.908" style="fill:#0e1435;" /><rect x="433.234" y="867.31" width="108.307" height="216.614" style="fill:#e2e2e2;" /><rect x="541.541" y="867.31" width="108.307" height="1949.522" style="fill:#f7f7f7;" /><rect x="974.768" y="867.31" width="108.307" height="433.227" style="fill:#fff;" /><rect x="1083.075" y="867.31" width="108.307" height="541.534" style="fill:#01051b;" /><rect x="1191.382" y="867.31" width="108.307" height="1299.681" style="fill:#050b29;" /><rect x="2057.836" y="867.31" width="108.307" height="216.614" style="fill:#fff;" /><rect x="2166.143" y="867.31" width="108.307" height="324.92" style="fill:#01051b;" /><rect x="2274.45" y="867.31" width="108.307" height="1083.068" style="fill:#050b29;" /><rect x="3140.904" y="867.31" width="108.307" height="108.307" style="fill:#0e1435;" /><rect x="3249.211" y="867.31" width="108.307" height="1732.908" style="fill:#182150;" /><rect x="324.927" y="975.617" width="108.307" height="1516.295" style="fill:#e2e2e2;" /><rect x="1299.688" y="975.617" width="216.614" height="108.307" style="fill:#f7f7f7;" /><rect x="1516.302" y="975.617" width="541.534" height="108.307" style="fill:#fff;" /><rect x="3032.597" y="975.617" width="108.307" height="1516.295" style="fill:#f7f7f7;" /><rect x="3140.904" y="975.617" width="108.307" height="1624.602" style="fill:#0b112d;" /><rect x="108.314" y="1083.924" width="108.307" height="108.307" style="fill:#232c5b;" /><rect x="433.234" y="1083.924" width="108.307" height="1624.602" style="fill:#f7f7f7;" /><rect x="1299.688" y="1083.924" width="866.454" height="108.307" style="fill:#01051b;" /><rect x="108.314" y="1192.23" width="108.307" height="108.307" style="fill:#182150;" /><rect x="758.155" y="1192.23" width="216.614" height="108.307" style="fill:#fff;" /><rect x="1299.688" y="1192.23" width="974.761" height="974.761" style="fill:#050b29;" /><rect x="108.314" y="1300.537" width="108.307" height="433.227" style="fill:#232c5b;" /><rect x="758.155" y="1300.537" width="108.307" height="974.761" style="fill:#fff;" /><rect x="866.461" y="1300.537" width="216.614" height="108.307" style="fill:#01051b;" /><rect x="2382.756" y="1300.537" width="108.307" height="649.841" style="fill:#050b29;" /><rect x="2491.063" y="1300.537" width="108.307" height="758.147" style="fill:#11183c;" /><rect x="2599.37" y="1300.537" width="108.307" height="1732.908" style="fill:#f7f7f7;" /><rect x="866.461" y="1408.844" width="108.307" height="758.147" style="fill:#01051b;" /><rect x="974.768" y="1408.844" width="216.614" height="649.841" style="fill:#050b29;" /><rect x="108.314" y="1733.764" width="108.307" height="649.841" style="fill:#182150;" /><rect x="2274.45" y="1950.378" width="216.614" height="108.307" style="fill:#11183c;" /><rect x="974.768" y="2058.685" width="216.614" height="108.307" style="fill:#01051b;" /><rect x="2274.45" y="2058.685" width="108.307" height="216.614" style="fill:#11183c;" /><rect x="2382.756" y="2058.685" width="216.614" height="974.761" style="fill:#f7f7f7;" /><rect x="866.461" y="2166.991" width="216.614" height="108.307" style="fill:#fff;" /><rect x="1083.075" y="2166.991" width="324.92" height="108.307" style="fill:#01051b;" /><rect x="1407.995" y="2166.991" width="541.534" height="108.307" style="fill:#050b29;" /><rect x="1949.529" y="2166.991" width="324.92" height="108.307" style="fill:#11183c;" /><rect x="758.155" y="2275.298" width="324.92" height="108.307" style="fill:#01051b;" /><rect x="1083.075" y="2275.298" width="324.92" height="108.307" style="fill:#fff;" /><rect x="1407.995" y="2275.298" width="108.307" height="216.614" style="fill:#01051b;" /><rect x="1516.302" y="2275.298" width="433.227" height="758.147" style="fill:#050b29;" /><rect x="1949.529" y="2275.298" width="108.307" height="758.147" style="fill:#11183c;" /><rect x="2057.836" y="2275.298" width="324.92" height="866.454" style="fill:#f7f7f7;" /><rect x="108.314" y="2383.605" width="108.307" height="216.614" style="fill:#0d1642;" /><rect x="758.155" y="2383.605" width="324.92" height="649.841" style="fill:#f7f7f7;" /><rect x="1083.075" y="2383.605" width="324.92" height="216.614" style="fill:#01051b;" /><rect x="324.927" y="2491.912" width="108.307" height="324.92" style="fill:#0e1435;" /><rect x="1407.995" y="2491.912" width="108.307" height="108.307" style="fill:#050b29;" /><rect x="3032.597" y="2491.912" width="108.307" height="324.92" style="fill:#0b112d;" /><rect x="216.621" y="2600.219" width="108.307" height="216.614" style="fill:#182150;" /><rect x="1083.075" y="2600.219" width="324.92" height="541.534" style="fill:#f7f7f7;" /><rect x="1407.995" y="2600.219" width="108.307" height="433.227" style="fill:#01051b;" /><rect x="3140.904" y="2600.219" width="108.307" height="216.614" style="fill:#060e37;" /><rect x="433.234" y="2708.525" width="108.307" height="216.614" style="fill:#0e1435;" /><rect x="2924.29" y="2708.525" width="108.307" height="216.614" style="fill:#0b112d;" /><rect x="324.927" y="2816.832" width="108.307" height="108.307" style="fill:#182150;" /><rect x="541.541" y="2816.832" width="108.307" height="216.614" style="fill:#0e1435;" /><rect x="2815.983" y="2816.832" width="108.307" height="216.614" style="fill:#0b112d;" /><rect x="3032.597" y="2816.832" width="108.307" height="108.307" style="fill:#060e37;" /><rect x="433.234" y="2925.139" width="108.307" height="108.307" style="fill:#182150;" /><rect x="649.848" y="2925.139" width="108.307" height="216.614" style="fill:#0e1435;" /><rect x="2707.677" y="2925.139" width="108.307" height="216.614" style="fill:#0b112d;" /><rect x="2924.29" y="2925.139" width="108.307" height="108.307" style="fill:#060e37;" /><rect x="541.541" y="3033.446" width="108.307" height="108.307" style="fill:#182150;" /><rect x="758.155" y="3033.446" width="216.614" height="108.307" style="fill:#0e1435;" /><rect x="974.768" y="3033.446" width="108.307" height="108.307" style="fill:#f7f7f7;" /><rect x="1407.995" y="3033.446" width="649.841" height="108.307" style="fill:#f7f7f7;" /><rect x="2382.756" y="3033.446" width="108.307" height="108.307" style="fill:#f7f7f7;" /><rect x="2491.063" y="3033.446" width="216.614" height="108.307" style="fill:#0b112d;" /><rect x="2815.983" y="3033.446" width="108.307" height="108.307" style="fill:#060e37;" /><rect x="649.848" y="3141.752" width="216.614" height="108.307" style="fill:#182150;" /><rect x="866.461" y="3141.752" width="1732.908" height="108.307" style="fill:#0b112d;" /><rect x="2599.37" y="3141.752" width="216.614" height="108.307" style="fill:#060e37;" /><rect x="866.461" y="3250.059" width="1732.908" height="108.307" style="fill:#060e37;" /></svg>