<?xml version="1.0" encoding="UTF-8" ?>
<svg viewBox="0 0 32 32" version="1.1" width="512" height="512" xmlns="http://www.w3.org/2000/svg" shape-rendering="crispEdges">
<rect x="7" y="1" width="18" height="1" fill="#00831A" />
<rect x="5" y="2" width="3" height="1" fill="#00831A" />
<rect x="8" y="2" width="16" height="1" fill="#001103" />
<rect x="24" y="2" width="3" height="1" fill="#00831A" />
<rect x="4" y="3" width="2" height="1" fill="#00831A" />
<rect x="6" y="3" width="3" height="1" fill="#001103" />
<rect x="9" y="3" width="6" height="1" fill="#17D639" />
<rect x="15" y="3" width="8" height="1" fill="#05C928" />
<rect x="23" y="3" width="3" height="1" fill="#001103" />
<rect x="26" y="3" width="2" height="1" fill="#00831A" />
<rect x="3" y="4" width="2" height="1" fill="#00831A" />
<rect x="5" y="4" width="2" height="1" fill="#001103" />
<rect x="7" y="4" width="3" height="1" fill="#17D639" />
<rect x="10" y="4" width="15" height="4" fill="#00AE1F" />
<rect x="25" y="4" width="2" height="1" fill="#001103" />
<rect x="27" y="4" width="2" height="1" fill="#00831A" />
<rect x="2" y="5" width="2" height="1" fill="#00831A" />
<rect x="4" y="5" width="2" height="1" fill="#001103" />
<rect x="6" y="5" width="2" height="1" fill="#17D639" />
<rect x="8" y="5" width="2" height="4" fill="#00AE1F" />
<rect x="25" y="5" width="1" height="6" fill="#00AE1F" />
<rect x="26" y="5" width="2" height="1" fill="#001103" />
<rect x="28" y="5" width="2" height="1" fill="#00831A" />
<rect x="2" y="6" width="1" height="2" fill="#00831A" />
<rect x="3" y="6" width="2" height="1" fill="#001103" />
<rect x="5" y="6" width="2" height="1" fill="#17D639" />
<rect x="7" y="6" width="1" height="5" fill="#00AE1F" />
<rect x="26" y="6" width="1" height="20" fill="#00AE1F" />
<rect x="27" y="6" width="2" height="1" fill="#001103" />
<rect x="29" y="6" width="1" height="2" fill="#00831A" />
<rect x="1" y="7" width="1" height="18" fill="#00831A" />
<rect x="3" y="7" width="1" height="2" fill="#001103" />
<rect x="4" y="7" width="2" height="1" fill="#17D639" />
<rect x="6" y="7" width="1" height="4" fill="#00AE1F" />
<rect x="27" y="7" width="1" height="18" fill="#00AE1F" />
<rect x="28" y="7" width="1" height="2" fill="#001103" />
<rect x="30" y="7" width="1" height="18" fill="#00831A" />
<rect x="2" y="8" width="1" height="16" fill="#001103" />
<rect x="4" y="8" width="1" height="2" fill="#17D639" />
<rect x="5" y="8" width="1" height="18" fill="#00AE1F" />
<rect x="10" y="8" width="12" height="1" fill="#006815" />
<rect x="22" y="8" width="3" height="1" fill="#00AE1F" />
<rect x="29" y="8" width="1" height="16" fill="#001103" />
<rect x="3" y="9" width="1" height="7" fill="#17D639" />
<rect x="8" y="9" width="1" height="2" fill="#00AE1F" />
<rect x="9" y="9" width="1" height="1" fill="#006815" />
<rect x="10" y="9" width="12" height="3" fill="#001103" />
<rect x="22" y="9" width="1" height="1" fill="#006815" />
<rect x="23" y="9" width="2" height="2" fill="#00AE1F" />
<rect x="28" y="9" width="1" height="14" fill="#00AE1F" />
<rect x="4" y="10" width="1" height="15" fill="#00AE1F" />
<rect x="9" y="10" width="1" height="2" fill="#001103" />
<rect x="22" y="10" width="1" height="2" fill="#001103" />
<rect x="6" y="11" width="3" height="1" fill="#006815" />
<rect x="23" y="11" width="3" height="1" fill="#006815" />
<rect x="6" y="12" width="3" height="2" fill="#001103" />
<rect x="9" y="12" width="14" height="2" fill="#00AE1F" />
<rect x="23" y="12" width="3" height="2" fill="#001103" />
<rect x="6" y="14" width="6" height="1" fill="#00AE1F" />
<rect x="12" y="14" width="8" height="1" fill="#006815" />
<rect x="20" y="14" width="6" height="1" fill="#00AE1F" />
<rect x="6" y="15" width="5" height="2" fill="#00AE1F" />
<rect x="11" y="15" width="1" height="1" fill="#006815" />
<rect x="12" y="15" width="8" height="3" fill="#001103" />
<rect x="20" y="15" width="1" height="1" fill="#006815" />
<rect x="21" y="15" width="5" height="2" fill="#00AE1F" />
<rect x="3" y="16" width="1" height="7" fill="#05C928" />
<rect x="11" y="16" width="1" height="2" fill="#001103" />
<rect x="20" y="16" width="1" height="2" fill="#001103" />
<rect x="6" y="17" width="2" height="10" fill="#00AE1F" />
<rect x="8" y="17" width="3" height="1" fill="#006815" />
<rect x="21" y="17" width="3" height="1" fill="#006815" />
<rect x="24" y="17" width="2" height="10" fill="#00AE1F" />
<rect x="8" y="18" width="3" height="2" fill="#001103" />
<rect x="11" y="18" width="10" height="2" fill="#00AE1F" />
<rect x="21" y="18" width="3" height="2" fill="#001103" />
<rect x="8" y="20" width="6" height="8" fill="#00AE1F" />
<rect x="14" y="20" width="4" height="1" fill="#006815" />
<rect x="18" y="20" width="6" height="8" fill="#00AE1F" />
<rect x="14" y="21" width="4" height="2" fill="#001103" />
<rect x="3" y="23" width="1" height="3" fill="#001103" />
<rect x="14" y="23" width="4" height="6" fill="#00AE1F" />
<rect x="28" y="23" width="1" height="3" fill="#001103" />
<rect x="2" y="24" width="1" height="3" fill="#00831A" />
<rect x="29" y="24" width="1" height="3" fill="#00831A" />
<rect x="4" y="25" width="1" height="2" fill="#001103" />
<rect x="27" y="25" width="1" height="2" fill="#001103" />
<rect x="3" y="26" width="1" height="2" fill="#00831A" />
<rect x="5" y="26" width="1" height="2" fill="#001103" />
<rect x="26" y="26" width="1" height="2" fill="#001103" />
<rect x="28" y="26" width="1" height="2" fill="#00831A" />
<rect x="4" y="27" width="1" height="2" fill="#00831A" />
<rect x="6" y="27" width="1" height="2" fill="#001103" />
<rect x="7" y="27" width="1" height="1" fill="#00AE1F" />
<rect x="24" y="27" width="1" height="1" fill="#00AE1F" />
<rect x="25" y="27" width="1" height="2" fill="#001103" />
<rect x="27" y="27" width="1" height="2" fill="#00831A" />
<rect x="5" y="28" width="1" height="2" fill="#00831A" />
<rect x="7" y="28" width="2" height="1" fill="#001103" />
<rect x="9" y="28" width="5" height="1" fill="#00AE1F" />
<rect x="18" y="28" width="5" height="1" fill="#00AE1F" />
<rect x="23" y="28" width="2" height="1" fill="#001103" />
<rect x="26" y="28" width="1" height="2" fill="#00831A" />
<rect x="6" y="29" width="2" height="1" fill="#00831A" />
<rect x="8" y="29" width="16" height="1" fill="#001103" />
<rect x="24" y="29" width="2" height="1" fill="#00831A" />
<rect x="7" y="30" width="18" height="1" fill="#00831A" />
</svg>