<svg width="512" height="512" viewBox="0 0 512 512" fill="none" xmlns="http://www.w3.org/2000/svg">
<path fill-rule="evenodd" clip-rule="evenodd" d="M24.7789 90.8094V107.317V107.546V123.825H8.27124V388.175H24.7789V421.19H41.2866V437.698H57.7942V454.206H74.3018V470.714H90.8094V487.221H107.317H107.546H123.825V503.729L239.378 503.729L239.607 503.729H272.393L272.622 503.729L388.175 503.729V487.221H404.683H421.191V470.714H437.698V454.206H454.206V437.698H470.714V421.19H487.221V388.175H503.729V123.825H487.221V107.546V107.317V90.8094H470.714V74.3018H454.206V57.7941H437.698V41.2864H421.191V24.7789H388.175V8.27124H123.825V24.7789H90.8094V41.2864H74.3018V57.7941H57.7942V74.3018H41.2866V90.8094H24.7789ZM223.099 239.378H239.378H239.607V239.607V255.886V256.114H239.378L223.099 256.114L223.099 272.393V272.622L223.099 288.901H239.378H239.607V289.13V305.409V305.637H239.378H223.099H222.87V305.409V289.13H206.592H206.363V288.901V272.622V272.393V256.114V255.886H206.592H222.87V239.607V239.378H223.099Z" fill="#304059"/>
<path fill-rule="evenodd" clip-rule="evenodd" d="M239.378 25.0074V206.363H222.87V222.87H206.363V239.378H189.855V305.637H206.363V322.145H222.87V338.652H239.378V486.992H140.561V487.221H173.348H173.576H190.084H206.363H222.87H223.099H239.378V486.992H239.607L239.607 454.206L239.607 453.977V421.19L239.607 420.962L239.607 355.16V354.931V338.652H239.378V338.424H223.099L223.099 322.145H222.87V321.916H206.592V305.637H206.363V305.408H190.084V289.129V288.901V239.607H206.363V239.378H206.592V223.099H222.87V222.87H223.099L223.099 206.591H239.378V206.363H239.607V157.068L239.607 156.84L239.607 91.0379V90.8093V58.0226V57.794V41.5151V41.2863V25.0074H239.378ZM272.622 25.0074H272.393V41.2863V41.5151V57.794V58.0226V74.3017V74.5303V90.8093V91.0379V107.317V107.546V123.824V124.053V140.332V140.561V156.84V157.068V173.347V173.576V189.855V190.084L272.393 206.363H272.622V206.591H288.901L288.901 222.87H289.13V223.099H305.409V239.378H305.637V239.607H321.916V255.885V256.114V272.393V272.622V288.901V289.129V305.408H305.637V305.637H305.409V321.916H289.13V322.145H288.901L288.901 338.424H272.622V338.652H272.393L272.393 354.931V355.16V371.439V371.668V387.947V388.175V404.454V404.683V420.962V421.19V437.469V437.698V453.977H272.622V437.469V421.19V420.962V404.683V404.454V388.175V387.947V371.668V338.652H289.13V322.145H305.637V305.637H322.145V239.378H305.637V222.87H289.13V206.363H272.622V25.0074ZM486.993 140.561V371.439H470.485V371.668V387.947V388.175V404.454H454.206H453.977V404.683V420.962L437.698 420.962L437.47 420.962V421.19V437.469H421.191H420.962V453.977H404.454V454.206H404.683H420.962V453.977H421.191V437.698H437.47V437.469H437.698L437.698 421.19H453.977V420.962H454.206L454.206 404.683H470.485V404.454H470.714L470.714 388.175L470.714 387.947L470.714 371.668H486.993V371.439H487.221V355.16V354.931V338.652V338.424V322.145V321.916L487.221 305.637L487.221 305.408V289.129L487.221 288.901L487.221 272.622V272.393V256.114V255.885V239.607V239.378V223.099V222.87V206.591V206.363V190.084V189.855V173.576V173.347V157.068V156.84V140.561H486.993ZM289.13 255.885H305.409V256.114H289.13V255.885ZM288.901 255.885H289.13V239.607H288.901V239.378H272.622V239.607H272.393V255.885H272.622V256.114L288.901 256.114L288.901 272.393V272.622L288.901 288.901H272.622V289.129H272.393V305.408H272.622V305.637H288.901V305.408H289.13V289.129H305.409V288.901H305.637V272.622V272.393V256.114H305.409V288.901H289.13V256.114H288.901V255.885ZM289.13 288.901H288.901V289.129H272.622V305.408H288.901V289.129H289.13V288.901ZM288.901 255.885H272.622V239.607H288.901V255.885ZM272.393 454.206H272.622V470.485H272.393V454.206ZM272.393 486.992L272.393 470.713H272.622V486.992H272.393ZM223.099 239.607V239.378H239.378V239.607H223.099ZM223.099 255.885V239.607H222.87V255.885H206.592V256.114H206.363V272.393V272.622V288.901H206.592V289.129H222.87V305.408H223.099V305.637H239.378V305.408H239.607V289.129H239.378V288.901H223.099L223.099 272.622V272.393L223.099 256.114L239.378 256.114V255.885H239.607V239.607H239.378V255.885H223.099ZM222.87 256.114V255.885H223.099V256.114H222.87ZM222.87 288.901H206.592V256.114H222.87V288.901ZM223.099 289.129H222.87V288.901H223.099V289.129ZM223.099 289.129H239.378V305.408H223.099V289.129Z" fill="#304059"/>
<path fill-rule="evenodd" clip-rule="evenodd" d="M239.607 90.8093H173.576V24.7788H140.332V41.2863H107.317V90.8093H57.7941V107.317H41.2865V156.84H24.7788V223.099H41.2865V288.901H24.7788V355.16H41.2865V404.683H57.7941V421.19H107.317V470.713H140.332V487.221H239.607V338.424H223.099V321.916H206.591V305.408H190.084V239.607H206.591L206.591 223.099H223.099V206.591H239.607L239.607 90.8093Z" fill="#87BDFF"/>
<path fill-rule="evenodd" clip-rule="evenodd" d="M24.7788 239.378H41.5151V272.622H24.7788V239.378ZM206.363 272.393H223.099L223.099 272.622L223.099 288.901L223.099 289.129H222.87H206.591H206.363V288.901V272.622V272.393ZM288.901 272.393H305.637L305.637 272.622V288.901L305.637 289.129H305.408H289.13H288.901L288.901 288.901L288.901 272.622L288.901 272.393ZM140.561 388.175V387.947H140.332V388.175H140.561Z" fill="#329CF3"/>
<path fill-rule="evenodd" clip-rule="evenodd" d="M222.87 289.129H223.099L223.099 288.901H239.378H239.607V289.129V305.408V305.637H239.378H223.099H222.87V305.408V289.129Z" fill="#329CF3"/>
<path fill-rule="evenodd" clip-rule="evenodd" d="M123.825 371.439H140.332V354.931H173.576V388.175H157.069V404.683H140.561H140.332H123.825V371.439ZM140.561 387.947V388.175H140.332V387.947H140.561Z" fill="#329CF3"/>
<path fill-rule="evenodd" clip-rule="evenodd" d="M91.0381 305.408H57.7941V321.916V322.145V355.16H74.5304L107.546 355.16V338.424H74.5304V322.145H91.0381V305.408Z" fill="#329CF3"/>
<path fill-rule="evenodd" clip-rule="evenodd" d="M190.084 24.7788H173.347V74.5303H190.084H222.87V91.0379H239.607V90.8093V58.0226V57.794H223.099V41.2863H190.084V24.7788Z" fill="#329CF3"/>
<path fill-rule="evenodd" clip-rule="evenodd" d="M206.591 420.962H189.855V437.469H173.347V470.713H189.855V487.221L190.084 487.221H206.363H222.87H239.378H239.607V486.992L239.607 454.206L239.607 453.977H222.87V470.485H206.591V420.962Z" fill="#329CF3"/>
<path fill-rule="evenodd" clip-rule="evenodd" d="M173.347 338.652H189.855V355.16H206.591V338.652V338.424V321.916H173.347V338.652Z" fill="#329CF3"/>
<path fill-rule="evenodd" clip-rule="evenodd" d="M157.068 222.87H107.317V239.378V239.607V256.114H140.561V239.607H157.068V222.87Z" fill="#329CF3"/>
<path fill-rule="evenodd" clip-rule="evenodd" d="M41.2865 156.84H58.0228V173.347H91.0381V189.855H107.546V206.591L91.0381 206.591L90.8093 206.591H58.0228H57.7941H41.2865V156.84Z" fill="#329CF3"/>
<path fill-rule="evenodd" clip-rule="evenodd" d="M239.607 156.84H206.363V173.347H189.855V190.084H206.363V206.363H173.347V223.099H206.591H222.87H223.099L223.099 222.87L223.099 206.591H239.378H239.607L239.607 206.363V157.068L239.607 156.84Z" fill="#329CF3"/>
<path fill-rule="evenodd" clip-rule="evenodd" d="M140.332 90.8093H173.576V124.053H140.561V140.561H123.825V107.317H140.332V90.8093Z" fill="#329CF3"/>
<path fill-rule="evenodd" clip-rule="evenodd" d="M223.099 74.3017H173.347V91.0379H223.099V74.3017ZM41.5151 140.332H24.7788V157.068H41.5151V140.332ZM107.546 206.363H41.2865V222.87H24.7788V239.607H41.5151V223.099H107.546V206.363ZM41.5151 223.099V222.87H41.2865V223.099H41.5151ZM41.5151 272.393V288.901H41.2865V289.129H24.7788V272.393H41.5151ZM24.7788 354.931H41.2865V355.16H41.5151V371.668H24.7788V354.931ZM173.347 338.424V355.16H190.084V338.424H173.347ZM173.347 421.191V437.698H190.084V420.962H173.576V421.191H173.347ZM173.347 470.485V487.221H173.576H190.084V470.485H173.347Z" fill="#4791CE"/>
<path fill-rule="evenodd" clip-rule="evenodd" d="M239.607 24.7788H189.855V41.5151H222.87V58.0226H239.607V57.794V41.5151V25.0074V24.7788Z" fill="#4791CE"/>
<path fill-rule="evenodd" clip-rule="evenodd" d="M140.561 354.931H107.317V371.439V371.668V420.962H107.546V421.19H123.825H124.053L156.84 421.191H173.347V420.962H173.576V387.947H156.84V404.454H124.053V371.668H140.561V354.931Z" fill="#4791CE"/>
<path fill-rule="evenodd" clip-rule="evenodd" d="M239.607 421.19L239.607 420.962H206.363V454.206V470.713H223.099V454.206H239.607L239.607 453.977V421.19Z" fill="#4791CE"/>
<path fill-rule="evenodd" clip-rule="evenodd" d="M107.317 420.962H74.3017V437.698H90.8093V454.206H107.546V437.698V437.469V421.19H107.317V420.962Z" fill="#4791CE"/>
<path fill-rule="evenodd" clip-rule="evenodd" d="M206.363 322.145V355.16H223.099L239.607 355.16V354.931V338.652V338.424H239.378H223.099L223.099 322.145L223.099 321.916H222.87H206.591L206.591 322.145H206.363Z" fill="#4791CE"/>
<path fill-rule="evenodd" clip-rule="evenodd" d="M189.855 322.145H173.347V289.129H173.576V288.901H190.084L190.084 289.129V305.408H206.363L206.591 305.408L206.591 305.637V321.916H206.363V322.145H190.084H189.855Z" fill="#4791CE"/>
<path fill-rule="evenodd" clip-rule="evenodd" d="M107.546 289.129H107.317V288.901H41.5151V289.129H41.2865V305.408V305.637V354.931H41.5151V355.16H58.0228V305.637H90.8093V321.916H74.3017V338.652H90.8093H107.546V305.637V305.408V289.129Z" fill="#4791CE"/>
<path fill-rule="evenodd" clip-rule="evenodd" d="M173.576 222.87H156.84V239.378H140.332V255.885H107.317V288.901H107.546V289.129H140.332H140.561H156.84H157.069H173.347V288.901H173.576V222.87Z" fill="#4791CE"/>
<path fill-rule="evenodd" clip-rule="evenodd" d="M107.317 156.84H57.7941V173.576H90.8093V190.084H107.546V173.576V173.347V157.068H107.317V156.84Z" fill="#4791CE"/>
<path fill-rule="evenodd" clip-rule="evenodd" d="M107.546 57.794H90.8093V74.3017H74.3017V91.0379H90.8093H91.0379H107.317V107.317V107.546V156.84H107.546V157.068H123.825H124.053L140.332 157.068H140.561H173.347V173.347V173.576V206.591H190.084L206.591 206.591V189.855H190.084V173.576H206.591V156.84H173.576V123.824H140.332V140.332H124.053V107.546H140.561V90.8093H107.546V57.794Z" fill="#4791CE"/>
<path fill-rule="evenodd" clip-rule="evenodd" d="M272.394 24.7788H371.668V41.2863H404.683V58.0226H354.932V41.5151H272.394V41.2863V25.0074V24.7788Z" fill="#96C6FF"/>
<path fill-rule="evenodd" clip-rule="evenodd" d="M272.394 41.2864H355.16V58.0227H272.394V57.794V41.5152V41.2864Z" fill="#95C5FE"/>
<path fill-rule="evenodd" clip-rule="evenodd" d="M272.394 57.7941H289.13V74.5304H272.394V74.3018V58.0227V57.7941Z" fill="#90C2FC"/>
<path fill-rule="evenodd" clip-rule="evenodd" d="M288.901 57.7941H305.637V74.5304H288.901V57.7941Z" fill="#91C2FC"/>
<path fill-rule="evenodd" clip-rule="evenodd" d="M305.409 57.7941H371.668V74.5304H305.409V57.7941Z" fill="#91C3FC"/>
<path fill-rule="evenodd" clip-rule="evenodd" d="M371.439 57.7941H421.19V74.5304H371.439V57.7941Z" fill="#92C3FD"/>
<path fill-rule="evenodd" clip-rule="evenodd" d="M272.394 74.3018H305.638V91.038H272.394V90.8094V74.5304V74.3018Z" fill="#8CC0FA"/>
<path fill-rule="evenodd" clip-rule="evenodd" d="M305.409 74.3018H388.175V91.038H305.409V74.3018Z" fill="#8DC0FA"/>
<path fill-rule="evenodd" clip-rule="evenodd" d="M387.947 74.3018H404.683V91.038H387.947V74.3018Z" fill="#8EC0FB"/>
<path fill-rule="evenodd" clip-rule="evenodd" d="M404.454 74.3018H437.698V91.038H404.454V74.3018Z" fill="#8EC1FB"/>
<path fill-rule="evenodd" clip-rule="evenodd" d="M272.394 90.8093H305.638V107.546H272.394V107.317V91.038V90.8093Z" fill="#88BDF8"/>
<path fill-rule="evenodd" clip-rule="evenodd" d="M305.409 90.8093H338.653V107.546H305.409V90.8093Z" fill="#89BDF8"/>
<path fill-rule="evenodd" clip-rule="evenodd" d="M338.424 90.8093H404.683V107.546H338.424V90.8093Z" fill="#89BEF8"/>
<path fill-rule="evenodd" clip-rule="evenodd" d="M404.454 90.8093H454.206V107.546H404.454V90.8093Z" fill="#8ABEF9"/>
<path fill-rule="evenodd" clip-rule="evenodd" d="M272.394 107.317H289.13V124.053H272.394V123.825V107.546V107.317Z" fill="#84BAF6"/>
<path fill-rule="evenodd" clip-rule="evenodd" d="M288.901 107.317H322.145V124.053H288.901V107.317Z" fill="#84BBF6"/>
<path fill-rule="evenodd" clip-rule="evenodd" d="M321.916 107.317H421.191V124.053H321.916V107.317Z" fill="#85BBF6"/>
<path fill-rule="evenodd" clip-rule="evenodd" d="M420.962 107.317H437.698V124.053H420.962V107.317Z" fill="#86BBF7"/>
<path fill-rule="evenodd" clip-rule="evenodd" d="M437.47 107.317H470.714V124.053H437.47V107.317Z" fill="#86BCF7"/>
<path fill-rule="evenodd" clip-rule="evenodd" d="M272.394 123.825H338.653V140.561H272.394V140.332V124.053V123.825Z" fill="#80B8F4"/>
<path fill-rule="evenodd" clip-rule="evenodd" d="M338.424 123.825H371.668V140.561H338.424V123.825Z" fill="#81B8F4"/>
<path fill-rule="evenodd" clip-rule="evenodd" d="M371.439 123.825H437.698V140.561H371.439V123.825Z" fill="#81B9F4"/>
<path fill-rule="evenodd" clip-rule="evenodd" d="M437.47 123.825H470.714V140.561H437.47V123.825Z" fill="#82B9F5"/>
<path fill-rule="evenodd" clip-rule="evenodd" d="M272.394 140.332H322.145V157.068H272.394V156.84V140.561V140.332Z" fill="#7CB5F2"/>
<path fill-rule="evenodd" clip-rule="evenodd" d="M321.916 140.332H355.16V157.068H321.916V140.332Z" fill="#7CB6F2"/>
<path fill-rule="evenodd" clip-rule="evenodd" d="M354.932 140.332H454.206V157.068H354.932V140.332Z" fill="#7DB6F2"/>
<path fill-rule="evenodd" clip-rule="evenodd" d="M453.977 140.332H470.714V157.068H453.977V140.332Z" fill="#7EB6F3"/>
<path fill-rule="evenodd" clip-rule="evenodd" d="M470.485 140.332H487.221L487.221 140.561V156.84L487.221 157.068H470.485V140.332Z" fill="#7EB7F3"/>
<path fill-rule="evenodd" clip-rule="evenodd" d="M272.394 156.84H371.668V173.576H272.394V173.348V157.068V156.84Z" fill="#78B3F0"/>
<path fill-rule="evenodd" clip-rule="evenodd" d="M371.439 156.84H421.19V173.576H371.439V156.84Z" fill="#79B3F0"/>
<path fill-rule="evenodd" clip-rule="evenodd" d="M420.962 156.84H470.714V173.576H420.962V156.84Z" fill="#79B4F0"/>
<path fill-rule="evenodd" clip-rule="evenodd" d="M470.485 156.84H487.221L487.221 157.068V173.348L487.221 173.576H470.485V156.84Z" fill="#7AB4F1"/>
<path fill-rule="evenodd" clip-rule="evenodd" d="M272.394 173.348H289.13V190.084H272.394V189.855V173.576V173.348Z" fill="#73B0ED"/>
<path fill-rule="evenodd" clip-rule="evenodd" d="M288.901 173.348H355.16V190.084H288.901V173.348Z" fill="#74B0EE"/>
<path fill-rule="evenodd" clip-rule="evenodd" d="M354.932 173.348H388.176V190.084H354.932V173.348Z" fill="#74B1EE"/>
<path fill-rule="evenodd" clip-rule="evenodd" d="M387.947 173.348H487.221V173.576V189.855V190.084H387.947V173.348Z" fill="#75B1EE"/>
<path fill-rule="evenodd" clip-rule="evenodd" d="M272.393 189.855H305.637V206.591H288.901H272.622H272.393L272.393 206.363L272.393 190.084V189.855Z" fill="#6FADEB"/>
<path fill-rule="evenodd" clip-rule="evenodd" d="M305.409 189.855H404.683V206.591H305.409V189.855Z" fill="#70AEEC"/>
<path fill-rule="evenodd" clip-rule="evenodd" d="M404.454 189.855H454.206V206.591H404.454V189.855Z" fill="#71AEEC"/>
<path fill-rule="evenodd" clip-rule="evenodd" d="M453.977 189.855H487.221L487.221 190.084V206.363L487.221 206.591H453.977V189.855Z" fill="#71AFEC"/>
<path fill-rule="evenodd" clip-rule="evenodd" d="M288.901 206.363H322.145V223.099L305.409 223.099H289.13L288.901 223.099L288.901 222.87L288.901 206.591V206.363Z" fill="#6BABE9"/>
<path fill-rule="evenodd" clip-rule="evenodd" d="M321.916 206.363H388.175V223.099H321.916V206.363Z" fill="#6CABEA"/>
<path fill-rule="evenodd" clip-rule="evenodd" d="M387.947 206.363H421.191V223.099H387.947V206.363Z" fill="#6CACEA"/>
<path fill-rule="evenodd" clip-rule="evenodd" d="M420.962 206.363H487.221L487.221 206.591V222.87L487.221 223.099H420.962V206.363Z" fill="#6DACEA"/>
<path fill-rule="evenodd" clip-rule="evenodd" d="M305.409 222.87H338.653V239.607L321.916 239.607H305.637L305.409 239.607V239.378V223.099V222.87Z" fill="#67A8E7"/>
<path fill-rule="evenodd" clip-rule="evenodd" d="M338.424 222.87H437.698V239.607H338.424V222.87Z" fill="#68A9E8"/>
<path fill-rule="evenodd" clip-rule="evenodd" d="M437.47 222.87H487.221L487.221 223.099V239.378L487.221 239.607H437.47V222.87Z" fill="#69A9E8"/>
<path fill-rule="evenodd" clip-rule="evenodd" d="M223.099 239.378H222.87V239.607V255.886V256.114L223.099 256.114L239.378 256.114H239.607V255.886V239.607V239.378H239.378H223.099ZM223.099 288.901H222.87V289.13V305.409V305.637H223.099H239.378H239.607V305.409V289.13V288.901H239.378H223.099ZM272.622 288.901H272.393V289.13V305.409V305.637H272.622H288.901H289.13V305.409V289.13V288.901H288.901H272.622ZM288.901 289.13H272.622V305.409H288.901V289.13Z" fill="#7EC5FF"/>
<path fill-rule="evenodd" clip-rule="evenodd" d="M272.393 239.378H272.622H288.901H289.13L289.13 239.607V255.886L289.13 256.114L288.901 256.114L272.622 256.114L272.393 256.114L272.393 255.886V239.607L272.393 239.378ZM206.363 255.886L206.591 255.886H222.87L223.099 255.886L223.099 256.114L223.099 272.393L223.099 272.622H206.363V272.393V256.114V255.886ZM288.901 255.886L289.13 255.886H305.408L305.637 255.886L305.637 256.114V272.393L305.637 272.622H288.901L288.901 272.393L288.901 256.114L288.901 255.886Z" fill="#64B9FF"/>
<path fill-rule="evenodd" clip-rule="evenodd" d="M321.916 239.378H355.16V256.114H321.916V255.886V239.607V239.378Z" fill="#63A6E5"/>
<path fill-rule="evenodd" clip-rule="evenodd" d="M354.932 239.378H437.698V256.114H354.932V239.378Z" fill="#64A6E6"/>
<path fill-rule="evenodd" clip-rule="evenodd" d="M437.47 239.378H454.206V256.114H437.47V239.378Z" fill="#64A7E6"/>
<path fill-rule="evenodd" clip-rule="evenodd" d="M453.977 239.378H487.221L487.221 239.607V255.886L487.221 256.114H453.977V239.378Z" fill="#65A7E6"/>
<path fill-rule="evenodd" clip-rule="evenodd" d="M321.916 255.885H371.668V272.622H321.916V272.393V256.114V255.885Z" fill="#5FA3E3"/>
<path fill-rule="evenodd" clip-rule="evenodd" d="M371.439 255.885H470.713V272.622H371.439V255.885Z" fill="#60A4E4"/>
<path fill-rule="evenodd" clip-rule="evenodd" d="M470.485 255.885H487.221L487.221 256.114V272.393L487.221 272.622H470.485V255.885Z" fill="#61A4E4"/>
<path fill-rule="evenodd" clip-rule="evenodd" d="M321.916 272.393H388.175V289.129H321.916V288.901V272.622V272.393Z" fill="#5BA1E1"/>
<path fill-rule="evenodd" clip-rule="evenodd" d="M387.947 272.393H470.714V289.129H387.947V272.393Z" fill="#5CA1E2"/>
<path fill-rule="evenodd" clip-rule="evenodd" d="M470.485 272.393H487.221L487.221 272.622L487.221 288.901L487.221 289.129H470.485V272.393Z" fill="#5CA2E2"/>
<path fill-rule="evenodd" clip-rule="evenodd" d="M321.916 288.901H404.683V305.637H321.916V305.409V289.13V288.901Z" fill="#579EDF"/>
<path fill-rule="evenodd" clip-rule="evenodd" d="M404.454 288.901H487.221L487.221 289.13V305.409L487.221 305.637H404.454V288.901Z" fill="#589FE0"/>
<path fill-rule="evenodd" clip-rule="evenodd" d="M305.409 305.408H305.637H321.916H322.145V322.145H305.409V321.916V305.637V305.408Z" fill="#529BDD"/>
<path fill-rule="evenodd" clip-rule="evenodd" d="M321.916 305.408H355.16V322.145H321.916V305.408Z" fill="#539BDD"/>
<path fill-rule="evenodd" clip-rule="evenodd" d="M354.932 305.408H421.191V322.145H354.932V305.408Z" fill="#539CDD"/>
<path fill-rule="evenodd" clip-rule="evenodd" d="M420.962 305.408H487.221L487.221 305.637L487.221 321.916L487.221 322.145H420.962V305.408Z" fill="#549CDE"/>
<path fill-rule="evenodd" clip-rule="evenodd" d="M288.901 321.916H289.13H305.409H338.653V338.652H288.901V338.424L288.901 322.145L288.901 321.916Z" fill="#4E99DB"/>
<path fill-rule="evenodd" clip-rule="evenodd" d="M338.424 321.916H437.698V338.652H338.424V321.916Z" fill="#4F99DB"/>
<path fill-rule="evenodd" clip-rule="evenodd" d="M437.47 321.916H454.206V338.652H437.47V321.916Z" fill="#5099DC"/>
<path fill-rule="evenodd" clip-rule="evenodd" d="M453.977 321.916H487.221L487.221 322.145V338.424L487.221 338.652H453.977V321.916Z" fill="#509ADC"/>
<path fill-rule="evenodd" clip-rule="evenodd" d="M272.393 338.424H272.622H288.901H355.16V355.16H272.393V354.931L272.393 338.653L272.393 338.424Z" fill="#4A96D9"/>
<path fill-rule="evenodd" clip-rule="evenodd" d="M354.932 338.424H388.176V355.16H354.932V338.424Z" fill="#4B96D9"/>
<path fill-rule="evenodd" clip-rule="evenodd" d="M387.947 338.424H454.206V355.16H387.947V338.424Z" fill="#4B97D9"/>
<path fill-rule="evenodd" clip-rule="evenodd" d="M453.977 338.424H487.221L487.221 338.652V354.931L487.221 355.16H453.977V338.424Z" fill="#4C97DA"/>
<path fill-rule="evenodd" clip-rule="evenodd" d="M272.394 354.931H338.653V371.668H272.394V371.439V355.16V354.931Z" fill="#4693D7"/>
<path fill-rule="evenodd" clip-rule="evenodd" d="M338.424 354.931H371.668V371.668H338.424V354.931Z" fill="#4694D7"/>
<path fill-rule="evenodd" clip-rule="evenodd" d="M371.439 354.931H454.206V371.668H371.439V354.931Z" fill="#4794D7"/>
<path fill-rule="evenodd" clip-rule="evenodd" d="M453.977 354.931H487.221L487.221 355.16V371.439L487.221 371.668H486.993H470.714H453.977V354.931Z" fill="#4894D8"/>
<path fill-rule="evenodd" clip-rule="evenodd" d="M289.13 371.439H272.394V371.668V387.947V388.175H289.13V387.947H288.901H272.622V371.668H288.901H289.13V371.439Z" fill="#4191D4"/>
<path fill-rule="evenodd" clip-rule="evenodd" d="M388.176 371.439H288.901V371.668H289.13H338.424H338.653H371.439H371.668H387.947H388.176V371.439ZM388.176 387.947H387.947H371.668H371.439H305.637H305.409H289.13H288.901V388.175H388.176V387.947Z" fill="#4291D5"/>
<path fill-rule="evenodd" clip-rule="evenodd" d="M421.191 371.439H387.947V371.668H388.176H420.962H421.191V371.439ZM421.191 387.947H420.962H404.683H404.454H388.176H387.947V388.175H421.191V387.947Z" fill="#4391D5"/>
<path fill-rule="evenodd" clip-rule="evenodd" d="M470.714 371.439H420.962V371.668H421.191H453.977H454.206H470.485V387.947H421.191H420.962V388.175H470.714L470.714 387.947L470.714 371.668V371.439Z" fill="#4392D5"/>
<path fill-rule="evenodd" clip-rule="evenodd" d="M272.394 387.947H305.638V388.175H305.409H289.13H288.901H272.622V404.454H305.409H305.638V404.683H272.394V404.454V388.175V387.947Z" fill="#3D8ED2"/>
<path fill-rule="evenodd" clip-rule="evenodd" d="M371.668 387.947H305.409V388.175H305.638H371.439H371.668V387.947ZM371.668 404.454H371.439H322.145H321.916H305.638H305.409V404.683H371.668V404.454Z" fill="#3E8ED3"/>
<path fill-rule="evenodd" clip-rule="evenodd" d="M404.683 387.947H371.439V388.175H371.668H387.947H388.175H404.454H404.683V387.947ZM404.683 404.454H404.454H371.668H371.439V404.683H404.683V404.454Z" fill="#3E8FD3"/>
<path fill-rule="evenodd" clip-rule="evenodd" d="M470.714 387.947H404.454V388.175H404.683H420.962H421.191H470.485V404.454H454.206H453.977H404.683H404.454V404.683H454.206H470.485H470.714V404.454L470.714 388.175L470.714 387.947Z" fill="#3F8FD3"/>
<path fill-rule="evenodd" clip-rule="evenodd" d="M305.638 404.454H272.394V404.683V420.962V421.191H305.638V420.962H305.409H272.622V404.683H305.409H305.638V404.454Z" fill="#398BD0"/>
<path fill-rule="evenodd" clip-rule="evenodd" d="M322.145 404.454H305.409V404.683H305.638H321.916H322.145V404.454ZM322.145 420.962H321.916H305.638H305.409V421.191H322.145V420.962Z" fill="#398CD0"/>
<path fill-rule="evenodd" clip-rule="evenodd" d="M404.683 404.454H321.916V404.683H322.145H371.439H371.668H404.454H404.683V404.454ZM404.683 420.962H404.454H338.653H338.424H322.145H321.916V421.191H404.683V420.962Z" fill="#3A8CD1"/>
<path fill-rule="evenodd" clip-rule="evenodd" d="M454.206 404.454H404.454V404.683H404.683H453.977V420.962L437.698 420.962L437.47 420.962L421.191 420.962H420.962H404.683H404.454V421.191H437.698H453.977H454.206L454.206 420.962L454.206 404.683V404.454Z" fill="#3B8CD1"/>
<path fill-rule="evenodd" clip-rule="evenodd" d="M338.653 420.962H272.394V421.19V437.469V437.698H338.653V437.469H338.424H272.622V421.19H305.409H305.638H321.916H322.145H338.424H338.653V420.962Z" fill="#3589CE"/>
<path fill-rule="evenodd" clip-rule="evenodd" d="M404.683 420.962H338.424V421.19H338.653H404.454H404.683V420.962ZM404.683 437.469H404.454H338.653H338.424V437.698H404.683V437.469Z" fill="#3689CF"/>
<path fill-rule="evenodd" clip-rule="evenodd" d="M421.191 420.962H420.962H404.683H404.454V421.19H404.683H420.962H421.191V420.962ZM421.191 437.469H420.962H404.683H404.454V437.698H421.191V437.469Z" fill="#368ACF"/>
<path fill-rule="evenodd" clip-rule="evenodd" d="M437.698 420.962L437.47 420.962L421.191 420.962H420.962V421.19H421.191H437.47V437.469H421.191H420.962L420.962 437.698H421.191H437.47H437.698L437.698 437.469L437.698 421.19V420.962Z" fill="#378ACF"/>
<path fill-rule="evenodd" clip-rule="evenodd" d="M272.622 454.206H272.393V470.485H272.622V454.206ZM272.622 470.713H272.393L272.393 486.992L272.393 487.221H272.622V486.992V470.713Z" fill="#3287CD"/>
<path fill-rule="evenodd" clip-rule="evenodd" d="M338.424 421.191H322.145H321.916H305.638H305.409H272.622V437.47H338.424H338.653H404.454H404.683H420.962H421.191H437.47V421.191H421.191H420.962H404.683H404.454H338.653H338.424Z" fill="#3589CE"/>
<path fill-rule="evenodd" clip-rule="evenodd" d="M305.409 404.683H272.622V420.962H305.409H305.638H321.916H322.145H338.424H338.653H404.454H404.683H420.962H421.191L437.47 420.962L437.699 420.962L453.977 420.962V404.683H404.683H404.454H371.668H371.439H322.145H321.916H305.638H305.409Z" fill="#398BD0"/>
<path fill-rule="evenodd" clip-rule="evenodd" d="M289.13 388.175H288.901H272.622V404.454H305.409H305.638H321.916H322.145H371.439H371.668H404.454H404.683H453.977H454.206H470.485V388.175H421.191H420.962H404.683H404.454H388.176H387.947H371.668H371.439H305.638H305.409H289.13Z" fill="#3D8ED2"/>
<path fill-rule="evenodd" clip-rule="evenodd" d="M272.622 371.668V387.947H288.901H289.13H305.409H305.638H371.439H371.668H387.947H388.176H404.454H404.683H420.962H421.191H470.485V371.668H454.206H453.977H421.191H420.962H388.176H387.947H371.668H371.439H338.653H338.424H289.13H288.901H272.622Z" fill="#4191D4"/>
<path fill-rule="evenodd" clip-rule="evenodd" d="M272.622 289.13H288.901V305.409H272.622V289.13Z" fill="#7EC5FF"/>
<path fill-rule="evenodd" clip-rule="evenodd" d="M305.637 239.607H305.409V255.886H305.637V239.607Z" fill="#304059"/>
<path fill-rule="evenodd" clip-rule="evenodd" d="M272.622 486.992V470.714H371.439H371.668V486.992V487.221H371.439H272.622V486.992Z" fill="#3287CD"/>
<path fill-rule="evenodd" clip-rule="evenodd" d="M421.191 437.469H420.962H404.683H404.454H338.652H338.424H272.622H272.393V437.698V453.977H272.622V454.206V470.485V470.713H371.439H371.668H404.454H404.683L404.683 470.485L404.683 454.206H420.962H421.191V453.977V437.698V437.469Z" fill="#3287CD"/>
</svg>
