<?xml version='1.0' encoding='utf-8'?>
<svg xmlns="http://www.w3.org/2000/svg" xmlns:ns1="http://sodipodi.sourceforge.net/DTD/sodipodi-0.dtd" xmlns:ns2="http://www.inkscape.org/namespaces/inkscape" viewBox="0 0 3357.6445 3357.6562" width="512" height="512" version="1.1" xml:space="preserve" style="fill-rule:evenodd;clip-rule:evenodd;stroke-linejoin:round;stroke-miterlimit:2;" id="svg159" ns1:docname="motherhelium.svg" ns2:version="1.4.4 (dcaf3e7d9e, 2026-05-05)"><defs id="defs159" /><ns1:namedview id="namedview159" pagecolor="#505050" bordercolor="#ffffff" borderopacity="1" ns2:showpageshadow="0" ns2:pageopacity="0" ns2:pagecheckerboard="1" ns2:deskcolor="#505050" ns2:zoom="0.23456434" ns2:cx="1733" ns2:cy="1733" ns2:window-width="1920" ns2:window-height="1016" ns2:window-x="0" ns2:window-y="0" ns2:window-maximized="1" ns2:current-layer="svg159" /><path style="fill:#3b5cdf;stroke:#3b5cdf;stroke-width:1px;stroke-linejoin:round;shape-rendering:crispEdges;" d="M 866.58789 108.45312 L 866.58789 216.75977 L 649.97461 216.75977 L 649.97461 325.06641 L 433.35938 325.06641 L 433.35938 433.37305 L 325.05273 433.37305 L 325.05273 541.68164 L 216.74609 541.68164 L 216.74609 649.98828 L 216.74609 758.29492 L 108.43945 758.29492 L 108.43945 866.60156 L 216.74609 866.60156 L 325.05469 866.60156 L 325.05469 649.98828 L 433.36133 649.98828 L 433.36133 541.68164 L 541.66797 541.68164 L 541.66797 433.37305 L 758.2793 433.37305 L 758.2793 325.06641 L 974.89453 325.06641 L 974.89453 216.76172 L 2491.1895 216.76172 L 2491.1895 325.06641 L 2707.8027 325.06641 L 2707.8027 433.37305 L 2924.416 433.37305 L 2924.416 541.68164 L 3032.7227 541.68164 L 3032.7227 649.98828 L 3141.0293 649.98828 L 3141.0293 866.60156 L 3249.3359 866.60156 L 3249.3359 974.9082 L 3357.6445 974.9082 L 3357.6445 758.29492 L 3249.3379 758.29492 L 3249.3379 649.98828 L 3249.3359 649.98828 L 3249.3359 541.68164 L 3141.0293 541.68164 L 3141.0293 433.37305 L 3032.7227 433.37305 L 3032.7227 325.06641 L 2816.1094 325.06641 L 2816.1094 216.75977 L 2599.4941 216.75977 L 2599.4941 108.45312 L 866.58789 108.45312 z " /><path style="fill:#072bba;stroke:#072bba;stroke-width:1px;stroke-linejoin:round;shape-rendering:crispEdges;" d="M 974.89453 216.75977 L 974.89453 325.06641 L 758.28125 325.06641 L 758.28125 433.37305 L 541.66797 433.37305 L 541.66797 1733.0547 L 758.28125 1733.0547 L 866.58789 1733.0547 L 866.58789 1733.0566 L 974.89453 1733.0566 L 974.89453 1733.0547 L 1083.2012 1733.0547 L 1191.5078 1733.0547 L 1299.8145 1733.0547 L 1299.8145 1733.0566 L 1408.1211 1733.0566 L 1516.4277 1733.0566 L 1516.4277 1624.75 L 1408.1211 1624.75 L 1408.1211 1516.4414 L 1299.8145 1516.4414 L 1299.8145 1408.1348 L 1191.5078 1408.1348 L 1191.5078 1299.8281 L 1083.2012 1299.8281 L 1083.2012 1191.5215 L 974.89453 1191.5215 L 974.89453 1083.2148 L 866.58789 1083.2148 L 866.58789 866.60156 L 974.89453 866.60156 L 1083.2012 866.60156 L 1083.2012 974.9082 L 1191.5078 974.9082 L 1191.5078 1083.2148 L 1299.8145 1083.2148 L 1299.8145 1191.5215 L 1408.1211 1191.5215 L 1408.1211 1299.8281 L 1516.4277 1299.8281 L 1516.4277 1408.1348 L 1624.7344 1408.1348 L 1624.7344 1733.0547 L 1733.041 1733.0547 L 1733.041 1408.1348 L 1733.041 1299.8281 L 1733.041 1191.5215 L 1733.041 1083.2148 L 1733.043 1083.2148 L 1733.043 974.9082 L 1733.043 866.60156 L 1733.041 866.60156 L 1733.041 541.68164 L 974.89453 541.68164 L 974.89453 541.67969 L 2491.1895 541.67969 L 2491.1895 541.68164 L 1841.3477 541.68164 L 1841.3477 1083.2148 L 1841.3477 1191.5215 L 1841.3477 1299.8281 L 1841.3477 1408.1348 L 1841.3477 1516.4414 L 1841.3477 1733.0566 L 1949.6543 1733.0566 L 1949.6543 1516.4414 L 2057.9629 1516.4414 L 2057.9629 1408.1348 L 2166.2676 1408.1348 L 2166.2676 1299.8281 L 2274.5742 1299.8281 L 2274.5742 1191.5215 L 2382.8828 1191.5215 L 2382.8828 1083.2148 L 2491.1895 1083.2148 L 2491.1895 974.9082 L 2599.4961 974.9082 L 2599.4961 866.60156 L 2707.8027 866.60156 L 2707.8027 1191.5215 L 2599.4961 1191.5215 L 2599.4961 1299.8281 L 2491.1895 1299.8281 L 2491.1895 1408.1348 L 2382.8828 1408.1348 L 2382.8828 1516.4414 L 2274.5762 1516.4414 L 2274.5762 1624.75 L 2166.2695 1624.75 L 2166.2695 1733.0566 L 2274.5762 1733.0566 L 2382.8828 1733.0566 L 2382.8828 1733.0547 L 2491.1895 1733.0547 L 2599.4961 1733.0547 L 2707.8027 1733.0547 L 2924.416 1733.0547 L 2924.416 1733.0566 L 3032.7227 1733.0566 L 3032.7227 1949.668 L 2166.2695 1949.668 L 2166.2695 2057.9766 L 2274.5762 2057.9766 L 2274.5762 2166.2832 L 2382.8828 2166.2832 L 2382.8828 2274.5898 L 2491.1895 2274.5898 L 2491.1895 2382.8965 L 2599.4961 2382.8965 L 2599.4961 2491.2031 L 2707.8027 2491.2031 L 2707.8027 2599.5098 L 2816.1094 2599.5098 L 2816.1094 2816.123 L 2599.4961 2816.123 L 2599.4961 2707.8164 L 2491.1895 2707.8164 L 2491.1895 2599.5098 L 2382.8828 2599.5098 L 2382.8828 2491.2031 L 2274.5762 2491.2031 L 2274.5762 2382.8965 L 2166.2695 2382.8965 L 2166.2695 2274.5898 L 2057.9629 2274.5898 L 2057.9629 2166.2812 L 1949.6543 2166.2812 L 1949.6543 1949.668 L 1841.3477 1949.668 L 1841.3477 3032.7363 L 1733.043 3032.7363 L 1733.043 3249.3516 L 1841.3496 3249.3516 L 1841.3496 3249.3496 L 1949.6543 3249.3496 L 2057.9629 3249.3496 L 2166.2695 3249.3496 L 2274.5762 3249.3496 L 2382.8828 3249.3496 L 2382.8828 3249.3516 L 2491.1895 3249.3516 L 2491.1895 3141.043 L 2599.4961 3141.043 L 2599.4961 3141.0449 L 2707.8027 3141.0449 L 2707.8027 3032.7363 L 2816.1094 3032.7363 L 2816.1094 2924.4297 L 2924.416 2924.4297 L 2924.416 2816.123 L 3032.7227 2816.123 L 3032.7227 2707.8164 L 3141.0293 2707.8164 L 3141.0293 2491.2031 L 3249.3379 2491.2031 L 3357.6445 2491.2031 L 3357.6445 974.9082 L 3249.3379 974.9082 L 3249.3379 866.60156 L 3141.0293 866.60156 L 3141.0293 649.98828 L 3032.7227 649.98828 L 3032.7227 541.68164 L 2924.416 541.68164 L 2924.416 433.37305 L 2707.8027 433.37305 L 2707.8027 325.06641 L 2491.1895 325.06641 L 2491.1895 216.75977 L 974.89453 216.75977 z M 433.35938 541.68164 L 433.35938 649.98828 L 325.05273 649.98828 L 325.05273 866.60156 L 108.43945 866.60156 L 108.43945 2491.2031 L 325.05273 2491.2031 L 325.05273 2707.8164 L 433.35938 2707.8164 L 433.35938 2816.123 L 541.66797 2816.123 L 541.66797 3032.7363 L 758.28125 3032.7363 L 758.28125 3141.0449 L 974.89453 3141.0449 L 974.89453 3249.3516 L 1083.2012 3249.3516 L 1083.2012 3249.3496 L 1191.5078 3249.3496 L 1191.5078 3249.3516 L 1299.8145 3249.3516 L 1299.8145 3249.3496 L 1408.1211 3249.3496 L 1516.4277 3249.3496 L 1624.7344 3249.3496 L 1733.041 3249.3496 L 1733.041 1949.668 L 1624.7344 1949.668 L 1624.7344 2274.5898 L 1516.4277 2274.5898 L 1516.4277 2382.8965 L 1408.1211 2382.8965 L 1408.1211 2491.2031 L 1299.8145 2491.2031 L 1299.8145 2599.5098 L 1191.5078 2599.5098 L 1191.5078 2707.8164 L 1083.2012 2707.8164 L 1083.2012 2816.123 L 866.58789 2816.123 L 866.58789 2599.5098 L 974.89453 2599.5098 L 974.89453 2491.2031 L 1083.2012 2491.2031 L 1083.2012 2382.8965 L 1191.5078 2382.8965 L 1191.5078 2274.5898 L 1299.8145 2274.5898 L 1299.8145 2166.2832 L 1408.1211 2166.2832 L 1408.1211 2057.9766 L 1516.4277 2057.9766 L 1516.4277 1949.668 L 433.35938 1949.668 L 433.35938 1733.0566 L 541.66602 1733.0566 L 541.66602 541.68164 L 433.35938 541.68164 z " /><path style="fill:#fff;stroke:#fff;stroke-width:1px;stroke-linejoin:round;shape-rendering:crispEdges;" d="M 1733.043 541.68164 L 1733.043 2924.4297 L 1841.3496 2924.4297 L 1841.3496 1841.3613 L 3032.7227 1841.3613 L 3032.7227 1733.0547 L 1841.3496 1733.0547 L 1841.3496 541.68164 L 1733.043 541.68164 z M 866.58789 866.60156 L 866.58789 974.9082 L 974.89453 974.9082 L 974.89453 1083.2148 L 1083.2012 1083.2148 L 1083.2012 1191.5215 L 1191.5078 1191.5215 L 1191.5078 1299.8281 L 1299.8145 1299.8281 L 1299.8145 1408.1348 L 1408.1211 1408.1348 L 1408.1211 1516.4414 L 1516.4277 1516.4414 L 1516.4277 1624.748 L 1624.7344 1624.748 L 1624.7344 1516.4414 L 1624.7344 1408.1348 L 1516.4277 1408.1348 L 1516.4277 1299.8281 L 1408.1211 1299.8281 L 1408.1211 1191.5215 L 1299.8145 1191.5215 L 1299.8145 1083.2148 L 1191.5078 1083.2148 L 1191.5078 974.9082 L 1083.2012 974.9082 L 1083.2012 866.60156 L 866.58789 866.60156 z M 2599.4961 866.60156 L 2599.4961 974.9082 L 2491.1895 974.9082 L 2491.1895 1083.2148 L 2382.8828 1083.2148 L 2382.8828 1191.5215 L 2274.5762 1191.5215 L 2274.5762 1299.8281 L 2166.2695 1299.8281 L 2166.2695 1408.1348 L 2057.9609 1408.1348 L 2057.9609 1516.4414 L 1949.6543 1516.4414 L 1949.6543 1624.748 L 2057.9629 1624.748 L 2166.2695 1624.748 L 2166.2695 1516.4414 L 2274.5762 1516.4414 L 2274.5762 1408.1348 L 2382.8828 1408.1348 L 2382.8828 1299.8281 L 2491.1895 1299.8281 L 2491.1895 1191.5215 L 2599.4961 1191.5215 L 2599.4961 1083.2148 L 2707.8027 1083.2148 L 2707.8027 866.60156 L 2599.4961 866.60156 z M 433.35938 1733.0547 L 433.35938 1841.3613 L 1733.041 1841.3613 L 1733.041 1733.0547 L 433.35938 1733.0547 z M 1516.4277 1949.668 L 1516.4277 2057.9766 L 1408.1211 2057.9766 L 1408.1211 2166.2812 L 1299.8145 2166.2812 L 1299.8145 2274.5898 L 1191.5078 2274.5898 L 1191.5078 2382.8965 L 1083.2012 2382.8965 L 1083.2012 2491.2031 L 974.89453 2491.2031 L 974.89453 2599.5098 L 866.58789 2599.5098 L 866.58789 2707.8164 L 974.89453 2707.8164 L 1083.2012 2707.8164 L 1083.2012 2599.5098 L 1191.5078 2599.5098 L 1191.5078 2491.2031 L 1299.8145 2491.2031 L 1299.8145 2382.8965 L 1408.1211 2382.8965 L 1408.1211 2274.5898 L 1516.4277 2274.5898 L 1516.4277 2166.2832 L 1624.7344 2166.2832 L 1624.7344 1949.668 L 1516.4277 1949.668 z M 1949.6543 1949.668 L 1949.6543 2057.9766 L 2057.9609 2057.9766 L 2057.9609 2166.2832 L 2166.2695 2166.2832 L 2166.2695 2274.5898 L 2274.5762 2274.5898 L 2274.5762 2382.8965 L 2382.8828 2382.8965 L 2382.8828 2491.2031 L 2491.1895 2491.2031 L 2491.1895 2599.5098 L 2599.4961 2599.5098 L 2599.4961 2707.8164 L 2816.1094 2707.8164 L 2816.1094 2599.5098 L 2707.8027 2599.5098 L 2707.8027 2491.2031 L 2599.4961 2491.2031 L 2599.4961 2382.8965 L 2491.1895 2382.8965 L 2491.1895 2274.5898 L 2382.8828 2274.5898 L 2382.8828 2166.2812 L 2274.5762 2166.2812 L 2274.5762 2057.9766 L 2166.2695 2057.9766 L 2166.2695 1949.668 L 1949.6543 1949.668 z " /><path style="fill:#07259d;stroke:#07259d;stroke-width:1px;stroke-linejoin:round;shape-rendering:crispEdges;" d="M 866.58789 974.9082 L 866.58789 1083.2148 L 974.89453 1083.2148 L 974.89453 974.9082 L 866.58789 974.9082 z M 974.89453 1083.2148 L 974.89453 1191.5215 L 1083.2012 1191.5215 L 1083.2012 1083.2148 L 974.89453 1083.2148 z M 1083.2012 1191.5215 L 1083.2012 1299.8281 L 1191.5078 1299.8281 L 1191.5078 1191.5215 L 1083.2012 1191.5215 z M 1191.5078 1299.8281 L 1191.5078 1408.1348 L 1299.8145 1408.1348 L 1299.8145 1299.8281 L 1191.5078 1299.8281 z M 1299.8145 1408.1348 L 1299.8145 1516.4414 L 1408.1211 1516.4414 L 1408.1211 1408.1348 L 1299.8145 1408.1348 z M 1408.1211 1516.4414 L 1408.1211 1624.748 L 1516.4277 1624.748 L 1516.4277 1516.4414 L 1408.1211 1516.4414 z M 2599.4961 1083.2148 L 2599.4961 1191.5215 L 2707.8027 1191.5215 L 2707.8027 1083.2148 L 2599.4961 1083.2148 z M 2599.4961 1191.5215 L 2491.1895 1191.5215 L 2491.1895 1299.8281 L 2599.4961 1299.8281 L 2599.4961 1191.5215 z M 2491.1895 1299.8281 L 2382.8828 1299.8281 L 2382.8828 1408.1348 L 2491.1895 1408.1348 L 2491.1895 1299.8281 z M 2382.8828 1408.1348 L 2274.5762 1408.1348 L 2274.5762 1516.4414 L 2382.8828 1516.4414 L 2382.8828 1408.1348 z M 2274.5762 1516.4414 L 2166.2695 1516.4414 L 2166.2695 1624.748 L 2274.5762 1624.748 L 2274.5762 1516.4414 z M 1516.4277 1624.75 L 1516.4277 1733.0566 L 1624.7344 1733.0566 L 1624.7344 1624.75 L 1516.4277 1624.75 z M 1949.6543 1624.75 L 1949.6543 1733.0566 L 2166.2695 1733.0566 L 2166.2695 1624.75 L 1949.6543 1624.75 z M 433.35938 1841.3613 L 433.35938 1949.6699 L 1733.041 1949.6699 L 1733.041 1841.3613 L 433.35938 1841.3613 z M 1841.3477 1841.3613 L 1841.3477 1949.6699 L 3032.7227 1949.6699 L 3032.7227 1841.3613 L 1841.3477 1841.3613 z M 1949.6543 2057.9766 L 1949.6543 2166.2832 L 2057.9609 2166.2832 L 2057.9609 2274.5898 L 2166.2695 2274.5898 L 2166.2695 2166.2812 L 2057.9629 2166.2812 L 2057.9629 2057.9766 L 1949.6543 2057.9766 z M 2166.2695 2274.5898 L 2166.2695 2382.8965 L 2274.5762 2382.8965 L 2274.5762 2274.5898 L 2166.2695 2274.5898 z M 2274.5762 2382.8965 L 2274.5762 2491.2031 L 2382.8828 2491.2031 L 2382.8828 2382.8965 L 2274.5762 2382.8965 z M 2382.8828 2491.2031 L 2382.8828 2599.5098 L 2491.1895 2599.5098 L 2491.1895 2491.2031 L 2382.8828 2491.2031 z M 2491.1895 2599.5098 L 2491.1895 2707.8164 L 2599.4961 2707.8164 L 2599.4961 2599.5098 L 2491.1895 2599.5098 z M 2599.4961 2707.8164 L 2599.4961 2816.123 L 2816.1094 2816.123 L 2816.1094 2707.8164 L 2599.4961 2707.8164 z M 1516.4277 2166.2812 L 1516.4277 2274.5898 L 1624.7344 2274.5898 L 1624.7344 2166.2812 L 1516.4277 2166.2812 z M 1516.4277 2274.5898 L 1408.1211 2274.5898 L 1408.1211 2382.8965 L 1516.4277 2382.8965 L 1516.4277 2274.5898 z M 1408.1211 2382.8965 L 1299.8145 2382.8965 L 1299.8145 2491.2031 L 1408.1211 2491.2031 L 1408.1211 2382.8965 z M 1299.8145 2491.2031 L 1191.5078 2491.2031 L 1191.5078 2599.5098 L 1299.8145 2599.5098 L 1299.8145 2491.2031 z M 1191.5078 2599.5098 L 1083.2012 2599.5098 L 1083.2012 2707.8164 L 1191.5078 2707.8164 L 1191.5078 2599.5098 z M 1083.2012 2707.8164 L 866.58789 2707.8164 L 866.58789 2816.123 L 1083.2012 2816.123 L 1083.2012 2707.8164 z M 1733.043 2924.4297 L 1733.043 3032.7363 L 1841.3496 3032.7363 L 1841.3496 2924.4297 L 1733.043 2924.4297 z " /><path style="fill:#071a64;stroke:#071a64;stroke-width:1px;stroke-linejoin:round;shape-rendering:crispEdges;" d="M 108.43945 2491.2031 L 108.43945 2599.5098 L 216.74609 2599.5098 L 216.74609 2816.123 L 325.05273 2816.123 L 325.05273 2924.4297 L 433.35938 2924.4297 L 433.35938 3141.043 L 541.66602 3141.043 L 541.66602 2816.123 L 433.35938 2816.123 L 433.35938 2707.8164 L 325.05469 2707.8164 L 325.05469 2599.5098 L 325.05469 2491.2031 L 108.43945 2491.2031 z M 3141.0293 2491.2031 L 3141.0293 2599.5098 L 3141.0293 2707.8164 L 3032.7227 2707.8164 L 3032.7227 2816.123 L 2924.416 2816.123 L 2924.416 2924.4297 L 2816.1094 2924.4297 L 2816.1094 3032.7363 L 2707.8027 3032.7363 L 2707.8027 3141.043 L 2491.1895 3141.043 L 2491.1895 3249.3496 L 974.89453 3249.3496 L 974.89453 3141.043 L 758.28125 3141.043 L 758.28125 3032.7363 L 541.66797 3032.7363 L 541.66797 3141.0449 L 649.97461 3141.0449 L 649.97461 3249.3516 L 866.58789 3249.3516 L 866.58789 3357.6562 L 2599.4941 3357.6562 L 2599.4941 3249.3516 L 2707.8027 3249.3516 L 2816.1094 3249.3516 L 2816.1094 3141.043 L 2924.416 3141.043 L 2924.416 3032.7363 L 3032.7227 3032.7363 L 3032.7227 2924.4297 L 3141.0293 2924.4297 L 3141.0293 2816.123 L 3249.3379 2816.123 L 3249.3379 2599.5098 L 3357.6445 2599.5098 L 3357.6445 2491.2031 L 3141.0293 2491.2031 z " /></svg>