<?xml version='1.0' encoding='utf-8'?>
<svg xmlns="http://www.w3.org/2000/svg" viewBox="0 0 3357.5469999999996 3357.9799999999996" width="512" height="512" version="1.1" xml:space="preserve" style="fill-rule:evenodd;clip-rule:evenodd;stroke-linejoin:round;stroke-miterlimit:2;"><rect x="866.491" y="108.777" width="1732.908" height="108.307" style="fill:#37e58d;" /><rect x="649.877" y="217.083" width="324.92" height="108.307" style="fill:#37e58d;" /><rect x="974.797" y="217.083" width="1841.215" height="758.147" style="fill:#1ac767;" /><rect x="433.264" y="325.39" width="324.92" height="108.307" style="fill:#37e58d;" /><rect x="758.184" y="325.39" width="216.614" height="1841.215" style="fill:#1ac767;" /><rect x="2816.013" y="325.39" width="216.614" height="2491.056" style="fill:#1ac767;" /><rect x="324.957" y="433.697" width="216.614" height="108.307" style="fill:#37e58d;" /><rect x="541.57" y="433.697" width="216.614" height="1841.215" style="fill:#1ac767;" /><rect x="3032.626" y="433.697" width="108.307" height="2274.442" style="fill:#1ac767;" /><rect x="216.65" y="542.004" width="216.614" height="108.307" style="fill:#37e58d;" /><rect x="433.264" y="542.004" width="108.307" height="2599.363" style="fill:#1ac767;" /><rect x="3140.933" y="542.004" width="108.307" height="1949.522" style="fill:#1ac767;" /><rect x="216.65" y="650.311" width="108.307" height="216.614" style="fill:#37e58d;" /><rect x="324.957" y="650.311" width="108.307" height="2274.442" style="fill:#1ac767;" /><rect x="108.343" y="758.617" width="108.307" height="1841.215" style="fill:#37e58d;" /><rect x="3249.24" y="758.617" width="108.307" height="1841.215" style="fill:#196840;" /><rect x="216.65" y="866.924" width="108.307" height="1949.522" style="fill:#1ac767;" /><rect x="974.797" y="975.231" width="541.534" height="108.307" style="fill:#1ac767;" /><rect x="1516.331" y="975.231" width="433.227" height="216.614" style="fill:#fff;" /><rect x="1949.559" y="975.231" width="866.454" height="108.307" style="fill:#1ac767;" /><rect x="974.797" y="1083.538" width="433.227" height="108.307" style="fill:#1ac767;" /><rect x="1408.025" y="1083.538" width="108.307" height="324.92" style="fill:#fff;" /><rect x="1949.559" y="1083.538" width="108.307" height="324.92" style="fill:#fff;" /><rect x="2057.865" y="1083.538" width="758.147" height="108.307" style="fill:#1ac767;" /><rect x="974.797" y="1191.844" width="324.92" height="108.307" style="fill:#1ac767;" /><rect x="1299.718" y="1191.844" width="108.307" height="649.841" style="fill:#fff;" /><rect x="1516.331" y="1191.844" width="108.307" height="108.307" style="fill:#fff;" /><rect x="1624.638" y="1191.844" width="216.614" height="649.841" style="fill:#1ac767;" /><rect x="1841.252" y="1191.844" width="108.307" height="108.307" style="fill:#fff;" /><rect x="2057.865" y="1191.844" width="108.307" height="649.841" style="fill:#fff;" /><rect x="2166.172" y="1191.844" width="649.841" height="108.307" style="fill:#1ac767;" /><rect x="974.797" y="1300.151" width="216.614" height="758.147" style="fill:#1ac767;" /><rect x="1191.411" y="1300.151" width="108.307" height="433.227" style="fill:#fff;" /><rect x="1516.331" y="1300.151" width="108.307" height="433.227" style="fill:#1ac767;" /><rect x="1841.252" y="1300.151" width="108.307" height="433.227" style="fill:#1ac767;" /><rect x="2166.172" y="1300.151" width="108.307" height="433.227" style="fill:#fff;" /><rect x="2274.479" y="1300.151" width="541.534" height="758.147" style="fill:#1ac767;" /><rect x="1408.025" y="1408.458" width="108.307" height="216.614" style="fill:#1ac767;" /><rect x="1949.559" y="1408.458" width="108.307" height="216.614" style="fill:#1ac767;" /><rect x="1408.025" y="1625.072" width="108.307" height="433.227" style="fill:#fff;" /><rect x="1949.559" y="1625.072" width="108.307" height="433.227" style="fill:#fff;" /><rect x="1191.411" y="1733.378" width="108.307" height="216.614" style="fill:#1ac767;" /><rect x="1516.331" y="1733.378" width="108.307" height="324.92" style="fill:#fff;" /><rect x="1841.252" y="1733.378" width="108.307" height="324.92" style="fill:#fff;" /><rect x="2166.172" y="1733.378" width="108.307" height="216.614" style="fill:#1ac767;" /><rect x="1299.718" y="1841.685" width="108.307" height="108.307" style="fill:#1ac767;" /><rect x="1624.638" y="1841.685" width="216.614" height="216.614" style="fill:#fff;" /><rect x="2057.865" y="1841.685" width="108.307" height="108.307" style="fill:#1ac767;" /><rect x="1191.411" y="1949.992" width="216.614" height="216.614" style="fill:#fff;" /><rect x="2057.865" y="1949.992" width="216.614" height="216.614" style="fill:#fff;" /><rect x="974.797" y="2058.299" width="216.614" height="216.614" style="fill:#fff;" /><rect x="1408.025" y="2058.299" width="649.841" height="1191.375" style="fill:#1ac767;" /><rect x="2274.479" y="2058.299" width="216.614" height="216.614" style="fill:#fff;" /><rect x="2491.092" y="2058.299" width="324.92" height="108.307" style="fill:#1ac767;" /><rect x="758.184" y="2166.605" width="216.614" height="216.614" style="fill:#fff;" /><rect x="1191.411" y="2166.605" width="216.614" height="1083.068" style="fill:#1ac767;" /><rect x="2057.865" y="2166.605" width="216.614" height="1083.068" style="fill:#1ac767;" /><rect x="2491.092" y="2166.605" width="216.614" height="216.614" style="fill:#fff;" /><rect x="2707.706" y="2166.605" width="108.307" height="108.307" style="fill:#1ac767;" /><rect x="541.57" y="2274.912" width="108.307" height="866.454" style="fill:#1ac767;" /><rect x="649.877" y="2274.912" width="108.307" height="216.614" style="fill:#fff;" /><rect x="974.797" y="2274.912" width="216.614" height="974.761" style="fill:#1ac767;" /><rect x="2274.479" y="2274.912" width="216.614" height="974.761" style="fill:#1ac767;" /><rect x="2707.706" y="2274.912" width="108.307" height="216.614" style="fill:#fff;" /><rect x="758.184" y="2383.219" width="108.307" height="108.307" style="fill:#fff;" /><rect x="866.491" y="2383.219" width="108.307" height="866.454" style="fill:#1ac767;" /><rect x="2491.092" y="2383.219" width="108.307" height="758.147" style="fill:#1ac767;" /><rect x="2599.399" y="2383.219" width="108.307" height="108.307" style="fill:#fff;" /><rect x="649.877" y="2491.526" width="216.614" height="758.147" style="fill:#1ac767;" /><rect x="2599.399" y="2491.526" width="216.614" height="541.534" style="fill:#1ac767;" /><rect x="3140.933" y="2491.526" width="108.307" height="324.92" style="fill:#196840;" /><rect x="3032.626" y="2708.139" width="108.307" height="216.614" style="fill:#196840;" /><rect x="2816.013" y="2816.446" width="108.307" height="108.307" style="fill:#1ac767;" /><rect x="2924.32" y="2816.446" width="108.307" height="216.614" style="fill:#196840;" /><rect x="2816.013" y="2924.753" width="108.307" height="216.614" style="fill:#196840;" /><rect x="2599.399" y="3033.06" width="108.307" height="108.307" style="fill:#1ac767;" /><rect x="2707.706" y="3033.06" width="108.307" height="216.614" style="fill:#196840;" /><rect x="2491.092" y="3141.366" width="216.614" height="108.307" style="fill:#196840;" /><rect x="866.491" y="3249.673" width="1732.908" height="108.307" style="fill:#196840;" /></svg>