<?xml version='1.0' encoding='utf-8'?>
<svg xmlns="http://www.w3.org/2000/svg" viewBox="0 0 3357.6499999999996 3358.1319999999996" width="512" height="512" version="1.1" xml:space="preserve" style="fill-rule:evenodd;clip-rule:evenodd;stroke-linejoin:round;stroke-miterlimit:2;"><rect x="866.594" y="108.929" width="433.227" height="108.307" style="fill:#087bff;" /><rect x="1299.821" y="108.929" width="758.147" height="108.307" style="fill:#fb5a45;" /><rect x="2057.969" y="108.929" width="108.307" height="108.307" style="fill:#a03d30;" /><rect x="2166.275" y="108.929" width="541.534" height="108.307" style="fill:#087bff;" /><rect x="649.98" y="217.236" width="324.92" height="108.307" style="fill:#087bff;" /><rect x="974.901" y="217.236" width="433.227" height="866.454" style="fill:#061b32;" /><rect x="1408.128" y="217.236" width="541.534" height="108.307" style="fill:#fb5a45;" /><rect x="1949.662" y="217.236" width="108.307" height="108.307" style="fill:#a03d30;" /><rect x="2057.969" y="217.236" width="541.534" height="866.454" style="fill:#061b32;" /><rect x="2599.503" y="217.236" width="324.92" height="108.307" style="fill:#087bff;" /><rect x="433.367" y="325.542" width="324.92" height="108.307" style="fill:#087bff;" /><rect x="758.287" y="325.542" width="216.614" height="758.147" style="fill:#061b32;" /><rect x="1408.128" y="325.542" width="108.307" height="758.147" style="fill:#061b32;" /><rect x="1516.435" y="325.542" width="324.92" height="216.614" style="fill:#fb5a45;" /><rect x="1841.355" y="325.542" width="108.307" height="216.614" style="fill:#a03d30;" /><rect x="1949.662" y="325.542" width="108.307" height="758.147" style="fill:#061b32;" /><rect x="2599.503" y="325.542" width="216.614" height="1083.068" style="fill:#061b32;" /><rect x="2816.116" y="325.542" width="216.614" height="108.307" style="fill:#087bff;" /><rect x="325.06" y="433.849" width="216.614" height="108.307" style="fill:#087bff;" /><rect x="541.674" y="433.849" width="216.614" height="649.841" style="fill:#061b32;" /><rect x="2816.116" y="433.849" width="108.307" height="1191.375" style="fill:#061b32;" /><rect x="2924.423" y="433.849" width="216.614" height="108.307" style="fill:#087bff;" /><rect x="216.753" y="542.156" width="216.614" height="108.307" style="fill:#087bff;" /><rect x="433.367" y="542.156" width="108.307" height="541.534" style="fill:#061b32;" /><rect x="1516.435" y="542.156" width="108.307" height="2707.67" style="fill:#061b32;" /><rect x="1624.741" y="542.156" width="108.307" height="2707.67" style="fill:#fb5a45;" /><rect x="1733.048" y="542.156" width="108.307" height="2707.67" style="fill:#a03d30;" /><rect x="1841.355" y="542.156" width="108.307" height="2707.67" style="fill:#061b32;" /><rect x="2924.423" y="542.156" width="108.307" height="1083.068" style="fill:#061b32;" /><rect x="3032.73" y="542.156" width="216.614" height="108.307" style="fill:#087bff;" /><rect x="216.753" y="650.463" width="108.307" height="216.614" style="fill:#087bff;" /><rect x="325.06" y="650.463" width="108.307" height="433.227" style="fill:#061b32;" /><rect x="3032.73" y="650.463" width="108.307" height="1083.068" style="fill:#061b32;" /><rect x="108.447" y="758.77" width="108.307" height="1841.215" style="fill:#0062d3;" /><rect x="3141.036" y="758.77" width="108.307" height="1732.908" style="fill:#061b32;" /><rect x="3249.343" y="758.77" width="108.307" height="1841.215" style="fill:#0062d3;" /><rect x="216.753" y="867.076" width="108.307" height="1624.602" style="fill:#061b32;" /><rect x="325.06" y="1083.69" width="1191.375" height="108.307" style="fill:#2b83e2;" /><rect x="1949.662" y="1083.69" width="216.614" height="108.307" style="fill:#2b83e2;" /><rect x="2166.275" y="1083.69" width="433.227" height="108.307" style="fill:#061b32;" /><rect x="325.06" y="1191.997" width="108.307" height="216.614" style="fill:#2b83e2;" /><rect x="433.367" y="1191.997" width="1083.068" height="216.614" style="fill:#2d65a0;" /><rect x="1949.662" y="1191.997" width="108.307" height="1299.681" style="fill:#2b83e2;" /><rect x="2057.969" y="1191.997" width="108.307" height="1299.681" style="fill:#2d65a0;" /><rect x="2166.275" y="1191.997" width="216.614" height="108.307" style="fill:#2b83e2;" /><rect x="2382.889" y="1191.997" width="216.614" height="108.307" style="fill:#061b32;" /><rect x="2166.275" y="1300.303" width="216.614" height="1083.068" style="fill:#2d65a0;" /><rect x="2382.889" y="1300.303" width="108.307" height="108.307" style="fill:#2b83e2;" /><rect x="2491.196" y="1300.303" width="108.307" height="108.307" style="fill:#061b32;" /><rect x="325.06" y="1408.61" width="1191.375" height="216.614" style="fill:#061b32;" /><rect x="2382.889" y="1408.61" width="108.307" height="866.454" style="fill:#2d65a0;" /><rect x="2491.196" y="1408.61" width="216.614" height="108.307" style="fill:#2b83e2;" /><rect x="2707.809" y="1408.61" width="108.307" height="108.307" style="fill:#061b32;" /><rect x="2491.196" y="1516.917" width="324.92" height="541.534" style="fill:#2d65a0;" /><rect x="325.06" y="1625.224" width="324.92" height="541.534" style="fill:#061b32;" /><rect x="649.98" y="1625.224" width="866.454" height="108.307" style="fill:#2b83e2;" /><rect x="2816.116" y="1625.224" width="216.614" height="324.92" style="fill:#2d65a0;" /><rect x="649.98" y="1733.531" width="108.307" height="216.614" style="fill:#2b83e2;" /><rect x="758.287" y="1733.531" width="758.147" height="216.614" style="fill:#2d65a0;" /><rect x="3032.73" y="1733.531" width="108.307" height="108.307" style="fill:#2d65a0;" /><rect x="3032.73" y="1841.837" width="108.307" height="866.454" style="fill:#061b32;" /><rect x="649.98" y="1950.144" width="866.454" height="216.614" style="fill:#061b32;" /><rect x="2816.116" y="1950.144" width="216.614" height="866.454" style="fill:#061b32;" /><rect x="2491.196" y="2058.451" width="216.614" height="108.307" style="fill:#2d65a0;" /><rect x="2707.809" y="2058.451" width="108.307" height="974.761" style="fill:#061b32;" /><rect x="325.06" y="2166.758" width="108.307" height="541.534" style="fill:#061b32;" /><rect x="433.367" y="2166.758" width="1083.068" height="108.307" style="fill:#2b83e2;" /><rect x="2491.196" y="2166.758" width="216.614" height="974.761" style="fill:#061b32;" /><rect x="433.367" y="2275.064" width="108.307" height="216.614" style="fill:#2b83e2;" /><rect x="541.674" y="2275.064" width="974.761" height="216.614" style="fill:#2d65a0;" /><rect x="2382.889" y="2275.064" width="108.307" height="974.761" style="fill:#061b32;" /><rect x="2166.275" y="2383.371" width="216.614" height="866.454" style="fill:#061b32;" /><rect x="216.753" y="2491.678" width="108.307" height="324.92" style="fill:#0062d3;" /><rect x="433.367" y="2491.678" width="1083.068" height="324.92" style="fill:#061b32;" /><rect x="1949.662" y="2491.678" width="216.614" height="758.147" style="fill:#061b32;" /><rect x="3141.036" y="2491.678" width="108.307" height="324.92" style="fill:#0062d3;" /><rect x="325.06" y="2708.292" width="108.307" height="216.614" style="fill:#0062d3;" /><rect x="3032.73" y="2708.292" width="108.307" height="216.614" style="fill:#0062d3;" /><rect x="433.367" y="2816.598" width="108.307" height="216.614" style="fill:#0062d3;" /><rect x="541.674" y="2816.598" width="974.761" height="108.307" style="fill:#061b32;" /><rect x="2816.116" y="2816.598" width="108.307" height="108.307" style="fill:#061b32;" /><rect x="2924.423" y="2816.598" width="108.307" height="216.614" style="fill:#0062d3;" /><rect x="541.674" y="2924.905" width="108.307" height="216.614" style="fill:#0062d3;" /><rect x="649.98" y="2924.905" width="866.454" height="108.307" style="fill:#061b32;" /><rect x="2816.116" y="2924.905" width="108.307" height="216.614" style="fill:#0062d3;" /><rect x="649.98" y="3033.212" width="108.307" height="216.614" style="fill:#0062d3;" /><rect x="758.287" y="3033.212" width="758.147" height="108.307" style="fill:#061b32;" /><rect x="2707.809" y="3033.212" width="108.307" height="216.614" style="fill:#0062d3;" /><rect x="758.287" y="3141.519" width="216.614" height="108.307" style="fill:#0062d3;" /><rect x="974.901" y="3141.519" width="541.534" height="108.307" style="fill:#061b32;" /><rect x="2491.196" y="3141.519" width="216.614" height="108.307" style="fill:#0062d3;" /><rect x="866.594" y="3249.825" width="1732.908" height="108.307" style="fill:#0062d3;" /><rect x="3141.036" y="650.463" width="108.307" height="216.614" style="fill:#087bff;stroke:#000;stroke-width:0.02px;" /></svg>