<?xml version='1.0' encoding='utf-8'?>
<svg xmlns="http://www.w3.org/2000/svg" viewBox="0 0 3357.7909999999997 3357.9799999999996" width="512" height="512" version="1.1" xml:space="preserve" style="fill-rule:evenodd;clip-rule:evenodd;stroke-linejoin:round;stroke-miterlimit:2;"><rect x="866.735" y="108.777" width="1841.215" height="216.614" style="fill:#444546;" /><rect x="650.122" y="217.083" width="216.614" height="324.92" style="fill:#444546;" /><rect x="2707.95" y="217.083" width="216.614" height="324.92" style="fill:#444546;" /><rect x="433.508" y="325.39" width="216.614" height="216.614" style="fill:#444546;" /><rect x="866.735" y="325.39" width="108.307" height="108.307" style="fill:#898a8a;" /><rect x="975.042" y="325.39" width="1407.988" height="108.307" style="fill:#b9b9b9;" /><rect x="2383.03" y="325.39" width="108.307" height="108.307" style="fill:#898a8a;" /><rect x="2491.337" y="325.39" width="216.614" height="216.614" style="fill:#444546;" /><rect x="2924.564" y="325.39" width="108.307" height="324.92" style="fill:#444546;" /><rect x="325.201" y="433.697" width="108.307" height="216.614" style="fill:#444546;" /><rect x="866.735" y="433.697" width="1624.602" height="108.307" style="fill:#444546;" /><rect x="3032.871" y="433.697" width="108.307" height="216.614" style="fill:#444546;" /><rect x="216.894" y="542.004" width="108.307" height="108.307" style="fill:#444546;" /><rect x="433.508" y="542.004" width="2491.056" height="108.307" style="fill:#272727;" /><rect x="3141.178" y="542.004" width="108.307" height="108.307" style="fill:#444546;" /><rect x="216.894" y="650.311" width="108.307" height="216.614" style="fill:#383d3f;" /><rect x="325.201" y="650.311" width="2815.976" height="108.307" style="fill:#282f32;" /><rect x="3141.178" y="650.311" width="108.307" height="324.92" style="fill:#383d3f;" /><rect x="108.588" y="758.617" width="108.307" height="1841.215" style="fill:#383d3f;" /><rect x="325.201" y="758.617" width="2707.67" height="108.307" style="fill:#282f32;" /><rect x="3032.871" y="758.617" width="108.307" height="216.614" style="fill:#185195;" /><rect x="216.894" y="866.924" width="2599.363" height="108.307" style="fill:#282f32;" /><rect x="2816.257" y="866.924" width="216.614" height="108.307" style="fill:#185195;" /><rect x="3249.484" y="866.924" width="108.307" height="1732.908" style="fill:#383d3f;" /><rect x="216.894" y="975.231" width="2491.056" height="216.614" style="fill:#282f32;" /><rect x="2707.95" y="975.231" width="108.307" height="324.92" style="fill:#1c5eae;" /><rect x="2816.257" y="975.231" width="433.227" height="216.614" style="fill:#0f3868;" /><rect x="216.894" y="1191.844" width="324.92" height="108.307" style="fill:#282f32;" /><rect x="541.815" y="1191.844" width="541.534" height="108.307" style="fill:#84bbff;" /><rect x="1083.349" y="1191.844" width="216.614" height="108.307" style="fill:#65aaff;" /><rect x="1299.962" y="1191.844" width="1407.988" height="108.307" style="fill:#282f32;" /><rect x="2816.257" y="1191.844" width="216.614" height="216.614" style="fill:#282f32;" /><rect x="3032.871" y="1191.844" width="216.614" height="216.614" style="fill:#0f3868;" /><rect x="216.894" y="1300.151" width="216.614" height="108.307" style="fill:#282f32;" /><rect x="433.508" y="1300.151" width="216.614" height="108.307" style="fill:#84bbff;" /><rect x="650.122" y="1300.151" width="649.841" height="108.307" style="fill:#3584e4;" /><rect x="1299.962" y="1300.151" width="108.307" height="216.614" style="fill:#2677d3;" /><rect x="1408.269" y="1300.151" width="1407.988" height="108.307" style="fill:#282f32;" /><rect x="216.894" y="1408.458" width="108.307" height="108.307" style="fill:#282f32;" /><rect x="325.201" y="1408.458" width="216.614" height="108.307" style="fill:#84bbff;" /><rect x="541.815" y="1408.458" width="433.227" height="108.307" style="fill:#3585e2;" /><rect x="975.042" y="1408.458" width="324.92" height="108.307" style="fill:#3586e1;" /><rect x="1408.269" y="1408.458" width="108.307" height="216.614" style="fill:#2677d3;" /><rect x="1516.576" y="1408.458" width="974.761" height="108.307" style="fill:#282f32;" /><rect x="2491.337" y="1408.458" width="108.307" height="216.614" style="fill:#65aaff;" /><rect x="2599.644" y="1408.458" width="324.92" height="108.307" style="fill:#84bbff;" /><rect x="2924.564" y="1408.458" width="108.307" height="108.307" style="fill:#65aaff;" /><rect x="3032.871" y="1408.458" width="108.307" height="216.614" style="fill:#2677d3;" /><rect x="3141.178" y="1408.458" width="108.307" height="108.307" style="fill:#0f3868;" /><rect x="216.894" y="1516.765" width="108.307" height="216.614" style="fill:#65aaff;" /><rect x="325.201" y="1516.765" width="108.307" height="108.307" style="fill:#84bbff;" /><rect x="433.508" y="1516.765" width="324.92" height="108.307" style="fill:#3688df;" /><rect x="758.428" y="1516.765" width="108.307" height="108.307" style="fill:#3689df;" /><rect x="866.735" y="1516.765" width="216.614" height="108.307" style="fill:#3689de;" /><rect x="1083.349" y="1516.765" width="216.614" height="108.307" style="fill:#3789de;" /><rect x="1299.962" y="1516.765" width="108.307" height="108.307" style="fill:#378ade;" /><rect x="1516.576" y="1516.765" width="108.307" height="216.614" style="fill:#2677d3;" /><rect x="1624.883" y="1516.765" width="758.147" height="108.307" style="fill:#282f32;" /><rect x="2383.03" y="1516.765" width="108.307" height="216.614" style="fill:#65aaff;" /><rect x="2599.644" y="1516.765" width="108.307" height="108.307" style="fill:#378cdb;" /><rect x="2707.95" y="1516.765" width="216.614" height="108.307" style="fill:#388cdb;" /><rect x="2924.564" y="1516.765" width="108.307" height="108.307" style="fill:#388ddb;" /><rect x="3141.178" y="1516.765" width="108.307" height="108.307" style="fill:#2677d3;" /><rect x="325.201" y="1625.072" width="216.614" height="108.307" style="fill:#378bdc;" /><rect x="541.815" y="1625.072" width="216.614" height="108.307" style="fill:#378cdc;" /><rect x="758.428" y="1625.072" width="108.307" height="108.307" style="fill:#378cdb;" /><rect x="866.735" y="1625.072" width="216.614" height="108.307" style="fill:#388cdb;" /><rect x="1083.349" y="1625.072" width="324.92" height="108.307" style="fill:#388ddb;" /><rect x="1408.269" y="1625.072" width="108.307" height="108.307" style="fill:#388dda;" /><rect x="1624.883" y="1625.072" width="108.307" height="216.614" style="fill:#2677d3;" /><rect x="1733.189" y="1625.072" width="541.534" height="108.307" style="fill:#282f32;" /><rect x="2274.723" y="1625.072" width="108.307" height="216.614" style="fill:#65aaff;" /><rect x="2491.337" y="1625.072" width="108.307" height="108.307" style="fill:#398fd9;" /><rect x="2599.644" y="1625.072" width="216.614" height="108.307" style="fill:#398fd8;" /><rect x="2816.257" y="1625.072" width="324.92" height="108.307" style="fill:#3990d8;" /><rect x="3141.178" y="1625.072" width="108.307" height="108.307" style="fill:#3990d7;" /><rect x="216.894" y="1733.378" width="108.307" height="108.307" style="fill:#388ed9;" /><rect x="325.201" y="1733.378" width="216.614" height="108.307" style="fill:#388fd9;" /><rect x="541.815" y="1733.378" width="216.614" height="108.307" style="fill:#398fd9;" /><rect x="758.428" y="1733.378" width="216.614" height="108.307" style="fill:#398fd8;" /><rect x="975.042" y="1733.378" width="324.92" height="108.307" style="fill:#3990d8;" /><rect x="1299.962" y="1733.378" width="216.614" height="108.307" style="fill:#3990d7;" /><rect x="1516.576" y="1733.378" width="108.307" height="108.307" style="fill:#3991d7;" /><rect x="1733.189" y="1733.378" width="324.92" height="108.307" style="fill:#2677d3;" /><rect x="2058.11" y="1733.378" width="216.614" height="108.307" style="fill:#84bbff;" /><rect x="2383.03" y="1733.378" width="108.307" height="108.307" style="fill:#3a92d6;" /><rect x="2491.337" y="1733.378" width="108.307" height="108.307" style="fill:#3a92d5;" /><rect x="2599.644" y="1733.378" width="433.227" height="108.307" style="fill:#3a93d5;" /><rect x="3032.871" y="1733.378" width="108.307" height="108.307" style="fill:#3a93d4;" /><rect x="3141.178" y="1733.378" width="108.307" height="108.307" style="fill:#3a94d4;" /><rect x="216.894" y="1841.685" width="108.307" height="108.307" style="fill:#3992d6;" /><rect x="325.201" y="1841.685" width="324.92" height="108.307" style="fill:#3a92d6;" /><rect x="650.122" y="1841.685" width="108.307" height="108.307" style="fill:#3a92d5;" /><rect x="758.428" y="1841.685" width="433.227" height="108.307" style="fill:#3a93d5;" /><rect x="1191.655" y="1841.685" width="108.307" height="108.307" style="fill:#3a93d4;" /><rect x="1299.962" y="1841.685" width="433.227" height="108.307" style="fill:#3a94d4;" /><rect x="1733.189" y="1841.685" width="108.307" height="108.307" style="fill:#3a94d3;" /><rect x="1841.496" y="1841.685" width="541.534" height="108.307" style="fill:#3b95d3;" /><rect x="2383.03" y="1841.685" width="541.534" height="108.307" style="fill:#3b96d2;" /><rect x="2924.564" y="1841.685" width="324.92" height="108.307" style="fill:#3b97d1;" /><rect x="216.894" y="1949.992" width="324.92" height="108.307" style="fill:#3b95d3;" /><rect x="541.815" y="1949.992" width="541.534" height="108.307" style="fill:#3b96d2;" /><rect x="1083.349" y="1949.992" width="541.534" height="108.307" style="fill:#3b97d1;" /><rect x="1624.883" y="1949.992" width="108.307" height="108.307" style="fill:#3c98d1;" /><rect x="1733.189" y="1949.992" width="433.227" height="108.307" style="fill:#3c98d0;" /><rect x="2166.417" y="1949.992" width="108.307" height="108.307" style="fill:#3c99d0;" /><rect x="2274.723" y="1949.992" width="433.227" height="108.307" style="fill:#3c99cf;" /><rect x="2707.95" y="1949.992" width="108.307" height="108.307" style="fill:#3c9acf;" /><rect x="2816.257" y="1949.992" width="324.92" height="108.307" style="fill:#3c9ace;" /><rect x="3141.178" y="1949.992" width="108.307" height="108.307" style="fill:#3d9ace;" /><rect x="216.894" y="2058.299" width="108.307" height="108.307" style="fill:#3c98d0;" /><rect x="325.201" y="2058.299" width="108.307" height="108.307" style="fill:#3c99d0;" /><rect x="433.508" y="2058.299" width="433.227" height="108.307" style="fill:#3c99cf;" /><rect x="866.735" y="2058.299" width="108.307" height="108.307" style="fill:#3c9acf;" /><rect x="975.042" y="2058.299" width="324.92" height="108.307" style="fill:#3c9ace;" /><rect x="1299.962" y="2058.299" width="216.614" height="108.307" style="fill:#3d9ace;" /><rect x="1516.576" y="2058.299" width="108.307" height="108.307" style="fill:#3d9bce;" /><rect x="1624.883" y="2058.299" width="433.227" height="108.307" style="fill:#3d9bcd;" /><rect x="2058.11" y="2058.299" width="108.307" height="108.307" style="fill:#3d9ccd;" /><rect x="2166.417" y="2058.299" width="433.227" height="108.307" style="fill:#3d9ccc;" /><rect x="2599.644" y="2058.299" width="108.307" height="108.307" style="fill:#3d9dcc;" /><rect x="2707.95" y="2058.299" width="216.614" height="108.307" style="fill:#3d9dcb;" /><rect x="2924.564" y="2058.299" width="216.614" height="108.307" style="fill:#3e9dcb;" /><rect x="3141.178" y="2058.299" width="108.307" height="108.307" style="fill:#3e9ecb;" /><rect x="216.894" y="2166.605" width="108.307" height="108.307" style="fill:#3d9ccd;" /><rect x="325.201" y="2166.605" width="433.227" height="108.307" style="fill:#3d9ccc;" /><rect x="758.428" y="2166.605" width="108.307" height="108.307" style="fill:#3d9dcc;" /><rect x="866.735" y="2166.605" width="216.614" height="108.307" style="fill:#3d9dcb;" /><rect x="1083.349" y="2166.605" width="216.614" height="108.307" style="fill:#3e9dcb;" /><rect x="1299.962" y="2166.605" width="216.614" height="108.307" style="fill:#3e9ecb;" /><rect x="1516.576" y="2166.605" width="324.92" height="108.307" style="fill:#3e9eca;" /><rect x="1841.496" y="2166.605" width="216.614" height="108.307" style="fill:#3e9fca;" /><rect x="2058.11" y="2166.605" width="324.92" height="108.307" style="fill:#3e9fc9;" /><rect x="2383.03" y="2166.605" width="216.614" height="108.307" style="fill:#3ea0c9;" /><rect x="2599.644" y="2166.605" width="108.307" height="108.307" style="fill:#3fa0c9;" /><rect x="2707.95" y="2166.605" width="216.614" height="108.307" style="fill:#3fa0c8;" /><rect x="2924.564" y="2166.605" width="324.92" height="108.307" style="fill:#3fa1c8;" /><rect x="216.894" y="2274.912" width="324.92" height="108.307" style="fill:#3e9fc9;" /><rect x="541.815" y="2274.912" width="216.614" height="108.307" style="fill:#3ea0c9;" /><rect x="758.428" y="2274.912" width="108.307" height="108.307" style="fill:#3fa0c9;" /><rect x="866.735" y="2274.912" width="216.614" height="108.307" style="fill:#3fa0c8;" /><rect x="1083.349" y="2274.912" width="324.92" height="108.307" style="fill:#3fa1c8;" /><rect x="1408.269" y="2274.912" width="216.614" height="108.307" style="fill:#3fa1c7;" /><rect x="1624.883" y="2274.912" width="324.92" height="108.307" style="fill:#3fa2c7;" /><rect x="1949.803" y="2274.912" width="216.614" height="108.307" style="fill:#3fa2c6;" /><rect x="2166.417" y="2274.912" width="216.614" height="108.307" style="fill:#3fa3c6;" /><rect x="2383.03" y="2274.912" width="216.614" height="108.307" style="fill:#40a3c6;" /><rect x="2599.644" y="2274.912" width="108.307" height="108.307" style="fill:#40a3c5;" /><rect x="2707.95" y="2274.912" width="433.227" height="108.307" style="fill:#40a4c5;" /><rect x="3141.178" y="2274.912" width="108.307" height="108.307" style="fill:#40a4c4;" /><rect x="216.894" y="2383.219" width="108.307" height="108.307" style="fill:#3fa2c6;" /><rect x="325.201" y="2383.219" width="216.614" height="108.307" style="fill:#3fa3c6;" /><rect x="541.815" y="2383.219" width="216.614" height="108.307" style="fill:#40a3c6;" /><rect x="758.428" y="2383.219" width="108.307" height="108.307" style="fill:#40a3c5;" /><rect x="866.735" y="2383.219" width="433.227" height="108.307" style="fill:#40a4c5;" /><rect x="1299.962" y="2383.219" width="108.307" height="108.307" style="fill:#40a4c4;" /><rect x="1408.269" y="2383.219" width="433.227" height="108.307" style="fill:#40a5c4;" /><rect x="1841.496" y="2383.219" width="108.307" height="108.307" style="fill:#40a5c3;" /><rect x="1949.803" y="2383.219" width="108.307" height="108.307" style="fill:#40a6c3;" /><rect x="2058.11" y="2383.219" width="433.227" height="108.307" style="fill:#41a6c3;" /><rect x="2491.337" y="2383.219" width="108.307" height="108.307" style="fill:#41a6c2;" /><rect x="2599.644" y="2383.219" width="433.227" height="108.307" style="fill:#41a7c2;" /><rect x="3032.871" y="2383.219" width="108.307" height="108.307" style="fill:#41a7c1;" /><rect x="3141.178" y="2383.219" width="108.307" height="108.307" style="fill:#41a8c1;" /><rect x="216.894" y="2491.526" width="108.307" height="324.92" style="fill:#383d3f;" /><rect x="325.201" y="2491.526" width="324.92" height="108.307" style="fill:#41a6c3;" /><rect x="650.122" y="2491.526" width="108.307" height="108.307" style="fill:#41a6c2;" /><rect x="758.428" y="2491.526" width="433.227" height="108.307" style="fill:#41a7c2;" /><rect x="1191.655" y="2491.526" width="108.307" height="108.307" style="fill:#41a7c1;" /><rect x="1299.962" y="2491.526" width="433.227" height="108.307" style="fill:#41a8c1;" /><rect x="1733.189" y="2491.526" width="108.307" height="108.307" style="fill:#41a8c0;" /><rect x="1841.496" y="2491.526" width="541.534" height="108.307" style="fill:#42a9c0;" /><rect x="2383.03" y="2491.526" width="541.534" height="108.307" style="fill:#42aabf;" /><rect x="2924.564" y="2491.526" width="216.614" height="108.307" style="fill:#42abbe;" /><rect x="3141.178" y="2491.526" width="108.307" height="324.92" style="fill:#383d3f;" /><rect x="325.201" y="2599.833" width="216.614" height="108.307" style="fill:#42a9c0;" /><rect x="541.815" y="2599.833" width="541.534" height="108.307" style="fill:#42aabf;" /><rect x="1083.349" y="2599.833" width="433.227" height="108.307" style="fill:#42abbe;" /><rect x="1516.576" y="2599.833" width="108.307" height="108.307" style="fill:#43abbe;" /><rect x="1624.883" y="2599.833" width="108.307" height="108.307" style="fill:#43acbe;" /><rect x="1733.189" y="2599.833" width="433.227" height="108.307" style="fill:#43acbd;" /><rect x="2166.417" y="2599.833" width="108.307" height="108.307" style="fill:#43adbd;" /><rect x="2274.723" y="2599.833" width="433.227" height="108.307" style="fill:#43adbc;" /><rect x="2707.95" y="2599.833" width="108.307" height="108.307" style="fill:#43aebc;" /><rect x="2816.257" y="2599.833" width="324.92" height="108.307" style="fill:#43aebb;" /><rect x="325.201" y="2708.139" width="108.307" height="216.614" style="fill:#383d3f;" /><rect x="433.508" y="2708.139" width="433.227" height="108.307" style="fill:#43adbc;" /><rect x="866.735" y="2708.139" width="108.307" height="108.307" style="fill:#43aebc;" /><rect x="975.042" y="2708.139" width="324.92" height="108.307" style="fill:#43aebb;" /><rect x="1299.962" y="2708.139" width="108.307" height="108.307" style="fill:#44aebb;" /><rect x="1408.269" y="2708.139" width="216.614" height="108.307" style="fill:#44afbb;" /><rect x="1624.883" y="2708.139" width="324.92" height="108.307" style="fill:#44afba;" /><rect x="1949.803" y="2708.139" width="216.614" height="108.307" style="fill:#44b0ba;" /><rect x="2166.417" y="2708.139" width="324.92" height="108.307" style="fill:#44b0b9;" /><rect x="2491.337" y="2708.139" width="216.614" height="108.307" style="fill:#44b1b9;" /><rect x="2707.95" y="2708.139" width="108.307" height="108.307" style="fill:#44b1b8;" /><rect x="2816.257" y="2708.139" width="216.614" height="108.307" style="fill:#45b1b8;" /><rect x="3032.871" y="2708.139" width="108.307" height="216.614" style="fill:#383d3f;" /><rect x="433.508" y="2816.446" width="108.307" height="216.614" style="fill:#383d3f;" /><rect x="541.815" y="2816.446" width="108.307" height="108.307" style="fill:#44b0b9;" /><rect x="650.122" y="2816.446" width="216.614" height="108.307" style="fill:#44b1b9;" /><rect x="866.735" y="2816.446" width="108.307" height="108.307" style="fill:#44b1b8;" /><rect x="975.042" y="2816.446" width="324.92" height="108.307" style="fill:#45b1b8;" /><rect x="1299.962" y="2816.446" width="216.614" height="108.307" style="fill:#45b2b8;" /><rect x="1516.576" y="2816.446" width="324.92" height="108.307" style="fill:#45b2b7;" /><rect x="1841.496" y="2816.446" width="216.614" height="108.307" style="fill:#45b3b7;" /><rect x="2058.11" y="2816.446" width="324.92" height="108.307" style="fill:#45b3b6;" /><rect x="2383.03" y="2816.446" width="216.614" height="108.307" style="fill:#45b4b6;" /><rect x="2599.644" y="2816.446" width="108.307" height="108.307" style="fill:#46b4b6;" /><rect x="2707.95" y="2816.446" width="216.614" height="108.307" style="fill:#46b4b5;" /><rect x="2924.564" y="2816.446" width="108.307" height="216.614" style="fill:#383d3f;" /><rect x="541.815" y="2924.753" width="108.307" height="216.614" style="fill:#383d3f;" /><rect x="650.122" y="2924.753" width="108.307" height="108.307" style="fill:#45b4b6;" /><rect x="758.428" y="2924.753" width="108.307" height="108.307" style="fill:#46b4b6;" /><rect x="866.735" y="2924.753" width="216.614" height="108.307" style="fill:#46b4b5;" /><rect x="1083.349" y="2924.753" width="324.92" height="108.307" style="fill:#46b5b5;" /><rect x="1408.269" y="2924.753" width="216.614" height="108.307" style="fill:#46b5b4;" /><rect x="1624.883" y="2924.753" width="324.92" height="108.307" style="fill:#46b6b4;" /><rect x="1949.803" y="2924.753" width="216.614" height="108.307" style="fill:#46b6b3;" /><rect x="2166.417" y="2924.753" width="108.307" height="108.307" style="fill:#46b7b3;" /><rect x="2274.723" y="2924.753" width="324.92" height="108.307" style="fill:#47b7b3;" /><rect x="2599.644" y="2924.753" width="108.307" height="108.307" style="fill:#47b7b2;" /><rect x="2707.95" y="2924.753" width="108.307" height="108.307" style="fill:#47b8b2;" /><rect x="2816.257" y="2924.753" width="108.307" height="216.614" style="fill:#383d3f;" /><rect x="650.122" y="3033.06" width="108.307" height="216.614" style="fill:#383d3f;" /><rect x="758.428" y="3033.06" width="108.307" height="108.307" style="fill:#47b7b2;" /><rect x="866.735" y="3033.06" width="433.227" height="108.307" style="fill:#47b8b2;" /><rect x="1299.962" y="3033.06" width="108.307" height="108.307" style="fill:#47b8b1;" /><rect x="1408.269" y="3033.06" width="433.227" height="108.307" style="fill:#47b9b1;" /><rect x="1841.496" y="3033.06" width="108.307" height="108.307" style="fill:#47b9b0;" /><rect x="1949.803" y="3033.06" width="108.307" height="108.307" style="fill:#47bab0;" /><rect x="2058.11" y="3033.06" width="433.227" height="108.307" style="fill:#48bab0;" /><rect x="2491.337" y="3033.06" width="216.614" height="108.307" style="fill:#48bbaf;" /><rect x="2707.95" y="3033.06" width="108.307" height="216.614" style="fill:#383d3f;" /><rect x="758.428" y="3141.366" width="216.614" height="108.307" style="fill:#383d3f;" /><rect x="975.042" y="3141.366" width="216.614" height="108.307" style="fill:#48bbaf;" /><rect x="1191.655" y="3141.366" width="541.534" height="108.307" style="fill:#48bcae;" /><rect x="1733.189" y="3141.366" width="758.147" height="108.307" style="fill:#49bdae;" /><rect x="2491.337" y="3141.366" width="216.614" height="108.307" style="fill:#383d3f;" /><rect x="866.735" y="3249.673" width="1732.908" height="108.307" style="fill:#383d3f;" /></svg>