<?xml version='1.0' encoding='utf-8'?>
<svg xmlns="http://www.w3.org/2000/svg" viewBox="0 0 3357.669 3357.98" width="512" height="512" version="1.1" xml:space="preserve" style="fill-rule:evenodd;clip-rule:evenodd;stroke-linejoin:round;stroke-miterlimit:2;"><rect x="866.613" y="108.777" width="1191.375" height="108.307" style="fill:#61dbdb;" /><rect x="2057.988" y="108.777" width="541.534" height="108.307" style="fill:#00a4a4;" /><rect x="649.999" y="217.083" width="324.92" height="108.307" style="fill:#61dbdb;" /><rect x="974.92" y="217.083" width="1516.295" height="216.614" style="fill:#001a1a;" /><rect x="2491.215" y="217.083" width="324.92" height="108.307" style="fill:#005d5d;" /><rect x="541.693" y="325.39" width="216.614" height="108.307" style="fill:#61dbdb;" /><rect x="758.306" y="325.39" width="216.614" height="433.227" style="fill:#001a1a;" /><rect x="2491.215" y="325.39" width="216.614" height="433.227" style="fill:#001a1a;" /><rect x="2707.828" y="325.39" width="216.614" height="108.307" style="fill:#005d5d;" /><rect x="433.386" y="433.697" width="216.614" height="108.307" style="fill:#61dbdb;" /><rect x="649.999" y="433.697" width="108.307" height="541.534" style="fill:#001a1a;" /><rect x="974.92" y="433.697" width="541.534" height="108.307" style="fill:#001a1a;" /><rect x="1516.454" y="433.697" width="324.92" height="108.307" style="fill:#61dbdb;" /><rect x="1841.374" y="433.697" width="108.307" height="216.614" style="fill:#017777;" /><rect x="1949.681" y="433.697" width="541.534" height="108.307" style="fill:#001a1a;" /><rect x="2707.828" y="433.697" width="108.307" height="541.534" style="fill:#001a1a;" /><rect x="2816.135" y="433.697" width="216.614" height="108.307" style="fill:#005d5d;" /><rect x="325.079" y="542.004" width="216.614" height="108.307" style="fill:#61dbdb;" /><rect x="541.693" y="542.004" width="108.307" height="1083.068" style="fill:#001a1a;" /><rect x="974.92" y="542.004" width="433.227" height="108.307" style="fill:#001a1a;" /><rect x="1408.147" y="542.004" width="216.614" height="108.307" style="fill:#61dbdb;" /><rect x="1624.76" y="542.004" width="216.614" height="108.307" style="fill:#017777;" /><rect x="1949.681" y="542.004" width="108.307" height="108.307" style="fill:#017777;" /><rect x="2057.988" y="542.004" width="433.227" height="108.307" style="fill:#001a1a;" /><rect x="2816.135" y="542.004" width="108.307" height="433.227" style="fill:#001a1a;" /><rect x="2924.442" y="542.004" width="216.614" height="108.307" style="fill:#005d5d;" /><rect x="216.772" y="650.311" width="216.614" height="108.307" style="fill:#61dbdb;" /><rect x="433.386" y="650.311" width="108.307" height="758.147" style="fill:#001a1a;" /><rect x="974.92" y="650.311" width="108.307" height="216.614" style="fill:#61dbdb;" /><rect x="1083.226" y="650.311" width="1299.681" height="433.227" style="fill:#001a1a;" /><rect x="2382.908" y="650.311" width="108.307" height="324.92" style="fill:#005d5d;" /><rect x="2924.442" y="650.311" width="108.307" height="758.147" style="fill:#001a1a;" /><rect x="3032.749" y="650.311" width="216.614" height="108.307" style="fill:#005d5d;" /><rect x="216.772" y="758.617" width="108.307" height="216.614" style="fill:#61dbdb;" /><rect x="325.079" y="758.617" width="108.307" height="1949.522" style="fill:#001a1a;" /><rect x="758.306" y="758.617" width="108.307" height="108.307" style="fill:#001a1a;" /><rect x="866.613" y="758.617" width="108.307" height="216.614" style="fill:#61dbdb;" /><rect x="2491.215" y="758.617" width="108.307" height="324.92" style="fill:#005d5d;" /><rect x="2599.521" y="758.617" width="108.307" height="108.307" style="fill:#001a1a;" /><rect x="3032.749" y="758.617" width="108.307" height="758.147" style="fill:#001a1a;" /><rect x="3141.055" y="758.617" width="108.307" height="216.614" style="fill:#005d5d;" /><rect x="108.465" y="866.924" width="108.307" height="1407.988" style="fill:#61dbdb;" /><rect x="758.306" y="866.924" width="108.307" height="216.614" style="fill:#61dbdb;" /><rect x="974.92" y="866.924" width="108.307" height="108.307" style="fill:#017777;" /><rect x="2599.521" y="866.924" width="108.307" height="216.614" style="fill:#005d5d;" /><rect x="3249.362" y="866.924" width="108.307" height="1732.908" style="fill:#004b4b;" /><rect x="216.772" y="975.231" width="108.307" height="1516.295" style="fill:#001a1a;" /><rect x="649.999" y="975.231" width="108.307" height="108.307" style="fill:#61dbdb;" /><rect x="866.613" y="975.231" width="108.307" height="108.307" style="fill:#017777;" /><rect x="974.92" y="975.231" width="108.307" height="1624.602" style="fill:#001a1a;" /><rect x="2382.908" y="975.231" width="108.307" height="541.534" style="fill:#001a1a;" /><rect x="2707.828" y="975.231" width="108.307" height="108.307" style="fill:#005d5d;" /><rect x="2816.135" y="975.231" width="108.307" height="216.614" style="fill:#001414;" /><rect x="3141.055" y="975.231" width="108.307" height="1516.295" style="fill:#001a1a;" /><rect x="649.999" y="1083.538" width="324.92" height="1299.681" style="fill:#001a1a;" /><rect x="1083.226" y="1083.538" width="324.92" height="108.307" style="fill:#001a1a;" /><rect x="1408.147" y="1083.538" width="433.227" height="108.307" style="fill:#61dbdb;" /><rect x="1841.374" y="1083.538" width="216.614" height="108.307" style="fill:#017777;" /><rect x="2057.988" y="1083.538" width="324.92" height="108.307" style="fill:#001a1a;" /><rect x="2491.215" y="1083.538" width="324.92" height="108.307" style="fill:#001414;" /><rect x="1083.226" y="1191.844" width="216.614" height="108.307" style="fill:#001a1a;" /><rect x="1299.84" y="1191.844" width="108.307" height="108.307" style="fill:#61dbdb;" /><rect x="1408.147" y="1191.844" width="108.307" height="108.307" style="fill:#017777;" /><rect x="1516.454" y="1191.844" width="433.227" height="1083.068" style="fill:#006969;" /><rect x="1949.681" y="1191.844" width="216.614" height="108.307" style="fill:#017777;" /><rect x="2166.294" y="1191.844" width="216.614" height="108.307" style="fill:#001a1a;" /><rect x="2491.215" y="1191.844" width="433.227" height="433.227" style="fill:#001a1a;" /><rect x="1083.226" y="1300.151" width="108.307" height="216.614" style="fill:#001a1a;" /><rect x="1191.533" y="1300.151" width="108.307" height="216.614" style="fill:#61dbdb;" /><rect x="1299.84" y="1300.151" width="108.307" height="108.307" style="fill:#017777;" /><rect x="1408.147" y="1300.151" width="108.307" height="866.454" style="fill:#006969;" /><rect x="1949.681" y="1300.151" width="108.307" height="866.454" style="fill:#006969;" /><rect x="2057.988" y="1300.151" width="216.614" height="108.307" style="fill:#005d5d;" /><rect x="2274.601" y="1300.151" width="108.307" height="216.614" style="fill:#001a1a;" /><rect x="433.386" y="1408.458" width="108.307" height="758.147" style="fill:#61dbdb;" /><rect x="1299.84" y="1408.458" width="108.307" height="649.841" style="fill:#006969;" /><rect x="2057.988" y="1408.458" width="108.307" height="649.841" style="fill:#006969;" /><rect x="2166.294" y="1408.458" width="108.307" height="216.614" style="fill:#005d5d;" /><rect x="2924.442" y="1408.458" width="108.307" height="758.147" style="fill:#005d5d;" /><rect x="1083.226" y="1516.765" width="108.307" height="433.227" style="fill:#61dbdb;" /><rect x="1191.533" y="1516.765" width="108.307" height="108.307" style="fill:#017777;" /><rect x="2274.601" y="1516.765" width="108.307" height="433.227" style="fill:#005d5d;" /><rect x="2382.908" y="1516.765" width="108.307" height="541.534" style="fill:#001414;" /><rect x="3032.749" y="1516.765" width="108.307" height="758.147" style="fill:#001414;" /><rect x="541.693" y="1625.072" width="108.307" height="324.92" style="fill:#017777;" /><rect x="1191.533" y="1625.072" width="108.307" height="216.614" style="fill:#006969;" /><rect x="2166.294" y="1625.072" width="108.307" height="216.614" style="fill:#006969;" /><rect x="2491.215" y="1625.072" width="324.92" height="758.147" style="fill:#001a1a;" /><rect x="2816.135" y="1625.072" width="108.307" height="324.92" style="fill:#005d5d;" /><rect x="1191.533" y="1841.685" width="108.307" height="324.92" style="fill:#61dbdb;" /><rect x="2166.294" y="1841.685" width="108.307" height="324.92" style="fill:#005d5d;" /><rect x="541.693" y="1949.992" width="108.307" height="433.227" style="fill:#001a1a;" /><rect x="1083.226" y="1949.992" width="108.307" height="1299.681" style="fill:#001a1a;" /><rect x="2274.601" y="1949.992" width="108.307" height="324.92" style="fill:#001414;" /><rect x="2816.135" y="1949.992" width="108.307" height="433.227" style="fill:#001a1a;" /><rect x="1299.84" y="2058.299" width="108.307" height="216.614" style="fill:#017777;" /><rect x="2057.988" y="2058.299" width="108.307" height="216.614" style="fill:#005d5d;" /><rect x="2382.908" y="2058.299" width="108.307" height="541.534" style="fill:#001a1a;" /><rect x="433.386" y="2166.605" width="108.307" height="649.841" style="fill:#001a1a;" /><rect x="1191.533" y="2166.605" width="108.307" height="1083.068" style="fill:#001a1a;" /><rect x="1408.147" y="2166.605" width="108.307" height="216.614" style="fill:#005d5d;" /><rect x="1949.681" y="2166.605" width="108.307" height="216.614" style="fill:#005d5d;" /><rect x="2166.294" y="2166.605" width="108.307" height="216.614" style="fill:#001414;" /><rect x="2924.442" y="2166.605" width="108.307" height="649.841" style="fill:#001a1a;" /><rect x="108.465" y="2274.912" width="108.307" height="324.92" style="fill:#00a4a4;" /><rect x="1299.84" y="2274.912" width="108.307" height="974.761" style="fill:#001a1a;" /><rect x="1516.454" y="2274.912" width="433.227" height="108.307" style="fill:#005d5d;" /><rect x="2057.988" y="2274.912" width="108.307" height="216.614" style="fill:#001414;" /><rect x="2274.601" y="2274.912" width="108.307" height="974.761" style="fill:#001a1a;" /><rect x="3032.749" y="2274.912" width="108.307" height="433.227" style="fill:#001a1a;" /><rect x="541.693" y="2383.219" width="324.92" height="108.307" style="fill:#61dbdb;" /><rect x="866.613" y="2383.219" width="108.307" height="108.307" style="fill:#001a1a;" /><rect x="1408.147" y="2383.219" width="108.307" height="433.227" style="fill:#001a1a;" /><rect x="1516.454" y="2383.219" width="541.534" height="108.307" style="fill:#001414;" /><rect x="2166.294" y="2383.219" width="108.307" height="866.454" style="fill:#001a1a;" /><rect x="2491.215" y="2383.219" width="108.307" height="108.307" style="fill:#001a1a;" /><rect x="2599.521" y="2383.219" width="324.92" height="108.307" style="fill:#005d5d;" /><rect x="216.772" y="2491.526" width="108.307" height="324.92" style="fill:#005d5d;" /><rect x="541.693" y="2491.526" width="108.307" height="433.227" style="fill:#001a1a;" /><rect x="649.999" y="2491.526" width="324.92" height="108.307" style="fill:#017777;" /><rect x="1516.454" y="2491.526" width="649.841" height="324.92" style="fill:#001a1a;" /><rect x="2491.215" y="2491.526" width="324.92" height="108.307" style="fill:#005d5d;" /><rect x="2816.135" y="2491.526" width="108.307" height="216.614" style="fill:#001414;" /><rect x="3141.055" y="2491.526" width="108.307" height="324.92" style="fill:#004b4b;" /><rect x="649.999" y="2599.833" width="108.307" height="433.227" style="fill:#001a1a;" /><rect x="758.306" y="2599.833" width="216.614" height="108.307" style="fill:#017777;" /><rect x="974.92" y="2599.833" width="108.307" height="324.92" style="fill:#005d5d;" /><rect x="2382.908" y="2599.833" width="324.92" height="108.307" style="fill:#005d5d;" /><rect x="2707.828" y="2599.833" width="108.307" height="216.614" style="fill:#001414;" /><rect x="325.079" y="2708.139" width="108.307" height="216.614" style="fill:#005d5d;" /><rect x="758.306" y="2708.139" width="108.307" height="433.227" style="fill:#001a1a;" /><rect x="866.613" y="2708.139" width="108.307" height="108.307" style="fill:#017777;" /><rect x="2382.908" y="2708.139" width="216.614" height="108.307" style="fill:#005d5d;" /><rect x="2599.521" y="2708.139" width="108.307" height="216.614" style="fill:#001414;" /><rect x="2816.135" y="2708.139" width="108.307" height="216.614" style="fill:#001a1a;" /><rect x="3032.749" y="2708.139" width="108.307" height="216.614" style="fill:#004b4b;" /><rect x="433.386" y="2816.446" width="108.307" height="216.614" style="fill:#005d5d;" /><rect x="866.613" y="2816.446" width="108.307" height="324.92" style="fill:#001a1a;" /><rect x="1408.147" y="2816.446" width="433.227" height="108.307" style="fill:#00a4a4;" /><rect x="1841.374" y="2816.446" width="216.614" height="108.307" style="fill:#005d5d;" /><rect x="2057.988" y="2816.446" width="108.307" height="433.227" style="fill:#001a1a;" /><rect x="2382.908" y="2816.446" width="108.307" height="108.307" style="fill:#005d5d;" /><rect x="2491.215" y="2816.446" width="108.307" height="216.614" style="fill:#001414;" /><rect x="2707.828" y="2816.446" width="108.307" height="216.614" style="fill:#001a1a;" /><rect x="2924.442" y="2816.446" width="108.307" height="216.614" style="fill:#004b4b;" /><rect x="541.693" y="2924.753" width="108.307" height="216.614" style="fill:#005d5d;" /><rect x="974.92" y="2924.753" width="108.307" height="324.92" style="fill:#001a1a;" /><rect x="1408.147" y="2924.753" width="108.307" height="324.92" style="fill:#001a1a;" /><rect x="1516.454" y="2924.753" width="433.227" height="108.307" style="fill:#005d5d;" /><rect x="1949.681" y="2924.753" width="108.307" height="216.614" style="fill:#001414;" /><rect x="2382.908" y="2924.753" width="108.307" height="108.307" style="fill:#001414;" /><rect x="2599.521" y="2924.753" width="108.307" height="216.614" style="fill:#001a1a;" /><rect x="2816.135" y="2924.753" width="108.307" height="216.614" style="fill:#004b4b;" /><rect x="649.999" y="3033.06" width="108.307" height="216.614" style="fill:#005d5d;" /><rect x="1516.454" y="3033.06" width="433.227" height="108.307" style="fill:#001414;" /><rect x="2382.908" y="3033.06" width="216.614" height="216.614" style="fill:#001a1a;" /><rect x="2707.828" y="3033.06" width="108.307" height="216.614" style="fill:#004b4b;" /><rect x="758.306" y="3141.366" width="216.614" height="108.307" style="fill:#005d5d;" /><rect x="1516.454" y="3141.366" width="541.534" height="108.307" style="fill:#001a1a;" /><rect x="2599.521" y="3141.366" width="108.307" height="216.614" style="fill:#004b4b;" /><rect x="866.613" y="3249.673" width="1732.908" height="108.307" style="fill:#004b4b;" /></svg>