<?xml version='1.0' encoding='utf-8'?>
<svg xmlns="http://www.w3.org/2000/svg" viewBox="0 0 3358.0139999999997 3357.673" width="512" height="512" version="1.1" xml:space="preserve" style="fill-rule:evenodd;clip-rule:evenodd;stroke-linejoin:round;stroke-miterlimit:2;"><rect x="866.958" y="108.47" width="1732.908" height="108.307" style="fill:#df8dfd;" /><rect x="650.344" y="216.776" width="216.614" height="108.307" style="fill:#df8dfd;" /><rect x="866.958" y="216.776" width="1949.522" height="108.307" style="fill:#260034;" /><rect x="542.037" y="325.083" width="108.307" height="108.307" style="fill:#df8dfd;" /><rect x="650.344" y="325.083" width="1407.988" height="108.307" style="fill:#260034;" /><rect x="2058.332" y="325.083" width="108.307" height="216.614" style="fill:#bb3303;" /><rect x="2166.639" y="325.083" width="758.147" height="108.307" style="fill:#260034;" /><rect x="433.73" y="433.39" width="108.307" height="108.307" style="fill:#df8dfd;" /><rect x="542.037" y="433.39" width="1407.988" height="108.307" style="fill:#260034;" /><rect x="1950.025" y="433.39" width="108.307" height="216.614" style="fill:#bb3303;" /><rect x="2166.639" y="433.39" width="108.307" height="324.92" style="fill:#ff8144;" /><rect x="2274.946" y="433.39" width="758.147" height="108.307" style="fill:#260034;" /><rect x="325.424" y="541.697" width="108.307" height="216.614" style="fill:#df8dfd;" /><rect x="433.73" y="541.697" width="1407.988" height="108.307" style="fill:#260034;" /><rect x="1841.719" y="541.697" width="108.307" height="216.614" style="fill:#bb3303;" /><rect x="2058.332" y="541.697" width="108.307" height="108.307" style="fill:#ff8144;" /><rect x="2274.946" y="541.697" width="108.307" height="216.614" style="fill:#ff8144;" /><rect x="2383.253" y="541.697" width="758.147" height="216.614" style="fill:#260034;" /><rect x="217.117" y="650.003" width="108.307" height="324.92" style="fill:#df8dfd;" /><rect x="433.73" y="650.003" width="1299.681" height="108.307" style="fill:#260034;" /><rect x="1733.412" y="650.003" width="108.307" height="433.227" style="fill:#bb3303;" /><rect x="1950.025" y="650.003" width="108.307" height="108.307" style="fill:#ff7d44;" /><rect x="2058.332" y="650.003" width="108.307" height="108.307" style="fill:#ff7f44;" /><rect x="3141.4" y="650.003" width="108.307" height="1841.215" style="fill:#260034;" /><rect x="325.424" y="758.31" width="541.534" height="108.307" style="fill:#260034;" /><rect x="866.958" y="758.31" width="108.307" height="433.227" style="fill:#ffac1c;" /><rect x="975.264" y="758.31" width="758.147" height="108.307" style="fill:#260034;" /><rect x="1841.719" y="758.31" width="108.307" height="216.614" style="fill:#ff7544;" /><rect x="1950.025" y="758.31" width="108.307" height="108.307" style="fill:#ff7a44;" /><rect x="2058.332" y="758.31" width="108.307" height="108.307" style="fill:#ff7c44;" /><rect x="2166.639" y="758.31" width="108.307" height="108.307" style="fill:#ff7e44;" /><rect x="2274.946" y="758.31" width="108.307" height="108.307" style="fill:#ff8044;" /><rect x="2383.253" y="758.31" width="108.307" height="108.307" style="fill:#ff8144;" /><rect x="2491.559" y="758.31" width="649.841" height="108.307" style="fill:#260034;" /><rect x="108.81" y="866.617" width="108.307" height="1732.908" style="fill:#df8dfd;" /><rect x="325.424" y="866.617" width="433.227" height="108.307" style="fill:#260034;" /><rect x="758.651" y="866.617" width="108.307" height="108.307" style="fill:#ffac1c;" /><rect x="975.264" y="866.617" width="216.614" height="108.307" style="fill:#260034;" /><rect x="1191.878" y="866.617" width="108.307" height="324.92" style="fill:#eda337;" /><rect x="1300.185" y="866.617" width="433.227" height="216.614" style="fill:#260034;" /><rect x="1950.025" y="866.617" width="108.307" height="108.307" style="fill:#f74;" /><rect x="2058.332" y="866.617" width="108.307" height="108.307" style="fill:#ff7944;" /><rect x="2166.639" y="866.617" width="108.307" height="108.307" style="fill:#ff7b44;" /><rect x="2274.946" y="866.617" width="108.307" height="108.307" style="fill:#ff7d44;" /><rect x="2383.253" y="866.617" width="108.307" height="108.307" style="fill:#ff7f44;" /><rect x="2491.559" y="866.617" width="108.307" height="108.307" style="fill:#ff8144;" /><rect x="2599.866" y="866.617" width="541.534" height="108.307" style="fill:#260034;" /><rect x="3249.707" y="866.617" width="108.307" height="1732.908" style="fill:#0f0014;" /><rect x="217.117" y="974.924" width="433.227" height="216.614" style="fill:#260034;" /><rect x="650.344" y="974.924" width="216.614" height="324.92" style="fill:#ff7f1c;" /><rect x="975.264" y="974.924" width="108.307" height="108.307" style="fill:#260034;" /><rect x="1083.571" y="974.924" width="108.307" height="108.307" style="fill:#ff7f1c;" /><rect x="1841.719" y="974.924" width="108.307" height="108.307" style="fill:#ff7244;" /><rect x="1950.025" y="974.924" width="108.307" height="108.307" style="fill:#ff7444;" /><rect x="2058.332" y="974.924" width="108.307" height="108.307" style="fill:#ff7644;" /><rect x="2166.639" y="974.924" width="108.307" height="108.307" style="fill:#ff7844;" /><rect x="2274.946" y="974.924" width="108.307" height="108.307" style="fill:#ff7a44;" /><rect x="2383.253" y="974.924" width="108.307" height="108.307" style="fill:#ff7c44;" /><rect x="2491.559" y="974.924" width="108.307" height="108.307" style="fill:#ff7e44;" /><rect x="2599.866" y="974.924" width="216.614" height="108.307" style="fill:#ff8144;" /><rect x="2816.48" y="974.924" width="324.92" height="108.307" style="fill:#260034;" /><rect x="975.264" y="1083.231" width="216.614" height="108.307" style="fill:#ffac1c;" /><rect x="1300.185" y="1083.231" width="108.307" height="108.307" style="fill:#260034;" /><rect x="1408.491" y="1083.231" width="649.841" height="216.614" style="fill:#b238e1;" /><rect x="2058.332" y="1083.231" width="108.307" height="108.307" style="fill:#ff7344;" /><rect x="2166.639" y="1083.231" width="108.307" height="108.307" style="fill:#ff7544;" /><rect x="2274.946" y="1083.231" width="108.307" height="108.307" style="fill:#f74;" /><rect x="2383.253" y="1083.231" width="108.307" height="108.307" style="fill:#ff7944;" /><rect x="2491.559" y="1083.231" width="108.307" height="108.307" style="fill:#ff7b44;" /><rect x="2599.866" y="1083.231" width="108.307" height="108.307" style="fill:#ff7e44;" /><rect x="2708.173" y="1083.231" width="108.307" height="108.307" style="fill:#ff8044;" /><rect x="2816.48" y="1083.231" width="108.307" height="108.307" style="fill:#ff8144;" /><rect x="2924.786" y="1083.231" width="216.614" height="324.92" style="fill:#260034;" /><rect x="217.117" y="1191.537" width="324.92" height="1624.602" style="fill:#260034;" /><rect x="542.037" y="1191.537" width="108.307" height="541.534" style="fill:#ff7522;" /><rect x="866.958" y="1191.537" width="216.614" height="216.614" style="fill:#ff7f1c;" /><rect x="1083.571" y="1191.537" width="324.92" height="108.307" style="fill:#ffac1c;" /><rect x="2058.332" y="1191.537" width="108.307" height="108.307" style="fill:#b238e1;" /><rect x="2166.639" y="1191.537" width="108.307" height="108.307" style="fill:#ff7244;" /><rect x="2274.946" y="1191.537" width="108.307" height="108.307" style="fill:#ff7444;" /><rect x="2383.253" y="1191.537" width="108.307" height="108.307" style="fill:#ff7644;" /><rect x="2491.559" y="1191.537" width="108.307" height="108.307" style="fill:#ff7944;" /><rect x="2599.866" y="1191.537" width="108.307" height="108.307" style="fill:#ff7b44;" /><rect x="2708.173" y="1191.537" width="108.307" height="108.307" style="fill:#ff7d44;" /><rect x="2816.48" y="1191.537" width="108.307" height="108.307" style="fill:#ff773f;" /><rect x="650.344" y="1299.844" width="108.307" height="433.227" style="fill:#ff7522;" /><rect x="758.651" y="1299.844" width="108.307" height="108.307" style="fill:#ff7f1c;" /><rect x="1083.571" y="1299.844" width="216.614" height="108.307" style="fill:#ff7f1c;" /><rect x="1300.185" y="1299.844" width="324.92" height="108.307" style="fill:#ffac1c;" /><rect x="1625.105" y="1299.844" width="433.227" height="108.307" style="fill:#b238e1;" /><rect x="2058.332" y="1299.844" width="108.307" height="108.307" style="fill:#ff963f;" /><rect x="2166.639" y="1299.844" width="108.307" height="108.307" style="fill:#ffa928;" /><rect x="2274.946" y="1299.844" width="108.307" height="108.307" style="fill:#ff7144;" /><rect x="2383.253" y="1299.844" width="108.307" height="108.307" style="fill:#ff7444;" /><rect x="2491.559" y="1299.844" width="108.307" height="108.307" style="fill:#ff7644;" /><rect x="2599.866" y="1299.844" width="108.307" height="108.307" style="fill:#ff7844;" /><rect x="2708.173" y="1299.844" width="108.307" height="108.307" style="fill:#ff7a44;" /><rect x="2816.48" y="1299.844" width="108.307" height="108.307" style="fill:#ffa948;" /><rect x="758.651" y="1408.151" width="108.307" height="216.614" style="fill:#ff7522;" /><rect x="866.958" y="1408.151" width="541.534" height="108.307" style="fill:#ffb724;" /><rect x="1408.491" y="1408.151" width="108.307" height="108.307" style="fill:#ffa928;" /><rect x="1516.798" y="1408.151" width="108.307" height="108.307" style="fill:#fdc33a;" /><rect x="1625.105" y="1408.151" width="108.307" height="108.307" style="fill:#ffcd54;" /><rect x="1733.412" y="1408.151" width="433.227" height="108.307" style="fill:#a33cdc;" /><rect x="2166.639" y="1408.151" width="216.614" height="108.307" style="fill:#ff963f;" /><rect x="2383.253" y="1408.151" width="108.307" height="108.307" style="fill:#ffa928;" /><rect x="2491.559" y="1408.151" width="108.307" height="108.307" style="fill:#ff7344;" /><rect x="2599.866" y="1408.151" width="108.307" height="108.307" style="fill:#ff7544;" /><rect x="2708.173" y="1408.151" width="108.307" height="433.227" style="fill:#ffb23f;" /><rect x="2816.48" y="1408.151" width="108.307" height="108.307" style="fill:#ffa928;" /><rect x="2924.786" y="1408.151" width="108.307" height="108.307" style="fill:#ffb23f;" /><rect x="3033.093" y="1408.151" width="108.307" height="1299.681" style="fill:#260034;" /><rect x="866.958" y="1516.458" width="108.307" height="541.534" style="fill:#ff5d30;" /><rect x="975.264" y="1516.458" width="324.92" height="108.307" style="fill:#ffb724;" /><rect x="1300.185" y="1516.458" width="216.614" height="108.307" style="fill:#ffc02a;" /><rect x="1516.798" y="1516.458" width="758.147" height="108.307" style="fill:#9440d8;" /><rect x="2274.946" y="1516.458" width="216.614" height="216.614" style="fill:#ff963f;" /><rect x="2491.559" y="1516.458" width="108.307" height="433.227" style="fill:#ffa928;" /><rect x="2599.866" y="1516.458" width="108.307" height="108.307" style="fill:#ff7244;" /><rect x="2816.48" y="1516.458" width="108.307" height="324.92" style="fill:#ff773f;" /><rect x="2924.786" y="1516.458" width="108.307" height="324.92" style="fill:#ff8d37;" /><rect x="758.651" y="1624.765" width="108.307" height="324.92" style="fill:#ff7f1c;" /><rect x="975.264" y="1624.765" width="108.307" height="108.307" style="fill:#ff5d30;" /><rect x="1083.571" y="1624.765" width="216.614" height="108.307" style="fill:#ffb724;" /><rect x="1300.185" y="1624.765" width="974.761" height="108.307" style="fill:#8644d4;" /><rect x="2599.866" y="1624.765" width="108.307" height="108.307" style="fill:#ff6f44;" /><rect x="542.037" y="1733.071" width="216.614" height="433.227" style="fill:#ff7f1c;" /><rect x="975.264" y="1733.071" width="108.307" height="216.614" style="fill:#ff6a40;" /><rect x="1083.571" y="1733.071" width="108.307" height="108.307" style="fill:#ffb724;" /><rect x="1191.878" y="1733.071" width="1083.068" height="108.307" style="fill:#7748cf;" /><rect x="2274.946" y="1733.071" width="108.307" height="108.307" style="fill:#ff773f;" /><rect x="2383.253" y="1733.071" width="108.307" height="108.307" style="fill:#ff963f;" /><rect x="2599.866" y="1733.071" width="108.307" height="108.307" style="fill:#ff6c44;" /><rect x="1083.571" y="1841.378" width="108.307" height="216.614" style="fill:#ff6a40;" /><rect x="1191.878" y="1841.378" width="108.307" height="108.307" style="fill:#5939af;" /><rect x="1300.185" y="1841.378" width="866.454" height="108.307" style="fill:#684ccb;" /><rect x="2166.639" y="1841.378" width="108.307" height="108.307" style="fill:#5939af;" /><rect x="2274.946" y="1841.378" width="108.307" height="216.614" style="fill:#ff8d37;" /><rect x="2383.253" y="1841.378" width="108.307" height="108.307" style="fill:#ff8144;" /><rect x="2599.866" y="1841.378" width="108.307" height="108.307" style="fill:#ffb23f;" /><rect x="2708.173" y="1841.378" width="216.614" height="216.614" style="fill:#ff8d37;" /><rect x="2924.786" y="1841.378" width="108.307" height="108.307" style="fill:#ffb23f;" /><rect x="758.651" y="1949.685" width="108.307" height="433.227" style="fill:#ff5d30;" /><rect x="975.264" y="1949.685" width="108.307" height="108.307" style="fill:#ff4744;" /><rect x="1191.878" y="1949.685" width="108.307" height="216.614" style="fill:#ff6a40;" /><rect x="1300.185" y="1949.685" width="108.307" height="108.307" style="fill:#5939af;" /><rect x="1408.491" y="1949.685" width="649.841" height="108.307" style="fill:#5a51c7;" /><rect x="2058.332" y="1949.685" width="108.307" height="108.307" style="fill:#5939af;" /><rect x="2166.639" y="1949.685" width="108.307" height="216.614" style="fill:#ff8144;" /><rect x="2383.253" y="1949.685" width="108.307" height="216.614" style="fill:#ff8d37;" /><rect x="2491.559" y="1949.685" width="108.307" height="108.307" style="fill:#ffb23f;" /><rect x="2599.866" y="1949.685" width="108.307" height="216.614" style="fill:#ff8d37;" /><rect x="2924.786" y="1949.685" width="108.307" height="866.454" style="fill:#260034;" /><rect x="866.958" y="2057.992" width="108.307" height="108.307" style="fill:#ff4244;" /><rect x="975.264" y="2057.992" width="108.307" height="108.307" style="fill:#f44;" /><rect x="1083.571" y="2057.992" width="108.307" height="108.307" style="fill:#ff4644;" /><rect x="1300.185" y="2057.992" width="108.307" height="216.614" style="fill:#ff6a40;" /><rect x="1408.491" y="2057.992" width="108.307" height="108.307" style="fill:#5939af;" /><rect x="1516.798" y="2057.992" width="433.227" height="108.307" style="fill:#5a51c7;" /><rect x="1950.025" y="2057.992" width="108.307" height="108.307" style="fill:#5939af;" /><rect x="2058.332" y="2057.992" width="108.307" height="324.92" style="fill:#ff6444;" /><rect x="2274.946" y="2057.992" width="108.307" height="216.614" style="fill:#ff8144;" /><rect x="2491.559" y="2057.992" width="108.307" height="108.307" style="fill:#ff8d37;" /><rect x="2708.173" y="2057.992" width="216.614" height="108.307" style="fill:#ff8144;" /><rect x="542.037" y="2166.298" width="108.307" height="974.761" style="fill:#260034;" /><rect x="650.344" y="2166.298" width="108.307" height="216.614" style="fill:#ff5d30;" /><rect x="866.958" y="2166.298" width="108.307" height="108.307" style="fill:#ff3f44;" /><rect x="975.264" y="2166.298" width="108.307" height="108.307" style="fill:#ff4144;" /><rect x="1083.571" y="2166.298" width="108.307" height="108.307" style="fill:#ff4344;" /><rect x="1191.878" y="2166.298" width="108.307" height="108.307" style="fill:#ff4544;" /><rect x="1408.491" y="2166.298" width="108.307" height="216.614" style="fill:#ff6a40;" /><rect x="1516.798" y="2166.298" width="433.227" height="108.307" style="fill:#5939af;" /><rect x="1950.025" y="2166.298" width="108.307" height="216.614" style="fill:#ff6444;" /><rect x="2166.639" y="2166.298" width="108.307" height="216.614" style="fill:#ff6444;" /><rect x="2383.253" y="2166.298" width="433.227" height="108.307" style="fill:#ff8144;" /><rect x="2816.48" y="2166.298" width="108.307" height="108.307" style="fill:#ff6444;" /><rect x="866.958" y="2274.605" width="216.614" height="108.307" style="fill:#f62b5c;" /><rect x="1083.571" y="2274.605" width="108.307" height="108.307" style="fill:#ff4044;" /><rect x="1191.878" y="2274.605" width="108.307" height="108.307" style="fill:#ff4244;" /><rect x="1300.185" y="2274.605" width="108.307" height="108.307" style="fill:#f44;" /><rect x="1516.798" y="2274.605" width="433.227" height="108.307" style="fill:#ff6a40;" /><rect x="2274.946" y="2274.605" width="541.534" height="108.307" style="fill:#ff6444;" /><rect x="2816.48" y="2274.605" width="108.307" height="649.841" style="fill:#260034;" /><rect x="650.344" y="2382.912" width="108.307" height="866.454" style="fill:#260034;" /><rect x="758.651" y="2382.912" width="216.614" height="108.307" style="fill:#ff3895;" /><rect x="975.264" y="2382.912" width="216.614" height="108.307" style="fill:#f62b5c;" /><rect x="1191.878" y="2382.912" width="108.307" height="108.307" style="fill:#ff3f44;" /><rect x="1300.185" y="2382.912" width="108.307" height="108.307" style="fill:#ff4144;" /><rect x="1408.491" y="2382.912" width="108.307" height="108.307" style="fill:#ff4344;" /><rect x="1516.798" y="2382.912" width="108.307" height="108.307" style="fill:#ff4544;" /><rect x="1625.105" y="2382.912" width="108.307" height="108.307" style="fill:#ff4744;" /><rect x="1733.412" y="2382.912" width="108.307" height="108.307" style="fill:#ff4a44;" /><rect x="1841.719" y="2382.912" width="108.307" height="108.307" style="fill:#ff4c44;" /><rect x="1950.025" y="2382.912" width="108.307" height="108.307" style="fill:#ff4e44;" /><rect x="2058.332" y="2382.912" width="108.307" height="108.307" style="fill:#ff5044;" /><rect x="2166.639" y="2382.912" width="108.307" height="108.307" style="fill:#ff5244;" /><rect x="2274.946" y="2382.912" width="108.307" height="108.307" style="fill:#ff5444;" /><rect x="2383.253" y="2382.912" width="433.227" height="108.307" style="fill:#f62b5c;" /><rect x="758.651" y="2491.219" width="108.307" height="758.147" style="fill:#260034;" /><rect x="866.958" y="2491.219" width="216.614" height="108.307" style="fill:#ff3895;" /><rect x="1083.571" y="2491.219" width="216.614" height="108.307" style="fill:#f62b5c;" /><rect x="1300.185" y="2491.219" width="108.307" height="108.307" style="fill:#ff3e44;" /><rect x="1408.491" y="2491.219" width="108.307" height="108.307" style="fill:#ff4044;" /><rect x="1516.798" y="2491.219" width="108.307" height="108.307" style="fill:#ff4244;" /><rect x="1625.105" y="2491.219" width="108.307" height="108.307" style="fill:#ff4544;" /><rect x="1733.412" y="2491.219" width="108.307" height="108.307" style="fill:#ff4744;" /><rect x="1841.719" y="2491.219" width="108.307" height="108.307" style="fill:#ff4944;" /><rect x="1950.025" y="2491.219" width="108.307" height="108.307" style="fill:#ff4b44;" /><rect x="2058.332" y="2491.219" width="108.307" height="108.307" style="fill:#ff4d44;" /><rect x="2166.639" y="2491.219" width="324.92" height="108.307" style="fill:#f62b5c;" /><rect x="2491.559" y="2491.219" width="216.614" height="108.307" style="fill:#ff3895;" /><rect x="2708.173" y="2491.219" width="108.307" height="541.534" style="fill:#260034;" /><rect x="3141.4" y="2491.219" width="108.307" height="324.92" style="fill:#0f0014;" /><rect x="866.958" y="2599.526" width="108.307" height="649.841" style="fill:#260034;" /><rect x="975.264" y="2599.526" width="216.614" height="108.307" style="fill:#ff3895;" /><rect x="1191.878" y="2599.526" width="324.92" height="108.307" style="fill:#f62b5c;" /><rect x="1516.798" y="2599.526" width="108.307" height="108.307" style="fill:#ff4044;" /><rect x="1625.105" y="2599.526" width="108.307" height="108.307" style="fill:#ff4244;" /><rect x="1733.412" y="2599.526" width="108.307" height="108.307" style="fill:#f44;" /><rect x="1841.719" y="2599.526" width="108.307" height="108.307" style="fill:#ff4644;" /><rect x="1950.025" y="2599.526" width="324.92" height="108.307" style="fill:#f62b5c;" /><rect x="2274.946" y="2599.526" width="324.92" height="108.307" style="fill:#ff3895;" /><rect x="2599.866" y="2599.526" width="108.307" height="541.534" style="fill:#260034;" /><rect x="975.264" y="2707.832" width="108.307" height="541.534" style="fill:#260034;" /><rect x="1083.571" y="2707.832" width="324.92" height="108.307" style="fill:#ff3895;" /><rect x="1408.491" y="2707.832" width="649.841" height="108.307" style="fill:#f62b5c;" /><rect x="2058.332" y="2707.832" width="324.92" height="108.307" style="fill:#ff3895;" /><rect x="2383.253" y="2707.832" width="216.614" height="433.227" style="fill:#260034;" /><rect x="3033.093" y="2707.832" width="108.307" height="216.614" style="fill:#0f0014;" /><rect x="325.424" y="2816.139" width="216.614" height="108.307" style="fill:#260034;" /><rect x="1083.571" y="2816.139" width="216.614" height="433.227" style="fill:#260034;" /><rect x="1300.185" y="2816.139" width="866.454" height="108.307" style="fill:#ff3895;" /><rect x="2166.639" y="2816.139" width="216.614" height="433.227" style="fill:#260034;" /><rect x="2924.786" y="2816.139" width="108.307" height="216.614" style="fill:#0f0014;" /><rect x="433.73" y="2924.446" width="108.307" height="108.307" style="fill:#260034;" /><rect x="1300.185" y="2924.446" width="866.454" height="324.92" style="fill:#260034;" /><rect x="2816.48" y="2924.446" width="108.307" height="216.614" style="fill:#0f0014;" /><rect x="2708.173" y="3032.753" width="108.307" height="216.614" style="fill:#0f0014;" /><rect x="2383.253" y="3141.059" width="108.307" height="108.307" style="fill:#260034;" /><rect x="2491.559" y="3141.059" width="216.614" height="108.307" style="fill:#0f0014;" /><rect x="866.958" y="3249.366" width="1732.908" height="108.307" style="fill:#0f0014;" /></svg>