<?xml version='1.0' encoding='utf-8'?>
<svg xmlns="http://www.w3.org/2000/svg" viewBox="0 0 3357.812 3358.366" width="512" height="512" version="1.1" xml:space="preserve" style="fill-rule:evenodd;clip-rule:evenodd;stroke-linejoin:round;stroke-miterlimit:2;"><rect x="866.756" y="109.163" width="866.454" height="108.307" style="fill:#7451ff;" /><rect x="1733.21" y="109.163" width="866.454" height="108.307" style="fill:#2d2255;" /><rect x="650.142" y="217.469" width="324.92" height="108.307" style="fill:#7451ff;" /><rect x="975.062" y="217.469" width="1516.295" height="108.307" /><rect x="2491.357" y="217.469" width="324.92" height="108.307" style="fill:#2d2255;" /><rect x="433.528" y="325.776" width="324.92" height="108.307" style="fill:#7451ff;" /><rect x="758.449" y="325.776" width="324.92" height="108.307" /><rect x="1083.369" y="325.776" width="216.614" height="108.307" style="fill:#6353a1;" /><rect x="1299.983" y="325.776" width="216.614" height="108.307" style="fill:#6252a0;" /><rect x="1516.596" y="325.776" width="108.307" height="324.92" style="fill:#3f3078;" /><rect x="1624.903" y="325.776" width="108.307" height="324.92" style="fill:#3d2e73;" /><rect x="1733.21" y="325.776" width="108.307" height="324.92" style="fill:#382b6b;" /><rect x="1841.517" y="325.776" width="108.307" height="216.614" style="fill:#342762;" /><rect x="1949.823" y="325.776" width="108.307" height="216.614" style="fill:#2f245a;" /><rect x="2058.13" y="325.776" width="324.92" height="216.614" style="fill:#2d2255;" /><rect x="2383.05" y="325.776" width="324.92" height="108.307" /><rect x="2707.971" y="325.776" width="324.92" height="108.307" style="fill:#2d2255;" /><rect x="325.222" y="434.083" width="216.614" height="108.307" style="fill:#7451ff;" /><rect x="541.835" y="434.083" width="324.92" height="108.307" /><rect x="866.756" y="434.083" width="324.92" height="108.307" style="fill:#6353a1;" /><rect x="1191.676" y="434.083" width="108.307" height="324.92" style="fill:#42337d;" /><rect x="1299.983" y="434.083" width="108.307" height="324.92" style="fill:#41327c;" /><rect x="1408.289" y="434.083" width="108.307" height="216.614" style="fill:#41327b;" /><rect x="2383.05" y="434.083" width="216.614" height="1732.908" style="fill:#2d2255;" /><rect x="2599.664" y="434.083" width="324.92" height="108.307" /><rect x="2924.584" y="434.083" width="216.614" height="108.307" style="fill:#2d2255;" /><rect x="216.915" y="542.39" width="216.614" height="108.307" style="fill:#7451ff;" /><rect x="433.528" y="542.39" width="216.614" height="108.307" /><rect x="650.142" y="542.39" width="324.92" height="108.307" style="fill:#6353a1;" /><rect x="975.062" y="542.39" width="216.614" height="324.92" style="fill:#42337d;" /><rect x="1841.517" y="542.39" width="108.307" height="108.307" style="fill:#342763;" /><rect x="1949.823" y="542.39" width="108.307" height="108.307" style="fill:#30245b;" /><rect x="2058.13" y="542.39" width="108.307" height="108.307" style="fill:#2d2256;" /><rect x="2166.437" y="542.39" width="216.614" height="1841.215" style="fill:#2d2255;" /><rect x="2599.664" y="542.39" width="216.614" height="1299.681" style="fill:#2d2255;" /><rect x="2816.278" y="542.39" width="216.614" height="108.307" /><rect x="3032.891" y="542.39" width="216.614" height="108.307" style="fill:#2d2255;" /><rect x="216.915" y="650.696" width="108.307" height="216.614" style="fill:#7451ff;" /><rect x="325.222" y="650.696" width="216.614" height="108.307" /><rect x="541.835" y="650.696" width="216.614" height="108.307" style="fill:#6353a1;" /><rect x="758.449" y="650.696" width="216.614" height="433.227" style="fill:#42337d;" /><rect x="1408.289" y="650.696" width="649.841" height="108.307" style="fill:#bdaeff;" /><rect x="2058.13" y="650.696" width="108.307" height="108.307" style="fill:#2e2257;" /><rect x="2816.278" y="650.696" width="108.307" height="1841.215" style="fill:#2d2255;" /><rect x="2924.584" y="650.696" width="216.614" height="108.307" /><rect x="3141.198" y="650.696" width="108.307" height="216.614" style="fill:#2d2255;" /><rect x="108.608" y="759.003" width="108.307" height="1841.215" style="fill:#7451ff;" /><rect x="325.222" y="759.003" width="108.307" height="216.614" /><rect x="433.528" y="759.003" width="216.614" height="108.307" style="fill:#6353a1;" /><rect x="650.142" y="759.003" width="108.307" height="649.841" style="fill:#42337d;" /><rect x="1191.676" y="759.003" width="216.614" height="108.307" style="fill:#bdaeff;" /><rect x="1408.289" y="759.003" width="324.92" height="108.307" style="fill:#d9d0ff;" /><rect x="1733.21" y="759.003" width="108.307" height="1732.908" style="fill:#382b6b;" /><rect x="1841.517" y="759.003" width="108.307" height="1732.908" style="fill:#342763;" /><rect x="1949.823" y="759.003" width="108.307" height="1732.908" style="fill:#30245c;" /><rect x="2058.13" y="759.003" width="108.307" height="1732.908" style="fill:#2d2255;" /><rect x="2924.584" y="759.003" width="108.307" height="1516.295" style="fill:#2d2255;" /><rect x="3032.891" y="759.003" width="108.307" height="216.614" /><rect x="3249.505" y="759.003" width="108.307" height="1841.215" style="fill:#2d2255;" /><rect x="216.915" y="867.31" width="108.307" height="1624.602" /><rect x="433.528" y="867.31" width="108.307" height="216.614" style="fill:#6353a1;" /><rect x="541.835" y="867.31" width="108.307" height="1841.215" style="fill:#42337d;" /><rect x="975.062" y="867.31" width="108.307" height="108.307" style="fill:#42337d;" /><rect x="1083.369" y="867.31" width="108.307" height="108.307" style="fill:#bdaeff;" /><rect x="1191.676" y="867.31" width="324.92" height="108.307" style="fill:#d9d0ff;" /><rect x="1516.596" y="867.31" width="108.307" height="1516.295" style="fill:#3f3078;" /><rect x="1624.903" y="867.31" width="108.307" height="1516.295" style="fill:#3d2e73;" /><rect x="3141.198" y="867.31" width="108.307" height="1624.602" /><rect x="325.222" y="975.617" width="108.307" height="324.92" style="fill:#6353a1;" /><rect x="975.062" y="975.617" width="108.307" height="108.307" style="fill:#bdaeff;" /><rect x="1083.369" y="975.617" width="324.92" height="108.307" style="fill:#d9d0ff;" /><rect x="1408.289" y="975.617" width="108.307" height="1299.681" style="fill:#41327b;" /><rect x="3032.891" y="975.617" width="108.307" height="1083.068" style="fill:#2d2255;" /><rect x="433.528" y="1083.924" width="108.307" height="1516.295" style="fill:#42337d;" /><rect x="758.449" y="1083.924" width="108.307" height="108.307" style="fill:#42337d;" /><rect x="866.756" y="1083.924" width="108.307" height="108.307" style="fill:#bdaeff;" /><rect x="975.062" y="1083.924" width="324.92" height="108.307" style="fill:#d9d0ff;" /><rect x="1299.983" y="1083.924" width="108.307" height="1083.068" style="fill:#41327b;" /><rect x="758.449" y="1192.23" width="108.307" height="216.614" style="fill:#bdaeff;" /><rect x="866.756" y="1192.23" width="324.92" height="216.614" style="fill:#d9d0ff;" /><rect x="1191.676" y="1192.23" width="108.307" height="866.454" style="fill:#41327b;" /><rect x="325.222" y="1300.537" width="108.307" height="1083.068" style="fill:#42337d;" /><rect x="650.142" y="1408.844" width="108.307" height="649.841" style="fill:#bdaeff;" /><rect x="758.449" y="1408.844" width="324.92" height="866.454" style="fill:#d9d0ff;" /><rect x="1083.369" y="1408.844" width="108.307" height="433.227" style="fill:#41327b;" /><rect x="1083.369" y="1842.071" width="108.307" height="758.147" style="fill:#d9d0ff;" /><rect x="2599.664" y="1842.071" width="108.307" height="216.614" style="fill:#2d2255;" /><rect x="2707.971" y="1842.071" width="108.307" height="216.614" style="fill:#bdaeff;" /><rect x="650.142" y="2058.685" width="108.307" height="866.454" style="fill:#42337d;" /><rect x="1191.676" y="2058.685" width="108.307" height="649.841" style="fill:#d9d0ff;" /><rect x="2599.664" y="2058.685" width="108.307" height="108.307" style="fill:#bdaeff;" /><rect x="2707.971" y="2058.685" width="108.307" height="541.534" style="fill:#2d2255;" /><rect x="3032.891" y="2058.685" width="108.307" height="324.92" style="fill:#211840;" /><rect x="1299.983" y="2166.991" width="108.307" height="541.534" style="fill:#d9d0ff;" /><rect x="2383.05" y="2166.991" width="108.307" height="108.307" style="fill:#2d2255;" /><rect x="2491.357" y="2166.991" width="108.307" height="108.307" style="fill:#bdaeff;" /><rect x="2599.664" y="2166.991" width="108.307" height="108.307" style="fill:#d9d0ff;" /><rect x="758.449" y="2275.298" width="108.307" height="649.841" style="fill:#42337d;" /><rect x="866.756" y="2275.298" width="216.614" height="108.307" style="fill:#d9d0ff;" /><rect x="1408.289" y="2275.298" width="108.307" height="541.534" style="fill:#d9d0ff;" /><rect x="2383.05" y="2275.298" width="108.307" height="108.307" style="fill:#bdaeff;" /><rect x="2491.357" y="2275.298" width="108.307" height="108.307" style="fill:#d9d0ff;" /><rect x="2599.664" y="2275.298" width="108.307" height="433.227" style="fill:#2d2255;" /><rect x="2924.584" y="2275.298" width="108.307" height="324.92" style="fill:#211840;" /><rect x="325.222" y="2383.605" width="108.307" height="324.92" /><rect x="866.756" y="2383.605" width="108.307" height="649.841" style="fill:#42337d;" /><rect x="975.062" y="2383.605" width="108.307" height="108.307" style="fill:#d9d0ff;" /><rect x="1516.596" y="2383.605" width="216.614" height="433.227" style="fill:#d9d0ff;" /><rect x="2166.437" y="2383.605" width="216.614" height="108.307" style="fill:#bdaeff;" /><rect x="2383.05" y="2383.605" width="108.307" height="108.307" style="fill:#d9d0ff;" /><rect x="2491.357" y="2383.605" width="108.307" height="433.227" style="fill:#2d2255;" /><rect x="3032.891" y="2383.605" width="108.307" height="324.92" /><rect x="216.915" y="2491.912" width="108.307" height="324.92" style="fill:#7451ff;" /><rect x="975.062" y="2491.912" width="108.307" height="541.534" style="fill:#42337d;" /><rect x="1733.21" y="2491.912" width="433.227" height="108.307" style="fill:#bdaeff;" /><rect x="2166.437" y="2491.912" width="216.614" height="108.307" style="fill:#d9d0ff;" /><rect x="2383.05" y="2491.912" width="108.307" height="433.227" style="fill:#2d2255;" /><rect x="2816.278" y="2491.912" width="108.307" height="216.614" style="fill:#211840;" /><rect x="3141.198" y="2491.912" width="108.307" height="324.92" style="fill:#2d2255;" /><rect x="433.528" y="2600.219" width="108.307" height="216.614" /><rect x="1083.369" y="2600.219" width="108.307" height="541.534" style="fill:#42337d;" /><rect x="1733.21" y="2600.219" width="541.534" height="108.307" style="fill:#d9d0ff;" /><rect x="2274.744" y="2600.219" width="108.307" height="324.92" style="fill:#2d2255;" /><rect x="2707.971" y="2600.219" width="108.307" height="216.614" style="fill:#211840;" /><rect x="2924.584" y="2600.219" width="108.307" height="216.614" /><rect x="325.222" y="2708.525" width="108.307" height="216.614" style="fill:#7451ff;" /><rect x="541.835" y="2708.525" width="108.307" height="216.614" /><rect x="1191.676" y="2708.525" width="216.614" height="216.614" style="fill:#42337d;" /><rect x="1733.21" y="2708.525" width="324.92" height="108.307" style="fill:#d9d0ff;" /><rect x="2058.13" y="2708.525" width="216.614" height="108.307" style="fill:#2d2255;" /><rect x="2599.664" y="2708.525" width="108.307" height="216.614" style="fill:#211840;" /><rect x="2816.278" y="2708.525" width="108.307" height="216.614" /><rect x="3032.891" y="2708.525" width="108.307" height="216.614" style="fill:#2d2255;" /><rect x="433.528" y="2816.832" width="108.307" height="216.614" style="fill:#7451ff;" /><rect x="1408.289" y="2816.832" width="541.534" height="108.307" style="fill:#42337d;" /><rect x="1949.823" y="2816.832" width="108.307" height="216.614" style="fill:#2f245a;" /><rect x="2058.13" y="2816.832" width="108.307" height="108.307" style="fill:#2d2256;" /><rect x="2166.437" y="2816.832" width="108.307" height="216.614" style="fill:#2d2255;" /><rect x="2491.357" y="2816.832" width="108.307" height="216.614" style="fill:#211840;" /><rect x="2707.971" y="2816.832" width="108.307" height="216.614" /><rect x="2924.584" y="2816.832" width="108.307" height="216.614" style="fill:#2d2255;" /><rect x="541.835" y="2925.139" width="108.307" height="216.614" style="fill:#7451ff;" /><rect x="650.142" y="2925.139" width="216.614" height="108.307" /><rect x="1191.676" y="2925.139" width="108.307" height="216.614" style="fill:#42337d;" /><rect x="1299.983" y="2925.139" width="108.307" height="216.614" style="fill:#41327c;" /><rect x="1408.289" y="2925.139" width="108.307" height="216.614" style="fill:#42337d;" /><rect x="1516.596" y="2925.139" width="108.307" height="216.614" style="fill:#41327b;" /><rect x="1624.903" y="2925.139" width="108.307" height="216.614" style="fill:#3e3076;" /><rect x="1733.21" y="2925.139" width="108.307" height="216.614" style="fill:#3a2c6d;" /><rect x="1841.517" y="2925.139" width="108.307" height="108.307" style="fill:#342763;" /><rect x="2058.13" y="2925.139" width="108.307" height="108.307" style="fill:#2d2255;" /><rect x="2274.744" y="2925.139" width="216.614" height="108.307" style="fill:#211840;" /><rect x="2599.664" y="2925.139" width="108.307" height="216.614" /><rect x="2816.278" y="2925.139" width="108.307" height="216.614" style="fill:#2d2255;" /><rect x="650.142" y="3033.446" width="108.307" height="216.614" style="fill:#7451ff;" /><rect x="758.449" y="3033.446" width="324.92" height="108.307" /><rect x="1841.517" y="3033.446" width="108.307" height="108.307" style="fill:#251b49;" /><rect x="1949.823" y="3033.446" width="108.307" height="108.307" style="fill:#221944;" /><rect x="2058.13" y="3033.446" width="324.92" height="108.307" style="fill:#211840;" /><rect x="2383.05" y="3033.446" width="216.614" height="108.307" /><rect x="2707.971" y="3033.446" width="108.307" height="216.614" style="fill:#2d2255;" /><rect x="758.449" y="3141.752" width="216.614" height="108.307" style="fill:#7451ff;" /><rect x="975.062" y="3141.752" width="1516.295" height="108.307" /><rect x="2491.357" y="3141.752" width="216.614" height="108.307" style="fill:#2d2255;" /><rect x="866.756" y="3250.059" width="866.454" height="108.307" style="fill:#7451ff;" /><rect x="1733.21" y="3250.059" width="866.454" height="108.307" style="fill:#2d2255;" /></svg>