<svg width="512" height="512" viewBox="0 0 512 512" fill="none" xmlns="http://www.w3.org/2000/svg">
<g clip-path="url(#clip0_36_15696)">
<path fill-rule="evenodd" clip-rule="evenodd" d="M511.989 396.447H495.482V429.462H478.974V445.97H462.466V462.477H445.959V478.985H429.451V495.493H396.436V512H132.085V495.493H115.806H115.577H99.0697V478.985H82.5622V462.477H66.0545V445.97H49.5468V429.462H33.0392V396.447H16.5315V132.096H33.0392V99.0807H49.5468V82.573H66.0545V66.0653H82.5622V49.5577H99.0697V33.0501H132.085V16.5425H396.436V33.0501H429.451V49.5577H445.959V66.0653H462.466V82.573H478.974V99.0807H495.482V132.096H511.989V396.447Z" fill="#FBD641"/>
<path fill-rule="evenodd" clip-rule="evenodd" d="M132.085 33.05H379.928V49.5576H412.944V66.0652H429.451V82.5729H445.959V99.0806H462.467V115.588H478.974L478.974 148.603H495.482V379.939H478.974V412.954H462.467V429.462H445.959V445.969H429.451V462.477H412.944V478.985H379.928V495.492H148.593V478.985H115.577V462.477H99.0698V445.969H82.5623V429.462H66.0546V412.954H49.547V396.447H33.0393V148.603H49.547V115.588H66.0546V82.5729H82.5623V66.0652H99.0698V49.5576H132.085V33.05Z" fill="#E1B812"/>
<path fill-rule="evenodd" clip-rule="evenodd" d="M99.2985 115.817H115.806V99.3092H132.314V82.8016H165.329V66.2939H346.684V82.8016H379.7V99.3092H396.207V115.817H412.715V132.324H429.222V148.832H445.73V181.847H462.238V346.695H445.73V379.71H429.222V396.218H412.715V412.726H396.207V429.233H379.7V445.741H346.684V462.249H181.837V445.741H148.821V429.233H132.314V412.726H115.806V396.218H99.2985V379.71H82.7908V363.203H66.2832V181.847H82.7908V148.832H99.2985V115.817ZM82.5622 99.0806V115.817V132.096H66.0545V165.111H49.5469V379.939H66.0545V396.447H82.5622V412.954H99.0697V429.462H115.577V445.969H132.085V462.477H148.593H148.821H165.1V478.985H363.42V462.477H379.7H396.436V445.969H412.943V429.462H429.451V412.954H445.959V396.447H462.466V363.431H478.974V165.111H462.466V148.832V132.096H445.959V115.588H429.451V99.0806H412.944V82.573H396.436V66.0653H363.421V49.5576H148.593V66.0653H115.577V82.573H99.0697V99.0806H82.5622Z" fill="#2D2000"/>
<path fill-rule="evenodd" clip-rule="evenodd" d="M198.115 198.126H214.852V214.863H198.344V214.634H198.115V198.126ZM181.608 231.142V214.634H198.115V214.863H198.344V231.142H198.115V231.37H181.836V231.142H181.608ZM165.1 247.649V231.142H181.608V231.37H181.836V247.878H165.329V247.649H165.1ZM148.593 264.157V247.649H165.1V247.878H165.329V264.386H148.821V264.157H148.593ZM148.593 264.157H132.085V280.893H148.821V264.386H148.593V264.157ZM198.115 231.37V396.447H214.852V231.142H198.344V231.37H198.115ZM330.176 247.649H346.913V264.386H330.405V264.157H330.176V247.649ZM330.176 264.157H313.669V297.401H330.405V264.386H330.176V264.157ZM363.192 313.68H379.928V346.924H363.192V313.68Z" fill="#432F00"/>
<path fill-rule="evenodd" clip-rule="evenodd" d="M198.115 115.588H247.867V132.324H214.852V148.832H198.344V165.111H214.852V181.847H198.115V165.34H181.608V148.603H198.115V132.324V115.588Z" fill="#432F00"/>
<path fill-rule="evenodd" clip-rule="evenodd" d="M330.405 330.416L330.405 313.68H297.161V330.416H313.669V396.447H330.405V330.416Z" fill="#432F00"/>
<path fill-rule="evenodd" clip-rule="evenodd" d="M346.913 297.401H363.42V264.157H330.176V297.401V297.427V363.431H346.684V396.447H363.42V363.431H396.436V346.695H363.42V313.68H346.913V297.401Z" fill="#241900"/>
<path fill-rule="evenodd" clip-rule="evenodd" d="M198.115 231.142H181.608V247.649H165.1V264.157H148.593V280.665H132.085V297.401H148.821V280.893H165.329V264.386H181.836V247.878H198.344V231.37H198.115V231.142Z" fill="#241900"/>
<path fill-rule="evenodd" clip-rule="evenodd" d="M247.867 132.096H214.623V148.603H198.115V165.34H214.623V181.847V214.634H198.115V231.142H198.344V231.37H214.623V313.908H231.131V396.447H247.867V280.893H264.146V313.908H280.654H280.882H297.39V280.665H280.882V247.649H264.375V214.634H247.867V198.126H231.359V181.847H247.867V165.34H264.375V148.603H247.867V132.096Z" fill="#241900"/>
</g>
<defs>
<clipPath id="clip0_36_15696">
<rect width="512" height="512" fill="white"/>
</clipPath>
</defs>
</svg>
