<?xml version="1.0" encoding="UTF-8" ?>
<svg viewBox="0 0 32 32" version="1.1" width="512" height="512" xmlns="http://www.w3.org/2000/svg" shape-rendering="crispEdges">
<rect x="7" y="1" width="18" height="1" fill="#705DF7" />
<rect x="5" y="2" width="3" height="1" fill="#705DF7" />
<rect x="8" y="2" width="19" height="4" fill="#201856" />
<rect x="4" y="3" width="2" height="1" fill="#705DF7" />
<rect x="6" y="3" width="2" height="4" fill="#201856" />
<rect x="27" y="3" width="1" height="24" fill="#201856" />
<rect x="3" y="4" width="2" height="1" fill="#705DF7" />
<rect x="5" y="4" width="1" height="26" fill="#201856" />
<rect x="28" y="4" width="1" height="22" fill="#201856" />
<rect x="2" y="5" width="2" height="1" fill="#705DF7" />
<rect x="4" y="5" width="1" height="24" fill="#201856" />
<rect x="29" y="5" width="1" height="19" fill="#201856" />
<rect x="2" y="6" width="1" height="2" fill="#705DF7" />
<rect x="3" y="6" width="1" height="22" fill="#201856" />
<rect x="8" y="6" width="3" height="1" fill="#6C56FF" />
<rect x="11" y="6" width="2" height="5" fill="#503FC1" />
<rect x="13" y="6" width="5" height="1" fill="#201856" />
<rect x="18" y="6" width="4" height="1" fill="#6C56FF" />
<rect x="22" y="6" width="5" height="1" fill="#201856" />
<rect x="1" y="7" width="1" height="18" fill="#705DF7" />
<rect x="6" y="7" width="1" height="1" fill="#201856" />
<rect x="7" y="7" width="2" height="1" fill="#6C56FF" />
<rect x="9" y="7" width="2" height="11" fill="#503FC1" />
<rect x="13" y="7" width="1" height="3" fill="#503FC1" />
<rect x="14" y="7" width="4" height="6" fill="#201856" />
<rect x="18" y="7" width="3" height="1" fill="#1A1445" />
<rect x="21" y="7" width="3" height="1" fill="#6C56FF" />
<rect x="24" y="7" width="3" height="1" fill="#201856" />
<rect x="30" y="7" width="1" height="18" fill="#0B062D" />
<rect x="2" y="8" width="1" height="19" fill="#201856" />
<rect x="6" y="8" width="2" height="1" fill="#6C56FF" />
<rect x="8" y="8" width="1" height="8" fill="#503FC1" />
<rect x="18" y="8" width="3" height="1" fill="#201856" />
<rect x="21" y="8" width="2" height="1" fill="#1A1445" />
<rect x="23" y="8" width="2" height="1" fill="#6C56FF" />
<rect x="25" y="8" width="2" height="1" fill="#201856" />
<rect x="6" y="9" width="1" height="6" fill="#6C56FF" />
<rect x="7" y="9" width="1" height="5" fill="#503FC1" />
<rect x="18" y="9" width="1" height="2" fill="#6C56FF" />
<rect x="19" y="9" width="4" height="1" fill="#201856" />
<rect x="23" y="9" width="1" height="1" fill="#1A1445" />
<rect x="24" y="9" width="2" height="1" fill="#6C56FF" />
<rect x="26" y="9" width="1" height="2" fill="#201856" />
<rect x="13" y="10" width="1" height="8" fill="#201856" />
<rect x="19" y="10" width="2" height="1" fill="#6C56FF" />
<rect x="21" y="10" width="3" height="1" fill="#201856" />
<rect x="24" y="10" width="1" height="2" fill="#1A1445" />
<rect x="25" y="10" width="1" height="2" fill="#6C56FF" />
<rect x="11" y="11" width="1" height="1" fill="#503FC1" />
<rect x="12" y="11" width="1" height="6" fill="#201856" />
<rect x="18" y="11" width="2" height="1" fill="#1A1445" />
<rect x="20" y="11" width="2" height="1" fill="#6C56FF" />
<rect x="22" y="11" width="2" height="1" fill="#201856" />
<rect x="26" y="11" width="1" height="4" fill="#6C56FF" />
<rect x="11" y="12" width="1" height="3" fill="#201856" />
<rect x="18" y="12" width="2" height="2" fill="#201856" />
<rect x="20" y="12" width="1" height="1" fill="#1A1445" />
<rect x="21" y="12" width="2" height="1" fill="#6C56FF" />
<rect x="23" y="12" width="2" height="2" fill="#201856" />
<rect x="25" y="12" width="1" height="2" fill="#1A1445" />
<rect x="14" y="13" width="3" height="6" fill="#201856" />
<rect x="17" y="13" width="1" height="2" fill="#6C56FF" />
<rect x="20" y="13" width="1" height="7" fill="#201856" />
<rect x="21" y="13" width="1" height="2" fill="#1A1445" />
<rect x="22" y="13" width="1" height="2" fill="#6C56FF" />
<rect x="7" y="14" width="1" height="3" fill="#6C56FF" />
<rect x="18" y="14" width="1" height="2" fill="#6C56FF" />
<rect x="19" y="14" width="1" height="1" fill="#201856" />
<rect x="23" y="14" width="1" height="1" fill="#6C56FF" />
<rect x="24" y="14" width="1" height="6" fill="#201856" />
<rect x="25" y="14" width="1" height="1" fill="#151037" />
<rect x="6" y="15" width="1" height="3" fill="#1A1445" />
<rect x="11" y="15" width="1" height="5" fill="#503FC1" />
<rect x="17" y="15" width="1" height="1" fill="#1A1445" />
<rect x="19" y="15" width="1" height="1" fill="#6C56FF" />
<rect x="21" y="15" width="3" height="4" fill="#201856" />
<rect x="25" y="15" width="2" height="13" fill="#201856" />
<rect x="8" y="16" width="1" height="3" fill="#6C56FF" />
<rect x="17" y="16" width="3" height="5" fill="#201856" />
<rect x="7" y="17" width="1" height="3" fill="#1A1445" />
<rect x="12" y="17" width="1" height="4" fill="#503FC1" />
<rect x="6" y="18" width="1" height="12" fill="#201856" />
<rect x="9" y="18" width="1" height="2" fill="#6C56FF" />
<rect x="10" y="18" width="1" height="1" fill="#503FC1" />
<rect x="13" y="18" width="1" height="4" fill="#503FC1" />
<rect x="8" y="19" width="1" height="2" fill="#1A1445" />
<rect x="10" y="19" width="1" height="2" fill="#6C56FF" />
<rect x="14" y="19" width="1" height="4" fill="#503FC1" />
<rect x="15" y="19" width="2" height="1" fill="#201856" />
<rect x="21" y="19" width="3" height="5" fill="#503FC1" />
<rect x="7" y="20" width="1" height="10" fill="#201856" />
<rect x="9" y="20" width="1" height="2" fill="#1A1445" />
<rect x="11" y="20" width="1" height="2" fill="#6C56FF" />
<rect x="15" y="20" width="2" height="3" fill="#503FC1" />
<rect x="20" y="20" width="1" height="5" fill="#503FC1" />
<rect x="24" y="20" width="1" height="4" fill="#503FC1" />
<rect x="8" y="21" width="1" height="9" fill="#201856" />
<rect x="10" y="21" width="1" height="2" fill="#1A1445" />
<rect x="12" y="21" width="1" height="2" fill="#6C56FF" />
<rect x="17" y="21" width="3" height="3" fill="#503FC1" />
<rect x="9" y="22" width="1" height="8" fill="#201856" />
<rect x="11" y="22" width="1" height="2" fill="#1A1445" />
<rect x="13" y="22" width="1" height="2" fill="#6C56FF" />
<rect x="10" y="23" width="1" height="7" fill="#201856" />
<rect x="12" y="23" width="1" height="2" fill="#1A1445" />
<rect x="14" y="23" width="2" height="1" fill="#6C56FF" />
<rect x="16" y="23" width="1" height="1" fill="#503FC1" />
<rect x="11" y="24" width="1" height="6" fill="#201856" />
<rect x="13" y="24" width="2" height="1" fill="#1A1445" />
<rect x="15" y="24" width="3" height="1" fill="#6C56FF" />
<rect x="18" y="24" width="2" height="1" fill="#503FC1" />
<rect x="21" y="24" width="2" height="1" fill="#503FC1" />
<rect x="23" y="24" width="2" height="1" fill="#6C56FF" />
<rect x="29" y="24" width="1" height="3" fill="#0B062D" />
<rect x="12" y="25" width="2" height="5" fill="#201856" />
<rect x="14" y="25" width="3" height="1" fill="#1A1445" />
<rect x="17" y="25" width="7" height="1" fill="#6C56FF" />
<rect x="24" y="25" width="1" height="4" fill="#201856" />
<rect x="14" y="26" width="10" height="4" fill="#201856" />
<rect x="28" y="26" width="1" height="2" fill="#0B062D" />
<rect x="27" y="27" width="1" height="2" fill="#0B062D" />
<rect x="25" y="28" width="1" height="1" fill="#201856" />
<rect x="26" y="28" width="1" height="2" fill="#0B062D" />
<rect x="24" y="29" width="2" height="1" fill="#0B062D" />
<rect x="7" y="30" width="18" height="1" fill="#0B062D" />
</svg>