<?xml version='1.0' encoding='utf-8'?>
<svg xmlns="http://www.w3.org/2000/svg" viewBox="0 0 3357.5759999999996 3357.673" width="512" height="512" version="1.1" xml:space="preserve" style="fill-rule:evenodd;clip-rule:evenodd;stroke-linejoin:round;stroke-miterlimit:2;"><rect x="866.52" y="108.47" width="1732.908" height="108.307" style="fill:#702916;" /><rect x="649.906" y="216.776" width="216.614" height="108.307" style="fill:#702916;" /><rect x="866.52" y="216.776" width="1949.522" height="216.614" style="fill:#2c0900;" /><rect x="541.599" y="325.083" width="108.307" height="108.307" style="fill:#702916;" /><rect x="649.906" y="325.083" width="216.614" height="433.227" style="fill:#2c0900;" /><rect x="2816.042" y="325.083" width="108.307" height="541.534" style="fill:#2c0900;" /><rect x="433.292" y="433.39" width="108.307" height="108.307" style="fill:#702916;" /><rect x="541.599" y="433.39" width="108.307" height="2707.67" style="fill:#2c0900;" /><rect x="866.52" y="433.39" width="433.227" height="108.307" style="fill:#2c0900;" /><rect x="1299.747" y="433.39" width="974.761" height="108.307" style="fill:#ff7e41;" /><rect x="2274.508" y="433.39" width="541.534" height="108.307" style="fill:#2c0900;" /><rect x="2924.348" y="433.39" width="108.307" height="2382.749" style="fill:#2c0900;" /><rect x="324.986" y="541.697" width="108.307" height="216.614" style="fill:#702916;" /><rect x="433.292" y="541.697" width="108.307" height="2491.056" style="fill:#2c0900;" /><rect x="866.52" y="541.697" width="324.92" height="108.307" style="fill:#2c0900;" /><rect x="1191.44" y="541.697" width="108.307" height="108.307" style="fill:#ff7e41;" /><rect x="1299.747" y="541.697" width="974.761" height="216.614" style="fill:#fe5100;" /><rect x="2274.508" y="541.697" width="108.307" height="216.614" style="fill:#bf3d00;" /><rect x="2382.814" y="541.697" width="433.227" height="216.614" style="fill:#2c0900;" /><rect x="3032.655" y="541.697" width="108.307" height="2166.136" style="fill:#2c0900;" /><rect x="216.679" y="650.003" width="108.307" height="324.92" style="fill:#702916;" /><rect x="866.52" y="650.003" width="216.614" height="108.307" style="fill:#2c0900;" /><rect x="1083.133" y="650.003" width="108.307" height="108.307" style="fill:#ff7e41;" /><rect x="1191.44" y="650.003" width="108.307" height="216.614" style="fill:#fe5100;" /><rect x="3140.962" y="650.003" width="108.307" height="1841.215" style="fill:#2c0900;" /><rect x="324.986" y="758.31" width="108.307" height="2166.136" style="fill:#2c0900;" /><rect x="649.906" y="758.31" width="108.307" height="108.307" style="fill:#2c0900;" /><rect x="758.213" y="758.31" width="324.92" height="108.307" style="fill:#ff7e41;" /><rect x="1083.133" y="758.31" width="108.307" height="216.614" style="fill:#fe5100;" /><rect x="1299.747" y="758.31" width="758.147" height="108.307" style="fill:#fe5100;" /><rect x="2057.894" y="758.31" width="108.307" height="108.307" style="fill:#fd5000;" /><rect x="2166.201" y="758.31" width="108.307" height="108.307" style="fill:#fd4f00;" /><rect x="2274.508" y="758.31" width="108.307" height="108.307" style="fill:#fd4e00;" /><rect x="2382.814" y="758.31" width="433.227" height="108.307" style="fill:#bf3d00;" /><rect x="108.372" y="866.617" width="108.307" height="1732.908" style="fill:#702916;" /><rect x="649.906" y="866.617" width="108.307" height="758.147" style="fill:#ff7e41;" /><rect x="758.213" y="866.617" width="324.92" height="216.614" style="fill:#fe5100;" /><rect x="1191.44" y="866.617" width="108.307" height="866.454" style="fill:#fff;" /><rect x="1299.747" y="866.617" width="324.92" height="108.307" style="fill:#fe5100;" /><rect x="1624.667" y="866.617" width="324.92" height="324.92" style="fill:#fff;" /><rect x="1949.587" y="866.617" width="108.307" height="108.307" style="fill:#fd4f00;" /><rect x="2057.894" y="866.617" width="108.307" height="108.307" style="fill:#fd4e00;" /><rect x="2166.201" y="866.617" width="108.307" height="108.307" style="fill:#fd4d00;" /><rect x="2274.508" y="866.617" width="108.307" height="216.614" style="fill:#fff;" /><rect x="2382.814" y="866.617" width="108.307" height="108.307" style="fill:#fd4b00;" /><rect x="2491.121" y="866.617" width="108.307" height="108.307" style="fill:#fd4900;" /><rect x="2599.428" y="866.617" width="108.307" height="108.307" style="fill:#fd4800;" /><rect x="2707.735" y="866.617" width="108.307" height="108.307" style="fill:#fd4700;" /><rect x="2816.042" y="866.617" width="108.307" height="866.454" style="fill:#bf3d00;" /><rect x="3249.269" y="866.617" width="108.307" height="1732.908" style="fill:#100300;" /><rect x="216.679" y="974.924" width="108.307" height="1841.215" style="fill:#2c0900;" /><rect x="1083.133" y="974.924" width="108.307" height="649.841" style="fill:#fff;" /><rect x="1299.747" y="974.924" width="324.92" height="216.614" style="fill:#fff;" /><rect x="1949.587" y="974.924" width="324.92" height="108.307" style="fill:#fff;" /><rect x="2382.814" y="974.924" width="108.307" height="108.307" style="fill:#fff;" /><rect x="2491.121" y="974.924" width="108.307" height="108.307" style="fill:#fd4700;" /><rect x="2599.428" y="974.924" width="108.307" height="108.307" style="fill:#fd4600;" /><rect x="2707.735" y="974.924" width="108.307" height="108.307" style="fill:#fd4500;" /><rect x="758.213" y="1083.231" width="216.614" height="216.614" style="fill:#fe5100;" /><rect x="974.826" y="1083.231" width="108.307" height="433.227" style="fill:#fff;" /><rect x="1949.587" y="1083.231" width="541.534" height="108.307" style="fill:#f9f9f9;" /><rect x="2491.121" y="1083.231" width="108.307" height="216.614" style="fill:#f5f5f5;" /><rect x="2599.428" y="1083.231" width="108.307" height="108.307" style="fill:#fd4400;" /><rect x="2707.735" y="1083.231" width="108.307" height="108.307" style="fill:#fd4300;" /><rect x="1299.747" y="1191.537" width="108.307" height="108.307" style="fill:#fd5000;" /><rect x="1408.053" y="1191.537" width="108.307" height="108.307" style="fill:#fd4f00;" /><rect x="1516.36" y="1191.537" width="108.307" height="108.307" style="fill:#fd4e00;" /><rect x="1624.667" y="1191.537" width="108.307" height="108.307" style="fill:#ff4800;" /><rect x="1732.974" y="1191.537" width="216.614" height="108.307" style="fill:#fff;" /><rect x="1949.587" y="1191.537" width="108.307" height="108.307" style="fill:#fd4900;" /><rect x="2057.894" y="1191.537" width="108.307" height="108.307" style="fill:#fd4800;" /><rect x="2166.201" y="1191.537" width="108.307" height="108.307" style="fill:#fd4700;" /><rect x="2274.508" y="1191.537" width="108.307" height="108.307" style="fill:#fd4600;" /><rect x="2382.814" y="1191.537" width="108.307" height="216.614" style="fill:#f9f9f9;" /><rect x="2599.428" y="1191.537" width="108.307" height="324.92" style="fill:#f5f5f5;" /><rect x="2707.735" y="1191.537" width="108.307" height="108.307" style="fill:#fd4100;" /><rect x="758.213" y="1299.844" width="108.307" height="216.614" style="fill:#fe5100;" /><rect x="866.52" y="1299.844" width="108.307" height="108.307" style="fill:#fff;" /><rect x="1299.747" y="1299.844" width="216.614" height="324.92" style="fill:#fff;" /><rect x="1516.36" y="1299.844" width="108.307" height="108.307" style="fill:#fd4c00;" /><rect x="1624.667" y="1299.844" width="108.307" height="108.307" style="fill:#ff5613;" /><rect x="1732.974" y="1299.844" width="108.307" height="324.92" style="fill:#fff;" /><rect x="1841.281" y="1299.844" width="108.307" height="433.227" style="fill:#f9f9f9;" /><rect x="1949.587" y="1299.844" width="108.307" height="108.307" style="fill:#fd4700;" /><rect x="2057.894" y="1299.844" width="324.92" height="216.614" style="fill:#f9f9f9;" /><rect x="2491.121" y="1299.844" width="108.307" height="108.307" style="fill:#f9f9f9;" /><rect x="2707.735" y="1299.844" width="108.307" height="108.307" style="fill:#fd3f00;" /><rect x="866.52" y="1408.151" width="108.307" height="108.307" style="fill:#fe5100;" /><rect x="1516.36" y="1408.151" width="108.307" height="108.307" style="fill:#fd4a00;" /><rect x="1624.667" y="1408.151" width="108.307" height="324.92" style="fill:#fff;" /><rect x="1949.587" y="1408.151" width="108.307" height="108.307" style="fill:#fd4500;" /><rect x="2382.814" y="1408.151" width="216.614" height="108.307" style="fill:#f5f5f5;" /><rect x="2707.735" y="1408.151" width="108.307" height="108.307" style="fill:#fd3d00;" /><rect x="758.213" y="1516.458" width="108.307" height="108.307" style="fill:#fd5000;" /><rect x="866.52" y="1516.458" width="108.307" height="108.307" style="fill:#fd4f00;" /><rect x="974.826" y="1516.458" width="108.307" height="108.307" style="fill:#fd4d00;" /><rect x="1516.36" y="1516.458" width="108.307" height="108.307" style="fill:#fd4800;" /><rect x="1949.587" y="1516.458" width="108.307" height="108.307" style="fill:#fd4300;" /><rect x="2057.894" y="1516.458" width="216.614" height="108.307" style="fill:#f9f9f9;" /><rect x="2274.508" y="1516.458" width="216.614" height="108.307" style="fill:#f5f5f5;" /><rect x="2491.121" y="1516.458" width="108.307" height="108.307" style="fill:#fd3d00;" /><rect x="2599.428" y="1516.458" width="108.307" height="108.307" style="fill:#fd3c00;" /><rect x="2707.735" y="1516.458" width="108.307" height="108.307" style="fill:#fd3b00;" /><rect x="649.906" y="1624.765" width="108.307" height="1624.602" style="fill:#2c0900;" /><rect x="758.213" y="1624.765" width="108.307" height="433.227" style="fill:#ff7e41;" /><rect x="866.52" y="1624.765" width="108.307" height="108.307" style="fill:#fd4d00;" /><rect x="974.826" y="1624.765" width="108.307" height="108.307" style="fill:#fd4b00;" /><rect x="1083.133" y="1624.765" width="108.307" height="108.307" style="fill:#fd4a00;" /><rect x="1299.747" y="1624.765" width="108.307" height="541.534" style="fill:#fff;" /><rect x="1408.053" y="1624.765" width="108.307" height="108.307" style="fill:#fd4700;" /><rect x="1516.36" y="1624.765" width="108.307" height="108.307" style="fill:#fd4600;" /><rect x="1732.974" y="1624.765" width="108.307" height="108.307" style="fill:#f9f9f9;" /><rect x="1949.587" y="1624.765" width="108.307" height="108.307" style="fill:#fd4100;" /><rect x="2057.894" y="1624.765" width="108.307" height="108.307" style="fill:#fd4000;" /><rect x="2166.201" y="1624.765" width="108.307" height="433.227" style="fill:#f9f9f9;" /><rect x="2274.508" y="1624.765" width="108.307" height="541.534" style="fill:#f5f5f5;" /><rect x="2382.814" y="1624.765" width="108.307" height="108.307" style="fill:#fd3d00;" /><rect x="2491.121" y="1624.765" width="108.307" height="108.307" style="fill:#fd3b00;" /><rect x="2599.428" y="1624.765" width="108.307" height="108.307" style="fill:#fd3a00;" /><rect x="2707.735" y="1624.765" width="108.307" height="108.307" style="fill:#fd3900;" /><rect x="866.52" y="1733.071" width="108.307" height="108.307" style="fill:#fd4b00;" /><rect x="974.826" y="1733.071" width="108.307" height="108.307" style="fill:#fd4900;" /><rect x="1083.133" y="1733.071" width="108.307" height="108.307" style="fill:#fd4800;" /><rect x="1191.44" y="1733.071" width="108.307" height="108.307" style="fill:#fd4700;" /><rect x="1408.053" y="1733.071" width="216.614" height="324.92" style="fill:#fff;" /><rect x="1624.667" y="1733.071" width="108.307" height="108.307" style="fill:#fd4300;" /><rect x="1732.974" y="1733.071" width="108.307" height="108.307" style="fill:#ff6021;" /><rect x="1841.281" y="1733.071" width="108.307" height="108.307" style="fill:#fd4000;" /><rect x="1949.587" y="1733.071" width="216.614" height="324.92" style="fill:#f9f9f9;" /><rect x="2382.814" y="1733.071" width="108.307" height="108.307" style="fill:#fd3b00;" /><rect x="2491.121" y="1733.071" width="108.307" height="108.307" style="fill:#fd3900;" /><rect x="2599.428" y="1733.071" width="108.307" height="108.307" style="fill:#fd3800;" /><rect x="2707.735" y="1733.071" width="108.307" height="433.227" style="fill:#bf3d00;" /><rect x="2816.042" y="1733.071" width="108.307" height="1191.375" style="fill:#2c0900;" /><rect x="866.52" y="1841.378" width="108.307" height="108.307" style="fill:#fd4900;" /><rect x="974.826" y="1841.378" width="108.307" height="108.307" style="fill:#fd4700;" /><rect x="1083.133" y="1841.378" width="108.307" height="108.307" style="fill:#fd4600;" /><rect x="1191.44" y="1841.378" width="108.307" height="216.614" style="fill:#fff;" /><rect x="1624.667" y="1841.378" width="108.307" height="216.614" style="fill:#fff;" /><rect x="1732.974" y="1841.378" width="108.307" height="108.307" style="fill:#fd3f00;" /><rect x="1841.281" y="1841.378" width="108.307" height="216.614" style="fill:#f9f9f9;" /><rect x="2382.814" y="1841.378" width="108.307" height="108.307" style="fill:#fd3900;" /><rect x="2491.121" y="1841.378" width="108.307" height="108.307" style="fill:#fd3700;" /><rect x="2599.428" y="1841.378" width="108.307" height="108.307" style="fill:#fd3600;" /><rect x="866.52" y="1949.685" width="108.307" height="108.307" style="fill:#fd4700;" /><rect x="974.826" y="1949.685" width="108.307" height="108.307" style="fill:#fd4500;" /><rect x="1083.133" y="1949.685" width="108.307" height="108.307" style="fill:#fd4400;" /><rect x="1732.974" y="1949.685" width="108.307" height="108.307" style="fill:#fd3d00;" /><rect x="2382.814" y="1949.685" width="108.307" height="108.307" style="fill:#fd3700;" /><rect x="2491.121" y="1949.685" width="108.307" height="108.307" style="fill:#fd3500;" /><rect x="2599.428" y="1949.685" width="108.307" height="108.307" style="fill:#fd3400;" /><rect x="758.213" y="2057.992" width="108.307" height="1191.375" style="fill:#2c0900;" /><rect x="866.52" y="2057.992" width="108.307" height="433.227" style="fill:#ff7e41;" /><rect x="974.826" y="2057.992" width="108.307" height="108.307" style="fill:#fd4300;" /><rect x="1083.133" y="2057.992" width="108.307" height="108.307" style="fill:#fd4200;" /><rect x="1191.44" y="2057.992" width="108.307" height="108.307" style="fill:#fd4100;" /><rect x="1408.053" y="2057.992" width="108.307" height="108.307" style="fill:#fff;" /><rect x="1516.36" y="2057.992" width="108.307" height="108.307" style="fill:#fd3e00;" /><rect x="1624.667" y="2057.992" width="108.307" height="108.307" style="fill:#fd3d00;" /><rect x="1732.974" y="2057.992" width="108.307" height="108.307" style="fill:#fd3b00;" /><rect x="1841.281" y="2057.992" width="108.307" height="108.307" style="fill:#fd3a00;" /><rect x="1949.587" y="2057.992" width="108.307" height="108.307" style="fill:#fd3900;" /><rect x="2057.894" y="2057.992" width="216.614" height="108.307" style="fill:#f5f5f5;" /><rect x="2382.814" y="2057.992" width="108.307" height="108.307" style="fill:#fd3500;" /><rect x="2491.121" y="2057.992" width="108.307" height="108.307" style="fill:#fd3300;" /><rect x="2599.428" y="2057.992" width="108.307" height="108.307" style="fill:#fd3200;" /><rect x="974.826" y="2166.298" width="108.307" height="108.307" style="fill:#fd4100;" /><rect x="1083.133" y="2166.298" width="108.307" height="108.307" style="fill:#fd4000;" /><rect x="1191.44" y="2166.298" width="108.307" height="108.307" style="fill:#fd3f00;" /><rect x="1299.747" y="2166.298" width="108.307" height="108.307" style="fill:#fd3e00;" /><rect x="1408.053" y="2166.298" width="108.307" height="108.307" style="fill:#fd3d00;" /><rect x="1516.36" y="2166.298" width="108.307" height="108.307" style="fill:#fd3c00;" /><rect x="1624.667" y="2166.298" width="108.307" height="433.227" style="fill:#fff;" /><rect x="1732.974" y="2166.298" width="108.307" height="216.614" style="fill:#fbfbfb;" /><rect x="1841.281" y="2166.298" width="108.307" height="108.307" style="fill:#f5f5f5;" /><rect x="1949.587" y="2166.298" width="108.307" height="108.307" style="fill:#fd3700;" /><rect x="2057.894" y="2166.298" width="108.307" height="108.307" style="fill:#fd3600;" /><rect x="2166.201" y="2166.298" width="108.307" height="108.307" style="fill:#fd3500;" /><rect x="2274.508" y="2166.298" width="108.307" height="108.307" style="fill:#fd3400;" /><rect x="2382.814" y="2166.298" width="108.307" height="108.307" style="fill:#fd3300;" /><rect x="2491.121" y="2166.298" width="108.307" height="108.307" style="fill:#fd3100;" /><rect x="2599.428" y="2166.298" width="108.307" height="433.227" style="fill:#bf3d00;" /><rect x="2707.735" y="2166.298" width="108.307" height="866.454" style="fill:#2c0900;" /><rect x="974.826" y="2274.605" width="108.307" height="108.307" style="fill:#fd3f00;" /><rect x="1083.133" y="2274.605" width="108.307" height="108.307" style="fill:#fd3e00;" /><rect x="1191.44" y="2274.605" width="108.307" height="108.307" style="fill:#fd3d00;" /><rect x="1299.747" y="2274.605" width="108.307" height="108.307" style="fill:#fd3c00;" /><rect x="1408.053" y="2274.605" width="216.614" height="108.307" style="fill:#fff;" /><rect x="1841.281" y="2274.605" width="108.307" height="216.614" style="fill:#fbfbfb;" /><rect x="1949.587" y="2274.605" width="216.614" height="108.307" style="fill:#f5f5f5;" /><rect x="2166.201" y="2274.605" width="108.307" height="108.307" style="fill:#fd3300;" /><rect x="2274.508" y="2274.605" width="108.307" height="108.307" style="fill:#fd3200;" /><rect x="2382.814" y="2274.605" width="108.307" height="108.307" style="fill:#fd3100;" /><rect x="2491.121" y="2274.605" width="108.307" height="108.307" style="fill:#fd2f00;" /><rect x="974.826" y="2382.912" width="108.307" height="108.307" style="fill:#fd3d00;" /><rect x="1083.133" y="2382.912" width="108.307" height="108.307" style="fill:#fd3c00;" /><rect x="1191.44" y="2382.912" width="108.307" height="108.307" style="fill:#fd3b00;" /><rect x="1299.747" y="2382.912" width="108.307" height="108.307" style="fill:#fd3a00;" /><rect x="1408.053" y="2382.912" width="108.307" height="108.307" style="fill:#fd3900;" /><rect x="1516.36" y="2382.912" width="108.307" height="108.307" style="fill:#fff;" /><rect x="1732.974" y="2382.912" width="108.307" height="216.614" style="fill:#fff;" /><rect x="1949.587" y="2382.912" width="108.307" height="108.307" style="fill:#f5f5f5;" /><rect x="2057.894" y="2382.912" width="108.307" height="108.307" style="fill:#fd3200;" /><rect x="2166.201" y="2382.912" width="108.307" height="108.307" style="fill:#fd3100;" /><rect x="2274.508" y="2382.912" width="108.307" height="108.307" style="fill:#fd3000;" /><rect x="2382.814" y="2382.912" width="108.307" height="108.307" style="fill:#fd2f00;" /><rect x="2491.121" y="2382.912" width="108.307" height="108.307" style="fill:#fd2d00;" /><rect x="866.52" y="2491.219" width="108.307" height="758.147" style="fill:#2c0900;" /><rect x="974.826" y="2491.219" width="108.307" height="216.614" style="fill:#ff7e41;" /><rect x="1083.133" y="2491.219" width="108.307" height="108.307" style="fill:#fd3a00;" /><rect x="1191.44" y="2491.219" width="108.307" height="108.307" style="fill:#fd3900;" /><rect x="1299.747" y="2491.219" width="108.307" height="108.307" style="fill:#fd3800;" /><rect x="1408.053" y="2491.219" width="108.307" height="108.307" style="fill:#fd3700;" /><rect x="1516.36" y="2491.219" width="108.307" height="108.307" style="fill:#fd3600;" /><rect x="1841.281" y="2491.219" width="108.307" height="108.307" style="fill:#fff;" /><rect x="1949.587" y="2491.219" width="108.307" height="108.307" style="fill:#fd3100;" /><rect x="2057.894" y="2491.219" width="108.307" height="108.307" style="fill:#fd3000;" /><rect x="2166.201" y="2491.219" width="108.307" height="108.307" style="fill:#fd2f00;" /><rect x="2274.508" y="2491.219" width="108.307" height="108.307" style="fill:#fd2e00;" /><rect x="2382.814" y="2491.219" width="108.307" height="108.307" style="fill:#fd2d00;" /><rect x="2491.121" y="2491.219" width="108.307" height="108.307" style="fill:#fd2c00;" /><rect x="3140.962" y="2491.219" width="108.307" height="324.92" style="fill:#100300;" /><rect x="1083.133" y="2599.526" width="108.307" height="108.307" style="fill:#fd3800;" /><rect x="1191.44" y="2599.526" width="108.307" height="108.307" style="fill:#fd3700;" /><rect x="1299.747" y="2599.526" width="108.307" height="108.307" style="fill:#fd3600;" /><rect x="1408.053" y="2599.526" width="108.307" height="108.307" style="fill:#fd3500;" /><rect x="1516.36" y="2599.526" width="108.307" height="108.307" style="fill:#fd3400;" /><rect x="1624.667" y="2599.526" width="108.307" height="108.307" style="fill:#fd3300;" /><rect x="1732.974" y="2599.526" width="108.307" height="108.307" style="fill:#fd3100;" /><rect x="1841.281" y="2599.526" width="108.307" height="108.307" style="fill:#fd3000;" /><rect x="1949.587" y="2599.526" width="108.307" height="108.307" style="fill:#fd2f00;" /><rect x="2057.894" y="2599.526" width="108.307" height="108.307" style="fill:#fd2e00;" /><rect x="2166.201" y="2599.526" width="108.307" height="108.307" style="fill:#fd2d00;" /><rect x="2274.508" y="2599.526" width="216.614" height="108.307" style="fill:#fd2c00;" /><rect x="2491.121" y="2599.526" width="108.307" height="108.307" style="fill:#bf3d00;" /><rect x="2599.428" y="2599.526" width="108.307" height="541.534" style="fill:#2c0900;" /><rect x="974.826" y="2707.832" width="108.307" height="541.534" style="fill:#2c0900;" /><rect x="1083.133" y="2707.832" width="216.614" height="108.307" style="fill:#ff7e41;" /><rect x="1299.747" y="2707.832" width="108.307" height="108.307" style="fill:#fd3400;" /><rect x="1408.053" y="2707.832" width="108.307" height="108.307" style="fill:#fd3300;" /><rect x="1516.36" y="2707.832" width="108.307" height="108.307" style="fill:#fd3200;" /><rect x="1624.667" y="2707.832" width="108.307" height="108.307" style="fill:#fd3100;" /><rect x="1732.974" y="2707.832" width="108.307" height="108.307" style="fill:#fd2f00;" /><rect x="1841.281" y="2707.832" width="108.307" height="108.307" style="fill:#fd2e00;" /><rect x="1949.587" y="2707.832" width="108.307" height="108.307" style="fill:#fd2d00;" /><rect x="2057.894" y="2707.832" width="216.614" height="108.307" style="fill:#fd2c00;" /><rect x="2274.508" y="2707.832" width="216.614" height="108.307" style="fill:#bf3d00;" /><rect x="2491.121" y="2707.832" width="108.307" height="433.227" style="fill:#2c0900;" /><rect x="3032.655" y="2707.832" width="108.307" height="216.614" style="fill:#100300;" /><rect x="1083.133" y="2816.139" width="216.614" height="433.227" style="fill:#2c0900;" /><rect x="1299.747" y="2816.139" width="108.307" height="108.307" style="fill:#ff7e41;" /><rect x="1408.053" y="2816.139" width="108.307" height="108.307" style="fill:#fd3100;" /><rect x="1516.36" y="2816.139" width="108.307" height="108.307" style="fill:#fd3000;" /><rect x="1624.667" y="2816.139" width="108.307" height="108.307" style="fill:#fd2f00;" /><rect x="1732.974" y="2816.139" width="108.307" height="108.307" style="fill:#fd2d00;" /><rect x="1841.281" y="2816.139" width="324.92" height="108.307" style="fill:#fd2c00;" /><rect x="2166.201" y="2816.139" width="108.307" height="108.307" style="fill:#bf3d00;" /><rect x="2274.508" y="2816.139" width="216.614" height="433.227" style="fill:#2c0900;" /><rect x="2924.348" y="2816.139" width="108.307" height="216.614" style="fill:#100300;" /><rect x="1299.747" y="2924.446" width="108.307" height="324.92" style="fill:#2c0900;" /><rect x="1408.053" y="2924.446" width="216.614" height="108.307" style="fill:#ff7e41;" /><rect x="1624.667" y="2924.446" width="108.307" height="108.307" style="fill:#fd2d00;" /><rect x="1732.974" y="2924.446" width="216.614" height="108.307" style="fill:#fd2c00;" /><rect x="1949.587" y="2924.446" width="216.614" height="108.307" style="fill:#bf3d00;" /><rect x="2166.201" y="2924.446" width="108.307" height="324.92" style="fill:#2c0900;" /><rect x="2816.042" y="2924.446" width="108.307" height="216.614" style="fill:#100300;" /><rect x="1408.053" y="3032.753" width="216.614" height="216.614" style="fill:#2c0900;" /><rect x="1624.667" y="3032.753" width="324.92" height="108.307" style="fill:#ff7e41;" /><rect x="1949.587" y="3032.753" width="216.614" height="216.614" style="fill:#2c0900;" /><rect x="2707.735" y="3032.753" width="108.307" height="216.614" style="fill:#100300;" /><rect x="1624.667" y="3141.059" width="324.92" height="108.307" style="fill:#2c0900;" /><rect x="2491.121" y="3141.059" width="216.614" height="108.307" style="fill:#100300;" /><rect x="866.52" y="3249.366" width="1732.908" height="108.307" style="fill:#100300;" /></svg>