<?xml version="1.0" encoding="UTF-8" ?>
<svg viewBox="0 0 32 32" version="1.1" width="512" height="512" xmlns="http://www.w3.org/2000/svg" shape-rendering="crispEdges">
<rect x="7" y="1" width="1" height="1" fill="#8F34C2" />
<rect x="8" y="1" width="1" height="1" fill="#8B34C6" />
<rect x="9" y="1" width="1" height="1" fill="#8833CA" />
<rect x="10" y="1" width="1" height="1" fill="#8433CE" />
<rect x="11" y="1" width="1" height="1" fill="#8132D2" />
<rect x="12" y="1" width="1" height="1" fill="#7D32D6" />
<rect x="13" y="1" width="1" height="1" fill="#7A32DA" />
<rect x="14" y="1" width="1" height="1" fill="#7631DE" />
<rect x="15" y="1" width="1" height="1" fill="#7331E2" />
<rect x="16" y="1" width="9" height="1" fill="#7031E7" />
<rect x="5" y="2" width="1" height="1" fill="#9C35B4" />
<rect x="6" y="2" width="1" height="1" fill="#9835B8" />
<rect x="7" y="2" width="1" height="1" fill="#9535BC" />
<rect x="8" y="2" width="16" height="1" fill="#000000" />
<rect x="24" y="2" width="3" height="1" fill="#7031E7" />
<rect x="4" y="3" width="1" height="1" fill="#A537A9" />
<rect x="5" y="3" width="1" height="1" fill="#A136AD" />
<rect x="6" y="3" width="3" height="1" fill="#000000" />
<rect x="9" y="3" width="14" height="1" fill="#252525" />
<rect x="23" y="3" width="3" height="1" fill="#000000" />
<rect x="26" y="3" width="2" height="1" fill="#7031E7" />
<rect x="3" y="4" width="1" height="1" fill="#AE389E" />
<rect x="4" y="4" width="1" height="1" fill="#AA37A2" />
<rect x="5" y="4" width="2" height="1" fill="#000000" />
<rect x="7" y="4" width="3" height="1" fill="#252525" />
<rect x="10" y="4" width="15" height="4" fill="#0C0C0C" />
<rect x="25" y="4" width="2" height="1" fill="#000000" />
<rect x="27" y="4" width="2" height="1" fill="#7031E7" />
<rect x="2" y="5" width="1" height="1" fill="#B73994" />
<rect x="3" y="5" width="1" height="1" fill="#B43898" />
<rect x="4" y="5" width="2" height="1" fill="#000000" />
<rect x="6" y="5" width="2" height="1" fill="#252525" />
<rect x="8" y="5" width="2" height="3" fill="#0C0C0C" />
<rect x="25" y="5" width="1" height="22" fill="#0C0C0C" />
<rect x="26" y="5" width="2" height="1" fill="#000000" />
<rect x="28" y="5" width="2" height="1" fill="#7031E7" />
<rect x="2" y="6" width="1" height="1" fill="#BD398D" />
<rect x="3" y="6" width="2" height="1" fill="#000000" />
<rect x="5" y="6" width="2" height="1" fill="#252525" />
<rect x="7" y="6" width="1" height="2" fill="#0C0C0C" />
<rect x="26" y="6" width="1" height="20" fill="#0C0C0C" />
<rect x="27" y="6" width="2" height="1" fill="#000000" />
<rect x="29" y="6" width="1" height="2" fill="#7031E7" />
<rect x="1" y="7" width="1" height="1" fill="#C63A83" />
<rect x="2" y="7" width="1" height="1" fill="#C33A87" />
<rect x="3" y="7" width="1" height="2" fill="#000000" />
<rect x="4" y="7" width="2" height="1" fill="#252525" />
<rect x="6" y="7" width="1" height="20" fill="#0C0C0C" />
<rect x="27" y="7" width="1" height="18" fill="#0C0C0C" />
<rect x="28" y="7" width="1" height="2" fill="#000000" />
<rect x="30" y="7" width="1" height="3" fill="#7031E7" />
<rect x="1" y="8" width="1" height="1" fill="#CC3B7C" />
<rect x="2" y="8" width="1" height="16" fill="#000000" />
<rect x="4" y="8" width="1" height="2" fill="#252525" />
<rect x="5" y="8" width="1" height="18" fill="#0C0C0C" />
<rect x="7" y="8" width="2" height="2" fill="#DFDFDF" />
<rect x="9" y="8" width="2" height="8" fill="#FFFFFF" />
<rect x="11" y="8" width="2" height="2" fill="#DFDFDF" />
<rect x="13" y="8" width="4" height="6" fill="#0C0C0C" />
<rect x="17" y="8" width="2" height="8" fill="#FFFFFF" />
<rect x="19" y="8" width="6" height="20" fill="#0C0C0C" />
<rect x="29" y="8" width="1" height="16" fill="#000000" />
<rect x="1" y="9" width="1" height="1" fill="#D13C75" />
<rect x="3" y="9" width="1" height="14" fill="#252525" />
<rect x="28" y="9" width="1" height="14" fill="#0C0C0C" />
<rect x="1" y="10" width="1" height="1" fill="#D73C6F" />
<rect x="4" y="10" width="1" height="15" fill="#0C0C0C" />
<rect x="7" y="10" width="2" height="4" fill="#0C0C0C" />
<rect x="11" y="10" width="2" height="4" fill="#0C0C0C" />
<rect x="30" y="10" width="1" height="1" fill="#7231E4" />
<rect x="1" y="11" width="1" height="1" fill="#DD3D68" />
<rect x="30" y="11" width="1" height="1" fill="#7831DD" />
<rect x="1" y="12" width="1" height="1" fill="#E33E62" />
<rect x="30" y="12" width="1" height="1" fill="#7D32D6" />
<rect x="1" y="13" width="1" height="1" fill="#E83E5B" />
<rect x="30" y="13" width="1" height="1" fill="#8333D0" />
<rect x="1" y="14" width="1" height="1" fill="#EE3F54" />
<rect x="7" y="14" width="2" height="2" fill="#FFFFFF" />
<rect x="11" y="14" width="2" height="2" fill="#FFFFFF" />
<rect x="13" y="14" width="2" height="10" fill="#0C0C0C" />
<rect x="15" y="14" width="2" height="2" fill="#DFDFDF" />
<rect x="30" y="14" width="1" height="1" fill="#8933C9" />
<rect x="1" y="15" width="1" height="1" fill="#F43F4E" />
<rect x="30" y="15" width="1" height="1" fill="#8F34C3" />
<rect x="1" y="16" width="1" height="1" fill="#F94047" />
<rect x="7" y="16" width="6" height="8" fill="#0C0C0C" />
<rect x="15" y="16" width="4" height="13" fill="#0C0C0C" />
<rect x="30" y="16" width="1" height="1" fill="#9435BC" />
<rect x="1" y="17" width="1" height="8" fill="#FD4144" />
<rect x="30" y="17" width="1" height="1" fill="#9A35B5" />
<rect x="30" y="18" width="1" height="1" fill="#A036AF" />
<rect x="30" y="19" width="1" height="1" fill="#A537A8" />
<rect x="30" y="20" width="1" height="1" fill="#AB37A2" />
<rect x="30" y="21" width="1" height="1" fill="#B1389B" />
<rect x="30" y="22" width="1" height="1" fill="#B63994" />
<rect x="3" y="23" width="1" height="3" fill="#000000" />
<rect x="28" y="23" width="1" height="3" fill="#000000" />
<rect x="30" y="23" width="1" height="1" fill="#BC398E" />
<rect x="2" y="24" width="1" height="3" fill="#FD4144" />
<rect x="7" y="24" width="7" height="1" fill="#FFFFFF" />
<rect x="14" y="24" width="1" height="5" fill="#0C0C0C" />
<rect x="29" y="24" width="1" height="1" fill="#C53A83" />
<rect x="30" y="24" width="1" height="1" fill="#C23A87" />
<rect x="4" y="25" width="1" height="2" fill="#000000" />
<rect x="7" y="25" width="7" height="3" fill="#0C0C0C" />
<rect x="27" y="25" width="1" height="2" fill="#000000" />
<rect x="29" y="25" width="1" height="1" fill="#CB3B7D" />
<rect x="3" y="26" width="1" height="2" fill="#FD4144" />
<rect x="5" y="26" width="1" height="2" fill="#000000" />
<rect x="26" y="26" width="1" height="2" fill="#000000" />
<rect x="28" y="26" width="1" height="1" fill="#D43C72" />
<rect x="29" y="26" width="1" height="1" fill="#D13C76" />
<rect x="4" y="27" width="1" height="2" fill="#FD4144" />
<rect x="6" y="27" width="1" height="2" fill="#000000" />
<rect x="25" y="27" width="1" height="2" fill="#000000" />
<rect x="27" y="27" width="1" height="1" fill="#DD3D67" />
<rect x="28" y="27" width="1" height="1" fill="#DA3D6B" />
<rect x="5" y="28" width="1" height="2" fill="#FD4144" />
<rect x="7" y="28" width="2" height="1" fill="#000000" />
<rect x="9" y="28" width="5" height="1" fill="#0C0C0C" />
<rect x="19" y="28" width="4" height="1" fill="#0C0C0C" />
<rect x="23" y="28" width="2" height="1" fill="#000000" />
<rect x="26" y="28" width="1" height="1" fill="#E73E5D" />
<rect x="27" y="28" width="1" height="1" fill="#E33E61" />
<rect x="6" y="29" width="2" height="1" fill="#FD4144" />
<rect x="8" y="29" width="16" height="1" fill="#000000" />
<rect x="24" y="29" width="1" height="1" fill="#F33F4E" />
<rect x="25" y="29" width="1" height="1" fill="#F03F52" />
<rect x="26" y="29" width="1" height="1" fill="#EC3F56" />
<rect x="7" y="30" width="17" height="1" fill="#FD4144" />
<rect x="24" y="30" width="1" height="1" fill="#F94048" />
</svg>