<?xml version="1.0" encoding="UTF-8" ?>
<svg viewBox="0 0 32 32" version="1.1" width="512" height="512" xmlns="http://www.w3.org/2000/svg" shape-rendering="crispEdges">
<rect x="7" y="1" width="18" height="1" fill="#4C2100" />
<rect x="5" y="2" width="3" height="1" fill="#4C2100" />
<rect x="8" y="2" width="16" height="1" fill="#D4662A" />
<rect x="24" y="2" width="3" height="1" fill="#4C2100" />
<rect x="4" y="3" width="2" height="1" fill="#4C2100" />
<rect x="6" y="3" width="3" height="1" fill="#D4662A" />
<rect x="9" y="3" width="2" height="1" fill="#6C251B" />
<rect x="11" y="3" width="1" height="1" fill="#79271E" />
<rect x="12" y="3" width="1" height="1" fill="#6C251B" />
<rect x="13" y="3" width="1" height="1" fill="#79271E" />
<rect x="14" y="3" width="1" height="1" fill="#6C251B" />
<rect x="15" y="3" width="1" height="1" fill="#79271E" />
<rect x="16" y="3" width="1" height="1" fill="#6C251B" />
<rect x="17" y="3" width="1" height="26" fill="#79271E" />
<rect x="18" y="3" width="1" height="1" fill="#6C251B" />
<rect x="19" y="3" width="1" height="11" fill="#79271E" />
<rect x="20" y="3" width="1" height="1" fill="#6C251B" />
<rect x="21" y="3" width="2" height="8" fill="#79271E" />
<rect x="23" y="3" width="3" height="1" fill="#8B3518" />
<rect x="26" y="3" width="2" height="1" fill="#4C2100" />
<rect x="3" y="4" width="2" height="1" fill="#4C2100" />
<rect x="5" y="4" width="2" height="1" fill="#D4662A" />
<rect x="7" y="4" width="1" height="24" fill="#6C251B" />
<rect x="8" y="4" width="1" height="1" fill="#79271E" />
<rect x="9" y="4" width="1" height="25" fill="#6C251B" />
<rect x="10" y="4" width="1" height="1" fill="#79271E" />
<rect x="11" y="4" width="1" height="3" fill="#6C251B" />
<rect x="12" y="4" width="1" height="1" fill="#79271E" />
<rect x="13" y="4" width="1" height="1" fill="#6C251B" />
<rect x="14" y="4" width="1" height="1" fill="#79271E" />
<rect x="15" y="4" width="1" height="1" fill="#6C251B" />
<rect x="16" y="4" width="1" height="1" fill="#79271E" />
<rect x="18" y="4" width="1" height="1" fill="#79271E" />
<rect x="20" y="4" width="1" height="3" fill="#79271E" />
<rect x="23" y="4" width="2" height="7" fill="#79271E" />
<rect x="25" y="4" width="2" height="1" fill="#8B3518" />
<rect x="27" y="4" width="2" height="1" fill="#4C2100" />
<rect x="2" y="5" width="2" height="1" fill="#4C2100" />
<rect x="4" y="5" width="2" height="1" fill="#D4662A" />
<rect x="6" y="5" width="1" height="22" fill="#6C251B" />
<rect x="8" y="5" width="1" height="3" fill="#6C251B" />
<rect x="10" y="5" width="1" height="1" fill="#6C251B" />
<rect x="12" y="5" width="1" height="1" fill="#6C251B" />
<rect x="13" y="5" width="1" height="1" fill="#79271E" />
<rect x="14" y="5" width="1" height="1" fill="#6C251B" />
<rect x="15" y="5" width="1" height="3" fill="#79271E" />
<rect x="16" y="5" width="1" height="1" fill="#6C251B" />
<rect x="18" y="5" width="1" height="1" fill="#6C251B" />
<rect x="25" y="5" width="1" height="6" fill="#79271E" />
<rect x="26" y="5" width="2" height="1" fill="#8B3518" />
<rect x="28" y="5" width="2" height="1" fill="#4C2100" />
<rect x="2" y="6" width="1" height="2" fill="#4C2100" />
<rect x="3" y="6" width="2" height="1" fill="#D4662A" />
<rect x="5" y="6" width="1" height="20" fill="#6C251B" />
<rect x="10" y="6" width="1" height="1" fill="#79271E" />
<rect x="12" y="6" width="1" height="1" fill="#79271E" />
<rect x="13" y="6" width="1" height="1" fill="#6C251B" />
<rect x="14" y="6" width="1" height="1" fill="#79271E" />
<rect x="16" y="6" width="1" height="1" fill="#79271E" />
<rect x="18" y="6" width="1" height="1" fill="#79271E" />
<rect x="26" y="6" width="1" height="5" fill="#79271E" />
<rect x="27" y="6" width="2" height="1" fill="#8B3518" />
<rect x="29" y="6" width="1" height="2" fill="#4C2100" />
<rect x="1" y="7" width="1" height="18" fill="#4C2100" />
<rect x="3" y="7" width="1" height="2" fill="#D4662A" />
<rect x="4" y="7" width="1" height="18" fill="#6C251B" />
<rect x="10" y="7" width="1" height="1" fill="#6C251B" />
<rect x="11" y="7" width="1" height="1" fill="#79271E" />
<rect x="12" y="7" width="1" height="1" fill="#6C251B" />
<rect x="13" y="7" width="1" height="1" fill="#79271E" />
<rect x="14" y="7" width="1" height="1" fill="#6C251B" />
<rect x="16" y="7" width="1" height="1" fill="#6C251B" />
<rect x="18" y="7" width="1" height="1" fill="#6C251B" />
<rect x="20" y="7" width="1" height="1" fill="#6C251B" />
<rect x="27" y="7" width="1" height="4" fill="#79271E" />
<rect x="28" y="7" width="1" height="2" fill="#8B3518" />
<rect x="30" y="7" width="1" height="18" fill="#4C2100" />
<rect x="2" y="8" width="1" height="16" fill="#D4662A" />
<rect x="8" y="8" width="1" height="1" fill="#79271E" />
<rect x="10" y="8" width="1" height="1" fill="#79271E" />
<rect x="11" y="8" width="1" height="3" fill="#6C251B" />
<rect x="12" y="8" width="1" height="1" fill="#79271E" />
<rect x="13" y="8" width="1" height="1" fill="#6C251B" />
<rect x="14" y="8" width="1" height="1" fill="#79271E" />
<rect x="15" y="8" width="1" height="1" fill="#6C251B" />
<rect x="16" y="8" width="1" height="1" fill="#79271E" />
<rect x="18" y="8" width="1" height="1" fill="#79271E" />
<rect x="20" y="8" width="1" height="3" fill="#79271E" />
<rect x="29" y="8" width="1" height="3" fill="#8B3518" />
<rect x="3" y="9" width="1" height="14" fill="#6C251B" />
<rect x="8" y="9" width="1" height="3" fill="#6C251B" />
<rect x="10" y="9" width="1" height="1" fill="#6C251B" />
<rect x="12" y="9" width="1" height="1" fill="#6C251B" />
<rect x="13" y="9" width="1" height="1" fill="#79271E" />
<rect x="14" y="9" width="1" height="1" fill="#6C251B" />
<rect x="15" y="9" width="1" height="3" fill="#79271E" />
<rect x="16" y="9" width="1" height="1" fill="#6C251B" />
<rect x="18" y="9" width="1" height="1" fill="#6C251B" />
<rect x="28" y="9" width="1" height="2" fill="#79271E" />
<rect x="10" y="10" width="1" height="1" fill="#79271E" />
<rect x="12" y="10" width="1" height="1" fill="#79271E" />
<rect x="13" y="10" width="1" height="1" fill="#6C251B" />
<rect x="14" y="10" width="1" height="1" fill="#79271E" />
<rect x="16" y="10" width="1" height="1" fill="#79271E" />
<rect x="18" y="10" width="1" height="1" fill="#79271E" />
<rect x="10" y="11" width="1" height="1" fill="#6C251B" />
<rect x="11" y="11" width="1" height="1" fill="#79271E" />
<rect x="12" y="11" width="1" height="1" fill="#6C251B" />
<rect x="13" y="11" width="1" height="1" fill="#79271E" />
<rect x="14" y="11" width="1" height="1" fill="#6C251B" />
<rect x="16" y="11" width="1" height="1" fill="#6C251B" />
<rect x="18" y="11" width="1" height="1" fill="#6C251B" />
<rect x="20" y="11" width="1" height="1" fill="#6C251B" />
<rect x="21" y="11" width="1" height="1" fill="#79271E" />
<rect x="22" y="11" width="8" height="1" fill="#4C2100" />
<rect x="8" y="12" width="1" height="1" fill="#79271E" />
<rect x="10" y="12" width="1" height="1" fill="#79271E" />
<rect x="11" y="12" width="1" height="3" fill="#6C251B" />
<rect x="12" y="12" width="1" height="1" fill="#79271E" />
<rect x="13" y="12" width="1" height="1" fill="#6C251B" />
<rect x="14" y="12" width="1" height="1" fill="#79271E" />
<rect x="15" y="12" width="1" height="1" fill="#6C251B" />
<rect x="16" y="12" width="1" height="1" fill="#79271E" />
<rect x="18" y="12" width="1" height="1" fill="#79271E" />
<rect x="20" y="12" width="1" height="1" fill="#79271E" />
<rect x="21" y="12" width="1" height="1" fill="#4C2100" />
<rect x="22" y="12" width="8" height="1" fill="#D4662A" />
<rect x="8" y="13" width="1" height="3" fill="#6C251B" />
<rect x="10" y="13" width="1" height="1" fill="#6C251B" />
<rect x="12" y="13" width="1" height="1" fill="#6C251B" />
<rect x="13" y="13" width="1" height="1" fill="#79271E" />
<rect x="14" y="13" width="1" height="1" fill="#6C251B" />
<rect x="15" y="13" width="1" height="3" fill="#79271E" />
<rect x="16" y="13" width="1" height="1" fill="#6C251B" />
<rect x="18" y="13" width="1" height="1" fill="#6C251B" />
<rect x="20" y="13" width="1" height="1" fill="#4C2100" />
<rect x="21" y="13" width="1" height="1" fill="#D4662A" />
<rect x="22" y="13" width="8" height="1" fill="#A14424" />
<rect x="10" y="14" width="1" height="1" fill="#79271E" />
<rect x="12" y="14" width="1" height="1" fill="#79271E" />
<rect x="13" y="14" width="1" height="1" fill="#6C251B" />
<rect x="14" y="14" width="1" height="1" fill="#79271E" />
<rect x="16" y="14" width="1" height="1" fill="#79271E" />
<rect x="18" y="14" width="1" height="1" fill="#79271E" />
<rect x="19" y="14" width="1" height="4" fill="#4C2100" />
<rect x="20" y="14" width="1" height="1" fill="#D4662A" />
<rect x="21" y="14" width="3" height="1" fill="#A14424" />
<rect x="24" y="14" width="2" height="4" fill="#4C2100" />
<rect x="26" y="14" width="4" height="1" fill="#A14424" />
<rect x="10" y="15" width="1" height="1" fill="#6C251B" />
<rect x="11" y="15" width="1" height="1" fill="#79271E" />
<rect x="12" y="15" width="1" height="1" fill="#6C251B" />
<rect x="13" y="15" width="1" height="1" fill="#79271E" />
<rect x="14" y="15" width="1" height="1" fill="#6C251B" />
<rect x="16" y="15" width="1" height="1" fill="#6C251B" />
<rect x="18" y="15" width="1" height="1" fill="#6C251B" />
<rect x="20" y="15" width="3" height="3" fill="#A14424" />
<rect x="23" y="15" width="1" height="2" fill="#4C2100" />
<rect x="26" y="15" width="1" height="2" fill="#4C2100" />
<rect x="27" y="15" width="3" height="5" fill="#A14424" />
<rect x="8" y="16" width="1" height="1" fill="#79271E" />
<rect x="10" y="16" width="1" height="1" fill="#79271E" />
<rect x="11" y="16" width="1" height="3" fill="#6C251B" />
<rect x="12" y="16" width="1" height="1" fill="#79271E" />
<rect x="13" y="16" width="1" height="1" fill="#6C251B" />
<rect x="14" y="16" width="1" height="1" fill="#79271E" />
<rect x="15" y="16" width="1" height="1" fill="#6C251B" />
<rect x="16" y="16" width="1" height="1" fill="#79271E" />
<rect x="18" y="16" width="1" height="1" fill="#79271E" />
<rect x="8" y="17" width="1" height="3" fill="#6C251B" />
<rect x="10" y="17" width="1" height="1" fill="#6C251B" />
<rect x="12" y="17" width="1" height="1" fill="#6C251B" />
<rect x="13" y="17" width="1" height="1" fill="#79271E" />
<rect x="14" y="17" width="1" height="1" fill="#6C251B" />
<rect x="15" y="17" width="1" height="3" fill="#79271E" />
<rect x="16" y="17" width="1" height="1" fill="#6C251B" />
<rect x="18" y="17" width="1" height="1" fill="#6C251B" />
<rect x="23" y="17" width="1" height="3" fill="#A14424" />
<rect x="26" y="17" width="1" height="3" fill="#A14424" />
<rect x="10" y="18" width="1" height="1" fill="#79271E" />
<rect x="12" y="18" width="1" height="1" fill="#79271E" />
<rect x="13" y="18" width="1" height="1" fill="#6C251B" />
<rect x="14" y="18" width="1" height="1" fill="#79271E" />
<rect x="16" y="18" width="1" height="1" fill="#79271E" />
<rect x="18" y="18" width="2" height="1" fill="#79271E" />
<rect x="20" y="18" width="1" height="1" fill="#4C2100" />
<rect x="21" y="18" width="2" height="1" fill="#A14424" />
<rect x="24" y="18" width="2" height="2" fill="#A14424" />
<rect x="10" y="19" width="1" height="1" fill="#6C251B" />
<rect x="11" y="19" width="1" height="1" fill="#79271E" />
<rect x="12" y="19" width="1" height="1" fill="#6C251B" />
<rect x="13" y="19" width="1" height="1" fill="#79271E" />
<rect x="14" y="19" width="1" height="1" fill="#6C251B" />
<rect x="16" y="19" width="1" height="1" fill="#6C251B" />
<rect x="18" y="19" width="1" height="1" fill="#6C251B" />
<rect x="19" y="19" width="1" height="10" fill="#79271E" />
<rect x="20" y="19" width="1" height="1" fill="#6C251B" />
<rect x="21" y="19" width="1" height="1" fill="#4C2100" />
<rect x="22" y="19" width="1" height="1" fill="#A14424" />
<rect x="8" y="20" width="1" height="1" fill="#79271E" />
<rect x="10" y="20" width="1" height="1" fill="#79271E" />
<rect x="11" y="20" width="1" height="3" fill="#6C251B" />
<rect x="12" y="20" width="1" height="1" fill="#79271E" />
<rect x="13" y="20" width="1" height="1" fill="#6C251B" />
<rect x="14" y="20" width="1" height="1" fill="#79271E" />
<rect x="15" y="20" width="1" height="1" fill="#6C251B" />
<rect x="16" y="20" width="1" height="1" fill="#79271E" />
<rect x="18" y="20" width="1" height="1" fill="#79271E" />
<rect x="20" y="20" width="2" height="3" fill="#79271E" />
<rect x="22" y="20" width="8" height="1" fill="#4C2100" />
<rect x="8" y="21" width="1" height="3" fill="#6C251B" />
<rect x="10" y="21" width="1" height="1" fill="#6C251B" />
<rect x="12" y="21" width="1" height="1" fill="#6C251B" />
<rect x="13" y="21" width="1" height="1" fill="#79271E" />
<rect x="14" y="21" width="1" height="1" fill="#6C251B" />
<rect x="15" y="21" width="1" height="3" fill="#79271E" />
<rect x="16" y="21" width="1" height="1" fill="#6C251B" />
<rect x="18" y="21" width="1" height="1" fill="#6C251B" />
<rect x="22" y="21" width="7" height="2" fill="#79271E" />
<rect x="29" y="21" width="1" height="3" fill="#8B3518" />
<rect x="10" y="22" width="1" height="1" fill="#79271E" />
<rect x="12" y="22" width="1" height="1" fill="#79271E" />
<rect x="13" y="22" width="1" height="1" fill="#6C251B" />
<rect x="14" y="22" width="1" height="1" fill="#79271E" />
<rect x="16" y="22" width="1" height="1" fill="#79271E" />
<rect x="18" y="22" width="1" height="1" fill="#79271E" />
<rect x="3" y="23" width="1" height="3" fill="#8B3518" />
<rect x="10" y="23" width="1" height="1" fill="#6C251B" />
<rect x="11" y="23" width="1" height="1" fill="#79271E" />
<rect x="12" y="23" width="1" height="1" fill="#6C251B" />
<rect x="13" y="23" width="1" height="1" fill="#79271E" />
<rect x="14" y="23" width="1" height="1" fill="#6C251B" />
<rect x="16" y="23" width="1" height="1" fill="#6C251B" />
<rect x="18" y="23" width="1" height="1" fill="#6C251B" />
<rect x="20" y="23" width="1" height="1" fill="#6C251B" />
<rect x="21" y="23" width="7" height="2" fill="#79271E" />
<rect x="28" y="23" width="1" height="3" fill="#8B3518" />
<rect x="2" y="24" width="1" height="3" fill="#4C2100" />
<rect x="8" y="24" width="1" height="1" fill="#79271E" />
<rect x="10" y="24" width="1" height="1" fill="#79271E" />
<rect x="11" y="24" width="1" height="3" fill="#6C251B" />
<rect x="12" y="24" width="1" height="1" fill="#79271E" />
<rect x="13" y="24" width="1" height="1" fill="#6C251B" />
<rect x="14" y="24" width="1" height="1" fill="#79271E" />
<rect x="15" y="24" width="1" height="1" fill="#6C251B" />
<rect x="16" y="24" width="1" height="1" fill="#79271E" />
<rect x="18" y="24" width="1" height="1" fill="#79271E" />
<rect x="20" y="24" width="1" height="3" fill="#79271E" />
<rect x="29" y="24" width="1" height="3" fill="#4C2100" />
<rect x="4" y="25" width="1" height="2" fill="#8B3518" />
<rect x="8" y="25" width="1" height="3" fill="#6C251B" />
<rect x="10" y="25" width="1" height="1" fill="#6C251B" />
<rect x="12" y="25" width="1" height="1" fill="#6C251B" />
<rect x="13" y="25" width="1" height="1" fill="#79271E" />
<rect x="14" y="25" width="1" height="1" fill="#6C251B" />
<rect x="15" y="25" width="1" height="3" fill="#79271E" />
<rect x="16" y="25" width="1" height="1" fill="#6C251B" />
<rect x="18" y="25" width="1" height="1" fill="#6C251B" />
<rect x="21" y="25" width="6" height="1" fill="#79271E" />
<rect x="27" y="25" width="1" height="2" fill="#8B3518" />
<rect x="3" y="26" width="1" height="2" fill="#4C2100" />
<rect x="5" y="26" width="1" height="2" fill="#8B3518" />
<rect x="10" y="26" width="1" height="1" fill="#79271E" />
<rect x="12" y="26" width="1" height="1" fill="#79271E" />
<rect x="13" y="26" width="1" height="1" fill="#6C251B" />
<rect x="14" y="26" width="1" height="1" fill="#79271E" />
<rect x="16" y="26" width="1" height="1" fill="#79271E" />
<rect x="18" y="26" width="1" height="1" fill="#79271E" />
<rect x="21" y="26" width="5" height="1" fill="#79271E" />
<rect x="26" y="26" width="1" height="2" fill="#8B3518" />
<rect x="28" y="26" width="1" height="2" fill="#4C2100" />
<rect x="4" y="27" width="1" height="2" fill="#4C2100" />
<rect x="6" y="27" width="1" height="2" fill="#8B3518" />
<rect x="10" y="27" width="1" height="1" fill="#6C251B" />
<rect x="11" y="27" width="1" height="1" fill="#79271E" />
<rect x="12" y="27" width="1" height="1" fill="#6C251B" />
<rect x="13" y="27" width="1" height="1" fill="#79271E" />
<rect x="14" y="27" width="1" height="1" fill="#6C251B" />
<rect x="16" y="27" width="1" height="1" fill="#6C251B" />
<rect x="18" y="27" width="1" height="1" fill="#6C251B" />
<rect x="20" y="27" width="1" height="1" fill="#6C251B" />
<rect x="21" y="27" width="4" height="1" fill="#79271E" />
<rect x="25" y="27" width="1" height="2" fill="#8B3518" />
<rect x="27" y="27" width="1" height="2" fill="#4C2100" />
<rect x="5" y="28" width="1" height="2" fill="#4C2100" />
<rect x="7" y="28" width="2" height="1" fill="#8B3518" />
<rect x="10" y="28" width="1" height="1" fill="#79271E" />
<rect x="11" y="28" width="1" height="1" fill="#6C251B" />
<rect x="12" y="28" width="1" height="1" fill="#79271E" />
<rect x="13" y="28" width="1" height="1" fill="#6C251B" />
<rect x="14" y="28" width="1" height="1" fill="#79271E" />
<rect x="15" y="28" width="1" height="1" fill="#6C251B" />
<rect x="16" y="28" width="1" height="1" fill="#79271E" />
<rect x="18" y="28" width="1" height="1" fill="#79271E" />
<rect x="20" y="28" width="3" height="1" fill="#79271E" />
<rect x="23" y="28" width="2" height="1" fill="#8B3518" />
<rect x="26" y="28" width="1" height="2" fill="#4C2100" />
<rect x="6" y="29" width="2" height="1" fill="#4C2100" />
<rect x="8" y="29" width="16" height="1" fill="#8B3518" />
<rect x="24" y="29" width="2" height="1" fill="#4C2100" />
<rect x="7" y="30" width="18" height="1" fill="#4C2100" />
</svg>