<?xml version="1.0" encoding="UTF-8" ?>
<svg viewBox="0 0 32 32" version="1.1" width="512" height="512" xmlns="http://www.w3.org/2000/svg" shape-rendering="crispEdges">
<rect x="7" y="1" width="18" height="1" fill="#111111" />
<rect x="5" y="2" width="3" height="1" fill="#111111" />
<rect x="8" y="2" width="16" height="8" fill="#212121" />
<rect x="24" y="2" width="3" height="1" fill="#111111" />
<rect x="4" y="3" width="2" height="1" fill="#111111" />
<rect x="6" y="3" width="2" height="9" fill="#212121" />
<rect x="24" y="3" width="2" height="15" fill="#212121" />
<rect x="26" y="3" width="2" height="1" fill="#111111" />
<rect x="3" y="4" width="2" height="1" fill="#111111" />
<rect x="5" y="4" width="1" height="10" fill="#212121" />
<rect x="26" y="4" width="1" height="13" fill="#212121" />
<rect x="27" y="4" width="2" height="1" fill="#111111" />
<rect x="2" y="5" width="2" height="1" fill="#111111" />
<rect x="4" y="5" width="1" height="10" fill="#212121" />
<rect x="27" y="5" width="1" height="11" fill="#212121" />
<rect x="28" y="5" width="2" height="1" fill="#111111" />
<rect x="2" y="6" width="1" height="2" fill="#111111" />
<rect x="3" y="6" width="1" height="11" fill="#212121" />
<rect x="28" y="6" width="1" height="9" fill="#212121" />
<rect x="29" y="6" width="1" height="2" fill="#111111" />
<rect x="1" y="7" width="1" height="18" fill="#111111" />
<rect x="30" y="7" width="1" height="18" fill="#111111" />
<rect x="2" y="8" width="1" height="10" fill="#212121" />
<rect x="29" y="8" width="1" height="6" fill="#212121" />
<rect x="8" y="10" width="1" height="1" fill="#212121" />
<rect x="9" y="10" width="4" height="1" fill="#B0E6E4" />
<rect x="13" y="10" width="2" height="1" fill="#B0E6E3" />
<rect x="15" y="10" width="9" height="1" fill="#212121" />
<rect x="8" y="11" width="1" height="1" fill="#B1E6E1" />
<rect x="9" y="11" width="2" height="1" fill="#46C5B9" />
<rect x="11" y="11" width="2" height="1" fill="#46C5B8" />
<rect x="13" y="11" width="2" height="1" fill="#47C5B8" />
<rect x="15" y="11" width="1" height="1" fill="#B1E6E0" />
<rect x="16" y="11" width="8" height="1" fill="#212121" />
<rect x="6" y="12" width="1" height="1" fill="#212121" />
<rect x="7" y="12" width="1" height="1" fill="#B2E6DF" />
<rect x="8" y="12" width="2" height="1" fill="#48C5B3" />
<rect x="10" y="12" width="3" height="1" fill="#48C5B2" />
<rect x="13" y="12" width="1" height="1" fill="#4AC4B1" />
<rect x="14" y="12" width="2" height="1" fill="#4AC4B0" />
<rect x="16" y="12" width="1" height="1" fill="#B3E6DD" />
<rect x="17" y="12" width="7" height="1" fill="#212121" />
<rect x="6" y="13" width="1" height="1" fill="#B3E6DC" />
<rect x="7" y="13" width="2" height="1" fill="#4BC5AC" />
<rect x="9" y="13" width="3" height="1" fill="#4BC5AB" />
<rect x="12" y="13" width="1" height="1" fill="#4BC5AA" />
<rect x="13" y="13" width="3" height="1" fill="#4CC5A9" />
<rect x="16" y="13" width="1" height="1" fill="#4CC5A8" />
<rect x="17" y="13" width="1" height="1" fill="#B3E6DA" />
<rect x="18" y="13" width="6" height="1" fill="#212121" />
<rect x="5" y="14" width="1" height="1" fill="#B3E6D9" />
<rect x="6" y="14" width="2" height="1" fill="#4DC5A6" />
<rect x="8" y="14" width="3" height="1" fill="#4DC5A5" />
<rect x="11" y="14" width="2" height="1" fill="#4DC5A3" />
<rect x="13" y="14" width="2" height="1" fill="#4EC5A3" />
<rect x="15" y="14" width="3" height="1" fill="#4EC5A2" />
<rect x="18" y="14" width="1" height="2" fill="#B5E6D4" />
<rect x="19" y="14" width="5" height="2" fill="#212121" />
<rect x="29" y="14" width="1" height="1" fill="#B5E6D5" />
<rect x="4" y="15" width="1" height="1" fill="#B4E6D7" />
<rect x="5" y="15" width="1" height="1" fill="#4EC5A0" />
<rect x="6" y="15" width="1" height="1" fill="#50C4A0" />
<rect x="7" y="15" width="1" height="1" fill="#50C49E" />
<rect x="8" y="15" width="2" height="1" fill="#4FC69E" />
<rect x="10" y="15" width="3" height="1" fill="#4FC69D" />
<rect x="13" y="15" width="1" height="1" fill="#51C59D" />
<rect x="14" y="15" width="3" height="1" fill="#51C59B" />
<rect x="17" y="15" width="1" height="1" fill="#51C59A" />
<rect x="28" y="15" width="1" height="1" fill="#B6E6D2" />
<rect x="29" y="15" width="1" height="1" fill="#53C595" />
<rect x="4" y="16" width="1" height="1" fill="#B5E6D4" />
<rect x="5" y="16" width="1" height="1" fill="#51C59A" />
<rect x="6" y="16" width="3" height="1" fill="#52C598" />
<rect x="9" y="16" width="3" height="1" fill="#52C596" />
<rect x="12" y="16" width="1" height="1" fill="#52C595" />
<rect x="13" y="16" width="3" height="1" fill="#53C595" />
<rect x="16" y="16" width="3" height="1" fill="#53C593" />
<rect x="19" y="16" width="1" height="1" fill="#B6E6D1" />
<rect x="20" y="16" width="4" height="1" fill="#212121" />
<rect x="27" y="16" width="1" height="1" fill="#B7E7CF" />
<rect x="28" y="16" width="1" height="1" fill="#55C68E" />
<rect x="29" y="16" width="1" height="1" fill="#55C68D" />
<rect x="3" y="17" width="1" height="1" fill="#B6E7D1" />
<rect x="4" y="17" width="1" height="1" fill="#53C593" />
<rect x="5" y="17" width="1" height="1" fill="#53C592" />
<rect x="6" y="17" width="2" height="1" fill="#54C592" />
<rect x="8" y="17" width="3" height="1" fill="#54C590" />
<rect x="11" y="17" width="2" height="1" fill="#54C58F" />
<rect x="13" y="17" width="2" height="1" fill="#55C68E" />
<rect x="15" y="17" width="3" height="1" fill="#55C68D" />
<rect x="18" y="17" width="2" height="1" fill="#55C68B" />
<rect x="20" y="17" width="1" height="1" fill="#B8E6CE" />
<rect x="21" y="17" width="3" height="1" fill="#212121" />
<rect x="26" y="17" width="1" height="1" fill="#B8E6CD" />
<rect x="27" y="17" width="1" height="1" fill="#58C588" />
<rect x="28" y="17" width="2" height="1" fill="#58C586" />
<rect x="2" y="18" width="1" height="1" fill="#B8E6CF" />
<rect x="3" y="18" width="1" height="1" fill="#55C68D" />
<rect x="4" y="18" width="2" height="1" fill="#55C68B" />
<rect x="6" y="18" width="1" height="1" fill="#57C58B" />
<rect x="7" y="18" width="3" height="1" fill="#57C58A" />
<rect x="10" y="18" width="3" height="1" fill="#57C588" />
<rect x="13" y="18" width="1" height="1" fill="#58C588" />
<rect x="14" y="18" width="3" height="1" fill="#58C586" />
<rect x="17" y="18" width="3" height="1" fill="#58C585" />
<rect x="20" y="18" width="1" height="1" fill="#59C583" />
<rect x="21" y="18" width="5" height="1" fill="#B9E6CA" />
<rect x="26" y="18" width="1" height="1" fill="#59C580" />
<rect x="27" y="18" width="3" height="1" fill="#5AC580" />
<rect x="2" y="19" width="1" height="1" fill="#58C586" />
<rect x="3" y="19" width="3" height="1" fill="#58C585" />
<rect x="6" y="19" width="3" height="1" fill="#59C583" />
<rect x="9" y="19" width="3" height="1" fill="#59C582" />
<rect x="12" y="19" width="1" height="1" fill="#59C580" />
<rect x="13" y="19" width="3" height="1" fill="#5AC580" />
<rect x="16" y="19" width="2" height="1" fill="#5AC57F" />
<rect x="18" y="19" width="1" height="1" fill="#5AC67E" />
<rect x="19" y="19" width="1" height="1" fill="#5AC67D" />
<rect x="20" y="19" width="6" height="1" fill="#5BC67D" />
<rect x="26" y="19" width="1" height="1" fill="#5BC67A" />
<rect x="27" y="19" width="2" height="1" fill="#5CC67A" />
<rect x="29" y="19" width="1" height="1" fill="#5CC678" />
<rect x="2" y="20" width="2" height="1" fill="#5AC57F" />
<rect x="4" y="20" width="1" height="1" fill="#5AC67E" />
<rect x="5" y="20" width="1" height="1" fill="#5AC67D" />
<rect x="6" y="20" width="2" height="1" fill="#5BC67D" />
<rect x="8" y="20" width="3" height="1" fill="#5BC67B" />
<rect x="11" y="20" width="2" height="1" fill="#5BC67A" />
<rect x="13" y="20" width="2" height="1" fill="#5CC67A" />
<rect x="15" y="20" width="3" height="1" fill="#5CC678" />
<rect x="18" y="20" width="2" height="1" fill="#5CC677" />
<rect x="20" y="20" width="1" height="1" fill="#5EC576" />
<rect x="21" y="20" width="3" height="1" fill="#5EC575" />
<rect x="24" y="20" width="3" height="1" fill="#5EC574" />
<rect x="27" y="20" width="1" height="1" fill="#5FC573" />
<rect x="28" y="20" width="2" height="1" fill="#5FC572" />
<rect x="2" y="21" width="2" height="1" fill="#5CC678" />
<rect x="4" y="21" width="2" height="1" fill="#5CC677" />
<rect x="6" y="21" width="1" height="1" fill="#5EC576" />
<rect x="7" y="21" width="3" height="1" fill="#5EC575" />
<rect x="10" y="21" width="3" height="1" fill="#5EC574" />
<rect x="13" y="21" width="1" height="1" fill="#5FC573" />
<rect x="14" y="21" width="3" height="1" fill="#5FC572" />
<rect x="17" y="21" width="3" height="1" fill="#5FC570" />
<rect x="20" y="21" width="3" height="1" fill="#60C56F" />
<rect x="23" y="21" width="3" height="1" fill="#60C66D" />
<rect x="26" y="21" width="1" height="1" fill="#60C66C" />
<rect x="27" y="21" width="3" height="1" fill="#61C66B" />
<rect x="2" y="22" width="1" height="1" fill="#5FC572" />
<rect x="3" y="22" width="3" height="1" fill="#5FC570" />
<rect x="6" y="22" width="3" height="1" fill="#60C56F" />
<rect x="9" y="22" width="3" height="1" fill="#60C66D" />
<rect x="12" y="22" width="1" height="1" fill="#60C66C" />
<rect x="13" y="22" width="3" height="1" fill="#61C66B" />
<rect x="16" y="22" width="3" height="1" fill="#61C66A" />
<rect x="19" y="22" width="1" height="1" fill="#61C668" />
<rect x="20" y="22" width="2" height="1" fill="#62C668" />
<rect x="22" y="22" width="3" height="1" fill="#62C667" />
<rect x="25" y="22" width="2" height="1" fill="#62C665" />
<rect x="27" y="22" width="2" height="1" fill="#64C565" />
<rect x="29" y="22" width="1" height="1" fill="#64C564" />
<rect x="2" y="23" width="3" height="1" fill="#61C66A" />
<rect x="5" y="23" width="1" height="1" fill="#61C668" />
<rect x="6" y="23" width="2" height="1" fill="#62C668" />
<rect x="8" y="23" width="3" height="1" fill="#62C667" />
<rect x="11" y="23" width="2" height="1" fill="#62C665" />
<rect x="13" y="23" width="2" height="1" fill="#64C565" />
<rect x="15" y="23" width="3" height="1" fill="#64C564" />
<rect x="18" y="23" width="2" height="1" fill="#64C662" />
<rect x="20" y="23" width="1" height="1" fill="#65C662" />
<rect x="21" y="23" width="3" height="1" fill="#66C661" />
<rect x="24" y="23" width="3" height="1" fill="#66C660" />
<rect x="27" y="23" width="3" height="1" fill="#67C760" />
<rect x="2" y="24" width="1" height="3" fill="#111111" />
<rect x="3" y="24" width="1" height="1" fill="#64C564" />
<rect x="4" y="24" width="2" height="1" fill="#64C662" />
<rect x="6" y="24" width="1" height="1" fill="#65C662" />
<rect x="7" y="24" width="3" height="1" fill="#66C661" />
<rect x="10" y="24" width="3" height="1" fill="#66C660" />
<rect x="13" y="24" width="16" height="2" fill="#67C760" />
<rect x="29" y="24" width="1" height="3" fill="#111111" />
<rect x="3" y="25" width="10" height="1" fill="#67C760" />
<rect x="3" y="26" width="1" height="2" fill="#111111" />
<rect x="4" y="26" width="24" height="1" fill="#67C760" />
<rect x="28" y="26" width="1" height="2" fill="#111111" />
<rect x="4" y="27" width="1" height="2" fill="#111111" />
<rect x="5" y="27" width="22" height="1" fill="#67C760" />
<rect x="27" y="27" width="1" height="2" fill="#111111" />
<rect x="5" y="28" width="1" height="2" fill="#111111" />
<rect x="6" y="28" width="20" height="1" fill="#67C760" />
<rect x="26" y="28" width="1" height="2" fill="#111111" />
<rect x="6" y="29" width="2" height="1" fill="#111111" />
<rect x="8" y="29" width="16" height="1" fill="#589B54" />
<rect x="24" y="29" width="2" height="1" fill="#111111" />
<rect x="7" y="30" width="18" height="1" fill="#111111" />
</svg>