<?xml version='1.0' encoding='utf-8'?>
<svg xmlns="http://www.w3.org/2000/svg" viewBox="0 0 3358.042 3357.658" width="512" height="512" version="1.1" xml:space="preserve" style="fill-rule:evenodd;clip-rule:evenodd;stroke-linejoin:round;stroke-miterlimit:2;"><rect x="866.985" y="108.454" width="974.761" height="108.307" style="fill:#ebdaad;" /><rect x="1841.746" y="108.454" width="758.147" height="108.307" style="fill:#b5a885;" /><rect x="650.372" y="216.76" width="324.92" height="108.307" style="fill:#ebdaad;" /><rect x="975.292" y="216.76" width="1516.295" height="108.307" style="fill:#a89d81;" /><rect x="2491.587" y="216.76" width="324.92" height="108.307" style="fill:#b5a885;" /><rect x="542.065" y="325.067" width="216.614" height="108.307" style="fill:#ebdaad;" /><rect x="758.678" y="325.067" width="324.92" height="108.307" style="fill:#a89d81;" /><rect x="1083.599" y="325.067" width="1299.681" height="108.307" style="fill:#e0d9c7;" /><rect x="2383.28" y="325.067" width="324.92" height="108.307" style="fill:#a89d81;" /><rect x="2708.2" y="325.067" width="216.614" height="108.307" style="fill:#b5a885;" /><rect x="433.758" y="433.374" width="216.614" height="108.307" style="fill:#ebdaad;" /><rect x="650.372" y="433.374" width="216.614" height="108.307" style="fill:#a89d81;" /><rect x="866.985" y="433.374" width="324.92" height="108.307" style="fill:#e0d9c7;" /><rect x="1191.905" y="433.374" width="1407.988" height="2382.749" style="fill:#d6cfbd;" /><rect x="2599.894" y="433.374" width="216.614" height="108.307" style="fill:#a89d81;" /><rect x="2816.507" y="433.374" width="216.614" height="108.307" style="fill:#b5a885;" /><rect x="325.451" y="541.681" width="216.614" height="108.307" style="fill:#ebdaad;" /><rect x="542.065" y="541.681" width="216.614" height="108.307" style="fill:#a89d81;" /><rect x="758.678" y="541.681" width="216.614" height="108.307" style="fill:#e0d9c7;" /><rect x="975.292" y="541.681" width="216.614" height="2491.056" style="fill:#d6cfbd;" /><rect x="2599.894" y="541.681" width="108.307" height="2166.136" style="fill:#d6cfbd;" /><rect x="2708.2" y="541.681" width="216.614" height="108.307" style="fill:#a89d81;" /><rect x="2924.814" y="541.681" width="216.614" height="108.307" style="fill:#b5a885;" /><rect x="217.144" y="649.988" width="216.614" height="108.307" style="fill:#ebdaad;" /><rect x="433.758" y="649.988" width="216.614" height="108.307" style="fill:#a89d81;" /><rect x="650.372" y="649.988" width="216.614" height="108.307" style="fill:#e0d9c7;" /><rect x="866.985" y="649.988" width="108.307" height="2382.749" style="fill:#d6cfbd;" /><rect x="2708.2" y="649.988" width="108.307" height="1949.522" style="fill:#d6cfbd;" /><rect x="2816.507" y="649.988" width="216.614" height="108.307" style="fill:#a89d81;" /><rect x="3033.121" y="649.988" width="216.614" height="108.307" style="fill:#b5a885;" /><rect x="217.144" y="758.294" width="108.307" height="216.614" style="fill:#ebdaad;" /><rect x="325.451" y="758.294" width="216.614" height="108.307" style="fill:#a89d81;" /><rect x="542.065" y="758.294" width="216.614" height="108.307" style="fill:#e0d9c7;" /><rect x="758.678" y="758.294" width="108.307" height="2166.136" style="fill:#d6cfbd;" /><rect x="2816.507" y="758.294" width="108.307" height="1732.908" style="fill:#d6cfbd;" /><rect x="2924.814" y="758.294" width="216.614" height="108.307" style="fill:#a89d81;" /><rect x="3141.428" y="758.294" width="108.307" height="216.614" style="fill:#b5a885;" /><rect x="108.838" y="866.601" width="108.307" height="866.454" style="fill:#ebdaad;" /><rect x="325.451" y="866.601" width="108.307" height="216.614" style="fill:#a89d81;" /><rect x="433.758" y="866.601" width="216.614" height="216.614" style="fill:#e0d9c7;" /><rect x="650.372" y="866.601" width="108.307" height="1949.522" style="fill:#d6cfbd;" /><rect x="2924.814" y="866.601" width="108.307" height="1407.988" style="fill:#d6cfbd;" /><rect x="3033.121" y="866.601" width="108.307" height="216.614" style="fill:#a89d81;" /><rect x="3249.734" y="866.601" width="108.307" height="324.92" style="fill:#b5a885;" /><rect x="217.144" y="974.908" width="108.307" height="1516.295" style="fill:#a89d81;" /><rect x="3141.428" y="974.908" width="108.307" height="1516.295" style="fill:#a89d81;" /><rect x="325.451" y="1083.215" width="216.614" height="108.307" style="fill:#e0d9c7;" /><rect x="542.065" y="1083.215" width="108.307" height="1624.602" style="fill:#d6cfbd;" /><rect x="3033.121" y="1083.215" width="108.307" height="1299.681" style="fill:#c3bca9;" /><rect x="325.451" y="1191.521" width="108.307" height="1191.375" style="fill:#e0d9c7;" /><rect x="433.758" y="1191.521" width="108.307" height="1407.988" style="fill:#d6cfbd;" /><rect x="3249.734" y="1191.521" width="108.307" height="1299.681" style="fill:#797058;" /><rect x="108.838" y="1733.055" width="108.307" height="541.534" style="fill:#b5a885;" /><rect x="108.838" y="2274.589" width="108.307" height="324.92" style="fill:#5e5745;" /><rect x="2924.814" y="2274.589" width="108.307" height="324.92" style="fill:#c3bca9;" /><rect x="325.451" y="2382.896" width="108.307" height="324.92" style="fill:#a89d81;" /><rect x="3033.121" y="2382.896" width="108.307" height="324.92" style="fill:#a89d81;" /><rect x="217.144" y="2491.203" width="108.307" height="324.92" style="fill:#5e5745;" /><rect x="2816.507" y="2491.203" width="108.307" height="216.614" style="fill:#c3bca9;" /><rect x="3141.428" y="2491.203" width="216.614" height="108.307" style="fill:#5e5745;" /><rect x="433.758" y="2599.51" width="108.307" height="216.614" style="fill:#a89d81;" /><rect x="2708.2" y="2599.51" width="108.307" height="216.614" style="fill:#c3bca9;" /><rect x="2924.814" y="2599.51" width="108.307" height="216.614" style="fill:#a89d81;" /><rect x="3141.428" y="2599.51" width="108.307" height="216.614" style="fill:#5e5745;" /><rect x="325.451" y="2707.816" width="108.307" height="216.614" style="fill:#5e5745;" /><rect x="542.065" y="2707.816" width="108.307" height="216.614" style="fill:#a89d81;" /><rect x="2599.894" y="2707.816" width="108.307" height="216.614" style="fill:#c3bca9;" /><rect x="2816.507" y="2707.816" width="108.307" height="216.614" style="fill:#a89d81;" /><rect x="3033.121" y="2707.816" width="108.307" height="216.614" style="fill:#5e5745;" /><rect x="433.758" y="2816.123" width="108.307" height="216.614" style="fill:#5e5745;" /><rect x="650.372" y="2816.123" width="108.307" height="216.614" style="fill:#a89d81;" /><rect x="1191.905" y="2816.123" width="1299.681" height="108.307" style="fill:#d6cfbd;" /><rect x="2491.587" y="2816.123" width="108.307" height="216.614" style="fill:#c3bca9;" /><rect x="2708.2" y="2816.123" width="108.307" height="216.614" style="fill:#a89d81;" /><rect x="2924.814" y="2816.123" width="108.307" height="216.614" style="fill:#5e5745;" /><rect x="542.065" y="2924.43" width="108.307" height="216.614" style="fill:#5e5745;" /><rect x="758.678" y="2924.43" width="108.307" height="216.614" style="fill:#a89d81;" /><rect x="1191.905" y="2924.43" width="758.147" height="108.307" style="fill:#d6cfbd;" /><rect x="1950.053" y="2924.43" width="541.534" height="108.307" style="fill:#c3bca9;" /><rect x="2599.894" y="2924.43" width="108.307" height="216.614" style="fill:#a89d81;" /><rect x="2816.507" y="2924.43" width="108.307" height="216.614" style="fill:#5e5745;" /><rect x="650.372" y="3032.737" width="108.307" height="216.614" style="fill:#5e5745;" /><rect x="866.985" y="3032.737" width="541.534" height="108.307" style="fill:#a89d81;" /><rect x="1408.519" y="3032.737" width="649.841" height="108.307" style="fill:#c3bca9;" /><rect x="2058.36" y="3032.737" width="541.534" height="108.307" style="fill:#a89d81;" /><rect x="2708.2" y="3032.737" width="108.307" height="216.614" style="fill:#5e5745;" /><rect x="758.678" y="3141.044" width="108.307" height="108.307" style="fill:#5e5745;" /><rect x="866.985" y="3141.044" width="433.227" height="216.614" style="fill:#29210d;" /><rect x="1300.212" y="3141.044" width="866.454" height="108.307" style="fill:#a89d81;" /><rect x="2166.667" y="3141.044" width="433.227" height="216.614" style="fill:#29210d;" /><rect x="2599.894" y="3141.044" width="108.307" height="108.307" style="fill:#5e5745;" /><rect x="1300.212" y="3249.35" width="866.454" height="108.307" style="fill:#5e5745;" /></svg>