<?xml version='1.0' encoding='utf-8'?>
<svg xmlns="http://www.w3.org/2000/svg" viewBox="0 0 3358.3419999999996 3357.658" width="512" height="512" version="1.1" xml:space="preserve" style="fill-rule:evenodd;clip-rule:evenodd;stroke-linejoin:round;stroke-miterlimit:2;"><rect x="867.286" y="108.454" width="1083.068" height="108.307" style="fill:#fdbb83;" /><rect x="1950.354" y="108.454" width="649.841" height="108.307" style="fill:#826145;" /><rect x="650.673" y="216.76" width="324.92" height="108.307" style="fill:#fdbb83;" /><rect x="975.593" y="216.76" width="216.614" height="108.307" style="fill:#fff6ed;" /><rect x="1192.207" y="216.76" width="1083.068" height="108.307" style="fill:#ffefe0;" /><rect x="2275.274" y="216.76" width="216.614" height="108.307" style="fill:#fbd4b2;" /><rect x="2491.888" y="216.76" width="324.92" height="108.307" style="fill:#5d432d;" /><rect x="542.366" y="325.067" width="216.614" height="108.307" style="fill:#fdbb83;" /><rect x="758.979" y="325.067" width="324.92" height="108.307" style="fill:#fff6ed;" /><rect x="1083.9" y="325.067" width="1299.681" height="324.92" style="fill:#ffe7d2;" /><rect x="2383.581" y="325.067" width="324.92" height="108.307" style="fill:#fbd4b2;" /><rect x="2708.502" y="325.067" width="216.614" height="108.307" style="fill:#5d432d;" /><rect x="434.059" y="433.374" width="216.614" height="108.307" style="fill:#fdbb83;" /><rect x="650.673" y="433.374" width="324.92" height="108.307" style="fill:#fff6ed;" /><rect x="975.593" y="433.374" width="108.307" height="216.614" style="fill:#ffe7d2;" /><rect x="2383.581" y="433.374" width="216.614" height="324.92" style="fill:#ffe7d2;" /><rect x="2600.195" y="433.374" width="216.614" height="108.307" style="fill:#fbd4b2;" /><rect x="2816.808" y="433.374" width="216.614" height="108.307" style="fill:#5d432d;" /><rect x="325.752" y="541.681" width="216.614" height="108.307" style="fill:#fdbb83;" /><rect x="542.366" y="541.681" width="216.614" height="108.307" style="fill:#fff6ed;" /><rect x="758.979" y="541.681" width="216.614" height="541.534" style="fill:#ffe7d2;" /><rect x="2600.195" y="541.681" width="108.307" height="541.534" style="fill:#ffe7d2;" /><rect x="2708.502" y="541.681" width="216.614" height="108.307" style="fill:#fbd4b2;" /><rect x="2925.115" y="541.681" width="216.614" height="108.307" style="fill:#5d432d;" /><rect x="217.446" y="649.988" width="216.614" height="108.307" style="fill:#fdbb83;" /><rect x="434.059" y="649.988" width="216.614" height="108.307" style="fill:#fff6ed;" /><rect x="650.673" y="649.988" width="108.307" height="433.227" style="fill:#ffe7d2;" /><rect x="975.593" y="649.988" width="1407.988" height="108.307" style="fill:#ffdbbb;" /><rect x="2708.502" y="649.988" width="108.307" height="433.227" style="fill:#ffe7d2;" /><rect x="2816.808" y="649.988" width="216.614" height="108.307" style="fill:#fbd4b2;" /><rect x="3033.422" y="649.988" width="216.614" height="108.307" style="fill:#241701;" /><rect x="217.446" y="758.294" width="108.307" height="216.614" style="fill:#fdbb83;" /><rect x="325.752" y="758.294" width="216.614" height="108.307" style="fill:#fff6ed;" /><rect x="542.366" y="758.294" width="108.307" height="324.92" style="fill:#ffe7d2;" /><rect x="975.593" y="758.294" width="108.307" height="324.92" style="fill:#ffe7d2;" /><rect x="1083.9" y="758.294" width="1407.988" height="108.307" style="fill:#ffdbbb;" /><rect x="2491.888" y="758.294" width="108.307" height="324.92" style="fill:#ffe7d2;" /><rect x="2816.808" y="758.294" width="108.307" height="324.92" style="fill:#ffe7d2;" /><rect x="2925.115" y="758.294" width="216.614" height="108.307" style="fill:#fbd4b2;" /><rect x="3141.729" y="758.294" width="108.307" height="216.614" style="fill:#241701;" /><rect x="109.139" y="866.601" width="108.307" height="1083.068" style="fill:#fdbb83;" /><rect x="325.752" y="866.601" width="108.307" height="216.614" style="fill:#fff6ed;" /><rect x="434.059" y="866.601" width="108.307" height="216.614" style="fill:#ffe7d2;" /><rect x="1083.9" y="866.601" width="1407.988" height="216.614" style="fill:#ffe7d2;" /><rect x="2925.115" y="866.601" width="108.307" height="216.614" style="fill:#ffe7d2;" /><rect x="3033.422" y="866.601" width="108.307" height="216.614" style="fill:#fbd4b2;" /><rect x="3250.035" y="866.601" width="108.307" height="1732.908" style="fill:#100900;" /><rect x="217.446" y="974.908" width="108.307" height="108.307" style="fill:#fff6ed;" /><rect x="3141.729" y="974.908" width="108.307" height="108.307" style="fill:#fbd4b2;" /><rect x="217.446" y="1083.215" width="649.841" height="108.307" style="fill:#ffb84a;" /><rect x="867.286" y="1083.215" width="866.454" height="108.307" style="fill:#ffc873;" /><rect x="1733.741" y="1083.215" width="649.841" height="108.307" style="fill:#ffb84a;" /><rect x="2383.581" y="1083.215" width="324.92" height="108.307" style="fill:#ffc873;" /><rect x="2708.502" y="1083.215" width="541.534" height="108.307" style="fill:#ffb84a;" /><rect x="217.446" y="1191.521" width="3032.59" height="108.307" style="fill:#ff8f00;" /><rect x="217.446" y="1299.828" width="433.227" height="108.307" style="fill:#ff8f00;" /><rect x="650.673" y="1299.828" width="324.92" height="216.614" style="fill:#ffe7d2;" /><rect x="975.593" y="1299.828" width="1516.295" height="108.307" style="fill:#ff8f00;" /><rect x="2491.888" y="1299.828" width="324.92" height="216.614" style="fill:#ffe7d2;" /><rect x="2816.808" y="1299.828" width="433.227" height="108.307" style="fill:#ff8f00;" /><rect x="217.446" y="1408.135" width="324.92" height="108.307" style="fill:#ff8f00;" /><rect x="542.366" y="1408.135" width="108.307" height="541.534" style="fill:#ffe7d2;" /><rect x="975.593" y="1408.135" width="108.307" height="433.227" style="fill:#ffe7d2;" /><rect x="1083.9" y="1408.135" width="1299.681" height="108.307" style="fill:#ff8f00;" /><rect x="2383.581" y="1408.135" width="108.307" height="541.534" style="fill:#ffe7d2;" /><rect x="2816.808" y="1408.135" width="108.307" height="433.227" style="fill:#ffe7d2;" /><rect x="2925.115" y="1408.135" width="324.92" height="108.307" style="fill:#ff8f00;" /><rect x="217.446" y="1516.442" width="216.614" height="649.841" style="fill:#ff8f00;" /><rect x="434.059" y="1516.442" width="108.307" height="324.92" style="fill:#ffe7d2;" /><rect x="650.673" y="1516.442" width="108.307" height="108.307" style="fill:#ffe7d2;" /><rect x="758.979" y="1516.442" width="108.307" height="324.92" style="fill:#241701;" /><rect x="867.286" y="1516.442" width="108.307" height="108.307" style="fill:#ffe7d2;" /><rect x="1083.9" y="1516.442" width="108.307" height="324.92" style="fill:#ffc694;" /><rect x="1192.207" y="1516.442" width="108.307" height="649.841" style="fill:#ff8f00;" /><rect x="1300.513" y="1516.442" width="108.307" height="324.92" style="fill:#c07f0f;" /><rect x="1408.82" y="1516.442" width="433.227" height="108.307" style="fill:#826145;" /><rect x="1842.047" y="1516.442" width="216.614" height="324.92" style="fill:#352200;" /><rect x="2058.661" y="1516.442" width="108.307" height="324.92" style="fill:#c07f0f;" /><rect x="2166.968" y="1516.442" width="108.307" height="649.841" style="fill:#ff8f00;" /><rect x="2275.274" y="1516.442" width="108.307" height="324.92" style="fill:#ffe7d2;" /><rect x="2491.888" y="1516.442" width="108.307" height="108.307" style="fill:#ffe7d2;" /><rect x="2600.195" y="1516.442" width="108.307" height="324.92" style="fill:#241701;" /><rect x="2708.502" y="1516.442" width="108.307" height="108.307" style="fill:#ffe7d2;" /><rect x="2925.115" y="1516.442" width="108.307" height="324.92" style="fill:#ffc694;" /><rect x="3033.422" y="1516.442" width="216.614" height="649.841" style="fill:#ff8f00;" /><rect x="650.673" y="1624.749" width="108.307" height="108.307" style="fill:#241701;" /><rect x="867.286" y="1624.749" width="108.307" height="108.307" style="fill:#241701;" /><rect x="1408.82" y="1624.749" width="108.307" height="108.307" style="fill:#826145;" /><rect x="1517.127" y="1624.749" width="324.92" height="216.614" style="fill:#352200;" /><rect x="2491.888" y="1624.749" width="108.307" height="108.307" style="fill:#241701;" /><rect x="2708.502" y="1624.749" width="108.307" height="108.307" style="fill:#241701;" /><rect x="650.673" y="1733.055" width="108.307" height="216.614" style="fill:#ffe7d2;" /><rect x="867.286" y="1733.055" width="108.307" height="216.614" style="fill:#ffe7d2;" /><rect x="1408.82" y="1733.055" width="108.307" height="108.307" style="fill:#352200;" /><rect x="2491.888" y="1733.055" width="108.307" height="216.614" style="fill:#ffe7d2;" /><rect x="2708.502" y="1733.055" width="108.307" height="216.614" style="fill:#ffe7d2;" /><rect x="434.059" y="1841.362" width="108.307" height="324.92" style="fill:#ff8f00;" /><rect x="758.979" y="1841.362" width="108.307" height="108.307" style="fill:#ffe7d2;" /><rect x="975.593" y="1841.362" width="108.307" height="108.307" style="fill:#ffc694;" /><rect x="1083.9" y="1841.362" width="108.307" height="324.92" style="fill:#ff8f00;" /><rect x="1300.513" y="1841.362" width="866.454" height="324.92" style="fill:#ff8f00;" /><rect x="2275.274" y="1841.362" width="108.307" height="324.92" style="fill:#ff8f00;" /><rect x="2600.195" y="1841.362" width="108.307" height="108.307" style="fill:#ffe7d2;" /><rect x="2816.808" y="1841.362" width="108.307" height="108.307" style="fill:#ffc694;" /><rect x="2925.115" y="1841.362" width="108.307" height="324.92" style="fill:#ff8f00;" /><rect x="109.139" y="1949.669" width="108.307" height="649.841" style="fill:#331d0a;" /><rect x="542.366" y="1949.669" width="108.307" height="216.614" style="fill:#ff8f00;" /><rect x="650.673" y="1949.669" width="324.92" height="108.307" style="fill:#ffc694;" /><rect x="975.593" y="1949.669" width="108.307" height="216.614" style="fill:#ff8f00;" /><rect x="2383.581" y="1949.669" width="108.307" height="216.614" style="fill:#ff8f00;" /><rect x="2491.888" y="1949.669" width="324.92" height="108.307" style="fill:#ffc694;" /><rect x="2816.808" y="1949.669" width="108.307" height="216.614" style="fill:#ff8f00;" /><rect x="650.673" y="2057.976" width="324.92" height="108.307" style="fill:#ff8f00;" /><rect x="2491.888" y="2057.976" width="324.92" height="108.307" style="fill:#ff8f00;" /><rect x="217.446" y="2166.282" width="433.227" height="108.307" style="fill:#826145;" /><rect x="650.673" y="2166.282" width="974.761" height="108.307" style="fill:#412c06;" /><rect x="1625.434" y="2166.282" width="1191.375" height="108.307" style="fill:#2f2411;" /><rect x="2816.808" y="2166.282" width="433.227" height="108.307" style="fill:#2a1e0a;" /><rect x="217.446" y="2274.589" width="2924.283" height="108.307" style="fill:#281a03;" /><rect x="3141.729" y="2274.589" width="108.307" height="216.614" style="fill:#180e00;" /><rect x="217.446" y="2382.896" width="2815.976" height="108.307" style="fill:#281a03;" /><rect x="3033.422" y="2382.896" width="108.307" height="324.92" style="fill:#180e00;" /><rect x="217.446" y="2491.203" width="108.307" height="324.92" style="fill:#241701;" /><rect x="325.752" y="2491.203" width="2707.67" height="108.307" style="fill:#281a03;" /><rect x="3141.729" y="2491.203" width="108.307" height="324.92" style="fill:#100900;" /><rect x="325.752" y="2599.51" width="433.227" height="108.307" style="fill:#281a03;" /><rect x="758.979" y="2599.51" width="108.307" height="216.614" style="fill:#ae853c;" /><rect x="867.286" y="2599.51" width="1732.908" height="216.614" style="fill:#b29664;" /><rect x="2600.195" y="2599.51" width="108.307" height="216.614" style="fill:#ae853c;" /><rect x="2708.502" y="2599.51" width="108.307" height="433.227" style="fill:#180e00;" /><rect x="2816.808" y="2599.51" width="108.307" height="216.614" style="fill:#281a03;" /><rect x="2925.115" y="2599.51" width="108.307" height="216.614" style="fill:#180e00;" /><rect x="325.752" y="2707.816" width="108.307" height="216.614" style="fill:#241701;" /><rect x="434.059" y="2707.816" width="324.92" height="108.307" style="fill:#281a03;" /><rect x="3033.422" y="2707.816" width="108.307" height="216.614" style="fill:#100900;" /><rect x="434.059" y="2816.123" width="108.307" height="216.614" style="fill:#241701;" /><rect x="542.366" y="2816.123" width="216.614" height="108.307" style="fill:#281a03;" /><rect x="758.979" y="2816.123" width="1949.522" height="108.307" style="fill:#180e00;" /><rect x="2816.808" y="2816.123" width="108.307" height="108.307" style="fill:#180e00;" /><rect x="2925.115" y="2816.123" width="108.307" height="216.614" style="fill:#100900;" /><rect x="542.366" y="2924.43" width="108.307" height="216.614" style="fill:#241701;" /><rect x="650.673" y="2924.43" width="1949.522" height="108.307" style="fill:#281a03;" /><rect x="2600.195" y="2924.43" width="108.307" height="216.614" style="fill:#180e00;" /><rect x="2816.808" y="2924.43" width="108.307" height="216.614" style="fill:#100900;" /><rect x="650.673" y="3032.737" width="108.307" height="216.614" style="fill:#241701;" /><rect x="758.979" y="3032.737" width="1732.908" height="108.307" style="fill:#281a03;" /><rect x="2491.888" y="3032.737" width="108.307" height="216.614" style="fill:#180e00;" /><rect x="2708.502" y="3032.737" width="108.307" height="216.614" style="fill:#100900;" /><rect x="758.979" y="3141.044" width="216.614" height="108.307" style="fill:#241701;" /><rect x="975.593" y="3141.044" width="1516.295" height="108.307" style="fill:#180e00;" /><rect x="2600.195" y="3141.044" width="108.307" height="216.614" style="fill:#100900;" /><rect x="867.286" y="3249.35" width="1732.908" height="108.307" style="fill:#100900;" /></svg>