<?xml version="1.0" encoding="UTF-8" ?>
<svg viewBox="0 0 32 32" version="1.1" width="512" height="512" xmlns="http://www.w3.org/2000/svg" shape-rendering="crispEdges">
<rect x="7" y="1" width="18" height="1" fill="#0E0E0E" />
<rect x="5" y="2" width="3" height="1" fill="#0E0E0E" />
<rect x="8" y="2" width="16" height="3" fill="#171717" />
<rect x="24" y="2" width="3" height="1" fill="#0E0E0E" />
<rect x="4" y="3" width="2" height="1" fill="#0E0E0E" />
<rect x="6" y="3" width="2" height="5" fill="#171717" />
<rect x="24" y="3" width="2" height="4" fill="#171717" />
<rect x="26" y="3" width="2" height="1" fill="#0E0E0E" />
<rect x="3" y="4" width="2" height="1" fill="#0E0E0E" />
<rect x="5" y="4" width="1" height="24" fill="#171717" />
<rect x="26" y="4" width="1" height="3" fill="#171717" />
<rect x="27" y="4" width="2" height="1" fill="#0E0E0E" />
<rect x="2" y="5" width="2" height="1" fill="#0E0E0E" />
<rect x="4" y="5" width="1" height="22" fill="#171717" />
<rect x="8" y="5" width="3" height="1" fill="#171717" />
<rect x="11" y="5" width="2" height="1" fill="#FFFFFF" />
<rect x="13" y="5" width="7" height="1" fill="#F8F8F8" />
<rect x="20" y="5" width="4" height="3" fill="#171717" />
<rect x="27" y="5" width="1" height="22" fill="#171717" />
<rect x="28" y="5" width="2" height="1" fill="#0E0E0E" />
<rect x="2" y="6" width="1" height="2" fill="#0E0E0E" />
<rect x="3" y="6" width="1" height="20" fill="#171717" />
<rect x="8" y="6" width="1" height="1" fill="#171717" />
<rect x="9" y="6" width="3" height="1" fill="#FFFFFF" />
<rect x="12" y="6" width="4" height="1" fill="#F8F8F8" />
<rect x="16" y="6" width="4" height="1" fill="#0A0A0A" />
<rect x="28" y="6" width="1" height="20" fill="#171717" />
<rect x="29" y="6" width="1" height="2" fill="#0E0E0E" />
<rect x="1" y="7" width="1" height="18" fill="#0E0E0E" />
<rect x="8" y="7" width="2" height="2" fill="#FFFFFF" />
<rect x="10" y="7" width="5" height="3" fill="#F8F8F8" />
<rect x="15" y="7" width="2" height="1" fill="#0A0A0A" />
<rect x="17" y="7" width="3" height="2" fill="#171717" />
<rect x="24" y="7" width="1" height="1" fill="#171717" />
<rect x="25" y="7" width="2" height="1" fill="#FFFFFF" />
<rect x="30" y="7" width="1" height="18" fill="#0E0E0E" />
<rect x="2" y="8" width="1" height="16" fill="#171717" />
<rect x="6" y="8" width="2" height="1" fill="#FFFFFF" />
<rect x="15" y="8" width="1" height="2" fill="#0A0A0A" />
<rect x="16" y="8" width="1" height="2" fill="#171717" />
<rect x="20" y="8" width="3" height="1" fill="#171717" />
<rect x="23" y="8" width="3" height="1" fill="#FFFFFF" />
<rect x="26" y="8" width="1" height="2" fill="#0A0A0A" />
<rect x="29" y="8" width="1" height="16" fill="#171717" />
<rect x="6" y="9" width="4" height="4" fill="#171717" />
<rect x="17" y="9" width="2" height="1" fill="#171717" />
<rect x="19" y="9" width="5" height="1" fill="#FFFFFF" />
<rect x="24" y="9" width="1" height="1" fill="#EAEAEA" />
<rect x="25" y="9" width="1" height="2" fill="#0A0A0A" />
<rect x="10" y="10" width="2" height="2" fill="#171717" />
<rect x="12" y="10" width="3" height="2" fill="#F8F8F8" />
<rect x="15" y="10" width="5" height="1" fill="#FFFFFF" />
<rect x="20" y="10" width="4" height="1" fill="#EAEAEA" />
<rect x="24" y="10" width="1" height="2" fill="#0A0A0A" />
<rect x="26" y="10" width="1" height="10" fill="#171717" />
<rect x="15" y="11" width="8" height="1" fill="#EAEAEA" />
<rect x="23" y="11" width="1" height="2" fill="#0A0A0A" />
<rect x="25" y="11" width="1" height="8" fill="#171717" />
<rect x="10" y="12" width="3" height="1" fill="#FFFFFF" />
<rect x="13" y="12" width="9" height="1" fill="#EAEAEA" />
<rect x="22" y="12" width="1" height="2" fill="#0A0A0A" />
<rect x="24" y="12" width="1" height="7" fill="#171717" />
<rect x="6" y="13" width="3" height="1" fill="#171717" />
<rect x="9" y="13" width="2" height="1" fill="#FFFFFF" />
<rect x="11" y="13" width="9" height="1" fill="#EAEAEA" />
<rect x="20" y="13" width="2" height="1" fill="#0A0A0A" />
<rect x="23" y="13" width="1" height="5" fill="#171717" />
<rect x="6" y="14" width="2" height="1" fill="#171717" />
<rect x="8" y="14" width="2" height="1" fill="#FFFFFF" />
<rect x="10" y="14" width="5" height="1" fill="#EAEAEA" />
<rect x="15" y="14" width="6" height="1" fill="#0A0A0A" />
<rect x="21" y="14" width="2" height="2" fill="#171717" />
<rect x="6" y="15" width="1" height="14" fill="#171717" />
<rect x="7" y="15" width="1" height="3" fill="#FFFFFF" />
<rect x="8" y="15" width="2" height="1" fill="#EAEAEA" />
<rect x="10" y="15" width="4" height="1" fill="#0A0A0A" />
<rect x="14" y="15" width="4" height="1" fill="#B7B7B7" />
<rect x="18" y="15" width="2" height="1" fill="#0A0A0A" />
<rect x="20" y="15" width="1" height="1" fill="#171717" />
<rect x="8" y="16" width="1" height="4" fill="#EAEAEA" />
<rect x="9" y="16" width="2" height="1" fill="#0A0A0A" />
<rect x="11" y="16" width="4" height="5" fill="#171717" />
<rect x="15" y="16" width="4" height="1" fill="#C1C1C1" />
<rect x="19" y="16" width="3" height="1" fill="#0A0A0A" />
<rect x="22" y="16" width="1" height="1" fill="#171717" />
<rect x="9" y="17" width="1" height="3" fill="#0A0A0A" />
<rect x="10" y="17" width="1" height="4" fill="#171717" />
<rect x="15" y="17" width="1" height="3" fill="#171717" />
<rect x="16" y="17" width="5" height="1" fill="#CBCBCB" />
<rect x="21" y="17" width="2" height="1" fill="#0A0A0A" />
<rect x="7" y="18" width="1" height="11" fill="#171717" />
<rect x="16" y="18" width="6" height="1" fill="#D6D6D6" />
<rect x="22" y="18" width="2" height="1" fill="#0A0A0A" />
<rect x="16" y="19" width="7" height="1" fill="#E0E0E0" />
<rect x="23" y="19" width="3" height="1" fill="#0A0A0A" />
<rect x="8" y="20" width="1" height="10" fill="#171717" />
<rect x="9" y="20" width="1" height="1" fill="#EAEAEA" />
<rect x="15" y="20" width="4" height="4" fill="#DCDCDC" />
<rect x="19" y="20" width="1" height="2" fill="#0A0A0A" />
<rect x="20" y="20" width="5" height="1" fill="#EAEAEA" />
<rect x="25" y="20" width="2" height="1" fill="#0A0A0A" />
<rect x="9" y="21" width="1" height="9" fill="#171717" />
<rect x="10" y="21" width="1" height="1" fill="#EAEAEA" />
<rect x="11" y="21" width="3" height="1" fill="#171717" />
<rect x="14" y="21" width="1" height="3" fill="#DCDCDC" />
<rect x="20" y="21" width="1" height="4" fill="#0A0A0A" />
<rect x="21" y="21" width="1" height="3" fill="#171717" />
<rect x="22" y="21" width="4" height="1" fill="#F5F5F5" />
<rect x="26" y="21" width="1" height="1" fill="#0A0A0A" />
<rect x="10" y="22" width="2" height="8" fill="#171717" />
<rect x="12" y="22" width="2" height="1" fill="#DCDCDC" />
<rect x="19" y="22" width="1" height="5" fill="#DCDCDC" />
<rect x="22" y="22" width="3" height="7" fill="#171717" />
<rect x="25" y="22" width="2" height="1" fill="#FFFFFF" />
<rect x="12" y="23" width="2" height="7" fill="#171717" />
<rect x="25" y="23" width="2" height="5" fill="#171717" />
<rect x="2" y="24" width="1" height="3" fill="#0E0E0E" />
<rect x="14" y="24" width="2" height="6" fill="#171717" />
<rect x="16" y="24" width="3" height="1" fill="#DCDCDC" />
<rect x="21" y="24" width="1" height="5" fill="#0A0A0A" />
<rect x="29" y="24" width="1" height="3" fill="#0E0E0E" />
<rect x="16" y="25" width="1" height="5" fill="#171717" />
<rect x="17" y="25" width="2" height="1" fill="#DCDCDC" />
<rect x="20" y="25" width="1" height="4" fill="#DCDCDC" />
<rect x="3" y="26" width="1" height="2" fill="#0E0E0E" />
<rect x="17" y="26" width="2" height="4" fill="#171717" />
<rect x="28" y="26" width="1" height="2" fill="#0E0E0E" />
<rect x="4" y="27" width="1" height="2" fill="#0E0E0E" />
<rect x="19" y="27" width="1" height="3" fill="#171717" />
<rect x="27" y="27" width="1" height="2" fill="#0E0E0E" />
<rect x="5" y="28" width="1" height="2" fill="#0E0E0E" />
<rect x="25" y="28" width="1" height="1" fill="#171717" />
<rect x="26" y="28" width="1" height="2" fill="#0E0E0E" />
<rect x="6" y="29" width="2" height="1" fill="#0E0E0E" />
<rect x="20" y="29" width="4" height="1" fill="#171717" />
<rect x="24" y="29" width="2" height="1" fill="#0E0E0E" />
<rect x="7" y="30" width="18" height="1" fill="#0E0E0E" />
</svg>