<svg width="512" height="512" viewBox="0 0 512 512" fill="none" xmlns="http://www.w3.org/2000/svg">
<path fill-rule="evenodd" clip-rule="evenodd" d="M404.454 487.221C406.173 487.198 412.528 487.221 421.191 487.221V470.714H437.698V454.206H454.206V437.698H470.713V421.191H487.221V388.175H503.729V123.825H487.221V90.8094H470.713V74.3018H454.206V57.7941H437.698V41.2864H421.19V24.7789H388.175V8.27124H107.317V24.7789H90.8092V41.2864H74.3015V57.7941H57.7938V74.3018H41.2862V90.8094H24.7787V123.825H8.271V388.175H24.7787V421.191H41.2862V437.698H57.7938V454.206H74.3015V470.714H90.8092V487.221H123.824V503.729H388.175V487.221H404.454Z" fill="#141414"/>
<path fill-rule="evenodd" clip-rule="evenodd" d="M123.824 24.7788H223.099V355.16H123.824V24.7788Z" fill="#16B1F1"/>
<path fill-rule="evenodd" clip-rule="evenodd" d="M222.87 24.7788H305.637V355.16H222.87V24.7788Z" fill="#37D247"/>
<path fill-rule="evenodd" clip-rule="evenodd" d="M223.099 354.931H123.824V388.175H223.099V354.931Z" fill="#E03E84"/>
<path fill-rule="evenodd" clip-rule="evenodd" d="M305.408 24.7788H371.667V41.2863H404.683V355.16L305.408 355.16V24.7788Z" fill="#E03E84"/>
<path fill-rule="evenodd" clip-rule="evenodd" d="M107.317 41.2864H124.053V355.16H24.7788V140.332H41.2863V107.317H57.794V90.8094H74.3017V74.3017H90.8093V57.794H107.317V41.2864Z" fill="#EABC48"/>
<path fill-rule="evenodd" clip-rule="evenodd" d="M421.19 57.7939H404.454V355.16H487.221V140.332H470.713V107.317H454.206V90.8093H437.698V74.3016H421.19V57.7939Z" fill="#284CB8"/>
<path fill-rule="evenodd" clip-rule="evenodd" d="M24.7788 354.931H124.053L124.053 388.175H41.2863V371.668H24.7788V354.931Z" fill="#13141A"/>
<path fill-rule="evenodd" clip-rule="evenodd" d="M487.221 354.931H404.454V387.947H305.409V487.221H371.668V470.714H404.683V388.175H470.714V371.668H487.221V354.931Z" fill="#13141A"/>
<path fill-rule="evenodd" clip-rule="evenodd" d="M222.87 354.931H305.637V388.175H222.87V354.931Z" fill="#16171D"/>
<path fill-rule="evenodd" clip-rule="evenodd" d="M305.408 354.931H404.683V388.175H305.408V354.931Z" fill="#16B1F3"/>
<path fill-rule="evenodd" clip-rule="evenodd" d="M124.053 387.947H41.2861V404.683H57.7938V421.191H74.3015V437.698H90.8091V454.206H107.317V470.714H124.053L124.053 387.947Z" fill="#071A54"/>
<path fill-rule="evenodd" clip-rule="evenodd" d="M223.099 387.947H123.824V470.714H140.332V487.221H223.099V387.947Z" fill="#E7E7E7"/>
<path fill-rule="evenodd" clip-rule="evenodd" d="M222.87 387.947H305.637V487.221H222.87V387.947Z" fill="#3D2380"/>
<path fill-rule="evenodd" clip-rule="evenodd" d="M404.454 387.947H470.713V404.683H454.206V421.191H437.698V437.698H421.19V454.206H404.454V387.947Z" fill="#3F445E"/>
</svg>
