<?xml version='1.0' encoding='utf-8'?>
<svg xmlns="http://www.w3.org/2000/svg" viewBox="0 0 3358.357 3357.673" width="512" height="512" version="1.1" xml:space="preserve" style="fill-rule:evenodd;clip-rule:evenodd;stroke-linejoin:round;stroke-miterlimit:2;"><rect x="867.301" y="108.47" width="108.307" height="108.307" style="fill:#aed2e8;" /><rect x="975.607" y="108.47" width="108.307" height="108.307" style="fill:#a4cbe3;" /><rect x="1083.914" y="108.47" width="108.307" height="108.307" style="fill:#99c3dd;" /><rect x="1192.221" y="108.47" width="108.307" height="108.307" style="fill:#8ebbd7;" /><rect x="1300.528" y="108.47" width="108.307" height="108.307" style="fill:#83b4d2;" /><rect x="1408.834" y="108.47" width="108.307" height="108.307" style="fill:#78accc;" /><rect x="1517.141" y="108.47" width="108.307" height="108.307" style="fill:#6ea5c7;" /><rect x="1625.448" y="108.47" width="108.307" height="108.307" style="fill:#639dc1;" /><rect x="1733.755" y="108.47" width="108.307" height="108.307" style="fill:#5896bc;" /><rect x="1842.062" y="108.47" width="108.307" height="108.307" style="fill:#4d8eb6;" /><rect x="1950.368" y="108.47" width="108.307" height="108.307" style="fill:#4286b0;" /><rect x="2058.675" y="108.47" width="108.307" height="108.307" style="fill:#387fab;" /><rect x="2166.982" y="108.47" width="108.307" height="108.307" style="fill:#2d77a5;" /><rect x="2275.289" y="108.47" width="108.307" height="108.307" style="fill:#2270a0;" /><rect x="2383.595" y="108.47" width="108.307" height="108.307" style="fill:#17689a;" /><rect x="2491.902" y="108.47" width="108.307" height="108.307" style="fill:#0d6195;" /><rect x="650.687" y="216.776" width="108.307" height="108.307" style="fill:#a4a4a4;" /><rect x="758.994" y="216.776" width="108.307" height="108.307" style="fill:#a1a1a1;" /><rect x="867.301" y="216.776" width="108.307" height="108.307" style="fill:#9f9f9f;" /><rect x="975.607" y="216.776" width="108.307" height="108.307" style="fill:#9d9d9d;" /><rect x="1083.914" y="216.776" width="108.307" height="108.307" style="fill:#9b9b9b;" /><rect x="1192.221" y="216.776" width="108.307" height="108.307" style="fill:#999;" /><rect x="1300.528" y="216.776" width="108.307" height="108.307" style="fill:#979797;" /><rect x="1408.834" y="216.776" width="108.307" height="108.307" style="fill:#959595;" /><rect x="1517.141" y="216.776" width="108.307" height="108.307" style="fill:#939393;" /><rect x="1625.448" y="216.776" width="108.307" height="108.307" style="fill:#919191;" /><rect x="1733.755" y="216.776" width="108.307" height="108.307" style="fill:#8f8f8f;" /><rect x="1842.062" y="216.776" width="108.307" height="108.307" style="fill:#8d8d8d;" /><rect x="1950.368" y="216.776" width="108.307" height="108.307" style="fill:#8b8b8b;" /><rect x="2058.675" y="216.776" width="108.307" height="108.307" style="fill:#898989;" /><rect x="2166.982" y="216.776" width="108.307" height="108.307" style="fill:#878787;" /><rect x="2275.289" y="216.776" width="108.307" height="108.307" style="fill:#858585;" /><rect x="2383.595" y="216.776" width="108.307" height="108.307" style="fill:#838383;" /><rect x="2491.902" y="216.776" width="108.307" height="108.307" style="fill:#818181;" /><rect x="2600.209" y="216.776" width="108.307" height="108.307" style="fill:#7f7f7f;" /><rect x="2708.516" y="216.776" width="108.307" height="108.307" style="fill:#7d7d7d;" /><rect x="542.38" y="325.083" width="108.307" height="108.307" style="fill:#a2a2a2;" /><rect x="650.687" y="325.083" width="108.307" height="108.307" style="fill:#a0a0a0;" /><rect x="758.994" y="325.083" width="1949.522" height="108.307" /><rect x="2708.516" y="325.083" width="108.307" height="108.307" style="fill:#797979;" /><rect x="2816.823" y="325.083" width="108.307" height="108.307" style="fill:#777;" /><rect x="434.073" y="433.39" width="108.307" height="108.307" style="fill:#a1a1a1;" /><rect x="542.38" y="433.39" width="108.307" height="108.307" style="fill:#9f9f9f;" /><rect x="650.687" y="433.39" width="108.307" height="108.307" /><rect x="758.994" y="433.39" width="1949.522" height="216.614" style="fill:#031a29;" /><rect x="2708.516" y="433.39" width="108.307" height="108.307" /><rect x="2816.823" y="433.39" width="108.307" height="108.307" style="fill:#747474;" /><rect x="2925.129" y="433.39" width="108.307" height="108.307" style="fill:#727272;" /><rect x="325.767" y="541.697" width="108.307" height="108.307" style="fill:#9f9f9f;" /><rect x="434.073" y="541.697" width="108.307" height="108.307" style="fill:#9d9d9d;" /><rect x="542.38" y="541.697" width="108.307" height="108.307" /><rect x="650.687" y="541.697" width="108.307" height="2382.749" style="fill:#031a29;" /><rect x="2708.516" y="541.697" width="108.307" height="2382.749" style="fill:#031a29;" /><rect x="2816.823" y="541.697" width="108.307" height="108.307" /><rect x="2925.129" y="541.697" width="108.307" height="108.307" style="fill:#6e6e6e;" /><rect x="3033.436" y="541.697" width="108.307" height="108.307" style="fill:#6c6c6c;" /><rect x="217.46" y="650.003" width="108.307" height="108.307" style="fill:#9e9e9e;" /><rect x="325.767" y="650.003" width="108.307" height="108.307" style="fill:#9c9c9c;" /><rect x="434.073" y="650.003" width="108.307" height="108.307" /><rect x="542.38" y="650.003" width="108.307" height="2166.136" style="fill:#031a29;" /><rect x="758.994" y="650.003" width="758.147" height="216.614" style="fill:#031a29;" /><rect x="1517.141" y="650.003" width="433.227" height="108.307" style="fill:#f7fcff;" /><rect x="1950.368" y="650.003" width="758.147" height="324.92" style="fill:#031a29;" /><rect x="2816.823" y="650.003" width="108.307" height="2166.136" style="fill:#031a29;" /><rect x="2925.129" y="650.003" width="108.307" height="108.307" /><rect x="3033.436" y="650.003" width="108.307" height="108.307" style="fill:#696969;" /><rect x="3141.743" y="650.003" width="108.307" height="108.307" style="fill:#676767;" /><rect x="217.46" y="758.31" width="108.307" height="108.307" style="fill:#9b9b9b;" /><rect x="325.767" y="758.31" width="108.307" height="216.614" /><rect x="434.073" y="758.31" width="108.307" height="1949.522" style="fill:#031a29;" /><rect x="1517.141" y="758.31" width="216.614" height="108.307" style="fill:#f7fcff;" /><rect x="1733.755" y="758.31" width="108.307" height="433.227" style="fill:#daf1ff;" /><rect x="1842.062" y="758.31" width="108.307" height="108.307" style="fill:#f7fcff;" /><rect x="2925.129" y="758.31" width="108.307" height="1949.522" style="fill:#031a29;" /><rect x="3033.436" y="758.31" width="108.307" height="216.614" /><rect x="3141.743" y="758.31" width="108.307" height="108.307" style="fill:#636363;" /><rect x="109.153" y="866.617" width="108.307" height="108.307" style="fill:#999;" /><rect x="217.46" y="866.617" width="108.307" height="108.307" style="fill:#979797;" /><rect x="758.994" y="866.617" width="649.841" height="216.614" style="fill:#031a29;" /><rect x="1408.834" y="866.617" width="108.307" height="433.227" style="fill:#c7e9ff;" /><rect x="1517.141" y="866.617" width="216.614" height="108.307" style="fill:#daf1ff;" /><rect x="1842.062" y="866.617" width="108.307" height="324.92" style="fill:#daf1ff;" /><rect x="3141.743" y="866.617" width="108.307" height="108.307" style="fill:#606060;" /><rect x="3250.05" y="866.617" width="108.307" height="108.307" style="fill:#5e5e5e;" /><rect x="109.153" y="974.924" width="108.307" height="108.307" style="fill:#969696;" /><rect x="217.46" y="974.924" width="108.307" height="1516.295" /><rect x="325.767" y="974.924" width="108.307" height="1516.295" style="fill:#031a29;" /><rect x="1517.141" y="974.924" width="108.307" height="324.92" style="fill:#c7e9ff;" /><rect x="1625.448" y="974.924" width="108.307" height="216.614" style="fill:#daf1ff;" /><rect x="1950.368" y="974.924" width="108.307" height="324.92" style="fill:#a1dbff;" /><rect x="2058.675" y="974.924" width="649.841" height="216.614" style="fill:#031a29;" /><rect x="3033.436" y="974.924" width="108.307" height="1516.295" style="fill:#031a29;" /><rect x="3141.743" y="974.924" width="108.307" height="1516.295" /><rect x="3250.05" y="974.924" width="108.307" height="108.307" style="fill:#5a5a5a;" /><rect x="109.153" y="1083.231" width="108.307" height="108.307" style="fill:#929292;" /><rect x="758.994" y="1083.231" width="541.534" height="324.92" style="fill:#031a29;" /><rect x="1300.528" y="1083.231" width="108.307" height="108.307" style="fill:#c7e9ff;" /><rect x="3250.05" y="1083.231" width="108.307" height="108.307" style="fill:#575757;" /><rect x="109.153" y="1191.537" width="108.307" height="108.307" style="fill:#8f8f8f;" /><rect x="1300.528" y="1191.537" width="108.307" height="433.227" style="fill:#74c9fe;" /><rect x="1625.448" y="1191.537" width="216.614" height="108.307" style="fill:#0987d7;" /><rect x="1842.062" y="1191.537" width="108.307" height="324.92" style="fill:#74c9fe;" /><rect x="2058.675" y="1191.537" width="108.307" height="324.92" style="fill:#a1dbff;" /><rect x="2166.982" y="1191.537" width="541.534" height="216.614" style="fill:#031a29;" /><rect x="3250.05" y="1191.537" width="108.307" height="108.307" style="fill:#535353;" /><rect x="109.153" y="1299.844" width="108.307" height="108.307" style="fill:#8c8c8c;" /><rect x="1408.834" y="1299.844" width="216.614" height="216.614" style="fill:#74c9fe;" /><rect x="1625.448" y="1299.844" width="216.614" height="108.307" style="fill:#07304a;" /><rect x="1950.368" y="1299.844" width="108.307" height="324.92" style="fill:#74c9fe;" /><rect x="3250.05" y="1299.844" width="108.307" height="108.307" style="fill:#505050;" /><rect x="109.153" y="1408.151" width="108.307" height="108.307" style="fill:#888;" /><rect x="758.994" y="1408.151" width="433.227" height="216.614" style="fill:#031a29;" /><rect x="1192.221" y="1408.151" width="108.307" height="108.307" style="fill:#a1dbff;" /><rect x="1625.448" y="1408.151" width="108.307" height="108.307" style="fill:#07304a;" /><rect x="1733.755" y="1408.151" width="108.307" height="1732.908" style="fill:#031a29;" /><rect x="2166.982" y="1408.151" width="108.307" height="108.307" style="fill:#a1dbff;" /><rect x="2275.289" y="1408.151" width="433.227" height="216.614" style="fill:#031a29;" /><rect x="3250.05" y="1408.151" width="108.307" height="108.307" style="fill:#4d4d4d;" /><rect x="109.153" y="1516.458" width="108.307" height="108.307" style="fill:#858585;" /><rect x="1192.221" y="1516.458" width="108.307" height="108.307" style="fill:#74c9fe;" /><rect x="1408.834" y="1516.458" width="108.307" height="216.614" style="fill:#069efe;" /><rect x="1517.141" y="1516.458" width="108.307" height="216.614" style="fill:#07304a;" /><rect x="1625.448" y="1516.458" width="108.307" height="1624.602" style="fill:#031a29;" /><rect x="1842.062" y="1516.458" width="108.307" height="216.614" style="fill:#07304a;" /><rect x="2058.675" y="1516.458" width="216.614" height="108.307" style="fill:#5bbffe;" /><rect x="3250.05" y="1516.458" width="108.307" height="108.307" style="fill:#494949;" /><rect x="109.153" y="1624.765" width="108.307" height="108.307" style="fill:#818181;" /><rect x="758.994" y="1624.765" width="324.92" height="433.227" style="fill:#031a29;" /><rect x="1083.914" y="1624.765" width="108.307" height="108.307" style="fill:#a1dbff;" /><rect x="1192.221" y="1624.765" width="108.307" height="108.307" style="fill:#5bbffe;" /><rect x="1300.528" y="1624.765" width="108.307" height="324.92" style="fill:#088bde;" /><rect x="1950.368" y="1624.765" width="108.307" height="108.307" style="fill:#069efe;" /><rect x="2058.675" y="1624.765" width="108.307" height="433.227" style="fill:#088bde;" /><rect x="2166.982" y="1624.765" width="108.307" height="216.614" style="fill:#5bbffe;" /><rect x="2275.289" y="1624.765" width="108.307" height="108.307" style="fill:#a1dbff;" /><rect x="2383.595" y="1624.765" width="324.92" height="324.92" style="fill:#031a29;" /><rect x="3250.05" y="1624.765" width="108.307" height="974.761" style="fill:#474747;" /><rect x="109.153" y="1733.071" width="108.307" height="108.307" style="fill:#7e7e7e;" /><rect x="1083.914" y="1733.071" width="108.307" height="324.92" style="fill:#5bbffe;" /><rect x="1192.221" y="1733.071" width="108.307" height="433.227" style="fill:#088bde;" /><rect x="1408.834" y="1733.071" width="108.307" height="433.227" style="fill:#07304a;" /><rect x="1517.141" y="1733.071" width="108.307" height="1407.988" style="fill:#031a29;" /><rect x="1842.062" y="1733.071" width="108.307" height="1407.988" style="fill:#031a29;" /><rect x="1950.368" y="1733.071" width="108.307" height="324.92" style="fill:#07304a;" /><rect x="2275.289" y="1733.071" width="108.307" height="108.307" style="fill:#5bbffe;" /><rect x="109.153" y="1841.378" width="108.307" height="108.307" style="fill:#7a7a7a;" /><rect x="2166.982" y="1841.378" width="216.614" height="433.227" style="fill:#088bde;" /><rect x="109.153" y="1949.685" width="108.307" height="108.307" style="fill:#777;" /><rect x="1300.528" y="1949.685" width="108.307" height="216.614" style="fill:#c1e7ff;" /><rect x="2383.595" y="1949.685" width="108.307" height="324.92" style="fill:#a1dbff;" /><rect x="2491.902" y="1949.685" width="216.614" height="433.227" style="fill:#031a29;" /><rect x="109.153" y="2057.992" width="108.307" height="108.307" style="fill:#747474;" /><rect x="758.994" y="2057.992" width="216.614" height="216.614" style="fill:#031a29;" /><rect x="975.607" y="2057.992" width="108.307" height="108.307" style="fill:#5bbffe;" /><rect x="1083.914" y="2057.992" width="108.307" height="108.307" style="fill:#088bde;" /><rect x="1950.368" y="2057.992" width="108.307" height="1083.068" style="fill:#031a29;" /><rect x="2058.675" y="2057.992" width="108.307" height="324.92" style="fill:#07304a;" /><rect x="109.153" y="2166.298" width="108.307" height="108.307" style="fill:#707070;" /><rect x="975.607" y="2166.298" width="108.307" height="433.227" style="fill:#088bde;" /><rect x="1083.914" y="2166.298" width="216.614" height="108.307" style="fill:#5bbffe;" /><rect x="1300.528" y="2166.298" width="108.307" height="324.92" style="fill:#07304a;" /><rect x="1408.834" y="2166.298" width="108.307" height="974.761" style="fill:#031a29;" /><rect x="109.153" y="2274.605" width="108.307" height="108.307" style="fill:#6d6d6d;" /><rect x="758.994" y="2274.605" width="108.307" height="216.614" style="fill:#031a29;" /><rect x="867.301" y="2274.605" width="108.307" height="108.307" style="fill:#5bbffe;" /><rect x="1083.914" y="2274.605" width="108.307" height="216.614" style="fill:#088bde;" /><rect x="1192.221" y="2274.605" width="108.307" height="216.614" style="fill:#c1e7ff;" /><rect x="2166.982" y="2274.605" width="108.307" height="108.307" style="fill:#5bbffe;" /><rect x="2275.289" y="2274.605" width="216.614" height="216.614" style="fill:#088bde;" /><rect x="109.153" y="2382.912" width="108.307" height="108.307" style="fill:#696969;" /><rect x="867.301" y="2382.912" width="108.307" height="216.614" style="fill:#088bde;" /><rect x="2058.675" y="2382.912" width="108.307" height="758.147" style="fill:#031a29;" /><rect x="2166.982" y="2382.912" width="108.307" height="216.614" style="fill:#07304a;" /><rect x="2491.902" y="2382.912" width="108.307" height="108.307" style="fill:#a1dbff;" /><rect x="2600.209" y="2382.912" width="108.307" height="649.841" style="fill:#031a29;" /><rect x="109.153" y="2491.219" width="108.307" height="108.307" style="fill:#666;" /><rect x="217.46" y="2491.219" width="108.307" height="108.307" style="fill:#646464;" /><rect x="325.767" y="2491.219" width="108.307" height="216.614" /><rect x="758.994" y="2491.219" width="108.307" height="108.307" style="fill:#5bbffe;" /><rect x="1083.914" y="2491.219" width="324.92" height="108.307" style="fill:#5bbffe;" /><rect x="2275.289" y="2491.219" width="216.614" height="108.307" style="fill:#5bbffe;" /><rect x="2491.902" y="2491.219" width="108.307" height="108.307" style="fill:#088bde;" /><rect x="3033.436" y="2491.219" width="108.307" height="216.614" /><rect x="3141.743" y="2491.219" width="108.307" height="324.92" style="fill:#474747;" /><rect x="217.46" y="2599.526" width="108.307" height="108.307" style="fill:#606060;" /><rect x="758.994" y="2599.526" width="649.841" height="433.227" style="fill:#031a29;" /><rect x="2166.982" y="2599.526" width="433.227" height="433.227" style="fill:#031a29;" /><rect x="217.46" y="2707.832" width="108.307" height="108.307" style="fill:#5d5d5d;" /><rect x="325.767" y="2707.832" width="108.307" height="108.307" style="fill:#5b5b5b;" /><rect x="434.073" y="2707.832" width="108.307" height="108.307" /><rect x="2925.129" y="2707.832" width="108.307" height="108.307" /><rect x="3033.436" y="2707.832" width="108.307" height="216.614" style="fill:#474747;" /><rect x="325.767" y="2816.139" width="108.307" height="108.307" style="fill:#585858;" /><rect x="434.073" y="2816.139" width="108.307" height="108.307" style="fill:#565656;" /><rect x="542.38" y="2816.139" width="108.307" height="108.307" /><rect x="2816.823" y="2816.139" width="108.307" height="108.307" /><rect x="2925.129" y="2816.139" width="108.307" height="216.614" style="fill:#474747;" /><rect x="434.073" y="2924.446" width="108.307" height="108.307" style="fill:#525252;" /><rect x="542.38" y="2924.446" width="108.307" height="108.307" style="fill:#505050;" /><rect x="650.687" y="2924.446" width="108.307" height="108.307" /><rect x="2708.516" y="2924.446" width="108.307" height="108.307" /><rect x="2816.823" y="2924.446" width="108.307" height="216.614" style="fill:#474747;" /><rect x="542.38" y="3032.753" width="108.307" height="108.307" style="fill:#4d4d4d;" /><rect x="650.687" y="3032.753" width="108.307" height="108.307" style="fill:#4b4b4b;" /><rect x="758.994" y="3032.753" width="324.92" height="108.307" /><rect x="1083.914" y="3032.753" width="324.92" height="108.307" style="fill:#031a29;" /><rect x="2166.982" y="3032.753" width="324.92" height="108.307" style="fill:#031a29;" /><rect x="2491.902" y="3032.753" width="216.614" height="108.307" /><rect x="2708.516" y="3032.753" width="108.307" height="216.614" style="fill:#474747;" /><rect x="650.687" y="3141.059" width="324.92" height="108.307" style="fill:#474747;" /><rect x="975.607" y="3141.059" width="1516.295" height="108.307" /><rect x="2491.902" y="3141.059" width="216.614" height="108.307" style="fill:#474747;" /><rect x="867.301" y="3249.366" width="1732.908" height="108.307" style="fill:#474747;" /></svg>