<?xml version='1.0' encoding='utf-8'?>
<svg xmlns="http://www.w3.org/2000/svg" viewBox="0 0 3357.5649999999996 3357.5939999999996" width="512" height="512" version="1.1" xml:space="preserve" style="fill-rule:evenodd;clip-rule:evenodd;stroke-linejoin:round;stroke-miterlimit:2;"><rect x="866.508" y="108.391" width="1841.215" height="108.307" style="fill:#dacdfd;" /><rect x="649.895" y="216.697" width="324.92" height="108.307" style="fill:#dacdfd;" /><rect x="974.815" y="216.697" width="1624.602" height="108.307" style="fill:#0e0a19;" /><rect x="2599.417" y="216.697" width="324.92" height="108.307" style="fill:#dacdfd;" /><rect x="433.281" y="325.004" width="324.92" height="108.307" style="fill:#dacdfd;" /><rect x="758.202" y="325.004" width="324.92" height="108.307" style="fill:#0e0a19;" /><rect x="1083.122" y="325.004" width="1407.988" height="541.534" style="fill:#22193a;" /><rect x="2491.11" y="325.004" width="324.92" height="108.307" style="fill:#0e0a19;" /><rect x="2816.03" y="325.004" width="216.614" height="108.307" style="fill:#dacdfd;" /><rect x="324.975" y="433.311" width="216.614" height="108.307" style="fill:#dacdfd;" /><rect x="541.588" y="433.311" width="324.92" height="108.307" style="fill:#0e0a19;" /><rect x="866.508" y="433.311" width="216.614" height="649.841" style="fill:#22193a;" /><rect x="2491.11" y="433.311" width="216.614" height="1299.681" style="fill:#22193a;" /><rect x="2707.724" y="433.311" width="216.614" height="108.307" style="fill:#0e0a19;" /><rect x="2924.337" y="433.311" width="216.614" height="108.307" style="fill:#dacdfd;" /><rect x="216.668" y="541.618" width="216.614" height="108.307" style="fill:#dacdfd;" /><rect x="433.281" y="541.618" width="216.614" height="108.307" style="fill:#0e0a19;" /><rect x="649.895" y="541.618" width="216.614" height="1083.068" style="fill:#22193a;" /><rect x="2707.724" y="541.618" width="108.307" height="1191.375" style="fill:#22193a;" /><rect x="2816.03" y="541.618" width="216.614" height="108.307" style="fill:#0e0a19;" /><rect x="3032.644" y="541.618" width="216.614" height="108.307" style="fill:#dacdfd;" /><rect x="216.668" y="649.925" width="108.307" height="216.614" style="fill:#dacdfd;" /><rect x="324.975" y="649.925" width="216.614" height="108.307" style="fill:#0e0a19;" /><rect x="541.588" y="649.925" width="108.307" height="1083.068" style="fill:#22193a;" /><rect x="2816.03" y="649.925" width="108.307" height="1083.068" style="fill:#22193a;" /><rect x="2924.337" y="649.925" width="216.614" height="108.307" style="fill:#0e0a19;" /><rect x="3140.951" y="649.925" width="108.307" height="324.92" style="fill:#dacdfd;" /><rect x="108.361" y="758.231" width="108.307" height="1841.215" style="fill:#dacdfd;" /><rect x="324.975" y="758.231" width="108.307" height="216.614" style="fill:#0e0a19;" /><rect x="433.281" y="758.231" width="108.307" height="974.761" style="fill:#22193a;" /><rect x="2924.337" y="758.231" width="108.307" height="974.761" style="fill:#22193a;" /><rect x="3032.644" y="758.231" width="108.307" height="324.92" style="fill:#0e0a19;" /><rect x="216.668" y="866.538" width="108.307" height="1624.602" style="fill:#0e0a19;" /><rect x="1083.122" y="866.538" width="108.307" height="216.614" style="fill:#d8c9ff;" /><rect x="1191.429" y="866.538" width="108.307" height="433.227" style="fill:#9f7bff;" /><rect x="1299.736" y="866.538" width="1191.375" height="216.614" style="fill:#22193a;" /><rect x="3249.258" y="866.538" width="108.307" height="1732.908" style="fill:#dacdfd;" /><rect x="324.975" y="974.845" width="108.307" height="758.147" style="fill:#22193a;" /><rect x="3140.951" y="974.845" width="108.307" height="1516.295" style="fill:#0e0a19;" /><rect x="866.508" y="1083.152" width="108.307" height="324.92" style="fill:#22193a;" /><rect x="974.815" y="1083.152" width="108.307" height="108.307" style="fill:#d8c9ff;" /><rect x="1083.122" y="1083.152" width="108.307" height="216.614" style="fill:#9f7bff;" /><rect x="1299.736" y="1083.152" width="108.307" height="324.92" style="fill:#9f7bff;" /><rect x="1408.042" y="1083.152" width="1083.068" height="324.92" style="fill:#22193a;" /><rect x="3032.644" y="1083.152" width="108.307" height="649.841" style="fill:#22193a;" /><rect x="974.815" y="1191.458" width="108.307" height="216.614" style="fill:#9f7bff;" /><rect x="1083.122" y="1299.765" width="216.614" height="108.307" style="fill:#6f50c1;" /><rect x="866.508" y="1408.072" width="108.307" height="216.614" style="fill:#9f7bff;" /><rect x="974.815" y="1408.072" width="108.307" height="216.614" style="fill:#6f50c1;" /><rect x="1083.122" y="1408.072" width="216.614" height="1732.908" style="fill:#22193a;" /><rect x="1299.736" y="1408.072" width="108.307" height="324.92" style="fill:#6f50c1;" /><rect x="1408.042" y="1408.072" width="108.307" height="324.92" style="fill:#9f7bff;" /><rect x="1516.349" y="1408.072" width="974.761" height="324.92" style="fill:#22193a;" /><rect x="649.895" y="1624.686" width="108.307" height="108.307" style="fill:#22193a;" /><rect x="758.202" y="1624.686" width="108.307" height="108.307" style="fill:#9f7bff;" /><rect x="866.508" y="1624.686" width="108.307" height="216.614" style="fill:#6f50c1;" /><rect x="974.815" y="1624.686" width="108.307" height="1407.988" style="fill:#22193a;" /><rect x="324.975" y="1732.992" width="433.227" height="108.307" style="fill:#9f7bff;" /><rect x="758.202" y="1732.992" width="108.307" height="108.307" style="fill:#6f50c1;" /><rect x="1299.736" y="1732.992" width="108.307" height="1407.988" style="fill:#22193a;" /><rect x="1408.042" y="1732.992" width="108.307" height="324.92" style="fill:#6f50c1;" /><rect x="1516.349" y="1732.992" width="108.307" height="324.92" style="fill:#9f7bff;" /><rect x="1624.656" y="1732.992" width="324.92" height="324.92" style="fill:#22193a;" /><rect x="1949.576" y="1732.992" width="108.307" height="108.307" style="fill:#d8c9ff;" /><rect x="2057.883" y="1732.992" width="433.227" height="108.307" style="fill:#9f7bff;" /><rect x="2491.11" y="1732.992" width="649.841" height="108.307" style="fill:#9d78ff;" /><rect x="324.975" y="1841.299" width="433.227" height="108.307" style="fill:#6f50c1;" /><rect x="758.202" y="1841.299" width="216.614" height="1083.068" style="fill:#22193a;" /><rect x="1949.576" y="1841.299" width="216.614" height="108.307" style="fill:#9f7bff;" /><rect x="2166.19" y="1841.299" width="974.761" height="108.307" style="fill:#6f50c1;" /><rect x="324.975" y="1949.606" width="433.227" height="433.227" style="fill:#22193a;" /><rect x="1949.576" y="1949.606" width="108.307" height="108.307" style="fill:#9f7bff;" /><rect x="2057.883" y="1949.606" width="108.307" height="108.307" style="fill:#6f50c1;" /><rect x="2166.19" y="1949.606" width="974.761" height="433.227" style="fill:#22193a;" /><rect x="1408.042" y="2057.913" width="108.307" height="1083.068" style="fill:#22193a;" /><rect x="1516.349" y="2057.913" width="108.307" height="324.92" style="fill:#6f50c1;" /><rect x="1624.656" y="2057.913" width="108.307" height="324.92" style="fill:#9f7bff;" /><rect x="1732.963" y="2057.913" width="108.307" height="324.92" style="fill:#22193a;" /><rect x="1841.269" y="2057.913" width="108.307" height="108.307" style="fill:#d8c9ff;" /><rect x="1949.576" y="2057.913" width="108.307" height="324.92" style="fill:#6f50c1;" /><rect x="2057.883" y="2057.913" width="108.307" height="1083.068" style="fill:#22193a;" /><rect x="1841.269" y="2166.22" width="108.307" height="433.227" style="fill:#9f7bff;" /><rect x="324.975" y="2382.833" width="108.307" height="324.92" style="fill:#0e0a19;" /><rect x="433.281" y="2382.833" width="324.92" height="216.614" style="fill:#22193a;" /><rect x="1516.349" y="2382.833" width="108.307" height="758.147" style="fill:#22193a;" /><rect x="1624.656" y="2382.833" width="108.307" height="216.614" style="fill:#6f50c1;" /><rect x="1732.963" y="2382.833" width="108.307" height="216.614" style="fill:#9f7bff;" /><rect x="1949.576" y="2382.833" width="108.307" height="758.147" style="fill:#22193a;" /><rect x="2166.19" y="2382.833" width="866.454" height="216.614" style="fill:#22193a;" /><rect x="3032.644" y="2382.833" width="108.307" height="324.92" style="fill:#0e0a19;" /><rect x="216.668" y="2491.14" width="108.307" height="324.92" style="fill:#dacdfd;" /><rect x="3140.951" y="2491.14" width="108.307" height="324.92" style="fill:#dacdfd;" /><rect x="433.281" y="2599.447" width="108.307" height="216.614" style="fill:#0e0a19;" /><rect x="541.588" y="2599.447" width="216.614" height="108.307" style="fill:#22193a;" /><rect x="1624.656" y="2599.447" width="108.307" height="541.534" style="fill:#22193a;" /><rect x="1732.963" y="2599.447" width="216.614" height="108.307" style="fill:#6f50c1;" /><rect x="2166.19" y="2599.447" width="758.147" height="108.307" style="fill:#22193a;" /><rect x="2924.337" y="2599.447" width="108.307" height="216.614" style="fill:#0e0a19;" /><rect x="324.975" y="2707.753" width="108.307" height="216.614" style="fill:#dacdfd;" /><rect x="541.588" y="2707.753" width="108.307" height="216.614" style="fill:#0e0a19;" /><rect x="649.895" y="2707.753" width="108.307" height="108.307" style="fill:#22193a;" /><rect x="1732.963" y="2707.753" width="216.614" height="433.227" style="fill:#22193a;" /><rect x="2166.19" y="2707.753" width="649.841" height="108.307" style="fill:#22193a;" /><rect x="2816.03" y="2707.753" width="108.307" height="216.614" style="fill:#0e0a19;" /><rect x="3032.644" y="2707.753" width="108.307" height="216.614" style="fill:#dacdfd;" /><rect x="433.281" y="2816.06" width="108.307" height="216.614" style="fill:#dacdfd;" /><rect x="649.895" y="2816.06" width="108.307" height="216.614" style="fill:#0e0a19;" /><rect x="2166.19" y="2816.06" width="541.534" height="108.307" style="fill:#22193a;" /><rect x="2707.724" y="2816.06" width="108.307" height="216.614" style="fill:#0e0a19;" /><rect x="2924.337" y="2816.06" width="108.307" height="216.614" style="fill:#dacdfd;" /><rect x="541.588" y="2924.367" width="108.307" height="216.614" style="fill:#dacdfd;" /><rect x="758.202" y="2924.367" width="108.307" height="216.614" style="fill:#0e0a19;" /><rect x="866.508" y="2924.367" width="108.307" height="108.307" style="fill:#22193a;" /><rect x="2166.19" y="2924.367" width="433.227" height="108.307" style="fill:#22193a;" /><rect x="2599.417" y="2924.367" width="108.307" height="216.614" style="fill:#0e0a19;" /><rect x="2816.03" y="2924.367" width="108.307" height="216.614" style="fill:#dacdfd;" /><rect x="649.895" y="3032.674" width="108.307" height="216.614" style="fill:#dacdfd;" /><rect x="866.508" y="3032.674" width="216.614" height="108.307" style="fill:#0e0a19;" /><rect x="2166.19" y="3032.674" width="216.614" height="108.307" style="fill:#22193a;" /><rect x="2382.803" y="3032.674" width="216.614" height="108.307" style="fill:#0e0a19;" /><rect x="2707.724" y="3032.674" width="108.307" height="216.614" style="fill:#dacdfd;" /><rect x="758.202" y="3140.981" width="216.614" height="108.307" style="fill:#dacdfd;" /><rect x="974.815" y="3140.981" width="1516.295" height="108.307" style="fill:#0e0a19;" /><rect x="2491.11" y="3140.981" width="216.614" height="108.307" style="fill:#dacdfd;" /><rect x="866.508" y="3249.287" width="1732.908" height="108.307" style="fill:#dacdfd;" /></svg>