<?xml version='1.0' encoding='utf-8'?>
<svg xmlns="http://www.w3.org/2000/svg" viewBox="0 0 3358.133 3357.9799999999996" width="512" height="512" version="1.1" xml:space="preserve" style="fill-rule:evenodd;clip-rule:evenodd;stroke-linejoin:round;stroke-miterlimit:2;"><rect x="867.077" y="108.777" width="866.454" height="108.307" style="fill:#fff;" /><rect x="1733.531" y="108.777" width="541.534" height="108.307" style="fill:#e9f0f3;" /><rect x="2275.065" y="108.777" width="324.92" height="108.307" style="fill:#c7cdd0;" /><rect x="650.463" y="217.083" width="324.92" height="108.307" style="fill:#fff;" /><rect x="975.384" y="217.083" width="324.92" height="108.307" style="fill:#e1e7ea;" /><rect x="1300.304" y="217.083" width="108.307" height="3032.59" style="fill:#d6dcdf;" /><rect x="1408.611" y="217.083" width="108.307" height="3032.59" style="fill:#d3dadc;" /><rect x="1516.917" y="217.083" width="324.92" height="108.307" style="fill:#151515;" /><rect x="1841.838" y="217.083" width="108.307" height="108.307" style="fill:#bbc1c3;" /><rect x="1950.145" y="217.083" width="541.534" height="3032.59" style="fill:#d6dcdf;" /><rect x="2491.679" y="217.083" width="216.614" height="108.307" style="fill:#c7cdd0;" /><rect x="2708.292" y="217.083" width="108.307" height="216.614" style="fill:#9ca0a2;" /><rect x="433.85" y="325.39" width="324.92" height="108.307" style="fill:#fff;" /><rect x="758.77" y="325.39" width="324.92" height="108.307" style="fill:#e1e7ea;" /><rect x="1083.69" y="325.39" width="216.614" height="2924.283" style="fill:#d6dcdf;" /><rect x="1516.917" y="325.39" width="216.614" height="216.614" style="fill:#2b2b2b;" /><rect x="1733.531" y="325.39" width="216.614" height="108.307" style="fill:#c4cacc;" /><rect x="2491.679" y="325.39" width="216.614" height="2815.976" style="fill:#d6dcdf;" /><rect x="2816.599" y="325.39" width="108.307" height="216.614" style="fill:#9ca0a2;" /><rect x="325.543" y="433.697" width="216.614" height="108.307" style="fill:#fff;" /><rect x="542.156" y="433.697" width="324.92" height="108.307" style="fill:#e1e7ea;" /><rect x="867.077" y="433.697" width="216.614" height="2707.67" style="fill:#d6dcdf;" /><rect x="1733.531" y="433.697" width="216.614" height="108.307" style="fill:#bbc1c3;" /><rect x="2708.292" y="433.697" width="108.307" height="2599.363" style="fill:#d6dcdf;" /><rect x="2924.906" y="433.697" width="108.307" height="216.614" style="fill:#9ca0a2;" /><rect x="217.236" y="542.004" width="216.614" height="108.307" style="fill:#fff;" /><rect x="433.85" y="542.004" width="216.614" height="108.307" style="fill:#e1e7ea;" /><rect x="650.463" y="542.004" width="216.614" height="2491.056" style="fill:#d6dcdf;" /><rect x="1516.917" y="542.004" width="108.307" height="108.307" style="fill:#bbc1c3;" /><rect x="1625.224" y="542.004" width="108.307" height="108.307" style="fill:#2b2b2b;" /><rect x="1733.531" y="542.004" width="216.614" height="108.307" style="fill:#151515;" /><rect x="2816.599" y="542.004" width="108.307" height="2382.749" style="fill:#d6dcdf;" /><rect x="3033.212" y="542.004" width="108.307" height="216.614" style="fill:#9ca0a2;" /><rect x="217.236" y="650.311" width="108.307" height="216.614" style="fill:#fff;" /><rect x="325.543" y="650.311" width="216.614" height="216.614" style="fill:#e1e7ea;" /><rect x="542.156" y="650.311" width="108.307" height="2274.442" style="fill:#d6dcdf;" /><rect x="1516.917" y="650.311" width="216.614" height="108.307" style="fill:#d3dadc;" /><rect x="1733.531" y="650.311" width="108.307" height="324.92" style="fill:#2b2b2b;" /><rect x="1841.838" y="650.311" width="108.307" height="216.614" style="fill:#151515;" /><rect x="2924.906" y="650.311" width="108.307" height="2166.136" style="fill:#d6dcdf;" /><rect x="3141.519" y="650.311" width="108.307" height="324.92" style="fill:#9ca0a2;" /><rect x="108.929" y="758.617" width="108.307" height="1191.375" style="fill:#fff;" /><rect x="1516.917" y="758.617" width="108.307" height="108.307" style="fill:#bbc1c3;" /><rect x="1625.224" y="758.617" width="108.307" height="108.307" style="fill:#c4cacc;" /><rect x="3033.212" y="758.617" width="108.307" height="1949.522" style="fill:#d6dcdf;" /><rect x="217.236" y="866.924" width="216.614" height="108.307" style="fill:#e1e7ea;" /><rect x="433.85" y="866.924" width="108.307" height="1949.522" style="fill:#d6dcdf;" /><rect x="1516.917" y="866.924" width="216.614" height="108.307" style="fill:#151515;" /><rect x="1841.838" y="866.924" width="108.307" height="108.307" style="fill:#bbc1c3;" /><rect x="3249.826" y="866.924" width="108.307" height="324.92" style="fill:#9ca0a2;" /><rect x="217.236" y="975.231" width="108.307" height="758.147" style="fill:#e1e7ea;" /><rect x="325.543" y="975.231" width="108.307" height="1732.908" style="fill:#d6dcdf;" /><rect x="1516.917" y="975.231" width="216.614" height="216.614" style="fill:#2b2b2b;" /><rect x="1733.531" y="975.231" width="216.614" height="108.307" style="fill:#c4cacc;" /><rect x="3141.519" y="975.231" width="108.307" height="1516.295" style="fill:#d6dcdf;" /><rect x="1733.531" y="1083.538" width="216.614" height="108.307" style="fill:#bbc1c3;" /><rect x="1516.917" y="1191.844" width="108.307" height="108.307" style="fill:#bbc1c3;" /><rect x="1625.224" y="1191.844" width="108.307" height="108.307" style="fill:#2b2b2b;" /><rect x="1733.531" y="1191.844" width="216.614" height="108.307" style="fill:#151515;" /><rect x="3249.826" y="1191.844" width="108.307" height="1407.988" style="fill:#727577;" /><rect x="1516.917" y="1300.151" width="216.614" height="108.307" style="fill:#d3dadc;" /><rect x="1733.531" y="1300.151" width="108.307" height="324.92" style="fill:#2b2b2b;" /><rect x="1841.838" y="1300.151" width="108.307" height="216.614" style="fill:#151515;" /><rect x="1516.917" y="1408.458" width="108.307" height="108.307" style="fill:#d3dadc;" /><rect x="1625.224" y="1408.458" width="108.307" height="108.307" style="fill:#bbc1c3;" /><rect x="1516.917" y="1516.765" width="216.614" height="108.307" style="fill:#151515;" /><rect x="1841.838" y="1516.765" width="108.307" height="108.307" style="fill:#bbc1c3;" /><rect x="1516.917" y="1625.072" width="216.614" height="324.92" style="fill:#2b2b2b;" /><rect x="1733.531" y="1625.072" width="216.614" height="108.307" style="fill:#c4cacc;" /><rect x="217.236" y="1733.378" width="108.307" height="758.147" style="fill:#d6dcdf;" /><rect x="1733.531" y="1733.378" width="216.614" height="108.307" style="fill:#bbc1c3;" /><rect x="1733.531" y="1841.685" width="216.614" height="108.307" style="fill:#151515;" /><rect x="108.929" y="1949.992" width="108.307" height="541.534" style="fill:#e9f0f3;" /><rect x="1516.917" y="1949.992" width="108.307" height="1299.681" style="fill:#2b2b2b;" /><rect x="1625.224" y="1949.992" width="216.614" height="433.227" style="fill:#eaf1f1;" /><rect x="1841.838" y="1949.992" width="108.307" height="1299.681" style="fill:#151515;" /><rect x="1625.224" y="2383.219" width="216.614" height="324.92" style="fill:#c4cbcc;" /><rect x="108.929" y="2491.526" width="216.614" height="108.307" style="fill:#c7cdd0;" /><rect x="3141.519" y="2491.526" width="108.307" height="324.92" style="fill:#727577;" /><rect x="217.236" y="2599.833" width="108.307" height="108.307" style="fill:#c7cdd0;" /><rect x="217.236" y="2708.139" width="216.614" height="108.307" style="fill:#9ca0a2;" /><rect x="1625.224" y="2708.139" width="216.614" height="108.307" style="fill:#969ea0;" /><rect x="3033.212" y="2708.139" width="108.307" height="216.614" style="fill:#727577;" /><rect x="325.543" y="2816.446" width="216.614" height="108.307" style="fill:#9ca0a2;" /><rect x="1625.224" y="2816.446" width="108.307" height="433.227" style="fill:#2b2b2b;" /><rect x="1733.531" y="2816.446" width="108.307" height="108.307" style="fill:#151515;" /><rect x="2924.906" y="2816.446" width="108.307" height="216.614" style="fill:#727577;" /><rect x="433.85" y="2924.753" width="216.614" height="108.307" style="fill:#9ca0a2;" /><rect x="1733.531" y="2924.753" width="108.307" height="324.92" style="fill:#2b2b2b;" /><rect x="2816.599" y="2924.753" width="108.307" height="216.614" style="fill:#727577;" /><rect x="542.156" y="3033.06" width="216.614" height="108.307" style="fill:#9ca0a2;" /><rect x="758.77" y="3033.06" width="108.307" height="108.307" style="fill:#d6dcdf;" /><rect x="2708.292" y="3033.06" width="108.307" height="216.614" style="fill:#727577;" /><rect x="650.463" y="3141.366" width="324.92" height="108.307" style="fill:#727577;" /><rect x="975.384" y="3141.366" width="108.307" height="108.307" style="fill:#d6dcdf;" /><rect x="2491.679" y="3141.366" width="216.614" height="108.307" style="fill:#727577;" /><rect x="867.077" y="3249.673" width="1732.908" height="108.307" style="fill:#727577;" /></svg>