<?xml version='1.0' encoding='utf-8'?>
<svg xmlns="http://www.w3.org/2000/svg" viewBox="0 0 3357.578 3357.738" width="512" height="512" version="1.1" xml:space="preserve" style="fill-rule:evenodd;clip-rule:evenodd;stroke-linejoin:round;stroke-miterlimit:2;"><rect x="866.521" y="108.535" width="1732.908" height="108.307" style="fill:#131313;" /><rect x="649.908" y="216.842" width="324.92" height="108.307" style="fill:#131313;" /><rect x="974.828" y="216.842" width="1516.295" height="108.307" style="fill:#f8604e;" /><rect x="2491.123" y="216.842" width="324.92" height="108.307" style="fill:#131313;" /><rect x="433.294" y="325.148" width="324.92" height="108.307" style="fill:#131313;" /><rect x="758.215" y="325.148" width="324.92" height="108.307" style="fill:#f8604e;" /><rect x="1083.135" y="325.148" width="1624.602" height="324.92" style="fill:#f53b25;" /><rect x="2707.737" y="325.148" width="324.92" height="108.307" style="fill:#131313;" /><rect x="324.988" y="433.455" width="216.614" height="108.307" style="fill:#131313;" /><rect x="541.601" y="433.455" width="324.92" height="108.307" style="fill:#f8604e;" /><rect x="866.521" y="433.455" width="216.614" height="324.92" style="fill:#f53b25;" /><rect x="2707.737" y="433.455" width="216.614" height="324.92" style="fill:#f53b25;" /><rect x="2924.35" y="433.455" width="216.614" height="108.307" style="fill:#131313;" /><rect x="216.681" y="541.762" width="216.614" height="108.307" style="fill:#131313;" /><rect x="433.294" y="541.762" width="216.614" height="108.307" style="fill:#f8604e;" /><rect x="649.908" y="541.762" width="216.614" height="433.227" style="fill:#f53b25;" /><rect x="2924.35" y="541.762" width="108.307" height="2057.829" style="fill:#f53b25;" /><rect x="3032.657" y="541.762" width="216.614" height="108.307" style="fill:#131313;" /><rect x="216.681" y="650.069" width="108.307" height="216.614" style="fill:#131313;" /><rect x="324.988" y="650.069" width="216.614" height="108.307" style="fill:#f8604e;" /><rect x="541.601" y="650.069" width="108.307" height="541.534" style="fill:#f53b25;" /><rect x="1083.135" y="650.069" width="324.92" height="108.307" style="fill:#f53b25;" /><rect x="1408.055" y="650.069" width="433.227" height="433.227" style="fill:#131313;" /><rect x="1841.282" y="650.069" width="866.454" height="108.307" style="fill:#f53b25;" /><rect x="3032.657" y="650.069" width="108.307" height="1732.908" style="fill:#f53b25;" /><rect x="3140.964" y="650.069" width="108.307" height="216.614" style="fill:#131313;" /><rect x="108.374" y="758.375" width="108.307" height="1841.215" style="fill:#131313;" /><rect x="324.988" y="758.375" width="108.307" height="216.614" style="fill:#f8604e;" /><rect x="433.294" y="758.375" width="108.307" height="2057.829" style="fill:#f53b25;" /><rect x="866.521" y="758.375" width="108.307" height="108.307" style="fill:#f53b25;" /><rect x="974.828" y="758.375" width="433.227" height="324.92" style="fill:#131313;" /><rect x="1841.282" y="758.375" width="974.761" height="108.307" style="fill:#131313;" /><rect x="2816.043" y="758.375" width="108.307" height="1949.522" style="fill:#f53b25;" /><rect x="3249.271" y="758.375" width="108.307" height="1841.215" style="fill:#131313;" /><rect x="216.681" y="866.682" width="108.307" height="108.307" style="fill:#f8604e;" /><rect x="866.521" y="866.682" width="108.307" height="216.614" style="fill:#131313;" /><rect x="1841.282" y="866.682" width="866.454" height="216.614" style="fill:#131313;" /><rect x="2707.737" y="866.682" width="108.307" height="1949.522" style="fill:#f53b25;" /><rect x="3140.964" y="866.682" width="108.307" height="758.147" style="fill:#f53b25;" /><rect x="216.681" y="974.989" width="108.307" height="324.92" style="fill:#fa6d5d;" /><rect x="324.988" y="974.989" width="108.307" height="1732.908" style="fill:#f53b25;" /><rect x="649.908" y="974.989" width="108.307" height="108.307" style="fill:#f53b25;" /><rect x="758.215" y="974.989" width="108.307" height="649.841" style="fill:#131313;" /><rect x="649.908" y="1083.296" width="108.307" height="541.534" style="fill:#131313;" /><rect x="866.521" y="1083.296" width="649.841" height="108.307" style="fill:#f53b25;" /><rect x="1516.362" y="1083.296" width="1083.068" height="108.307" style="fill:#131313;" /><rect x="2599.43" y="1083.296" width="108.307" height="1299.681" style="fill:#f53b25;" /><rect x="541.601" y="1191.603" width="108.307" height="324.92" style="fill:#131313;" /><rect x="866.521" y="1191.603" width="108.307" height="433.227" style="fill:#131313;" /><rect x="974.828" y="1191.603" width="649.841" height="108.307" style="fill:#f53b25;" /><rect x="1624.669" y="1191.603" width="216.614" height="108.307" style="fill:#131313;" /><rect x="1841.282" y="1191.603" width="108.307" height="433.227" style="fill:#f53b25;" /><rect x="1949.589" y="1191.603" width="433.227" height="108.307" style="fill:#131313;" /><rect x="2382.816" y="1191.603" width="216.614" height="1191.375" style="fill:#f53b25;" /><rect x="216.681" y="1299.909" width="108.307" height="108.307" style="fill:#f96756;" /><rect x="974.828" y="1299.909" width="108.307" height="216.614" style="fill:#131313;" /><rect x="1083.135" y="1299.909" width="541.534" height="108.307" style="fill:#f53b25;" /><rect x="1624.669" y="1299.909" width="108.307" height="758.147" style="fill:#131313;" /><rect x="1732.976" y="1299.909" width="108.307" height="216.614" style="fill:#f53b25;" /><rect x="1949.589" y="1299.909" width="433.227" height="541.534" style="fill:#f53b25;" /><rect x="216.681" y="1408.216" width="108.307" height="216.614" style="fill:#f8604e;" /><rect x="1083.135" y="1408.216" width="324.92" height="974.761" style="fill:#f53b25;" /><rect x="1408.055" y="1408.216" width="216.614" height="433.227" style="fill:#131313;" /><rect x="541.601" y="1516.523" width="108.307" height="1407.988" style="fill:#f53b25;" /><rect x="974.828" y="1516.523" width="108.307" height="1083.068" style="fill:#f53b25;" /><rect x="1732.976" y="1516.523" width="108.307" height="1191.375" style="fill:#131313;" /><rect x="216.681" y="1624.83" width="108.307" height="866.454" style="fill:#f53b25;" /><rect x="649.908" y="1624.83" width="324.92" height="1407.988" style="fill:#f53b25;" /><rect x="1841.282" y="1624.83" width="108.307" height="1083.068" style="fill:#131313;" /><rect x="3140.964" y="1624.83" width="108.307" height="866.454" style="fill:#d73522;" /><rect x="1408.055" y="1841.443" width="108.307" height="541.534" style="fill:#f53b25;" /><rect x="1516.362" y="1841.443" width="108.307" height="108.307" style="fill:#131313;" /><rect x="1949.589" y="1841.443" width="108.307" height="433.227" style="fill:#131313;" /><rect x="2057.896" y="1841.443" width="324.92" height="108.307" style="fill:#f53b25;" /><rect x="1516.362" y="1949.75" width="108.307" height="433.227" style="fill:#f53b25;" /><rect x="2057.896" y="1949.75" width="108.307" height="216.614" style="fill:#131313;" /><rect x="2166.203" y="1949.75" width="216.614" height="541.534" style="fill:#f53b25;" /><rect x="1624.669" y="2058.057" width="108.307" height="324.92" style="fill:#f53b25;" /><rect x="2057.896" y="2166.364" width="108.307" height="324.92" style="fill:#f53b25;" /><rect x="1949.589" y="2274.67" width="108.307" height="216.614" style="fill:#f53b25;" /><rect x="1083.135" y="2382.977" width="108.307" height="108.307" style="fill:#f53b25;" /><rect x="1191.442" y="2382.977" width="541.534" height="216.614" style="fill:#131313;" /><rect x="2382.816" y="2382.977" width="108.307" height="108.307" style="fill:#f53b25;" /><rect x="2491.123" y="2382.977" width="216.614" height="108.307" /><rect x="3032.657" y="2382.977" width="108.307" height="324.92" style="fill:#d73522;" /><rect x="216.681" y="2491.284" width="108.307" height="324.92" style="fill:#131313;" /><rect x="1083.135" y="2491.284" width="108.307" height="216.614" style="fill:#131313;" /><rect x="1949.589" y="2491.284" width="324.92" height="108.307" style="fill:#131313;" /><rect x="2274.51" y="2491.284" width="324.92" height="108.307" /><rect x="2599.43" y="2491.284" width="108.307" height="433.227" style="fill:#f53b25;" /><rect x="3140.964" y="2491.284" width="108.307" height="324.92" style="fill:#131313;" /><rect x="974.828" y="2599.591" width="108.307" height="216.614" style="fill:#131313;" /><rect x="1191.442" y="2599.591" width="324.92" height="649.841" style="fill:#f53b25;" /><rect x="1516.362" y="2599.591" width="216.614" height="108.307" style="fill:#131313;" /><rect x="1949.589" y="2599.591" width="216.614" height="108.307" style="fill:#131313;" /><rect x="2166.203" y="2599.591" width="216.614" height="108.307" /><rect x="2382.816" y="2599.591" width="216.614" height="433.227" style="fill:#f53b25;" /><rect x="2924.35" y="2599.591" width="108.307" height="216.614" style="fill:#d73522;" /><rect x="324.988" y="2707.897" width="108.307" height="216.614" style="fill:#131313;" /><rect x="1083.135" y="2707.897" width="108.307" height="541.534" style="fill:#f53b25;" /><rect x="1516.362" y="2707.897" width="108.307" height="541.534" style="fill:#f53b25;" /><rect x="1624.669" y="2707.897" width="649.841" height="108.307" /><rect x="2274.51" y="2707.897" width="108.307" height="433.227" style="fill:#f53b25;" /><rect x="2816.043" y="2707.897" width="108.307" height="216.614" style="fill:#d73522;" /><rect x="3032.657" y="2707.897" width="108.307" height="216.614" style="fill:#131313;" /><rect x="433.294" y="2816.204" width="108.307" height="216.614" style="fill:#131313;" /><rect x="974.828" y="2816.204" width="108.307" height="433.227" style="fill:#f53b25;" /><rect x="1624.669" y="2816.204" width="649.841" height="324.92" style="fill:#f53b25;" /><rect x="2707.737" y="2816.204" width="108.307" height="216.614" style="fill:#d73522;" /><rect x="2924.35" y="2816.204" width="108.307" height="216.614" style="fill:#131313;" /><rect x="541.601" y="2924.511" width="108.307" height="216.614" style="fill:#131313;" /><rect x="2599.43" y="2924.511" width="108.307" height="216.614" style="fill:#d73522;" /><rect x="2816.043" y="2924.511" width="108.307" height="216.614" style="fill:#131313;" /><rect x="649.908" y="3032.818" width="108.307" height="216.614" style="fill:#131313;" /><rect x="758.215" y="3032.818" width="216.614" height="108.307" style="fill:#f53b25;" /><rect x="2382.816" y="3032.818" width="216.614" height="108.307" style="fill:#d73522;" /><rect x="2707.737" y="3032.818" width="108.307" height="216.614" style="fill:#131313;" /><rect x="758.215" y="3141.125" width="216.614" height="108.307" style="fill:#131313;" /><rect x="1624.669" y="3141.125" width="866.454" height="108.307" style="fill:#d73522;" /><rect x="2491.123" y="3141.125" width="216.614" height="108.307" style="fill:#131313;" /><rect x="866.521" y="3249.431" width="1732.908" height="108.307" style="fill:#131313;" /></svg>