<?xml version='1.0' encoding='utf-8'?>
<svg xmlns="http://www.w3.org/2000/svg" viewBox="0 0 3358.357 3358.1319999999996" width="512" height="512" version="1.1" xml:space="preserve" style="fill-rule:evenodd;clip-rule:evenodd;stroke-linejoin:round;stroke-miterlimit:2;"><rect x="867.301" y="108.929" width="216.614" height="108.307" style="fill:#b1b8ff;" /><rect x="1083.914" y="108.929" width="324.92" height="108.307" style="fill:#727fff;" /><rect x="1408.834" y="108.929" width="1191.375" height="108.307" style="fill:#1926a7;" /><rect x="650.687" y="217.236" width="216.614" height="108.307" style="fill:#b1b8ff;" /><rect x="867.301" y="217.236" width="108.307" height="108.307" style="fill:#b1b8ff;" /><rect x="975.607" y="217.236" width="1516.295" height="649.841" style="fill:#3344ed;" /><rect x="2491.902" y="217.236" width="324.92" height="108.307" style="fill:#1926a7;" /><rect x="434.073" y="325.542" width="324.92" height="108.307" style="fill:#b1b8ff;" /><rect x="758.994" y="325.542" width="216.614" height="541.534" style="fill:#3344ed;" /><rect x="2491.902" y="325.542" width="216.614" height="541.534" style="fill:#3344ed;" /><rect x="2708.516" y="325.542" width="216.614" height="108.307" style="fill:#1926a7;" /><rect x="325.767" y="433.849" width="324.92" height="108.307" style="fill:#b1b8ff;" /><rect x="650.687" y="433.849" width="108.307" height="433.227" style="fill:#3344ed;" /><rect x="2708.516" y="433.849" width="108.307" height="433.227" style="fill:#3344ed;" /><rect x="2816.823" y="433.849" width="216.614" height="108.307" style="fill:#1926a7;" /><rect x="217.46" y="542.156" width="108.307" height="216.614" style="fill:#b1b8ff;" /><rect x="542.38" y="433.849" width="108.307" height="108.307" style="fill:#3344ed;" /><rect x="542.38" y="542.156" width="108.307" height="324.92" style="fill:#3344ed;" /><rect x="2816.823" y="542.156" width="108.307" height="324.92" style="fill:#3344ed;" /><rect x="2925.129" y="542.156" width="216.614" height="108.307" style="fill:#1926a7;" /><rect x="325.767" y="542.156" width="216.614" height="108.307" style="fill:#b1b8ff;" /><rect x="434.073" y="542.156" width="108.307" height="433.227" style="fill:#3344ed;" /><rect x="2925.129" y="650.463" width="108.307" height="1083.068" style="fill:#3344ed;" /><rect x="3033.436" y="650.463" width="108.307" height="108.307" style="fill:#1926a7;" /><rect x="3141.743" y="650.463" width="108.307" height="324.92" style="fill:#1a27a1;" /><rect x="109.153" y="758.77" width="108.307" height="108.307" style="fill:#b1b8ff;" /><rect x="217.46" y="758.77" width="108.307" height="108.307" style="fill:#b1b8ff;" /><rect x="325.767" y="650.463" width="108.307" height="1083.068" style="fill:#3344ed;" /><rect x="3033.436" y="758.77" width="108.307" height="974.761" style="fill:#3344ed;" /><rect x="109.153" y="867.076" width="108.307" height="108.307" style="fill:#b1b8ff;" /><rect x="217.46" y="867.076" width="108.307" height="974.761" style="fill:#3344ed;" /><rect x="542.38" y="867.076" width="1624.602" height="324.92" style="fill:#d5d5fb;" /><rect x="2166.982" y="867.076" width="433.227" height="108.307" style="fill:#3344ed;" /><rect x="2600.209" y="867.076" width="108.307" height="108.307" style="fill:#6873e7;" /><rect x="2708.516" y="867.076" width="108.307" height="541.534" style="fill:#8994ff;" /><rect x="2816.823" y="867.076" width="108.307" height="108.307" style="fill:#6873e7;" /><rect x="3250.05" y="867.076" width="108.307" height="1299.681" style="fill:#1a27a1;" /><rect x="109.153" y="975.383" width="108.307" height="216.614" style="fill:#727fff;" /><rect x="434.073" y="975.383" width="108.307" height="108.307" style="fill:#d5d5fb;" /><rect x="2166.982" y="975.383" width="108.307" height="108.307" style="fill:#d5d5fb;" /><rect x="2275.289" y="975.383" width="324.92" height="758.147" style="fill:#3344ed;" /><rect x="2600.209" y="975.383" width="108.307" height="324.92" style="fill:#8994ff;" /><rect x="2816.823" y="975.383" width="108.307" height="324.92" style="fill:#8994ff;" /><rect x="3141.743" y="975.383" width="108.307" height="866.454" style="fill:#3344ed;" /><rect x="434.073" y="1083.69" width="108.307" height="649.841" style="fill:#3344ed;" /><rect x="2166.982" y="1083.69" width="108.307" height="649.841" style="fill:#3344ed;" /><rect x="109.153" y="1191.997" width="108.307" height="1299.681" style="fill:#1926a7;" /><rect x="542.38" y="1191.997" width="1624.602" height="108.307" style="fill:#3344ed;" /><rect x="542.38" y="1300.303" width="1191.375" height="108.307" style="fill:#9c97fa;" /><rect x="1733.755" y="1300.303" width="433.227" height="433.227" style="fill:#3344ed;" /><rect x="2600.209" y="1300.303" width="108.307" height="108.307" style="fill:#6873e7;" /><rect x="2816.823" y="1300.303" width="108.307" height="108.307" style="fill:#6873e7;" /><rect x="542.38" y="1408.61" width="1191.375" height="324.92" style="fill:#3344ed;" /><rect x="2600.209" y="1408.61" width="324.92" height="324.92" style="fill:#3344ed;" /><rect x="325.767" y="1733.531" width="2815.976" height="108.307" style="fill:#fff;" /><rect x="217.46" y="1841.837" width="108.307" height="649.841" style="fill:#fff;" /><rect x="325.767" y="1841.837" width="2815.976" height="108.307" style="fill:#efefef;" /><rect x="3141.743" y="1841.837" width="108.307" height="649.841" style="fill:#e6e6e6;" /><rect x="325.767" y="1950.144" width="216.614" height="758.147" style="fill:#efefef;" /><rect x="542.38" y="1950.144" width="1624.602" height="108.307" style="fill:#d0d0d0;" /><rect x="2166.982" y="1950.144" width="974.761" height="541.534" style="fill:#efefef;" /><rect x="542.38" y="2058.451" width="1624.602" height="108.307" style="fill:#efefef;" /><rect x="542.38" y="2166.758" width="433.227" height="108.307" style="fill:#d0d0d0;" /><rect x="975.607" y="2166.758" width="1191.375" height="324.92" style="fill:#efefef;" /><rect x="3250.05" y="2166.758" width="108.307" height="433.227" style="fill:#141d70;" /><rect x="542.38" y="2275.064" width="433.227" height="216.614" style="fill:#efefef;" /><rect x="109.153" y="2491.678" width="216.614" height="108.307" style="fill:#1a27a1;" /><rect x="542.38" y="2491.678" width="2274.442" height="108.307" style="fill:#d0d0d0;" /><rect x="2816.823" y="2491.678" width="216.614" height="216.614" style="fill:#efefef;" /><rect x="3033.436" y="2491.678" width="108.307" height="216.614" style="fill:#e6e6e6;" /><rect x="3141.743" y="2491.678" width="108.307" height="324.92" style="fill:#141d70;" /><rect x="217.46" y="2599.985" width="108.307" height="216.614" style="fill:#1a27a1;" /><rect x="542.38" y="2599.985" width="2274.442" height="324.92" style="fill:#efefef;" /><rect x="325.767" y="2708.292" width="108.307" height="216.614" style="fill:#1a27a1;" /><rect x="434.073" y="2708.292" width="108.307" height="108.307" style="fill:#efefef;" /><rect x="2816.823" y="2708.292" width="108.307" height="108.307" style="fill:#efefef;" /><rect x="2925.129" y="2708.292" width="108.307" height="108.307" style="fill:#e6e6e6;" /><rect x="3033.436" y="2708.292" width="108.307" height="216.614" style="fill:#141d70;" /><rect x="434.073" y="2816.598" width="108.307" height="216.614" style="fill:#1a27a1;" /><rect x="2816.823" y="2816.598" width="108.307" height="108.307" style="fill:#e6e6e6;" /><rect x="2925.129" y="2816.598" width="108.307" height="216.614" style="fill:#141d70;" /><rect x="542.38" y="2924.905" width="108.307" height="216.614" style="fill:#1a27a1;" /><rect x="650.687" y="2924.905" width="2057.829" height="108.307" style="fill:#efefef;" /><rect x="2708.516" y="2924.905" width="108.307" height="108.307" style="fill:#e6e6e6;" /><rect x="2816.823" y="2924.905" width="108.307" height="216.614" style="fill:#141d70;" /><rect x="650.687" y="3033.212" width="108.307" height="216.614" style="fill:#1a27a1;" /><rect x="758.994" y="3033.212" width="1732.908" height="108.307" style="fill:#efefef;" /><rect x="2491.902" y="3033.212" width="216.614" height="108.307" style="fill:#e6e6e6;" /><rect x="2708.516" y="3033.212" width="108.307" height="216.614" style="fill:#141d70;" /><rect x="758.994" y="3141.519" width="216.614" height="108.307" style="fill:#1a27a1;" /><rect x="975.607" y="3141.519" width="1516.295" height="108.307" style="fill:#e6e6e6;" /><rect x="2491.902" y="3141.519" width="216.614" height="108.307" style="fill:#141d70;" /><rect x="867.301" y="3249.825" width="216.614" height="108.307" style="fill:#1a27a1;" /><rect x="1083.914" y="3249.825" width="1516.295" height="108.307" style="fill:#141d70;" /></svg>