<svg width="512" height="512" viewBox="0 0 512 512" fill="none" xmlns="http://www.w3.org/2000/svg">
<path fill-rule="evenodd" clip-rule="evenodd" d="M387.825 24.8203H421.063V41.5536H387.825V24.8203ZM420.834 41.325H437.568V58.0583H420.834V41.325ZM437.339 57.8297H454.072V74.563H437.339V57.8297ZM453.844 74.3344H470.577V91.0677H453.844V74.3344ZM470.349 90.839H487.082V124.077H470.349V90.839ZM486.853 123.848H503.586V140.582H486.853V123.848Z" fill="#1F0C00"/>
<path fill-rule="evenodd" clip-rule="evenodd" d="M140.255 41.325H107.246V57.8297H90.7413V74.3344H74.2366V90.839H57.7319V107.344H41.2272V140.353H24.7227V388.152H41.2272V421.161H57.7319V437.666H74.2366V454.17H90.7413V470.675L123.751 470.675V487.18H371.549V470.675H404.558V454.17H421.063V437.665H437.568V421.161H454.073V404.656H470.577V388.152H487.082V123.848H470.577V90.839H454.073V74.3344H437.568V57.8297H421.063V41.325H388.054V24.8203H140.255V41.325Z" fill="#1F0C00"/>
<path fill-rule="evenodd" clip-rule="evenodd" d="M107.246 272.39H90.7411V288.895H74.2365V305.4H57.7317V321.904H41.2271V355.142H57.7317V371.647H74.465V305.628H90.9697V289.124H107.474V272.619L107.246 272.39Z" fill="#EF8B23"/>
<path fill-rule="evenodd" clip-rule="evenodd" d="M123.75 255.886H107.246V272.39L107.474 272.619H123.979V256.114L123.75 255.886Z" fill="#EF8B23"/>
<path fill-rule="evenodd" clip-rule="evenodd" d="M173.265 206.372H206.274L206.503 206.6V223.105H173.493L173.265 222.876V206.372Z" fill="#EF8B23"/>
<path fill-rule="evenodd" clip-rule="evenodd" d="M222.778 57.8296H239.512V107.344L239.283 107.572H222.778V57.8296ZM255.788 124.077H239.283V107.572L239.512 107.344H256.016V123.848L255.788 124.077ZM123.75 156.858V140.353H255.788V124.077L256.016 123.848H272.521V157.086H256.016V173.591H223.007L223.007 206.6H206.503L206.274 206.372V190.095H107.246V173.591H90.7411V156.858H123.75Z" fill="#EF8B23"/>
<path fill-rule="evenodd" clip-rule="evenodd" d="M371.32 156.858H388.054V173.591H371.32V156.858Z" fill="#EF8B23"/>
<path fill-rule="evenodd" clip-rule="evenodd" d="M156.76 222.876V239.381H123.75V255.886L123.979 256.114L173.493 256.114V223.105L173.265 222.876H156.76Z" fill="#EF8B23"/>
<path fill-rule="evenodd" clip-rule="evenodd" d="M239.283 57.8296H256.016V74.3343H272.521V90.8388H289.026V107.344H305.53V123.848H322.035V140.353H355.044V156.858H371.549V173.362H404.558V189.867H421.063V206.6H404.558V222.876H421.063V239.381H437.568V256.114L421.063 255.886V272.39H437.568V305.628H421.063V338.637H404.558V355.142H388.054V371.647H371.549V388.151L288.797 388.152L255.788 388.151V371.647H239.283V355.142H206.274V338.637H189.769V272.619H173.493V289.124H156.988V305.628H140.484V322.133H123.979V338.637H107.474V355.142H74.2363V305.4H90.741V288.895H107.246V272.39H123.75V255.886H173.264V222.876H189.998V239.381H206.502V288.895H223.007V305.4H239.512V321.904H256.016V338.409H289.026V354.914H338.311V338.409H371.32V321.904H387.825V305.4H404.33V239.61H387.825V223.105H371.32V206.6H354.816V190.095H338.311V173.591L272.521 173.591V190.095H255.788V173.362H272.292V124.077H255.788V107.572H239.283V57.8296Z" fill="#E87D0D"/>
<path fill-rule="evenodd" clip-rule="evenodd" d="M123.75 156.858H156.988V173.591H123.75V156.858ZM189.769 156.858H206.502V173.591H189.769V156.858Z" fill="#E87D0D"/>
<path fill-rule="evenodd" clip-rule="evenodd" d="M321.807 123.848H338.54V140.582H321.807V123.848Z" fill="#E87D0D"/>
<path fill-rule="evenodd" clip-rule="evenodd" d="M486.853 140.353H503.586V355.142H486.853V140.353ZM123.75 486.951H322.035V503.684H123.75V486.951Z" fill="#1A0D00"/>
<path fill-rule="evenodd" clip-rule="evenodd" d="M255.788 156.858H272.521V173.362H322.035V190.096H289.026V206.6H255.788V189.867H272.292V173.591H255.788V156.858Z" fill="#E87D0D"/>
<path fill-rule="evenodd" clip-rule="evenodd" d="M189.998 156.858H156.76V173.591H189.998V156.858Z" fill="#E87D0D"/>
<path fill-rule="evenodd" clip-rule="evenodd" d="M206.274 156.858H223.007V173.362H222.778V173.591H206.274V156.858ZM321.807 173.362H338.54V189.867H338.311V190.096H321.807V173.362ZM338.311 190.096V206.6H355.044V189.867H338.54V190.096H338.311ZM420.834 255.886H437.568V272.619H420.834V255.886ZM420.834 321.904H437.568V338.637H420.834V321.904ZM404.33 354.914H421.063V371.647H404.33V354.914ZM371.32 371.418H388.054V388.152H371.32V371.418Z" fill="#E87D0D"/>
<path fill-rule="evenodd" clip-rule="evenodd" d="M223.007 289.124V239.61H239.512V223.105H256.016V173.362H223.007V173.591H222.778V206.372H206.274V222.876H189.769V239.61H206.274V289.124H223.007Z" fill="#E87D0D"/>
<path fill-rule="evenodd" clip-rule="evenodd" d="M288.797 189.867H338.539V206.6H288.797V189.867ZM255.788 206.372H272.521V223.105H255.788V206.372ZM354.816 206.372H371.549V223.105H354.816V206.372ZM239.283 222.876H256.016V239.61H239.283V222.876ZM222.778 239.381H239.512V305.628H222.778V239.381ZM387.825 239.381H404.558V305.628H387.825V239.381ZM239.283 305.4H256.016V322.133H239.283V305.4ZM371.32 305.4H388.054V322.133H371.32V305.4ZM354.816 321.904H371.549V338.638H354.816V321.904ZM288.797 338.409H338.539V355.142H288.797V338.409Z" fill="#F3F3F3"/>
<path fill-rule="evenodd" clip-rule="evenodd" d="M272.292 206.372H355.044V222.876H388.054V239.381V305.628H371.549V322.133H355.044V338.637L272.521 338.638H255.788V305.628H239.283V239.381H255.788V222.876H272.292V206.372ZM371.32 305.4V239.381L354.816 239.61V223.105H272.521V256.114H256.016V305.4H272.521V321.904H354.816V305.4H371.32Z" fill="#FBF9F9"/>
<path fill-rule="evenodd" clip-rule="evenodd" d="M437.568 338.409H404.33V354.914H387.825V387.923H272.292V404.656H388.053V388.152H404.558V355.142H437.568V338.409ZM388.053 388.152V387.923H387.825V388.152H388.053ZM404.558 355.142H404.33V354.914H404.558V355.142ZM239.512 354.914H222.778V371.647H239.283V388.152H256.016V371.418H239.512V354.914ZM239.512 371.418H239.283V371.647H239.512V371.418Z" fill="#E87D0D"/>
<path fill-rule="evenodd" clip-rule="evenodd" d="M437.339 322.133H454.072V239.381H437.568V239.61H437.339V305.461L420.834 305.4V322.133L437.339 322.133Z" fill="#E87D0D"/>
<path fill-rule="evenodd" clip-rule="evenodd" d="M437.568 206.372H404.33V222.876H420.834V239.61H437.339V239.381H437.568V222.876L437.568 206.372Z" fill="#E87D0D"/>
<path fill-rule="evenodd" clip-rule="evenodd" d="M404.33 206.372H437.568L437.568 222.876V239.381H437.339V239.61H420.834V222.876H404.33V206.372Z" fill="#E87D0D"/>
<path fill-rule="evenodd" clip-rule="evenodd" d="M272.293 222.876H289.026V239.61H272.293V222.876ZM338.311 222.876H355.045V239.61H338.311V222.876ZM354.816 239.381H371.549V256.114H354.816V239.381ZM255.788 288.895H272.521V305.628H255.788V288.895ZM354.816 288.895H371.549V305.628H354.816V288.895ZM272.293 305.4H289.026V322.133H272.293V305.4ZM338.311 305.4H355.045V322.133H338.311V305.4Z" fill="#E9E9E9"/>
<path fill-rule="evenodd" clip-rule="evenodd" d="M8.21777 338.409H24.9511V388.151H8.21777V338.409ZM24.7225 387.923H41.4558V421.161H24.7225V387.923ZM41.227 420.932H57.9603V437.666H41.227V420.932ZM57.7317 437.437H74.465V454.17H57.7317V437.437ZM74.2364 453.942H90.9697V470.675H74.2364V453.942ZM90.7411 470.446H123.979V487.18H90.7411V470.446Z" fill="#1F0C00"/>
<path fill-rule="evenodd" clip-rule="evenodd" d="M454.279 223.119H437.546V239.852H454.051L454.279 322.147H437.546V355.156H421.041V371.661H404.537L404.765 388.165H388.032V404.67H272.499V421.403H404.765V404.899H421.27V388.394H437.774V371.889H454.279V338.88H470.784V239.623H454.279V223.119Z" fill="#100000"/>
<path fill-rule="evenodd" clip-rule="evenodd" d="M289.004 223.119H305.737V256.357H289.232V289.366L255.995 289.366V256.128H272.499V239.623H289.004V223.119Z" fill="#100000"/>
<path fill-rule="evenodd" clip-rule="evenodd" d="M503.782 354.914H487.049V387.923H470.544V404.428H454.04V420.932H437.535V437.437H421.03V453.942H404.526V470.446H371.516V486.951H322.002V503.684H388.25V487.18L421.259 487.18V470.675H437.764V454.17H454.268V437.666H470.773V421.161H487.278V404.656H503.782V354.914Z" fill="#100000"/>
<path fill-rule="evenodd" clip-rule="evenodd" d="M255.788 387.923H272.521V404.656H255.788V387.923Z" fill="#E87D0D"/>
<path fill-rule="evenodd" clip-rule="evenodd" d="M140.484 25.049V41.5535H107.474V58.0582H90.9697V74.5629H74.465V91.0676H57.9603V107.572H41.4558V140.582H24.9511V338.638H8.21777V123.848H24.7225V90.8389H41.227V74.3343H57.7317V57.8296H74.2364V41.3249H90.7411V24.8202H123.75V8.31568L388.054 8.31567V25.049L140.484 25.049Z" fill="#4E1F02"/>
</svg>
