<svg width="512" height="512" viewBox="0 0 512 512" fill="none" xmlns="http://www.w3.org/2000/svg">
<path fill-rule="evenodd" clip-rule="evenodd" d="M396.456 16.5897H132.131V33.0957H99.1187V49.6017H66.1065V66.1078H49.6004V82.6139H33.0943V99.3486V115.626H16.5884V396.457H33.0943H33.3231V132.361H49.829V99.3486H66.3351V82.8425H82.8412V66.3364H115.853V49.8303H148.865V33.3244H396.456V33.0957V16.5897Z" fill="#CB333B"/>
<path fill-rule="evenodd" clip-rule="evenodd" d="M445.746 49.6017V66.1078V66.3364H445.974H462.481V49.6017H445.746Z" fill="#CB333B"/>
<path fill-rule="evenodd" clip-rule="evenodd" d="M363.215 495.494L346.938 495.494H330.203L247.902 495.494H247.673L231.396 495.494H165.143L148.865 495.494H148.637H132.359H132.131H115.853H115.625H99.1186V478.988H82.6125V462.253H99.1186V445.747H115.625V429.241H132.131V412.735H148.865V429.241H165.371V462.253H231.167V445.747H247.673V330.205H330.203V313.699H346.709V264.409H330.203V247.903H313.697V231.169H330.203V214.662H346.709V198.156H363.215V181.65H396.228V165.144H412.734V132.132H429.24V115.626H445.746V99.1199H462.252V82.614H495.493V379.952H478.987V412.964H462.48V429.47H445.974V445.976H429.468V462.482H412.962V478.988L396.456 478.988L396.228 478.988L379.95 478.988V495.494H363.444H363.215Z" fill="#418FDE"/>
<path fill-rule="evenodd" clip-rule="evenodd" d="M313.926 231.168H231.167V247.903H297.191V264.409H313.697V297.421H330.432V264.409V264.18V247.674H313.926V231.168Z" fill="white"/>
<path fill-rule="evenodd" clip-rule="evenodd" d="M379.95 99.1199H165.143V115.626H148.637V132.361V429.47H165.371V132.361H181.878V115.855H379.95V99.1199Z" fill="white"/>
<path fill-rule="evenodd" clip-rule="evenodd" d="M214.89 429.47H231.395V313.927H297.42H313.926V264.18H297.42V247.674H231.395V165.373H379.95V148.867H396.456V115.626H181.649V132.132H165.143V445.976H181.649H181.878H214.89V429.47Z" fill="#F5F5F5"/>
<path fill-rule="evenodd" clip-rule="evenodd" d="M412.962 132.132H396.228V148.638H379.722V165.144H363.216V181.879H379.722V165.144H379.95V181.879H396.456V165.373H412.962V132.132ZM396.456 165.373H396.228V148.638H396.456V165.373Z" fill="#2366AB"/>
<path fill-rule="evenodd" clip-rule="evenodd" d="M231.167 165.144H363.444V181.879H231.167V165.144ZM231.167 181.65H247.902V231.397H231.167V181.65Z" fill="#821D22"/>
<path fill-rule="evenodd" clip-rule="evenodd" d="M231.167 429.241H214.661V445.747H165.143V462.482H214.661V445.747H214.89V462.482H231.396V445.976H231.167V429.241Z" fill="#2366AB"/>
<path fill-rule="evenodd" clip-rule="evenodd" d="M247.902 330.433H231.167V429.241H231.396V445.976H247.902V330.433Z" fill="#2366AB"/>
<path fill-rule="evenodd" clip-rule="evenodd" d="M346.938 264.18H330.203V297.193H313.697V313.699H231.167V330.205H247.902V330.433H313.926H330.432V313.927H346.938V264.18Z" fill="#2366AB"/>
<path fill-rule="evenodd" clip-rule="evenodd" d="M33.0942 132.132V396.458L33.323 132.361H49.8289V99.3487H66.335V82.8426H82.8411V66.3365H115.853V49.8304H148.865V33.3245L396.456 33.0957H148.637V49.6018H115.625V66.1079H82.6125V82.614H66.1064V99.1199H49.6003V132.132H33.0942ZM445.974 66.1079L445.746 49.6018V66.1079H445.974Z" fill="#CB333B"/>
<path fill-rule="evenodd" clip-rule="evenodd" d="M330.432 231.397V214.891H346.938V198.385H363.444V181.65H247.673V231.397L280.685 231.397L330.432 231.397Z" fill="#CB333B"/>
<path fill-rule="evenodd" clip-rule="evenodd" d="M396.456 33.0957L148.865 33.3245V49.8304H115.853V66.3365H82.8411V82.8426H66.335V99.3487H49.8289V132.361H33.323L33.0942 396.458V429.47H49.6003V462.482H99.3472V445.976H115.853V429.47H132.359V412.964H148.865V115.855H165.371V99.3487H379.721V115.855H396.228V132.361H429.468V115.855H445.974V99.3487H462.48V82.8426H478.987V66.1079H445.974H445.746V49.6018H429.468V33.0957H396.456Z" fill="#CB333B"/>
</svg>
