<?xml version="1.0" encoding="UTF-8" ?>
<svg viewBox="0 0 32 32" version="1.1" width="512" height="512" xmlns="http://www.w3.org/2000/svg" shape-rendering="crispEdges">
<rect x="7" y="1" width="18" height="1" fill="#021B35" />
<rect x="5" y="2" width="3" height="1" fill="#021B35" />
<rect x="8" y="2" width="16" height="1" fill="#3481E8" />
<rect x="24" y="2" width="3" height="1" fill="#021B35" />
<rect x="4" y="3" width="2" height="1" fill="#021B35" />
<rect x="6" y="3" width="3" height="1" fill="#3481E8" />
<rect x="9" y="3" width="17" height="4" fill="#166ADA" />
<rect x="26" y="3" width="2" height="1" fill="#021B35" />
<rect x="3" y="4" width="2" height="1" fill="#021B35" />
<rect x="5" y="4" width="2" height="1" fill="#3481E8" />
<rect x="7" y="4" width="2" height="3" fill="#166ADA" />
<rect x="26" y="4" width="1" height="24" fill="#166ADA" />
<rect x="27" y="4" width="2" height="1" fill="#021B35" />
<rect x="2" y="5" width="2" height="1" fill="#021B35" />
<rect x="4" y="5" width="2" height="1" fill="#3481E8" />
<rect x="6" y="5" width="1" height="13" fill="#166ADA" />
<rect x="27" y="5" width="1" height="22" fill="#166ADA" />
<rect x="28" y="5" width="2" height="1" fill="#021B35" />
<rect x="2" y="6" width="1" height="2" fill="#021B35" />
<rect x="3" y="6" width="2" height="1" fill="#3481E8" />
<rect x="5" y="6" width="1" height="22" fill="#166ADA" />
<rect x="28" y="6" width="1" height="20" fill="#166ADA" />
<rect x="29" y="6" width="1" height="2" fill="#021B35" />
<rect x="1" y="7" width="1" height="18" fill="#021B35" />
<rect x="3" y="7" width="1" height="2" fill="#3481E8" />
<rect x="4" y="7" width="1" height="20" fill="#166ADA" />
<rect x="7" y="7" width="1" height="10" fill="#166ADA" />
<rect x="8" y="7" width="1" height="10" fill="#042348" />
<rect x="9" y="7" width="5" height="1" fill="#166ADA" />
<rect x="14" y="7" width="3" height="1" fill="#FFFFFF" />
<rect x="17" y="7" width="6" height="1" fill="#166ADA" />
<rect x="23" y="7" width="1" height="6" fill="#042348" />
<rect x="24" y="7" width="2" height="6" fill="#166ADA" />
<rect x="30" y="7" width="1" height="18" fill="#021B35" />
<rect x="2" y="8" width="1" height="16" fill="#3481E8" />
<rect x="9" y="8" width="4" height="9" fill="#166ADA" />
<rect x="13" y="8" width="1" height="3" fill="#FFFFFF" />
<rect x="14" y="8" width="4" height="3" fill="#B1D8FF" />
<rect x="18" y="8" width="5" height="5" fill="#166ADA" />
<rect x="29" y="8" width="1" height="16" fill="#166ADA" />
<rect x="3" y="9" width="1" height="17" fill="#166ADA" />
<rect x="13" y="11" width="1" height="19" fill="#166ADA" />
<rect x="14" y="11" width="3" height="1" fill="#B1D8FF" />
<rect x="17" y="11" width="1" height="19" fill="#166ADA" />
<rect x="14" y="12" width="1" height="18" fill="#166ADA" />
<rect x="15" y="12" width="1" height="13" fill="#042348" />
<rect x="16" y="12" width="1" height="18" fill="#166ADA" />
<rect x="18" y="13" width="4" height="1" fill="#166ADA" />
<rect x="22" y="13" width="3" height="1" fill="#FFFFFF" />
<rect x="25" y="13" width="1" height="1" fill="#166ADA" />
<rect x="18" y="14" width="3" height="16" fill="#166ADA" />
<rect x="21" y="14" width="2" height="1" fill="#FFFFFF" />
<rect x="23" y="14" width="3" height="3" fill="#B1D8FF" />
<rect x="21" y="15" width="1" height="2" fill="#FFFFFF" />
<rect x="22" y="15" width="1" height="3" fill="#B1D8FF" />
<rect x="7" y="17" width="3" height="1" fill="#FFFFFF" />
<rect x="10" y="17" width="3" height="1" fill="#166ADA" />
<rect x="21" y="17" width="1" height="13" fill="#166ADA" />
<rect x="23" y="17" width="2" height="1" fill="#B1D8FF" />
<rect x="25" y="17" width="1" height="12" fill="#166ADA" />
<rect x="6" y="18" width="2" height="1" fill="#FFFFFF" />
<rect x="8" y="18" width="3" height="3" fill="#B1D8FF" />
<rect x="11" y="18" width="2" height="12" fill="#166ADA" />
<rect x="22" y="18" width="1" height="12" fill="#166ADA" />
<rect x="23" y="18" width="1" height="7" fill="#042348" />
<rect x="24" y="18" width="1" height="11" fill="#166ADA" />
<rect x="6" y="19" width="1" height="2" fill="#FFFFFF" />
<rect x="7" y="19" width="1" height="3" fill="#B1D8FF" />
<rect x="6" y="21" width="1" height="8" fill="#166ADA" />
<rect x="8" y="21" width="2" height="1" fill="#B1D8FF" />
<rect x="10" y="21" width="1" height="9" fill="#166ADA" />
<rect x="7" y="22" width="1" height="7" fill="#166ADA" />
<rect x="8" y="22" width="1" height="3" fill="#042348" />
<rect x="9" y="22" width="1" height="8" fill="#166ADA" />
<rect x="2" y="24" width="1" height="3" fill="#021B35" />
<rect x="29" y="24" width="1" height="3" fill="#021B35" />
<rect x="8" y="25" width="1" height="5" fill="#166ADA" />
<rect x="15" y="25" width="1" height="5" fill="#166ADA" />
<rect x="23" y="25" width="1" height="5" fill="#166ADA" />
<rect x="3" y="26" width="1" height="2" fill="#021B35" />
<rect x="28" y="26" width="1" height="2" fill="#021B35" />
<rect x="4" y="27" width="1" height="2" fill="#021B35" />
<rect x="27" y="27" width="1" height="2" fill="#021B35" />
<rect x="5" y="28" width="1" height="2" fill="#021B35" />
<rect x="26" y="28" width="1" height="2" fill="#021B35" />
<rect x="6" y="29" width="2" height="1" fill="#021B35" />
<rect x="24" y="29" width="2" height="1" fill="#021B35" />
<rect x="7" y="30" width="18" height="1" fill="#021B35" />
</svg>