<?xml version="1.0" encoding="UTF-8" ?>
<svg viewBox="0 0 32 32" version="1.1" width="512" height="512" xmlns="http://www.w3.org/2000/svg" shape-rendering="crispEdges">
<rect x="7" y="1" width="18" height="1" fill="#FFFFFF" />
<rect x="5" y="2" width="3" height="1" fill="#FFFFFF" />
<rect x="8" y="2" width="16" height="1" fill="#2D2D2D" />
<rect x="24" y="2" width="3" height="1" fill="#FFFFFF" />
<rect x="4" y="3" width="2" height="1" fill="#FFFFFF" />
<rect x="6" y="3" width="3" height="1" fill="#2D2D2D" />
<rect x="9" y="3" width="14" height="1" fill="#FFFFFF" />
<rect x="23" y="3" width="3" height="1" fill="#2D2D2D" />
<rect x="26" y="3" width="2" height="1" fill="#FFFFFF" />
<rect x="3" y="4" width="2" height="1" fill="#FFFFFF" />
<rect x="5" y="4" width="2" height="1" fill="#2D2D2D" />
<rect x="7" y="4" width="3" height="1" fill="#FFFFFF" />
<rect x="10" y="4" width="15" height="2" fill="#F5F5F5" />
<rect x="25" y="4" width="2" height="1" fill="#2D2D2D" />
<rect x="27" y="4" width="2" height="1" fill="#FFFFFF" />
<rect x="2" y="5" width="2" height="1" fill="#FFFFFF" />
<rect x="4" y="5" width="2" height="1" fill="#2D2D2D" />
<rect x="6" y="5" width="2" height="1" fill="#FFFFFF" />
<rect x="8" y="5" width="2" height="23" fill="#F5F5F5" />
<rect x="25" y="5" width="1" height="22" fill="#F5F5F5" />
<rect x="26" y="5" width="2" height="1" fill="#2D2D2D" />
<rect x="28" y="5" width="2" height="1" fill="#FFFFFF" />
<rect x="2" y="6" width="1" height="2" fill="#FFFFFF" />
<rect x="3" y="6" width="2" height="1" fill="#2D2D2D" />
<rect x="5" y="6" width="2" height="1" fill="#FFFFFF" />
<rect x="7" y="6" width="1" height="22" fill="#F5F5F5" />
<rect x="10" y="6" width="1" height="1" fill="#F5F5F5" />
<rect x="11" y="6" width="11" height="1" fill="#CCCCCC" />
<rect x="22" y="6" width="3" height="1" fill="#F5F5F5" />
<rect x="26" y="6" width="1" height="20" fill="#F5F5F5" />
<rect x="27" y="6" width="2" height="1" fill="#2D2D2D" />
<rect x="29" y="6" width="1" height="2" fill="#FFFFFF" />
<rect x="1" y="7" width="1" height="18" fill="#FFFFFF" />
<rect x="3" y="7" width="1" height="2" fill="#2D2D2D" />
<rect x="4" y="7" width="2" height="1" fill="#FFFFFF" />
<rect x="6" y="7" width="1" height="20" fill="#F5F5F5" />
<rect x="10" y="7" width="2" height="1" fill="#CCCCCC" />
<rect x="12" y="7" width="9" height="1" fill="#D7D7D7" />
<rect x="21" y="7" width="2" height="1" fill="#CCCCCC" />
<rect x="23" y="7" width="2" height="21" fill="#F5F5F5" />
<rect x="27" y="7" width="1" height="18" fill="#F5F5F5" />
<rect x="28" y="7" width="1" height="2" fill="#2D2D2D" />
<rect x="30" y="7" width="1" height="18" fill="#FFFFFF" />
<rect x="2" y="8" width="1" height="16" fill="#2D2D2D" />
<rect x="4" y="8" width="1" height="2" fill="#FFFFFF" />
<rect x="5" y="8" width="1" height="18" fill="#F5F5F5" />
<rect x="10" y="8" width="1" height="1" fill="#A4A4A4" />
<rect x="11" y="8" width="5" height="1" fill="#CCCCCC" />
<rect x="16" y="8" width="1" height="16" fill="#D7D7D7" />
<rect x="17" y="8" width="5" height="1" fill="#CCCCCC" />
<rect x="22" y="8" width="1" height="1" fill="#A4A4A4" />
<rect x="29" y="8" width="1" height="16" fill="#2D2D2D" />
<rect x="3" y="9" width="1" height="14" fill="#FFFFFF" />
<rect x="10" y="9" width="1" height="14" fill="#F5F5F5" />
<rect x="11" y="9" width="4" height="1" fill="#A4A4A4" />
<rect x="15" y="9" width="1" height="14" fill="#CCCCCC" />
<rect x="17" y="9" width="1" height="14" fill="#CCCCCC" />
<rect x="18" y="9" width="4" height="1" fill="#A4A4A4" />
<rect x="22" y="9" width="1" height="14" fill="#F5F5F5" />
<rect x="28" y="9" width="1" height="14" fill="#F5F5F5" />
<rect x="4" y="10" width="1" height="15" fill="#F5F5F5" />
<rect x="11" y="10" width="4" height="12" fill="#F5F5F5" />
<rect x="18" y="10" width="4" height="12" fill="#F5F5F5" />
<rect x="11" y="22" width="4" height="1" fill="#CCCCCC" />
<rect x="18" y="22" width="4" height="1" fill="#CCCCCC" />
<rect x="3" y="23" width="1" height="3" fill="#2D2D2D" />
<rect x="10" y="23" width="2" height="1" fill="#CCCCCC" />
<rect x="12" y="23" width="4" height="1" fill="#D7D7D7" />
<rect x="17" y="23" width="4" height="1" fill="#D7D7D7" />
<rect x="21" y="23" width="2" height="1" fill="#CCCCCC" />
<rect x="28" y="23" width="1" height="3" fill="#2D2D2D" />
<rect x="2" y="24" width="1" height="3" fill="#FFFFFF" />
<rect x="10" y="24" width="1" height="1" fill="#A4A4A4" />
<rect x="11" y="24" width="11" height="1" fill="#CCCCCC" />
<rect x="22" y="24" width="1" height="1" fill="#A4A4A4" />
<rect x="29" y="24" width="1" height="3" fill="#FFFFFF" />
<rect x="4" y="25" width="1" height="2" fill="#2D2D2D" />
<rect x="10" y="25" width="1" height="4" fill="#F5F5F5" />
<rect x="11" y="25" width="11" height="1" fill="#A4A4A4" />
<rect x="22" y="25" width="1" height="4" fill="#F5F5F5" />
<rect x="27" y="25" width="1" height="2" fill="#2D2D2D" />
<rect x="3" y="26" width="1" height="2" fill="#FFFFFF" />
<rect x="5" y="26" width="1" height="2" fill="#2D2D2D" />
<rect x="11" y="26" width="11" height="3" fill="#F5F5F5" />
<rect x="26" y="26" width="1" height="2" fill="#2D2D2D" />
<rect x="28" y="26" width="1" height="2" fill="#FFFFFF" />
<rect x="4" y="27" width="1" height="2" fill="#FFFFFF" />
<rect x="6" y="27" width="1" height="2" fill="#2D2D2D" />
<rect x="25" y="27" width="1" height="2" fill="#2D2D2D" />
<rect x="27" y="27" width="1" height="2" fill="#FFFFFF" />
<rect x="5" y="28" width="1" height="2" fill="#FFFFFF" />
<rect x="7" y="28" width="2" height="1" fill="#2D2D2D" />
<rect x="9" y="28" width="1" height="1" fill="#F5F5F5" />
<rect x="23" y="28" width="2" height="1" fill="#2D2D2D" />
<rect x="26" y="28" width="1" height="2" fill="#FFFFFF" />
<rect x="6" y="29" width="2" height="1" fill="#FFFFFF" />
<rect x="8" y="29" width="16" height="1" fill="#2D2D2D" />
<rect x="24" y="29" width="2" height="1" fill="#FFFFFF" />
<rect x="7" y="30" width="18" height="1" fill="#FFFFFF" />
</svg>