<?xml version="1.0" encoding="UTF-8" ?>
<svg viewBox="0 0 32 32" version="1.1" width="512" height="512" xmlns="http://www.w3.org/2000/svg" shape-rendering="crispEdges">
<rect x="7" y="1" width="2" height="1" fill="#8C56C3" />
<rect x="9" y="1" width="15" height="1" fill="#9A4AEA" />
<rect x="24" y="1" width="1" height="2" fill="#8C56C3" />
<rect x="5" y="2" width="3" height="1" fill="#8C56C3" />
<rect x="8" y="2" width="16" height="1" fill="#05000B" />
<rect x="25" y="2" width="2" height="1" fill="#8C56C3" />
<rect x="4" y="3" width="2" height="1" fill="#8C56C3" />
<rect x="6" y="3" width="3" height="1" fill="#05000B" />
<rect x="9" y="3" width="14" height="3" fill="#17052A" />
<rect x="23" y="3" width="3" height="1" fill="#05000B" />
<rect x="26" y="3" width="2" height="1" fill="#8C56C3" />
<rect x="3" y="4" width="2" height="1" fill="#8C56C3" />
<rect x="5" y="4" width="2" height="1" fill="#05000B" />
<rect x="7" y="4" width="2" height="5" fill="#17052A" />
<rect x="23" y="4" width="2" height="5" fill="#17052A" />
<rect x="25" y="4" width="2" height="1" fill="#05000B" />
<rect x="27" y="4" width="2" height="1" fill="#8C56C3" />
<rect x="2" y="5" width="2" height="1" fill="#8C56C3" />
<rect x="4" y="5" width="2" height="1" fill="#05000B" />
<rect x="6" y="5" width="1" height="5" fill="#17052A" />
<rect x="25" y="5" width="1" height="5" fill="#17052A" />
<rect x="26" y="5" width="2" height="1" fill="#05000B" />
<rect x="28" y="5" width="2" height="1" fill="#9A4AEA" />
<rect x="2" y="6" width="1" height="2" fill="#8C56C3" />
<rect x="3" y="6" width="2" height="1" fill="#05000B" />
<rect x="5" y="6" width="1" height="5" fill="#17052A" />
<rect x="9" y="6" width="3" height="1" fill="#17052A" />
<rect x="12" y="6" width="8" height="1" fill="#B670FB" />
<rect x="20" y="6" width="3" height="1" fill="#17052A" />
<rect x="26" y="6" width="1" height="5" fill="#17052A" />
<rect x="27" y="6" width="2" height="1" fill="#05000B" />
<rect x="29" y="6" width="1" height="2" fill="#9A4AEA" />
<rect x="1" y="7" width="1" height="1" fill="#8C56C3" />
<rect x="3" y="7" width="1" height="3" fill="#05000B" />
<rect x="4" y="7" width="1" height="18" fill="#17052A" />
<rect x="9" y="7" width="1" height="1" fill="#17052A" />
<rect x="10" y="7" width="2" height="1" fill="#B670FB" />
<rect x="12" y="7" width="8" height="1" fill="#F7EFFF" />
<rect x="20" y="7" width="2" height="1" fill="#B670FB" />
<rect x="22" y="7" width="1" height="1" fill="#17052A" />
<rect x="27" y="7" width="1" height="4" fill="#17052A" />
<rect x="28" y="7" width="1" height="2" fill="#05000B" />
<rect x="30" y="7" width="1" height="3" fill="#9A4AEA" />
<rect x="1" y="8" width="1" height="15" fill="#9650DE" />
<rect x="2" y="8" width="1" height="16" fill="#05000B" />
<rect x="9" y="8" width="1" height="2" fill="#B670FB" />
<rect x="10" y="8" width="2" height="1" fill="#F7EFFF" />
<rect x="12" y="8" width="8" height="1" fill="#E5CBFF" />
<rect x="20" y="8" width="2" height="1" fill="#F7EFFF" />
<rect x="22" y="8" width="1" height="2" fill="#B670FB" />
<rect x="29" y="8" width="1" height="16" fill="#05000B" />
<rect x="7" y="9" width="2" height="1" fill="#B670FB" />
<rect x="10" y="9" width="1" height="2" fill="#F7EFFF" />
<rect x="11" y="9" width="2" height="1" fill="#E5CBFF" />
<rect x="13" y="9" width="6" height="1" fill="#D3A6FF" />
<rect x="19" y="9" width="2" height="1" fill="#E5CBFF" />
<rect x="21" y="9" width="1" height="1" fill="#F7EFFF" />
<rect x="23" y="9" width="2" height="1" fill="#B670FB" />
<rect x="28" y="9" width="1" height="14" fill="#17052A" />
<rect x="3" y="10" width="1" height="13" fill="#17052A" />
<rect x="6" y="10" width="1" height="1" fill="#B670FB" />
<rect x="7" y="10" width="2" height="1" fill="#F7EFFF" />
<rect x="9" y="10" width="1" height="1" fill="#5D1FA2" />
<rect x="11" y="10" width="1" height="3" fill="#E5CBFF" />
<rect x="12" y="10" width="2" height="1" fill="#D3A6FF" />
<rect x="14" y="10" width="4" height="1" fill="#BA75FF" />
<rect x="18" y="10" width="2" height="1" fill="#D3A6FF" />
<rect x="20" y="10" width="2" height="1" fill="#E5CBFF" />
<rect x="22" y="10" width="1" height="1" fill="#5D1FA2" />
<rect x="23" y="10" width="2" height="1" fill="#F7EFFF" />
<rect x="25" y="10" width="1" height="1" fill="#B670FB" />
<rect x="30" y="10" width="1" height="13" fill="#9650DE" />
<rect x="5" y="11" width="1" height="4" fill="#B670FB" />
<rect x="6" y="11" width="1" height="4" fill="#F7EFFF" />
<rect x="7" y="11" width="3" height="1" fill="#E5CBFF" />
<rect x="10" y="11" width="1" height="2" fill="#5D1FA2" />
<rect x="12" y="11" width="1" height="4" fill="#D3A6FF" />
<rect x="13" y="11" width="2" height="1" fill="#BA75FF" />
<rect x="15" y="11" width="2" height="8" fill="#B164FF" />
<rect x="17" y="11" width="2" height="1" fill="#BA75FF" />
<rect x="19" y="11" width="2" height="2" fill="#D3A6FF" />
<rect x="21" y="11" width="1" height="2" fill="#5D1FA2" />
<rect x="22" y="11" width="3" height="1" fill="#E5CBFF" />
<rect x="25" y="11" width="1" height="4" fill="#F7EFFF" />
<rect x="26" y="11" width="1" height="4" fill="#B670FB" />
<rect x="27" y="11" width="1" height="5" fill="#0D0119" />
<rect x="7" y="12" width="1" height="4" fill="#E5CBFF" />
<rect x="8" y="12" width="2" height="5" fill="#B164FF" />
<rect x="13" y="12" width="1" height="6" fill="#BA75FF" />
<rect x="14" y="12" width="1" height="5" fill="#B164FF" />
<rect x="17" y="12" width="1" height="5" fill="#B164FF" />
<rect x="18" y="12" width="1" height="6" fill="#BA75FF" />
<rect x="22" y="12" width="2" height="5" fill="#B164FF" />
<rect x="24" y="12" width="1" height="4" fill="#E5CBFF" />
<rect x="10" y="13" width="1" height="6" fill="#B164FF" />
<rect x="11" y="13" width="1" height="2" fill="#5D1FA2" />
<rect x="19" y="13" width="1" height="2" fill="#D3A6FF" />
<rect x="20" y="13" width="1" height="2" fill="#5D1FA2" />
<rect x="21" y="13" width="1" height="6" fill="#B164FF" />
<rect x="5" y="15" width="2" height="11" fill="#17052A" />
<rect x="11" y="15" width="1" height="5" fill="#B164FF" />
<rect x="12" y="15" width="1" height="3" fill="#5D1FA2" />
<rect x="19" y="15" width="1" height="3" fill="#5D1FA2" />
<rect x="20" y="15" width="1" height="5" fill="#B164FF" />
<rect x="25" y="15" width="1" height="1" fill="#5D1FA2" />
<rect x="26" y="15" width="1" height="2" fill="#0D0119" />
<rect x="7" y="16" width="1" height="1" fill="#5D1FA2" />
<rect x="24" y="16" width="1" height="1" fill="#5D1FA2" />
<rect x="25" y="16" width="1" height="2" fill="#0D0119" />
<rect x="27" y="16" width="1" height="9" fill="#17052A" />
<rect x="7" y="17" width="1" height="11" fill="#17052A" />
<rect x="8" y="17" width="1" height="1" fill="#5D1FA2" />
<rect x="9" y="17" width="1" height="1" fill="#B164FF" />
<rect x="14" y="17" width="1" height="3" fill="#BA75FF" />
<rect x="17" y="17" width="1" height="3" fill="#BA75FF" />
<rect x="22" y="17" width="1" height="1" fill="#B164FF" />
<rect x="23" y="17" width="1" height="1" fill="#5D1FA2" />
<rect x="24" y="17" width="1" height="2" fill="#0D0119" />
<rect x="26" y="17" width="1" height="9" fill="#17052A" />
<rect x="8" y="18" width="1" height="6" fill="#17052A" />
<rect x="9" y="18" width="1" height="1" fill="#5D1FA2" />
<rect x="12" y="18" width="1" height="1" fill="#B164FF" />
<rect x="13" y="18" width="1" height="2" fill="#5D1FA2" />
<rect x="18" y="18" width="1" height="2" fill="#5D1FA2" />
<rect x="19" y="18" width="1" height="1" fill="#B164FF" />
<rect x="22" y="18" width="1" height="1" fill="#5D1FA2" />
<rect x="23" y="18" width="1" height="2" fill="#0D0119" />
<rect x="25" y="18" width="1" height="9" fill="#17052A" />
<rect x="9" y="19" width="1" height="4" fill="#17052A" />
<rect x="10" y="19" width="1" height="1" fill="#5D1FA2" />
<rect x="12" y="19" width="1" height="2" fill="#9F4FF0" />
<rect x="15" y="19" width="2" height="6" fill="#9F4FF0" />
<rect x="19" y="19" width="1" height="2" fill="#9F4FF0" />
<rect x="21" y="19" width="1" height="1" fill="#5D1FA2" />
<rect x="22" y="19" width="1" height="2" fill="#0D0119" />
<rect x="24" y="19" width="1" height="5" fill="#17052A" />
<rect x="10" y="20" width="1" height="3" fill="#17052A" />
<rect x="11" y="20" width="1" height="1" fill="#5D1FA2" />
<rect x="13" y="20" width="1" height="2" fill="#9F4FF0" />
<rect x="14" y="20" width="1" height="1" fill="#5D1FA2" />
<rect x="17" y="20" width="1" height="1" fill="#5D1FA2" />
<rect x="18" y="20" width="1" height="2" fill="#9F4FF0" />
<rect x="20" y="20" width="1" height="1" fill="#5D1FA2" />
<rect x="21" y="20" width="1" height="2" fill="#0D0119" />
<rect x="23" y="20" width="1" height="3" fill="#17052A" />
<rect x="11" y="21" width="1" height="2" fill="#17052A" />
<rect x="12" y="21" width="1" height="1" fill="#5D1FA2" />
<rect x="14" y="21" width="1" height="4" fill="#9F4FF0" />
<rect x="17" y="21" width="1" height="4" fill="#9F4FF0" />
<rect x="19" y="21" width="1" height="1" fill="#5D1FA2" />
<rect x="20" y="21" width="1" height="2" fill="#0D0119" />
<rect x="22" y="21" width="1" height="1" fill="#17052A" />
<rect x="12" y="22" width="1" height="1" fill="#17052A" />
<rect x="13" y="22" width="1" height="1" fill="#5D1FA2" />
<rect x="18" y="22" width="1" height="1" fill="#5D1FA2" />
<rect x="19" y="22" width="1" height="1" fill="#0D0119" />
<rect x="21" y="22" width="2" height="1" fill="#0C0C0C" />
<rect x="1" y="23" width="1" height="2" fill="#8538E1" />
<rect x="3" y="23" width="1" height="3" fill="#05000B" />
<rect x="9" y="23" width="3" height="1" fill="#7631C5" />
<rect x="12" y="23" width="1" height="1" fill="#5D1FA2" />
<rect x="13" y="23" width="1" height="2" fill="#9F4FF0" />
<rect x="18" y="23" width="1" height="2" fill="#9F4FF0" />
<rect x="19" y="23" width="2" height="1" fill="#5D1FA2" />
<rect x="21" y="23" width="2" height="1" fill="#7631C5" />
<rect x="23" y="23" width="1" height="1" fill="#0C0C0C" />
<rect x="28" y="23" width="1" height="3" fill="#05000B" />
<rect x="30" y="23" width="1" height="2" fill="#8B44DF" />
<rect x="2" y="24" width="1" height="3" fill="#8538E1" />
<rect x="8" y="24" width="1" height="1" fill="#7631C5" />
<rect x="9" y="24" width="4" height="1" fill="#9F4FF0" />
<rect x="19" y="24" width="4" height="1" fill="#9F4FF0" />
<rect x="23" y="24" width="1" height="1" fill="#7631C5" />
<rect x="24" y="24" width="1" height="2" fill="#0C0C0C" />
<rect x="29" y="24" width="1" height="3" fill="#8B44DF" />
<rect x="4" y="25" width="1" height="2" fill="#05000B" />
<rect x="8" y="25" width="1" height="3" fill="#17052A" />
<rect x="9" y="25" width="14" height="1" fill="#8B44D3" />
<rect x="23" y="25" width="1" height="2" fill="#0C0C0C" />
<rect x="27" y="25" width="1" height="2" fill="#05000B" />
<rect x="3" y="26" width="1" height="2" fill="#8F39F6" />
<rect x="5" y="26" width="1" height="2" fill="#05000B" />
<rect x="6" y="26" width="1" height="1" fill="#17052A" />
<rect x="9" y="26" width="1" height="2" fill="#17052A" />
<rect x="10" y="26" width="13" height="1" fill="#0C0C0C" />
<rect x="24" y="26" width="1" height="2" fill="#17052A" />
<rect x="26" y="26" width="1" height="2" fill="#05000B" />
<rect x="28" y="26" width="1" height="2" fill="#8B44DF" />
<rect x="4" y="27" width="1" height="2" fill="#8F39F6" />
<rect x="6" y="27" width="1" height="2" fill="#05000B" />
<rect x="10" y="27" width="14" height="1" fill="#17052A" />
<rect x="25" y="27" width="1" height="2" fill="#05000B" />
<rect x="27" y="27" width="1" height="2" fill="#8B44DF" />
<rect x="5" y="28" width="1" height="2" fill="#8F39F6" />
<rect x="7" y="28" width="3" height="1" fill="#05000B" />
<rect x="10" y="28" width="13" height="1" fill="#17052A" />
<rect x="23" y="28" width="2" height="1" fill="#05000B" />
<rect x="26" y="28" width="1" height="2" fill="#8B44DF" />
<rect x="6" y="29" width="2" height="1" fill="#8C56C3" />
<rect x="8" y="29" width="16" height="1" fill="#05000B" />
<rect x="24" y="29" width="2" height="1" fill="#8B44DF" />
<rect x="7" y="30" width="18" height="1" fill="#8F39F6" />
</svg>