<?xml version='1.0' encoding='utf-8'?>
<svg xmlns="http://www.w3.org/2000/svg" viewBox="0 0 3357.692 3357.5939999999996" width="512" height="512" version="1.1" xml:space="preserve" style="fill-rule:evenodd;clip-rule:evenodd;stroke-linejoin:round;stroke-miterlimit:2;"><rect x="866.636" y="108.391" width="1732.908" height="108.307" style="fill:#ff8181;" /><rect x="650.023" y="216.697" width="324.92" height="108.307" style="fill:#ff8181;" /><rect x="974.943" y="216.697" width="1841.215" height="758.147" style="fill:#e33636;" /><rect x="433.409" y="325.004" width="324.92" height="108.307" style="fill:#ff8181;" /><rect x="758.329" y="325.004" width="216.614" height="649.841" style="fill:#e33636;" /><rect x="2816.158" y="325.004" width="216.614" height="2491.056" style="fill:#e33636;" /><rect x="325.102" y="433.311" width="216.614" height="108.307" style="fill:#ff8181;" /><rect x="541.716" y="433.311" width="216.614" height="2707.67" style="fill:#e33636;" /><rect x="3032.772" y="433.311" width="108.307" height="2274.442" style="fill:#e33636;" /><rect x="216.795" y="541.618" width="216.614" height="108.307" style="fill:#ff8181;" /><rect x="433.409" y="541.618" width="108.307" height="2599.363" style="fill:#e33636;" /><rect x="3141.079" y="541.618" width="108.307" height="1949.522" style="fill:#e33636;" /><rect x="216.795" y="649.925" width="108.307" height="216.614" style="fill:#ff8181;" /><rect x="325.102" y="649.925" width="108.307" height="2274.442" style="fill:#e33636;" /><rect x="108.489" y="758.231" width="108.307" height="1841.215" style="fill:#ff8181;" /><rect x="3249.385" y="758.231" width="108.307" height="1841.215" style="fill:#8b2020;" /><rect x="216.795" y="866.538" width="108.307" height="1949.522" style="fill:#e33636;" /><rect x="758.329" y="974.845" width="108.307" height="108.307" style="fill:#e33636;" /><rect x="866.636" y="974.845" width="324.92" height="541.534" style="fill:#fff;" /><rect x="1191.556" y="974.845" width="108.307" height="108.307" style="fill:#3e0000;" /><rect x="1299.863" y="974.845" width="758.147" height="108.307" style="fill:#e33636;" /><rect x="2058.011" y="974.845" width="433.227" height="649.841" style="fill:#fff;" /><rect x="2491.238" y="974.845" width="324.92" height="108.307" style="fill:#e33636;" /><rect x="758.329" y="1083.152" width="108.307" height="324.92" style="fill:#fff;" /><rect x="1191.556" y="1083.152" width="108.307" height="1083.068" style="fill:#fff;" /><rect x="1299.863" y="1083.152" width="108.307" height="324.92" style="fill:#3e0000;" /><rect x="1408.17" y="1083.152" width="541.534" height="324.92" style="fill:#e33636;" /><rect x="1949.704" y="1083.152" width="108.307" height="324.92" style="fill:#fff;" /><rect x="2491.238" y="1083.152" width="108.307" height="433.227" style="fill:#fff;" /><rect x="2599.545" y="1083.152" width="108.307" height="541.534" style="fill:#3e0000;" /><rect x="2707.851" y="1083.152" width="108.307" height="1949.522" style="fill:#e33636;" /><rect x="758.329" y="1408.072" width="108.307" height="1841.215" style="fill:#e33636;" /><rect x="1299.863" y="1408.072" width="108.307" height="866.454" style="fill:#fff;" /><rect x="1408.17" y="1408.072" width="108.307" height="216.614" style="fill:#3e0000;" /><rect x="1516.477" y="1408.072" width="541.534" height="216.614" style="fill:#e33636;" /><rect x="866.636" y="1516.379" width="108.307" height="1732.908" style="fill:#e33636;" /><rect x="974.943" y="1516.379" width="216.614" height="216.614" style="fill:#fff;" /><rect x="2491.238" y="1516.379" width="108.307" height="216.614" style="fill:#3e0000;" /><rect x="1408.17" y="1624.686" width="108.307" height="866.454" style="fill:#fff;" /><rect x="1516.477" y="1624.686" width="108.307" height="216.614" style="fill:#3e0000;" /><rect x="1624.784" y="1624.686" width="324.92" height="216.614" style="fill:#e33636;" /><rect x="1949.704" y="1624.686" width="433.227" height="108.307" style="fill:#fff;" /><rect x="2382.931" y="1624.686" width="108.307" height="216.614" style="fill:#3e0000;" /><rect x="2599.545" y="1624.686" width="108.307" height="1516.295" style="fill:#e33636;" /><rect x="974.943" y="1732.992" width="108.307" height="1516.295" style="fill:#e33636;" /><rect x="1083.25" y="1732.992" width="108.307" height="216.614" style="fill:#fff;" /><rect x="1949.704" y="1732.992" width="324.92" height="216.614" style="fill:#fff;" /><rect x="2274.624" y="1732.992" width="108.307" height="324.92" style="fill:#3e0000;" /><rect x="2491.238" y="1732.992" width="108.307" height="1407.988" style="fill:#e33636;" /><rect x="1516.477" y="1841.299" width="108.307" height="758.147" style="fill:#fff;" /><rect x="1624.784" y="1841.299" width="108.307" height="108.307" style="fill:#3e0000;" /><rect x="1733.09" y="1841.299" width="108.307" height="108.307" style="fill:#e33636;" /><rect x="1841.397" y="1841.299" width="108.307" height="649.841" style="fill:#fff;" /><rect x="2382.931" y="1841.299" width="108.307" height="1407.988" style="fill:#e33636;" /><rect x="1083.25" y="1949.606" width="108.307" height="1299.681" style="fill:#e33636;" /><rect x="1624.784" y="1949.606" width="216.614" height="649.841" style="fill:#fff;" /><rect x="1949.704" y="1949.606" width="216.614" height="108.307" style="fill:#fff;" /><rect x="2166.317" y="1949.606" width="108.307" height="216.614" style="fill:#3e0000;" /><rect x="1949.704" y="2057.913" width="108.307" height="216.614" style="fill:#fff;" /><rect x="2058.011" y="2057.913" width="108.307" height="324.92" style="fill:#3e0000;" /><rect x="2274.624" y="2057.913" width="108.307" height="1191.375" style="fill:#e33636;" /><rect x="1191.556" y="2166.22" width="108.307" height="1083.068" style="fill:#e33636;" /><rect x="2166.317" y="2166.22" width="108.307" height="1083.068" style="fill:#e33636;" /><rect x="1299.863" y="2274.526" width="108.307" height="974.761" style="fill:#e33636;" /><rect x="1949.704" y="2274.526" width="108.307" height="324.92" style="fill:#3e0000;" /><rect x="2058.011" y="2382.833" width="108.307" height="866.454" style="fill:#e33636;" /><rect x="1408.17" y="2491.14" width="108.307" height="758.147" style="fill:#e33636;" /><rect x="1841.397" y="2491.14" width="108.307" height="216.614" style="fill:#3e0000;" /><rect x="3141.079" y="2491.14" width="108.307" height="324.92" style="fill:#8b2020;" /><rect x="1516.477" y="2599.447" width="324.92" height="108.307" style="fill:#3e0000;" /><rect x="1949.704" y="2599.447" width="108.307" height="649.841" style="fill:#e33636;" /><rect x="1516.477" y="2707.753" width="433.227" height="541.534" style="fill:#e33636;" /><rect x="3032.772" y="2707.753" width="108.307" height="216.614" style="fill:#8b2020;" /><rect x="2816.158" y="2816.06" width="108.307" height="108.307" style="fill:#e33636;" /><rect x="2924.465" y="2816.06" width="108.307" height="216.614" style="fill:#8b2020;" /><rect x="2816.158" y="2924.367" width="108.307" height="216.614" style="fill:#8b2020;" /><rect x="2707.851" y="3032.674" width="108.307" height="216.614" style="fill:#8b2020;" /><rect x="650.023" y="3140.981" width="108.307" height="108.307" style="fill:#e33636;" /><rect x="2491.238" y="3140.981" width="216.614" height="108.307" style="fill:#8b2020;" /><rect x="866.636" y="3249.287" width="1732.908" height="108.307" style="fill:#8b2020;" /></svg>