<?xml version='1.0' encoding='utf-8'?>
<svg xmlns="http://www.w3.org/2000/svg" viewBox="0 0 3357.7400000000002 3358.0589999999997" width="512" height="512" version="1.1" xml:space="preserve" style="fill-rule:evenodd;clip-rule:evenodd;stroke-linejoin:round;stroke-miterlimit:2;"><rect x="866.684" y="108.856" width="1732.908" height="433.227" style="fill:#fff;" /><rect x="650.07" y="217.162" width="216.614" height="1949.522" style="fill:#fff;" /><rect x="2599.593" y="217.162" width="216.614" height="1841.215" style="fill:#fff;" /><rect x="433.457" y="325.469" width="216.614" height="2057.829" style="fill:#fff;" /><rect x="2816.206" y="325.469" width="216.614" height="1949.522" style="fill:#fff;" /><rect x="325.15" y="433.776" width="108.307" height="2274.442" style="fill:#fff;" /><rect x="3032.82" y="433.776" width="108.307" height="2274.442" style="fill:#fff;" /><rect x="216.843" y="542.083" width="108.307" height="1949.522" style="fill:#fff;" /><rect x="866.684" y="542.083" width="758.147" height="108.307" style="fill:#fff;" /><rect x="1624.831" y="542.083" width="108.307" height="216.614" style="fill:#90c2ff;" /><rect x="1733.138" y="542.083" width="216.614" height="108.307" style="fill:#a4cdff;" /><rect x="1949.752" y="542.083" width="649.841" height="108.307" style="fill:#fff;" /><rect x="3141.126" y="542.083" width="108.307" height="1949.522" style="fill:#fff;" /><rect x="866.684" y="650.389" width="649.841" height="108.307" style="fill:#fff;" /><rect x="1516.525" y="650.389" width="108.307" height="216.614" style="fill:#90c2ff;" /><rect x="1733.138" y="650.389" width="108.307" height="108.307" style="fill:#90c2ff;" /><rect x="1841.445" y="650.389" width="108.307" height="108.307" style="fill:#73b3ff;" /><rect x="1949.752" y="650.389" width="108.307" height="108.307" style="fill:#70b1ff;" /><rect x="2058.059" y="650.389" width="541.534" height="108.307" style="fill:#fff;" /><rect x="108.537" y="758.696" width="108.307" height="1732.908" style="fill:#f9f9f9;" /><rect x="866.684" y="758.696" width="541.534" height="216.614" style="fill:#fff;" /><rect x="1408.218" y="758.696" width="108.307" height="108.307" style="fill:#90c2ff;" /><rect x="1624.831" y="758.696" width="108.307" height="108.307" style="fill:#73b3ff;" /><rect x="1733.138" y="758.696" width="108.307" height="108.307" style="fill:#70b1ff;" /><rect x="1841.445" y="758.696" width="108.307" height="108.307" style="fill:#6cafff;" /><rect x="1949.752" y="758.696" width="108.307" height="108.307" style="fill:#69aeff;" /><rect x="2058.059" y="758.696" width="108.307" height="108.307" style="fill:#66acff;" /><rect x="2166.365" y="758.696" width="433.227" height="216.614" style="fill:#fff;" /><rect x="3249.433" y="758.696" width="108.307" height="1732.908" style="fill:#f9f9f9;" /><rect x="1408.218" y="867.003" width="108.307" height="108.307" style="fill:#8cc1ff;" /><rect x="1516.525" y="867.003" width="108.307" height="108.307" style="fill:#70b1ff;" /><rect x="1624.831" y="867.003" width="108.307" height="108.307" style="fill:#6cafff;" /><rect x="1733.138" y="867.003" width="108.307" height="108.307" style="fill:#69aeff;" /><rect x="1841.445" y="867.003" width="108.307" height="108.307" style="fill:#66acff;" /><rect x="1949.752" y="867.003" width="108.307" height="108.307" style="fill:#62aaff;" /><rect x="2058.059" y="867.003" width="108.307" height="108.307" style="fill:#5fa8ff;" /><rect x="866.684" y="975.31" width="433.227" height="433.227" style="fill:#fff;" /><rect x="1299.911" y="975.31" width="108.307" height="108.307" style="fill:#8abfff;" /><rect x="1408.218" y="975.31" width="108.307" height="108.307" style="fill:#87bdff;" /><rect x="1516.525" y="975.31" width="108.307" height="108.307" style="fill:#69aeff;" /><rect x="1624.831" y="975.31" width="108.307" height="108.307" style="fill:#66acff;" /><rect x="1733.138" y="975.31" width="108.307" height="108.307" style="fill:#62aaff;" /><rect x="1841.445" y="975.31" width="108.307" height="108.307" style="fill:#5fa8ff;" /><rect x="1949.752" y="975.31" width="108.307" height="108.307" style="fill:#5ba7ff;" /><rect x="2058.059" y="975.31" width="108.307" height="108.307" style="fill:#58a5ff;" /><rect x="2166.365" y="975.31" width="108.307" height="108.307" style="fill:#55a3ff;" /><rect x="2274.672" y="975.31" width="324.92" height="433.227" style="fill:#fff;" /><rect x="1299.911" y="1083.617" width="108.307" height="108.307" style="fill:#84bcff;" /><rect x="1408.218" y="1083.617" width="108.307" height="108.307" style="fill:#66acff;" /><rect x="1516.525" y="1083.617" width="108.307" height="108.307" style="fill:#62aaff;" /><rect x="1624.831" y="1083.617" width="108.307" height="108.307" style="fill:#5fa8ff;" /><rect x="1733.138" y="1083.617" width="108.307" height="108.307" style="fill:#5ba7ff;" /><rect x="1841.445" y="1083.617" width="108.307" height="108.307" style="fill:#58a5ff;" /><rect x="1949.752" y="1083.617" width="108.307" height="108.307" style="fill:#55a3ff;" /><rect x="2058.059" y="1083.617" width="108.307" height="108.307" style="fill:#51a1ff;" /><rect x="2166.365" y="1083.617" width="108.307" height="108.307" style="fill:#4ea0ff;" /><rect x="1299.911" y="1191.923" width="108.307" height="108.307" style="fill:#7eb9ff;" /><rect x="1408.218" y="1191.923" width="108.307" height="108.307" style="fill:#5fa8ff;" /><rect x="1516.525" y="1191.923" width="108.307" height="108.307" style="fill:#5ba7ff;" /><rect x="1624.831" y="1191.923" width="108.307" height="108.307" style="fill:#58a5ff;" /><rect x="1733.138" y="1191.923" width="108.307" height="108.307" style="fill:#55a3ff;" /><rect x="1841.445" y="1191.923" width="108.307" height="108.307" style="fill:#51a1ff;" /><rect x="1949.752" y="1191.923" width="108.307" height="108.307" style="fill:#4ea0ff;" /><rect x="2058.059" y="1191.923" width="108.307" height="108.307" style="fill:#4a9eff;" /><rect x="2166.365" y="1191.923" width="108.307" height="108.307" style="fill:#479cff;" /><rect x="1299.911" y="1300.23" width="108.307" height="108.307" style="fill:#79b7ff;" /><rect x="1408.218" y="1300.23" width="108.307" height="108.307" style="fill:#58a5ff;" /><rect x="1516.525" y="1300.23" width="108.307" height="108.307" style="fill:#55a3ff;" /><rect x="1624.831" y="1300.23" width="108.307" height="108.307" style="fill:#51a1ff;" /><rect x="1733.138" y="1300.23" width="108.307" height="108.307" style="fill:#4ea0ff;" /><rect x="1841.445" y="1300.23" width="108.307" height="108.307" style="fill:#4a9eff;" /><rect x="1949.752" y="1300.23" width="108.307" height="108.307" style="fill:#479cff;" /><rect x="2058.059" y="1300.23" width="108.307" height="108.307" style="fill:#449aff;" /><rect x="2166.365" y="1300.23" width="108.307" height="108.307" style="fill:#4099ff;" /><rect x="866.684" y="1408.537" width="324.92" height="216.614" style="fill:#fff;" /><rect x="1191.604" y="1408.537" width="108.307" height="108.307" style="fill:#76b5ff;" /><rect x="1299.911" y="1408.537" width="108.307" height="108.307" style="fill:#74b3ff;" /><rect x="1408.218" y="1408.537" width="108.307" height="108.307" style="fill:#51a1ff;" /><rect x="1516.525" y="1408.537" width="108.307" height="108.307" style="fill:#4ea0ff;" /><rect x="1624.831" y="1408.537" width="108.307" height="108.307" style="fill:#4a9eff;" /><rect x="1733.138" y="1408.537" width="108.307" height="108.307" style="fill:#479cff;" /><rect x="1841.445" y="1408.537" width="108.307" height="108.307" style="fill:#449aff;" /><rect x="1949.752" y="1408.537" width="108.307" height="108.307" style="fill:#4099ff;" /><rect x="2058.059" y="1408.537" width="108.307" height="108.307" style="fill:#3d97ff;" /><rect x="2166.365" y="1408.537" width="108.307" height="108.307" style="fill:#3995ff;" /><rect x="2274.672" y="1408.537" width="108.307" height="108.307" style="fill:#3693ff;" /><rect x="2382.979" y="1408.537" width="216.614" height="216.614" style="fill:#fff;" /><rect x="1191.604" y="1516.844" width="108.307" height="108.307" style="fill:#71b2ff;" /><rect x="1299.911" y="1516.844" width="108.307" height="108.307" style="fill:#4ea0ff;" /><rect x="1408.218" y="1516.844" width="108.307" height="108.307" style="fill:#4a9eff;" /><rect x="1516.525" y="1516.844" width="108.307" height="108.307" style="fill:#479cff;" /><rect x="1624.831" y="1516.844" width="108.307" height="108.307" style="fill:#449aff;" /><rect x="1733.138" y="1516.844" width="108.307" height="108.307" style="fill:#4099ff;" /><rect x="1841.445" y="1516.844" width="108.307" height="108.307" style="fill:#3d97ff;" /><rect x="1949.752" y="1516.844" width="108.307" height="108.307" style="fill:#3995ff;" /><rect x="2058.059" y="1516.844" width="108.307" height="108.307" style="fill:#3693ff;" /><rect x="2166.365" y="1516.844" width="108.307" height="108.307" style="fill:#3392ff;" /><rect x="2274.672" y="1516.844" width="108.307" height="108.307" style="fill:#2f90ff;" /><rect x="866.684" y="1625.15" width="216.614" height="216.614" style="fill:#fff;" /><rect x="1083.298" y="1625.15" width="108.307" height="108.307" style="fill:#6eb1ff;" /><rect x="1191.604" y="1625.15" width="108.307" height="108.307" style="fill:#6bafff;" /><rect x="1299.911" y="1625.15" width="108.307" height="108.307" style="fill:#479cff;" /><rect x="1408.218" y="1625.15" width="108.307" height="108.307" style="fill:#449aff;" /><rect x="1516.525" y="1625.15" width="108.307" height="108.307" style="fill:#4099ff;" /><rect x="1624.831" y="1625.15" width="108.307" height="108.307" style="fill:#3d97ff;" /><rect x="1733.138" y="1625.15" width="108.307" height="108.307" style="fill:#3995ff;" /><rect x="1841.445" y="1625.15" width="108.307" height="108.307" style="fill:#3693ff;" /><rect x="1949.752" y="1625.15" width="108.307" height="108.307" style="fill:#3392ff;" /><rect x="2058.059" y="1625.15" width="108.307" height="108.307" style="fill:#2f90ff;" /><rect x="2166.365" y="1625.15" width="108.307" height="108.307" style="fill:#2c8eff;" /><rect x="2274.672" y="1625.15" width="108.307" height="108.307" style="fill:#288cff;" /><rect x="2382.979" y="1625.15" width="108.307" height="108.307" style="fill:#258bff;" /><rect x="2491.286" y="1625.15" width="108.307" height="216.614" style="fill:#fff;" /><rect x="1083.298" y="1733.457" width="108.307" height="108.307" style="fill:#68aeff;" /><rect x="1191.604" y="1733.457" width="108.307" height="108.307" style="fill:#449aff;" /><rect x="1299.911" y="1733.457" width="108.307" height="108.307" style="fill:#4099ff;" /><rect x="1408.218" y="1733.457" width="108.307" height="108.307" style="fill:#3d97ff;" /><rect x="1516.525" y="1733.457" width="108.307" height="108.307" style="fill:#3995ff;" /><rect x="1624.831" y="1733.457" width="324.92" height="108.307" style="fill:#efefef;" /><rect x="1949.752" y="1733.457" width="108.307" height="108.307" style="fill:#2c8eff;" /><rect x="2058.059" y="1733.457" width="108.307" height="108.307" style="fill:#288cff;" /><rect x="2166.365" y="1733.457" width="108.307" height="108.307" style="fill:#258bff;" /><rect x="2274.672" y="1733.457" width="108.307" height="108.307" style="fill:#2289ff;" /><rect x="2382.979" y="1733.457" width="108.307" height="108.307" style="fill:#1e87ff;" /><rect x="866.684" y="1841.764" width="108.307" height="216.614" style="fill:#fff;" /><rect x="974.991" y="1841.764" width="108.307" height="108.307" style="fill:#66acff;" /><rect x="1083.298" y="1841.764" width="108.307" height="108.307" style="fill:#63abff;" /><rect x="1191.604" y="1841.764" width="108.307" height="108.307" style="fill:#3d97ff;" /><rect x="1299.911" y="1841.764" width="108.307" height="108.307" style="fill:#3995ff;" /><rect x="1408.218" y="1841.764" width="108.307" height="108.307" style="fill:#3693ff;" /><rect x="1516.525" y="1841.764" width="216.614" height="108.307" style="fill:#efefef;" /><rect x="1733.138" y="1841.764" width="108.307" height="1407.988" style="fill:#fff;" /><rect x="1841.445" y="1841.764" width="216.614" height="108.307" style="fill:#efefef;" /><rect x="2058.059" y="1841.764" width="108.307" height="108.307" style="fill:#2289ff;" /><rect x="2166.365" y="1841.764" width="108.307" height="108.307" style="fill:#1e87ff;" /><rect x="2274.672" y="1841.764" width="108.307" height="108.307" style="fill:#1b85ff;" /><rect x="2382.979" y="1841.764" width="108.307" height="108.307" style="fill:#1784ff;" /><rect x="2491.286" y="1841.764" width="108.307" height="108.307" style="fill:#1482ff;" /><rect x="974.991" y="1950.071" width="108.307" height="108.307" style="fill:#60aaff;" /><rect x="1083.298" y="1950.071" width="108.307" height="108.307" style="fill:#3995ff;" /><rect x="1191.604" y="1950.071" width="108.307" height="108.307" style="fill:#3693ff;" /><rect x="1299.911" y="1950.071" width="108.307" height="108.307" style="fill:#3392ff;" /><rect x="1408.218" y="1950.071" width="108.307" height="108.307" style="fill:#2f90ff;" /><rect x="1516.525" y="1950.071" width="108.307" height="216.614" style="fill:#efefef;" /><rect x="1624.831" y="1950.071" width="108.307" height="1299.681" style="fill:#fff;" /><rect x="1841.445" y="1950.071" width="108.307" height="1299.681" style="fill:#fff;" /><rect x="1949.752" y="1950.071" width="108.307" height="216.614" style="fill:#efefef;" /><rect x="2058.059" y="1950.071" width="108.307" height="108.307" style="fill:#1b85ff;" /><rect x="2166.365" y="1950.071" width="108.307" height="108.307" style="fill:#1784ff;" /><rect x="2274.672" y="1950.071" width="108.307" height="108.307" style="fill:#1482ff;" /><rect x="2382.979" y="1950.071" width="108.307" height="108.307" style="fill:#1180ff;" /><rect x="2491.286" y="1950.071" width="108.307" height="108.307" style="fill:#0d7eff;" /><rect x="866.684" y="2058.378" width="108.307" height="108.307" style="fill:#5da8ff;" /><rect x="974.991" y="2058.378" width="108.307" height="108.307" style="fill:#5ba6ff;" /><rect x="1083.298" y="2058.378" width="108.307" height="108.307" style="fill:#3392ff;" /><rect x="1191.604" y="2058.378" width="108.307" height="108.307" style="fill:#2f90ff;" /><rect x="1299.911" y="2058.378" width="108.307" height="108.307" style="fill:#2c8eff;" /><rect x="1408.218" y="2058.378" width="108.307" height="216.614" style="fill:#efefef;" /><rect x="2058.059" y="2058.378" width="108.307" height="216.614" style="fill:#efefef;" /><rect x="2166.365" y="2058.378" width="108.307" height="108.307" style="fill:#1180ff;" /><rect x="2274.672" y="2058.378" width="108.307" height="108.307" style="fill:#0d7eff;" /><rect x="2382.979" y="2058.378" width="108.307" height="108.307" style="fill:#0a7dff;" /><rect x="2491.286" y="2058.378" width="108.307" height="108.307" style="fill:#067bff;" /><rect x="2599.593" y="2058.378" width="108.307" height="108.307" style="fill:#0379ff;" /><rect x="2707.899" y="2058.378" width="108.307" height="108.307" style="fill:#fff;" /><rect x="650.07" y="2166.684" width="108.307" height="108.307" style="fill:#fff;" /><rect x="758.377" y="2166.684" width="108.307" height="108.307" style="fill:#5ba6ff;" /><rect x="866.684" y="2166.684" width="108.307" height="108.307" style="fill:#58a6ff;" /><rect x="974.991" y="2166.684" width="108.307" height="108.307" style="fill:#2f90ff;" /><rect x="1083.298" y="2166.684" width="108.307" height="108.307" style="fill:#2c8eff;" /><rect x="1191.604" y="2166.684" width="108.307" height="108.307" style="fill:#288cff;" /><rect x="1299.911" y="2166.684" width="108.307" height="216.614" style="fill:#efefef;" /><rect x="1516.525" y="2166.684" width="108.307" height="1083.068" style="fill:#fff;" /><rect x="1949.752" y="2166.684" width="108.307" height="1083.068" style="fill:#fff;" /><rect x="2166.365" y="2166.684" width="108.307" height="216.614" style="fill:#efefef;" /><rect x="2274.672" y="2166.684" width="108.307" height="108.307" style="fill:#067bff;" /><rect x="2382.979" y="2166.684" width="108.307" height="108.307" style="fill:#0379ff;" /><rect x="2491.286" y="2166.684" width="324.92" height="216.614" style="fill:#0078ff;" /><rect x="650.07" y="2274.991" width="108.307" height="108.307" style="fill:#58a6ff;" /><rect x="758.377" y="2274.991" width="108.307" height="108.307" style="fill:#55a4ff;" /><rect x="866.684" y="2274.991" width="108.307" height="108.307" style="fill:#2c8eff;" /><rect x="974.991" y="2274.991" width="108.307" height="108.307" style="fill:#288cff;" /><rect x="1083.298" y="2274.991" width="108.307" height="108.307" style="fill:#258bff;" /><rect x="1191.604" y="2274.991" width="108.307" height="216.614" style="fill:#efefef;" /><rect x="1408.218" y="2274.991" width="108.307" height="974.761" style="fill:#fff;" /><rect x="2058.059" y="2274.991" width="108.307" height="974.761" style="fill:#fff;" /><rect x="2274.672" y="2274.991" width="108.307" height="216.614" style="fill:#efefef;" /><rect x="2382.979" y="2274.991" width="108.307" height="108.307" style="fill:#0078ff;" /><rect x="2816.206" y="2274.991" width="108.307" height="324.92" style="fill:#0078ff;" /><rect x="2924.513" y="2274.991" width="108.307" height="108.307" style="fill:#fff;" /><rect x="433.457" y="2383.298" width="108.307" height="433.227" style="fill:#fff;" /><rect x="541.764" y="2383.298" width="108.307" height="108.307" style="fill:#55a4ff;" /><rect x="650.07" y="2383.298" width="108.307" height="108.307" style="fill:#52a2ff;" /><rect x="758.377" y="2383.298" width="108.307" height="108.307" style="fill:#288cff;" /><rect x="866.684" y="2383.298" width="108.307" height="108.307" style="fill:#258bff;" /><rect x="974.991" y="2383.298" width="216.614" height="108.307" style="fill:#efefef;" /><rect x="1299.911" y="2383.298" width="108.307" height="866.454" style="fill:#fff;" /><rect x="2166.365" y="2383.298" width="108.307" height="866.454" style="fill:#fff;" /><rect x="2382.979" y="2383.298" width="216.614" height="108.307" style="fill:#efefef;" /><rect x="2599.593" y="2383.298" width="216.614" height="108.307" style="fill:#0078ff;" /><rect x="2924.513" y="2383.298" width="108.307" height="216.614" style="fill:#0078ff;" /><rect x="108.537" y="2491.605" width="216.614" height="108.307" style="fill:#efefef;" /><rect x="541.764" y="2491.605" width="108.307" height="108.307" style="fill:#4fa1ff;" /><rect x="650.07" y="2491.605" width="108.307" height="108.307" style="fill:#258bff;" /><rect x="758.377" y="2491.605" width="108.307" height="108.307" style="fill:#2289ff;" /><rect x="866.684" y="2491.605" width="216.614" height="108.307" style="fill:#efefef;" /><rect x="1083.298" y="2491.605" width="216.614" height="758.147" style="fill:#fff;" /><rect x="2274.672" y="2491.605" width="216.614" height="758.147" style="fill:#fff;" /><rect x="2491.286" y="2491.605" width="216.614" height="108.307" style="fill:#efefef;" /><rect x="2707.899" y="2491.605" width="108.307" height="108.307" style="fill:#0078ff;" /><rect x="3141.126" y="2491.605" width="216.614" height="108.307" style="fill:#efefef;" /><rect x="216.843" y="2599.911" width="108.307" height="216.614" style="fill:#efefef;" /><rect x="541.764" y="2599.911" width="433.227" height="108.307" style="fill:#efefef;" /><rect x="974.991" y="2599.911" width="108.307" height="649.841" style="fill:#fff;" /><rect x="2491.286" y="2599.911" width="108.307" height="541.534" style="fill:#fff;" /><rect x="2599.593" y="2599.911" width="433.227" height="108.307" style="fill:#efefef;" /><rect x="3141.126" y="2599.911" width="108.307" height="216.614" style="fill:#efefef;" /><rect x="325.15" y="2708.218" width="108.307" height="216.614" style="fill:#efefef;" /><rect x="541.764" y="2708.218" width="433.227" height="324.92" style="fill:#fff;" /><rect x="2599.593" y="2708.218" width="433.227" height="108.307" style="fill:#fff;" /><rect x="3032.82" y="2708.218" width="108.307" height="216.614" style="fill:#efefef;" /><rect x="433.457" y="2816.525" width="108.307" height="324.92" style="fill:#efefef;" /><rect x="2599.593" y="2816.525" width="324.92" height="108.307" style="fill:#fff;" /><rect x="2924.513" y="2816.525" width="108.307" height="216.614" style="fill:#efefef;" /><rect x="2599.593" y="2924.832" width="216.614" height="108.307" style="fill:#fff;" /><rect x="2816.206" y="2924.832" width="108.307" height="216.614" style="fill:#efefef;" /><rect x="541.764" y="3033.139" width="216.614" height="108.307" style="fill:#efefef;" /><rect x="758.377" y="3033.139" width="216.614" height="108.307" style="fill:#fff;" /><rect x="2599.593" y="3033.139" width="108.307" height="108.307" style="fill:#fff;" /><rect x="2707.899" y="3033.139" width="108.307" height="216.614" style="fill:#efefef;" /><rect x="650.07" y="3141.445" width="324.92" height="108.307" style="fill:#efefef;" /><rect x="2491.286" y="3141.445" width="216.614" height="108.307" style="fill:#efefef;" /><rect x="866.684" y="3249.752" width="1732.908" height="108.307" style="fill:#bdbdbd;" /></svg>