<?xml version='1.0' encoding='utf-8'?>
<svg xmlns="http://www.w3.org/2000/svg" viewBox="0 0 3357.671 3357.673" width="512" height="512" version="1.1" xml:space="preserve" style="fill-rule:evenodd;clip-rule:evenodd;stroke-linejoin:round;stroke-miterlimit:2;"><rect x="866.615" y="108.47" width="1732.908" height="108.307" style="fill:#767676;" /><rect x="650.001" y="216.776" width="324.92" height="108.307" style="fill:#767676;" /><rect x="974.921" y="216.776" width="1516.295" height="433.227" style="fill:#0e0e0e;" /><rect x="2491.216" y="216.776" width="324.92" height="108.307" style="fill:#767676;" /><rect x="433.388" y="325.083" width="108.307" height="216.614" style="fill:#5c5c5c;" /><rect x="541.694" y="325.083" width="216.614" height="108.307" style="fill:#767676;" /><rect x="758.308" y="325.083" width="216.614" height="866.454" style="fill:#0e0e0e;" /><rect x="2491.216" y="325.083" width="216.614" height="758.147" style="fill:#0e0e0e;" /><rect x="2707.83" y="325.083" width="324.92" height="108.307" style="fill:#767676;" /><rect x="325.081" y="433.39" width="108.307" height="216.614" style="fill:#5c5c5c;" /><rect x="541.694" y="433.39" width="216.614" height="758.147" style="fill:#0e0e0e;" /><rect x="2707.83" y="433.39" width="216.614" height="649.841" style="fill:#0e0e0e;" /><rect x="2924.443" y="433.39" width="216.614" height="108.307" style="fill:#5c5c5c;" /><rect x="216.774" y="541.697" width="108.307" height="324.92" style="fill:#5c5c5c;" /><rect x="433.388" y="541.697" width="108.307" height="974.761" style="fill:#0e0e0e;" /><rect x="2924.443" y="541.697" width="108.307" height="866.454" style="fill:#0e0e0e;" /><rect x="3032.75" y="541.697" width="216.614" height="108.307" style="fill:#5c5c5c;" /><rect x="325.081" y="650.003" width="108.307" height="974.761" style="fill:#0e0e0e;" /><rect x="974.921" y="650.003" width="541.534" height="216.614" style="fill:#0e0e0e;" /><rect x="1516.455" y="650.003" width="108.307" height="108.307" style="fill:#4674ff;" /><rect x="1624.762" y="650.003" width="108.307" height="108.307" style="fill:#4169e1;" /><rect x="1733.069" y="650.003" width="758.147" height="216.614" style="fill:#0e0e0e;" /><rect x="3032.75" y="650.003" width="108.307" height="866.454" style="fill:#0e0e0e;" /><rect x="3141.057" y="650.003" width="108.307" height="216.614" style="fill:#5c5c5c;" /><rect x="108.467" y="758.31" width="108.307" height="216.614" style="fill:#5c5c5c;" /><rect x="1516.455" y="758.31" width="216.614" height="108.307" style="fill:#f3f3f3;" /><rect x="3249.364" y="758.31" width="108.307" height="216.614" style="fill:#5c5c5c;" /><rect x="216.774" y="866.617" width="108.307" height="1624.602" style="fill:#0e0e0e;" /><rect x="974.921" y="866.617" width="433.227" height="108.307" style="fill:#0e0e0e;" /><rect x="1408.149" y="866.617" width="216.614" height="108.307" style="fill:#f3f3f3;" /><rect x="1624.762" y="866.617" width="216.614" height="541.534" style="fill:#e9e9e9;" /><rect x="1841.376" y="866.617" width="649.841" height="108.307" style="fill:#0e0e0e;" /><rect x="3141.057" y="866.617" width="108.307" height="758.147" style="fill:#0e0e0e;" /><rect x="108.467" y="974.924" width="108.307" height="866.454" style="fill:#484848;" /><rect x="974.921" y="974.924" width="324.92" height="108.307" style="fill:#0e0e0e;" /><rect x="1299.842" y="974.924" width="216.614" height="108.307" style="fill:#f3f3f3;" /><rect x="1516.455" y="974.924" width="108.307" height="433.227" style="fill:#e9e9e9;" /><rect x="1841.376" y="974.924" width="108.307" height="433.227" style="fill:#e9e9e9;" /><rect x="1949.682" y="974.924" width="541.534" height="108.307" style="fill:#0e0e0e;" /><rect x="3249.364" y="974.924" width="108.307" height="866.454" style="fill:#484848;" /><rect x="974.921" y="1083.231" width="216.614" height="433.227" style="fill:#0e0e0e;" /><rect x="1191.535" y="1083.231" width="216.614" height="324.92" style="fill:#f3f3f3;" /><rect x="1408.149" y="1083.231" width="108.307" height="324.92" style="fill:#e9e9e9;" /><rect x="1949.682" y="1083.231" width="108.307" height="2166.136" style="fill:#e9e9e9;" /><rect x="2057.989" y="1083.231" width="324.92" height="324.92" style="fill:#0e0e0e;" /><rect x="2382.91" y="1083.231" width="541.534" height="108.307" style="fill:#fff;" /><rect x="541.694" y="1191.537" width="108.307" height="216.614" style="fill:#0e0e0e;" /><rect x="650.001" y="1191.537" width="216.614" height="108.307" style="fill:#b2ff34;" /><rect x="866.615" y="1191.537" width="108.307" height="216.614" style="fill:#0e0e0e;" /><rect x="2382.91" y="1191.537" width="108.307" height="108.307" style="fill:#fff;" /><rect x="2491.216" y="1191.537" width="433.227" height="108.307" style="fill:#e9e9e9;" /><rect x="650.001" y="1299.844" width="108.307" height="216.614" style="fill:#ffe495;" /><rect x="758.308" y="1299.844" width="108.307" height="216.614" style="fill:#ffbe00;" /><rect x="2382.91" y="1299.844" width="541.534" height="108.307" style="fill:#ff4141;" /><rect x="541.694" y="1408.151" width="108.307" height="216.614" style="fill:#ffe495;" /><rect x="866.615" y="1408.151" width="108.307" height="216.614" style="fill:#ffbe00;" /><rect x="1191.535" y="1408.151" width="108.307" height="1841.215" style="fill:#f3f3f3;" /><rect x="1299.842" y="1408.151" width="108.307" height="324.92" style="fill:#4674ff;" /><rect x="1408.149" y="1408.151" width="541.534" height="324.92" style="fill:#4169e1;" /><rect x="2057.989" y="1408.151" width="216.614" height="108.307" style="fill:#0e0e0e;" /><rect x="2274.603" y="1408.151" width="216.614" height="108.307" style="fill:#ff4141;" /><rect x="2491.216" y="1408.151" width="324.92" height="541.534" style="fill:#eb3434;" /><rect x="2816.137" y="1408.151" width="216.614" height="108.307" style="fill:#d12121;" /><rect x="433.388" y="1516.458" width="108.307" height="216.614" style="fill:#ffe495;" /><rect x="650.001" y="1516.458" width="216.614" height="1516.295" style="fill:#ffcb34;" /><rect x="974.921" y="1516.458" width="108.307" height="216.614" style="fill:#ffbe00;" /><rect x="1083.228" y="1516.458" width="108.307" height="108.307" style="fill:#0e0e0e;" /><rect x="2057.989" y="1516.458" width="108.307" height="108.307" style="fill:#0e0e0e;" /><rect x="2166.296" y="1516.458" width="216.614" height="108.307" style="fill:#ff4141;" /><rect x="2382.91" y="1516.458" width="108.307" height="433.227" style="fill:#eb3434;" /><rect x="2816.137" y="1516.458" width="108.307" height="433.227" style="fill:#eb3434;" /><rect x="2924.443" y="1516.458" width="216.614" height="108.307" style="fill:#d12121;" /><rect x="325.081" y="1624.765" width="108.307" height="1083.068" style="fill:#ffe495;" /><rect x="541.694" y="1624.765" width="108.307" height="1407.988" style="fill:#ffcb34;" /><rect x="866.615" y="1624.765" width="108.307" height="1516.295" style="fill:#ffcb34;" /><rect x="1083.228" y="1624.765" width="108.307" height="1624.602" style="fill:#ffbe00;" /><rect x="2057.989" y="1624.765" width="216.614" height="108.307" style="fill:#ff4141;" /><rect x="2274.603" y="1624.765" width="108.307" height="1624.602" style="fill:#eb3434;" /><rect x="2924.443" y="1624.765" width="108.307" height="1191.375" style="fill:#eb3434;" /><rect x="3032.75" y="1624.765" width="216.614" height="108.307" style="fill:#d12121;" /><rect x="433.388" y="1733.071" width="108.307" height="1083.068" style="fill:#ffcb34;" /><rect x="974.921" y="1733.071" width="108.307" height="1516.295" style="fill:#ffcb34;" /><rect x="1299.842" y="1733.071" width="108.307" height="1516.295" style="fill:#f3f3f3;" /><rect x="1408.149" y="1733.071" width="541.534" height="1516.295" style="fill:#e9e9e9;" /><rect x="2057.989" y="1733.071" width="108.307" height="1516.295" style="fill:#ff4141;" /><rect x="2166.296" y="1733.071" width="108.307" height="1516.295" style="fill:#eb3434;" /><rect x="3032.75" y="1733.071" width="108.307" height="974.761" style="fill:#eb3434;" /><rect x="3141.057" y="1733.071" width="108.307" height="758.147" style="fill:#d12121;" /><rect x="108.467" y="1841.378" width="108.307" height="758.147" style="fill:#404040;" /><rect x="3249.364" y="1841.378" width="108.307" height="758.147" style="fill:#404040;" /><rect x="2382.91" y="1949.685" width="541.534" height="216.614" style="fill:#f96a6a;" /><rect x="2382.91" y="2166.298" width="541.534" height="758.147" style="fill:#eb3434;" /><rect x="216.774" y="2491.219" width="108.307" height="324.92" style="fill:#404040;" /><rect x="3141.057" y="2491.219" width="108.307" height="324.92" style="fill:#404040;" /><rect x="325.081" y="2707.832" width="108.307" height="216.614" style="fill:#404040;" /><rect x="3032.75" y="2707.832" width="108.307" height="216.614" style="fill:#404040;" /><rect x="433.388" y="2816.139" width="108.307" height="324.92" style="fill:#404040;" /><rect x="2924.443" y="2816.139" width="108.307" height="216.614" style="fill:#404040;" /><rect x="2382.91" y="2924.446" width="433.227" height="108.307" style="fill:#eb3434;" /><rect x="2816.137" y="2924.446" width="108.307" height="216.614" style="fill:#404040;" /><rect x="541.694" y="3032.753" width="216.614" height="108.307" style="fill:#404040;" /><rect x="758.308" y="3032.753" width="108.307" height="108.307" style="fill:#ffcb34;" /><rect x="2382.91" y="3032.753" width="324.92" height="108.307" style="fill:#eb3434;" /><rect x="2707.83" y="3032.753" width="108.307" height="108.307" style="fill:#404040;" /><rect x="650.001" y="3141.059" width="324.92" height="108.307" style="fill:#121212;" /><rect x="2382.91" y="3141.059" width="108.307" height="108.307" style="fill:#eb3434;" /><rect x="2491.216" y="3141.059" width="324.92" height="108.307" style="fill:#121212;" /><rect x="866.615" y="3249.366" width="1732.908" height="108.307" style="fill:#121212;" /></svg>