<?xml version='1.0' encoding='utf-8'?>
<svg xmlns="http://www.w3.org/2000/svg" viewBox="0 0 3358.2459999999996 3357.6569999999997" width="512" height="512" version="1.1" xml:space="preserve" style="fill-rule:evenodd;clip-rule:evenodd;stroke-linejoin:round;stroke-miterlimit:2;"><rect x="867.19" y="108.454" width="1732.908" height="108.307" style="fill:#6176ed;" /><rect x="650.576" y="216.76" width="324.92" height="108.307" style="fill:#6176ed;" /><rect x="975.496" y="216.76" width="1841.215" height="541.534" style="fill:#3342a5;" /><rect x="433.962" y="325.067" width="324.92" height="108.307" style="fill:#6176ed;" /><rect x="758.883" y="325.067" width="216.614" height="2924.283" style="fill:#3342a5;" /><rect x="2816.712" y="325.067" width="216.614" height="2491.056" style="fill:#3342a5;" /><rect x="325.656" y="433.374" width="216.614" height="108.307" style="fill:#6176ed;" /><rect x="542.269" y="433.374" width="216.614" height="2707.67" style="fill:#3342a5;" /><rect x="3033.325" y="433.374" width="108.307" height="2274.442" style="fill:#3342a5;" /><rect x="217.349" y="541.681" width="216.614" height="108.307" style="fill:#6176ed;" /><rect x="433.962" y="541.681" width="108.307" height="2599.363" style="fill:#3342a5;" /><rect x="3141.632" y="541.681" width="108.307" height="1949.522" style="fill:#3342a5;" /><rect x="217.349" y="649.988" width="108.307" height="216.614" style="fill:#6176ed;" /><rect x="325.656" y="649.988" width="108.307" height="2274.442" style="fill:#3342a5;" /><rect x="109.042" y="758.294" width="108.307" height="1841.215" style="fill:#6176ed;" /><rect x="975.496" y="758.294" width="216.614" height="108.307" style="fill:#3342a5;" /><rect x="1192.11" y="758.294" width="108.307" height="108.307" style="fill:#1a245e;" /><rect x="1300.417" y="758.294" width="1191.375" height="541.534" style="fill:#f3f5ff;" /><rect x="2491.791" y="758.294" width="324.92" height="108.307" style="fill:#3342a5;" /><rect x="3249.939" y="758.294" width="108.307" height="1841.215" style="fill:#1a245e;" /><rect x="217.349" y="866.601" width="108.307" height="1949.522" style="fill:#3342a5;" /><rect x="975.496" y="866.601" width="108.307" height="2382.749" style="fill:#3342a5;" /><rect x="1083.803" y="866.601" width="108.307" height="2057.829" style="fill:#1a245e;" /><rect x="1192.11" y="866.601" width="108.307" height="1949.522" style="fill:#f3f5ff;" /><rect x="2491.791" y="866.601" width="108.307" height="324.92" style="fill:#f3f5ff;" /><rect x="2600.098" y="866.601" width="216.614" height="2166.136" style="fill:#3342a5;" /><rect x="2491.791" y="1191.521" width="108.307" height="1949.522" style="fill:#3342a5;" /><rect x="1300.417" y="1299.828" width="433.227" height="1516.295" style="fill:#f3f5ff;" /><rect x="1733.644" y="1299.828" width="758.147" height="324.92" style="fill:#3342a5;" /><rect x="1733.644" y="1624.749" width="108.307" height="108.307" style="fill:#3342a5;" /><rect x="1841.951" y="1624.749" width="324.92" height="541.534" style="fill:#f3f5ff;" /><rect x="2166.871" y="1624.749" width="324.92" height="108.307" style="fill:#3342a5;" /><rect x="1733.644" y="1733.055" width="108.307" height="324.92" style="fill:#f3f5ff;" /><rect x="2166.871" y="1733.055" width="108.307" height="324.92" style="fill:#f3f5ff;" /><rect x="2275.178" y="1733.055" width="216.614" height="1516.295" style="fill:#3342a5;" /><rect x="1733.644" y="2057.976" width="108.307" height="108.307" style="fill:#1a245e;" /><rect x="2166.871" y="2057.976" width="108.307" height="1191.375" style="fill:#3342a5;" /><rect x="1733.644" y="2166.282" width="108.307" height="1083.068" style="fill:#3342a5;" /><rect x="1841.951" y="2166.282" width="324.92" height="108.307" style="fill:#1a245e;" /><rect x="1841.951" y="2274.589" width="324.92" height="974.761" style="fill:#3342a5;" /><rect x="3141.632" y="2491.203" width="108.307" height="324.92" style="fill:#1a245e;" /><rect x="3033.325" y="2707.816" width="108.307" height="216.614" style="fill:#1a245e;" /><rect x="1192.11" y="2816.123" width="108.307" height="108.307" style="fill:#1a245e;" /><rect x="1300.417" y="2816.123" width="324.92" height="108.307" style="fill:#f3f5ff;" /><rect x="1625.337" y="2816.123" width="108.307" height="433.227" style="fill:#3342a5;" /><rect x="2816.712" y="2816.123" width="108.307" height="108.307" style="fill:#3342a5;" /><rect x="2925.018" y="2816.123" width="108.307" height="216.614" style="fill:#1a245e;" /><rect x="1083.803" y="2924.43" width="541.534" height="324.92" style="fill:#3342a5;" /><rect x="2816.712" y="2924.43" width="108.307" height="216.614" style="fill:#1a245e;" /><rect x="2600.098" y="3032.737" width="108.307" height="108.307" style="fill:#3342a5;" /><rect x="2708.405" y="3032.737" width="108.307" height="216.614" style="fill:#1a245e;" /><rect x="650.576" y="3141.044" width="108.307" height="108.307" style="fill:#3342a5;" /><rect x="2491.791" y="3141.044" width="216.614" height="108.307" style="fill:#1a245e;" /><rect x="867.19" y="3249.35" width="1732.908" height="108.307" style="fill:#1a245e;" /></svg>