<?xml version='1.0' encoding='utf-8'?>
<svg xmlns="http://www.w3.org/2000/svg" viewBox="0 0 3358.1059999999998 3358.366" width="512" height="512" version="1.1" xml:space="preserve" style="fill-rule:evenodd;clip-rule:evenodd;stroke-linejoin:round;stroke-miterlimit:2;"><rect x="867.05" y="109.163" width="1732.908" height="216.614" style="fill:#0043a8;" /><rect x="650.436" y="217.469" width="216.614" height="758.147" style="fill:#0043a8;" /><rect x="2599.958" y="217.469" width="216.614" height="758.147" style="fill:#0043a8;" /><rect x="542.129" y="325.776" width="108.307" height="2815.976" style="fill:#0043a8;" /><rect x="867.05" y="325.776" width="649.841" height="108.307" style="fill:#0043a8;" /><rect x="1516.89" y="325.776" width="216.614" height="108.307" style="fill:#6facff;" /><rect x="1733.504" y="325.776" width="108.307" height="108.307" style="fill:#65c5ff;" /><rect x="1841.811" y="325.776" width="108.307" height="108.307" style="fill:#01255c;" /><rect x="1950.118" y="325.776" width="649.841" height="108.307" style="fill:#0043a8;" /><rect x="2816.572" y="325.776" width="108.307" height="1191.375" style="fill:#0043a8;" /><rect x="433.823" y="434.083" width="108.307" height="2599.363" style="fill:#0043a8;" /><rect x="867.05" y="434.083" width="541.534" height="324.92" style="fill:#0043a8;" /><rect x="1408.584" y="434.083" width="108.307" height="108.307" style="fill:#6facff;" /><rect x="1516.89" y="434.083" width="216.614" height="1299.681" style="fill:#4e97f9;" /><rect x="1733.504" y="434.083" width="216.614" height="1299.681" style="fill:#42acfe;" /><rect x="1950.118" y="434.083" width="108.307" height="324.92" style="fill:#01255c;" /><rect x="2058.424" y="434.083" width="541.534" height="324.92" style="fill:#0043a8;" /><rect x="2924.879" y="434.083" width="108.307" height="1083.068" style="fill:#0043a8;" /><rect x="325.516" y="542.39" width="108.307" height="2382.749" style="fill:#0043a8;" /><rect x="1408.584" y="542.39" width="108.307" height="1191.375" style="fill:#4e97f9;" /><rect x="3033.185" y="542.39" width="108.307" height="1083.068" style="fill:#0043a8;" /><rect x="217.209" y="650.696" width="108.307" height="2166.136" style="fill:#0043a8;" /><rect x="3141.492" y="650.696" width="108.307" height="2166.136" style="fill:#0043a8;" /><rect x="867.05" y="759.003" width="108.307" height="108.307" style="fill:#0043a8;" /><rect x="975.356" y="759.003" width="324.92" height="108.307" style="fill:#6facff;" /><rect x="1300.277" y="759.003" width="108.307" height="108.307" style="fill:#3986ed;" /><rect x="1950.118" y="759.003" width="541.534" height="974.761" style="fill:#42acfe;" /><rect x="2491.651" y="759.003" width="108.307" height="108.307" style="fill:#0043a8;" /><rect x="108.902" y="867.31" width="108.307" height="1732.908" style="fill:#0043a8;" /><rect x="867.05" y="867.31" width="108.307" height="108.307" style="fill:#6facff;" /><rect x="975.356" y="867.31" width="433.227" height="866.454" style="fill:#4e97f9;" /><rect x="2491.651" y="867.31" width="108.307" height="866.454" style="fill:#42acfe;" /><rect x="3249.799" y="867.31" width="108.307" height="1732.908" style="fill:#0043a8;" /><rect x="650.436" y="975.617" width="108.307" height="216.614" style="fill:#0043a8;" /><rect x="758.743" y="975.617" width="108.307" height="216.614" style="fill:#6facff;" /><rect x="867.05" y="975.617" width="108.307" height="649.841" style="fill:#4e97f9;" /><rect x="2599.958" y="975.617" width="108.307" height="433.227" style="fill:#3db6ff;" /><rect x="2708.265" y="975.617" width="108.307" height="433.227" style="fill:#01255c;" /><rect x="650.436" y="1192.23" width="108.307" height="216.614" style="fill:#6facff;" /><rect x="758.743" y="1192.23" width="108.307" height="324.92" style="fill:#4e97f9;" /><rect x="650.436" y="1408.844" width="108.307" height="108.307" style="fill:#4e97f9;" /><rect x="2599.958" y="1408.844" width="216.614" height="108.307" style="fill:#55bfff;" /><rect x="650.436" y="1517.151" width="216.614" height="108.307" style="fill:#01255c;" /><rect x="2599.958" y="1517.151" width="216.614" height="216.614" style="fill:#42acfe;" /><rect x="2816.572" y="1517.151" width="216.614" height="108.307" style="fill:#3db6ff;" /><rect x="650.436" y="1625.457" width="216.614" height="433.227" style="fill:#0043a8;" /><rect x="867.05" y="1625.457" width="108.307" height="324.92" style="fill:#01255c;" /><rect x="2816.572" y="1625.457" width="324.92" height="108.307" style="fill:#42acfe;" /><rect x="975.356" y="1733.764" width="649.841" height="433.227" style="fill:#42acfe;" /><rect x="1625.197" y="1733.764" width="108.307" height="108.307" style="fill:#2cacd9;" /><rect x="1733.504" y="1733.764" width="1299.681" height="216.614" style="fill:#4e97f9;" /><rect x="3033.185" y="1733.764" width="108.307" height="108.307" style="fill:#6facff;" /><rect x="1625.197" y="1842.071" width="108.307" height="541.534" style="fill:#42acfe;" /><rect x="3033.185" y="1842.071" width="108.307" height="108.307" style="fill:#4e97f9;" /><rect x="867.05" y="1950.378" width="108.307" height="758.147" style="fill:#42acfe;" /><rect x="1733.504" y="1950.378" width="974.761" height="108.307" style="fill:#4e97f9;" /><rect x="2708.265" y="1950.378" width="108.307" height="108.307" style="fill:#6facff;" /><rect x="2816.572" y="1950.378" width="108.307" height="108.307" style="fill:#4e97f9;" /><rect x="2924.879" y="1950.378" width="108.307" height="108.307" style="fill:#6facff;" /><rect x="3033.185" y="1950.378" width="108.307" height="108.307" style="fill:#01255c;" /><rect x="650.436" y="2058.685" width="108.307" height="108.307" style="fill:#3db6ff;" /><rect x="758.743" y="2058.685" width="108.307" height="433.227" style="fill:#42acfe;" /><rect x="1733.504" y="2058.685" width="866.454" height="433.227" style="fill:#4e97f9;" /><rect x="2599.958" y="2058.685" width="108.307" height="541.534" style="fill:#6facff;" /><rect x="2708.265" y="2058.685" width="324.92" height="108.307" style="fill:#01255c;" /><rect x="3033.185" y="2058.685" width="108.307" height="866.454" style="fill:#0043a8;" /><rect x="650.436" y="2166.991" width="108.307" height="108.307" style="fill:#57c0ff;" /><rect x="975.356" y="2166.991" width="108.307" height="541.534" style="fill:#42acfe;" /><rect x="1083.663" y="2166.991" width="108.307" height="108.307" style="fill:#42acfd;" /><rect x="1191.97" y="2166.991" width="108.307" height="649.841" style="fill:#42acfe;" /><rect x="1300.277" y="2166.991" width="108.307" height="108.307" style="fill:#43aef9;" /><rect x="1408.584" y="2166.991" width="216.614" height="216.614" style="fill:#42acfe;" /><rect x="2708.265" y="2166.991" width="108.307" height="433.227" style="fill:#01255c;" /><rect x="2816.572" y="2166.991" width="216.614" height="866.454" style="fill:#0043a8;" /><rect x="650.436" y="2275.298" width="108.307" height="108.307" style="fill:#3db6ff;" /><rect x="1083.663" y="2275.298" width="108.307" height="433.227" style="fill:#42acfe;" /><rect x="1300.277" y="2275.298" width="108.307" height="108.307" style="fill:#42acfc;" /><rect x="650.436" y="2383.605" width="108.307" height="108.307" style="fill:#57c0ff;" /><rect x="1300.277" y="2383.605" width="216.614" height="108.307" style="fill:#42acfe;" /><rect x="1516.89" y="2383.605" width="216.614" height="108.307" style="fill:#3db6ff;" /><rect x="650.436" y="2491.912" width="108.307" height="758.147" style="fill:#0043a8;" /><rect x="758.743" y="2491.912" width="108.307" height="216.614" style="fill:#7dcbfb;" /><rect x="1300.277" y="2491.912" width="108.307" height="108.307" style="fill:#42acfe;" /><rect x="1408.584" y="2491.912" width="108.307" height="108.307" style="fill:#3db6ff;" /><rect x="1516.89" y="2491.912" width="324.92" height="108.307" style="fill:#01255c;" /><rect x="1841.811" y="2491.912" width="758.147" height="108.307" style="fill:#4e97f9;" /><rect x="1300.277" y="2600.219" width="108.307" height="216.614" style="fill:#3db6ff;" /><rect x="1408.584" y="2600.219" width="108.307" height="216.614" style="fill:#01255c;" /><rect x="1516.89" y="2600.219" width="433.227" height="758.147" style="fill:#0043a8;" /><rect x="1950.118" y="2600.219" width="541.534" height="108.307" style="fill:#4e97f9;" /><rect x="2491.651" y="2600.219" width="108.307" height="108.307" style="fill:#6facff;" /><rect x="2599.958" y="2600.219" width="108.307" height="108.307" style="fill:#01255c;" /><rect x="2708.265" y="2600.219" width="108.307" height="649.841" style="fill:#0043a8;" /><rect x="758.743" y="2708.525" width="108.307" height="541.534" style="fill:#0043a8;" /><rect x="867.05" y="2708.525" width="108.307" height="108.307" style="fill:#7dcbfb;" /><rect x="975.356" y="2708.525" width="108.307" height="108.307" style="fill:#57c0ff;" /><rect x="1083.663" y="2708.525" width="108.307" height="108.307" style="fill:#7dcbfb;" /><rect x="1950.118" y="2708.525" width="216.614" height="108.307" style="fill:#4e97f9;" /><rect x="2166.731" y="2708.525" width="324.92" height="108.307" style="fill:#6facff;" /><rect x="2491.651" y="2708.525" width="108.307" height="108.307" style="fill:#01255c;" /><rect x="2599.958" y="2708.525" width="108.307" height="541.534" style="fill:#0043a8;" /><rect x="867.05" y="2816.832" width="649.841" height="541.534" style="fill:#0043a8;" /><rect x="1950.118" y="2816.832" width="649.841" height="541.534" style="fill:#0043a8;" /><rect x="2816.572" y="3033.446" width="108.307" height="108.307" style="fill:#0043a8;" /></svg>