<?xml version='1.0' encoding='utf-8'?>
<svg xmlns="http://www.w3.org/2000/svg" viewBox="0 0 3358.45 3357.9799999999996" width="512" height="512" version="1.1" xml:space="preserve" style="fill-rule:evenodd;clip-rule:evenodd;stroke-linejoin:round;stroke-miterlimit:2;"><rect x="867.393" y="108.777" width="1732.908" height="108.307" style="fill:#87d7ff;" /><rect x="650.78" y="217.083" width="324.92" height="108.307" style="fill:#87d7ff;" /><rect x="975.7" y="217.083" width="1841.215" height="324.92" style="fill:#00acff;" /><rect x="434.166" y="325.39" width="324.92" height="108.307" style="fill:#87d7ff;" /><rect x="759.087" y="325.39" width="216.614" height="758.147" style="fill:#00acff;" /><rect x="2816.916" y="325.39" width="216.614" height="2491.056" style="fill:#00acff;" /><rect x="325.86" y="433.697" width="216.614" height="108.307" style="fill:#87d7ff;" /><rect x="542.473" y="433.697" width="216.614" height="1624.602" style="fill:#00acff;" /><rect x="3033.529" y="433.697" width="108.307" height="2274.442" style="fill:#00acff;" /><rect x="217.553" y="542.004" width="216.614" height="108.307" style="fill:#87d7ff;" /><rect x="434.166" y="542.004" width="108.307" height="1732.908" style="fill:#00acff;" /><rect x="975.7" y="542.004" width="1407.988" height="108.307" style="fill:#00acff;" /><rect x="2383.688" y="542.004" width="216.614" height="108.307" style="fill:#fff;" /><rect x="2600.302" y="542.004" width="216.614" height="324.92" style="fill:#00acff;" /><rect x="3141.836" y="542.004" width="108.307" height="1949.522" style="fill:#00acff;" /><rect x="217.553" y="650.311" width="108.307" height="216.614" style="fill:#87d7ff;" /><rect x="325.86" y="650.311" width="108.307" height="1732.908" style="fill:#00acff;" /><rect x="975.7" y="650.311" width="1299.681" height="108.307" style="fill:#00acff;" /><rect x="2275.382" y="650.311" width="216.614" height="216.614" style="fill:#fff;" /><rect x="2491.995" y="650.311" width="108.307" height="108.307" style="fill:#f3f3f3;" /><rect x="109.246" y="758.617" width="108.307" height="1841.215" style="fill:#87d7ff;" /><rect x="975.7" y="758.617" width="1083.068" height="108.307" style="fill:#00acff;" /><rect x="2058.768" y="758.617" width="216.614" height="108.307" style="fill:#fff;" /><rect x="2491.995" y="758.617" width="108.307" height="108.307" style="fill:#fff;" /><rect x="3250.143" y="758.617" width="108.307" height="1841.215" style="fill:#005178;" /><rect x="217.553" y="866.924" width="108.307" height="1624.602" style="fill:#00acff;" /><rect x="975.7" y="866.924" width="866.454" height="108.307" style="fill:#00acff;" /><rect x="1842.155" y="866.924" width="324.92" height="108.307" style="fill:#fff;" /><rect x="2167.075" y="866.924" width="216.614" height="433.227" style="fill:#f3f3f3;" /><rect x="2383.688" y="866.924" width="108.307" height="108.307" style="fill:#fff;" /><rect x="2491.995" y="866.924" width="108.307" height="108.307" style="fill:#00acff;" /><rect x="2600.302" y="866.924" width="216.614" height="216.614" style="fill:#c7edff;" /><rect x="975.7" y="975.231" width="541.534" height="108.307" style="fill:#00acff;" /><rect x="1517.234" y="975.231" width="433.227" height="108.307" style="fill:#fff;" /><rect x="1950.461" y="975.231" width="216.614" height="649.841" style="fill:#f3f3f3;" /><rect x="2383.688" y="975.231" width="216.614" height="216.614" style="fill:#f3f3f3;" /><rect x="759.087" y="1083.538" width="108.307" height="974.761" style="fill:#00acff;" /><rect x="867.393" y="1083.538" width="216.614" height="216.614" style="fill:#fff;" /><rect x="1084.007" y="1083.538" width="324.92" height="108.307" style="fill:#00acff;" /><rect x="1408.927" y="1083.538" width="541.534" height="1299.681" style="fill:#f3f3f3;" /><rect x="2600.302" y="1083.538" width="108.307" height="108.307" style="fill:#c7edff;" /><rect x="2708.609" y="1083.538" width="108.307" height="1949.522" style="fill:#00acff;" /><rect x="1084.007" y="1191.844" width="108.307" height="108.307" style="fill:#fff;" /><rect x="1192.314" y="1191.844" width="216.614" height="108.307" style="fill:#c7edff;" /><rect x="2383.688" y="1191.844" width="216.614" height="108.307" style="fill:#c7edff;" /><rect x="2600.302" y="1191.844" width="108.307" height="1949.522" style="fill:#00acff;" /><rect x="867.393" y="1300.151" width="433.227" height="108.307" style="fill:#c7edff;" /><rect x="1300.621" y="1300.151" width="108.307" height="1841.215" style="fill:#f3f3f3;" /><rect x="2167.075" y="1300.151" width="108.307" height="108.307" style="fill:#f3f3f3;" /><rect x="2275.382" y="1300.151" width="216.614" height="108.307" style="fill:#c7edff;" /><rect x="2491.995" y="1300.151" width="108.307" height="1841.215" style="fill:#00acff;" /><rect x="867.393" y="1408.458" width="108.307" height="433.227" style="fill:#00acff;" /><rect x="975.7" y="1408.458" width="324.92" height="108.307" style="fill:#c7edff;" /><rect x="2167.075" y="1408.458" width="216.614" height="108.307" style="fill:#c7edff;" /><rect x="2383.688" y="1408.458" width="108.307" height="1841.215" style="fill:#00acff;" /><rect x="975.7" y="1516.765" width="108.307" height="216.614" style="fill:#00acff;" /><rect x="1084.007" y="1516.765" width="108.307" height="324.92" style="fill:#fff;" /><rect x="1192.314" y="1516.765" width="108.307" height="1732.908" style="fill:#f3f3f3;" /><rect x="2167.075" y="1516.765" width="108.307" height="216.614" style="fill:#c7edff;" /><rect x="2275.382" y="1516.765" width="108.307" height="1732.908" style="fill:#00acff;" /><rect x="1950.461" y="1625.072" width="108.307" height="324.92" style="fill:#f3f3f3;" /><rect x="2058.768" y="1625.072" width="108.307" height="433.227" style="fill:#c7edff;" /><rect x="975.7" y="1733.378" width="108.307" height="216.614" style="fill:#fff;" /><rect x="2167.075" y="1733.378" width="108.307" height="1516.295" style="fill:#00acff;" /><rect x="867.393" y="1841.685" width="108.307" height="324.92" style="fill:#fff;" /><rect x="1084.007" y="1841.685" width="108.307" height="1407.988" style="fill:#f3f3f3;" /><rect x="975.7" y="1949.992" width="108.307" height="1299.681" style="fill:#f3f3f3;" /><rect x="1950.461" y="1949.992" width="108.307" height="974.761" style="fill:#c7edff;" /><rect x="542.473" y="2058.299" width="108.307" height="108.307" style="fill:#00acff;" /><rect x="650.78" y="2058.299" width="216.614" height="108.307" style="fill:#fff;" /><rect x="2058.768" y="2058.299" width="108.307" height="1191.375" style="fill:#00acff;" /><rect x="542.473" y="2166.605" width="216.614" height="108.307" style="fill:#fff;" /><rect x="759.087" y="2166.605" width="216.614" height="1083.068" style="fill:#f3f3f3;" /><rect x="434.166" y="2274.912" width="216.614" height="108.307" style="fill:#fff;" /><rect x="650.78" y="2274.912" width="108.307" height="974.761" style="fill:#f3f3f3;" /><rect x="325.86" y="2383.219" width="216.614" height="108.307" style="fill:#fff;" /><rect x="542.473" y="2383.219" width="108.307" height="758.147" style="fill:#f3f3f3;" /><rect x="1408.927" y="2383.219" width="433.227" height="324.92" style="fill:#f3f3f3;" /><rect x="1842.155" y="2383.219" width="108.307" height="866.454" style="fill:#c7edff;" /><rect x="217.553" y="2491.526" width="216.614" height="108.307" style="fill:#fff;" /><rect x="434.166" y="2491.526" width="108.307" height="649.841" style="fill:#f3f3f3;" /><rect x="3141.836" y="2491.526" width="108.307" height="324.92" style="fill:#005178;" /><rect x="217.553" y="2599.833" width="216.614" height="216.614" style="fill:#f3f3f3;" /><rect x="1408.927" y="2708.139" width="324.92" height="108.307" style="fill:#f3f3f3;" /><rect x="1733.848" y="2708.139" width="108.307" height="541.534" style="fill:#c7edff;" /><rect x="3033.529" y="2708.139" width="108.307" height="216.614" style="fill:#005178;" /><rect x="325.86" y="2816.446" width="108.307" height="108.307" style="fill:#f3f3f3;" /><rect x="1408.927" y="2816.446" width="216.614" height="108.307" style="fill:#f3f3f3;" /><rect x="1625.541" y="2816.446" width="108.307" height="433.227" style="fill:#c7edff;" /><rect x="2816.916" y="2816.446" width="108.307" height="108.307" style="fill:#00acff;" /><rect x="2925.222" y="2816.446" width="108.307" height="216.614" style="fill:#005178;" /><rect x="1408.927" y="2924.753" width="108.307" height="108.307" style="fill:#f3f3f3;" /><rect x="1517.234" y="2924.753" width="108.307" height="324.92" style="fill:#c7edff;" /><rect x="1950.461" y="2924.753" width="108.307" height="324.92" style="fill:#00acff;" /><rect x="2816.916" y="2924.753" width="108.307" height="216.614" style="fill:#005178;" /><rect x="1408.927" y="3033.06" width="108.307" height="216.614" style="fill:#c7edff;" /><rect x="2708.609" y="3033.06" width="108.307" height="216.614" style="fill:#005178;" /><rect x="1300.621" y="3141.366" width="108.307" height="108.307" style="fill:#c7edff;" /><rect x="2491.995" y="3141.366" width="216.614" height="108.307" style="fill:#005178;" /><rect x="867.393" y="3249.673" width="1732.908" height="108.307" style="fill:#005178;" /></svg>