<?xml version='1.0' encoding='utf-8'?>
<svg xmlns="http://www.w3.org/2000/svg" viewBox="0 0 3358.1459999999997 3357.5950000000003" width="512" height="512" version="1.1" xml:space="preserve" style="fill-rule:evenodd;clip-rule:evenodd;stroke-linejoin:round;stroke-miterlimit:2;"><rect x="867.09" y="108.391" width="1732.908" height="108.307" style="fill:#45ef45;" /><rect x="650.476" y="216.697" width="324.92" height="108.307" style="fill:#45ef45;" /><rect x="975.397" y="216.697" width="1841.215" height="649.841" style="fill:#0a8f08;" /><rect x="542.17" y="325.004" width="216.614" height="108.307" style="fill:#45ef45;" /><rect x="758.783" y="325.004" width="216.614" height="541.534" style="fill:#0a8f08;" /><rect x="2816.612" y="325.004" width="108.307" height="2599.363" style="fill:#0a8f08;" /><rect x="433.863" y="433.311" width="216.614" height="108.307" style="fill:#45ef45;" /><rect x="650.476" y="433.311" width="108.307" height="2815.976" style="fill:#0a8f08;" /><rect x="2924.919" y="433.311" width="108.307" height="2382.749" style="fill:#0a8f08;" /><rect x="325.556" y="541.618" width="216.614" height="108.307" style="fill:#45ef45;" /><rect x="542.17" y="541.618" width="108.307" height="2599.363" style="fill:#0a8f08;" /><rect x="3033.226" y="541.618" width="108.307" height="2166.136" style="fill:#0a8f08;" /><rect x="217.249" y="649.925" width="216.614" height="108.307" style="fill:#45ef45;" /><rect x="433.863" y="649.925" width="108.307" height="2382.749" style="fill:#0a8f08;" /><rect x="3141.532" y="649.925" width="108.307" height="1841.215" style="fill:#0a8f08;" /><rect x="217.249" y="758.231" width="108.307" height="216.614" style="fill:#45ef45;" /><rect x="325.556" y="758.231" width="108.307" height="2166.136" style="fill:#0a8f08;" /><rect x="108.943" y="866.538" width="108.307" height="1732.908" style="fill:#45ef45;" /><rect x="758.783" y="866.538" width="108.307" height="2382.749" style="fill:#0a8f08;" /><rect x="867.09" y="866.538" width="649.841" height="108.307" style="fill:#013700;" /><rect x="1516.931" y="866.538" width="541.534" height="649.841" style="fill:#0a8f08;" /><rect x="2058.465" y="866.538" width="541.534" height="108.307" style="fill:#013700;" /><rect x="2599.998" y="866.538" width="216.614" height="108.307" style="fill:#0a8f08;" /><rect x="3249.839" y="866.538" width="108.307" height="1732.908" style="fill:#022a00;" /><rect x="217.249" y="974.845" width="108.307" height="1841.215" style="fill:#0a8f08;" /><rect x="867.09" y="974.845" width="649.841" height="541.534" style="fill:#001a00;" /><rect x="2058.465" y="974.845" width="541.534" height="541.534" style="fill:#001a00;" /><rect x="2599.998" y="974.845" width="108.307" height="541.534" style="fill:#013700;" /><rect x="2708.305" y="974.845" width="108.307" height="2057.829" style="fill:#0a8f08;" /><rect x="867.09" y="1516.379" width="649.841" height="108.307" style="fill:#1cb012;" /><rect x="1516.931" y="1516.379" width="541.534" height="108.307" style="fill:#094104;" /><rect x="2058.465" y="1516.379" width="649.841" height="108.307" style="fill:#1cb012;" /><rect x="867.09" y="1624.686" width="649.841" height="216.614" style="fill:#0a8f08;" /><rect x="1516.931" y="1624.686" width="541.534" height="866.454" style="fill:#001a00;" /><rect x="2058.465" y="1624.686" width="649.841" height="216.614" style="fill:#0a8f08;" /><rect x="867.09" y="1841.299" width="324.92" height="1407.988" style="fill:#0a8f08;" /><rect x="1192.01" y="1841.299" width="324.92" height="866.454" style="fill:#001a00;" /><rect x="2058.465" y="1841.299" width="324.92" height="866.454" style="fill:#001a00;" /><rect x="2383.385" y="1841.299" width="324.92" height="1299.681" style="fill:#0a8f08;" /><rect x="1516.931" y="2491.14" width="541.534" height="758.147" style="fill:#0a8f08;" /><rect x="3141.532" y="2491.14" width="108.307" height="324.92" style="fill:#022a00;" /><rect x="1192.01" y="2707.753" width="324.92" height="108.307" style="fill:#1cb012;" /><rect x="2058.465" y="2707.753" width="324.92" height="108.307" style="fill:#1cb012;" /><rect x="3033.226" y="2707.753" width="108.307" height="216.614" style="fill:#022a00;" /><rect x="1192.01" y="2816.06" width="324.92" height="433.227" style="fill:#0a8f08;" /><rect x="2058.465" y="2816.06" width="324.92" height="433.227" style="fill:#0a8f08;" /><rect x="2924.919" y="2816.06" width="108.307" height="216.614" style="fill:#022a00;" /><rect x="2816.612" y="2924.367" width="108.307" height="216.614" style="fill:#022a00;" /><rect x="2708.305" y="3032.674" width="108.307" height="216.614" style="fill:#022a00;" /><rect x="2383.385" y="3140.981" width="216.614" height="108.307" style="fill:#0a8f08;" /><rect x="2599.998" y="3140.981" width="108.307" height="216.614" style="fill:#022a00;" /><rect x="867.09" y="3249.287" width="1732.908" height="108.307" style="fill:#022a00;" /></svg>