<?xml version="1.0" encoding="UTF-8" standalone="no"?>
<svg viewBox="0 0 32 32"
   version="1.1"
   width="512"
   height="512"
   shape-rendering="crispEdges"
   id="svg103"
   sodipodi:docname="mother-yaak.svg"
   inkscape:version="1.4.4 (dcaf3e7d9e, 2026-05-05)"
   xmlns:inkscape="http://www.inkscape.org/namespaces/inkscape"
   xmlns:sodipodi="http://sodipodi.sourceforge.net/DTD/sodipodi-0.dtd"
   xmlns="http://www.w3.org/2000/svg"
   xmlns:svg="http://www.w3.org/2000/svg">
  <defs
     id="defs103" />
  <sodipodi:namedview
     id="namedview103"
     pagecolor="#505050"
     bordercolor="#ffffff"
     borderopacity="1"
     inkscape:showpageshadow="0"
     inkscape:pageopacity="0"
     inkscape:pagecheckerboard="1"
     inkscape:deskcolor="#505050"
     inkscape:zoom="26.1875"
     inkscape:cx="16"
     inkscape:cy="16"
     inkscape:window-width="1920"
     inkscape:window-height="1024"
     inkscape:window-x="0"
     inkscape:window-y="0"
     inkscape:window-maximized="1"
     inkscape:current-layer="svg103" />
  <path
     d="M 8,2 V 3 H 6 V 4 H 5 V 5 H 4 V 6 H 3 V 8 H 2 v 16 h 1 v 2 h 1 v 1 h 1 v 1 h 1 v 1 h 2 v 1 h 14 v -2 h -1 v -2 h -1 v -1 h -1 v -1 h -3 v 1 h -1 v 1 H 12 11 V 25 H 10 V 24 H 9 V 22 H 8 V 14 H 6 5 V 13 H 4 V 8 H 5 V 6 h 1 v 1 2 1 H 8 V 8 7 h 2 V 6 h 4 V 5 h 1 V 4 h 1 V 3 h 2 V 2 Z m 10,3 v 1 h 1 v 1 h 1 v 1 h 1 v 1 h -2 -1 v 1 h 1 v 2 h 4 v 1 h 4 V 10 H 26 V 9 H 24 V 8 H 23 V 7 H 21 V 6 H 20 V 5 h -1 z m -4,10 v 3 h 3 v -2 h -1 v -1 h -1 z"
     style="fill:#1c083e"
     id="path106" />
  <path
     d="M 20,1 V 2 H 18 V 3 H 16 V 4 H 15 V 5 H 14 V 6 H 10 V 7 H 8 v 1 2 H 9 V 8 h 2 V 7 h 4 V 6 h 1 V 5 h 1 V 4 h 2 V 3 h 2 V 2 h 4 V 1 Z M 5,6 V 8 H 4 v 5 h 1 v 1 h 1 2 v 8 h 1 v 2 h 1 v 1 h 1 v 1 h 1 3 v -1 h 1 v -1 h 3 v 1 h 1 v 1 h 1 v 2 h 1 v 2 h 1 v 1 h 1 v -2 h -1 v -2 h -1 v -1 -1 h -1 v -1 h -1 v -1 h -3 -2 v 1 h -1 v 1 H 12 V 24 H 11 V 23 H 10 V 21 H 9 V 14 13 H 6 V 12 H 5 V 9 H 6 V 6 Z"
     style="fill:#bc94ff"
     id="path105" />
  <path
     d="M 7,1 V 2 H 5 V 3 H 4 V 4 H 3 V 5 H 2 V 6 7 H 1 v 18 h 1 v 2 h 1 v 1 h 1 v 1 h 1 v 1 h 1 1 v 1 H 23 V 30 H 8 V 29 H 6 V 28 H 5 V 27 H 4 V 26 H 3 V 24 H 2 V 8 H 3 V 6 H 4 V 5 H 5 V 4 H 6 V 3 H 8 V 2 H 20 V 1 Z"
     style="fill:#371f5d"
     id="path104" />
  <path
     d="M 21,2 V 3 H 19 V 4 H 17 V 5 H 16 V 6 H 15 V 7 H 11 V 8 H 9 v 2 H 6 V 9 H 5 v 3 h 1 v 1 h 3 v 8 h 1 v 2 h 1 v 1 h 1 v 1 h 2 v -1 h 1 v -1 h 2 1 1 1 v 1 h 1 v 1 h 1 v 2 h 1 v 2 h 1 v 1 1 h 1 v -1 h 2 v -1 h 1 v -1 h 1 v -1 h 1 v -2 h 1 V 7 H 30 V 5 H 29 V 4 H 28 V 3 H 27 V 2 Z m -3,3 h 1 1 v 1 h 1 v 1 h 2 v 1 h 1 v 1 h 2 v 1 h 1 v 3 H 23 V 12 H 19 V 10 H 18 V 9 h 1 1 1 V 8 H 20 V 7 H 19 V 6 h -1 z m -4,10 h 1 1 v 1 h 1 v 2 h -3 z"
     style="fill:#ad71ff"
     id="path103" />
</svg>
