<svg width="512" height="495" viewBox="0 0 512 495" fill="none" xmlns="http://www.w3.org/2000/svg">
<path fill-rule="evenodd" clip-rule="evenodd" d="M388.178 471.048L421.194 471.048V455.088H437.702V439.129H454.21V423.169H470.717V407.209H487.225V375.289H503.733V119.711H487.225V87.791H470.718V71.8313H454.21V55.8714H437.702V39.9115H421.194V23.9517H388.178V7.99194H123.822V23.9517H90.8059V39.9115H74.2979V55.8714H57.7901V71.8313H41.2821V87.791H24.7741V119.711H8.26611V375.289H24.7741V407.209H41.2821V439.128L74.2979 439.129V455.088H90.8059V471.048H107.543L123.822 471.048V487.008H388.178V471.048Z" fill="#C8C3B7"/>
<path fill-rule="evenodd" clip-rule="evenodd" d="M355.162 471.048H371.67V455.088H387.949H388.178H404.686V439.128H421.194V423.169H437.702V407.209H454.21V391.249H470.718V359.329H487.226V135.671H470.718V103.751H454.21V87.791H437.702V71.8313H421.194V55.8714H404.686V39.9115H355.162V23.9517H140.33V39.9115H107.314V55.8714H90.8062V71.8313H74.2982V87.791H57.7904V103.751H41.2824V135.671H24.7744V359.329H41.2824V391.249H57.7904V407.209H74.2982V423.169H90.8062V439.129H107.314V455.088H140.33V471.048L156.838 471.048H206.59H222.87H256.114H272.394H338.654L354.934 471.048H355.162Z" fill="#DEDDDA"/>
<path fill-rule="evenodd" clip-rule="evenodd" d="M404.686 87.791H107.314V103.751H90.8058V119.711H74.2979V151.852H91.0345V119.932H107.542V103.972H404.457V119.932H420.965V135.892H437.702V119.711H421.194V103.751H404.686V87.791Z" fill="#447E54"/>
<path fill-rule="evenodd" clip-rule="evenodd" d="M107.314 103.751H404.686V119.711H421.194V151.852H404.686V167.811H107.314V151.852H90.8062V119.711H107.314V103.751Z" fill="#6FB182"/>
<path fill-rule="evenodd" clip-rule="evenodd" d="M437.702 135.671H420.965V151.631H404.457V167.59H107.543V151.631H90.8062V167.811H107.314V183.771H404.686V167.811H421.194V151.852H437.702V135.671Z" fill="#86D99E"/>
<path fill-rule="evenodd" clip-rule="evenodd" d="M222.87 215.47H256.114V231.43H272.622V247.611H256.114V263.57H223.099L206.362 263.57V231.43H222.87V215.47Z" fill="#9A9996"/>
<path fill-rule="evenodd" clip-rule="evenodd" d="M107.314 215.47H140.559V231.43H157.067V247.611H140.559V263.57L107.543 263.57H90.8062V231.43H107.314V215.47Z" fill="#9A9996"/>
<path fill-rule="evenodd" clip-rule="evenodd" d="M388.178 215.47H354.934V231.651H387.949V343.369H404.686V231.43H388.178V215.47Z" fill="#EEAD73"/>
<path fill-rule="evenodd" clip-rule="evenodd" d="M388.178 231.43H338.426V343.37H354.934V359.329H388.178V343.148L388.178 231.43Z" fill="#FF7800"/>
<path fill-rule="evenodd" clip-rule="evenodd" d="M140.33 247.389H157.066V263.57H140.33V247.389ZM255.886 247.389H272.622V263.57H255.886V247.389ZM107.314 263.349H140.559V279.53H107.314V263.349ZM222.87 263.349H256.114V279.53H222.87V263.349ZM140.33 343.148H157.066V359.329H140.33V343.148ZM255.886 343.148H272.622V359.329H255.886V343.148ZM107.314 359.108H140.559V375.289H107.314V359.108ZM222.87 359.108H256.114V375.289H222.87V359.108Z" fill="#78777A"/>
<path fill-rule="evenodd" clip-rule="evenodd" d="M107.314 311.229H140.559V327.189H157.067V343.37H140.559V359.329H107.543L90.8062 359.329V327.189H107.314V311.229Z" fill="#5E5C64"/>
<path fill-rule="evenodd" clip-rule="evenodd" d="M222.87 311.229H256.114V327.189H272.622V343.37H256.114V359.329L223.099 359.329H206.362V327.189H222.87V311.229Z" fill="#5E5C64"/>
<path fill-rule="evenodd" clip-rule="evenodd" d="M355.162 343.148H338.426V359.329H354.934V375.289H388.178V359.329H404.686V343.148H387.95V359.108H355.162V343.148Z" fill="#D95700"/>
</svg>
