<?xml version='1.0' encoding='utf-8'?>
<svg xmlns="http://www.w3.org/2000/svg" viewBox="0 0 3357.567 3357.738" width="512" height="512" version="1.1" xml:space="preserve" style="fill-rule:evenodd;clip-rule:evenodd;stroke-linejoin:round;stroke-miterlimit:2;"><rect x="866.511" y="108.535" width="1732.908" height="108.307" style="fill:#1e113a;" /><rect x="649.898" y="216.842" width="324.92" height="108.307" style="fill:#1e113a;" /><rect x="974.818" y="216.842" width="1841.215" height="108.307" style="fill:#09001c;" /><rect x="541.591" y="325.148" width="216.614" height="108.307" style="fill:#1e113a;" /><rect x="758.204" y="325.148" width="866.454" height="108.307" style="fill:#09001c;" /><rect x="1624.659" y="325.148" width="216.614" height="108.307" style="fill:#ad8cef;" /><rect x="1841.272" y="325.148" width="108.307" height="108.307" style="fill:#a986ef;" /><rect x="1949.579" y="325.148" width="974.761" height="108.307" style="fill:#09001c;" /><rect x="433.284" y="433.455" width="216.614" height="108.307" style="fill:#1e113a;" /><rect x="649.898" y="433.455" width="866.454" height="108.307" style="fill:#09001c;" /><rect x="1516.352" y="433.455" width="108.307" height="108.307" style="fill:#b395f1;" /><rect x="1624.659" y="433.455" width="108.307" height="108.307" style="fill:#9c7fd4;" /><rect x="1732.965" y="433.455" width="108.307" height="108.307" style="fill:#ae8eee;" /><rect x="1841.272" y="433.455" width="108.307" height="324.92" style="fill:#ad8cef;" /><rect x="1949.579" y="433.455" width="108.307" height="216.614" style="fill:#7d49e7;" /><rect x="2057.886" y="433.455" width="974.761" height="108.307" style="fill:#09001c;" /><rect x="324.977" y="541.762" width="216.614" height="108.307" style="fill:#1e113a;" /><rect x="541.591" y="541.762" width="866.454" height="108.307" style="fill:#09001c;" /><rect x="1408.045" y="541.762" width="108.307" height="108.307" style="fill:#b395f1;" /><rect x="1516.352" y="541.762" width="108.307" height="108.307" style="fill:#a186d6;" /><rect x="1624.659" y="541.762" width="108.307" height="108.307" style="fill:#b195ec;" /><rect x="1732.965" y="541.762" width="108.307" height="108.307" style="fill:#b193ef;" /><rect x="2057.886" y="541.762" width="108.307" height="216.614" style="fill:#7d49e7;" /><rect x="2166.193" y="541.762" width="974.761" height="216.614" style="fill:#09001c;" /><rect x="216.67" y="650.069" width="216.614" height="108.307" style="fill:#1e113a;" /><rect x="433.284" y="650.069" width="866.454" height="108.307" style="fill:#09001c;" /><rect x="1299.738" y="650.069" width="108.307" height="108.307" style="fill:#b395f1;" /><rect x="1408.045" y="650.069" width="108.307" height="108.307" style="fill:#a68dd9;" /><rect x="1516.352" y="650.069" width="108.307" height="108.307" style="fill:#b89dee;" /><rect x="1624.659" y="650.069" width="108.307" height="108.307" style="fill:#bba2ee;" /><rect x="1732.965" y="650.069" width="108.307" height="108.307" style="fill:#b496f1;" /><rect x="1949.579" y="650.069" width="108.307" height="108.307" style="fill:#804de7;" /><rect x="3140.954" y="650.069" width="108.307" height="1841.215" style="fill:#09001c;" /><rect x="216.67" y="758.375" width="108.307" height="216.614" style="fill:#1e113a;" /><rect x="324.977" y="758.375" width="866.454" height="108.307" style="fill:#09001c;" /><rect x="1191.432" y="758.375" width="108.307" height="108.307" style="fill:#c3abf4;" /><rect x="1299.738" y="758.375" width="108.307" height="108.307" style="fill:#ac96da;" /><rect x="1408.045" y="758.375" width="108.307" height="108.307" style="fill:#c0a7f3;" /><rect x="1516.352" y="758.375" width="108.307" height="108.307" style="fill:#c1a9f3;" /><rect x="1624.659" y="758.375" width="216.614" height="108.307" style="fill:#c3abf4;" /><rect x="1841.272" y="758.375" width="108.307" height="108.307" style="fill:#7d49e7;" /><rect x="1949.579" y="758.375" width="108.307" height="108.307" style="fill:#8353e4;" /><rect x="2057.886" y="758.375" width="108.307" height="108.307" style="fill:#7447cd;" /><rect x="2166.193" y="758.375" width="108.307" height="108.307" style="fill:#976deb;" /><rect x="2274.499" y="758.375" width="866.454" height="108.307" style="fill:#09001c;" /><rect x="108.364" y="866.682" width="108.307" height="1841.215" style="fill:#1e113a;" /><rect x="324.977" y="866.682" width="758.147" height="324.92" style="fill:#09001c;" /><rect x="1083.125" y="866.682" width="216.614" height="108.307" style="fill:#d5c5f7;" /><rect x="1299.738" y="866.682" width="108.307" height="108.307" style="fill:#c9b5f4;" /><rect x="1408.045" y="866.682" width="108.307" height="108.307" style="fill:#c6b0f4;" /><rect x="1516.352" y="866.682" width="108.307" height="108.307" style="fill:#c4adf4;" /><rect x="1624.659" y="866.682" width="108.307" height="108.307" style="fill:#bba1f2;" /><rect x="1732.965" y="866.682" width="108.307" height="108.307" style="fill:#c3abf4;" /><rect x="1841.272" y="866.682" width="108.307" height="108.307" style="fill:#8e61e9;" /><rect x="1949.579" y="866.682" width="108.307" height="108.307" style="fill:#7f4ce3;" /><rect x="2057.886" y="866.682" width="108.307" height="108.307" style="fill:#8250e3;" /><rect x="2166.193" y="866.682" width="108.307" height="108.307" style="fill:#774cce;" /><rect x="2274.499" y="866.682" width="108.307" height="108.307" style="fill:#976deb;" /><rect x="2382.806" y="866.682" width="108.307" height="433.227" style="fill:#05000e;" /><rect x="2491.113" y="866.682" width="649.841" height="324.92" style="fill:#09001c;" /><rect x="3249.26" y="866.682" width="108.307" height="1732.908" style="fill:#050010;" /><rect x="216.67" y="974.989" width="108.307" height="1841.215" style="fill:#09001c;" /><rect x="1083.125" y="974.989" width="108.307" height="541.534" style="fill:#d5c5f7;" /><rect x="1191.432" y="974.989" width="108.307" height="108.307" style="fill:#d2c1f6;" /><rect x="1299.738" y="974.989" width="108.307" height="108.307" style="fill:#cfbcf5;" /><rect x="1408.045" y="974.989" width="108.307" height="108.307" style="fill:#cbb6f4;" /><rect x="1516.352" y="974.989" width="108.307" height="108.307" style="fill:#c9b4f4;" /><rect x="1624.659" y="974.989" width="108.307" height="108.307" style="fill:#c3abf4;" /><rect x="1732.965" y="974.989" width="108.307" height="216.614" style="fill:#804de7;" /><rect x="1841.272" y="974.989" width="108.307" height="108.307" style="fill:#8757e8;" /><rect x="1949.579" y="974.989" width="216.614" height="108.307" style="fill:#804de7;" /><rect x="2166.193" y="974.989" width="108.307" height="108.307" style="fill:#8250e7;" /><rect x="2274.499" y="974.989" width="108.307" height="324.92" style="fill:#804de7;" /><rect x="1191.432" y="1083.296" width="108.307" height="108.307" style="fill:#d3c3f6;" /><rect x="1299.738" y="1083.296" width="108.307" height="108.307" style="fill:#d1c0f6;" /><rect x="1408.045" y="1083.296" width="108.307" height="108.307" style="fill:#cfbdf5;" /><rect x="1516.352" y="1083.296" width="108.307" height="108.307" style="fill:#cebcf5;" /><rect x="1624.659" y="1083.296" width="108.307" height="758.147" style="fill:#d5c5f7;" /><rect x="1841.272" y="1083.296" width="216.614" height="108.307" style="fill:#804ee7;" /><rect x="2057.886" y="1083.296" width="216.614" height="216.614" style="fill:#804de7;" /><rect x="324.977" y="1191.603" width="649.841" height="433.227" style="fill:#09001c;" /><rect x="974.818" y="1191.603" width="108.307" height="216.614" style="fill:#d5c5f7;" /><rect x="1191.432" y="1191.603" width="108.307" height="108.307" style="fill:#d4c4f6;" /><rect x="1299.738" y="1191.603" width="108.307" height="108.307" style="fill:#d3c3f6;" /><rect x="1408.045" y="1191.603" width="108.307" height="108.307" style="fill:#d2c2f6;" /><rect x="1516.352" y="1191.603" width="108.307" height="108.307" style="fill:#d3c2f6;" /><rect x="1732.965" y="1191.603" width="108.307" height="108.307" style="fill:#a07aed;" /><rect x="1841.272" y="1191.603" width="108.307" height="108.307" style="fill:#8452e7;" /><rect x="1949.579" y="1191.603" width="108.307" height="108.307" style="fill:#814fe7;" /><rect x="2491.113" y="1191.603" width="108.307" height="433.227" style="fill:#05000e;" /><rect x="2599.42" y="1191.603" width="541.534" height="324.92" style="fill:#09001c;" /><rect x="1191.432" y="1299.909" width="108.307" height="324.92" style="fill:#d5c5f7;" /><rect x="1299.738" y="1299.909" width="216.614" height="108.307" style="fill:#d4c4f6;" /><rect x="1516.352" y="1299.909" width="108.307" height="541.534" style="fill:#d5c5f7;" /><rect x="1732.965" y="1299.909" width="108.307" height="108.307" style="fill:#a480ed;" /><rect x="1841.272" y="1299.909" width="108.307" height="108.307" style="fill:#8859e8;" /><rect x="1949.579" y="1299.909" width="108.307" height="108.307" style="fill:#8352e7;" /><rect x="2057.886" y="1299.909" width="108.307" height="108.307" style="fill:#7f4ce6;" /><rect x="2166.193" y="1299.909" width="108.307" height="108.307" style="fill:#804de7;" /><rect x="2274.499" y="1299.909" width="108.307" height="108.307" style="fill:#7249c7;" /><rect x="2382.806" y="1299.909" width="108.307" height="108.307" style="fill:#7d49e7;" /><rect x="974.818" y="1408.216" width="108.307" height="433.227" style="fill:#622dcd;" /><rect x="1299.738" y="1408.216" width="216.614" height="324.92" style="fill:#d5c5f7;" /><rect x="1732.965" y="1408.216" width="108.307" height="108.307" style="fill:#ac8cef;" /><rect x="1841.272" y="1408.216" width="108.307" height="108.307" style="fill:#9267ea;" /><rect x="1949.579" y="1408.216" width="108.307" height="108.307" style="fill:#895ae8;" /><rect x="2057.886" y="1408.216" width="108.307" height="108.307" style="fill:#8352e6;" /><rect x="2166.193" y="1408.216" width="108.307" height="108.307" style="fill:#8354e3;" /><rect x="2274.499" y="1408.216" width="108.307" height="108.307" style="fill:#8658e5;" /><rect x="2382.806" y="1408.216" width="108.307" height="216.614" style="fill:#b192f0;" /><rect x="1083.125" y="1516.523" width="108.307" height="324.92" style="fill:#622dcd;" /><rect x="1732.965" y="1516.523" width="108.307" height="216.614" style="fill:#b192f0;" /><rect x="1841.272" y="1516.523" width="108.307" height="108.307" style="fill:#9c75ec;" /><rect x="1949.579" y="1516.523" width="108.307" height="108.307" style="fill:#9368ea;" /><rect x="2057.886" y="1516.523" width="108.307" height="108.307" style="fill:#8d60e8;" /><rect x="2166.193" y="1516.523" width="108.307" height="108.307" style="fill:#8f63e9;" /><rect x="2274.499" y="1516.523" width="108.307" height="108.307" style="fill:#9971ec;" /><rect x="2599.42" y="1516.523" width="108.307" height="324.92" style="fill:#05000e;" /><rect x="2707.726" y="1516.523" width="433.227" height="216.614" style="fill:#09001c;" /><rect x="324.977" y="1624.83" width="541.534" height="216.614" style="fill:#09001c;" /><rect x="866.511" y="1624.83" width="108.307" height="216.614" style="fill:#622dcd;" /><rect x="1191.432" y="1624.83" width="108.307" height="216.614" style="fill:#622dcd;" /><rect x="1841.272" y="1624.83" width="108.307" height="108.307" style="fill:#ac8bef;" /><rect x="1949.579" y="1624.83" width="108.307" height="108.307" style="fill:#a17ced;" /><rect x="2057.886" y="1624.83" width="108.307" height="108.307" style="fill:#9d77ec;" /><rect x="2166.193" y="1624.83" width="108.307" height="108.307" style="fill:#9f79ec;" /><rect x="2274.499" y="1624.83" width="108.307" height="108.307" style="fill:#a581ee;" /><rect x="2382.806" y="1624.83" width="108.307" height="108.307" style="fill:#9778d6;" /><rect x="2491.113" y="1624.83" width="108.307" height="649.841" style="fill:#b192f0;" /><rect x="1299.738" y="1733.136" width="108.307" height="108.307" style="fill:#622dcd;" /><rect x="1408.045" y="1733.136" width="108.307" height="216.614" style="fill:#d5c5f7;" /><rect x="1732.965" y="1733.136" width="108.307" height="108.307" style="fill:#d5c5f7;" /><rect x="1841.272" y="1733.136" width="108.307" height="108.307" style="fill:#8c72c0;" /><rect x="1949.579" y="1733.136" width="108.307" height="108.307" style="fill:#9879d7;" /><rect x="2057.886" y="1733.136" width="108.307" height="108.307" style="fill:#a685ea;" /><rect x="2166.193" y="1733.136" width="108.307" height="108.307" style="fill:#a785ea;" /><rect x="2274.499" y="1733.136" width="216.614" height="433.227" style="fill:#b192f0;" /><rect x="2707.726" y="1733.136" width="108.307" height="108.307" style="fill:#05000e;" /><rect x="2816.033" y="1733.136" width="324.92" height="974.761" style="fill:#09001c;" /><rect x="324.977" y="1841.443" width="433.227" height="216.614" style="fill:#09001c;" /><rect x="758.204" y="1841.443" width="108.307" height="433.227" style="fill:#622dcd;" /><rect x="866.511" y="1841.443" width="108.307" height="108.307" style="fill:#5727b8;" /><rect x="974.818" y="1841.443" width="108.307" height="108.307" style="fill:#642fcd;" /><rect x="1083.125" y="1841.443" width="108.307" height="108.307" style="fill:#6836ce;" /><rect x="1191.432" y="1841.443" width="108.307" height="108.307" style="fill:#7243d1;" /><rect x="1299.738" y="1841.443" width="108.307" height="758.147" style="fill:#8e69d9;" /><rect x="1516.352" y="1841.443" width="433.227" height="324.92" style="fill:#5125aa;" /><rect x="1949.579" y="1841.443" width="108.307" height="108.307" style="fill:#655091;" /><rect x="2057.886" y="1841.443" width="108.307" height="108.307" style="fill:#886ebd;" /><rect x="2166.193" y="1841.443" width="108.307" height="108.307" style="fill:#9d81d7;" /><rect x="2599.42" y="1841.443" width="108.307" height="324.92" style="fill:#b192f0;" /><rect x="2707.726" y="1841.443" width="108.307" height="433.227" style="fill:#060010;" /><rect x="866.511" y="1949.75" width="108.307" height="108.307" style="fill:#632fcd;" /><rect x="974.818" y="1949.75" width="108.307" height="108.307" style="fill:#6735ce;" /><rect x="1083.125" y="1949.75" width="108.307" height="108.307" style="fill:#7041d0;" /><rect x="1191.432" y="1949.75" width="108.307" height="108.307" style="fill:#7e53d4;" /><rect x="1408.045" y="1949.75" width="108.307" height="541.534" style="fill:#5125aa;" /><rect x="1949.579" y="1949.75" width="216.614" height="216.614" style="fill:#5125aa;" /><rect x="2166.193" y="1949.75" width="108.307" height="216.614" style="fill:#b192f0;" /><rect x="324.977" y="2058.057" width="324.92" height="866.454" style="fill:#09001c;" /><rect x="649.898" y="2058.057" width="108.307" height="216.614" style="fill:#622dcd;" /><rect x="866.511" y="2058.057" width="108.307" height="108.307" style="fill:#622dcd;" /><rect x="974.818" y="2058.057" width="108.307" height="108.307" style="fill:#6f40d0;" /><rect x="1083.125" y="2058.057" width="108.307" height="108.307" style="fill:#7c51d3;" /><rect x="1191.432" y="2058.057" width="108.307" height="108.307" style="fill:#8962d7;" /><rect x="866.511" y="2166.364" width="108.307" height="108.307" style="fill:#7041d1;" /><rect x="974.818" y="2166.364" width="108.307" height="108.307" style="fill:#7a4ed3;" /><rect x="1083.125" y="2166.364" width="108.307" height="108.307" style="fill:#845bd6;" /><rect x="1191.432" y="2166.364" width="108.307" height="541.534" style="fill:#8e69d9;" /><rect x="1516.352" y="2166.364" width="108.307" height="108.307" style="fill:#5125aa;" /><rect x="1624.659" y="2166.364" width="108.307" height="108.307" style="fill:#5226ab;" /><rect x="1732.965" y="2166.364" width="108.307" height="108.307" style="fill:#5428ad;" /><rect x="1841.272" y="2166.364" width="108.307" height="108.307" style="fill:#5529ad;" /><rect x="1949.579" y="2166.364" width="108.307" height="108.307" style="fill:#5125aa;" /><rect x="2057.886" y="2166.364" width="216.614" height="216.614" style="fill:#6a3fc1;" /><rect x="2274.499" y="2166.364" width="216.614" height="108.307" style="fill:#ab89ef;" /><rect x="2599.42" y="2166.364" width="108.307" height="216.614" style="fill:#060010;" /><rect x="649.898" y="2274.67" width="108.307" height="974.761" style="fill:#09001c;" /><rect x="758.204" y="2274.67" width="216.614" height="108.307" style="fill:#8e69d9;" /><rect x="974.818" y="2274.67" width="108.307" height="108.307" style="fill:#845bd6;" /><rect x="1083.125" y="2274.67" width="108.307" height="108.307" style="fill:#8962d7;" /><rect x="1516.352" y="2274.67" width="108.307" height="108.307" style="fill:#5327ac;" /><rect x="1624.659" y="2274.67" width="108.307" height="108.307" style="fill:#562aae;" /><rect x="1732.965" y="2274.67" width="108.307" height="108.307" style="fill:#592eb2;" /><rect x="1841.272" y="2274.67" width="108.307" height="108.307" style="fill:#5c31b5;" /><rect x="1949.579" y="2274.67" width="108.307" height="108.307" style="fill:#6a3fc1;" /><rect x="2274.499" y="2274.67" width="108.307" height="324.92" style="fill:#6a3fc1;" /><rect x="2382.806" y="2274.67" width="108.307" height="108.307" style="fill:#ab89ef;" /><rect x="2491.113" y="2274.67" width="108.307" height="324.92" style="fill:#060010;" /><rect x="2707.726" y="2274.67" width="108.307" height="108.307" style="fill:#05000e;" /><rect x="758.204" y="2382.977" width="108.307" height="866.454" style="fill:#09001c;" /><rect x="866.511" y="2382.977" width="324.92" height="108.307" style="fill:#8e69d9;" /><rect x="1516.352" y="2382.977" width="108.307" height="108.307" style="fill:#572baf;" /><rect x="1624.659" y="2382.977" width="108.307" height="108.307" style="fill:#5b2fb3;" /><rect x="1732.965" y="2382.977" width="108.307" height="108.307" style="fill:#6135b9;" /><rect x="1841.272" y="2382.977" width="108.307" height="108.307" style="fill:#693fc1;" /><rect x="1949.579" y="2382.977" width="108.307" height="108.307" style="fill:#7046c7;" /><rect x="2057.886" y="2382.977" width="108.307" height="108.307" style="fill:#6c41c3;" /><rect x="2166.193" y="2382.977" width="108.307" height="108.307" style="fill:#6a3fc1;" /><rect x="2382.806" y="2382.977" width="108.307" height="108.307" style="fill:#6a3fc1;" /><rect x="2599.42" y="2382.977" width="216.614" height="649.841" style="fill:#09001c;" /><rect x="866.511" y="2491.284" width="108.307" height="216.614" style="fill:#05000e;" /><rect x="974.818" y="2491.284" width="216.614" height="108.307" style="fill:#8e69d9;" /><rect x="1408.045" y="2491.284" width="216.614" height="324.92" style="fill:#6034b8;" /><rect x="1624.659" y="2491.284" width="108.307" height="108.307" style="fill:#5c30b4;" /><rect x="1732.965" y="2491.284" width="108.307" height="108.307" style="fill:#653abc;" /><rect x="1841.272" y="2491.284" width="108.307" height="108.307" style="fill:#7a50d0;" /><rect x="1949.579" y="2491.284" width="108.307" height="108.307" style="fill:#8359d9;" /><rect x="2057.886" y="2491.284" width="108.307" height="108.307" style="fill:#8056d6;" /><rect x="2166.193" y="2491.284" width="108.307" height="433.227" style="fill:#8e65e3;" /><rect x="2382.806" y="2491.284" width="108.307" height="433.227" style="fill:#060010;" /><rect x="3140.954" y="2491.284" width="108.307" height="324.92" style="fill:#050010;" /><rect x="974.818" y="2599.591" width="108.307" height="216.614" style="fill:#05000e;" /><rect x="1083.125" y="2599.591" width="108.307" height="108.307" style="fill:#8e69d9;" /><rect x="1299.738" y="2599.591" width="108.307" height="216.614" style="fill:#6034b8;" /><rect x="1624.659" y="2599.591" width="108.307" height="216.614" style="fill:#6034b8;" /><rect x="1732.965" y="2599.591" width="108.307" height="108.307" style="fill:#5125aa;" /><rect x="1841.272" y="2599.591" width="108.307" height="108.307" style="fill:#7d54d4;" /><rect x="1949.579" y="2599.591" width="216.614" height="324.92" style="fill:#8e65e3;" /><rect x="2274.499" y="2599.591" width="108.307" height="216.614" style="fill:#8e65e3;" /><rect x="2491.113" y="2599.591" width="108.307" height="541.534" style="fill:#09001c;" /><rect x="866.511" y="2707.897" width="108.307" height="541.534" style="fill:#09001c;" /><rect x="1083.125" y="2707.897" width="216.614" height="108.307" style="fill:#05000e;" /><rect x="1732.965" y="2707.897" width="108.307" height="216.614" style="fill:#6034b8;" /><rect x="1841.272" y="2707.897" width="108.307" height="216.614" style="fill:#8e65e3;" /><rect x="2816.033" y="2707.897" width="216.614" height="108.307" style="fill:#09001c;" /><rect x="3032.647" y="2707.897" width="108.307" height="216.614" style="fill:#050010;" /><rect x="974.818" y="2816.204" width="216.614" height="433.227" style="fill:#09001c;" /><rect x="1191.432" y="2816.204" width="216.614" height="108.307" style="fill:#05000e;" /><rect x="1408.045" y="2816.204" width="324.92" height="108.307" style="fill:#060010;" /><rect x="2274.499" y="2816.204" width="108.307" height="216.614" style="fill:#060010;" /><rect x="2816.033" y="2816.204" width="108.307" height="108.307" style="fill:#09001c;" /><rect x="2924.34" y="2816.204" width="108.307" height="216.614" style="fill:#050010;" /><rect x="433.284" y="2924.511" width="216.614" height="108.307" style="fill:#09001c;" /><rect x="1191.432" y="2924.511" width="324.92" height="324.92" style="fill:#09001c;" /><rect x="1516.352" y="2924.511" width="108.307" height="108.307" style="fill:#0b0020;" /><rect x="1624.659" y="2924.511" width="649.841" height="108.307" style="fill:#060010;" /><rect x="2382.806" y="2924.511" width="108.307" height="324.92" style="fill:#09001c;" /><rect x="2816.033" y="2924.511" width="108.307" height="216.614" style="fill:#050010;" /><rect x="541.591" y="3032.818" width="108.307" height="108.307" style="fill:#09001c;" /><rect x="1516.352" y="3032.818" width="866.454" height="216.614" style="fill:#09001c;" /><rect x="2599.42" y="3032.818" width="108.307" height="108.307" style="fill:#09001c;" /><rect x="2707.726" y="3032.818" width="108.307" height="216.614" style="fill:#050010;" /><rect x="2491.113" y="3141.125" width="216.614" height="108.307" style="fill:#050010;" /><rect x="866.511" y="3249.431" width="1732.908" height="108.307" style="fill:#050010;" /></svg>