<?xml version='1.0' encoding='utf-8'?>
<svg xmlns="http://www.w3.org/2000/svg" viewBox="0 0 3358.2459999999996 3358.0589999999997" width="512" height="512" version="1.1" xml:space="preserve" style="fill-rule:evenodd;clip-rule:evenodd;stroke-linejoin:round;stroke-miterlimit:2;"><rect x="867.19" y="108.856" width="1732.908" height="108.307" style="fill:#fff;" /><rect x="650.576" y="217.162" width="324.92" height="108.307" style="fill:#fff;" /><rect x="975.496" y="217.162" width="1841.215" height="433.227" style="fill:#fbfbfb;" /><rect x="433.962" y="325.469" width="324.92" height="108.307" style="fill:#fff;" /><rect x="758.883" y="325.469" width="216.614" height="324.92" style="fill:#fbfbfb;" /><rect x="2816.712" y="325.469" width="216.614" height="324.92" style="fill:#fbfbfb;" /><rect x="325.656" y="433.776" width="216.614" height="108.307" style="fill:#fff;" /><rect x="542.269" y="433.776" width="216.614" height="216.614" style="fill:#fbfbfb;" /><rect x="3033.325" y="433.776" width="108.307" height="2274.442" style="fill:#fbfbfb;" /><rect x="217.349" y="542.083" width="216.614" height="108.307" style="fill:#fff;" /><rect x="433.962" y="542.083" width="108.307" height="2599.363" style="fill:#fbfbfb;" /><rect x="3141.632" y="542.083" width="108.307" height="1949.522" style="fill:#fbfbfb;" /><rect x="217.349" y="650.389" width="108.307" height="216.614" style="fill:#fff;" /><rect x="325.656" y="650.389" width="108.307" height="2274.442" style="fill:#fbfbfb;" /><rect x="542.269" y="650.389" width="108.307" height="2491.056" style="fill:#fbfbfb;" /><rect x="650.576" y="650.389" width="216.614" height="216.614" style="fill:#bc0001;" /><rect x="867.19" y="650.389" width="108.307" height="108.307" style="fill:#fbfbfb;" /><rect x="975.496" y="650.389" width="216.614" height="758.147" style="fill:#bc0001;" /><rect x="1192.11" y="650.389" width="108.307" height="108.307" style="fill:#fbfbfb;" /><rect x="1300.417" y="650.389" width="216.614" height="541.534" style="fill:#bc0001;" /><rect x="1517.03" y="650.389" width="108.307" height="108.307" style="fill:#fbfbfb;" /><rect x="1625.337" y="650.389" width="216.614" height="108.307" style="fill:#bc0001;" /><rect x="1841.951" y="650.389" width="108.307" height="108.307" style="fill:#fbfbfb;" /><rect x="1950.257" y="650.389" width="216.614" height="108.307" style="fill:#bc0001;" /><rect x="2166.871" y="650.389" width="108.307" height="108.307" style="fill:#fbfbfb;" /><rect x="2275.178" y="650.389" width="216.614" height="108.307" style="fill:#bc0001;" /><rect x="2491.791" y="650.389" width="108.307" height="108.307" style="fill:#fbfbfb;" /><rect x="2600.098" y="650.389" width="108.307" height="108.307" style="fill:#bc0001;" /><rect x="2708.405" y="650.389" width="108.307" height="108.307" style="fill:#8c0101;" /><rect x="2816.712" y="650.389" width="108.307" height="2057.829" style="fill:#f1f1f1;" /><rect x="2925.018" y="650.389" width="108.307" height="2166.136" style="fill:#fbfbfb;" /><rect x="109.042" y="758.696" width="108.307" height="1841.215" style="fill:#fff;" /><rect x="867.19" y="758.696" width="108.307" height="866.454" style="fill:#bc0001;" /><rect x="1192.11" y="758.696" width="108.307" height="1407.988" style="fill:#bc0001;" /><rect x="1517.03" y="758.696" width="216.614" height="216.614" style="fill:#bc0001;" /><rect x="1733.644" y="758.696" width="108.307" height="108.307" style="fill:#8c0101;" /><rect x="1841.951" y="758.696" width="108.307" height="541.534" style="fill:#bc0001;" /><rect x="1950.257" y="758.696" width="108.307" height="108.307" style="fill:#8c0101;" /><rect x="2058.564" y="758.696" width="108.307" height="324.92" style="fill:#bc0001;" /><rect x="2166.871" y="758.696" width="108.307" height="108.307" style="fill:#8c0101;" /><rect x="2275.178" y="758.696" width="108.307" height="108.307" style="fill:#bc0001;" /><rect x="2383.485" y="758.696" width="108.307" height="108.307" style="fill:#8c0101;" /><rect x="2491.791" y="758.696" width="108.307" height="108.307" style="fill:#bc0001;" /><rect x="2600.098" y="758.696" width="108.307" height="108.307" style="fill:#8c0101;" /><rect x="2708.405" y="758.696" width="108.307" height="108.307" style="fill:#bc0001;" /><rect x="3249.939" y="758.696" width="108.307" height="1841.215" style="fill:#d7d7d7;" /><rect x="217.349" y="867.003" width="108.307" height="1949.522" style="fill:#fbfbfb;" /><rect x="650.576" y="867.003" width="108.307" height="108.307" style="fill:#fbfbfb;" /><rect x="758.883" y="867.003" width="108.307" height="1732.908" style="fill:#bc0001;" /><rect x="1733.644" y="867.003" width="108.307" height="108.307" style="fill:#bc0001;" /><rect x="1950.257" y="867.003" width="108.307" height="108.307" style="fill:#bc0001;" /><rect x="2166.871" y="867.003" width="108.307" height="108.307" style="fill:#bc0001;" /><rect x="2275.178" y="867.003" width="108.307" height="108.307" style="fill:#8c0101;" /><rect x="2383.485" y="867.003" width="108.307" height="108.307" style="fill:#bc0001;" /><rect x="2491.791" y="867.003" width="108.307" height="108.307" style="fill:#8c0101;" /><rect x="2600.098" y="867.003" width="108.307" height="108.307" style="fill:#bc0001;" /><rect x="2708.405" y="867.003" width="108.307" height="108.307" style="fill:#fff;" /><rect x="650.576" y="975.31" width="108.307" height="108.307" style="fill:#bc0001;" /><rect x="1517.03" y="975.31" width="108.307" height="108.307" style="fill:#8c0101;" /><rect x="1625.337" y="975.31" width="108.307" height="541.534" style="fill:#bc0001;" /><rect x="1733.644" y="975.31" width="108.307" height="108.307" style="fill:#8c0101;" /><rect x="1950.257" y="975.31" width="108.307" height="108.307" style="fill:#8c0101;" /><rect x="2166.871" y="975.31" width="108.307" height="108.307" style="fill:#8c0101;" /><rect x="2275.178" y="975.31" width="108.307" height="108.307" style="fill:#bc0001;" /><rect x="2383.485" y="975.31" width="108.307" height="108.307" style="fill:#8c0101;" /><rect x="2491.791" y="975.31" width="108.307" height="108.307" style="fill:#bc0001;" /><rect x="2600.098" y="975.31" width="108.307" height="108.307" style="fill:#8c0101;" /><rect x="2708.405" y="975.31" width="108.307" height="108.307" style="fill:#bc0001;" /><rect x="650.576" y="1083.617" width="108.307" height="108.307" style="fill:#fbfbfb;" /><rect x="1517.03" y="1083.617" width="108.307" height="108.307" style="fill:#bc0001;" /><rect x="1733.644" y="1083.617" width="108.307" height="108.307" style="fill:#bc0001;" /><rect x="1950.257" y="1083.617" width="108.307" height="108.307" style="fill:#bc0001;" /><rect x="2058.564" y="1083.617" width="108.307" height="108.307" style="fill:#8c0101;" /><rect x="2166.871" y="1083.617" width="108.307" height="108.307" style="fill:#bc0001;" /><rect x="2275.178" y="1083.617" width="108.307" height="108.307" style="fill:#8c0101;" /><rect x="2383.485" y="1083.617" width="108.307" height="108.307" style="fill:#bc0001;" /><rect x="2491.791" y="1083.617" width="108.307" height="108.307" style="fill:#8c0101;" /><rect x="2600.098" y="1083.617" width="108.307" height="108.307" style="fill:#bc0001;" /><rect x="2708.405" y="1083.617" width="108.307" height="108.307" style="fill:#8c0101;" /><rect x="650.576" y="1191.923" width="108.307" height="216.614" style="fill:#bc0001;" /><rect x="1300.417" y="1191.923" width="108.307" height="108.307" style="fill:#8c0101;" /><rect x="1408.724" y="1191.923" width="108.307" height="541.534" style="fill:#bc0001;" /><rect x="1517.03" y="1191.923" width="108.307" height="108.307" style="fill:#8c0101;" /><rect x="1733.644" y="1191.923" width="108.307" height="108.307" style="fill:#8c0101;" /><rect x="1950.257" y="1191.923" width="108.307" height="108.307" style="fill:#8c0101;" /><rect x="2058.564" y="1191.923" width="108.307" height="108.307" style="fill:#bc0001;" /><rect x="2166.871" y="1191.923" width="108.307" height="108.307" style="fill:#8c0101;" /><rect x="2275.178" y="1191.923" width="108.307" height="108.307" style="fill:#bc0001;" /><rect x="2383.485" y="1191.923" width="108.307" height="108.307" style="fill:#8c0101;" /><rect x="2491.791" y="1191.923" width="108.307" height="108.307" style="fill:#bc0001;" /><rect x="2600.098" y="1191.923" width="108.307" height="108.307" style="fill:#8c0101;" /><rect x="2708.405" y="1191.923" width="108.307" height="108.307" style="fill:#f1f1f1;" /><rect x="1300.417" y="1300.23" width="108.307" height="108.307" style="fill:#bc0001;" /><rect x="1517.03" y="1300.23" width="108.307" height="108.307" style="fill:#bc0001;" /><rect x="1733.644" y="1300.23" width="108.307" height="108.307" style="fill:#bc0001;" /><rect x="1841.951" y="1300.23" width="108.307" height="108.307" style="fill:#8c0101;" /><rect x="1950.257" y="1300.23" width="108.307" height="108.307" style="fill:#bc0001;" /><rect x="2058.564" y="1300.23" width="108.307" height="108.307" style="fill:#8c0101;" /><rect x="2166.871" y="1300.23" width="108.307" height="108.307" style="fill:#bc0001;" /><rect x="2275.178" y="1300.23" width="108.307" height="108.307" style="fill:#8c0101;" /><rect x="2383.485" y="1300.23" width="108.307" height="108.307" style="fill:#bc0001;" /><rect x="2491.791" y="1300.23" width="108.307" height="1299.681" style="fill:#8c0101;" /><rect x="2600.098" y="1300.23" width="108.307" height="108.307" style="fill:#bc0001;" /><rect x="2708.405" y="1300.23" width="108.307" height="216.614" style="fill:#8c0101;" /><rect x="650.576" y="1408.537" width="108.307" height="108.307" style="fill:#fbfbfb;" /><rect x="975.496" y="1408.537" width="108.307" height="974.761" style="fill:#bc0001;" /><rect x="1083.803" y="1408.537" width="108.307" height="108.307" style="fill:#8c0101;" /><rect x="1300.417" y="1408.537" width="108.307" height="108.307" style="fill:#8c0101;" /><rect x="1517.03" y="1408.537" width="108.307" height="108.307" style="fill:#8c0101;" /><rect x="1733.644" y="1408.537" width="108.307" height="108.307" style="fill:#8c0101;" /><rect x="1841.951" y="1408.537" width="108.307" height="108.307" style="fill:#bc0001;" /><rect x="1950.257" y="1408.537" width="108.307" height="108.307" style="fill:#8c0101;" /><rect x="2058.564" y="1408.537" width="108.307" height="108.307" style="fill:#bc0001;" /><rect x="2166.871" y="1408.537" width="108.307" height="108.307" style="fill:#8c0101;" /><rect x="2275.178" y="1408.537" width="108.307" height="108.307" style="fill:#bc0001;" /><rect x="2383.485" y="1408.537" width="108.307" height="108.307" style="fill:#8c0101;" /><rect x="2600.098" y="1408.537" width="108.307" height="108.307" style="fill:#8c0101;" /><rect x="650.576" y="1516.844" width="108.307" height="216.614" style="fill:#bc0001;" /><rect x="1083.803" y="1516.844" width="108.307" height="108.307" style="fill:#bc0001;" /><rect x="1300.417" y="1516.844" width="108.307" height="108.307" style="fill:#bc0001;" /><rect x="1517.03" y="1516.844" width="108.307" height="108.307" style="fill:#bc0001;" /><rect x="1625.337" y="1516.844" width="108.307" height="108.307" style="fill:#8c0101;" /><rect x="1733.644" y="1516.844" width="108.307" height="108.307" style="fill:#bc0001;" /><rect x="1841.951" y="1516.844" width="108.307" height="108.307" style="fill:#8c0101;" /><rect x="1950.257" y="1516.844" width="108.307" height="108.307" style="fill:#bc0001;" /><rect x="2058.564" y="1516.844" width="108.307" height="108.307" style="fill:#8c0101;" /><rect x="2166.871" y="1516.844" width="108.307" height="108.307" style="fill:#bc0001;" /><rect x="2275.178" y="1516.844" width="108.307" height="1191.375" style="fill:#8c0101;" /><rect x="2383.485" y="1516.844" width="108.307" height="108.307" style="fill:#bc0001;" /><rect x="2600.098" y="1516.844" width="108.307" height="108.307" style="fill:#bc0001;" /><rect x="2708.405" y="1516.844" width="108.307" height="108.307" style="fill:#f1f1f1;" /><rect x="867.19" y="1625.15" width="108.307" height="108.307" style="fill:#8c0101;" /><rect x="1083.803" y="1625.15" width="108.307" height="108.307" style="fill:#8c0101;" /><rect x="1300.417" y="1625.15" width="108.307" height="108.307" style="fill:#8c0101;" /><rect x="1517.03" y="1625.15" width="108.307" height="108.307" style="fill:#8c0101;" /><rect x="1625.337" y="1625.15" width="108.307" height="108.307" style="fill:#bc0001;" /><rect x="1733.644" y="1625.15" width="108.307" height="108.307" style="fill:#8c0101;" /><rect x="1841.951" y="1625.15" width="108.307" height="108.307" style="fill:#bc0001;" /><rect x="1950.257" y="1625.15" width="108.307" height="108.307" style="fill:#8c0101;" /><rect x="2058.564" y="1625.15" width="108.307" height="108.307" style="fill:#bc0001;" /><rect x="2166.871" y="1625.15" width="108.307" height="108.307" style="fill:#8c0101;" /><rect x="2383.485" y="1625.15" width="108.307" height="108.307" style="fill:#8c0101;" /><rect x="2600.098" y="1625.15" width="216.614" height="108.307" style="fill:#8c0101;" /><rect x="650.576" y="1733.457" width="108.307" height="108.307" style="fill:#fbfbfb;" /><rect x="867.19" y="1733.457" width="108.307" height="108.307" style="fill:#bc0001;" /><rect x="1083.803" y="1733.457" width="108.307" height="108.307" style="fill:#bc0001;" /><rect x="1300.417" y="1733.457" width="108.307" height="108.307" style="fill:#bc0001;" /><rect x="1408.724" y="1733.457" width="108.307" height="108.307" style="fill:#8c0101;" /><rect x="1517.03" y="1733.457" width="108.307" height="108.307" style="fill:#bc0001;" /><rect x="1625.337" y="1733.457" width="108.307" height="108.307" style="fill:#8c0101;" /><rect x="1733.644" y="1733.457" width="108.307" height="108.307" style="fill:#bc0001;" /><rect x="1841.951" y="1733.457" width="108.307" height="108.307" style="fill:#8c0101;" /><rect x="1950.257" y="1733.457" width="108.307" height="108.307" style="fill:#bc0001;" /><rect x="2058.564" y="1733.457" width="108.307" height="974.761" style="fill:#8c0101;" /><rect x="2166.871" y="1733.457" width="108.307" height="108.307" style="fill:#bc0001;" /><rect x="2383.485" y="1733.457" width="108.307" height="108.307" style="fill:#bc0001;" /><rect x="2600.098" y="1733.457" width="108.307" height="108.307" style="fill:#bc0001;" /><rect x="2708.405" y="1733.457" width="108.307" height="108.307" style="fill:#f1f1f1;" /><rect x="650.576" y="1841.764" width="108.307" height="108.307" style="fill:#8c0101;" /><rect x="867.19" y="1841.764" width="108.307" height="108.307" style="fill:#8c0101;" /><rect x="1083.803" y="1841.764" width="108.307" height="108.307" style="fill:#8c0101;" /><rect x="1300.417" y="1841.764" width="108.307" height="108.307" style="fill:#8c0101;" /><rect x="1408.724" y="1841.764" width="108.307" height="108.307" style="fill:#bc0001;" /><rect x="1517.03" y="1841.764" width="108.307" height="108.307" style="fill:#8c0101;" /><rect x="1625.337" y="1841.764" width="108.307" height="108.307" style="fill:#bc0001;" /><rect x="1733.644" y="1841.764" width="108.307" height="108.307" style="fill:#8c0101;" /><rect x="1841.951" y="1841.764" width="108.307" height="108.307" style="fill:#bc0001;" /><rect x="1950.257" y="1841.764" width="108.307" height="108.307" style="fill:#8c0101;" /><rect x="2166.871" y="1841.764" width="108.307" height="108.307" style="fill:#8c0101;" /><rect x="2383.485" y="1841.764" width="108.307" height="108.307" style="fill:#8c0101;" /><rect x="2600.098" y="1841.764" width="216.614" height="216.614" style="fill:#8c0101;" /><rect x="650.576" y="1950.071" width="108.307" height="108.307" style="fill:#bc0001;" /><rect x="867.19" y="1950.071" width="108.307" height="108.307" style="fill:#bc0001;" /><rect x="1083.803" y="1950.071" width="108.307" height="108.307" style="fill:#bc0001;" /><rect x="1300.417" y="1950.071" width="108.307" height="108.307" style="fill:#bc0001;" /><rect x="1408.724" y="1950.071" width="108.307" height="108.307" style="fill:#8c0101;" /><rect x="1517.03" y="1950.071" width="108.307" height="108.307" style="fill:#bc0001;" /><rect x="1625.337" y="1950.071" width="108.307" height="108.307" style="fill:#8c0101;" /><rect x="1733.644" y="1950.071" width="108.307" height="108.307" style="fill:#bc0001;" /><rect x="1841.951" y="1950.071" width="108.307" height="649.841" style="fill:#8c0101;" /><rect x="1950.257" y="1950.071" width="108.307" height="108.307" style="fill:#bc0001;" /><rect x="2166.871" y="1950.071" width="108.307" height="108.307" style="fill:#bc0001;" /><rect x="2383.485" y="1950.071" width="108.307" height="108.307" style="fill:#bc0001;" /><rect x="650.576" y="2058.378" width="108.307" height="108.307" style="fill:#fbfbfb;" /><rect x="867.19" y="2058.378" width="108.307" height="108.307" style="fill:#8c0101;" /><rect x="1083.803" y="2058.378" width="108.307" height="108.307" style="fill:#8c0101;" /><rect x="1300.417" y="2058.378" width="108.307" height="108.307" style="fill:#8c0101;" /><rect x="1408.724" y="2058.378" width="108.307" height="108.307" style="fill:#bc0001;" /><rect x="1517.03" y="2058.378" width="108.307" height="108.307" style="fill:#8c0101;" /><rect x="1625.337" y="2058.378" width="108.307" height="108.307" style="fill:#bc0001;" /><rect x="1733.644" y="2058.378" width="108.307" height="108.307" style="fill:#8c0101;" /><rect x="1950.257" y="2058.378" width="108.307" height="108.307" style="fill:#8c0101;" /><rect x="2166.871" y="2058.378" width="108.307" height="108.307" style="fill:#8c0101;" /><rect x="2383.485" y="2058.378" width="108.307" height="108.307" style="fill:#8c0101;" /><rect x="2600.098" y="2058.378" width="108.307" height="649.841" style="fill:#8c0101;" /><rect x="2708.405" y="2058.378" width="108.307" height="108.307" style="fill:#f1f1f1;" /><rect x="650.576" y="2166.684" width="108.307" height="108.307" style="fill:#bc0001;" /><rect x="867.19" y="2166.684" width="108.307" height="108.307" style="fill:#bc0001;" /><rect x="1083.803" y="2166.684" width="108.307" height="108.307" style="fill:#bc0001;" /><rect x="1192.11" y="2166.684" width="108.307" height="108.307" style="fill:#8c0101;" /><rect x="1300.417" y="2166.684" width="108.307" height="108.307" style="fill:#bc0001;" /><rect x="1408.724" y="2166.684" width="108.307" height="108.307" style="fill:#8c0101;" /><rect x="1517.03" y="2166.684" width="108.307" height="108.307" style="fill:#bc0001;" /><rect x="1625.337" y="2166.684" width="108.307" height="541.534" style="fill:#8c0101;" /><rect x="1733.644" y="2166.684" width="108.307" height="108.307" style="fill:#bc0001;" /><rect x="1950.257" y="2166.684" width="108.307" height="108.307" style="fill:#bc0001;" /><rect x="2166.871" y="2166.684" width="108.307" height="108.307" style="fill:#bc0001;" /><rect x="2383.485" y="2166.684" width="108.307" height="108.307" style="fill:#bc0001;" /><rect x="2708.405" y="2166.684" width="108.307" height="216.614" style="fill:#8c0101;" /><rect x="650.576" y="2274.991" width="108.307" height="108.307" style="fill:#8c0101;" /><rect x="867.19" y="2274.991" width="108.307" height="108.307" style="fill:#8c0101;" /><rect x="1083.803" y="2274.991" width="108.307" height="108.307" style="fill:#8c0101;" /><rect x="1192.11" y="2274.991" width="108.307" height="108.307" style="fill:#bc0001;" /><rect x="1300.417" y="2274.991" width="108.307" height="108.307" style="fill:#8c0101;" /><rect x="1408.724" y="2274.991" width="108.307" height="108.307" style="fill:#bc0001;" /><rect x="1517.03" y="2274.991" width="108.307" height="108.307" style="fill:#8c0101;" /><rect x="1733.644" y="2274.991" width="108.307" height="108.307" style="fill:#8c0101;" /><rect x="1950.257" y="2274.991" width="108.307" height="108.307" style="fill:#8c0101;" /><rect x="2166.871" y="2274.991" width="108.307" height="108.307" style="fill:#8c0101;" /><rect x="2383.485" y="2274.991" width="108.307" height="433.227" style="fill:#8c0101;" /><rect x="650.576" y="2383.298" width="108.307" height="108.307" style="fill:#fbfbfb;" /><rect x="867.19" y="2383.298" width="108.307" height="108.307" style="fill:#bc0001;" /><rect x="975.496" y="2383.298" width="108.307" height="108.307" style="fill:#8c0101;" /><rect x="1083.803" y="2383.298" width="108.307" height="108.307" style="fill:#bc0001;" /><rect x="1192.11" y="2383.298" width="108.307" height="108.307" style="fill:#8c0101;" /><rect x="1300.417" y="2383.298" width="108.307" height="108.307" style="fill:#bc0001;" /><rect x="1408.724" y="2383.298" width="108.307" height="324.92" style="fill:#8c0101;" /><rect x="1517.03" y="2383.298" width="108.307" height="108.307" style="fill:#bc0001;" /><rect x="1733.644" y="2383.298" width="108.307" height="108.307" style="fill:#bc0001;" /><rect x="1950.257" y="2383.298" width="108.307" height="108.307" style="fill:#bc0001;" /><rect x="2166.871" y="2383.298" width="108.307" height="108.307" style="fill:#bc0001;" /><rect x="2708.405" y="2383.298" width="108.307" height="108.307" style="fill:#f1f1f1;" /><rect x="650.576" y="2491.605" width="108.307" height="108.307" style="fill:#8c0101;" /><rect x="867.19" y="2491.605" width="108.307" height="108.307" style="fill:#8c0101;" /><rect x="975.496" y="2491.605" width="108.307" height="108.307" style="fill:#bc0001;" /><rect x="1083.803" y="2491.605" width="108.307" height="108.307" style="fill:#8c0101;" /><rect x="1192.11" y="2491.605" width="108.307" height="108.307" style="fill:#bc0001;" /><rect x="1300.417" y="2491.605" width="108.307" height="108.307" style="fill:#8c0101;" /><rect x="1517.03" y="2491.605" width="108.307" height="108.307" style="fill:#8c0101;" /><rect x="1733.644" y="2491.605" width="108.307" height="108.307" style="fill:#8c0101;" /><rect x="1950.257" y="2491.605" width="108.307" height="108.307" style="fill:#8c0101;" /><rect x="2166.871" y="2491.605" width="108.307" height="108.307" style="fill:#8c0101;" /><rect x="2708.405" y="2491.605" width="108.307" height="108.307" style="fill:#8c0101;" /><rect x="3141.632" y="2491.605" width="108.307" height="324.92" style="fill:#d7d7d7;" /><rect x="650.576" y="2599.911" width="108.307" height="108.307" style="fill:#bc0001;" /><rect x="758.883" y="2599.911" width="108.307" height="108.307" style="fill:#8c0101;" /><rect x="867.19" y="2599.911" width="108.307" height="216.614" style="fill:#f1f1f1;" /><rect x="975.496" y="2599.911" width="108.307" height="108.307" style="fill:#8c0101;" /><rect x="1083.803" y="2599.911" width="108.307" height="108.307" style="fill:#bc0001;" /><rect x="1192.11" y="2599.911" width="108.307" height="216.614" style="fill:#f1f1f1;" /><rect x="1300.417" y="2599.911" width="108.307" height="108.307" style="fill:#bc0001;" /><rect x="1517.03" y="2599.911" width="108.307" height="216.614" style="fill:#f1f1f1;" /><rect x="1733.644" y="2599.911" width="108.307" height="108.307" style="fill:#bc0001;" /><rect x="1841.951" y="2599.911" width="108.307" height="216.614" style="fill:#f1f1f1;" /><rect x="1950.257" y="2599.911" width="108.307" height="108.307" style="fill:#bc0001;" /><rect x="2166.871" y="2599.911" width="108.307" height="216.614" style="fill:#f1f1f1;" /><rect x="2491.791" y="2599.911" width="108.307" height="216.614" style="fill:#f1f1f1;" /><rect x="2708.405" y="2599.911" width="108.307" height="216.614" style="fill:#f1f1f1;" /><rect x="650.576" y="2708.218" width="216.614" height="108.307" style="fill:#f1f1f1;" /><rect x="975.496" y="2708.218" width="216.614" height="108.307" style="fill:#f1f1f1;" /><rect x="1300.417" y="2708.218" width="216.614" height="108.307" style="fill:#f1f1f1;" /><rect x="1625.337" y="2708.218" width="216.614" height="108.307" style="fill:#f1f1f1;" /><rect x="1950.257" y="2708.218" width="216.614" height="108.307" style="fill:#f1f1f1;" /><rect x="2275.178" y="2708.218" width="216.614" height="108.307" style="fill:#f1f1f1;" /><rect x="2600.098" y="2708.218" width="108.307" height="108.307" style="fill:#f1f1f1;" /><rect x="2816.712" y="2708.218" width="108.307" height="216.614" style="fill:#fbfbfb;" /><rect x="3033.325" y="2708.218" width="108.307" height="216.614" style="fill:#d7d7d7;" /><rect x="650.576" y="2816.525" width="2166.136" height="216.614" style="fill:#fbfbfb;" /><rect x="2925.018" y="2816.525" width="108.307" height="216.614" style="fill:#d7d7d7;" /><rect x="2816.712" y="2924.832" width="108.307" height="216.614" style="fill:#d7d7d7;" /><rect x="650.576" y="3033.139" width="2057.829" height="108.307" style="fill:#fbfbfb;" /><rect x="2708.405" y="3033.139" width="108.307" height="216.614" style="fill:#d7d7d7;" /><rect x="650.576" y="3141.445" width="1841.215" height="108.307" style="fill:#fbfbfb;" /><rect x="2491.791" y="3141.445" width="216.614" height="108.307" style="fill:#d7d7d7;" /><rect x="867.19" y="3249.752" width="1732.908" height="108.307" style="fill:#d7d7d7;" /></svg>