<?xml version="1.0" encoding="UTF-8" ?>
<svg viewBox="0 0 32 32" version="1.1" width="512" height="512" xmlns="http://www.w3.org/2000/svg" shape-rendering="crispEdges">
<rect x="7" y="1" width="18" height="1" fill="#010015" />
<rect x="5" y="2" width="3" height="1" fill="#010015" />
<rect x="8" y="2" width="16" height="1" fill="#524CFF" />
<rect x="24" y="2" width="3" height="1" fill="#010015" />
<rect x="4" y="3" width="2" height="1" fill="#010015" />
<rect x="6" y="3" width="3" height="1" fill="#524CFF" />
<rect x="9" y="3" width="17" height="4" fill="#100C5A" />
<rect x="26" y="3" width="2" height="1" fill="#010015" />
<rect x="3" y="4" width="2" height="1" fill="#010015" />
<rect x="5" y="4" width="2" height="1" fill="#524CFF" />
<rect x="7" y="4" width="2" height="7" fill="#100C5A" />
<rect x="26" y="4" width="1" height="22" fill="#100C5A" />
<rect x="27" y="4" width="2" height="1" fill="#010015" />
<rect x="2" y="5" width="2" height="1" fill="#010015" />
<rect x="4" y="5" width="2" height="1" fill="#524CFF" />
<rect x="6" y="5" width="1" height="6" fill="#100C5A" />
<rect x="27" y="5" width="1" height="20" fill="#100C5A" />
<rect x="28" y="5" width="2" height="1" fill="#010015" />
<rect x="2" y="6" width="1" height="2" fill="#010015" />
<rect x="3" y="6" width="2" height="1" fill="#524CFF" />
<rect x="5" y="6" width="1" height="22" fill="#100C5A" />
<rect x="28" y="6" width="1" height="17" fill="#100C5A" />
<rect x="29" y="6" width="1" height="2" fill="#010015" />
<rect x="1" y="7" width="1" height="18" fill="#010015" />
<rect x="3" y="7" width="1" height="2" fill="#524CFF" />
<rect x="4" y="7" width="1" height="20" fill="#100C5A" />
<rect x="9" y="7" width="8" height="3" fill="#100C5A" />
<rect x="17" y="7" width="3" height="1" fill="#6862FF" />
<rect x="20" y="7" width="6" height="5" fill="#100C5A" />
<rect x="30" y="7" width="1" height="18" fill="#010015" />
<rect x="2" y="8" width="1" height="16" fill="#524CFF" />
<rect x="17" y="8" width="1" height="2" fill="#6862FF" />
<rect x="18" y="8" width="2" height="2" fill="#3F38FF" />
<rect x="29" y="8" width="1" height="16" fill="#030043" />
<rect x="3" y="9" width="1" height="17" fill="#100C5A" />
<rect x="9" y="10" width="4" height="1" fill="#6862FF" />
<rect x="13" y="10" width="3" height="1" fill="#100C5A" />
<rect x="16" y="10" width="1" height="5" fill="#6862FF" />
<rect x="17" y="10" width="2" height="2" fill="#3F38FF" />
<rect x="19" y="10" width="1" height="6" fill="#100C5A" />
<rect x="6" y="11" width="4" height="1" fill="#6862FF" />
<rect x="10" y="11" width="4" height="2" fill="#3F38FF" />
<rect x="14" y="11" width="2" height="2" fill="#100C5A" />
<rect x="6" y="12" width="1" height="1" fill="#6862FF" />
<rect x="7" y="12" width="3" height="1" fill="#3F38FF" />
<rect x="17" y="12" width="1" height="6" fill="#3F38FF" />
<rect x="18" y="12" width="1" height="3" fill="#100C5A" />
<rect x="20" y="12" width="2" height="5" fill="#100C5A" />
<rect x="22" y="12" width="1" height="5" fill="#6862FF" />
<rect x="23" y="12" width="1" height="7" fill="#3F38FF" />
<rect x="24" y="12" width="2" height="15" fill="#100C5A" />
<rect x="6" y="13" width="6" height="16" fill="#100C5A" />
<rect x="12" y="13" width="3" height="2" fill="#3F38FF" />
<rect x="15" y="13" width="1" height="2" fill="#100C5A" />
<rect x="12" y="15" width="1" height="14" fill="#100C5A" />
<rect x="13" y="15" width="4" height="2" fill="#3F38FF" />
<rect x="18" y="15" width="1" height="1" fill="#6862FF" />
<rect x="18" y="16" width="1" height="3" fill="#3F38FF" />
<rect x="19" y="16" width="1" height="1" fill="#6862FF" />
<rect x="13" y="17" width="1" height="12" fill="#100C5A" />
<rect x="14" y="17" width="3" height="1" fill="#3F38FF" />
<rect x="19" y="17" width="1" height="3" fill="#3F38FF" />
<rect x="20" y="17" width="2" height="1" fill="#6862FF" />
<rect x="22" y="17" width="1" height="3" fill="#3F38FF" />
<rect x="14" y="18" width="2" height="3" fill="#3F38FF" />
<rect x="16" y="18" width="1" height="4" fill="#6862FF" />
<rect x="17" y="18" width="1" height="4" fill="#100C5A" />
<rect x="20" y="18" width="2" height="2" fill="#3F38FF" />
<rect x="18" y="19" width="1" height="10" fill="#100C5A" />
<rect x="23" y="19" width="1" height="9" fill="#100C5A" />
<rect x="19" y="20" width="4" height="9" fill="#100C5A" />
<rect x="14" y="21" width="1" height="8" fill="#100C5A" />
<rect x="15" y="21" width="1" height="5" fill="#3F38FF" />
<rect x="16" y="22" width="1" height="4" fill="#3F38FF" />
<rect x="17" y="22" width="1" height="4" fill="#6862FF" />
<rect x="28" y="23" width="1" height="3" fill="#030043" />
<rect x="2" y="24" width="1" height="3" fill="#010015" />
<rect x="29" y="24" width="1" height="3" fill="#010015" />
<rect x="27" y="25" width="1" height="2" fill="#030043" />
<rect x="3" y="26" width="1" height="2" fill="#010015" />
<rect x="15" y="26" width="3" height="3" fill="#100C5A" />
<rect x="26" y="26" width="1" height="2" fill="#030043" />
<rect x="28" y="26" width="1" height="2" fill="#010015" />
<rect x="4" y="27" width="1" height="2" fill="#010015" />
<rect x="24" y="27" width="1" height="1" fill="#100C5A" />
<rect x="25" y="27" width="1" height="2" fill="#030043" />
<rect x="27" y="27" width="1" height="2" fill="#010015" />
<rect x="5" y="28" width="1" height="2" fill="#010015" />
<rect x="23" y="28" width="2" height="1" fill="#030043" />
<rect x="26" y="28" width="1" height="2" fill="#010015" />
<rect x="6" y="29" width="2" height="1" fill="#010015" />
<rect x="8" y="29" width="16" height="1" fill="#030043" />
<rect x="24" y="29" width="2" height="1" fill="#010015" />
<rect x="7" y="30" width="18" height="1" fill="#010015" />
</svg>