<?xml version="1.0" encoding="UTF-8" ?>
<svg viewBox="0 0 32 32" version="1.1" width="512" height="512" xmlns="http://www.w3.org/2000/svg" shape-rendering="crispEdges">
<rect x="7" y="1" width="18" height="1" fill="#008FFF" />
<rect x="5" y="2" width="3" height="1" fill="#008FFF" />
<rect x="8" y="2" width="16" height="2" fill="#001438" />
<rect x="24" y="2" width="3" height="1" fill="#008FFF" />
<rect x="4" y="3" width="2" height="1" fill="#008FFF" />
<rect x="6" y="3" width="2" height="7" fill="#001438" />
<rect x="24" y="3" width="2" height="7" fill="#001438" />
<rect x="26" y="3" width="2" height="1" fill="#008FFF" />
<rect x="3" y="4" width="2" height="1" fill="#008FFF" />
<rect x="5" y="4" width="1" height="7" fill="#001438" />
<rect x="8" y="4" width="3" height="1" fill="#001438" />
<rect x="11" y="4" width="3" height="1" fill="#50D0FF" />
<rect x="14" y="4" width="5" height="1" fill="#001438" />
<rect x="19" y="4" width="3" height="1" fill="#50D0FF" />
<rect x="22" y="4" width="2" height="1" fill="#001438" />
<rect x="26" y="4" width="1" height="6" fill="#001438" />
<rect x="27" y="4" width="2" height="1" fill="#008FFF" />
<rect x="2" y="5" width="2" height="1" fill="#008FFF" />
<rect x="4" y="5" width="1" height="22" fill="#001438" />
<rect x="8" y="5" width="2" height="4" fill="#001438" />
<rect x="10" y="5" width="1" height="4" fill="#50D0FF" />
<rect x="11" y="5" width="3" height="5" fill="#1C92FF" />
<rect x="14" y="5" width="1" height="2" fill="#50D0FF" />
<rect x="15" y="5" width="3" height="1" fill="#001438" />
<rect x="18" y="5" width="1" height="1" fill="#50D0FF" />
<rect x="19" y="5" width="3" height="5" fill="#1C92FF" />
<rect x="22" y="5" width="1" height="4" fill="#50D0FF" />
<rect x="23" y="5" width="1" height="4" fill="#001438" />
<rect x="27" y="5" width="1" height="6" fill="#001438" />
<rect x="28" y="5" width="2" height="1" fill="#008FFF" />
<rect x="2" y="6" width="1" height="2" fill="#008FFF" />
<rect x="3" y="6" width="1" height="20" fill="#001438" />
<rect x="15" y="6" width="3" height="1" fill="#50D0FF" />
<rect x="18" y="6" width="1" height="3" fill="#1C92FF" />
<rect x="28" y="6" width="1" height="20" fill="#001438" />
<rect x="29" y="6" width="1" height="2" fill="#008FFF" />
<rect x="1" y="7" width="1" height="18" fill="#008FFF" />
<rect x="14" y="7" width="4" height="2" fill="#1C92FF" />
<rect x="30" y="7" width="1" height="18" fill="#008FFF" />
<rect x="2" y="8" width="1" height="16" fill="#001438" />
<rect x="29" y="8" width="1" height="16" fill="#001438" />
<rect x="8" y="9" width="1" height="1" fill="#001438" />
<rect x="9" y="9" width="1" height="1" fill="#50D0FF" />
<rect x="10" y="9" width="1" height="4" fill="#1C92FF" />
<rect x="14" y="9" width="5" height="1" fill="#0063CA" />
<rect x="22" y="9" width="1" height="4" fill="#1C92FF" />
<rect x="23" y="9" width="1" height="1" fill="#50D0FF" />
<rect x="6" y="10" width="3" height="1" fill="#50D0FF" />
<rect x="9" y="10" width="1" height="13" fill="#1C92FF" />
<rect x="11" y="10" width="2" height="1" fill="#1C92FF" />
<rect x="13" y="10" width="1" height="1" fill="#0063CA" />
<rect x="14" y="10" width="5" height="11" fill="#001438" />
<rect x="19" y="10" width="1" height="1" fill="#0063CA" />
<rect x="20" y="10" width="2" height="1" fill="#1C92FF" />
<rect x="23" y="10" width="1" height="13" fill="#1C92FF" />
<rect x="24" y="10" width="3" height="1" fill="#50D0FF" />
<rect x="5" y="11" width="1" height="3" fill="#50D0FF" />
<rect x="6" y="11" width="3" height="3" fill="#1C92FF" />
<rect x="11" y="11" width="1" height="1" fill="#1C92FF" />
<rect x="12" y="11" width="1" height="1" fill="#0063CA" />
<rect x="13" y="11" width="1" height="9" fill="#001438" />
<rect x="19" y="11" width="1" height="9" fill="#001438" />
<rect x="20" y="11" width="1" height="1" fill="#0063CA" />
<rect x="21" y="11" width="1" height="1" fill="#1C92FF" />
<rect x="24" y="11" width="3" height="3" fill="#1C92FF" />
<rect x="27" y="11" width="1" height="3" fill="#50D0FF" />
<rect x="11" y="12" width="1" height="1" fill="#0063CA" />
<rect x="12" y="12" width="1" height="7" fill="#001438" />
<rect x="20" y="12" width="1" height="7" fill="#001438" />
<rect x="21" y="12" width="1" height="1" fill="#0063CA" />
<rect x="10" y="13" width="1" height="5" fill="#0063CA" />
<rect x="11" y="13" width="1" height="5" fill="#001438" />
<rect x="21" y="13" width="1" height="5" fill="#001438" />
<rect x="22" y="13" width="1" height="5" fill="#0063CA" />
<rect x="5" y="14" width="1" height="5" fill="#001438" />
<rect x="6" y="14" width="1" height="1" fill="#50D0FF" />
<rect x="7" y="14" width="2" height="1" fill="#1C92FF" />
<rect x="24" y="14" width="2" height="1" fill="#1C92FF" />
<rect x="26" y="14" width="1" height="1" fill="#50D0FF" />
<rect x="27" y="14" width="1" height="5" fill="#001438" />
<rect x="6" y="15" width="1" height="3" fill="#001438" />
<rect x="7" y="15" width="1" height="3" fill="#50D0FF" />
<rect x="8" y="15" width="1" height="7" fill="#1C92FF" />
<rect x="24" y="15" width="1" height="7" fill="#1C92FF" />
<rect x="25" y="15" width="1" height="3" fill="#50D0FF" />
<rect x="26" y="15" width="1" height="3" fill="#001438" />
<rect x="6" y="18" width="1" height="1" fill="#50D0FF" />
<rect x="7" y="18" width="1" height="4" fill="#1C92FF" />
<rect x="10" y="18" width="1" height="6" fill="#1C92FF" />
<rect x="11" y="18" width="1" height="1" fill="#0063CA" />
<rect x="21" y="18" width="1" height="1" fill="#0063CA" />
<rect x="22" y="18" width="1" height="6" fill="#1C92FF" />
<rect x="25" y="18" width="1" height="4" fill="#1C92FF" />
<rect x="26" y="18" width="1" height="1" fill="#50D0FF" />
<rect x="5" y="19" width="1" height="3" fill="#50D0FF" />
<rect x="6" y="19" width="1" height="3" fill="#1C92FF" />
<rect x="11" y="19" width="1" height="8" fill="#1C92FF" />
<rect x="12" y="19" width="1" height="1" fill="#0063CA" />
<rect x="20" y="19" width="1" height="1" fill="#0063CA" />
<rect x="21" y="19" width="1" height="8" fill="#1C92FF" />
<rect x="26" y="19" width="1" height="3" fill="#1C92FF" />
<rect x="27" y="19" width="1" height="3" fill="#50D0FF" />
<rect x="12" y="20" width="1" height="7" fill="#1C92FF" />
<rect x="13" y="20" width="1" height="1" fill="#0063CA" />
<rect x="19" y="20" width="1" height="1" fill="#0063CA" />
<rect x="20" y="20" width="1" height="7" fill="#1C92FF" />
<rect x="13" y="21" width="1" height="6" fill="#1C92FF" />
<rect x="14" y="21" width="5" height="1" fill="#0063CA" />
<rect x="19" y="21" width="1" height="6" fill="#1C92FF" />
<rect x="5" y="22" width="1" height="6" fill="#001438" />
<rect x="6" y="22" width="3" height="1" fill="#50D0FF" />
<rect x="14" y="22" width="5" height="3" fill="#1C92FF" />
<rect x="24" y="22" width="3" height="1" fill="#50D0FF" />
<rect x="27" y="22" width="1" height="5" fill="#001438" />
<rect x="6" y="23" width="3" height="6" fill="#001438" />
<rect x="9" y="23" width="1" height="1" fill="#50D0FF" />
<rect x="23" y="23" width="1" height="1" fill="#50D0FF" />
<rect x="24" y="23" width="3" height="5" fill="#001438" />
<rect x="2" y="24" width="1" height="3" fill="#008FFF" />
<rect x="9" y="24" width="1" height="6" fill="#001438" />
<rect x="10" y="24" width="1" height="3" fill="#50D0FF" />
<rect x="22" y="24" width="1" height="3" fill="#50D0FF" />
<rect x="23" y="24" width="1" height="6" fill="#001438" />
<rect x="29" y="24" width="1" height="3" fill="#008FFF" />
<rect x="14" y="25" width="1" height="1" fill="#1C92FF" />
<rect x="15" y="25" width="3" height="1" fill="#50D0FF" />
<rect x="18" y="25" width="1" height="1" fill="#1C92FF" />
<rect x="3" y="26" width="1" height="2" fill="#008FFF" />
<rect x="14" y="26" width="1" height="1" fill="#50D0FF" />
<rect x="15" y="26" width="3" height="4" fill="#001438" />
<rect x="18" y="26" width="1" height="1" fill="#50D0FF" />
<rect x="28" y="26" width="1" height="2" fill="#008FFF" />
<rect x="4" y="27" width="1" height="2" fill="#008FFF" />
<rect x="10" y="27" width="1" height="3" fill="#001438" />
<rect x="11" y="27" width="3" height="1" fill="#50D0FF" />
<rect x="14" y="27" width="1" height="3" fill="#001438" />
<rect x="18" y="27" width="1" height="3" fill="#001438" />
<rect x="19" y="27" width="3" height="1" fill="#50D0FF" />
<rect x="22" y="27" width="1" height="3" fill="#001438" />
<rect x="27" y="27" width="1" height="2" fill="#008FFF" />
<rect x="5" y="28" width="1" height="2" fill="#008FFF" />
<rect x="11" y="28" width="3" height="2" fill="#001438" />
<rect x="19" y="28" width="3" height="2" fill="#001438" />
<rect x="24" y="28" width="2" height="1" fill="#001438" />
<rect x="26" y="28" width="1" height="2" fill="#008FFF" />
<rect x="6" y="29" width="2" height="1" fill="#008FFF" />
<rect x="8" y="29" width="1" height="1" fill="#001438" />
<rect x="24" y="29" width="2" height="1" fill="#008FFF" />
<rect x="7" y="30" width="18" height="1" fill="#008FFF" />
</svg>