<?xml version="1.0" encoding="UTF-8" ?>
<svg viewBox="0 0 32 32" version="1.1" width="512" height="512" xmlns="http://www.w3.org/2000/svg" shape-rendering="crispEdges">
<rect x="7" y="1" width="18" height="1" fill="#25292F" />
<rect x="5" y="2" width="3" height="1" fill="#25292F" />
<rect x="8" y="2" width="16" height="2" fill="#858B90" />
<rect x="24" y="2" width="3" height="1" fill="#25292F" />
<rect x="4" y="3" width="2" height="1" fill="#25292F" />
<rect x="6" y="3" width="2" height="3" fill="#858B90" />
<rect x="24" y="3" width="2" height="3" fill="#858B90" />
<rect x="26" y="3" width="2" height="1" fill="#25292F" />
<rect x="3" y="4" width="2" height="1" fill="#25292F" />
<rect x="5" y="4" width="1" height="4" fill="#858B90" />
<rect x="8" y="4" width="2" height="1" fill="#858B90" />
<rect x="10" y="4" width="12" height="2" fill="#F7F9FB" />
<rect x="22" y="4" width="2" height="1" fill="#858B90" />
<rect x="26" y="4" width="1" height="4" fill="#858B90" />
<rect x="27" y="4" width="2" height="1" fill="#25292F" />
<rect x="2" y="5" width="2" height="1" fill="#25292F" />
<rect x="4" y="5" width="1" height="5" fill="#858B90" />
<rect x="8" y="5" width="2" height="4" fill="#F7F9FB" />
<rect x="22" y="5" width="2" height="4" fill="#F7F9FB" />
<rect x="27" y="5" width="1" height="5" fill="#858B90" />
<rect x="28" y="5" width="2" height="1" fill="#25292F" />
<rect x="2" y="6" width="1" height="2" fill="#25292F" />
<rect x="3" y="6" width="1" height="20" fill="#858B90" />
<rect x="6" y="6" width="1" height="1" fill="#858B90" />
<rect x="7" y="6" width="1" height="5" fill="#F7F9FB" />
<rect x="10" y="6" width="3" height="1" fill="#F7F9FB" />
<rect x="13" y="6" width="3" height="1" fill="#3EFF90" />
<rect x="16" y="6" width="3" height="1" fill="#54C2FF" />
<rect x="19" y="6" width="3" height="1" fill="#F7F9FB" />
<rect x="24" y="6" width="1" height="5" fill="#F7F9FB" />
<rect x="25" y="6" width="1" height="1" fill="#858B90" />
<rect x="28" y="6" width="1" height="20" fill="#858B90" />
<rect x="29" y="6" width="1" height="2" fill="#25292F" />
<rect x="1" y="7" width="1" height="18" fill="#25292F" />
<rect x="6" y="7" width="1" height="6" fill="#F7F9FB" />
<rect x="10" y="7" width="1" height="1" fill="#F7F9FB" />
<rect x="11" y="7" width="3" height="1" fill="#3EFF90" />
<rect x="14" y="7" width="2" height="7" fill="#04FF6D" />
<rect x="16" y="7" width="2" height="7" fill="#21B0FF" />
<rect x="18" y="7" width="3" height="1" fill="#54C2FF" />
<rect x="21" y="7" width="1" height="1" fill="#F7F9FB" />
<rect x="25" y="7" width="1" height="6" fill="#F7F9FB" />
<rect x="30" y="7" width="1" height="18" fill="#25292F" />
<rect x="2" y="8" width="1" height="16" fill="#858B90" />
<rect x="5" y="8" width="1" height="16" fill="#F7F9FB" />
<rect x="10" y="8" width="2" height="1" fill="#3EFF90" />
<rect x="12" y="8" width="2" height="8" fill="#04FF6D" />
<rect x="18" y="8" width="2" height="8" fill="#21B0FF" />
<rect x="20" y="8" width="2" height="1" fill="#54C2FF" />
<rect x="26" y="8" width="1" height="16" fill="#F7F9FB" />
<rect x="29" y="8" width="1" height="16" fill="#858B90" />
<rect x="8" y="9" width="1" height="1" fill="#F7F9FB" />
<rect x="9" y="9" width="2" height="1" fill="#3EFF90" />
<rect x="11" y="9" width="1" height="7" fill="#04FF6D" />
<rect x="20" y="9" width="1" height="7" fill="#21B0FF" />
<rect x="21" y="9" width="2" height="1" fill="#54C2FF" />
<rect x="23" y="9" width="1" height="1" fill="#F7F9FB" />
<rect x="4" y="10" width="1" height="12" fill="#F7F9FB" />
<rect x="8" y="10" width="2" height="1" fill="#3EFF90" />
<rect x="10" y="10" width="1" height="6" fill="#04FF6D" />
<rect x="21" y="10" width="1" height="6" fill="#21B0FF" />
<rect x="22" y="10" width="2" height="1" fill="#54C2FF" />
<rect x="27" y="10" width="1" height="12" fill="#F7F9FB" />
<rect x="7" y="11" width="2" height="1" fill="#3EFF90" />
<rect x="9" y="11" width="1" height="5" fill="#04FF6D" />
<rect x="22" y="11" width="1" height="5" fill="#21B0FF" />
<rect x="23" y="11" width="2" height="1" fill="#54C2FF" />
<rect x="7" y="12" width="1" height="2" fill="#3EFF90" />
<rect x="8" y="12" width="1" height="4" fill="#04FF6D" />
<rect x="23" y="12" width="1" height="4" fill="#21B0FF" />
<rect x="24" y="12" width="1" height="2" fill="#54C2FF" />
<rect x="6" y="13" width="1" height="3" fill="#3EFF90" />
<rect x="25" y="13" width="1" height="3" fill="#54C2FF" />
<rect x="7" y="14" width="1" height="2" fill="#04FF6D" />
<rect x="14" y="14" width="1" height="1" fill="#04FF6D" />
<rect x="15" y="14" width="2" height="1" fill="#F7F9FB" />
<rect x="17" y="14" width="1" height="1" fill="#21B0FF" />
<rect x="24" y="14" width="1" height="2" fill="#21B0FF" />
<rect x="14" y="15" width="1" height="2" fill="#F7F9FB" />
<rect x="15" y="15" width="2" height="2" fill="#5E6E72" />
<rect x="17" y="15" width="1" height="2" fill="#F7F9FB" />
<rect x="6" y="16" width="1" height="3" fill="#FFCA6E" />
<rect x="7" y="16" width="7" height="2" fill="#FFBA42" />
<rect x="18" y="16" width="7" height="2" fill="#AF2DE5" />
<rect x="25" y="16" width="1" height="3" fill="#C25EEA" />
<rect x="14" y="17" width="1" height="8" fill="#FFBA42" />
<rect x="15" y="17" width="2" height="1" fill="#F7F9FB" />
<rect x="17" y="17" width="1" height="8" fill="#AF2DE5" />
<rect x="7" y="18" width="1" height="3" fill="#FFCA6E" />
<rect x="8" y="18" width="6" height="2" fill="#FFBA42" />
<rect x="15" y="18" width="1" height="7" fill="#FFBA42" />
<rect x="16" y="18" width="1" height="7" fill="#AF2DE5" />
<rect x="18" y="18" width="6" height="2" fill="#AF2DE5" />
<rect x="24" y="18" width="1" height="3" fill="#C25EEA" />
<rect x="6" y="19" width="1" height="6" fill="#F7F9FB" />
<rect x="25" y="19" width="1" height="6" fill="#F7F9FB" />
<rect x="8" y="20" width="1" height="2" fill="#FFCA6E" />
<rect x="9" y="20" width="5" height="1" fill="#FFBA42" />
<rect x="18" y="20" width="5" height="1" fill="#AF2DE5" />
<rect x="23" y="20" width="1" height="2" fill="#C25EEA" />
<rect x="7" y="21" width="1" height="5" fill="#F7F9FB" />
<rect x="9" y="21" width="1" height="2" fill="#FFCA6E" />
<rect x="10" y="21" width="4" height="1" fill="#FFBA42" />
<rect x="18" y="21" width="4" height="1" fill="#AF2DE5" />
<rect x="22" y="21" width="1" height="2" fill="#C25EEA" />
<rect x="24" y="21" width="1" height="5" fill="#F7F9FB" />
<rect x="4" y="22" width="1" height="5" fill="#858B90" />
<rect x="8" y="22" width="1" height="5" fill="#F7F9FB" />
<rect x="10" y="22" width="1" height="2" fill="#FFCA6E" />
<rect x="11" y="22" width="3" height="1" fill="#FFBA42" />
<rect x="18" y="22" width="3" height="1" fill="#AF2DE5" />
<rect x="21" y="22" width="1" height="2" fill="#C25EEA" />
<rect x="23" y="22" width="1" height="4" fill="#F7F9FB" />
<rect x="27" y="22" width="1" height="5" fill="#858B90" />
<rect x="9" y="23" width="1" height="4" fill="#F7F9FB" />
<rect x="11" y="23" width="1" height="2" fill="#FFCA6E" />
<rect x="12" y="23" width="2" height="1" fill="#FFBA42" />
<rect x="18" y="23" width="2" height="1" fill="#AF2DE5" />
<rect x="20" y="23" width="1" height="2" fill="#C25EEA" />
<rect x="22" y="23" width="1" height="4" fill="#F7F9FB" />
<rect x="2" y="24" width="1" height="3" fill="#25292F" />
<rect x="5" y="24" width="1" height="4" fill="#858B90" />
<rect x="10" y="24" width="1" height="4" fill="#F7F9FB" />
<rect x="12" y="24" width="2" height="1" fill="#FFCA6E" />
<rect x="18" y="24" width="2" height="1" fill="#C25EEA" />
<rect x="21" y="24" width="1" height="4" fill="#F7F9FB" />
<rect x="26" y="24" width="1" height="4" fill="#858B90" />
<rect x="29" y="24" width="1" height="3" fill="#25292F" />
<rect x="6" y="25" width="1" height="4" fill="#858B90" />
<rect x="11" y="25" width="2" height="3" fill="#F7F9FB" />
<rect x="13" y="25" width="3" height="1" fill="#FFCA6E" />
<rect x="16" y="25" width="3" height="1" fill="#C25EEA" />
<rect x="19" y="25" width="2" height="3" fill="#F7F9FB" />
<rect x="25" y="25" width="1" height="4" fill="#858B90" />
<rect x="3" y="26" width="1" height="2" fill="#25292F" />
<rect x="7" y="26" width="1" height="3" fill="#858B90" />
<rect x="13" y="26" width="6" height="2" fill="#F7F9FB" />
<rect x="23" y="26" width="2" height="3" fill="#858B90" />
<rect x="28" y="26" width="1" height="2" fill="#25292F" />
<rect x="4" y="27" width="1" height="2" fill="#25292F" />
<rect x="8" y="27" width="2" height="3" fill="#858B90" />
<rect x="22" y="27" width="1" height="3" fill="#858B90" />
<rect x="27" y="27" width="1" height="2" fill="#25292F" />
<rect x="5" y="28" width="1" height="2" fill="#25292F" />
<rect x="10" y="28" width="12" height="2" fill="#858B90" />
<rect x="26" y="28" width="1" height="2" fill="#25292F" />
<rect x="6" y="29" width="2" height="1" fill="#25292F" />
<rect x="23" y="29" width="1" height="1" fill="#858B90" />
<rect x="24" y="29" width="2" height="1" fill="#25292F" />
<rect x="7" y="30" width="2" height="1" fill="#25292F" />
<rect x="9" y="30" width="1" height="1" fill="#FF9B00" />
<rect x="10" y="30" width="1" height="1" fill="#FFA71E" />
<rect x="11" y="30" width="2" height="1" fill="#FFB644" />
<rect x="13" y="30" width="3" height="1" fill="#FFA71E" />
<rect x="16" y="30" width="1" height="1" fill="#FF9B00" />
<rect x="17" y="30" width="2" height="1" fill="#25292F" />
<rect x="19" y="30" width="1" height="1" fill="#FF9B00" />
<rect x="20" y="30" width="2" height="1" fill="#FFA71E" />
<rect x="22" y="30" width="1" height="1" fill="#FFB644" />
<rect x="23" y="30" width="2" height="1" fill="#25292F" />
</svg>