<?xml version='1.0' encoding='utf-8'?>
<svg xmlns="http://www.w3.org/2000/svg" viewBox="0 0 3358.108 3357.9799999999996" width="512" height="512" version="1.1" xml:space="preserve" style="fill-rule:evenodd;clip-rule:evenodd;stroke-linejoin:round;stroke-miterlimit:2;"><rect x="867.052" y="108.777" width="649.841" height="108.307" style="fill:#daefff;" /><rect x="1516.893" y="108.777" width="866.454" height="108.307" style="fill:#aedcff;" /><rect x="2383.347" y="108.777" width="216.614" height="108.307" style="fill:#daefff;" /><rect x="650.438" y="217.083" width="108.307" height="216.614" style="fill:#daefff;" /><rect x="758.745" y="217.083" width="216.614" height="108.307" style="fill:#aedcff;" /><rect x="975.359" y="217.083" width="1516.295" height="108.307" style="fill:#205479;" /><rect x="2491.654" y="217.083" width="108.307" height="108.307" style="fill:#daefff;" /><rect x="2599.96" y="217.083" width="108.307" height="108.307" style="fill:#aedcff;" /><rect x="2708.267" y="217.083" width="108.307" height="216.614" style="fill:#daefff;" /><rect x="542.131" y="325.39" width="108.307" height="108.307" style="fill:#daefff;" /><rect x="758.745" y="325.39" width="108.307" height="108.307" style="fill:#aedcff;" /><rect x="867.052" y="325.39" width="216.614" height="108.307" style="fill:#205479;" /><rect x="1083.665" y="325.39" width="1299.681" height="108.307" style="fill:#0095ff;" /><rect x="2383.347" y="325.39" width="324.92" height="108.307" style="fill:#205479;" /><rect x="2816.574" y="325.39" width="108.307" height="216.614" style="fill:#daefff;" /><rect x="433.825" y="433.697" width="216.614" height="108.307" style="fill:#aedcff;" /><rect x="650.438" y="433.697" width="324.92" height="108.307" style="fill:#205479;" /><rect x="975.359" y="433.697" width="216.614" height="108.307" style="fill:#0095ff;" /><rect x="1191.972" y="433.697" width="108.307" height="108.307" style="fill:#2aa0f5;" /><rect x="1300.279" y="433.697" width="108.307" height="108.307" style="fill:#1e9df8;" /><rect x="1408.586" y="433.697" width="108.307" height="108.307" style="fill:#1f9ef9;" /><rect x="1516.893" y="433.697" width="108.307" height="108.307" style="fill:#27a2fa;" /><rect x="1625.199" y="433.697" width="108.307" height="108.307" style="fill:#38a9fa;" /><rect x="1733.506" y="433.697" width="108.307" height="108.307" style="fill:#2aa0f5;" /><rect x="1841.813" y="433.697" width="108.307" height="108.307" style="fill:#0095ff;" /><rect x="1950.12" y="433.697" width="324.92" height="108.307" style="fill:#2aa0f5;" /><rect x="2275.04" y="433.697" width="324.92" height="108.307" style="fill:#0095ff;" /><rect x="2599.96" y="433.697" width="216.614" height="108.307" style="fill:#205479;" /><rect x="2924.881" y="433.697" width="108.307" height="216.614" style="fill:#daefff;" /><rect x="325.518" y="542.004" width="216.614" height="108.307" style="fill:#aedcff;" /><rect x="542.131" y="542.004" width="216.614" height="108.307" style="fill:#205479;" /><rect x="758.745" y="542.004" width="324.92" height="108.307" style="fill:#0095ff;" /><rect x="1083.665" y="542.004" width="108.307" height="108.307" style="fill:#1199fa;" /><rect x="1191.972" y="542.004" width="108.307" height="108.307" style="fill:#1f9df7;" /><rect x="1300.279" y="542.004" width="108.307" height="108.307" style="fill:#2ba0f5;" /><rect x="1408.586" y="542.004" width="108.307" height="108.307" style="fill:#31a3f5;" /><rect x="1516.893" y="542.004" width="108.307" height="108.307" style="fill:#30a4f7;" /><rect x="1625.199" y="542.004" width="108.307" height="108.307" style="fill:#32a6f9;" /><rect x="1733.506" y="542.004" width="108.307" height="108.307" style="fill:#29a2f9;" /><rect x="1841.813" y="542.004" width="108.307" height="108.307" style="fill:#249ff7;" /><rect x="1950.12" y="542.004" width="108.307" height="108.307" style="fill:#259ef6;" /><rect x="2058.426" y="542.004" width="108.307" height="108.307" style="fill:#2aa0f5;" /><rect x="2166.733" y="542.004" width="108.307" height="108.307" style="fill:#259ef6;" /><rect x="2275.04" y="542.004" width="108.307" height="108.307" style="fill:#209df7;" /><rect x="2383.347" y="542.004" width="108.307" height="108.307" style="fill:#2aa0f5;" /><rect x="2491.654" y="542.004" width="216.614" height="108.307" style="fill:#0095ff;" /><rect x="2708.267" y="542.004" width="216.614" height="108.307" style="fill:#205479;" /><rect x="3033.187" y="542.004" width="108.307" height="216.614" style="fill:#aedcff;" /><rect x="217.211" y="650.311" width="216.614" height="108.307" style="fill:#daefff;" /><rect x="433.825" y="650.311" width="216.614" height="108.307" style="fill:#205479;" /><rect x="650.438" y="650.311" width="324.92" height="324.92" style="fill:#0095ff;" /><rect x="975.359" y="650.311" width="108.307" height="108.307" style="fill:#0496fd;" /><rect x="1083.665" y="650.311" width="108.307" height="108.307" style="fill:#1a9cf8;" /><rect x="1191.972" y="650.311" width="108.307" height="108.307" style="fill:#2ba0f4;" /><rect x="1300.279" y="650.311" width="108.307" height="108.307" style="fill:#35a3f1;" /><rect x="1408.586" y="650.311" width="108.307" height="108.307" style="fill:#32a3f4;" /><rect x="1516.893" y="650.311" width="108.307" height="108.307" style="fill:#28a1f8;" /><rect x="1625.199" y="650.311" width="108.307" height="108.307" style="fill:#22a1fb;" /><rect x="1733.506" y="650.311" width="108.307" height="108.307" style="fill:#1b9dfa;" /><rect x="1841.813" y="650.311" width="108.307" height="108.307" style="fill:#1b9cf9;" /><rect x="1950.12" y="650.311" width="216.614" height="108.307" style="fill:#1c9cf8;" /><rect x="2166.733" y="650.311" width="108.307" height="108.307" style="fill:#2da3f8;" /><rect x="2275.04" y="650.311" width="216.614" height="108.307" style="fill:#3fabf8;" /><rect x="2491.654" y="650.311" width="108.307" height="108.307" style="fill:#2aa0f5;" /><rect x="2599.96" y="650.311" width="216.614" height="108.307" style="fill:#0095ff;" /><rect x="2816.574" y="650.311" width="216.614" height="108.307" style="fill:#205479;" /><rect x="3141.494" y="650.311" width="108.307" height="216.614" style="fill:#daefff;" /><rect x="217.211" y="758.617" width="108.307" height="108.307" style="fill:#daefff;" /><rect x="325.518" y="758.617" width="216.614" height="108.307" style="fill:#205479;" /><rect x="542.131" y="758.617" width="108.307" height="433.227" style="fill:#0095ff;" /><rect x="975.359" y="758.617" width="108.307" height="108.307" style="fill:#0d98fb;" /><rect x="1083.665" y="758.617" width="108.307" height="108.307" style="fill:#2ea1f3;" /><rect x="1191.972" y="758.617" width="108.307" height="108.307" style="fill:#39a4f0;" /><rect x="1300.279" y="758.617" width="108.307" height="108.307" style="fill:#36a3f1;" /><rect x="1408.586" y="758.617" width="108.307" height="108.307" style="fill:#229ef7;" /><rect x="1516.893" y="758.617" width="108.307" height="108.307" style="fill:#1a9dfa;" /><rect x="1625.199" y="758.617" width="108.307" height="324.92" style="fill:#0095ff;" /><rect x="1733.506" y="758.617" width="108.307" height="108.307" style="fill:#0c98fc;" /><rect x="1841.813" y="758.617" width="108.307" height="108.307" style="fill:#0d98fc;" /><rect x="1950.12" y="758.617" width="216.614" height="108.307" style="fill:#0e98fb;" /><rect x="2166.733" y="758.617" width="108.307" height="108.307" style="fill:#1fa0fb;" /><rect x="2275.04" y="758.617" width="108.307" height="108.307" style="fill:#43affb;" /><rect x="2383.347" y="758.617" width="108.307" height="108.307" style="fill:#4cb1f9;" /><rect x="2491.654" y="758.617" width="108.307" height="108.307" style="fill:#3fabf8;" /><rect x="2599.96" y="758.617" width="108.307" height="108.307" style="fill:#2aa0f5;" /><rect x="2708.267" y="758.617" width="216.614" height="108.307" style="fill:#0095ff;" /><rect x="2924.881" y="758.617" width="216.614" height="108.307" style="fill:#205479;" /><rect x="108.904" y="866.924" width="216.614" height="108.307" style="fill:#aedcff;" /><rect x="325.518" y="866.924" width="108.307" height="216.614" style="fill:#205479;" /><rect x="433.825" y="866.924" width="108.307" height="649.841" style="fill:#0095ff;" /><rect x="975.359" y="866.924" width="108.307" height="216.614" style="fill:#0095ff;" /><rect x="1083.665" y="866.924" width="108.307" height="108.307" style="fill:#29a0f4;" /><rect x="1191.972" y="866.924" width="108.307" height="108.307" style="fill:#2fa1f2;" /><rect x="1300.279" y="866.924" width="108.307" height="216.614" style="fill:#0095ff;" /><rect x="1408.586" y="866.924" width="108.307" height="108.307" style="fill:#0d98fb;" /><rect x="1516.893" y="866.924" width="108.307" height="216.614" style="fill:#0095ff;" /><rect x="1733.506" y="866.924" width="108.307" height="1624.602" style="fill:#0095ff;" /><rect x="1841.813" y="866.924" width="108.307" height="108.307" style="fill:#0095fe;" /><rect x="1950.12" y="866.924" width="216.614" height="216.614" style="fill:#0095ff;" /><rect x="2166.733" y="866.924" width="108.307" height="108.307" style="fill:#119cff;" /><rect x="2275.04" y="866.924" width="108.307" height="108.307" style="fill:#48b3fe;" /><rect x="2383.347" y="866.924" width="108.307" height="108.307" style="fill:#65bdfc;" /><rect x="2491.654" y="866.924" width="108.307" height="108.307" style="fill:#61b9f9;" /><rect x="2599.96" y="866.924" width="108.307" height="108.307" style="fill:#34a5f7;" /><rect x="2708.267" y="866.924" width="108.307" height="108.307" style="fill:#2aa0f5;" /><rect x="2816.574" y="866.924" width="216.614" height="216.614" style="fill:#0095ff;" /><rect x="3033.187" y="866.924" width="108.307" height="216.614" style="fill:#205479;" /><rect x="3141.494" y="866.924" width="216.614" height="108.307" style="fill:#aedcff;" /><rect x="108.904" y="975.231" width="108.307" height="216.614" style="fill:#daefff;" /><rect x="217.211" y="975.231" width="108.307" height="1624.602" style="fill:#205479;" /><rect x="650.438" y="975.231" width="108.307" height="108.307" style="fill:#0095ff;" /><rect x="758.745" y="975.231" width="108.307" height="108.307" style="fill:#58abe7;" /><rect x="867.052" y="975.231" width="108.307" height="108.307" style="fill:#0095ff;" /><rect x="1083.665" y="975.231" width="216.614" height="108.307" style="fill:#0095ff;" /><rect x="1408.586" y="975.231" width="108.307" height="108.307" style="fill:#0095ff;" /><rect x="1841.813" y="975.231" width="108.307" height="1516.295" style="fill:#0095ff;" /><rect x="2166.733" y="975.231" width="108.307" height="108.307" style="fill:#0095ff;" /><rect x="2275.04" y="975.231" width="108.307" height="108.307" style="fill:#25a4fe;" /><rect x="2383.347" y="975.231" width="108.307" height="108.307" style="fill:#4bb1f9;" /><rect x="2491.654" y="975.231" width="108.307" height="108.307" style="fill:#62b7f4;" /><rect x="2599.96" y="975.231" width="108.307" height="108.307" style="fill:#48abf2;" /><rect x="2708.267" y="975.231" width="108.307" height="108.307" style="fill:#2ea1f4;" /><rect x="3141.494" y="975.231" width="108.307" height="1516.295" style="fill:#205479;" /><rect x="3249.801" y="975.231" width="108.307" height="108.307" style="fill:#aedcff;" /><rect x="325.518" y="1083.538" width="108.307" height="1407.988" style="fill:#0095ff;" /><rect x="650.438" y="1083.538" width="108.307" height="216.614" style="fill:#58abe7;" /><rect x="758.745" y="1083.538" width="866.454" height="216.614" style="fill:#fff;" /><rect x="1625.199" y="1083.538" width="108.307" height="324.92" style="fill:#0c3c5e;" /><rect x="1950.12" y="1083.538" width="216.614" height="1299.681" style="fill:#fff;" /><rect x="2166.733" y="1083.538" width="108.307" height="216.614" style="fill:#205479;" /><rect x="2275.04" y="1083.538" width="108.307" height="108.307" style="fill:#139cfe;" /><rect x="2383.347" y="1083.538" width="108.307" height="108.307" style="fill:#34a8fb;" /><rect x="2491.654" y="1083.538" width="108.307" height="108.307" style="fill:#46aaf2;" /><rect x="2599.96" y="1083.538" width="108.307" height="108.307" style="fill:#41a8f1;" /><rect x="2708.267" y="1083.538" width="108.307" height="108.307" style="fill:#2ca1f4;" /><rect x="2816.574" y="1083.538" width="108.307" height="108.307" style="fill:#0e98fb;" /><rect x="2924.881" y="1083.538" width="216.614" height="1191.375" style="fill:#0095ff;" /><rect x="3249.801" y="1083.538" width="108.307" height="541.534" style="fill:#daefff;" /><rect x="108.904" y="1191.844" width="108.307" height="866.454" style="fill:#aedcff;" /><rect x="542.131" y="1191.844" width="108.307" height="649.841" style="fill:#58abe7;" /><rect x="2275.04" y="1191.844" width="216.614" height="324.92" style="fill:#0095ff;" /><rect x="2491.654" y="1191.844" width="108.307" height="108.307" style="fill:#28a1f6;" /><rect x="2599.96" y="1191.844" width="108.307" height="108.307" style="fill:#35a3f2;" /><rect x="2708.267" y="1191.844" width="108.307" height="216.614" style="fill:#2ba0f3;" /><rect x="2816.574" y="1191.844" width="108.307" height="108.307" style="fill:#169af9;" /><rect x="650.438" y="1300.151" width="108.307" height="433.227" style="fill:#0095ff;" /><rect x="758.745" y="1300.151" width="216.614" height="649.841" style="fill:#fff;" /><rect x="975.359" y="1300.151" width="108.307" height="433.227" style="fill:#0c3c5e;" /><rect x="1083.665" y="1300.151" width="324.92" height="433.227" style="fill:#0095ff;" /><rect x="1408.586" y="1300.151" width="216.614" height="1083.068" style="fill:#fff;" /><rect x="2166.733" y="1300.151" width="108.307" height="108.307" style="fill:#0c3c5e;" /><rect x="2491.654" y="1300.151" width="108.307" height="108.307" style="fill:#149afa;" /><rect x="2599.96" y="1300.151" width="108.307" height="108.307" style="fill:#2fa1f2;" /><rect x="2816.574" y="1300.151" width="108.307" height="108.307" style="fill:#1d9cf7;" /><rect x="1625.199" y="1408.458" width="108.307" height="216.614" style="fill:#205479;" /><rect x="2166.733" y="1408.458" width="108.307" height="108.307" style="fill:#205479;" /><rect x="2491.654" y="1408.458" width="108.307" height="108.307" style="fill:#0095ff;" /><rect x="2599.96" y="1408.458" width="216.614" height="108.307" style="fill:#279ff4;" /><rect x="2816.574" y="1408.458" width="108.307" height="108.307" style="fill:#0095ff;" /><rect x="433.825" y="1516.765" width="108.307" height="541.534" style="fill:#2aa0f5;" /><rect x="2166.733" y="1516.765" width="649.841" height="216.614" style="fill:#fff;" /><rect x="2816.574" y="1516.765" width="108.307" height="108.307" style="fill:#205479;" /><rect x="1625.199" y="1625.072" width="108.307" height="216.614" style="fill:#0c3c5e;" /><rect x="2816.574" y="1625.072" width="108.307" height="216.614" style="fill:#0c3c5e;" /><rect x="3249.801" y="1625.072" width="108.307" height="649.841" style="fill:#aedcff;" /><rect x="650.438" y="1733.378" width="108.307" height="108.307" style="fill:#58abe7;" /><rect x="975.359" y="1733.378" width="433.227" height="216.614" style="fill:#fff;" /><rect x="2166.733" y="1733.378" width="108.307" height="433.227" style="fill:#0c3c5e;" /><rect x="2275.04" y="1733.378" width="324.92" height="433.227" style="fill:#0095ff;" /><rect x="2599.96" y="1733.378" width="216.614" height="649.841" style="fill:#fff;" /><rect x="542.131" y="1841.685" width="108.307" height="108.307" style="fill:#0095ff;" /><rect x="650.438" y="1841.685" width="108.307" height="108.307" style="fill:#30a1f1;" /><rect x="1625.199" y="1841.685" width="108.307" height="216.614" style="fill:#205479;" /><rect x="2816.574" y="1841.685" width="108.307" height="216.614" style="fill:#32688f;" /><rect x="542.131" y="1949.992" width="108.307" height="216.614" style="fill:#1c9cf7;" /><rect x="650.438" y="1949.992" width="216.614" height="108.307" style="fill:#1d9cf7;" /><rect x="867.052" y="1949.992" width="108.307" height="108.307" style="fill:#0997fc;" /><rect x="975.359" y="1949.992" width="433.227" height="324.92" style="fill:#0095ff;" /><rect x="108.904" y="2058.299" width="108.307" height="216.614" style="fill:#daefff;" /><rect x="433.825" y="2058.299" width="108.307" height="541.534" style="fill:#0095ff;" /><rect x="650.438" y="2058.299" width="108.307" height="108.307" style="fill:#259ef4;" /><rect x="758.745" y="2058.299" width="108.307" height="108.307" style="fill:#279ff4;" /><rect x="867.052" y="2058.299" width="108.307" height="108.307" style="fill:#0f99fa;" /><rect x="1625.199" y="2058.299" width="108.307" height="216.614" style="fill:#0c3c5e;" /><rect x="2816.574" y="2058.299" width="108.307" height="108.307" style="fill:#205479;" /><rect x="542.131" y="2166.605" width="108.307" height="216.614" style="fill:#0095ff;" /><rect x="650.438" y="2166.605" width="108.307" height="108.307" style="fill:#209df6;" /><rect x="758.745" y="2166.605" width="108.307" height="108.307" style="fill:#269ff4;" /><rect x="867.052" y="2166.605" width="108.307" height="108.307" style="fill:#0d98fb;" /><rect x="2166.733" y="2166.605" width="433.227" height="216.614" style="fill:#fff;" /><rect x="2816.574" y="2166.605" width="108.307" height="108.307" style="fill:#32688f;" /><rect x="108.904" y="2274.912" width="108.307" height="324.92" style="fill:#aedcff;" /><rect x="650.438" y="2274.912" width="108.307" height="108.307" style="fill:#3ba4ef;" /><rect x="758.745" y="2274.912" width="108.307" height="108.307" style="fill:#44a7ed;" /><rect x="867.052" y="2274.912" width="108.307" height="108.307" style="fill:#2da1f3;" /><rect x="975.359" y="2274.912" width="108.307" height="108.307" style="fill:#139af9;" /><rect x="1083.665" y="2274.912" width="324.92" height="108.307" style="fill:#0095ff;" /><rect x="1625.199" y="2274.912" width="108.307" height="108.307" style="fill:#32688f;" /><rect x="2816.574" y="2274.912" width="108.307" height="108.307" style="fill:#0c3c5e;" /><rect x="2924.881" y="2274.912" width="108.307" height="108.307" style="fill:#2aa0f5;" /><rect x="3033.187" y="2274.912" width="108.307" height="108.307" style="fill:#0095ff;" /><rect x="3249.801" y="2274.912" width="108.307" height="324.92" style="fill:#daefff;" /><rect x="542.131" y="2383.219" width="108.307" height="216.614" style="fill:#2aa0f5;" /><rect x="650.438" y="2383.219" width="108.307" height="108.307" style="fill:#3ca4ef;" /><rect x="758.745" y="2383.219" width="108.307" height="108.307" style="fill:#49a8ec;" /><rect x="867.052" y="2383.219" width="108.307" height="108.307" style="fill:#43a7ed;" /><rect x="975.359" y="2383.219" width="108.307" height="108.307" style="fill:#2ba0f3;" /><rect x="1083.665" y="2383.219" width="108.307" height="108.307" style="fill:#0d98fb;" /><rect x="1191.972" y="2383.219" width="541.534" height="108.307" style="fill:#0095ff;" /><rect x="1950.12" y="2383.219" width="108.307" height="108.307" style="fill:#0095ff;" /><rect x="2058.426" y="2383.219" width="108.307" height="108.307" style="fill:#1399f9;" /><rect x="2166.733" y="2383.219" width="108.307" height="108.307" style="fill:#1d9cf7;" /><rect x="2275.04" y="2383.219" width="108.307" height="216.614" style="fill:#1399f9;" /><rect x="2383.347" y="2383.219" width="216.614" height="108.307" style="fill:#0095ff;" /><rect x="2599.96" y="2383.219" width="108.307" height="108.307" style="fill:#0496fd;" /><rect x="2708.267" y="2383.219" width="108.307" height="108.307" style="fill:#1299fa;" /><rect x="2816.574" y="2383.219" width="108.307" height="108.307" style="fill:#179bf9;" /><rect x="2924.881" y="2383.219" width="108.307" height="216.614" style="fill:#0095ff;" /><rect x="3033.187" y="2383.219" width="108.307" height="324.92" style="fill:#205479;" /><rect x="325.518" y="2491.526" width="108.307" height="216.614" style="fill:#205479;" /><rect x="650.438" y="2491.526" width="108.307" height="108.307" style="fill:#2aa0f5;" /><rect x="758.745" y="2491.526" width="108.307" height="108.307" style="fill:#39a4f0;" /><rect x="867.052" y="2491.526" width="108.307" height="108.307" style="fill:#48a8ec;" /><rect x="975.359" y="2491.526" width="108.307" height="108.307" style="fill:#49a8ec;" /><rect x="1083.665" y="2491.526" width="108.307" height="108.307" style="fill:#37a3f0;" /><rect x="1191.972" y="2491.526" width="108.307" height="108.307" style="fill:#1b9cf7;" /><rect x="1300.279" y="2491.526" width="216.614" height="108.307" style="fill:#0095ff;" /><rect x="1516.893" y="2491.526" width="324.92" height="108.307" style="fill:#1d9cf7;" /><rect x="1841.813" y="2491.526" width="108.307" height="216.614" style="fill:#1c9bf7;" /><rect x="1950.12" y="2491.526" width="324.92" height="108.307" style="fill:#279ef4;" /><rect x="2383.347" y="2491.526" width="108.307" height="108.307" style="fill:#0e98fb;" /><rect x="2491.654" y="2491.526" width="216.614" height="216.614" style="fill:#44a7ed;" /><rect x="2708.267" y="2491.526" width="108.307" height="108.307" style="fill:#179bf9;" /><rect x="2816.574" y="2491.526" width="108.307" height="108.307" style="fill:#2aa0f5;" /><rect x="3141.494" y="2491.526" width="108.307" height="216.614" style="fill:#daefff;" /><rect x="217.211" y="2599.833" width="108.307" height="216.614" style="fill:#daefff;" /><rect x="433.825" y="2599.833" width="108.307" height="216.614" style="fill:#205479;" /><rect x="542.131" y="2599.833" width="216.614" height="108.307" style="fill:#0095ff;" /><rect x="758.745" y="2599.833" width="108.307" height="108.307" style="fill:#2aa0f5;" /><rect x="867.052" y="2599.833" width="108.307" height="108.307" style="fill:#3ca4ef;" /><rect x="975.359" y="2599.833" width="108.307" height="108.307" style="fill:#40a6ee;" /><rect x="1083.665" y="2599.833" width="108.307" height="108.307" style="fill:#44a7ed;" /><rect x="1191.972" y="2599.833" width="108.307" height="108.307" style="fill:#37a3f0;" /><rect x="1300.279" y="2599.833" width="108.307" height="108.307" style="fill:#0095ff;" /><rect x="1408.586" y="2599.833" width="108.307" height="108.307" style="fill:#58abe7;" /><rect x="1516.893" y="2599.833" width="216.614" height="108.307" style="fill:#1d9cf7;" /><rect x="1733.506" y="2599.833" width="108.307" height="324.92" style="fill:#58abe7;" /><rect x="1950.12" y="2599.833" width="108.307" height="108.307" style="fill:#279ef4;" /><rect x="2058.426" y="2599.833" width="216.614" height="108.307" style="fill:#44a7ed;" /><rect x="2275.04" y="2599.833" width="216.614" height="108.307" style="fill:#7cb6df;" /><rect x="2708.267" y="2599.833" width="108.307" height="108.307" style="fill:#2aa0f5;" /><rect x="2816.574" y="2599.833" width="108.307" height="108.307" style="fill:#0095ff;" /><rect x="2924.881" y="2599.833" width="108.307" height="216.614" style="fill:#205479;" /><rect x="325.518" y="2708.139" width="108.307" height="216.614" style="fill:#daefff;" /><rect x="542.131" y="2708.139" width="108.307" height="216.614" style="fill:#205479;" /><rect x="650.438" y="2708.139" width="216.614" height="108.307" style="fill:#0095ff;" /><rect x="867.052" y="2708.139" width="108.307" height="216.614" style="fill:#2aa0f5;" /><rect x="975.359" y="2708.139" width="108.307" height="108.307" style="fill:#29a0f4;" /><rect x="1083.665" y="2708.139" width="108.307" height="108.307" style="fill:#3ba4ef;" /><rect x="1191.972" y="2708.139" width="216.614" height="108.307" style="fill:#7cb6df;" /><rect x="1408.586" y="2708.139" width="216.614" height="108.307" style="fill:#0095ff;" /><rect x="1625.199" y="2708.139" width="108.307" height="108.307" style="fill:#2ba0f3;" /><rect x="1841.813" y="2708.139" width="108.307" height="108.307" style="fill:#0095ff;" /><rect x="1950.12" y="2708.139" width="108.307" height="108.307" style="fill:#44a7ed;" /><rect x="2058.426" y="2708.139" width="324.92" height="108.307" style="fill:#7cb6df;" /><rect x="2383.347" y="2708.139" width="108.307" height="108.307" style="fill:#44a7ed;" /><rect x="2491.654" y="2708.139" width="108.307" height="108.307" style="fill:#2aa0f5;" /><rect x="2599.96" y="2708.139" width="216.614" height="108.307" style="fill:#0095ff;" /><rect x="2816.574" y="2708.139" width="108.307" height="216.614" style="fill:#205479;" /><rect x="3033.187" y="2708.139" width="216.614" height="108.307" style="fill:#aedcff;" /><rect x="433.825" y="2816.446" width="108.307" height="216.614" style="fill:#daefff;" /><rect x="650.438" y="2816.446" width="108.307" height="216.614" style="fill:#205479;" /><rect x="758.745" y="2816.446" width="108.307" height="108.307" style="fill:#0095ff;" /><rect x="975.359" y="2816.446" width="216.614" height="108.307" style="fill:#0095ff;" /><rect x="1191.972" y="2816.446" width="541.534" height="216.614" style="fill:#2aa0f5;" /><rect x="1841.813" y="2816.446" width="108.307" height="108.307" style="fill:#58abe7;" /><rect x="1950.12" y="2816.446" width="216.614" height="108.307" style="fill:#2aa0f5;" /><rect x="2166.733" y="2816.446" width="216.614" height="108.307" style="fill:#44a7ed;" /><rect x="2383.347" y="2816.446" width="324.92" height="108.307" style="fill:#0095ff;" /><rect x="2708.267" y="2816.446" width="108.307" height="216.614" style="fill:#205479;" /><rect x="2924.881" y="2816.446" width="108.307" height="108.307" style="fill:#aedcff;" /><rect x="3033.187" y="2816.446" width="108.307" height="108.307" style="fill:#daefff;" /><rect x="542.131" y="2924.753" width="108.307" height="216.614" style="fill:#daefff;" /><rect x="758.745" y="2924.753" width="108.307" height="216.614" style="fill:#205479;" /><rect x="867.052" y="2924.753" width="216.614" height="108.307" style="fill:#0095ff;" /><rect x="1083.665" y="2924.753" width="108.307" height="108.307" style="fill:#2aa0f5;" /><rect x="1733.506" y="2924.753" width="108.307" height="108.307" style="fill:#2aa0f5;" /><rect x="1841.813" y="2924.753" width="216.614" height="108.307" style="fill:#44a7ed;" /><rect x="2058.426" y="2924.753" width="216.614" height="108.307" style="fill:#2aa0f5;" /><rect x="2275.04" y="2924.753" width="324.92" height="108.307" style="fill:#0095ff;" /><rect x="2599.96" y="2924.753" width="108.307" height="216.614" style="fill:#205479;" /><rect x="2816.574" y="2924.753" width="216.614" height="108.307" style="fill:#daefff;" /><rect x="650.438" y="3033.06" width="108.307" height="216.614" style="fill:#daefff;" /><rect x="867.052" y="3033.06" width="216.614" height="108.307" style="fill:#205479;" /><rect x="1083.665" y="3033.06" width="1299.681" height="108.307" style="fill:#0095ff;" /><rect x="2383.347" y="3033.06" width="216.614" height="108.307" style="fill:#205479;" /><rect x="2708.267" y="3033.06" width="108.307" height="216.614" style="fill:#daefff;" /><rect x="2816.574" y="3033.06" width="108.307" height="108.307" style="fill:#aedcff;" /><rect x="758.745" y="3141.366" width="216.614" height="108.307" style="fill:#daefff;" /><rect x="975.359" y="3141.366" width="1516.295" height="108.307" style="fill:#205479;" /><rect x="2491.654" y="3141.366" width="108.307" height="108.307" style="fill:#aedcff;" /><rect x="2599.96" y="3141.366" width="108.307" height="108.307" style="fill:#daefff;" /><rect x="867.052" y="3249.673" width="433.227" height="108.307" style="fill:#daefff;" /><rect x="1300.279" y="3249.673" width="1191.375" height="108.307" style="fill:#aedcff;" /><rect x="2491.654" y="3249.673" width="108.307" height="108.307" style="fill:#daefff;" /></svg>