<?xml version="1.0" encoding="UTF-8" ?>
<svg viewBox="0 0 32 32" version="1.1" width="512" height="512" xmlns="http://www.w3.org/2000/svg" shape-rendering="crispEdges">
<rect x="7" y="1" width="18" height="3" fill="#FFFFFF" />
<rect x="5" y="2" width="2" height="5" fill="#FFFFFF" />
<rect x="25" y="2" width="2" height="5" fill="#FFFFFF" />
<rect x="4" y="3" width="1" height="7" fill="#FFFFFF" />
<rect x="27" y="3" width="1" height="7" fill="#FFFFFF" />
<rect x="3" y="4" width="1" height="24" fill="#FFFFFF" />
<rect x="7" y="4" width="3" height="1" fill="#FFFFFF" />
<rect x="10" y="4" width="12" height="1" fill="#E0675C" />
<rect x="22" y="4" width="3" height="1" fill="#FFFFFF" />
<rect x="28" y="4" width="1" height="24" fill="#FFFFFF" />
<rect x="2" y="5" width="1" height="22" fill="#FFFFFF" />
<rect x="7" y="5" width="1" height="1" fill="#FFFFFF" />
<rect x="8" y="5" width="3" height="1" fill="#E0675C" />
<rect x="11" y="5" width="10" height="6" fill="#DC382D" />
<rect x="21" y="5" width="3" height="1" fill="#E0675C" />
<rect x="24" y="5" width="1" height="1" fill="#FFFFFF" />
<rect x="29" y="5" width="1" height="22" fill="#FFFFFF" />
<rect x="7" y="6" width="2" height="1" fill="#E0675C" />
<rect x="9" y="6" width="2" height="10" fill="#DC382D" />
<rect x="21" y="6" width="2" height="5" fill="#DC382D" />
<rect x="23" y="6" width="2" height="1" fill="#E0675C" />
<rect x="1" y="7" width="1" height="18" fill="#FFFFFF" />
<rect x="5" y="7" width="1" height="1" fill="#FFFFFF" />
<rect x="6" y="7" width="2" height="1" fill="#E0675C" />
<rect x="8" y="7" width="1" height="7" fill="#DC382D" />
<rect x="23" y="7" width="1" height="4" fill="#DC382D" />
<rect x="24" y="7" width="2" height="1" fill="#E0675C" />
<rect x="26" y="7" width="1" height="1" fill="#FFFFFF" />
<rect x="30" y="7" width="1" height="18" fill="#FFFFFF" />
<rect x="5" y="8" width="2" height="1" fill="#E0675C" />
<rect x="7" y="8" width="1" height="5" fill="#DC382D" />
<rect x="24" y="8" width="1" height="3" fill="#DC382D" />
<rect x="25" y="8" width="2" height="1" fill="#E0675C" />
<rect x="5" y="9" width="1" height="2" fill="#E0675C" />
<rect x="6" y="9" width="1" height="3" fill="#DC382D" />
<rect x="25" y="9" width="1" height="2" fill="#DC382D" />
<rect x="26" y="9" width="1" height="2" fill="#E0675C" />
<rect x="4" y="10" width="1" height="12" fill="#58AF6F" />
<rect x="27" y="10" width="1" height="1" fill="#E0675C" />
<rect x="5" y="11" width="1" height="10" fill="#2A9747" />
<rect x="11" y="11" width="3" height="1" fill="#DC382D" />
<rect x="14" y="11" width="4" height="1" fill="#FFFFFF" />
<rect x="18" y="11" width="9" height="1" fill="#E03B30" />
<rect x="27" y="11" width="1" height="1" fill="#E3695E" />
<rect x="6" y="12" width="1" height="11" fill="#2A9747" />
<rect x="11" y="12" width="2" height="1" fill="#DC382D" />
<rect x="13" y="12" width="1" height="1" fill="#FFFFFF" />
<rect x="14" y="12" width="4" height="1" fill="#4E97FF" />
<rect x="18" y="12" width="1" height="1" fill="#FFFFFF" />
<rect x="19" y="12" width="8" height="1" fill="#FBC01F" />
<rect x="27" y="12" width="1" height="10" fill="#F8CF51" />
<rect x="7" y="13" width="1" height="11" fill="#2A9747" />
<rect x="11" y="13" width="1" height="1" fill="#DC382D" />
<rect x="12" y="13" width="1" height="1" fill="#FFFFFF" />
<rect x="13" y="13" width="2" height="1" fill="#4E97FF" />
<rect x="15" y="13" width="4" height="5" fill="#2072E7" />
<rect x="19" y="13" width="1" height="1" fill="#FFFFFF" />
<rect x="20" y="13" width="7" height="1" fill="#FBC01F" />
<rect x="8" y="14" width="1" height="11" fill="#2A9747" />
<rect x="11" y="14" width="1" height="4" fill="#FFFFFF" />
<rect x="12" y="14" width="2" height="1" fill="#4E97FF" />
<rect x="14" y="14" width="1" height="6" fill="#2072E7" />
<rect x="19" y="14" width="1" height="2" fill="#2072E7" />
<rect x="20" y="14" width="1" height="4" fill="#FFFFFF" />
<rect x="21" y="14" width="6" height="7" fill="#FBC01F" />
<rect x="12" y="15" width="1" height="3" fill="#4E97FF" />
<rect x="13" y="15" width="1" height="3" fill="#2072E7" />
<rect x="9" y="16" width="1" height="10" fill="#2A9747" />
<rect x="10" y="16" width="1" height="1" fill="#DC382D" />
<rect x="19" y="16" width="1" height="2" fill="#4E97FF" />
<rect x="10" y="17" width="1" height="9" fill="#2A9747" />
<rect x="11" y="18" width="1" height="9" fill="#2A9747" />
<rect x="12" y="18" width="1" height="1" fill="#FFFFFF" />
<rect x="13" y="18" width="1" height="1" fill="#4E97FF" />
<rect x="15" y="18" width="3" height="2" fill="#2072E7" />
<rect x="18" y="18" width="1" height="1" fill="#4E97FF" />
<rect x="19" y="18" width="1" height="1" fill="#FFFFFF" />
<rect x="20" y="18" width="1" height="9" fill="#FBC01F" />
<rect x="12" y="19" width="1" height="7" fill="#2A9747" />
<rect x="13" y="19" width="1" height="1" fill="#FFFFFF" />
<rect x="18" y="19" width="1" height="1" fill="#FFFFFF" />
<rect x="19" y="19" width="1" height="8" fill="#FBC01F" />
<rect x="13" y="20" width="1" height="5" fill="#2A9747" />
<rect x="14" y="20" width="4" height="1" fill="#FFFFFF" />
<rect x="18" y="20" width="1" height="7" fill="#FBC01F" />
<rect x="5" y="21" width="1" height="3" fill="#58AF6F" />
<rect x="14" y="21" width="3" height="1" fill="#2A9747" />
<rect x="17" y="21" width="1" height="6" fill="#FBC01F" />
<rect x="21" y="21" width="5" height="2" fill="#FBC01F" />
<rect x="26" y="21" width="1" height="3" fill="#F8CF51" />
<rect x="4" y="22" width="1" height="7" fill="#FFFFFF" />
<rect x="14" y="22" width="2" height="1" fill="#2A9747" />
<rect x="16" y="22" width="1" height="5" fill="#FBC01F" />
<rect x="27" y="22" width="1" height="7" fill="#FFFFFF" />
<rect x="6" y="23" width="1" height="2" fill="#58AF6F" />
<rect x="14" y="23" width="1" height="1" fill="#2A9747" />
<rect x="15" y="23" width="1" height="4" fill="#FBC01F" />
<rect x="21" y="23" width="4" height="1" fill="#FBC01F" />
<rect x="25" y="23" width="1" height="2" fill="#F8CF51" />
<rect x="5" y="24" width="1" height="6" fill="#FFFFFF" />
<rect x="7" y="24" width="1" height="2" fill="#58AF6F" />
<rect x="14" y="24" width="1" height="3" fill="#FBC01F" />
<rect x="21" y="24" width="3" height="1" fill="#FBC01F" />
<rect x="24" y="24" width="1" height="2" fill="#F8CF51" />
<rect x="26" y="24" width="1" height="6" fill="#FFFFFF" />
<rect x="6" y="25" width="1" height="5" fill="#FFFFFF" />
<rect x="8" y="25" width="1" height="2" fill="#58AF6F" />
<rect x="13" y="25" width="1" height="2" fill="#FBC01F" />
<rect x="21" y="25" width="2" height="1" fill="#FBC01F" />
<rect x="23" y="25" width="1" height="2" fill="#F8CF51" />
<rect x="25" y="25" width="1" height="5" fill="#FFFFFF" />
<rect x="7" y="26" width="1" height="5" fill="#FFFFFF" />
<rect x="9" y="26" width="2" height="1" fill="#58AF6F" />
<rect x="12" y="26" width="1" height="1" fill="#FBC01F" />
<rect x="21" y="26" width="2" height="1" fill="#F8CF51" />
<rect x="24" y="26" width="1" height="5" fill="#FFFFFF" />
<rect x="8" y="27" width="2" height="4" fill="#FFFFFF" />
<rect x="10" y="27" width="1" height="1" fill="#58AF6F" />
<rect x="11" y="27" width="11" height="1" fill="#F8CF51" />
<rect x="22" y="27" width="2" height="4" fill="#FFFFFF" />
<rect x="10" y="28" width="12" height="3" fill="#FFFFFF" />
</svg>