<?xml version='1.0' encoding='utf-8'?>
<svg xmlns="http://www.w3.org/2000/svg" viewBox="0 0 3358.109 3357.673" width="512" height="512" version="1.1" xml:space="preserve" style="fill-rule:evenodd;clip-rule:evenodd;stroke-linejoin:round;stroke-miterlimit:2;"><rect x="867.053" y="108.47" width="1732.908" height="108.307" style="fill:#f6f6f6;" /><rect x="650.439" y="216.776" width="324.92" height="108.307" style="fill:#f6f6f6;" /><rect x="975.359" y="216.776" width="1516.295" height="108.307" style="fill:#01020b;" /><rect x="2491.654" y="216.776" width="324.92" height="108.307" style="fill:#f6f6f6;" /><rect x="433.826" y="325.083" width="324.92" height="108.307" style="fill:#f6f6f6;" /><rect x="758.746" y="325.083" width="324.92" height="108.307" style="fill:#01020b;" /><rect x="1083.666" y="325.083" width="1299.681" height="324.92" style="fill:#3b5cdf;" /><rect x="2383.348" y="325.083" width="324.92" height="108.307" style="fill:#01020b;" /><rect x="2708.268" y="325.083" width="216.614" height="108.307" style="fill:#f6f6f6;" /><rect x="2924.882" y="325.083" width="108.307" height="216.614" style="fill:#bdbdbd;" /><rect x="325.519" y="433.39" width="216.614" height="108.307" style="fill:#bdbdbd;" /><rect x="542.132" y="433.39" width="324.92" height="108.307" style="fill:#01020b;" /><rect x="867.053" y="433.39" width="216.614" height="216.614" style="fill:#3b5cdf;" /><rect x="2383.348" y="433.39" width="216.614" height="974.761" style="fill:#3b5cdf;" /><rect x="2599.961" y="433.39" width="324.92" height="108.307" style="fill:#01020b;" /><rect x="3033.188" y="433.39" width="108.307" height="216.614" style="fill:#bdbdbd;" /><rect x="217.212" y="541.697" width="216.614" height="108.307" style="fill:#bdbdbd;" /><rect x="433.826" y="541.697" width="216.614" height="108.307" style="fill:#01020b;" /><rect x="650.439" y="541.697" width="216.614" height="324.92" style="fill:#3b5cdf;" /><rect x="2599.961" y="541.697" width="216.614" height="866.454" style="fill:#3b5cdf;" /><rect x="2816.575" y="541.697" width="216.614" height="108.307" style="fill:#01020b;" /><rect x="3141.495" y="541.697" width="108.307" height="324.92" style="fill:#bdbdbd;" /><rect x="217.212" y="650.003" width="108.307" height="216.614" style="fill:#bdbdbd;" /><rect x="325.519" y="650.003" width="216.614" height="108.307" style="fill:#01020b;" /><rect x="542.132" y="650.003" width="108.307" height="649.841" style="fill:#3b5cdf;" /><rect x="867.053" y="650.003" width="108.307" height="108.307" style="fill:#3b5cdf;" /><rect x="975.359" y="650.003" width="541.534" height="324.92" style="fill:#dcefff;" /><rect x="1516.893" y="650.003" width="866.454" height="108.307" style="fill:#3b5cdf;" /><rect x="2816.575" y="650.003" width="108.307" height="758.147" style="fill:#3b5cdf;" /><rect x="2924.882" y="650.003" width="216.614" height="108.307" style="fill:#01020b;" /><rect x="108.905" y="758.31" width="108.307" height="649.841" style="fill:#bdbdbd;" /><rect x="325.519" y="758.31" width="108.307" height="216.614" style="fill:#01020b;" /><rect x="433.826" y="758.31" width="108.307" height="649.841" style="fill:#3b5cdf;" /><rect x="867.053" y="758.31" width="108.307" height="216.614" style="fill:#dcefff;" /><rect x="1516.893" y="758.31" width="108.307" height="324.92" style="fill:#dcefff;" /><rect x="1625.2" y="758.31" width="758.147" height="108.307" style="fill:#3b5cdf;" /><rect x="2924.882" y="758.31" width="108.307" height="649.841" style="fill:#3b5cdf;" /><rect x="3033.188" y="758.31" width="108.307" height="216.614" style="fill:#01020b;" /><rect x="3249.802" y="758.31" width="108.307" height="649.841" style="fill:#bdbdbd;" /><rect x="217.212" y="866.617" width="108.307" height="1624.602" style="fill:#01020b;" /><rect x="650.439" y="866.617" width="108.307" height="108.307" style="fill:#3b5cdf;" /><rect x="758.746" y="866.617" width="108.307" height="108.307" style="fill:#dcefff;" /><rect x="1625.2" y="866.617" width="108.307" height="216.614" style="fill:#dcefff;" /><rect x="1733.507" y="866.617" width="649.841" height="541.534" style="fill:#3b5cdf;" /><rect x="3141.495" y="866.617" width="108.307" height="1624.602" style="fill:#01020b;" /><rect x="325.519" y="974.924" width="108.307" height="324.92" style="fill:#3b5cdf;" /><rect x="650.439" y="974.924" width="108.307" height="974.761" style="fill:#021a7d;" /><rect x="758.746" y="974.924" width="108.307" height="108.307" style="fill:#d2eaff;" /><rect x="867.053" y="974.924" width="108.307" height="108.307" style="fill:#d5ebff;" /><rect x="975.359" y="974.924" width="108.307" height="108.307" style="fill:#08204e;" /><rect x="1083.666" y="974.924" width="108.307" height="108.307" style="fill:#d9edff;" /><rect x="1191.973" y="974.924" width="324.92" height="108.307" style="fill:#dcefff;" /><rect x="3033.188" y="974.924" width="108.307" height="324.92" style="fill:#3b5cdf;" /><rect x="758.746" y="1083.231" width="108.307" height="108.307" style="fill:#c2e3ff;" /><rect x="867.053" y="1083.231" width="108.307" height="108.307" style="fill:#c5e4ff;" /><rect x="975.359" y="1083.231" width="108.307" height="108.307" style="fill:#c7e5ff;" /><rect x="1083.666" y="1083.231" width="108.307" height="108.307" style="fill:#08204e;" /><rect x="1191.973" y="1083.231" width="108.307" height="108.307" style="fill:#cbe7ff;" /><rect x="1300.28" y="1083.231" width="108.307" height="108.307" style="fill:#cee8ff;" /><rect x="1408.587" y="1083.231" width="216.614" height="108.307" style="fill:#08204e;" /><rect x="1625.2" y="1083.231" width="108.307" height="108.307" style="fill:#d5ebff;" /><rect x="758.746" y="1191.537" width="108.307" height="108.307" style="fill:#b2dcff;" /><rect x="867.053" y="1191.537" width="108.307" height="108.307" style="fill:#b4ddff;" /><rect x="975.359" y="1191.537" width="108.307" height="108.307" style="fill:#08204e;" /><rect x="1083.666" y="1191.537" width="108.307" height="108.307" style="fill:#b9dfff;" /><rect x="1191.973" y="1191.537" width="108.307" height="108.307" style="fill:#bbe0ff;" /><rect x="1300.28" y="1191.537" width="108.307" height="108.307" style="fill:#bee1ff;" /><rect x="1408.587" y="1191.537" width="108.307" height="108.307" style="fill:#c0e2ff;" /><rect x="1516.893" y="1191.537" width="108.307" height="108.307" style="fill:#c2e3ff;" /><rect x="1625.2" y="1191.537" width="108.307" height="108.307" style="fill:#c5e4ff;" /><rect x="325.519" y="1299.844" width="108.307" height="108.307" style="fill:#1d3dc0;" /><rect x="542.132" y="1299.844" width="108.307" height="108.307" style="fill:#1d3dc0;" /><rect x="758.746" y="1299.844" width="108.307" height="108.307" style="fill:#a2d5ff;" /><rect x="867.053" y="1299.844" width="108.307" height="108.307" style="fill:#a4d6ff;" /><rect x="975.359" y="1299.844" width="108.307" height="108.307" style="fill:#a7d7ff;" /><rect x="1083.666" y="1299.844" width="108.307" height="108.307" style="fill:#a9d8ff;" /><rect x="1191.973" y="1299.844" width="108.307" height="108.307" style="fill:#abd9ff;" /><rect x="1300.28" y="1299.844" width="108.307" height="108.307" style="fill:#aedaff;" /><rect x="1408.587" y="1299.844" width="108.307" height="108.307" style="fill:#b0dbff;" /><rect x="1516.893" y="1299.844" width="108.307" height="108.307" style="fill:#b2dcff;" /><rect x="1625.2" y="1299.844" width="108.307" height="108.307" style="fill:#b4ddff;" /><rect x="3033.188" y="1299.844" width="108.307" height="108.307" style="fill:#2040c1;" /><rect x="108.905" y="1408.151" width="108.307" height="324.92" style="fill:#a4a4a4;" /><rect x="325.519" y="1408.151" width="324.92" height="108.307" style="fill:#1b3cc0;" /><rect x="758.746" y="1408.151" width="108.307" height="108.307" style="fill:#92cdff;" /><rect x="867.053" y="1408.151" width="108.307" height="108.307" style="fill:#94ceff;" /><rect x="975.359" y="1408.151" width="108.307" height="108.307" style="fill:#97cfff;" /><rect x="1083.666" y="1408.151" width="108.307" height="108.307" style="fill:#99d0ff;" /><rect x="1191.973" y="1408.151" width="108.307" height="108.307" style="fill:#9bd1ff;" /><rect x="1300.28" y="1408.151" width="108.307" height="108.307" style="fill:#9dd2ff;" /><rect x="1408.587" y="1408.151" width="108.307" height="108.307" style="fill:#a0d3ff;" /><rect x="1516.893" y="1408.151" width="108.307" height="108.307" style="fill:#a2d5ff;" /><rect x="1625.2" y="1408.151" width="108.307" height="108.307" style="fill:#a4d6ff;" /><rect x="1733.507" y="1408.151" width="108.307" height="108.307" style="fill:#1d3dc0;" /><rect x="1841.814" y="1408.151" width="108.307" height="108.307" style="fill:#3b5cdf;" /><rect x="1950.12" y="1408.151" width="216.614" height="108.307" style="fill:#1d3dc0;" /><rect x="2166.734" y="1408.151" width="324.92" height="108.307" style="fill:#3b5cdf;" /><rect x="2491.654" y="1408.151" width="108.307" height="108.307" style="fill:#1d3dc0;" /><rect x="2599.961" y="1408.151" width="108.307" height="108.307" style="fill:#1d3ec0;" /><rect x="2708.268" y="1408.151" width="216.614" height="108.307" style="fill:#1e3ec0;" /><rect x="2924.882" y="1408.151" width="216.614" height="108.307" style="fill:#1e3ec1;" /><rect x="3249.802" y="1408.151" width="108.307" height="324.92" style="fill:#a4a4a4;" /><rect x="325.519" y="1516.458" width="324.92" height="108.307" style="fill:#193abf;" /><rect x="758.746" y="1516.458" width="108.307" height="108.307" style="fill:#82c6ff;" /><rect x="867.053" y="1516.458" width="108.307" height="108.307" style="fill:#84c7ff;" /><rect x="975.359" y="1516.458" width="108.307" height="108.307" style="fill:#86c8ff;" /><rect x="1083.666" y="1516.458" width="108.307" height="108.307" style="fill:#89c9ff;" /><rect x="1191.973" y="1516.458" width="108.307" height="108.307" style="fill:#8bcaff;" /><rect x="1300.28" y="1516.458" width="108.307" height="108.307" style="fill:#8dcbff;" /><rect x="1408.587" y="1516.458" width="108.307" height="108.307" style="fill:#90ccff;" /><rect x="1516.893" y="1516.458" width="108.307" height="108.307" style="fill:#92cdff;" /><rect x="1625.2" y="1516.458" width="108.307" height="108.307" style="fill:#94ceff;" /><rect x="1733.507" y="1516.458" width="108.307" height="108.307" style="fill:#1a3bc0;" /><rect x="1841.814" y="1516.458" width="433.227" height="108.307" style="fill:#1b3bc0;" /><rect x="2275.041" y="1516.458" width="433.227" height="108.307" style="fill:#1b3cc0;" /><rect x="2708.268" y="1516.458" width="433.227" height="108.307" style="fill:#1c3cc0;" /><rect x="325.519" y="1624.765" width="108.307" height="108.307" style="fill:#1738be;" /><rect x="433.826" y="1624.765" width="216.614" height="108.307" style="fill:#1738bf;" /><rect x="758.746" y="1624.765" width="108.307" height="108.307" style="fill:#72bfff;" /><rect x="867.053" y="1624.765" width="108.307" height="108.307" style="fill:#74c0ff;" /><rect x="975.359" y="1624.765" width="108.307" height="108.307" style="fill:#76c1ff;" /><rect x="1083.666" y="1624.765" width="108.307" height="108.307" style="fill:#79c2ff;" /><rect x="1191.973" y="1624.765" width="108.307" height="108.307" style="fill:#7bc3ff;" /><rect x="1300.28" y="1624.765" width="108.307" height="108.307" style="fill:#7dc4ff;" /><rect x="1408.587" y="1624.765" width="108.307" height="108.307" style="fill:#80c5ff;" /><rect x="1516.893" y="1624.765" width="108.307" height="108.307" style="fill:#82c6ff;" /><rect x="1625.2" y="1624.765" width="108.307" height="108.307" style="fill:#84c7ff;" /><rect x="1733.507" y="1624.765" width="108.307" height="108.307" style="fill:#1839bf;" /><rect x="1841.814" y="1624.765" width="108.307" height="108.307" style="fill:#1939bf;" /><rect x="1950.12" y="1624.765" width="866.454" height="108.307" style="fill:#193abf;" /><rect x="2816.575" y="1624.765" width="216.614" height="108.307" style="fill:#1a3abf;" /><rect x="3033.188" y="1624.765" width="108.307" height="108.307" style="fill:#1a3bbf;" /><rect x="108.905" y="1733.071" width="108.307" height="758.147" style="fill:#767676;" /><rect x="325.519" y="1733.071" width="108.307" height="108.307" style="fill:#1536be;" /><rect x="433.826" y="1733.071" width="216.614" height="108.307" style="fill:#1537be;" /><rect x="758.746" y="1733.071" width="108.307" height="108.307" style="fill:#69bbff;" /><rect x="867.053" y="1733.071" width="216.614" height="108.307" style="fill:#021a7d;" /><rect x="1083.666" y="1733.071" width="108.307" height="108.307" style="fill:#69bbff;" /><rect x="1191.973" y="1733.071" width="108.307" height="216.614" style="fill:#021a7d;" /><rect x="1300.28" y="1733.071" width="108.307" height="108.307" style="fill:#6dbdff;" /><rect x="1408.587" y="1733.071" width="216.614" height="108.307" style="fill:#021a7d;" /><rect x="1625.2" y="1733.071" width="108.307" height="108.307" style="fill:#74c0ff;" /><rect x="1733.507" y="1733.071" width="216.614" height="108.307" style="fill:#1638be;" /><rect x="1950.12" y="1733.071" width="433.227" height="108.307" style="fill:#1738be;" /><rect x="2383.348" y="1733.071" width="324.92" height="108.307" style="fill:#1738bf;" /><rect x="2708.268" y="1733.071" width="108.307" height="108.307" style="fill:#1739bf;" /><rect x="2816.575" y="1733.071" width="324.92" height="108.307" style="fill:#1839bf;" /><rect x="3249.802" y="1733.071" width="108.307" height="758.147" style="fill:#767676;" /><rect x="325.519" y="1841.378" width="324.92" height="108.307" style="fill:#1335bd;" /><rect x="758.746" y="1841.378" width="216.614" height="108.307" style="fill:#1335bd;" /><rect x="975.359" y="1841.378" width="108.307" height="108.307" style="fill:#021a7d;" /><rect x="1083.666" y="1841.378" width="108.307" height="108.307" style="fill:#1435bd;" /><rect x="1300.28" y="1841.378" width="216.614" height="108.307" style="fill:#1436be;" /><rect x="1516.893" y="1841.378" width="108.307" height="108.307" style="fill:#021a7d;" /><rect x="1625.2" y="1841.378" width="324.92" height="108.307" style="fill:#1436be;" /><rect x="1950.12" y="1841.378" width="433.227" height="108.307" style="fill:#1536be;" /><rect x="2383.348" y="1841.378" width="541.534" height="108.307" style="fill:#1537be;" /><rect x="2924.882" y="1841.378" width="216.614" height="108.307" style="fill:#1637be;" /><rect x="325.519" y="1949.685" width="649.841" height="108.307" style="fill:#1133bd;" /><rect x="975.359" y="1949.685" width="108.307" height="108.307" style="fill:#1134bd;" /><rect x="1083.666" y="1949.685" width="866.454" height="108.307" style="fill:#1234bd;" /><rect x="1950.12" y="1949.685" width="108.307" height="108.307" style="fill:#1334bd;" /><rect x="2058.427" y="1949.685" width="866.454" height="108.307" style="fill:#1335bd;" /><rect x="2924.882" y="1949.685" width="216.614" height="108.307" style="fill:#1435bd;" /><rect x="325.519" y="2057.992" width="324.92" height="108.307" style="fill:#0f31bc;" /><rect x="650.439" y="2057.992" width="433.227" height="108.307" style="fill:#0f32bc;" /><rect x="1083.666" y="2057.992" width="649.841" height="108.307" style="fill:#1032bc;" /><rect x="1733.507" y="2057.992" width="108.307" height="108.307" style="fill:#1033bc;" /><rect x="1841.814" y="2057.992" width="216.614" height="108.307" style="fill:#1033bd;" /><rect x="2058.427" y="2057.992" width="866.454" height="108.307" style="fill:#1133bd;" /><rect x="2924.882" y="2057.992" width="108.307" height="108.307" style="fill:#1134bd;" /><rect x="3033.188" y="2057.992" width="108.307" height="108.307" style="fill:#1234bd;" /><rect x="325.519" y="2166.298" width="324.92" height="108.307" style="fill:#0d30bb;" /><rect x="650.439" y="2166.298" width="433.227" height="108.307" style="fill:#0d30bc;" /><rect x="1083.666" y="2166.298" width="324.92" height="108.307" style="fill:#0e30bc;" /><rect x="1408.587" y="2166.298" width="649.841" height="108.307" style="fill:#0e31bc;" /><rect x="2058.427" y="2166.298" width="541.534" height="108.307" style="fill:#0f31bc;" /><rect x="2599.961" y="2166.298" width="433.227" height="108.307" style="fill:#0f32bc;" /><rect x="3033.188" y="2166.298" width="108.307" height="108.307" style="fill:#1032bc;" /><rect x="325.519" y="2274.605" width="758.147" height="108.307" style="fill:#0b2ebb;" /><rect x="1083.666" y="2274.605" width="108.307" height="108.307" style="fill:#0b2fbb;" /><rect x="1191.973" y="2274.605" width="974.761" height="108.307" style="fill:#0c2fbb;" /><rect x="2166.734" y="2274.605" width="108.307" height="108.307" style="fill:#0d2fbb;" /><rect x="2275.041" y="2274.605" width="324.92" height="108.307" style="fill:#0d30bb;" /><rect x="2599.961" y="2274.605" width="433.227" height="108.307" style="fill:#0d30bc;" /><rect x="3033.188" y="2274.605" width="108.307" height="108.307" style="fill:#0e30bc;" /><rect x="325.519" y="2382.912" width="108.307" height="324.92" style="fill:#01020b;" /><rect x="433.826" y="2382.912" width="324.92" height="108.307" style="fill:#092cba;" /><rect x="758.746" y="2382.912" width="433.227" height="108.307" style="fill:#092dba;" /><rect x="1191.973" y="2382.912" width="108.307" height="108.307" style="fill:#0a2dba;" /><rect x="1300.28" y="2382.912" width="649.841" height="108.307" style="fill:#0a2dbb;" /><rect x="1950.12" y="2382.912" width="216.614" height="108.307" style="fill:#0a2ebb;" /><rect x="2166.734" y="2382.912" width="866.454" height="108.307" style="fill:#0b2ebb;" /><rect x="3033.188" y="2382.912" width="108.307" height="324.92" style="fill:#01020b;" /><rect x="108.905" y="2491.219" width="216.614" height="108.307" style="fill:#626262;" /><rect x="433.826" y="2491.219" width="866.454" height="108.307" style="fill:#072bba;" /><rect x="1300.28" y="2491.219" width="324.92" height="108.307" style="fill:#082bba;" /><rect x="1625.2" y="2491.219" width="649.841" height="108.307" style="fill:#082cba;" /><rect x="2275.041" y="2491.219" width="433.227" height="108.307" style="fill:#092cba;" /><rect x="2708.268" y="2491.219" width="324.92" height="108.307" style="fill:#092dba;" /><rect x="3141.495" y="2491.219" width="216.614" height="108.307" style="fill:#626262;" /><rect x="217.212" y="2599.526" width="108.307" height="216.614" style="fill:#626262;" /><rect x="433.826" y="2599.526" width="108.307" height="216.614" style="fill:#01020b;" /><rect x="542.132" y="2599.526" width="758.147" height="108.307" style="fill:#0529b9;" /><rect x="1300.28" y="2599.526" width="758.147" height="108.307" style="fill:#062ab9;" /><rect x="2058.427" y="2599.526" width="216.614" height="108.307" style="fill:#062aba;" /><rect x="2275.041" y="2599.526" width="108.307" height="108.307" style="fill:#072aba;" /><rect x="2383.348" y="2599.526" width="541.534" height="108.307" style="fill:#072bba;" /><rect x="2924.882" y="2599.526" width="108.307" height="216.614" style="fill:#01020b;" /><rect x="3141.495" y="2599.526" width="108.307" height="216.614" style="fill:#626262;" /><rect x="325.519" y="2707.832" width="108.307" height="216.614" style="fill:#626262;" /><rect x="542.132" y="2707.832" width="108.307" height="324.92" style="fill:#01020b;" /><rect x="650.439" y="2707.832" width="108.307" height="108.307" style="fill:#0327b8;" /><rect x="758.746" y="2707.832" width="216.614" height="108.307" style="fill:#0327b9;" /><rect x="975.359" y="2707.832" width="433.227" height="108.307" style="fill:#0328b9;" /><rect x="1408.587" y="2707.832" width="649.841" height="108.307" style="fill:#0428b9;" /><rect x="2058.427" y="2707.832" width="216.614" height="108.307" style="fill:#0429b9;" /><rect x="2275.041" y="2707.832" width="541.534" height="108.307" style="fill:#0529b9;" /><rect x="2816.575" y="2707.832" width="108.307" height="216.614" style="fill:#01020b;" /><rect x="3033.188" y="2707.832" width="108.307" height="216.614" style="fill:#626262;" /><rect x="433.826" y="2816.139" width="108.307" height="324.92" style="fill:#626262;" /><rect x="650.439" y="2816.139" width="758.147" height="108.307" style="fill:#0126b8;" /><rect x="1408.587" y="2816.139" width="324.92" height="108.307" style="fill:#0226b8;" /><rect x="1733.507" y="2816.139" width="649.841" height="108.307" style="fill:#0227b8;" /><rect x="2383.348" y="2816.139" width="324.92" height="108.307" style="fill:#0327b8;" /><rect x="2708.268" y="2816.139" width="108.307" height="216.614" style="fill:#01020b;" /><rect x="2924.882" y="2816.139" width="108.307" height="216.614" style="fill:#626262;" /><rect x="650.439" y="2924.446" width="216.614" height="108.307" style="fill:#01020b;" /><rect x="867.053" y="2924.446" width="1516.295" height="108.307" style="fill:#0025b8;" /><rect x="2383.348" y="2924.446" width="216.614" height="108.307" style="fill:#0125b8;" /><rect x="2599.961" y="2924.446" width="108.307" height="216.614" style="fill:#01020b;" /><rect x="2816.575" y="2924.446" width="108.307" height="216.614" style="fill:#626262;" /><rect x="542.132" y="3032.753" width="216.614" height="108.307" style="fill:#626262;" /><rect x="758.746" y="3032.753" width="324.92" height="108.307" style="fill:#01020b;" /><rect x="1083.666" y="3032.753" width="1299.681" height="108.307" style="fill:#0025b8;" /><rect x="2383.348" y="3032.753" width="216.614" height="108.307" style="fill:#01020b;" /><rect x="2708.268" y="3032.753" width="108.307" height="216.614" style="fill:#626262;" /><rect x="650.439" y="3141.059" width="324.92" height="108.307" style="fill:#626262;" /><rect x="975.359" y="3141.059" width="1516.295" height="108.307" style="fill:#01020b;" /><rect x="2491.654" y="3141.059" width="216.614" height="108.307" style="fill:#626262;" /><rect x="867.053" y="3249.366" width="1732.908" height="108.307" style="fill:#3a3a3a;" /></svg>