<?xml version='1.0' encoding='utf-8'?>
<svg xmlns="http://www.w3.org/2000/svg" viewBox="0 0 3357.5469999999996 3357.5939999999996" width="512" height="512" version="1.1" xml:space="preserve" style="fill-rule:evenodd;clip-rule:evenodd;stroke-linejoin:round;stroke-miterlimit:2;"><rect x="866.491" y="108.391" width="866.454" height="108.307" style="fill:#ffb972;" /><rect x="1732.945" y="108.391" width="866.454" height="108.307" style="fill:#ffa54b;" /><rect x="649.877" y="216.697" width="324.92" height="108.307" style="fill:#ffb972;" /><rect x="974.797" y="216.697" width="1516.295" height="866.454" style="fill:#522801;" /><rect x="2491.092" y="216.697" width="216.614" height="108.307" style="fill:#ffa54b;" /><rect x="2707.706" y="216.697" width="108.307" height="216.614" style="fill:#a5672a;" /><rect x="433.264" y="325.004" width="324.92" height="108.307" style="fill:#ffb972;" /><rect x="758.184" y="325.004" width="216.614" height="758.147" style="fill:#522801;" /><rect x="2491.092" y="325.004" width="216.614" height="866.454" style="fill:#522801;" /><rect x="2816.013" y="325.004" width="108.307" height="216.614" style="fill:#a5672a;" /><rect x="324.957" y="433.311" width="216.614" height="108.307" style="fill:#ffb972;" /><rect x="541.57" y="433.311" width="216.614" height="649.841" style="fill:#522801;" /><rect x="2707.706" y="433.311" width="108.307" height="974.761" style="fill:#522801;" /><rect x="2924.32" y="433.311" width="108.307" height="216.614" style="fill:#a5672a;" /><rect x="216.65" y="541.618" width="216.614" height="108.307" style="fill:#ffb972;" /><rect x="433.264" y="541.618" width="108.307" height="2274.442" style="fill:#522801;" /><rect x="2816.013" y="541.618" width="108.307" height="2382.749" style="fill:#522801;" /><rect x="3032.626" y="541.618" width="108.307" height="216.614" style="fill:#a5672a;" /><rect x="216.65" y="649.925" width="108.307" height="216.614" style="fill:#ffb972;" /><rect x="324.957" y="649.925" width="108.307" height="2057.829" style="fill:#522801;" /><rect x="2924.32" y="649.925" width="108.307" height="2166.136" style="fill:#522801;" /><rect x="3140.933" y="649.925" width="108.307" height="324.92" style="fill:#a5672a;" /><rect x="108.343" y="758.231" width="108.307" height="1732.908" style="fill:#ffb972;" /><rect x="3032.626" y="758.231" width="108.307" height="1949.522" style="fill:#522801;" /><rect x="216.65" y="866.538" width="108.307" height="1624.602" style="fill:#522801;" /><rect x="3249.24" y="866.538" width="108.307" height="324.92" style="fill:#a5672a;" /><rect x="3140.933" y="974.845" width="108.307" height="1516.295" style="fill:#522801;" /><rect x="541.57" y="1083.152" width="108.307" height="1841.215" style="fill:#522801;" /><rect x="649.877" y="1083.152" width="216.614" height="108.307" style="fill:#ce6607;" /><rect x="866.491" y="1083.152" width="108.307" height="108.307" style="fill:#d78336;" /><rect x="974.797" y="1083.152" width="108.307" height="108.307" style="fill:#ecebe9;" /><rect x="1083.104" y="1083.152" width="1407.988" height="108.307" style="fill:#e8e7e4;" /><rect x="649.877" y="1191.458" width="108.307" height="216.614" style="fill:#ce6607;" /><rect x="758.184" y="1191.458" width="216.614" height="108.307" style="fill:#a85000;" /><rect x="974.797" y="1191.458" width="108.307" height="108.307" style="fill:#ebbd70;" /><rect x="1083.104" y="1191.458" width="1516.295" height="108.307" style="fill:#ffd270;" /><rect x="2599.399" y="1191.458" width="108.307" height="108.307" style="fill:#522801;" /><rect x="3249.24" y="1191.458" width="108.307" height="1407.988" style="fill:#6f3d0c;" /><rect x="758.184" y="1299.765" width="108.307" height="108.307" style="fill:#e8b485;" /><rect x="866.491" y="1299.765" width="108.307" height="1841.215" style="fill:#a85000;" /><rect x="974.797" y="1299.765" width="108.307" height="1949.522" style="fill:#dd8a00;" /><rect x="1083.104" y="1299.765" width="433.227" height="216.614" style="fill:#ffb000;" /><rect x="1516.331" y="1299.765" width="108.307" height="216.614" style="fill:#d89500;" /><rect x="1624.638" y="1299.765" width="108.307" height="433.227" style="fill:#ffb000;" /><rect x="1732.945" y="1299.765" width="108.307" height="433.227" style="fill:#d89500;" /><rect x="1841.252" y="1299.765" width="216.614" height="541.534" style="fill:#ffb000;" /><rect x="2057.865" y="1299.765" width="108.307" height="541.534" style="fill:#d89500;" /><rect x="2166.172" y="1299.765" width="324.92" height="1732.908" style="fill:#ffb000;" /><rect x="2491.092" y="1299.765" width="216.614" height="108.307" style="fill:#ffd270;" /><rect x="649.877" y="1408.072" width="108.307" height="1516.295" style="fill:#a85000;" /><rect x="758.184" y="1408.072" width="108.307" height="108.307" style="fill:#ff9f48;" /><rect x="2491.092" y="1408.072" width="108.307" height="1624.602" style="fill:#ffb000;" /><rect x="2599.399" y="1408.072" width="216.614" height="108.307" style="fill:#ffd270;" /><rect x="758.184" y="1516.379" width="108.307" height="216.614" style="fill:#a85000;" /><rect x="1083.104" y="1516.379" width="324.92" height="108.307" style="fill:#ffb000;" /><rect x="1408.025" y="1516.379" width="108.307" height="108.307" style="fill:#d89500;" /><rect x="1516.331" y="1516.379" width="108.307" height="324.92" style="fill:#ffb000;" /><rect x="2599.399" y="1516.379" width="108.307" height="1516.295" style="fill:#ffb000;" /><rect x="2707.706" y="1516.379" width="108.307" height="1516.295" style="fill:#ffd270;" /><rect x="1083.104" y="1624.686" width="216.614" height="108.307" style="fill:#ffb000;" /><rect x="1299.718" y="1624.686" width="108.307" height="108.307" style="fill:#d89500;" /><rect x="1408.025" y="1624.686" width="108.307" height="324.92" style="fill:#ffb000;" /><rect x="758.184" y="1732.992" width="108.307" height="108.307" style="fill:#ffc189;" /><rect x="1083.104" y="1732.992" width="216.614" height="108.307" style="fill:#d89500;" /><rect x="1299.718" y="1732.992" width="108.307" height="324.92" style="fill:#ffb000;" /><rect x="1624.638" y="1732.992" width="108.307" height="108.307" style="fill:#d89500;" /><rect x="1732.945" y="1732.992" width="108.307" height="324.92" style="fill:#ffb000;" /><rect x="758.184" y="1841.299" width="108.307" height="108.307" style="fill:#dc8b42;" /><rect x="1083.104" y="1841.299" width="216.614" height="216.614" style="fill:#ffb000;" /><rect x="1516.331" y="1841.299" width="108.307" height="108.307" style="fill:#d89500;" /><rect x="1624.638" y="1841.299" width="108.307" height="324.92" style="fill:#ffb000;" /><rect x="1841.252" y="1841.299" width="108.307" height="108.307" style="fill:#ffb000;" /><rect x="1949.559" y="1841.299" width="108.307" height="108.307" style="fill:#d89500;" /><rect x="2057.865" y="1841.299" width="108.307" height="1299.681" style="fill:#ffb000;" /><rect x="758.184" y="1949.606" width="108.307" height="216.614" style="fill:#a85000;" /><rect x="1408.025" y="1949.606" width="108.307" height="108.307" style="fill:#d89500;" /><rect x="1516.331" y="1949.606" width="108.307" height="324.92" style="fill:#ffb000;" /><rect x="1841.252" y="1949.606" width="108.307" height="108.307" style="fill:#d89500;" /><rect x="1949.559" y="1949.606" width="108.307" height="1191.375" style="fill:#ffb000;" /><rect x="1083.104" y="2057.913" width="324.92" height="108.307" style="fill:#d89500;" /><rect x="1408.025" y="2057.913" width="108.307" height="324.92" style="fill:#ffb000;" /><rect x="1732.945" y="2057.913" width="108.307" height="108.307" style="fill:#d89500;" /><rect x="1841.252" y="2057.913" width="108.307" height="1083.068" style="fill:#ffb000;" /><rect x="758.184" y="2166.22" width="108.307" height="108.307" style="fill:#e8b485;" /><rect x="1083.104" y="2166.22" width="324.92" height="216.614" style="fill:#ffb000;" /><rect x="1624.638" y="2166.22" width="108.307" height="108.307" style="fill:#d89500;" /><rect x="1732.945" y="2166.22" width="108.307" height="974.761" style="fill:#ffb000;" /><rect x="758.184" y="2274.526" width="108.307" height="108.307" style="fill:#ff9f48;" /><rect x="1516.331" y="2274.526" width="108.307" height="108.307" style="fill:#d89500;" /><rect x="1624.638" y="2274.526" width="108.307" height="866.454" style="fill:#ffb000;" /><rect x="758.184" y="2382.833" width="108.307" height="216.614" style="fill:#a85000;" /><rect x="1083.104" y="2382.833" width="433.227" height="108.307" style="fill:#d89500;" /><rect x="1516.331" y="2382.833" width="108.307" height="758.147" style="fill:#ffb000;" /><rect x="108.343" y="2491.14" width="216.614" height="108.307" style="fill:#ffa54b;" /><rect x="1083.104" y="2491.14" width="433.227" height="649.841" style="fill:#ffb000;" /><rect x="3140.933" y="2491.14" width="108.307" height="324.92" style="fill:#6f3d0c;" /><rect x="216.65" y="2599.447" width="108.307" height="108.307" style="fill:#ffa54b;" /><rect x="758.184" y="2599.447" width="108.307" height="108.307" style="fill:#ffc189;" /><rect x="216.65" y="2707.753" width="216.614" height="108.307" style="fill:#a5672a;" /><rect x="758.184" y="2707.753" width="108.307" height="108.307" style="fill:#dc8b42;" /><rect x="3032.626" y="2707.753" width="108.307" height="216.614" style="fill:#6f3d0c;" /><rect x="324.957" y="2816.06" width="216.614" height="108.307" style="fill:#a5672a;" /><rect x="758.184" y="2816.06" width="108.307" height="216.614" style="fill:#a85000;" /><rect x="2924.32" y="2816.06" width="108.307" height="216.614" style="fill:#6f3d0c;" /><rect x="433.264" y="2924.367" width="216.614" height="108.307" style="fill:#a5672a;" /><rect x="649.877" y="2924.367" width="108.307" height="108.307" style="fill:#8e4503;" /><rect x="2816.013" y="2924.367" width="108.307" height="216.614" style="fill:#6f3d0c;" /><rect x="541.57" y="3032.674" width="216.614" height="108.307" style="fill:#a5672a;" /><rect x="758.184" y="3032.674" width="108.307" height="108.307" style="fill:#8e4503;" /><rect x="2166.172" y="3032.674" width="216.614" height="108.307" style="fill:#ffb000;" /><rect x="2382.786" y="3032.674" width="324.92" height="108.307" style="fill:#e4a415;" /><rect x="2707.706" y="3032.674" width="108.307" height="216.614" style="fill:#6f3d0c;" /><rect x="649.877" y="3140.981" width="216.614" height="108.307" style="fill:#6f3d0c;" /><rect x="866.491" y="3140.981" width="108.307" height="108.307" style="fill:#8e4503;" /><rect x="1083.104" y="3140.981" width="1407.988" height="108.307" style="fill:#e4a415;" /><rect x="2491.092" y="3140.981" width="216.614" height="108.307" style="fill:#6f3d0c;" /><rect x="866.491" y="3249.287" width="1732.908" height="108.307" style="fill:#6f3d0c;" /></svg>