<?xml version='1.0' encoding='utf-8'?>
<svg xmlns="http://www.w3.org/2000/svg" viewBox="0 0 3249.564 3250.06" width="512" height="512" version="1.1" xml:space="preserve" style="fill-rule:evenodd;clip-rule:evenodd;stroke-linejoin:round;stroke-miterlimit:2;"><rect x="758.507" y="217.469" width="1949.522" height="433.227" style="fill:#121212;" /><rect x="541.894" y="325.776" width="216.614" height="1083.068" style="fill:#121212;" /><rect x="2708.03" y="325.776" width="216.614" height="1083.068" style="fill:#121212;" /><rect x="433.587" y="434.083" width="108.307" height="2599.363" style="fill:#121212;" /><rect x="2924.643" y="434.083" width="108.307" height="2599.363" style="fill:#121212;" /><rect x="325.28" y="542.39" width="108.307" height="2382.749" style="fill:#121212;" /><rect x="3032.95" y="542.39" width="108.307" height="2382.749" style="fill:#121212;" /><rect x="758.507" y="650.696" width="649.841" height="108.307" style="fill:#121212;" /><rect x="1408.348" y="650.696" width="649.841" height="108.307" style="fill:#131313;" /><rect x="2058.189" y="650.696" width="649.841" height="108.307" style="fill:#121212;" /><rect x="216.974" y="759.003" width="108.307" height="1949.522" style="fill:#121212;" /><rect x="758.507" y="759.003" width="433.227" height="108.307" style="fill:#121212;" /><rect x="1191.735" y="759.003" width="108.307" height="108.307" style="fill:#131313;" /><rect x="1300.041" y="759.003" width="433.227" height="216.614" style="fill:#f45329;" /><rect x="1733.269" y="759.003" width="108.307" height="649.841" style="fill:#f45c31;" /><rect x="1841.575" y="759.003" width="108.307" height="649.841" style="fill:#f46438;" /><rect x="1949.882" y="759.003" width="433.227" height="108.307" style="fill:#f66e41;" /><rect x="2383.109" y="759.003" width="324.92" height="108.307" style="fill:#121212;" /><rect x="3141.257" y="759.003" width="108.307" height="1949.522" style="fill:#121212;" /><rect x="758.507" y="867.31" width="216.614" height="108.307" style="fill:#121212;" /><rect x="975.121" y="867.31" width="108.307" height="108.307" style="fill:#131313;" /><rect x="1083.428" y="867.31" width="108.307" height="108.307" style="fill:#141414;" /><rect x="1191.735" y="867.31" width="108.307" height="433.227" style="fill:#f45329;" /><rect x="1949.882" y="867.31" width="216.614" height="108.307" style="fill:#f66e41;" /><rect x="2166.496" y="867.31" width="108.307" height="108.307" style="fill:#f56d40;" /><rect x="2274.802" y="867.31" width="108.307" height="108.307" style="fill:#dc633b;" /><rect x="2383.109" y="867.31" width="108.307" height="108.307" style="fill:#f66e41;" /><rect x="2491.416" y="867.31" width="216.614" height="108.307" style="fill:#121212;" /><rect x="758.507" y="975.617" width="108.307" height="216.614" style="fill:#121212;" /><rect x="866.814" y="975.617" width="108.307" height="108.307" style="fill:#131313;" /><rect x="975.121" y="975.617" width="108.307" height="108.307" style="fill:#141414;" /><rect x="1083.428" y="975.617" width="108.307" height="216.614" style="fill:#f45329;" /><rect x="1300.041" y="975.617" width="324.92" height="433.227" style="fill:#f45329;" /><rect x="1624.962" y="975.617" width="108.307" height="216.614" style="fill:#f4562b;" /><rect x="1949.882" y="975.617" width="108.307" height="216.614" style="fill:#f46a3d;" /><rect x="2058.189" y="975.617" width="108.307" height="216.614" style="fill:#f56d40;" /><rect x="2166.496" y="975.617" width="108.307" height="108.307" style="fill:#f46d40;" /><rect x="2274.802" y="975.617" width="108.307" height="108.307" style="fill:#f16c40;" /><rect x="2383.109" y="975.617" width="108.307" height="108.307" style="fill:#d8623b;" /><rect x="2491.416" y="975.617" width="108.307" height="216.614" style="fill:#f66e41;" /><rect x="2599.723" y="975.617" width="108.307" height="216.614" style="fill:#121212;" /><rect x="866.814" y="1083.924" width="108.307" height="108.307" style="fill:#141414;" /><rect x="975.121" y="1083.924" width="108.307" height="108.307" style="fill:#151515;" /><rect x="2166.496" y="1083.924" width="108.307" height="108.307" style="fill:#f06b40;" /><rect x="2274.802" y="1083.924" width="108.307" height="108.307" style="fill:#ee6a3f;" /><rect x="2383.109" y="1083.924" width="108.307" height="108.307" style="fill:#d6613a;" /><rect x="758.507" y="1192.23" width="108.307" height="108.307" style="fill:#131313;" /><rect x="866.814" y="1192.23" width="108.307" height="108.307" style="fill:#151515;" /><rect x="975.121" y="1192.23" width="108.307" height="108.307" style="fill:#161616;" /><rect x="1083.428" y="1192.23" width="108.307" height="108.307" style="fill:#181818;" /><rect x="1624.962" y="1192.23" width="108.307" height="216.614" style="fill:#f45329;" /><rect x="1949.882" y="1192.23" width="216.614" height="216.614" style="fill:#f66e41;" /><rect x="2166.496" y="1192.23" width="108.307" height="108.307" style="fill:#f16c40;" /><rect x="2274.802" y="1192.23" width="108.307" height="108.307" style="fill:#d5613b;" /><rect x="2383.109" y="1192.23" width="108.307" height="108.307" style="fill:#f66e41;" /><rect x="2491.416" y="1192.23" width="108.307" height="108.307" style="fill:#151515;" /><rect x="2599.723" y="1192.23" width="108.307" height="108.307" style="fill:#131313;" /><rect x="758.507" y="1300.537" width="108.307" height="216.614" style="fill:#141414;" /><rect x="866.814" y="1300.537" width="108.307" height="216.614" style="fill:#161616;" /><rect x="975.121" y="1300.537" width="108.307" height="216.614" style="fill:#181818;" /><rect x="1083.428" y="1300.537" width="108.307" height="108.307" style="fill:#191919;" /><rect x="1191.735" y="1300.537" width="108.307" height="108.307" style="fill:#1b1b1b;" /><rect x="2166.496" y="1300.537" width="216.614" height="108.307" style="fill:#f66e41;" /><rect x="2383.109" y="1300.537" width="108.307" height="216.614" style="fill:#181818;" /><rect x="2491.416" y="1300.537" width="108.307" height="216.614" style="fill:#161616;" /><rect x="2599.723" y="1300.537" width="108.307" height="216.614" style="fill:#141414;" /><rect x="541.894" y="1408.844" width="108.307" height="1732.908" style="fill:#121212;" /><rect x="650.201" y="1408.844" width="108.307" height="649.841" style="fill:#131313;" /><rect x="1083.428" y="1408.844" width="108.307" height="108.307" style="fill:#1a1a1a;" /><rect x="1191.735" y="1408.844" width="108.307" height="108.307" style="fill:#1c1c1c;" /><rect x="1300.041" y="1408.844" width="433.227" height="108.307" style="fill:#8341f6;" /><rect x="1733.269" y="1408.844" width="216.614" height="108.307" style="fill:#1e1e1e;" /><rect x="1949.882" y="1408.844" width="433.227" height="108.307" style="fill:#41bff6;" /><rect x="2708.03" y="1408.844" width="108.307" height="649.841" style="fill:#131313;" /><rect x="2816.336" y="1408.844" width="108.307" height="1732.908" style="fill:#121212;" /><rect x="758.507" y="1517.151" width="108.307" height="433.227" style="fill:#151515;" /><rect x="866.814" y="1517.151" width="108.307" height="433.227" style="fill:#171717;" /><rect x="975.121" y="1517.151" width="108.307" height="433.227" style="fill:#191919;" /><rect x="1083.428" y="1517.151" width="108.307" height="108.307" style="fill:#1b1b1b;" /><rect x="1191.735" y="1517.151" width="108.307" height="108.307" style="fill:#8341f6;" /><rect x="1300.041" y="1517.151" width="108.307" height="108.307" style="fill:#743bd6;" /><rect x="1408.348" y="1517.151" width="108.307" height="216.614" style="fill:#8040f0;" /><rect x="1516.655" y="1517.151" width="108.307" height="108.307" style="fill:#8240f5;" /><rect x="1624.962" y="1517.151" width="216.614" height="433.227" style="fill:#8341f6;" /><rect x="1841.575" y="1517.151" width="216.614" height="108.307" style="fill:#41bff6;" /><rect x="2058.189" y="1517.151" width="216.614" height="108.307" style="fill:#3fb6ea;" /><rect x="2274.802" y="1517.151" width="216.614" height="108.307" style="fill:#41bff6;" /><rect x="2491.416" y="1517.151" width="108.307" height="433.227" style="fill:#171717;" /><rect x="2599.723" y="1517.151" width="108.307" height="433.227" style="fill:#151515;" /><rect x="1083.428" y="1625.457" width="108.307" height="216.614" style="fill:#8341f6;" /><rect x="1191.735" y="1625.457" width="108.307" height="108.307" style="fill:#743bd6;" /><rect x="1300.041" y="1625.457" width="108.307" height="108.307" style="fill:#7f3fee;" /><rect x="1516.655" y="1625.457" width="108.307" height="108.307" style="fill:#8240f4;" /><rect x="1841.575" y="1625.457" width="108.307" height="324.92" style="fill:#41bff6;" /><rect x="1949.882" y="1625.457" width="108.307" height="108.307" style="fill:#3fb6ea;" /><rect x="2058.189" y="1625.457" width="108.307" height="108.307" style="fill:#3eb1e4;" /><rect x="2166.496" y="1625.457" width="108.307" height="108.307" style="fill:#3db1e4;" /><rect x="2274.802" y="1625.457" width="108.307" height="108.307" style="fill:#3eb5e9;" /><rect x="2383.109" y="1625.457" width="108.307" height="324.92" style="fill:#41bff6;" /><rect x="1191.735" y="1733.764" width="108.307" height="108.307" style="fill:#753cd9;" /><rect x="1300.041" y="1733.764" width="108.307" height="108.307" style="fill:#8040f0;" /><rect x="1408.348" y="1733.764" width="108.307" height="108.307" style="fill:#8140f3;" /><rect x="1516.655" y="1733.764" width="108.307" height="108.307" style="fill:#8240f5;" /><rect x="1949.882" y="1733.764" width="108.307" height="108.307" style="fill:#3eb4e8;" /><rect x="2058.189" y="1733.764" width="216.614" height="108.307" style="fill:#3db0e2;" /><rect x="2274.802" y="1733.764" width="108.307" height="108.307" style="fill:#3eb4e8;" /><rect x="1083.428" y="1842.071" width="108.307" height="108.307" style="fill:#1b1b1b;" /><rect x="1191.735" y="1842.071" width="108.307" height="108.307" style="fill:#8341f6;" /><rect x="1300.041" y="1842.071" width="108.307" height="108.307" style="fill:#773cdc;" /><rect x="1408.348" y="1842.071" width="108.307" height="108.307" style="fill:#8240f5;" /><rect x="1516.655" y="1842.071" width="108.307" height="216.614" style="fill:#8341f6;" /><rect x="1949.882" y="1842.071" width="108.307" height="216.614" style="fill:#41bff6;" /><rect x="2058.189" y="1842.071" width="216.614" height="108.307" style="fill:#3eb4e7;" /><rect x="2274.802" y="1842.071" width="108.307" height="216.614" style="fill:#41bff6;" /><rect x="758.507" y="1950.378" width="108.307" height="216.614" style="fill:#141414;" /><rect x="866.814" y="1950.378" width="108.307" height="216.614" style="fill:#161616;" /><rect x="975.121" y="1950.378" width="108.307" height="216.614" style="fill:#181818;" /><rect x="1083.428" y="1950.378" width="108.307" height="108.307" style="fill:#1a1a1a;" /><rect x="1191.735" y="1950.378" width="108.307" height="108.307" style="fill:#1c1c1c;" /><rect x="1300.041" y="1950.378" width="216.614" height="108.307" style="fill:#8341f6;" /><rect x="1624.962" y="1950.378" width="108.307" height="108.307" style="fill:#8341f6;" /><rect x="1733.269" y="1950.378" width="216.614" height="108.307" style="fill:#1e1e1e;" /><rect x="2058.189" y="1950.378" width="216.614" height="108.307" style="fill:#41bff6;" /><rect x="2383.109" y="1950.378" width="108.307" height="216.614" style="fill:#181818;" /><rect x="2491.416" y="1950.378" width="108.307" height="216.614" style="fill:#161616;" /><rect x="2599.723" y="1950.378" width="108.307" height="216.614" style="fill:#141414;" /><rect x="650.201" y="2058.685" width="108.307" height="1083.068" style="fill:#121212;" /><rect x="1083.428" y="2058.685" width="108.307" height="108.307" style="fill:#191919;" /><rect x="1191.735" y="2058.685" width="108.307" height="108.307" style="fill:#1b1b1b;" /><rect x="1300.041" y="2058.685" width="433.227" height="108.307" style="fill:#5dde29;" /><rect x="1733.269" y="2058.685" width="324.92" height="108.307" style="fill:#1d1d1d;" /><rect x="2058.189" y="2058.685" width="108.307" height="108.307" style="fill:#1c1c1c;" /><rect x="2166.496" y="2058.685" width="108.307" height="108.307" style="fill:#1b1b1b;" /><rect x="2274.802" y="2058.685" width="108.307" height="108.307" style="fill:#191919;" /><rect x="2708.03" y="2058.685" width="108.307" height="1083.068" style="fill:#121212;" /><rect x="758.507" y="2166.991" width="108.307" height="108.307" style="fill:#131313;" /><rect x="866.814" y="2166.991" width="108.307" height="108.307" style="fill:#151515;" /><rect x="975.121" y="2166.991" width="108.307" height="108.307" style="fill:#161616;" /><rect x="1083.428" y="2166.991" width="108.307" height="108.307" style="fill:#181818;" /><rect x="1191.735" y="2166.991" width="108.307" height="108.307" style="fill:#5dde29;" /><rect x="1300.041" y="2166.991" width="108.307" height="108.307" style="fill:#53c227;" /><rect x="1408.348" y="2166.991" width="108.307" height="108.307" style="fill:#5ad528;" /><rect x="1516.655" y="2166.991" width="108.307" height="108.307" style="fill:#5bda28;" /><rect x="1624.962" y="2166.991" width="216.614" height="108.307" style="fill:#5dde29;" /><rect x="1841.575" y="2166.991" width="216.614" height="108.307" style="fill:#1c1c1c;" /><rect x="2058.189" y="2166.991" width="108.307" height="108.307" style="fill:#1b1b1b;" /><rect x="2166.496" y="2166.991" width="108.307" height="108.307" style="fill:#1a1a1a;" /><rect x="2274.802" y="2166.991" width="108.307" height="108.307" style="fill:#181818;" /><rect x="2383.109" y="2166.991" width="108.307" height="108.307" style="fill:#161616;" /><rect x="2491.416" y="2166.991" width="108.307" height="108.307" style="fill:#151515;" /><rect x="2599.723" y="2166.991" width="108.307" height="108.307" style="fill:#131313;" /><rect x="758.507" y="2275.298" width="108.307" height="974.761" style="fill:#121212;" /><rect x="866.814" y="2275.298" width="108.307" height="108.307" style="fill:#141414;" /><rect x="975.121" y="2275.298" width="108.307" height="108.307" style="fill:#151515;" /><rect x="1083.428" y="2275.298" width="108.307" height="108.307" style="fill:#59d328;" /><rect x="1191.735" y="2275.298" width="108.307" height="108.307" style="fill:#52bf26;" /><rect x="1300.041" y="2275.298" width="108.307" height="108.307" style="fill:#56cc27;" /><rect x="1408.348" y="2275.298" width="108.307" height="108.307" style="fill:#58d028;" /><rect x="1516.655" y="2275.298" width="108.307" height="216.614" style="fill:#5ad728;" /><rect x="1624.962" y="2275.298" width="108.307" height="216.614" style="fill:#5cdb28;" /><rect x="1733.269" y="2275.298" width="108.307" height="108.307" style="fill:#5dde29;" /><rect x="1841.575" y="2275.298" width="108.307" height="108.307" style="fill:#1d211b;" /><rect x="1949.882" y="2275.298" width="108.307" height="108.307" style="fill:#1a1a1a;" /><rect x="2058.189" y="2275.298" width="108.307" height="108.307" style="fill:#191919;" /><rect x="2166.496" y="2275.298" width="108.307" height="108.307" style="fill:#181818;" /><rect x="2274.802" y="2275.298" width="108.307" height="108.307" style="fill:#171717;" /><rect x="2383.109" y="2275.298" width="108.307" height="108.307" style="fill:#151515;" /><rect x="2491.416" y="2275.298" width="108.307" height="108.307" style="fill:#141414;" /><rect x="2599.723" y="2275.298" width="108.307" height="974.761" style="fill:#121212;" /><rect x="866.814" y="2383.605" width="108.307" height="108.307" style="fill:#131313;" /><rect x="975.121" y="2383.605" width="108.307" height="108.307" style="fill:#151814;" /><rect x="1083.428" y="2383.605" width="108.307" height="108.307" style="fill:#59d227;" /><rect x="1191.735" y="2383.605" width="108.307" height="108.307" style="fill:#50bb25;" /><rect x="1300.041" y="2383.605" width="108.307" height="108.307" style="fill:#56ca27;" /><rect x="1408.348" y="2383.605" width="108.307" height="108.307" style="fill:#58d027;" /><rect x="1733.269" y="2383.605" width="108.307" height="108.307" style="fill:#5ad728;" /><rect x="1841.575" y="2383.605" width="108.307" height="108.307" style="fill:#1b1f19;" /><rect x="1949.882" y="2383.605" width="216.614" height="108.307" style="fill:#181818;" /><rect x="2166.496" y="2383.605" width="108.307" height="108.307" style="fill:#161616;" /><rect x="2274.802" y="2383.605" width="108.307" height="108.307" style="fill:#151515;" /><rect x="2383.109" y="2383.605" width="108.307" height="108.307" style="fill:#141414;" /><rect x="2491.416" y="2383.605" width="108.307" height="108.307" style="fill:#131313;" /><rect x="866.814" y="2491.912" width="108.307" height="758.147" style="fill:#121212;" /><rect x="975.121" y="2491.912" width="108.307" height="108.307" style="fill:#131513;" /><rect x="1083.428" y="2491.912" width="108.307" height="108.307" style="fill:#161b14;" /><rect x="1191.735" y="2491.912" width="108.307" height="108.307" style="fill:#57cd27;" /><rect x="1300.041" y="2491.912" width="108.307" height="108.307" style="fill:#50bb25;" /><rect x="1408.348" y="2491.912" width="108.307" height="108.307" style="fill:#59d328;" /><rect x="1516.655" y="2491.912" width="216.614" height="108.307" style="fill:#5bda28;" /><rect x="1733.269" y="2491.912" width="108.307" height="108.307" style="fill:#59d328;" /><rect x="1841.575" y="2491.912" width="108.307" height="108.307" style="fill:#181b17;" /><rect x="1949.882" y="2491.912" width="216.614" height="108.307" style="fill:#161616;" /><rect x="2166.496" y="2491.912" width="108.307" height="108.307" style="fill:#151515;" /><rect x="2274.802" y="2491.912" width="108.307" height="108.307" style="fill:#141414;" /><rect x="2383.109" y="2491.912" width="108.307" height="108.307" style="fill:#131313;" /><rect x="2491.416" y="2491.912" width="108.307" height="758.147" style="fill:#121212;" /><rect x="975.121" y="2600.219" width="108.307" height="649.841" style="fill:#121212;" /><rect x="1083.428" y="2600.219" width="108.307" height="108.307" style="fill:#121412;" /><rect x="1191.735" y="2600.219" width="108.307" height="108.307" style="fill:#172014;" /><rect x="1300.041" y="2600.219" width="108.307" height="108.307" style="fill:#55ca26;" /><rect x="1408.348" y="2600.219" width="108.307" height="108.307" style="fill:#57ce27;" /><rect x="1516.655" y="2600.219" width="108.307" height="108.307" style="fill:#5ad628;" /><rect x="1624.962" y="2600.219" width="108.307" height="108.307" style="fill:#59d327;" /><rect x="1733.269" y="2600.219" width="108.307" height="108.307" style="fill:#171c15;" /><rect x="1841.575" y="2600.219" width="108.307" height="108.307" style="fill:#151715;" /><rect x="1949.882" y="2600.219" width="216.614" height="108.307" style="fill:#141414;" /><rect x="2166.496" y="2600.219" width="108.307" height="108.307" style="fill:#131313;" /><rect x="2274.802" y="2600.219" width="216.614" height="649.841" style="fill:#121212;" /><rect x="1083.428" y="2708.525" width="108.307" height="541.534" style="fill:#121212;" /><rect x="1191.735" y="2708.525" width="108.307" height="108.307" style="fill:#131612;" /><rect x="1300.041" y="2708.525" width="108.307" height="108.307" style="fill:#151b13;" /><rect x="1408.348" y="2708.525" width="216.614" height="108.307" style="fill:#151a13;" /><rect x="1624.962" y="2708.525" width="108.307" height="108.307" style="fill:#141713;" /><rect x="1733.269" y="2708.525" width="324.92" height="108.307" style="fill:#131313;" /><rect x="2058.189" y="2708.525" width="216.614" height="541.534" style="fill:#121212;" /><rect x="1191.735" y="2816.832" width="866.454" height="433.227" style="fill:#121212;" /></svg>