<?xml version='1.0' encoding='utf-8'?>
<svg xmlns="http://www.w3.org/2000/svg" viewBox="0 0 3357.8549999999996 3357.594" width="512" height="512" version="1.1" xml:space="preserve" style="fill-rule:evenodd;clip-rule:evenodd;stroke-linejoin:round;stroke-miterlimit:2;"><rect x="866.799" y="108.391" width="1732.908" height="324.92" /><rect x="650.186" y="216.697" width="216.614" height="649.841" /><rect x="2599.708" y="216.697" width="216.614" height="649.841" /><rect x="541.879" y="325.004" width="108.307" height="1083.068" /><rect x="2816.321" y="325.004" width="108.307" height="1083.068" /><rect x="433.572" y="433.311" width="108.307" height="2599.363" /><rect x="866.799" y="433.311" width="541.534" height="108.307" /><rect x="1408.333" y="433.311" width="541.534" height="108.307" style="fill:#ffd96b;" /><rect x="1949.867" y="433.311" width="216.614" height="108.307" style="fill:#ffce3d;" /><rect x="2166.481" y="433.311" width="433.227" height="108.307" /><rect x="2924.628" y="433.311" width="108.307" height="2599.363" /><rect x="325.265" y="541.618" width="108.307" height="2382.749" /><rect x="866.799" y="541.618" width="216.614" height="108.307" /><rect x="1083.413" y="541.618" width="108.307" height="108.307" style="fill:#ffe392;" /><rect x="1191.72" y="541.618" width="108.307" height="108.307" style="fill:#ffd96b;" /><rect x="1300.026" y="541.618" width="758.147" height="108.307" style="fill:#ffce3d;" /><rect x="2058.174" y="541.618" width="324.92" height="433.227" style="fill:#ffbe00;" /><rect x="2383.094" y="541.618" width="216.614" height="108.307" /><rect x="3032.935" y="541.618" width="108.307" height="2382.749" /><rect x="216.959" y="649.925" width="108.307" height="2166.136" /><rect x="866.799" y="649.925" width="108.307" height="108.307" /><rect x="975.106" y="649.925" width="108.307" height="108.307" style="fill:#ffe392;" /><rect x="1083.413" y="649.925" width="324.92" height="108.307" style="fill:#ffce3d;" /><rect x="1408.333" y="649.925" width="649.841" height="324.92" style="fill:#ffbe00;" /><rect x="2383.094" y="649.925" width="108.307" height="433.227" style="fill:#ffbe00;" /><rect x="2491.401" y="649.925" width="108.307" height="108.307" /><rect x="3141.242" y="649.925" width="108.307" height="2166.136" /><rect x="866.799" y="758.231" width="108.307" height="108.307" style="fill:#ffe392;" /><rect x="975.106" y="758.231" width="216.614" height="108.307" style="fill:#ffce3d;" /><rect x="1191.72" y="758.231" width="216.614" height="216.614" style="fill:#ffbe00;" /><rect x="2491.401" y="758.231" width="108.307" height="433.227" style="fill:#ffbe00;" /><rect x="108.652" y="866.538" width="108.307" height="1732.908" /><rect x="650.186" y="866.538" width="108.307" height="108.307" /><rect x="758.492" y="866.538" width="108.307" height="108.307" style="fill:#ffe392;" /><rect x="866.799" y="866.538" width="216.614" height="108.307" style="fill:#ffce3d;" /><rect x="1083.413" y="866.538" width="108.307" height="324.92" style="fill:#ffbe00;" /><rect x="2599.708" y="866.538" width="108.307" height="433.227" style="fill:#ffbe00;" /><rect x="2708.014" y="866.538" width="108.307" height="108.307" /><rect x="3249.548" y="866.538" width="108.307" height="1732.908" /><rect x="650.186" y="974.845" width="108.307" height="216.614" style="fill:#ffe392;" /><rect x="758.492" y="974.845" width="216.614" height="216.614" style="fill:#ffce3d;" /><rect x="975.106" y="974.845" width="108.307" height="1407.988" style="fill:#ffbe00;" /><rect x="1191.72" y="974.845" width="108.307" height="108.307" style="fill:#ffbe00;" /><rect x="1300.026" y="974.845" width="216.614" height="216.614" style="fill:#fff;" /><rect x="1516.64" y="974.845" width="758.147" height="108.307" style="fill:#ffbe00;" /><rect x="2274.787" y="974.845" width="108.307" height="758.147" style="fill:#fff;" /><rect x="2708.014" y="974.845" width="108.307" height="1624.602" style="fill:#ffbe00;" /><rect x="1191.72" y="1083.152" width="108.307" height="541.534" style="fill:#fff;" /><rect x="1516.64" y="1083.152" width="108.307" height="108.307" style="fill:#fff;" /><rect x="1624.947" y="1083.152" width="541.534" height="108.307" style="fill:#ffbe00;" /><rect x="2166.481" y="1083.152" width="108.307" height="541.534" style="fill:#fff;" /><rect x="2383.094" y="1083.152" width="108.307" height="108.307" style="fill:#fff;" /><rect x="650.186" y="1191.458" width="108.307" height="324.92" style="fill:#ffd96b;" /><rect x="758.492" y="1191.458" width="108.307" height="433.227" style="fill:#ffce3d;" /><rect x="866.799" y="1191.458" width="108.307" height="1191.375" style="fill:#ffbe00;" /><rect x="1083.413" y="1191.458" width="108.307" height="324.92" style="fill:#fff;" /><rect x="1300.026" y="1191.458" width="108.307" height="541.534" style="fill:#fff;" /><rect x="1408.333" y="1191.458" width="324.92" height="108.307" style="fill:#f5f5f5;" /><rect x="1733.253" y="1191.458" width="324.92" height="1191.375" style="fill:#ffbe00;" /><rect x="2058.174" y="1191.458" width="108.307" height="324.92" style="fill:#fff;" /><rect x="2383.094" y="1191.458" width="216.614" height="108.307" style="fill:#f5f5f5;" /><rect x="1408.333" y="1299.765" width="108.307" height="433.227" style="fill:#f5f5f5;" /><rect x="1516.64" y="1299.765" width="108.307" height="108.307" style="fill:#7d5d00;" /><rect x="1624.947" y="1299.765" width="108.307" height="324.92" style="fill:#413000;" /><rect x="2383.094" y="1299.765" width="108.307" height="433.227" style="fill:#f5f5f5;" /><rect x="2491.401" y="1299.765" width="108.307" height="108.307" style="fill:#7d5d00;" /><rect x="2599.708" y="1299.765" width="108.307" height="324.92" style="fill:#413000;" /><rect x="541.879" y="1408.072" width="108.307" height="108.307" style="fill:#ffd96b;" /><rect x="1516.64" y="1408.072" width="108.307" height="216.614" style="fill:#413000;" /><rect x="2491.401" y="1408.072" width="108.307" height="216.614" style="fill:#413000;" /><rect x="2816.321" y="1408.072" width="108.307" height="1191.375" style="fill:#ffbe00;" /><rect x="541.879" y="1516.379" width="108.307" height="324.92" style="fill:#ffe392;" /><rect x="650.186" y="1516.379" width="108.307" height="1191.375" style="fill:#ffce3d;" /><rect x="1083.413" y="1516.379" width="108.307" height="1083.068" style="fill:#ffbe00;" /><rect x="2058.174" y="1516.379" width="108.307" height="1191.375" style="fill:#ffbe00;" /><rect x="758.492" y="1624.686" width="108.307" height="974.761" style="fill:#ffbe00;" /><rect x="1191.72" y="1624.686" width="108.307" height="1083.068" style="fill:#ffbe00;" /><rect x="1516.64" y="1624.686" width="108.307" height="108.307" style="fill:#f5f5f5;" /><rect x="1624.947" y="1624.686" width="108.307" height="758.147" style="fill:#ffbe00;" /><rect x="2166.481" y="1624.686" width="108.307" height="1083.068" style="fill:#ffbe00;" /><rect x="2491.401" y="1624.686" width="108.307" height="108.307" style="fill:#f5f5f5;" /><rect x="2599.708" y="1624.686" width="108.307" height="758.147" style="fill:#ffbe00;" /><rect x="1300.026" y="1732.992" width="324.92" height="649.841" style="fill:#ffbe00;" /><rect x="2274.787" y="1732.992" width="324.92" height="649.841" style="fill:#ffbe00;" /><rect x="541.879" y="1841.299" width="108.307" height="216.614" style="fill:#ffd96b;" /><rect x="541.879" y="2057.913" width="108.307" height="324.92" style="fill:#ffe392;" /><rect x="541.879" y="2382.833" width="108.307" height="108.307" style="fill:#ffce3d;" /><rect x="866.799" y="2382.833" width="216.614" height="108.307" style="fill:#e7ac00;" /><rect x="1300.026" y="2382.833" width="216.614" height="108.307" style="fill:#ffbe00;" /><rect x="1516.64" y="2382.833" width="433.227" height="108.307" style="fill:#e7ac00;" /><rect x="1949.867" y="2382.833" width="108.307" height="108.307" style="fill:#ffbe00;" /><rect x="2274.787" y="2382.833" width="216.614" height="108.307" style="fill:#ffbe00;" /><rect x="2491.401" y="2382.833" width="216.614" height="108.307" style="fill:#e7ac00;" /><rect x="541.879" y="2491.14" width="108.307" height="216.614" style="fill:#ffe392;" /><rect x="866.799" y="2491.14" width="108.307" height="866.454" /><rect x="975.106" y="2491.14" width="108.307" height="216.614" style="fill:#e7ac00;" /><rect x="1300.026" y="2491.14" width="108.307" height="216.614" style="fill:#ffbe00;" /><rect x="1408.333" y="2491.14" width="108.307" height="324.92" style="fill:#e7ac00;" /><rect x="1516.64" y="2491.14" width="433.227" height="866.454" /><rect x="1949.867" y="2491.14" width="108.307" height="324.92" style="fill:#e7ac00;" /><rect x="2274.787" y="2491.14" width="108.307" height="108.307" style="fill:#ffbe00;" /><rect x="2383.094" y="2491.14" width="108.307" height="216.614" style="fill:#e7ac00;" /><rect x="2491.401" y="2491.14" width="216.614" height="758.147" /><rect x="758.492" y="2599.447" width="108.307" height="108.307" style="fill:#ffce3d;" /><rect x="1083.413" y="2599.447" width="108.307" height="108.307" style="fill:#e7ac00;" /><rect x="2274.787" y="2599.447" width="108.307" height="108.307" style="fill:#e7ac00;" /><rect x="2708.014" y="2599.447" width="216.614" height="108.307" style="fill:#e7ac00;" /><rect x="541.879" y="2707.753" width="324.92" height="433.227" /><rect x="975.106" y="2707.753" width="216.614" height="649.841" /><rect x="1191.72" y="2707.753" width="216.614" height="108.307" style="fill:#e7ac00;" /><rect x="2058.174" y="2707.753" width="216.614" height="108.307" style="fill:#e7ac00;" /><rect x="2274.787" y="2707.753" width="216.614" height="649.841" /><rect x="2708.014" y="2707.753" width="216.614" height="433.227" /><rect x="1191.72" y="2816.06" width="324.92" height="541.534" /><rect x="1949.867" y="2816.06" width="324.92" height="541.534" /><rect x="650.186" y="3140.981" width="216.614" height="108.307" /><rect x="2708.014" y="3140.981" width="108.307" height="108.307" /><rect x="2491.401" y="3249.287" width="108.307" height="108.307" /></svg>