<?xml version="1.0" encoding="UTF-8" ?>
<svg viewBox="0 0 32 32" version="1.1" width="512" height="512" xmlns="http://www.w3.org/2000/svg" shape-rendering="crispEdges">
<rect x="7" y="1" width="18" height="1" fill="#88CEFF" />
<rect x="5" y="2" width="3" height="1" fill="#88CEFF" />
<rect x="8" y="2" width="16" height="1" fill="#43B3FF" />
<rect x="24" y="2" width="3" height="1" fill="#8CD0FF" />
<rect x="4" y="3" width="2" height="1" fill="#75C7FF" />
<rect x="6" y="3" width="20" height="2" fill="#37AEFF" />
<rect x="26" y="3" width="2" height="1" fill="#79C9FF" />
<rect x="3" y="4" width="2" height="1" fill="#75C7FF" />
<rect x="5" y="4" width="1" height="1" fill="#37AEFF" />
<rect x="26" y="4" width="1" height="1" fill="#37AEFF" />
<rect x="27" y="4" width="2" height="1" fill="#79C9FF" />
<rect x="2" y="5" width="2" height="1" fill="#5FBEFF" />
<rect x="4" y="5" width="24" height="2" fill="#1EA4FF" />
<rect x="28" y="5" width="2" height="1" fill="#64C0FF" />
<rect x="2" y="6" width="1" height="1" fill="#5FBEFF" />
<rect x="3" y="6" width="1" height="1" fill="#1EA4FF" />
<rect x="28" y="6" width="1" height="1" fill="#1EA4FF" />
<rect x="29" y="6" width="1" height="1" fill="#64C0FF" />
<rect x="1" y="7" width="2" height="1" fill="#50B8FF" />
<rect x="3" y="7" width="26" height="2" fill="#15A0FF" />
<rect x="29" y="7" width="2" height="1" fill="#55BAFF" />
<rect x="1" y="8" width="1" height="1" fill="#50B8FF" />
<rect x="2" y="8" width="1" height="1" fill="#15A0FF" />
<rect x="29" y="8" width="1" height="1" fill="#15A0FF" />
<rect x="30" y="8" width="1" height="1" fill="#55BAFF" />
<rect x="1" y="9" width="1" height="2" fill="#8ACFFF" />
<rect x="2" y="9" width="28" height="1" fill="#50B8FF" />
<rect x="30" y="9" width="1" height="2" fill="#8ACFFF" />
<rect x="2" y="10" width="1" height="1" fill="#50B8FF" />
<rect x="3" y="10" width="26" height="3" fill="#FDFDFD" />
<rect x="29" y="10" width="1" height="1" fill="#50B8FF" />
<rect x="1" y="11" width="1" height="14" fill="#50B8FF" />
<rect x="2" y="11" width="1" height="13" fill="#FDFDFD" />
<rect x="29" y="11" width="1" height="13" fill="#FDFDFD" />
<rect x="30" y="11" width="1" height="14" fill="#50B8FF" />
<rect x="3" y="13" width="8" height="1" fill="#E8E8E8" />
<rect x="11" y="13" width="18" height="6" fill="#FDFDFD" />
<rect x="3" y="14" width="8" height="1" fill="#DEDEDE" />
<rect x="3" y="15" width="8" height="4" fill="#FDFDFD" />
<rect x="3" y="19" width="26" height="1" fill="#DEDEDE" />
<rect x="3" y="20" width="26" height="2" fill="#FDFDFD" />
<rect x="3" y="22" width="24" height="1" fill="#DEDEDE" />
<rect x="27" y="22" width="2" height="4" fill="#FDFDFD" />
<rect x="3" y="23" width="24" height="3" fill="#FDFDFD" />
<rect x="2" y="24" width="1" height="3" fill="#50B8FF" />
<rect x="29" y="24" width="1" height="3" fill="#50B8FF" />
<rect x="3" y="26" width="1" height="2" fill="#50B8FF" />
<rect x="4" y="26" width="24" height="1" fill="#FDFDFD" />
<rect x="28" y="26" width="1" height="2" fill="#50B8FF" />
<rect x="4" y="27" width="1" height="2" fill="#50B8FF" />
<rect x="5" y="27" width="16" height="1" fill="#FDFDFD" />
<rect x="21" y="27" width="4" height="1" fill="#DEDEDE" />
<rect x="25" y="27" width="2" height="1" fill="#FDFDFD" />
<rect x="27" y="27" width="1" height="2" fill="#50B8FF" />
<rect x="5" y="28" width="1" height="2" fill="#50B8FF" />
<rect x="6" y="28" width="20" height="1" fill="#FDFDFD" />
<rect x="26" y="28" width="1" height="2" fill="#50B8FF" />
<rect x="6" y="29" width="2" height="1" fill="#50B8FF" />
<rect x="8" y="29" width="16" height="1" fill="#FDFDFD" />
<rect x="24" y="29" width="2" height="1" fill="#50B8FF" />
<rect x="7" y="30" width="18" height="1" fill="#50B8FF" />
</svg>