<?xml version='1.0' encoding='utf-8'?>
<svg xmlns="http://www.w3.org/2000/svg" viewBox="0 0 3357.9829999999997 3357.5939999999996" width="512" height="512" version="1.1" xml:space="preserve" style="fill-rule:evenodd;clip-rule:evenodd;stroke-linejoin:round;stroke-miterlimit:2;"><rect x="866.927" y="108.391" width="1732.908" height="108.307" style="fill:#040d16;" /><rect x="650.313" y="216.697" width="324.92" height="108.307" style="fill:#040d16;" /><rect x="975.234" y="216.697" width="1516.295" height="108.307" style="fill:#47a3ff;" /><rect x="2491.529" y="216.697" width="324.92" height="108.307" style="fill:#040d16;" /><rect x="433.7" y="325.004" width="324.92" height="108.307" style="fill:#040d16;" /><rect x="758.62" y="325.004" width="324.92" height="108.307" style="fill:#47a3ff;" /><rect x="1083.54" y="325.004" width="1624.602" height="433.227" style="fill:#156fc9;" /><rect x="2708.142" y="325.004" width="324.92" height="108.307" style="fill:#040d16;" /><rect x="325.393" y="433.311" width="216.614" height="108.307" style="fill:#040d16;" /><rect x="542.007" y="433.311" width="216.614" height="108.307" style="fill:#47a3ff;" /><rect x="758.62" y="433.311" width="324.92" height="974.761" style="fill:#156fc9;" /><rect x="2708.142" y="433.311" width="216.614" height="1191.375" style="fill:#156fc9;" /><rect x="2924.756" y="433.311" width="216.614" height="108.307" style="fill:#040d16;" /><rect x="217.086" y="541.618" width="216.614" height="108.307" style="fill:#040d16;" /><rect x="433.7" y="541.618" width="216.614" height="108.307" style="fill:#47a3ff;" /><rect x="650.313" y="541.618" width="108.307" height="866.454" style="fill:#156fc9;" /><rect x="2924.756" y="541.618" width="108.307" height="1083.068" style="fill:#156fc9;" /><rect x="3033.063" y="541.618" width="216.614" height="108.307" style="fill:#040d16;" /><rect x="217.086" y="649.925" width="108.307" height="216.614" style="fill:#040d16;" /><rect x="325.393" y="649.925" width="216.614" height="108.307" style="fill:#47a3ff;" /><rect x="542.007" y="649.925" width="108.307" height="2274.442" style="fill:#156fc9;" /><rect x="3033.063" y="649.925" width="108.307" height="1732.908" style="fill:#156fc9;" /><rect x="3141.369" y="649.925" width="108.307" height="216.614" style="fill:#040d16;" /><rect x="108.779" y="758.231" width="108.307" height="1841.215" style="fill:#040d16;" /><rect x="325.393" y="758.231" width="108.307" height="216.614" style="fill:#47a3ff;" /><rect x="433.7" y="758.231" width="108.307" height="2057.829" style="fill:#156fc9;" /><rect x="1083.54" y="758.231" width="866.454" height="216.614" style="fill:#156fc9;" /><rect x="1949.995" y="758.231" width="108.307" height="1949.522" style="fill:#cae5ff;" /><rect x="2058.301" y="758.231" width="108.307" height="1949.522" style="fill:#fff;" /><rect x="2166.608" y="758.231" width="541.534" height="433.227" style="fill:#156fc9;" /><rect x="3249.676" y="758.231" width="108.307" height="1841.215" style="fill:#040d16;" /><rect x="217.086" y="866.538" width="108.307" height="1624.602" style="fill:#47a3ff;" /><rect x="3141.369" y="866.538" width="108.307" height="1624.602" style="fill:#175593;" /><rect x="325.393" y="974.845" width="108.307" height="1732.908" style="fill:#156fc9;" /><rect x="1083.54" y="974.845" width="216.614" height="108.307" style="fill:#cae5ff;" /><rect x="1300.154" y="974.845" width="649.841" height="216.614" style="fill:#156fc9;" /><rect x="1083.54" y="1083.152" width="108.307" height="1407.988" style="fill:#cae5ff;" /><rect x="1191.847" y="1083.152" width="108.307" height="1407.988" style="fill:#fff;" /><rect x="1300.154" y="1191.458" width="216.614" height="1949.522" style="fill:#156fc9;" /><rect x="1516.768" y="1191.458" width="108.307" height="1191.375" style="fill:#cae5ff;" /><rect x="1625.074" y="1191.458" width="108.307" height="1191.375" style="fill:#fff;" /><rect x="1733.381" y="1191.458" width="216.614" height="1949.522" style="fill:#156fc9;" /><rect x="2166.608" y="1191.458" width="216.614" height="1949.522" style="fill:#156fc9;" /><rect x="2383.222" y="1191.458" width="108.307" height="1191.375" style="fill:#cae5ff;" /><rect x="2491.529" y="1191.458" width="108.307" height="1191.375" style="fill:#fff;" /><rect x="2599.835" y="1191.458" width="108.307" height="1732.908" style="fill:#156fc9;" /><rect x="650.313" y="1408.072" width="108.307" height="649.841" style="fill:#cae5ff;" /><rect x="758.62" y="1408.072" width="108.307" height="649.841" style="fill:#fff;" /><rect x="866.927" y="1408.072" width="216.614" height="1732.908" style="fill:#156fc9;" /><rect x="2708.142" y="1624.686" width="108.307" height="1191.375" style="fill:#156fc9;" /><rect x="2816.449" y="1624.686" width="108.307" height="216.614" style="fill:#cae5ff;" /><rect x="2924.756" y="1624.686" width="108.307" height="216.614" style="fill:#fff;" /><rect x="2816.449" y="1841.299" width="216.614" height="758.147" style="fill:#156fc9;" /><rect x="650.313" y="2057.913" width="216.614" height="974.761" style="fill:#156fc9;" /><rect x="1516.768" y="2382.833" width="216.614" height="758.147" style="fill:#156fc9;" /><rect x="2383.222" y="2382.833" width="216.614" height="649.841" style="fill:#156fc9;" /><rect x="3033.063" y="2382.833" width="108.307" height="324.92" style="fill:#175593;" /><rect x="217.086" y="2491.14" width="108.307" height="324.92" style="fill:#040d16;" /><rect x="1083.54" y="2491.14" width="216.614" height="649.841" style="fill:#156fc9;" /><rect x="3141.369" y="2491.14" width="108.307" height="324.92" style="fill:#040d16;" /><rect x="2816.449" y="2599.447" width="108.307" height="108.307" style="fill:#156fc9;" /><rect x="2924.756" y="2599.447" width="108.307" height="216.614" style="fill:#175593;" /><rect x="325.393" y="2707.753" width="108.307" height="216.614" style="fill:#040d16;" /><rect x="1949.995" y="2707.753" width="216.614" height="433.227" style="fill:#156fc9;" /><rect x="2816.449" y="2707.753" width="108.307" height="216.614" style="fill:#175593;" /><rect x="3033.063" y="2707.753" width="108.307" height="216.614" style="fill:#040d16;" /><rect x="433.7" y="2816.06" width="108.307" height="216.614" style="fill:#040d16;" /><rect x="2708.142" y="2816.06" width="108.307" height="216.614" style="fill:#175593;" /><rect x="2924.756" y="2816.06" width="108.307" height="216.614" style="fill:#040d16;" /><rect x="542.007" y="2924.367" width="108.307" height="216.614" style="fill:#040d16;" /><rect x="2599.835" y="2924.367" width="108.307" height="216.614" style="fill:#175593;" /><rect x="2816.449" y="2924.367" width="108.307" height="216.614" style="fill:#040d16;" /><rect x="650.313" y="3032.674" width="108.307" height="216.614" style="fill:#040d16;" /><rect x="758.62" y="3032.674" width="108.307" height="108.307" style="fill:#156fc9;" /><rect x="2383.222" y="3032.674" width="216.614" height="108.307" style="fill:#175593;" /><rect x="2708.142" y="3032.674" width="108.307" height="216.614" style="fill:#040d16;" /><rect x="758.62" y="3140.981" width="216.614" height="108.307" style="fill:#040d16;" /><rect x="975.234" y="3140.981" width="1516.295" height="108.307" style="fill:#175593;" /><rect x="2491.529" y="3140.981" width="216.614" height="108.307" style="fill:#040d16;" /><rect x="866.927" y="3249.287" width="1732.908" height="108.307" style="fill:#040d16;" /></svg>