<?xml version='1.0' encoding='utf-8'?>
<svg xmlns="http://www.w3.org/2000/svg" viewBox="0 0 3358.129 3357.5939999999996" width="512" height="512" version="1.1" xml:space="preserve" style="fill-rule:evenodd;clip-rule:evenodd;stroke-linejoin:round;stroke-miterlimit:2;"><rect x="867.072" y="108.391" width="1732.908" height="108.307" style="fill:#ff759d;" /><rect x="650.459" y="216.697" width="324.92" height="108.307" style="fill:#ff759d;" /><rect x="975.379" y="216.697" width="1516.295" height="541.534" style="fill:#e9356a;" /><rect x="2491.674" y="216.697" width="324.92" height="108.307" style="fill:#ff759d;" /><rect x="433.845" y="325.004" width="324.92" height="108.307" style="fill:#ff759d;" /><rect x="758.765" y="325.004" width="216.614" height="433.227" style="fill:#e9356a;" /><rect x="2491.674" y="325.004" width="216.614" height="433.227" style="fill:#e9356a;" /><rect x="2708.288" y="325.004" width="324.92" height="108.307" style="fill:#ff759d;" /><rect x="325.538" y="433.311" width="216.614" height="108.307" style="fill:#ff759d;" /><rect x="542.152" y="433.311" width="216.614" height="541.534" style="fill:#e9356a;" /><rect x="2708.288" y="433.311" width="216.614" height="541.534" style="fill:#e9356a;" /><rect x="2924.901" y="433.311" width="216.614" height="108.307" style="fill:#ff759d;" /><rect x="217.232" y="541.618" width="216.614" height="108.307" style="fill:#ff759d;" /><rect x="433.845" y="541.618" width="108.307" height="974.761" style="fill:#e9356a;" /><rect x="2924.901" y="541.618" width="108.307" height="974.761" style="fill:#e9356a;" /><rect x="3033.208" y="541.618" width="216.614" height="108.307" style="fill:#ff759d;" /><rect x="217.232" y="649.925" width="108.307" height="216.614" style="fill:#ff759d;" /><rect x="325.538" y="649.925" width="108.307" height="2057.829" style="fill:#e9356a;" /><rect x="3033.208" y="649.925" width="108.307" height="2057.829" style="fill:#e9356a;" /><rect x="3141.515" y="649.925" width="108.307" height="216.614" style="fill:#ff759d;" /><rect x="108.925" y="758.231" width="108.307" height="108.307" style="fill:#ff759d;" /><rect x="758.765" y="758.231" width="108.307" height="108.307" style="fill:#e9356a;" /><rect x="867.072" y="758.231" width="324.92" height="649.841" style="fill:#fff;" /><rect x="1191.993" y="758.231" width="1083.068" height="108.307" style="fill:#e9356a;" /><rect x="2275.06" y="758.231" width="324.92" height="649.841" style="fill:#fff;" /><rect x="2599.981" y="758.231" width="108.307" height="108.307" style="fill:#e9356a;" /><rect x="3249.821" y="758.231" width="108.307" height="108.307" style="fill:#ff759d;" /><rect x="108.925" y="866.538" width="216.614" height="1732.908" style="fill:#e9356a;" /><rect x="758.765" y="866.538" width="108.307" height="1732.908" style="fill:#fff;" /><rect x="1191.993" y="866.538" width="108.307" height="541.534" style="fill:#fff;" /><rect x="1300.299" y="866.538" width="866.454" height="108.307" style="fill:#e9356a;" /><rect x="2166.754" y="866.538" width="108.307" height="541.534" style="fill:#fff;" /><rect x="2599.981" y="866.538" width="108.307" height="1732.908" style="fill:#fff;" /><rect x="3141.515" y="866.538" width="216.614" height="1732.908" style="fill:#e9356a;" /><rect x="542.152" y="974.845" width="108.307" height="108.307" style="fill:#e9356a;" /><rect x="650.459" y="974.845" width="108.307" height="1624.602" style="fill:#fff;" /><rect x="1300.299" y="974.845" width="866.454" height="1299.681" style="fill:#fff;" /><rect x="2708.288" y="974.845" width="108.307" height="1624.602" style="fill:#fff;" /><rect x="2816.594" y="974.845" width="108.307" height="108.307" style="fill:#e9356a;" /><rect x="542.152" y="1083.152" width="108.307" height="1407.988" style="fill:#fff;" /><rect x="2816.594" y="1083.152" width="108.307" height="1407.988" style="fill:#fff;" /><rect x="867.072" y="1408.072" width="216.614" height="108.307" style="fill:#fff;" /><rect x="1083.686" y="1408.072" width="216.614" height="324.92" style="fill:#e9356a;" /><rect x="2166.754" y="1408.072" width="216.614" height="324.92" style="fill:#e9356a;" /><rect x="2383.367" y="1408.072" width="216.614" height="108.307" style="fill:#fff;" /><rect x="433.845" y="1516.379" width="108.307" height="866.454" style="fill:#fff;" /><rect x="867.072" y="1516.379" width="108.307" height="1083.068" style="fill:#fff;" /><rect x="975.379" y="1516.379" width="108.307" height="216.614" style="fill:#e9356a;" /><rect x="2383.367" y="1516.379" width="108.307" height="216.614" style="fill:#e9356a;" /><rect x="2491.674" y="1516.379" width="108.307" height="1083.068" style="fill:#fff;" /><rect x="2924.901" y="1516.379" width="108.307" height="866.454" style="fill:#fff;" /><rect x="975.379" y="1732.992" width="324.92" height="433.227" style="fill:#fff;" /><rect x="2166.754" y="1732.992" width="324.92" height="433.227" style="fill:#fff;" /><rect x="975.379" y="2166.22" width="108.307" height="108.307" style="fill:#951c3f;" /><rect x="1083.686" y="2166.22" width="216.614" height="108.307" style="fill:#fff;" /><rect x="2166.754" y="2166.22" width="216.614" height="108.307" style="fill:#fff;" /><rect x="2383.367" y="2166.22" width="108.307" height="108.307" style="fill:#951c3f;" /><rect x="975.379" y="2274.526" width="108.307" height="324.92" style="fill:#fff;" /><rect x="1083.686" y="2274.526" width="1299.681" height="108.307" style="fill:#e9356a;" /><rect x="2383.367" y="2274.526" width="108.307" height="324.92" style="fill:#fff;" /><rect x="433.845" y="2382.833" width="108.307" height="108.307" style="fill:#951c3f;" /><rect x="1083.686" y="2382.833" width="108.307" height="216.614" style="fill:#fff;" /><rect x="1191.993" y="2382.833" width="1083.068" height="108.307" style="fill:#e9356a;" /><rect x="2275.06" y="2382.833" width="108.307" height="216.614" style="fill:#fff;" /><rect x="2924.901" y="2382.833" width="108.307" height="108.307" style="fill:#951c3f;" /><rect x="433.845" y="2491.14" width="108.307" height="324.92" style="fill:#e9356a;" /><rect x="542.152" y="2491.14" width="108.307" height="108.307" style="fill:#951c3f;" /><rect x="1191.993" y="2491.14" width="108.307" height="108.307" style="fill:#fff;" /><rect x="1300.299" y="2491.14" width="866.454" height="758.147" style="fill:#e9356a;" /><rect x="2166.754" y="2491.14" width="108.307" height="108.307" style="fill:#fff;" /><rect x="2816.594" y="2491.14" width="108.307" height="108.307" style="fill:#951c3f;" /><rect x="2924.901" y="2491.14" width="108.307" height="324.92" style="fill:#e9356a;" /><rect x="217.232" y="2599.447" width="108.307" height="216.614" style="fill:#951c3f;" /><rect x="542.152" y="2599.447" width="108.307" height="433.227" style="fill:#e9356a;" /><rect x="650.459" y="2599.447" width="649.841" height="108.307" style="fill:#951c3f;" /><rect x="2166.754" y="2599.447" width="649.841" height="108.307" style="fill:#951c3f;" /><rect x="2816.594" y="2599.447" width="108.307" height="324.92" style="fill:#e9356a;" /><rect x="3141.515" y="2599.447" width="108.307" height="216.614" style="fill:#951c3f;" /><rect x="325.538" y="2707.753" width="108.307" height="216.614" style="fill:#951c3f;" /><rect x="650.459" y="2707.753" width="649.841" height="324.92" style="fill:#e9356a;" /><rect x="2166.754" y="2707.753" width="649.841" height="324.92" style="fill:#e9356a;" /><rect x="3033.208" y="2707.753" width="108.307" height="216.614" style="fill:#951c3f;" /><rect x="433.845" y="2816.06" width="108.307" height="324.92" style="fill:#951c3f;" /><rect x="2924.901" y="2816.06" width="108.307" height="216.614" style="fill:#951c3f;" /><rect x="2816.594" y="2924.367" width="108.307" height="216.614" style="fill:#951c3f;" /><rect x="542.152" y="3032.674" width="216.614" height="108.307" style="fill:#951c3f;" /><rect x="758.765" y="3032.674" width="541.534" height="108.307" style="fill:#e9356a;" /><rect x="2166.754" y="3032.674" width="541.534" height="108.307" style="fill:#e9356a;" /><rect x="2708.288" y="3032.674" width="108.307" height="216.614" style="fill:#951c3f;" /><rect x="650.459" y="3140.981" width="324.92" height="108.307" style="fill:#951c3f;" /><rect x="975.379" y="3140.981" width="324.92" height="108.307" style="fill:#e9356a;" /><rect x="2166.754" y="3140.981" width="324.92" height="108.307" style="fill:#e9356a;" /><rect x="2491.674" y="3140.981" width="216.614" height="108.307" style="fill:#951c3f;" /><rect x="867.072" y="3249.287" width="1732.908" height="108.307" style="fill:#951c3f;" /></svg>