<?xml version="1.0" encoding="UTF-8" ?>
<svg viewBox="0 0 32 32" version="1.1" width="512" height="512" xmlns="http://www.w3.org/2000/svg" shape-rendering="crispEdges">
<rect x="7" y="1" width="18" height="1" fill="#EEEEEE" />
<rect x="5" y="2" width="3" height="1" fill="#EEEEEE" />
<rect x="8" y="2" width="16" height="3" fill="#FFFFFF" />
<rect x="24" y="2" width="3" height="1" fill="#EEEEEE" />
<rect x="4" y="3" width="2" height="1" fill="#EEEEEE" />
<rect x="6" y="3" width="2" height="6" fill="#FFFFFF" />
<rect x="24" y="3" width="2" height="4" fill="#FFFFFF" />
<rect x="26" y="3" width="2" height="1" fill="#EEEEEE" />
<rect x="3" y="4" width="2" height="1" fill="#EEEEEE" />
<rect x="5" y="4" width="1" height="9" fill="#FFFFFF" />
<rect x="26" y="4" width="1" height="6" fill="#FFFFFF" />
<rect x="27" y="4" width="2" height="1" fill="#EEEEEE" />
<rect x="2" y="5" width="2" height="1" fill="#EEEEEE" />
<rect x="4" y="5" width="1" height="22" fill="#FFFFFF" />
<rect x="8" y="5" width="4" height="1" fill="#FFFFFF" />
<rect x="12" y="5" width="4" height="1" fill="#7BD7E5" />
<rect x="16" y="5" width="2" height="1" fill="#7FDBCF" />
<rect x="18" y="5" width="3" height="1" fill="#84E0C3" />
<rect x="21" y="5" width="3" height="1" fill="#FFFFFF" />
<rect x="27" y="5" width="1" height="7" fill="#FFFFFF" />
<rect x="28" y="5" width="2" height="1" fill="#EEEEEE" />
<rect x="2" y="6" width="1" height="2" fill="#EEEEEE" />
<rect x="3" y="6" width="1" height="20" fill="#FFFFFF" />
<rect x="8" y="6" width="2" height="1" fill="#FFFFFF" />
<rect x="10" y="6" width="3" height="1" fill="#7BD7E5" />
<rect x="13" y="6" width="2" height="1" fill="#32C1D7" />
<rect x="15" y="6" width="2" height="1" fill="#38C8B5" />
<rect x="17" y="6" width="2" height="1" fill="#40CFA2" />
<rect x="19" y="6" width="3" height="1" fill="#4FD985" />
<rect x="22" y="6" width="1" height="2" fill="#57DF7B" />
<rect x="23" y="6" width="1" height="1" fill="#FFFFFF" />
<rect x="28" y="6" width="1" height="20" fill="#FFFFFF" />
<rect x="29" y="6" width="1" height="2" fill="#EEEEEE" />
<rect x="1" y="7" width="1" height="18" fill="#EEEEEE" />
<rect x="8" y="7" width="1" height="1" fill="#FFFFFF" />
<rect x="9" y="7" width="2" height="1" fill="#7BD7E5" />
<rect x="11" y="7" width="2" height="3" fill="#32C1D7" />
<rect x="13" y="7" width="3" height="1" fill="#38C8B5" />
<rect x="16" y="7" width="2" height="1" fill="#40CFA2" />
<rect x="18" y="7" width="1" height="1" fill="#47D394" />
<rect x="19" y="7" width="1" height="2" fill="#4FD985" />
<rect x="20" y="7" width="2" height="1" fill="#57DF7B" />
<rect x="23" y="7" width="2" height="2" fill="#65EA6F" />
<rect x="25" y="7" width="1" height="1" fill="#FFFFFF" />
<rect x="30" y="7" width="1" height="18" fill="#EEEEEE" />
<rect x="2" y="8" width="1" height="16" fill="#FFFFFF" />
<rect x="8" y="8" width="2" height="1" fill="#7BD7E5" />
<rect x="10" y="8" width="1" height="2" fill="#32C1D7" />
<rect x="13" y="8" width="1" height="2" fill="#38C8B5" />
<rect x="14" y="8" width="3" height="1" fill="#40CFA2" />
<rect x="17" y="8" width="1" height="1" fill="#47D394" />
<rect x="18" y="8" width="1" height="2" fill="#4FD985" />
<rect x="20" y="8" width="1" height="2" fill="#57DF7B" />
<rect x="21" y="8" width="1" height="1" fill="#60E56E" />
<rect x="22" y="8" width="1" height="1" fill="#63E86E" />
<rect x="25" y="8" width="1" height="3" fill="#65EA6F" />
<rect x="29" y="8" width="1" height="16" fill="#FFFFFF" />
<rect x="6" y="9" width="1" height="1" fill="#FFFFFF" />
<rect x="7" y="9" width="2" height="1" fill="#7BD7E5" />
<rect x="9" y="9" width="1" height="1" fill="#32C1D7" />
<rect x="14" y="9" width="1" height="1" fill="#40CFA2" />
<rect x="15" y="9" width="2" height="1" fill="#47D394" />
<rect x="17" y="9" width="1" height="2" fill="#4FD985" />
<rect x="19" y="9" width="1" height="2" fill="#57DF7B" />
<rect x="21" y="9" width="1" height="1" fill="#5CE26E" />
<rect x="22" y="9" width="1" height="1" fill="#5FE56E" />
<rect x="23" y="9" width="1" height="1" fill="#62E86E" />
<rect x="24" y="9" width="1" height="1" fill="#65EA6F" />
<rect x="6" y="10" width="2" height="1" fill="#7BD7E5" />
<rect x="8" y="10" width="1" height="1" fill="#32C1D7" />
<rect x="9" y="10" width="6" height="1" fill="#12639A" />
<rect x="15" y="10" width="1" height="1" fill="#47D394" />
<rect x="16" y="10" width="1" height="1" fill="#4FD985" />
<rect x="18" y="10" width="1" height="2" fill="#57DF7B" />
<rect x="20" y="10" width="1" height="1" fill="#55DD6E" />
<rect x="21" y="10" width="1" height="1" fill="#58DF6E" />
<rect x="22" y="10" width="1" height="1" fill="#5BE26E" />
<rect x="23" y="10" width="1" height="1" fill="#5FE56E" />
<rect x="24" y="10" width="1" height="1" fill="#62E76E" />
<rect x="26" y="10" width="1" height="2" fill="#65EA6F" />
<rect x="6" y="11" width="1" height="1" fill="#7BD7E5" />
<rect x="7" y="11" width="3" height="1" fill="#12639A" />
<rect x="10" y="11" width="5" height="1" fill="#157ABB" />
<rect x="15" y="11" width="2" height="1" fill="#12639A" />
<rect x="17" y="11" width="1" height="1" fill="#57DF7B" />
<rect x="19" y="11" width="1" height="1" fill="#4ED76E" />
<rect x="20" y="11" width="1" height="1" fill="#51D96E" />
<rect x="21" y="11" width="1" height="1" fill="#54DC6E" />
<rect x="22" y="11" width="1" height="1" fill="#58DF6E" />
<rect x="23" y="11" width="1" height="1" fill="#5BE16E" />
<rect x="24" y="11" width="1" height="1" fill="#5EE46E" />
<rect x="25" y="11" width="1" height="1" fill="#61E76E" />
<rect x="6" y="12" width="1" height="1" fill="#12639A" />
<rect x="7" y="12" width="4" height="1" fill="#157ABB" />
<rect x="11" y="12" width="3" height="1" fill="#197DC8" />
<rect x="14" y="12" width="2" height="1" fill="#157ABB" />
<rect x="16" y="12" width="2" height="1" fill="#12639A" />
<rect x="18" y="12" width="1" height="1" fill="#47D16E" />
<rect x="19" y="12" width="1" height="1" fill="#4AD46E" />
<rect x="20" y="12" width="1" height="1" fill="#4DD66E" />
<rect x="21" y="12" width="1" height="1" fill="#50D96E" />
<rect x="22" y="12" width="1" height="1" fill="#54DC6E" />
<rect x="23" y="12" width="1" height="1" fill="#57DE6E" />
<rect x="24" y="12" width="1" height="1" fill="#5AE16E" />
<rect x="25" y="12" width="1" height="1" fill="#5DE46E" />
<rect x="26" y="12" width="1" height="1" fill="#61E66E" />
<rect x="27" y="12" width="1" height="1" fill="#64E96E" />
<rect x="5" y="13" width="1" height="1" fill="#669ABE" />
<rect x="6" y="13" width="3" height="1" fill="#157ABB" />
<rect x="9" y="13" width="6" height="1" fill="#0D7FD6" />
<rect x="15" y="13" width="1" height="7" fill="#FFFFFF" />
<rect x="17" y="13" width="2" height="1" fill="#12639A" />
<rect x="19" y="13" width="1" height="1" fill="#46D06E" />
<rect x="20" y="13" width="1" height="1" fill="#49D36E" />
<rect x="21" y="13" width="1" height="1" fill="#4DD66E" />
<rect x="22" y="13" width="1" height="1" fill="#50D96E" />
<rect x="23" y="13" width="1" height="1" fill="#53DB6E" />
<rect x="24" y="13" width="1" height="1" fill="#56DE6E" />
<rect x="25" y="13" width="1" height="1" fill="#5AE16E" />
<rect x="26" y="13" width="1" height="1" fill="#5DE36E" />
<rect x="27" y="13" width="1" height="1" fill="#60E66E" />
<rect x="5" y="14" width="1" height="2" fill="#67A4D3" />
<rect x="6" y="14" width="1" height="1" fill="#157ABB" />
<rect x="7" y="14" width="6" height="1" fill="#0D7FD6" />
<rect x="13" y="14" width="1" height="2" fill="#11467D" />
<rect x="14" y="14" width="1" height="5" fill="#FFFFFF" />
<rect x="16" y="14" width="3" height="4" fill="#FFFFFF" />
<rect x="19" y="14" width="1" height="1" fill="#42CD6E" />
<rect x="20" y="14" width="1" height="1" fill="#46D06E" />
<rect x="21" y="14" width="1" height="1" fill="#49D36E" />
<rect x="22" y="14" width="1" height="1" fill="#4CD56E" />
<rect x="23" y="14" width="1" height="1" fill="#4FD86E" />
<rect x="24" y="14" width="1" height="1" fill="#53DB6E" />
<rect x="25" y="14" width="1" height="1" fill="#56DD6E" />
<rect x="26" y="14" width="1" height="1" fill="#59E06E" />
<rect x="27" y="14" width="1" height="1" fill="#5CE36E" />
<rect x="6" y="15" width="6" height="2" fill="#0D7FD6" />
<rect x="12" y="15" width="1" height="3" fill="#11467D" />
<rect x="19" y="15" width="1" height="1" fill="#3FCA6E" />
<rect x="20" y="15" width="1" height="1" fill="#42CD6E" />
<rect x="21" y="15" width="1" height="1" fill="#45D06E" />
<rect x="22" y="15" width="1" height="1" fill="#48D26E" />
<rect x="23" y="15" width="1" height="1" fill="#4CD56E" />
<rect x="24" y="15" width="1" height="1" fill="#4FD86E" />
<rect x="25" y="15" width="1" height="1" fill="#52DA6E" />
<rect x="26" y="15" width="1" height="1" fill="#55DD6E" />
<rect x="27" y="15" width="1" height="1" fill="#59E06E" />
<rect x="5" y="16" width="1" height="3" fill="#63ACE4" />
<rect x="13" y="16" width="1" height="3" fill="#154E8F" />
<rect x="19" y="16" width="1" height="1" fill="#3BC76E" />
<rect x="20" y="16" width="1" height="1" fill="#3ECA6E" />
<rect x="21" y="16" width="1" height="1" fill="#41CC6E" />
<rect x="22" y="16" width="1" height="1" fill="#45CF6E" />
<rect x="23" y="16" width="1" height="1" fill="#48D26E" />
<rect x="24" y="16" width="1" height="1" fill="#4BD46E" />
<rect x="25" y="16" width="1" height="1" fill="#4ED76E" />
<rect x="26" y="16" width="1" height="1" fill="#52DA6E" />
<rect x="27" y="16" width="1" height="11" fill="#FFFFFF" />
<rect x="6" y="17" width="5" height="1" fill="#0D7FD6" />
<rect x="11" y="17" width="1" height="5" fill="#11467D" />
<rect x="19" y="17" width="1" height="2" fill="#37C46E" />
<rect x="20" y="17" width="1" height="1" fill="#3AC76E" />
<rect x="21" y="17" width="1" height="1" fill="#3EC96E" />
<rect x="22" y="17" width="1" height="1" fill="#41CC6E" />
<rect x="23" y="17" width="1" height="1" fill="#44CF6E" />
<rect x="24" y="17" width="1" height="1" fill="#47D16E" />
<rect x="25" y="17" width="1" height="1" fill="#4BD46E" />
<rect x="26" y="17" width="1" height="1" fill="#4ED76E" />
<rect x="6" y="18" width="1" height="4" fill="#63ACE4" />
<rect x="7" y="18" width="4" height="3" fill="#0D7FD6" />
<rect x="12" y="18" width="1" height="3" fill="#154E8F" />
<rect x="16" y="18" width="2" height="3" fill="#FFFFFF" />
<rect x="18" y="18" width="1" height="1" fill="#37C46E" />
<rect x="20" y="18" width="1" height="2" fill="#37C46E" />
<rect x="21" y="18" width="1" height="1" fill="#3AC66E" />
<rect x="22" y="18" width="1" height="1" fill="#3DC96E" />
<rect x="23" y="18" width="1" height="1" fill="#40CC6E" />
<rect x="24" y="18" width="1" height="1" fill="#43CE6E" />
<rect x="25" y="18" width="1" height="1" fill="#47D16E" />
<rect x="26" y="18" width="1" height="10" fill="#FFFFFF" />
<rect x="5" y="19" width="1" height="9" fill="#FFFFFF" />
<rect x="13" y="19" width="2" height="1" fill="#155093" />
<rect x="18" y="19" width="2" height="3" fill="#FFFFFF" />
<rect x="21" y="19" width="1" height="1" fill="#37C46E" />
<rect x="22" y="19" width="1" height="1" fill="#39C66E" />
<rect x="23" y="19" width="1" height="1" fill="#3CC86E" />
<rect x="24" y="19" width="1" height="1" fill="#40CB6E" />
<rect x="25" y="19" width="1" height="2" fill="#FFFFFF" />
<rect x="13" y="20" width="1" height="3" fill="#154E8F" />
<rect x="14" y="20" width="2" height="2" fill="#155093" />
<rect x="20" y="20" width="5" height="1" fill="#FFFFFF" />
<rect x="7" y="21" width="1" height="2" fill="#63ACE4" />
<rect x="8" y="21" width="3" height="1" fill="#0D7FD6" />
<rect x="12" y="21" width="1" height="3" fill="#11467D" />
<rect x="16" y="21" width="2" height="3" fill="#155093" />
<rect x="20" y="21" width="2" height="1" fill="#FFFFFF" />
<rect x="23" y="21" width="3" height="2" fill="#155093" />
<rect x="6" y="22" width="1" height="7" fill="#FFFFFF" />
<rect x="8" y="22" width="1" height="2" fill="#63ACE4" />
<rect x="9" y="22" width="3" height="1" fill="#0D7FD6" />
<rect x="14" y="22" width="1" height="2" fill="#154E8F" />
<rect x="15" y="22" width="1" height="1" fill="#155093" />
<rect x="18" y="22" width="5" height="3" fill="#155093" />
<rect x="7" y="23" width="1" height="6" fill="#FFFFFF" />
<rect x="9" y="23" width="1" height="2" fill="#63ACE4" />
<rect x="10" y="23" width="2" height="1" fill="#0D7FD6" />
<rect x="13" y="23" width="1" height="2" fill="#11467D" />
<rect x="15" y="23" width="1" height="2" fill="#154E8F" />
<rect x="23" y="23" width="2" height="1" fill="#155093" />
<rect x="25" y="23" width="1" height="6" fill="#FFFFFF" />
<rect x="2" y="24" width="1" height="3" fill="#EEEEEE" />
<rect x="8" y="24" width="1" height="6" fill="#FFFFFF" />
<rect x="10" y="24" width="1" height="2" fill="#63ACE4" />
<rect x="11" y="24" width="2" height="1" fill="#0D7FD6" />
<rect x="14" y="24" width="1" height="2" fill="#11467D" />
<rect x="16" y="24" width="1" height="2" fill="#154E8F" />
<rect x="17" y="24" width="1" height="1" fill="#155093" />
<rect x="23" y="24" width="1" height="1" fill="#155093" />
<rect x="24" y="24" width="1" height="5" fill="#FFFFFF" />
<rect x="29" y="24" width="1" height="3" fill="#EEEEEE" />
<rect x="9" y="25" width="1" height="5" fill="#FFFFFF" />
<rect x="11" y="25" width="2" height="1" fill="#63ACE4" />
<rect x="13" y="25" width="1" height="1" fill="#0D7FD6" />
<rect x="15" y="25" width="1" height="2" fill="#11467D" />
<rect x="17" y="25" width="1" height="2" fill="#154E8F" />
<rect x="18" y="25" width="4" height="1" fill="#155093" />
<rect x="22" y="25" width="2" height="5" fill="#FFFFFF" />
<rect x="3" y="26" width="1" height="2" fill="#EEEEEE" />
<rect x="10" y="26" width="2" height="4" fill="#FFFFFF" />
<rect x="12" y="26" width="3" height="1" fill="#63ACE4" />
<rect x="16" y="26" width="1" height="1" fill="#11467D" />
<rect x="18" y="26" width="3" height="1" fill="#154E8F" />
<rect x="21" y="26" width="1" height="4" fill="#FFFFFF" />
<rect x="28" y="26" width="1" height="2" fill="#EEEEEE" />
<rect x="4" y="27" width="1" height="2" fill="#EEEEEE" />
<rect x="12" y="27" width="9" height="3" fill="#FFFFFF" />
<rect x="27" y="27" width="1" height="2" fill="#EEEEEE" />
<rect x="5" y="28" width="1" height="2" fill="#EEEEEE" />
<rect x="26" y="28" width="1" height="2" fill="#EEEEEE" />
<rect x="6" y="29" width="2" height="1" fill="#EEEEEE" />
<rect x="24" y="29" width="2" height="1" fill="#EEEEEE" />
<rect x="7" y="30" width="18" height="1" fill="#EEEEEE" />
</svg>