<?xml version='1.0' encoding='utf-8'?>
<svg xmlns="http://www.w3.org/2000/svg" viewBox="0 0 3357.6029999999996 3357.738" width="512" height="512" version="1.1" xml:space="preserve" style="fill-rule:evenodd;clip-rule:evenodd;stroke-linejoin:round;stroke-miterlimit:2;"><rect x="866.547" y="108.535" width="1732.908" height="108.307" /><rect x="649.933" y="216.842" width="324.92" height="108.307" /><rect x="974.854" y="216.842" width="324.92" height="108.307" style="fill:#e6e6e6;" /><rect x="1299.774" y="216.842" width="866.454" height="108.307" style="fill:#e6484f;" /><rect x="2166.228" y="216.842" width="324.92" height="108.307" style="fill:#e6e6e6;" /><rect x="2491.149" y="216.842" width="324.92" height="108.307" /><rect x="433.32" y="325.148" width="324.92" height="108.307" /><rect x="758.24" y="325.148" width="216.614" height="108.307" style="fill:#e6e6e6;" /><rect x="974.854" y="325.148" width="324.92" height="108.307" style="fill:#f1f1f0;" /><rect x="1299.774" y="325.148" width="108.307" height="108.307" style="fill:#e6484f;" /><rect x="1408.081" y="325.148" width="649.841" height="216.614" style="fill:#eb6b70;" /><rect x="2057.922" y="325.148" width="108.307" height="108.307" style="fill:#e6484f;" /><rect x="2166.228" y="325.148" width="324.92" height="108.307" style="fill:#f1f1f0;" /><rect x="2491.149" y="325.148" width="216.614" height="108.307" style="fill:#e6e6e6;" /><rect x="2707.762" y="325.148" width="216.614" height="108.307" /><rect x="325.013" y="433.455" width="216.614" height="108.307" /><rect x="541.627" y="433.455" width="216.614" height="108.307" style="fill:#e6e6e6;" /><rect x="758.24" y="433.455" width="324.92" height="108.307" style="fill:#f1f1f0;" /><rect x="1083.161" y="433.455" width="216.614" height="216.614" style="fill:#fff;" /><rect x="1299.774" y="433.455" width="108.307" height="216.614" style="fill:#eb6b70;" /><rect x="2057.922" y="433.455" width="108.307" height="216.614" style="fill:#eb6b70;" /><rect x="2166.228" y="433.455" width="216.614" height="216.614" style="fill:#fff;" /><rect x="2382.842" y="433.455" width="324.92" height="108.307" style="fill:#f1f1f0;" /><rect x="2707.762" y="433.455" width="108.307" height="108.307" style="fill:#e6e6e6;" /><rect x="2816.069" y="433.455" width="216.614" height="108.307" /><rect x="216.706" y="541.762" width="216.614" height="108.307" /><rect x="433.32" y="541.762" width="108.307" height="108.307" style="fill:#e6e6e6;" /><rect x="541.627" y="541.762" width="324.92" height="108.307" style="fill:#f1f1f0;" /><rect x="866.547" y="541.762" width="216.614" height="216.614" style="fill:#fff;" /><rect x="1408.081" y="541.762" width="108.307" height="108.307" style="fill:#eb6b70;" /><rect x="1516.388" y="541.762" width="433.227" height="216.614" style="fill:#e3333b;" /><rect x="1949.615" y="541.762" width="108.307" height="108.307" style="fill:#eb6b70;" /><rect x="2382.842" y="541.762" width="216.614" height="216.614" style="fill:#fff;" /><rect x="2599.455" y="541.762" width="216.614" height="108.307" style="fill:#f1f1f0;" /><rect x="2816.069" y="541.762" width="108.307" height="108.307" style="fill:#e6e6e6;" /><rect x="2924.376" y="541.762" width="216.614" height="108.307" /><rect x="216.706" y="650.069" width="108.307" height="216.614" /><rect x="325.013" y="650.069" width="108.307" height="216.614" style="fill:#e6e6e6;" /><rect x="433.32" y="650.069" width="324.92" height="108.307" style="fill:#f1f1f0;" /><rect x="758.24" y="650.069" width="108.307" height="216.614" style="fill:#fff;" /><rect x="1083.161" y="650.069" width="216.614" height="324.92" style="fill:#f1f1f0;" /><rect x="1299.774" y="650.069" width="216.614" height="216.614" style="fill:#e3333b;" /><rect x="1949.615" y="650.069" width="216.614" height="216.614" style="fill:#e3333b;" /><rect x="2166.228" y="650.069" width="216.614" height="324.92" style="fill:#f1f1f0;" /><rect x="2599.455" y="650.069" width="108.307" height="216.614" style="fill:#fff;" /><rect x="2707.762" y="650.069" width="216.614" height="108.307" style="fill:#f1f1f0;" /><rect x="2924.376" y="650.069" width="108.307" height="108.307" style="fill:#e6e6e6;" /><rect x="3032.683" y="650.069" width="216.614" height="108.307" /><rect x="108.4" y="758.375" width="108.307" height="1841.215" /><rect x="433.32" y="758.375" width="216.614" height="108.307" style="fill:#f1f1f0;" /><rect x="649.933" y="758.375" width="108.307" height="324.92" style="fill:#fff;" /><rect x="866.547" y="758.375" width="216.614" height="433.227" style="fill:#f1f1f0;" /><rect x="1516.388" y="758.375" width="433.227" height="108.307" style="fill:#c2222a;" /><rect x="2382.842" y="758.375" width="216.614" height="433.227" style="fill:#f1f1f0;" /><rect x="2707.762" y="758.375" width="108.307" height="324.92" style="fill:#fff;" /><rect x="2816.069" y="758.375" width="216.614" height="108.307" style="fill:#f1f1f0;" /><rect x="3032.683" y="758.375" width="108.307" height="216.614" style="fill:#e6e6e6;" /><rect x="3140.989" y="758.375" width="108.307" height="216.614" /><rect x="216.706" y="866.682" width="108.307" height="433.227" style="fill:#e6e6e6;" /><rect x="325.013" y="866.682" width="216.614" height="216.614" style="fill:#f1f1f0;" /><rect x="541.627" y="866.682" width="108.307" height="433.227" style="fill:#fff;" /><rect x="758.24" y="866.682" width="108.307" height="433.227" style="fill:#f1f1f0;" /><rect x="1299.774" y="866.682" width="216.614" height="108.307" style="fill:#c2222a;" /><rect x="1516.388" y="866.682" width="433.227" height="108.307" style="fill:#81161b;" /><rect x="1949.615" y="866.682" width="216.614" height="108.307" style="fill:#c2222a;" /><rect x="2599.455" y="866.682" width="108.307" height="433.227" style="fill:#f1f1f0;" /><rect x="2816.069" y="866.682" width="108.307" height="433.227" style="fill:#fff;" /><rect x="2924.376" y="866.682" width="108.307" height="216.614" style="fill:#f1f1f0;" /><rect x="3249.296" y="866.682" width="108.307" height="1732.908" /><rect x="1083.161" y="974.989" width="108.307" height="108.307" style="fill:#f1f1f0;" /><rect x="1191.467" y="974.989" width="108.307" height="216.614" style="fill:#d6d6d6;" /><rect x="1299.774" y="974.989" width="216.614" height="108.307" style="fill:#81161b;" /><rect x="1516.388" y="974.989" width="433.227" height="1516.295" /><rect x="1949.615" y="974.989" width="216.614" height="108.307" style="fill:#81161b;" /><rect x="2166.228" y="974.989" width="108.307" height="216.614" style="fill:#d6d6d6;" /><rect x="2274.535" y="974.989" width="108.307" height="108.307" style="fill:#f1f1f0;" /><rect x="3032.683" y="974.989" width="108.307" height="324.92" style="fill:#f1f1f0;" /><rect x="3140.989" y="974.989" width="108.307" height="324.92" style="fill:#e6e6e6;" /><rect x="325.013" y="1083.296" width="108.307" height="216.614" style="fill:#f1f1f0;" /><rect x="433.32" y="1083.296" width="108.307" height="216.614" style="fill:#fff;" /><rect x="649.933" y="1083.296" width="108.307" height="216.614" style="fill:#f1f1f0;" /><rect x="1083.161" y="1083.296" width="108.307" height="216.614" style="fill:#d6d6d6;" /><rect x="1299.774" y="1083.296" width="216.614" height="1299.681" /><rect x="1949.615" y="1083.296" width="216.614" height="1299.681" /><rect x="2274.535" y="1083.296" width="108.307" height="216.614" style="fill:#d6d6d6;" /><rect x="2707.762" y="1083.296" width="108.307" height="216.614" style="fill:#f1f1f0;" /><rect x="2924.376" y="1083.296" width="108.307" height="216.614" style="fill:#fff;" /><rect x="866.547" y="1191.603" width="108.307" height="108.307" style="fill:#f1f1f0;" /><rect x="974.854" y="1191.603" width="108.307" height="108.307" style="fill:#d6d6d6;" /><rect x="1191.467" y="1191.603" width="108.307" height="1083.068" /><rect x="2166.228" y="1191.603" width="108.307" height="1083.068" /><rect x="2382.842" y="1191.603" width="108.307" height="108.307" style="fill:#d6d6d6;" /><rect x="2491.149" y="1191.603" width="108.307" height="108.307" style="fill:#f1f1f0;" /><rect x="216.706" y="1299.909" width="216.614" height="108.307" style="fill:#e6484f;" /><rect x="433.32" y="1299.909" width="216.614" height="216.614" style="fill:#eb6b70;" /><rect x="649.933" y="1299.909" width="216.614" height="216.614" style="fill:#e3333b;" /><rect x="866.547" y="1299.909" width="108.307" height="216.614" style="fill:#c2222a;" /><rect x="974.854" y="1299.909" width="108.307" height="216.614" style="fill:#81161b;" /><rect x="1083.161" y="1299.909" width="108.307" height="866.454" /><rect x="2274.535" y="1299.909" width="108.307" height="866.454" /><rect x="2382.842" y="1299.909" width="108.307" height="216.614" style="fill:#81161b;" /><rect x="2491.149" y="1299.909" width="108.307" height="216.614" style="fill:#c2222a;" /><rect x="2599.455" y="1299.909" width="216.614" height="216.614" style="fill:#e3333b;" /><rect x="2816.069" y="1299.909" width="216.614" height="216.614" style="fill:#eb6b70;" /><rect x="3032.683" y="1299.909" width="216.614" height="108.307" style="fill:#e6484f;" /><rect x="216.706" y="1408.216" width="108.307" height="758.147" style="fill:#e6484f;" /><rect x="325.013" y="1408.216" width="108.307" height="649.841" style="fill:#eb6b70;" /><rect x="3032.683" y="1408.216" width="108.307" height="649.841" style="fill:#eb6b70;" /><rect x="3140.989" y="1408.216" width="108.307" height="758.147" style="fill:#e6484f;" /><rect x="433.32" y="1516.523" width="108.307" height="649.841" style="fill:#eb6b70;" /><rect x="541.627" y="1516.523" width="216.614" height="433.227" style="fill:#e3333b;" /><rect x="758.24" y="1516.523" width="108.307" height="433.227" style="fill:#c2222a;" /><rect x="866.547" y="1516.523" width="108.307" height="433.227" style="fill:#81161b;" /><rect x="974.854" y="1516.523" width="108.307" height="433.227" /><rect x="2382.842" y="1516.523" width="108.307" height="433.227" /><rect x="2491.149" y="1516.523" width="108.307" height="433.227" style="fill:#81161b;" /><rect x="2599.455" y="1516.523" width="108.307" height="433.227" style="fill:#c2222a;" /><rect x="2707.762" y="1516.523" width="216.614" height="433.227" style="fill:#e3333b;" /><rect x="2924.376" y="1516.523" width="108.307" height="649.841" style="fill:#eb6b70;" /><rect x="541.627" y="1949.75" width="108.307" height="216.614" style="fill:#eb6b70;" /><rect x="649.933" y="1949.75" width="216.614" height="216.614" style="fill:#e3333b;" /><rect x="866.547" y="1949.75" width="108.307" height="216.614" style="fill:#c2222a;" /><rect x="974.854" y="1949.75" width="108.307" height="216.614" style="fill:#81161b;" /><rect x="2382.842" y="1949.75" width="108.307" height="216.614" style="fill:#81161b;" /><rect x="2491.149" y="1949.75" width="108.307" height="216.614" style="fill:#c2222a;" /><rect x="2599.455" y="1949.75" width="216.614" height="216.614" style="fill:#e3333b;" /><rect x="2816.069" y="1949.75" width="108.307" height="216.614" style="fill:#eb6b70;" /><rect x="325.013" y="2058.057" width="108.307" height="108.307" style="fill:#e6484f;" /><rect x="3032.683" y="2058.057" width="108.307" height="108.307" style="fill:#e6484f;" /><rect x="216.706" y="2166.364" width="108.307" height="324.92" style="fill:#e6e6e6;" /><rect x="325.013" y="2166.364" width="108.307" height="324.92" style="fill:#f1f1f0;" /><rect x="433.32" y="2166.364" width="216.614" height="216.614" style="fill:#fff;" /><rect x="649.933" y="2166.364" width="324.92" height="216.614" style="fill:#f1f1f0;" /><rect x="974.854" y="2166.364" width="216.614" height="108.307" style="fill:#d6d6d6;" /><rect x="2274.535" y="2166.364" width="216.614" height="108.307" style="fill:#d6d6d6;" /><rect x="2491.149" y="2166.364" width="324.92" height="216.614" style="fill:#f1f1f0;" /><rect x="2816.069" y="2166.364" width="216.614" height="216.614" style="fill:#fff;" /><rect x="3032.683" y="2166.364" width="108.307" height="324.92" style="fill:#f1f1f0;" /><rect x="3140.989" y="2166.364" width="108.307" height="324.92" style="fill:#e6e6e6;" /><rect x="974.854" y="2274.67" width="108.307" height="433.227" style="fill:#f1f1f0;" /><rect x="1083.161" y="2274.67" width="216.614" height="108.307" style="fill:#d6d6d6;" /><rect x="2166.228" y="2274.67" width="216.614" height="108.307" style="fill:#d6d6d6;" /><rect x="2382.842" y="2274.67" width="108.307" height="433.227" style="fill:#f1f1f0;" /><rect x="433.32" y="2382.977" width="108.307" height="324.92" style="fill:#f1f1f0;" /><rect x="541.627" y="2382.977" width="216.614" height="216.614" style="fill:#fff;" /><rect x="758.24" y="2382.977" width="216.614" height="216.614" style="fill:#f1f1f0;" /><rect x="1083.161" y="2382.977" width="108.307" height="433.227" style="fill:#f1f1f0;" /><rect x="1191.467" y="2382.977" width="108.307" height="108.307" style="fill:#d6d6d6;" /><rect x="1299.774" y="2382.977" width="216.614" height="108.307" style="fill:#81161b;" /><rect x="1949.615" y="2382.977" width="216.614" height="108.307" style="fill:#81161b;" /><rect x="2166.228" y="2382.977" width="108.307" height="108.307" style="fill:#d6d6d6;" /><rect x="2274.535" y="2382.977" width="108.307" height="433.227" style="fill:#f1f1f0;" /><rect x="2491.149" y="2382.977" width="216.614" height="216.614" style="fill:#f1f1f0;" /><rect x="2707.762" y="2382.977" width="216.614" height="216.614" style="fill:#fff;" /><rect x="2924.376" y="2382.977" width="108.307" height="324.92" style="fill:#f1f1f0;" /><rect x="216.706" y="2491.284" width="108.307" height="324.92" /><rect x="325.013" y="2491.284" width="108.307" height="216.614" style="fill:#e6e6e6;" /><rect x="1191.467" y="2491.284" width="108.307" height="324.92" style="fill:#f1f1f0;" /><rect x="1299.774" y="2491.284" width="216.614" height="108.307" style="fill:#c2222a;" /><rect x="1516.388" y="2491.284" width="433.227" height="108.307" style="fill:#81161b;" /><rect x="1949.615" y="2491.284" width="216.614" height="108.307" style="fill:#c2222a;" /><rect x="2166.228" y="2491.284" width="108.307" height="324.92" style="fill:#f1f1f0;" /><rect x="3032.683" y="2491.284" width="108.307" height="216.614" style="fill:#e6e6e6;" /><rect x="3140.989" y="2491.284" width="108.307" height="324.92" /><rect x="541.627" y="2599.591" width="108.307" height="216.614" style="fill:#f1f1f0;" /><rect x="649.933" y="2599.591" width="216.614" height="108.307" style="fill:#fff;" /><rect x="866.547" y="2599.591" width="108.307" height="108.307" style="fill:#f1f1f0;" /><rect x="1299.774" y="2599.591" width="216.614" height="216.614" style="fill:#e3333b;" /><rect x="1516.388" y="2599.591" width="433.227" height="108.307" style="fill:#c2222a;" /><rect x="1949.615" y="2599.591" width="216.614" height="216.614" style="fill:#e3333b;" /><rect x="2491.149" y="2599.591" width="108.307" height="108.307" style="fill:#f1f1f0;" /><rect x="2599.455" y="2599.591" width="216.614" height="108.307" style="fill:#fff;" /><rect x="2816.069" y="2599.591" width="108.307" height="216.614" style="fill:#f1f1f0;" /><rect x="325.013" y="2707.897" width="108.307" height="216.614" /><rect x="433.32" y="2707.897" width="108.307" height="108.307" style="fill:#e6e6e6;" /><rect x="649.933" y="2707.897" width="108.307" height="216.614" style="fill:#f1f1f0;" /><rect x="758.24" y="2707.897" width="324.92" height="108.307" style="fill:#fff;" /><rect x="1516.388" y="2707.897" width="433.227" height="216.614" style="fill:#e3333b;" /><rect x="2382.842" y="2707.897" width="324.92" height="108.307" style="fill:#fff;" /><rect x="2707.762" y="2707.897" width="108.307" height="216.614" style="fill:#f1f1f0;" /><rect x="2924.376" y="2707.897" width="108.307" height="108.307" style="fill:#e6e6e6;" /><rect x="3032.683" y="2707.897" width="108.307" height="216.614" /><rect x="433.32" y="2816.204" width="108.307" height="216.614" /><rect x="541.627" y="2816.204" width="108.307" height="108.307" style="fill:#e6e6e6;" /><rect x="758.24" y="2816.204" width="108.307" height="216.614" style="fill:#f1f1f0;" /><rect x="866.547" y="2816.204" width="433.227" height="108.307" style="fill:#fff;" /><rect x="1299.774" y="2816.204" width="216.614" height="216.614" style="fill:#eb6b70;" /><rect x="1949.615" y="2816.204" width="216.614" height="216.614" style="fill:#eb6b70;" /><rect x="2166.228" y="2816.204" width="433.227" height="108.307" style="fill:#fff;" /><rect x="2599.455" y="2816.204" width="108.307" height="216.614" style="fill:#f1f1f0;" /><rect x="2816.069" y="2816.204" width="108.307" height="108.307" style="fill:#e6e6e6;" /><rect x="2924.376" y="2816.204" width="108.307" height="216.614" /><rect x="541.627" y="2924.511" width="108.307" height="216.614" /><rect x="649.933" y="2924.511" width="108.307" height="108.307" style="fill:#e6e6e6;" /><rect x="866.547" y="2924.511" width="216.614" height="108.307" style="fill:#f1f1f0;" /><rect x="1083.161" y="2924.511" width="216.614" height="108.307" style="fill:#fff;" /><rect x="1516.388" y="2924.511" width="433.227" height="216.614" style="fill:#eb6b70;" /><rect x="2166.228" y="2924.511" width="216.614" height="108.307" style="fill:#fff;" /><rect x="2382.842" y="2924.511" width="216.614" height="108.307" style="fill:#f1f1f0;" /><rect x="2707.762" y="2924.511" width="108.307" height="108.307" style="fill:#e6e6e6;" /><rect x="2816.069" y="2924.511" width="108.307" height="216.614" /><rect x="649.933" y="3032.818" width="108.307" height="216.614" /><rect x="758.24" y="3032.818" width="216.614" height="108.307" style="fill:#e6e6e6;" /><rect x="974.854" y="3032.818" width="324.92" height="108.307" style="fill:#f1f1f0;" /><rect x="1299.774" y="3032.818" width="108.307" height="216.614" style="fill:#e6484f;" /><rect x="1408.081" y="3032.818" width="108.307" height="108.307" style="fill:#eb6b70;" /><rect x="1949.615" y="3032.818" width="108.307" height="108.307" style="fill:#eb6b70;" /><rect x="2057.922" y="3032.818" width="108.307" height="216.614" style="fill:#e6484f;" /><rect x="2166.228" y="3032.818" width="324.92" height="108.307" style="fill:#f1f1f0;" /><rect x="2491.149" y="3032.818" width="216.614" height="108.307" style="fill:#e6e6e6;" /><rect x="2707.762" y="3032.818" width="108.307" height="216.614" /><rect x="758.24" y="3141.125" width="216.614" height="108.307" /><rect x="974.854" y="3141.125" width="324.92" height="108.307" style="fill:#e6e6e6;" /><rect x="1408.081" y="3141.125" width="649.841" height="108.307" style="fill:#e6484f;" /><rect x="2166.228" y="3141.125" width="324.92" height="108.307" style="fill:#e6e6e6;" /><rect x="2491.149" y="3141.125" width="216.614" height="108.307" /><rect x="866.547" y="3249.431" width="1732.908" height="108.307" /></svg>