<?xml version='1.0' encoding='utf-8'?>
<svg xmlns="http://www.w3.org/2000/svg" viewBox="0 0 3357.567 3358.3269999999998" width="512" height="512" version="1.1" xml:space="preserve" style="fill-rule:evenodd;clip-rule:evenodd;stroke-linejoin:round;stroke-miterlimit:2;"><rect x="866.511" y="109.123" width="1624.602" height="108.307" style="fill:#a7ff00;" /><rect x="2491.113" y="109.123" width="108.307" height="216.614" style="fill:#97b663;" /><rect x="649.898" y="217.43" width="324.92" height="108.307" style="fill:#a7ff00;" /><rect x="974.818" y="217.43" width="758.147" height="649.841" style="fill:#141d04;" /><rect x="1732.965" y="217.43" width="758.147" height="758.147" style="fill:#a7de45;" /><rect x="2599.42" y="217.43" width="216.614" height="108.307" style="fill:#97b663;" /><rect x="541.591" y="325.736" width="216.614" height="108.307" style="fill:#a7ff00;" /><rect x="758.204" y="325.736" width="216.614" height="758.147" style="fill:#141d04;" /><rect x="2491.113" y="325.736" width="216.614" height="974.761" style="fill:#a7de45;" /><rect x="2707.726" y="325.736" width="216.614" height="108.307" style="fill:#97b663;" /><rect x="433.284" y="434.043" width="216.614" height="108.307" style="fill:#a7ff00;" /><rect x="649.898" y="434.043" width="108.307" height="758.147" style="fill:#141d04;" /><rect x="2707.726" y="434.043" width="108.307" height="866.454" style="fill:#a7de45;" /><rect x="2816.033" y="434.043" width="216.614" height="108.307" style="fill:#97b663;" /><rect x="324.977" y="542.35" width="216.614" height="108.307" style="fill:#a7ff00;" /><rect x="541.591" y="542.35" width="108.307" height="758.147" style="fill:#141d04;" /><rect x="2816.033" y="542.35" width="108.307" height="758.147" style="fill:#a7de45;" /><rect x="2924.34" y="542.35" width="216.614" height="108.307" style="fill:#97b663;" /><rect x="216.67" y="650.657" width="216.614" height="108.307" style="fill:#a7ff00;" /><rect x="433.284" y="650.657" width="108.307" height="758.147" style="fill:#141d04;" /><rect x="2924.34" y="650.657" width="108.307" height="649.841" style="fill:#a7de45;" /><rect x="3032.647" y="650.657" width="216.614" height="108.307" style="fill:#97b663;" /><rect x="216.67" y="758.964" width="108.307" height="216.614" style="fill:#a7ff00;" /><rect x="324.977" y="758.964" width="108.307" height="1949.522" style="fill:#141d04;" /><rect x="3032.647" y="758.964" width="108.307" height="541.534" style="fill:#a7de45;" /><rect x="3140.954" y="758.964" width="108.307" height="216.614" style="fill:#97b663;" /><rect x="108.364" y="867.27" width="108.307" height="1191.375" style="fill:#a7ff00;" /><rect x="974.818" y="867.27" width="216.614" height="108.307" style="fill:#141d04;" /><rect x="1191.431" y="867.27" width="324.92" height="108.307" style="fill:#a7ff00;" /><rect x="1516.352" y="867.27" width="216.614" height="108.307" style="fill:#a7de45;" /><rect x="3249.26" y="867.27" width="108.307" height="108.307" style="fill:#97b663;" /><rect x="216.67" y="975.577" width="108.307" height="1516.295" style="fill:#141d04;" /><rect x="974.818" y="975.577" width="216.614" height="108.307" style="fill:#a7ff00;" /><rect x="1191.431" y="975.577" width="324.92" height="108.307" style="fill:#70af01;" /><rect x="1516.352" y="975.577" width="541.534" height="108.307" style="fill:#375400;" /><rect x="2057.886" y="975.577" width="433.227" height="108.307" style="fill:#a7de45;" /><rect x="3140.954" y="975.577" width="108.307" height="324.92" style="fill:#a7de45;" /><rect x="3249.26" y="975.577" width="108.307" height="1624.602" style="fill:#050800;" /><rect x="758.204" y="1083.884" width="108.307" height="108.307" style="fill:#141d04;" /><rect x="866.511" y="1083.884" width="216.614" height="108.307" style="fill:#a7ff00;" /><rect x="1083.125" y="1083.884" width="216.614" height="108.307" style="fill:#70af01;" /><rect x="1299.738" y="1083.884" width="108.307" height="108.307" style="fill:#375400;" /><rect x="1408.045" y="1083.884" width="649.841" height="108.307" style="fill:#141d04;" /><rect x="2057.886" y="1083.884" width="324.92" height="108.307" style="fill:#375400;" /><rect x="2382.806" y="1083.884" width="108.307" height="108.307" style="fill:#a7de45;" /><rect x="649.898" y="1192.191" width="216.614" height="108.307" style="fill:#a7ff00;" /><rect x="866.511" y="1192.191" width="108.307" height="108.307" style="fill:#70af01;" /><rect x="974.818" y="1192.191" width="324.92" height="108.307" style="fill:#375400;" /><rect x="1299.738" y="1192.191" width="216.614" height="108.307" style="fill:#141d04;" /><rect x="1516.352" y="1192.191" width="324.92" height="108.307" style="fill:#a7ff00;" /><rect x="1841.272" y="1192.191" width="216.614" height="108.307" style="fill:#7cbf06;" /><rect x="2057.886" y="1192.191" width="324.92" height="108.307" style="fill:#141d04;" /><rect x="2382.806" y="1192.191" width="108.307" height="108.307" style="fill:#375400;" /><rect x="541.591" y="1300.497" width="216.614" height="108.307" style="fill:#92c732;" /><rect x="758.204" y="1300.497" width="216.614" height="108.307" style="fill:#375400;" /><rect x="974.818" y="1300.497" width="324.92" height="108.307" style="fill:#141d04;" /><rect x="1299.738" y="1300.497" width="216.614" height="108.307" style="fill:#a7ff00;" /><rect x="1516.352" y="1300.497" width="433.227" height="108.307" style="fill:#253800;" /><rect x="1949.579" y="1300.497" width="216.614" height="108.307" style="fill:#7cbf06;" /><rect x="2166.192" y="1300.497" width="324.92" height="108.307" style="fill:#141d04;" /><rect x="2491.113" y="1300.497" width="216.614" height="108.307" style="fill:#375400;" /><rect x="2707.726" y="1300.497" width="541.534" height="324.92" style="fill:#a7de45;" /><rect x="433.284" y="1408.804" width="216.614" height="324.92" style="fill:#92c732;" /><rect x="649.898" y="1408.804" width="108.307" height="324.92" style="fill:#375400;" /><rect x="758.204" y="1408.804" width="324.92" height="108.307" style="fill:#141d04;" /><rect x="1083.125" y="1408.804" width="216.614" height="108.307" style="fill:#a7ff00;" /><rect x="1299.738" y="1408.804" width="108.307" height="108.307" style="fill:#70af01;" /><rect x="1408.045" y="1408.804" width="108.307" height="108.307" style="fill:#253800;" /><rect x="1516.352" y="1408.804" width="433.227" height="216.614" style="fill:#141d04;" /><rect x="1949.579" y="1408.804" width="108.307" height="108.307" style="fill:#253800;" /><rect x="2057.886" y="1408.804" width="216.614" height="108.307" style="fill:#7cbf06;" /><rect x="2274.499" y="1408.804" width="324.92" height="108.307" style="fill:#141d04;" /><rect x="2599.42" y="1408.804" width="108.307" height="216.614" style="fill:#375400;" /><rect x="758.204" y="1517.111" width="216.614" height="216.614" style="fill:#141d04;" /><rect x="974.818" y="1517.111" width="108.307" height="324.92" style="fill:#a7ff00;" /><rect x="1083.125" y="1517.111" width="108.307" height="216.614" style="fill:#70af01;" /><rect x="1191.431" y="1517.111" width="108.307" height="324.92" style="fill:#253800;" /><rect x="1299.738" y="1517.111" width="216.614" height="324.92" style="fill:#141d04;" /><rect x="1949.579" y="1517.111" width="108.307" height="108.307" style="fill:#141d04;" /><rect x="2057.886" y="1517.111" width="108.307" height="108.307" style="fill:#253800;" /><rect x="2166.192" y="1517.111" width="216.614" height="108.307" style="fill:#7cbf06;" /><rect x="2382.806" y="1517.111" width="216.614" height="216.614" style="fill:#141d04;" /><rect x="1516.352" y="1625.418" width="108.307" height="108.307" style="fill:#659909;" /><rect x="1624.659" y="1625.418" width="216.614" height="324.92" style="fill:#7cbf06;" /><rect x="1841.272" y="1625.418" width="108.307" height="108.307" style="fill:#141d04;" /><rect x="1949.579" y="1625.418" width="108.307" height="108.307" style="fill:#253800;" /><rect x="2057.886" y="1625.418" width="216.614" height="108.307" style="fill:#7cbf06;" /><rect x="2274.499" y="1625.418" width="108.307" height="108.307" style="fill:#253800;" /><rect x="2599.42" y="1625.418" width="216.614" height="324.92" style="fill:#8aca17;" /><rect x="3140.954" y="1625.418" width="108.307" height="866.454" style="fill:#92c732;" /><rect x="433.284" y="1733.725" width="108.307" height="1083.068" style="fill:#141d04;" /><rect x="541.591" y="1733.725" width="216.614" height="216.614" style="fill:#92c732;" /><rect x="758.204" y="1733.725" width="108.307" height="216.614" style="fill:#375400;" /><rect x="866.511" y="1733.725" width="108.307" height="216.614" style="fill:#141d04;" /><rect x="1083.125" y="1733.725" width="108.307" height="108.307" style="fill:#a7ff00;" /><rect x="1516.352" y="1733.725" width="108.307" height="108.307" style="fill:#7cbf06;" /><rect x="1841.272" y="1733.725" width="108.307" height="216.614" style="fill:#7cbf06;" /><rect x="1949.579" y="1733.725" width="216.614" height="108.307" style="fill:#7cbf06;" /><rect x="2166.192" y="1733.725" width="108.307" height="108.307" style="fill:#253800;" /><rect x="2274.499" y="1733.725" width="216.614" height="108.307" style="fill:#141d04;" /><rect x="2491.113" y="1733.725" width="108.307" height="108.307" style="fill:#7fc209;" /><rect x="2816.033" y="1733.725" width="216.614" height="108.307" style="fill:#8aca17;" /><rect x="3032.647" y="1733.725" width="216.614" height="216.614" style="fill:#a7de45;" /><rect x="974.818" y="1842.031" width="108.307" height="216.614" style="fill:#141d04;" /><rect x="1083.125" y="1842.031" width="216.614" height="108.307" style="fill:#70af01;" /><rect x="1299.738" y="1842.031" width="108.307" height="108.307" style="fill:#253800;" /><rect x="1408.045" y="1842.031" width="108.307" height="108.307" style="fill:#141d04;" /><rect x="1516.352" y="1842.031" width="108.307" height="108.307" style="fill:#659909;" /><rect x="1949.579" y="1842.031" width="216.614" height="108.307" style="fill:#253800;" /><rect x="2166.192" y="1842.031" width="216.614" height="108.307" style="fill:#141d04;" /><rect x="2382.806" y="1842.031" width="216.614" height="216.614" style="fill:#7cbf06;" /><rect x="2816.033" y="1842.031" width="216.614" height="108.307" style="fill:#375400;" /><rect x="541.591" y="1950.338" width="108.307" height="974.761" style="fill:#141d04;" /><rect x="649.898" y="1950.338" width="216.614" height="108.307" style="fill:#92c732;" /><rect x="866.511" y="1950.338" width="108.307" height="108.307" style="fill:#375400;" /><rect x="1083.125" y="1950.338" width="108.307" height="216.614" style="fill:#141d04;" /><rect x="1191.431" y="1950.338" width="216.614" height="108.307" style="fill:#70af01;" /><rect x="1408.045" y="1950.338" width="108.307" height="216.614" style="fill:#253800;" /><rect x="1516.352" y="1950.338" width="108.307" height="216.614" style="fill:#141d04;" /><rect x="1624.659" y="1950.338" width="324.92" height="108.307" style="fill:#253800;" /><rect x="1949.579" y="1950.338" width="324.92" height="108.307" style="fill:#141d04;" /><rect x="2274.499" y="1950.338" width="108.307" height="108.307" style="fill:#7cbf06;" /><rect x="2599.42" y="1950.338" width="108.307" height="108.307" style="fill:#375400;" /><rect x="2707.726" y="1950.338" width="216.614" height="216.614" style="fill:#141d04;" /><rect x="2924.34" y="1950.338" width="216.614" height="108.307" style="fill:#375400;" /><rect x="108.364" y="2058.645" width="108.307" height="541.534" style="fill:#97b663;" /><rect x="649.898" y="2058.645" width="108.307" height="974.761" style="fill:#141d04;" /><rect x="758.204" y="2058.645" width="216.614" height="108.307" style="fill:#92c732;" /><rect x="974.818" y="2058.645" width="108.307" height="108.307" style="fill:#375400;" /><rect x="1191.431" y="2058.645" width="108.307" height="216.614" style="fill:#141d04;" /><rect x="1299.738" y="2058.645" width="108.307" height="108.307" style="fill:#70af01;" /><rect x="1624.659" y="2058.645" width="433.227" height="108.307" style="fill:#141d04;" /><rect x="2057.886" y="2058.645" width="216.614" height="108.307" style="fill:#7cbf06;" /><rect x="2274.499" y="2058.645" width="108.307" height="108.307" style="fill:#649b01;" /><rect x="2382.806" y="2058.645" width="108.307" height="108.307" style="fill:#375400;" /><rect x="2491.113" y="2058.645" width="216.614" height="216.614" style="fill:#141d04;" /><rect x="2924.34" y="2058.645" width="108.307" height="108.307" style="fill:#375400;" /><rect x="3032.647" y="2058.645" width="108.307" height="541.534" style="fill:#92c732;" /><rect x="758.204" y="2166.952" width="108.307" height="974.761" style="fill:#141d04;" /><rect x="866.511" y="2166.952" width="216.614" height="108.307" style="fill:#92c732;" /><rect x="1083.125" y="2166.952" width="108.307" height="108.307" style="fill:#375400;" /><rect x="1299.738" y="2166.952" width="108.307" height="216.614" style="fill:#141d04;" /><rect x="1408.045" y="2166.952" width="108.307" height="108.307" style="fill:#649b01;" /><rect x="1516.352" y="2166.952" width="541.534" height="108.307" style="fill:#7cbf06;" /><rect x="2057.886" y="2166.952" width="216.614" height="108.307" style="fill:#649b01;" /><rect x="2274.499" y="2166.952" width="108.307" height="108.307" style="fill:#375400;" /><rect x="2382.806" y="2166.952" width="108.307" height="216.614" style="fill:#141d04;" /><rect x="2707.726" y="2166.952" width="108.307" height="108.307" style="fill:#141d04;" /><rect x="2816.033" y="2166.952" width="108.307" height="108.307" style="fill:#375400;" /><rect x="2924.34" y="2166.952" width="108.307" height="433.227" style="fill:#92c732;" /><rect x="866.511" y="2275.258" width="108.307" height="866.454" style="fill:#141d04;" /><rect x="974.818" y="2275.258" width="216.614" height="108.307" style="fill:#92c732;" /><rect x="1191.431" y="2275.258" width="108.307" height="108.307" style="fill:#375400;" /><rect x="1408.045" y="2275.258" width="108.307" height="216.614" style="fill:#141d04;" /><rect x="1516.352" y="2275.258" width="108.307" height="108.307" style="fill:#253800;" /><rect x="1624.659" y="2275.258" width="324.92" height="108.307" style="fill:#649b01;" /><rect x="1949.579" y="2275.258" width="108.307" height="108.307" style="fill:#253800;" /><rect x="2057.886" y="2275.258" width="324.92" height="108.307" style="fill:#141d04;" /><rect x="2491.113" y="2275.258" width="108.307" height="108.307" style="fill:#141d04;" /><rect x="2599.42" y="2275.258" width="324.92" height="324.92" style="fill:#92c732;" /><rect x="974.818" y="2383.565" width="108.307" height="866.454" style="fill:#141d04;" /><rect x="1083.125" y="2383.565" width="324.92" height="108.307" style="fill:#92c732;" /><rect x="1516.352" y="2383.565" width="758.147" height="108.307" style="fill:#141d04;" /><rect x="2274.499" y="2383.565" width="324.92" height="216.614" style="fill:#92c732;" /><rect x="216.67" y="2491.872" width="108.307" height="324.92" style="fill:#517611;" /><rect x="1083.125" y="2491.872" width="108.307" height="758.147" style="fill:#141d04;" /><rect x="1191.431" y="2491.872" width="974.761" height="108.307" style="fill:#92c732;" /><rect x="2166.192" y="2491.872" width="108.307" height="108.307" style="fill:#92c732;" /><rect x="3140.954" y="2491.872" width="108.307" height="324.92" style="fill:#050800;" /><rect x="1191.431" y="2600.179" width="216.614" height="649.841" style="fill:#141d04;" /><rect x="1408.045" y="2600.179" width="324.92" height="108.307" style="fill:#92c732;" /><rect x="1732.965" y="2600.179" width="1299.681" height="108.307" style="fill:#92c732;" /><rect x="3032.647" y="2600.179" width="108.307" height="108.307" style="fill:#92c732;" /><rect x="324.977" y="2708.486" width="108.307" height="216.614" style="fill:#517611;" /><rect x="1408.045" y="2708.486" width="324.92" height="541.534" style="fill:#141d04;" /><rect x="1732.965" y="2708.486" width="1191.375" height="108.307" style="fill:#92c732;" /><rect x="2924.34" y="2708.486" width="108.307" height="108.307" style="fill:#92c732;" /><rect x="3032.647" y="2708.486" width="108.307" height="216.614" style="fill:#050800;" /><rect x="433.284" y="2816.792" width="108.307" height="216.614" style="fill:#517611;" /><rect x="1732.965" y="2816.792" width="1083.068" height="108.307" style="fill:#92c732;" /><rect x="2816.033" y="2816.792" width="108.307" height="108.307" style="fill:#92c732;" /><rect x="2924.34" y="2816.792" width="108.307" height="216.614" style="fill:#050800;" /><rect x="541.591" y="2925.099" width="108.307" height="216.614" style="fill:#517611;" /><rect x="1732.965" y="2925.099" width="974.761" height="108.307" style="fill:#92c732;" /><rect x="2707.726" y="2925.099" width="108.307" height="108.307" style="fill:#92c732;" /><rect x="2816.033" y="2925.099" width="108.307" height="216.614" style="fill:#050800;" /><rect x="649.898" y="3033.406" width="108.307" height="216.614" style="fill:#517611;" /><rect x="1732.965" y="3033.406" width="758.147" height="108.307" style="fill:#92c732;" /><rect x="2491.113" y="3033.406" width="216.614" height="108.307" style="fill:#92c732;" /><rect x="2707.726" y="3033.406" width="108.307" height="216.614" style="fill:#050800;" /><rect x="758.204" y="3141.713" width="216.614" height="108.307" style="fill:#517611;" /><rect x="1732.965" y="3141.713" width="758.147" height="108.307" style="fill:#92c732;" /><rect x="2491.113" y="3141.713" width="216.614" height="108.307" style="fill:#050800;" /><rect x="866.511" y="3250.02" width="108.307" height="108.307" style="fill:#517611;" /><rect x="974.818" y="3250.02" width="1624.602" height="108.307" style="fill:#050800;" /><rect x="2816.033" y="1625.418" width="433.227" height="108.307" style="fill:#a7de45;" /></svg>