<?xml version='1.0' encoding='utf-8'?>
<svg xmlns="http://www.w3.org/2000/svg" viewBox="0 0 3358.1349999999998 3358.366" width="512" height="512" version="1.1" xml:space="preserve" style="fill-rule:evenodd;clip-rule:evenodd;stroke-linejoin:round;stroke-miterlimit:2;"><rect x="867.079" y="109.163" width="1732.908" height="108.307" style="fill:#ffb78f;" /><rect x="650.466" y="217.469" width="324.92" height="108.307" style="fill:#ffb78f;" /><rect x="975.386" y="217.469" width="1841.215" height="758.147" style="fill:#f2793e;" /><rect x="433.852" y="325.776" width="324.92" height="108.307" style="fill:#ffb78f;" /><rect x="758.772" y="325.776" width="216.614" height="541.534" style="fill:#f2793e;" /><rect x="2816.601" y="325.776" width="108.307" height="2599.363" style="fill:#f2793e;" /><rect x="325.545" y="434.083" width="216.614" height="108.307" style="fill:#ffb78f;" /><rect x="542.159" y="434.083" width="216.614" height="433.227" style="fill:#f2793e;" /><rect x="2924.908" y="434.083" width="108.307" height="2382.749" style="fill:#f2793e;" /><rect x="217.238" y="542.39" width="216.614" height="108.307" style="fill:#ffb78f;" /><rect x="433.852" y="542.39" width="108.307" height="2491.056" style="fill:#f2793e;" /><rect x="3033.215" y="542.39" width="108.307" height="2166.136" style="fill:#f2793e;" /><rect x="217.238" y="650.696" width="108.307" height="216.614" style="fill:#ffb78f;" /><rect x="325.545" y="650.696" width="108.307" height="2274.442" style="fill:#f2793e;" /><rect x="3141.521" y="650.696" width="108.307" height="1841.215" style="fill:#f2793e;" /><rect x="108.932" y="759.003" width="108.307" height="1841.215" style="fill:#ffb78f;" /><rect x="217.238" y="867.31" width="108.307" height="1949.522" style="fill:#f2793e;" /><rect x="542.159" y="867.31" width="108.307" height="108.307" style="fill:#f2793e;" /><rect x="650.466" y="867.31" width="216.614" height="433.227" style="fill:#fff;" /><rect x="867.079" y="867.31" width="108.307" height="108.307" style="fill:#f2793e;" /><rect x="3249.828" y="867.31" width="108.307" height="1732.908" style="fill:#783f20;" /><rect x="542.159" y="975.617" width="108.307" height="216.614" style="fill:#fff;" /><rect x="867.079" y="975.617" width="1407.988" height="216.614" style="fill:#fff;" /><rect x="2275.067" y="975.617" width="541.534" height="108.307" style="fill:#f2793e;" /><rect x="2275.067" y="1083.924" width="108.307" height="324.92" style="fill:#fff;" /><rect x="2383.374" y="1083.924" width="433.227" height="108.307" style="fill:#f2793e;" /><rect x="542.159" y="1192.23" width="108.307" height="433.227" style="fill:#f2793e;" /><rect x="867.079" y="1192.23" width="1299.681" height="108.307" style="fill:#783f20;" /><rect x="2166.76" y="1192.23" width="108.307" height="108.307" style="fill:#fff;" /><rect x="2383.374" y="1192.23" width="108.307" height="1732.908" style="fill:#fff;" /><rect x="2491.681" y="1192.23" width="324.92" height="108.307" style="fill:#f2793e;" /><rect x="650.466" y="1300.537" width="1516.295" height="216.614" style="fill:#f2793e;" /><rect x="2166.76" y="1300.537" width="108.307" height="108.307" style="fill:#783f20;" /><rect x="2491.681" y="1300.537" width="108.307" height="1624.602" style="fill:#fff;" /><rect x="2599.988" y="1300.537" width="108.307" height="108.307" style="fill:#da8961;" /><rect x="2708.294" y="1300.537" width="108.307" height="1732.908" style="fill:#f2793e;" /><rect x="2166.76" y="1408.844" width="108.307" height="1841.215" style="fill:#f2793e;" /><rect x="2275.067" y="1408.844" width="108.307" height="108.307" style="fill:#783f20;" /><rect x="2599.988" y="1408.844" width="108.307" height="1191.375" style="fill:#783f20;" /><rect x="650.466" y="1517.151" width="216.614" height="433.227" style="fill:#fff;" /><rect x="867.079" y="1517.151" width="1299.681" height="108.307" style="fill:#f2793e;" /><rect x="2275.067" y="1517.151" width="108.307" height="1083.068" style="fill:#f2793e;" /><rect x="542.159" y="1625.457" width="108.307" height="216.614" style="fill:#fff;" /><rect x="867.079" y="1625.457" width="974.761" height="216.614" style="fill:#fff;" /><rect x="1841.84" y="1625.457" width="324.92" height="108.307" style="fill:#f2793e;" /><rect x="1841.84" y="1733.764" width="108.307" height="1191.375" style="fill:#fff;" /><rect x="1950.147" y="1733.764" width="216.614" height="108.307" style="fill:#f2793e;" /><rect x="542.159" y="1842.071" width="108.307" height="541.534" style="fill:#f2793e;" /><rect x="867.079" y="1842.071" width="758.147" height="108.307" style="fill:#783f20;" /><rect x="1625.227" y="1842.071" width="216.614" height="108.307" style="fill:#fff;" /><rect x="1950.147" y="1842.071" width="108.307" height="758.147" style="fill:#783f20;" /><rect x="2058.454" y="1842.071" width="108.307" height="1407.988" style="fill:#f2793e;" /><rect x="650.466" y="1950.378" width="974.761" height="216.614" style="fill:#f2793e;" /><rect x="1625.227" y="1950.378" width="108.307" height="108.307" style="fill:#783f20;" /><rect x="1733.533" y="1950.378" width="108.307" height="974.761" style="fill:#fff;" /><rect x="1625.227" y="2058.685" width="108.307" height="541.534" style="fill:#f2793e;" /><rect x="650.466" y="2166.991" width="108.307" height="108.307" style="fill:#f2793e;" /><rect x="758.772" y="2166.991" width="324.92" height="758.147" style="fill:#fff;" /><rect x="1083.693" y="2166.991" width="541.534" height="108.307" style="fill:#f2793e;" /><rect x="650.466" y="2275.298" width="108.307" height="541.534" style="fill:#fff;" /><rect x="1083.693" y="2275.298" width="108.307" height="541.534" style="fill:#fff;" /><rect x="1191.999" y="2275.298" width="433.227" height="108.307" style="fill:#f2793e;" /><rect x="542.159" y="2383.605" width="108.307" height="324.92" style="fill:#fff;" /><rect x="1191.999" y="2383.605" width="108.307" height="324.92" style="fill:#fff;" /><rect x="1300.306" y="2383.605" width="324.92" height="108.307" style="fill:#f2793e;" /><rect x="1300.306" y="2491.912" width="108.307" height="216.614" style="fill:#783f20;" /><rect x="1408.613" y="2491.912" width="216.614" height="758.147" style="fill:#f2793e;" /><rect x="3141.521" y="2491.912" width="108.307" height="324.92" style="fill:#783f20;" /><rect x="1625.227" y="2600.219" width="108.307" height="216.614" style="fill:#fff;" /><rect x="1950.147" y="2600.219" width="108.307" height="216.614" style="fill:#fff;" /><rect x="2275.067" y="2600.219" width="108.307" height="216.614" style="fill:#fff;" /><rect x="2599.988" y="2600.219" width="108.307" height="216.614" style="fill:#fff;" /><rect x="542.159" y="2708.525" width="108.307" height="433.227" style="fill:#f2793e;" /><rect x="1191.999" y="2708.525" width="108.307" height="108.307" style="fill:#783f20;" /><rect x="1300.306" y="2708.525" width="108.307" height="541.534" style="fill:#f2793e;" /><rect x="3033.215" y="2708.525" width="108.307" height="216.614" style="fill:#783f20;" /><rect x="650.466" y="2816.832" width="108.307" height="433.227" style="fill:#f2793e;" /><rect x="1083.693" y="2816.832" width="108.307" height="108.307" style="fill:#783f20;" /><rect x="1191.999" y="2816.832" width="108.307" height="433.227" style="fill:#f2793e;" /><rect x="1625.227" y="2816.832" width="108.307" height="433.227" style="fill:#f2793e;" /><rect x="1950.147" y="2816.832" width="108.307" height="433.227" style="fill:#f2793e;" /><rect x="2275.067" y="2816.832" width="108.307" height="433.227" style="fill:#f2793e;" /><rect x="2599.988" y="2816.832" width="108.307" height="324.92" style="fill:#f2793e;" /><rect x="2924.908" y="2816.832" width="108.307" height="216.614" style="fill:#783f20;" /><rect x="758.772" y="2925.139" width="324.92" height="108.307" style="fill:#783f20;" /><rect x="1083.693" y="2925.139" width="108.307" height="324.92" style="fill:#f2793e;" /><rect x="1733.533" y="2925.139" width="216.614" height="324.92" style="fill:#f2793e;" /><rect x="2383.374" y="2925.139" width="216.614" height="216.614" style="fill:#f2793e;" /><rect x="2816.601" y="2925.139" width="108.307" height="216.614" style="fill:#783f20;" /><rect x="758.772" y="3033.446" width="324.92" height="216.614" style="fill:#f2793e;" /><rect x="2708.294" y="3033.446" width="108.307" height="216.614" style="fill:#783f20;" /><rect x="2383.374" y="3141.752" width="108.307" height="108.307" style="fill:#f2793e;" /><rect x="2491.681" y="3141.752" width="216.614" height="108.307" style="fill:#783f20;" /><rect x="867.079" y="3250.059" width="1732.908" height="108.307" style="fill:#783f20;" /></svg>