<?xml version="1.0" encoding="UTF-8" ?>
<svg viewBox="0 0 32 32" version="1.1" width="512" height="512" xmlns="http://www.w3.org/2000/svg" shape-rendering="crispEdges">
<rect x="7" y="1" width="18" height="1" fill="#E45D5E" />
<rect x="5" y="2" width="3" height="1" fill="#E45D5E" />
<rect x="8" y="2" width="16" height="1" fill="#EAEAEA" />
<rect x="24" y="2" width="3" height="1" fill="#DE2E2F" />
<rect x="4" y="3" width="2" height="1" fill="#E45D5E" />
<rect x="6" y="3" width="3" height="1" fill="#EAEAEA" />
<rect x="9" y="3" width="6" height="3" fill="#EF2D2D" />
<rect x="15" y="3" width="1" height="3" fill="#F39D9D" />
<rect x="16" y="3" width="7" height="2" fill="#EF2D2D" />
<rect x="23" y="3" width="3" height="1" fill="#EAEAEA" />
<rect x="26" y="3" width="2" height="1" fill="#DE2E2F" />
<rect x="3" y="4" width="2" height="1" fill="#E45D5E" />
<rect x="5" y="4" width="2" height="1" fill="#EAEAEA" />
<rect x="7" y="4" width="2" height="2" fill="#EF2D2D" />
<rect x="23" y="4" width="2" height="2" fill="#EF2D2D" />
<rect x="25" y="4" width="2" height="1" fill="#EAEAEA" />
<rect x="27" y="4" width="2" height="1" fill="#DE2E2F" />
<rect x="2" y="5" width="2" height="1" fill="#E45D5E" />
<rect x="4" y="5" width="2" height="1" fill="#EAEAEA" />
<rect x="6" y="5" width="1" height="1" fill="#EF2D2D" />
<rect x="16" y="5" width="1" height="1" fill="#F27171" />
<rect x="17" y="5" width="6" height="1" fill="#EF2D2D" />
<rect x="25" y="5" width="1" height="1" fill="#EF2D2D" />
<rect x="26" y="5" width="2" height="1" fill="#EAEAEA" />
<rect x="28" y="5" width="2" height="1" fill="#DE2E2F" />
<rect x="2" y="6" width="1" height="2" fill="#E45D5E" />
<rect x="3" y="6" width="2" height="1" fill="#EAEAEA" />
<rect x="5" y="6" width="11" height="1" fill="#F06F6F" />
<rect x="16" y="6" width="11" height="1" fill="#F39D9D" />
<rect x="27" y="6" width="2" height="1" fill="#EAEAEA" />
<rect x="29" y="6" width="1" height="2" fill="#DE2E2F" />
<rect x="1" y="7" width="1" height="18" fill="#E45D5E" />
<rect x="3" y="7" width="1" height="2" fill="#EAEAEA" />
<rect x="4" y="7" width="5" height="1" fill="#EF2D2D" />
<rect x="9" y="7" width="1" height="1" fill="#F39D9D" />
<rect x="10" y="7" width="8" height="1" fill="#EF2D2D" />
<rect x="18" y="7" width="1" height="1" fill="#EE3434" />
<rect x="19" y="7" width="1" height="1" fill="#F5BCBC" />
<rect x="20" y="7" width="7" height="1" fill="#EE3434" />
<rect x="27" y="7" width="1" height="1" fill="#EF2D2D" />
<rect x="28" y="7" width="1" height="2" fill="#EAEAEA" />
<rect x="30" y="7" width="1" height="18" fill="#A72728" />
<rect x="2" y="8" width="1" height="16" fill="#EAEAEA" />
<rect x="4" y="8" width="5" height="1" fill="#EE3030" />
<rect x="9" y="8" width="1" height="1" fill="#F29E9E" />
<rect x="10" y="8" width="9" height="1" fill="#EE3030" />
<rect x="19" y="8" width="1" height="1" fill="#F29E9E" />
<rect x="20" y="8" width="8" height="1" fill="#EE3030" />
<rect x="29" y="8" width="1" height="16" fill="#EAEAEA" />
<rect x="3" y="9" width="6" height="1" fill="#EE3434" />
<rect x="9" y="9" width="1" height="1" fill="#F2A0A0" />
<rect x="10" y="9" width="9" height="1" fill="#EE3434" />
<rect x="19" y="9" width="1" height="1" fill="#F2A0A0" />
<rect x="20" y="9" width="9" height="1" fill="#EE3434" />
<rect x="3" y="10" width="5" height="1" fill="#EF7676" />
<rect x="8" y="10" width="2" height="1" fill="#F2A2A2" />
<rect x="10" y="10" width="2" height="1" fill="#F4BFBF" />
<rect x="12" y="10" width="2" height="1" fill="#F2A2A2" />
<rect x="14" y="10" width="5" height="1" fill="#F4BFBF" />
<rect x="19" y="10" width="2" height="1" fill="#F6D2D2" />
<rect x="21" y="10" width="2" height="1" fill="#F4BFBF" />
<rect x="23" y="10" width="5" height="1" fill="#F2A2A2" />
<rect x="28" y="10" width="1" height="1" fill="#EF7676" />
<rect x="3" y="11" width="5" height="1" fill="#EE3C3C" />
<rect x="8" y="11" width="1" height="1" fill="#F4C0C0" />
<rect x="9" y="11" width="6" height="1" fill="#EE3C3C" />
<rect x="15" y="11" width="1" height="1" fill="#EF7979" />
<rect x="16" y="11" width="8" height="1" fill="#EE3C3C" />
<rect x="24" y="11" width="1" height="1" fill="#F2A4A4" />
<rect x="25" y="11" width="4" height="1" fill="#EE3C3C" />
<rect x="3" y="12" width="5" height="1" fill="#EE4040" />
<rect x="8" y="12" width="1" height="1" fill="#F4C1C1" />
<rect x="9" y="12" width="6" height="1" fill="#EE4040" />
<rect x="15" y="12" width="1" height="1" fill="#EF7B7B" />
<rect x="16" y="12" width="8" height="1" fill="#EE4040" />
<rect x="24" y="12" width="1" height="1" fill="#F2A5A5" />
<rect x="25" y="12" width="4" height="1" fill="#EE4040" />
<rect x="3" y="13" width="5" height="1" fill="#EE4444" />
<rect x="8" y="13" width="1" height="1" fill="#F4C2C2" />
<rect x="9" y="13" width="6" height="1" fill="#EE4444" />
<rect x="15" y="13" width="1" height="1" fill="#EF7E7E" />
<rect x="16" y="13" width="8" height="1" fill="#EE4444" />
<rect x="24" y="13" width="1" height="1" fill="#F2A7A7" />
<rect x="25" y="13" width="4" height="1" fill="#EE4444" />
<rect x="3" y="14" width="1" height="1" fill="#EF8181" />
<rect x="4" y="14" width="4" height="1" fill="#F4C4C4" />
<rect x="8" y="14" width="4" height="1" fill="#EF8181" />
<rect x="12" y="14" width="12" height="1" fill="#F2A9A9" />
<rect x="24" y="14" width="5" height="1" fill="#EF8181" />
<rect x="3" y="15" width="2" height="1" fill="#EE4C4C" />
<rect x="5" y="15" width="1" height="1" fill="#EF8383" />
<rect x="6" y="15" width="6" height="1" fill="#EE4C4C" />
<rect x="12" y="15" width="1" height="1" fill="#F2AAAA" />
<rect x="13" y="15" width="8" height="1" fill="#EE4C4C" />
<rect x="21" y="15" width="1" height="1" fill="#EF8383" />
<rect x="22" y="15" width="7" height="1" fill="#EE4C4C" />
<rect x="3" y="16" width="2" height="1" fill="#EE5050" />
<rect x="5" y="16" width="1" height="1" fill="#EF8686" />
<rect x="6" y="16" width="6" height="1" fill="#EE5050" />
<rect x="12" y="16" width="1" height="1" fill="#F2ACAC" />
<rect x="13" y="16" width="8" height="1" fill="#EE5050" />
<rect x="21" y="16" width="1" height="1" fill="#EF8686" />
<rect x="22" y="16" width="7" height="1" fill="#EE5050" />
<rect x="3" y="17" width="2" height="1" fill="#EE5454" />
<rect x="5" y="17" width="1" height="1" fill="#EF8989" />
<rect x="6" y="17" width="6" height="1" fill="#EE5454" />
<rect x="12" y="17" width="1" height="1" fill="#F2AEAE" />
<rect x="13" y="17" width="8" height="1" fill="#EE5454" />
<rect x="21" y="17" width="1" height="1" fill="#EF8989" />
<rect x="22" y="17" width="7" height="1" fill="#EE5454" />
<rect x="3" y="18" width="7" height="1" fill="#EF8B8B" />
<rect x="10" y="18" width="3" height="1" fill="#F2B0B0" />
<rect x="13" y="18" width="5" height="1" fill="#EF8B8B" />
<rect x="18" y="18" width="11" height="1" fill="#F2B0B0" />
<rect x="3" y="19" width="6" height="1" fill="#EE5B5B" />
<rect x="9" y="19" width="1" height="1" fill="#F2B1B1" />
<rect x="10" y="19" width="7" height="1" fill="#EE5B5B" />
<rect x="17" y="19" width="1" height="1" fill="#F2B1B1" />
<rect x="18" y="19" width="8" height="1" fill="#EE5B5B" />
<rect x="26" y="19" width="1" height="1" fill="#EF8D8D" />
<rect x="27" y="19" width="2" height="1" fill="#EE5B5B" />
<rect x="3" y="20" width="6" height="1" fill="#EE5F5F" />
<rect x="9" y="20" width="1" height="1" fill="#F2B3B3" />
<rect x="10" y="20" width="7" height="1" fill="#EE5F5F" />
<rect x="17" y="20" width="1" height="1" fill="#F2B3B3" />
<rect x="18" y="20" width="8" height="1" fill="#EE5F5F" />
<rect x="26" y="20" width="1" height="1" fill="#EF9090" />
<rect x="27" y="20" width="2" height="1" fill="#EE5F5F" />
<rect x="3" y="21" width="6" height="1" fill="#EE6363" />
<rect x="9" y="21" width="1" height="1" fill="#F2B5B5" />
<rect x="10" y="21" width="7" height="1" fill="#EE6363" />
<rect x="17" y="21" width="1" height="1" fill="#F2B5B5" />
<rect x="18" y="21" width="8" height="1" fill="#EE6363" />
<rect x="26" y="21" width="1" height="1" fill="#EF9393" />
<rect x="27" y="21" width="2" height="1" fill="#EE6363" />
<rect x="3" y="22" width="2" height="1" fill="#EF9595" />
<rect x="5" y="22" width="3" height="1" fill="#F2B6B6" />
<rect x="8" y="22" width="2" height="1" fill="#F4CCCC" />
<rect x="10" y="22" width="7" height="1" fill="#F2B6B6" />
<rect x="17" y="22" width="7" height="1" fill="#F4CCCC" />
<rect x="24" y="22" width="5" height="1" fill="#F2B6B6" />
<rect x="3" y="23" width="1" height="3" fill="#EAEAEA" />
<rect x="4" y="23" width="4" height="1" fill="#EE6B6B" />
<rect x="8" y="23" width="1" height="1" fill="#F2B8B8" />
<rect x="9" y="23" width="5" height="1" fill="#EE6B6B" />
<rect x="14" y="23" width="1" height="1" fill="#EF9898" />
<rect x="15" y="23" width="6" height="1" fill="#EE6B6B" />
<rect x="21" y="23" width="1" height="1" fill="#F2B8B8" />
<rect x="22" y="23" width="6" height="1" fill="#EE6B6B" />
<rect x="28" y="23" width="1" height="3" fill="#EAEAEA" />
<rect x="2" y="24" width="1" height="3" fill="#DE2E2F" />
<rect x="4" y="24" width="4" height="1" fill="#EE6F6F" />
<rect x="8" y="24" width="1" height="1" fill="#F2BABA" />
<rect x="9" y="24" width="5" height="1" fill="#EE6F6F" />
<rect x="14" y="24" width="1" height="1" fill="#EF9B9B" />
<rect x="15" y="24" width="6" height="1" fill="#EE6F6F" />
<rect x="21" y="24" width="1" height="1" fill="#F2BABA" />
<rect x="22" y="24" width="6" height="1" fill="#EE6F6F" />
<rect x="29" y="24" width="1" height="3" fill="#A72728" />
<rect x="4" y="25" width="1" height="2" fill="#EAEAEA" />
<rect x="5" y="25" width="3" height="1" fill="#EE7373" />
<rect x="8" y="25" width="1" height="1" fill="#F2BCBC" />
<rect x="9" y="25" width="5" height="1" fill="#EE7373" />
<rect x="14" y="25" width="1" height="1" fill="#EF9D9D" />
<rect x="15" y="25" width="6" height="1" fill="#EE7373" />
<rect x="21" y="25" width="1" height="1" fill="#F2BCBC" />
<rect x="22" y="25" width="5" height="1" fill="#EE7373" />
<rect x="27" y="25" width="1" height="2" fill="#EAEAEA" />
<rect x="3" y="26" width="1" height="2" fill="#DE2E2F" />
<rect x="5" y="26" width="1" height="2" fill="#EAEAEA" />
<rect x="6" y="26" width="4" height="1" fill="#EFA0A0" />
<rect x="10" y="26" width="12" height="1" fill="#F2BEBE" />
<rect x="22" y="26" width="4" height="1" fill="#EFA0A0" />
<rect x="26" y="26" width="1" height="2" fill="#EAEAEA" />
<rect x="28" y="26" width="1" height="2" fill="#A72728" />
<rect x="4" y="27" width="1" height="2" fill="#DE2E2F" />
<rect x="6" y="27" width="1" height="2" fill="#EAEAEA" />
<rect x="7" y="27" width="3" height="1" fill="#EE7B7B" />
<rect x="10" y="27" width="1" height="2" fill="#F2C0C0" />
<rect x="11" y="27" width="5" height="2" fill="#EE7B7B" />
<rect x="16" y="27" width="1" height="2" fill="#EFA3A3" />
<rect x="17" y="27" width="8" height="1" fill="#EE7B7B" />
<rect x="25" y="27" width="1" height="2" fill="#EAEAEA" />
<rect x="27" y="27" width="1" height="2" fill="#A72728" />
<rect x="5" y="28" width="1" height="2" fill="#DE2E2F" />
<rect x="7" y="28" width="2" height="1" fill="#EAEAEA" />
<rect x="9" y="28" width="1" height="1" fill="#EE7B7B" />
<rect x="17" y="28" width="6" height="1" fill="#EE7B7B" />
<rect x="23" y="28" width="2" height="1" fill="#EAEAEA" />
<rect x="26" y="28" width="1" height="2" fill="#A72728" />
<rect x="6" y="29" width="2" height="1" fill="#DE2E2F" />
<rect x="8" y="29" width="16" height="1" fill="#EAEAEA" />
<rect x="24" y="29" width="2" height="1" fill="#A72728" />
<rect x="7" y="30" width="18" height="1" fill="#A72728" />
</svg>