<?xml version="1.0" encoding="UTF-8" ?>
<svg viewBox="0 0 32 32" version="1.1" width="512" height="512" xmlns="http://www.w3.org/2000/svg" shape-rendering="crispEdges">
<rect x="7" y="1" width="18" height="1" fill="#020000" />
<rect x="5" y="2" width="3" height="1" fill="#020000" />
<rect x="8" y="2" width="16" height="1" fill="#DFDFDF" />
<rect x="24" y="2" width="3" height="1" fill="#020000" />
<rect x="4" y="3" width="2" height="1" fill="#020000" />
<rect x="6" y="3" width="3" height="1" fill="#DFDFDF" />
<rect x="9" y="3" width="14" height="8" fill="#F5F5F5" />
<rect x="23" y="3" width="3" height="1" fill="#DFDFDF" />
<rect x="26" y="3" width="2" height="1" fill="#020000" />
<rect x="3" y="4" width="2" height="1" fill="#020000" />
<rect x="5" y="4" width="2" height="1" fill="#DFDFDF" />
<rect x="7" y="4" width="2" height="7" fill="#F5F5F5" />
<rect x="23" y="4" width="2" height="8" fill="#F5F5F5" />
<rect x="25" y="4" width="2" height="1" fill="#DFDFDF" />
<rect x="27" y="4" width="2" height="1" fill="#020000" />
<rect x="2" y="5" width="2" height="1" fill="#020000" />
<rect x="4" y="5" width="2" height="1" fill="#DFDFDF" />
<rect x="6" y="5" width="1" height="9" fill="#F5F5F5" />
<rect x="25" y="5" width="1" height="9" fill="#F5F5F5" />
<rect x="26" y="5" width="2" height="1" fill="#DFDFDF" />
<rect x="28" y="5" width="2" height="1" fill="#020000" />
<rect x="2" y="6" width="1" height="2" fill="#020000" />
<rect x="3" y="6" width="2" height="1" fill="#DFDFDF" />
<rect x="5" y="6" width="1" height="8" fill="#F5F5F5" />
<rect x="26" y="6" width="1" height="8" fill="#F5F5F5" />
<rect x="27" y="6" width="2" height="1" fill="#DFDFDF" />
<rect x="29" y="6" width="1" height="2" fill="#020000" />
<rect x="1" y="7" width="1" height="18" fill="#020000" />
<rect x="3" y="7" width="1" height="2" fill="#DFDFDF" />
<rect x="4" y="7" width="1" height="8" fill="#F5F5F5" />
<rect x="27" y="7" width="1" height="8" fill="#F5F5F5" />
<rect x="28" y="7" width="1" height="2" fill="#DFDFDF" />
<rect x="30" y="7" width="1" height="18" fill="#020000" />
<rect x="2" y="8" width="1" height="16" fill="#DFDFDF" />
<rect x="29" y="8" width="1" height="16" fill="#DFDFDF" />
<rect x="3" y="9" width="1" height="14" fill="#F5F5F5" />
<rect x="28" y="9" width="1" height="14" fill="#F5F5F5" />
<rect x="7" y="11" width="1" height="1" fill="#F5F5F5" />
<rect x="8" y="11" width="2" height="10" fill="#262626" />
<rect x="10" y="11" width="11" height="1" fill="#F5F5F5" />
<rect x="21" y="11" width="2" height="4" fill="#2075D2" />
<rect x="7" y="12" width="1" height="8" fill="#262626" />
<rect x="10" y="12" width="1" height="8" fill="#262626" />
<rect x="11" y="12" width="9" height="2" fill="#F5F5F5" />
<rect x="20" y="12" width="1" height="2" fill="#2075D2" />
<rect x="23" y="12" width="1" height="2" fill="#2075D2" />
<rect x="24" y="12" width="1" height="3" fill="#F5F5F5" />
<rect x="5" y="14" width="2" height="4" fill="#262626" />
<rect x="11" y="14" width="2" height="4" fill="#262626" />
<rect x="13" y="14" width="4" height="1" fill="#F5F5F5" />
<rect x="17" y="14" width="2" height="4" fill="#FFBB2D" />
<rect x="19" y="14" width="2" height="1" fill="#F5F5F5" />
<rect x="23" y="14" width="1" height="4" fill="#F5F5F5" />
<rect x="25" y="14" width="2" height="4" fill="#D23332" />
<rect x="4" y="15" width="1" height="2" fill="#262626" />
<rect x="13" y="15" width="1" height="2" fill="#262626" />
<rect x="14" y="15" width="2" height="9" fill="#F5F5F5" />
<rect x="16" y="15" width="1" height="2" fill="#FFBB2D" />
<rect x="19" y="15" width="1" height="2" fill="#FFBB2D" />
<rect x="20" y="15" width="3" height="2" fill="#F5F5F5" />
<rect x="24" y="15" width="1" height="2" fill="#D23332" />
<rect x="27" y="15" width="1" height="2" fill="#D23332" />
<rect x="4" y="17" width="1" height="8" fill="#F5F5F5" />
<rect x="13" y="17" width="1" height="8" fill="#F5F5F5" />
<rect x="16" y="17" width="1" height="12" fill="#F5F5F5" />
<rect x="19" y="17" width="2" height="1" fill="#F5F5F5" />
<rect x="21" y="17" width="2" height="4" fill="#3B8C3F" />
<rect x="24" y="17" width="1" height="11" fill="#F5F5F5" />
<rect x="27" y="17" width="1" height="8" fill="#F5F5F5" />
<rect x="5" y="18" width="2" height="8" fill="#F5F5F5" />
<rect x="11" y="18" width="2" height="11" fill="#F5F5F5" />
<rect x="17" y="18" width="3" height="6" fill="#F5F5F5" />
<rect x="20" y="18" width="1" height="2" fill="#3B8C3F" />
<rect x="23" y="18" width="1" height="2" fill="#3B8C3F" />
<rect x="25" y="18" width="2" height="8" fill="#F5F5F5" />
<rect x="7" y="20" width="1" height="8" fill="#F5F5F5" />
<rect x="10" y="20" width="1" height="9" fill="#F5F5F5" />
<rect x="20" y="20" width="1" height="9" fill="#F5F5F5" />
<rect x="23" y="20" width="1" height="8" fill="#F5F5F5" />
<rect x="8" y="21" width="2" height="7" fill="#F5F5F5" />
<rect x="21" y="21" width="2" height="8" fill="#F5F5F5" />
<rect x="3" y="23" width="1" height="3" fill="#DFDFDF" />
<rect x="28" y="23" width="1" height="3" fill="#DFDFDF" />
<rect x="2" y="24" width="1" height="3" fill="#020000" />
<rect x="14" y="24" width="1" height="1" fill="#616161" />
<rect x="15" y="24" width="1" height="5" fill="#F5F5F5" />
<rect x="17" y="24" width="2" height="1" fill="#F5F5F5" />
<rect x="19" y="24" width="1" height="1" fill="#616161" />
<rect x="29" y="24" width="1" height="3" fill="#020000" />
<rect x="4" y="25" width="1" height="2" fill="#DFDFDF" />
<rect x="13" y="25" width="1" height="1" fill="#616161" />
<rect x="14" y="25" width="1" height="4" fill="#F5F5F5" />
<rect x="17" y="25" width="1" height="4" fill="#F5F5F5" />
<rect x="18" y="25" width="1" height="1" fill="#616161" />
<rect x="19" y="25" width="1" height="4" fill="#F5F5F5" />
<rect x="27" y="25" width="1" height="2" fill="#DFDFDF" />
<rect x="3" y="26" width="1" height="2" fill="#020000" />
<rect x="5" y="26" width="1" height="2" fill="#DFDFDF" />
<rect x="6" y="26" width="1" height="1" fill="#F5F5F5" />
<rect x="13" y="26" width="1" height="3" fill="#F5F5F5" />
<rect x="18" y="26" width="1" height="3" fill="#F5F5F5" />
<rect x="25" y="26" width="1" height="1" fill="#F5F5F5" />
<rect x="26" y="26" width="1" height="2" fill="#DFDFDF" />
<rect x="28" y="26" width="1" height="2" fill="#020000" />
<rect x="4" y="27" width="1" height="2" fill="#020000" />
<rect x="6" y="27" width="1" height="2" fill="#DFDFDF" />
<rect x="25" y="27" width="1" height="2" fill="#DFDFDF" />
<rect x="27" y="27" width="1" height="2" fill="#020000" />
<rect x="5" y="28" width="1" height="2" fill="#020000" />
<rect x="7" y="28" width="2" height="1" fill="#DFDFDF" />
<rect x="9" y="28" width="1" height="1" fill="#F5F5F5" />
<rect x="23" y="28" width="2" height="1" fill="#DFDFDF" />
<rect x="26" y="28" width="1" height="2" fill="#020000" />
<rect x="6" y="29" width="2" height="1" fill="#020000" />
<rect x="8" y="29" width="16" height="1" fill="#DFDFDF" />
<rect x="24" y="29" width="2" height="1" fill="#020000" />
<rect x="7" y="30" width="18" height="1" fill="#020000" />
</svg>