<?xml version="1.0" encoding="UTF-8" standalone="no"?>
<svg
   viewBox="0 0 3358.352 3357.9799999999996"
   width="512"
   height="512"
   version="1.1"
   xml:space="preserve"
   style="fill-rule:evenodd;clip-rule:evenodd;stroke-linejoin:round;stroke-miterlimit:2;"
   id="svg93"
   sodipodi:docname="mother-terminal.svg"
   inkscape:version="1.4.4 (dcaf3e7d9e, 2026-05-05)"
   xmlns:inkscape="http://www.inkscape.org/namespaces/inkscape"
   xmlns:sodipodi="http://sodipodi.sourceforge.net/DTD/sodipodi-0.dtd"
   xmlns="http://www.w3.org/2000/svg"
   xmlns:svg="http://www.w3.org/2000/svg"><defs
     id="defs93" /><sodipodi:namedview
     id="namedview93"
     pagecolor="#505050"
     bordercolor="#ffffff"
     borderopacity="1"
     inkscape:showpageshadow="0"
     inkscape:pageopacity="0"
     inkscape:pagecheckerboard="1"
     inkscape:deskcolor="#505050"
     inkscape:zoom="3.2734375"
     inkscape:cx="200.70644"
     inkscape:cy="294.49165"
     inkscape:window-width="1920"
     inkscape:window-height="1024"
     inkscape:window-x="0"
     inkscape:window-y="0"
     inkscape:window-maximized="1"
     inkscape:current-layer="svg93" /><rect
     x="867.296"
     y="108.777"
     width="1732.908"
     height="108.307"
     style="fill:#10081a;"
     id="rect1" /><rect
     x="650.683"
     y="217.083"
     width="324.92"
     height="108.307"
     style="fill:#10081a;"
     id="rect2" /><rect
     x="1408.83"
     y="217.083"
     width="1083.068"
     height="108.307"
     style="fill:#887d95;"
     id="rect4" /><rect
     x="2491.898"
     y="217.083"
     width="324.92"
     height="108.307"
     style="fill:#10081a;"
     id="rect5" /><rect
     x="434.069"
     y="325.39"
     width="324.92"
     height="108.307"
     style="fill:#10081a;"
     id="rect6" /><rect
     x="1083.91"
     y="325.39"
     width="1624.602"
     height="108.307"
     style="fill:#454048;"
     id="rect8" /><rect
     x="2708.512"
     y="325.39"
     width="324.92"
     height="108.307"
     style="fill:#10081a;"
     id="rect9" /><rect
     x="325.762"
     y="433.697"
     width="216.614"
     height="108.307"
     style="fill:#10081a;"
     id="rect10" /><rect
     x="867.296"
     y="433.697"
     width="2057.829"
     height="216.614"
     style="fill:#3f3b44;"
     id="rect12" /><rect
     x="2925.125"
     y="433.697"
     width="216.614"
     height="108.307"
     style="fill:#10081a;"
     id="rect13" /><rect
     x="217.456"
     y="542.004"
     width="216.614"
     height="108.307"
     style="fill:#10081a;"
     id="rect14" /><rect
     x="650.683"
     y="542.004"
     width="216.614"
     height="108.307"
     style="fill:#3f3b44;"
     id="rect16" /><rect
     x="2925.125"
     y="542.004"
     width="108.307"
     height="108.307"
     style="fill:#3f3b44;"
     id="rect17" /><rect
     x="3033.432"
     y="542.004"
     width="216.614"
     height="108.307"
     style="fill:#10081a;"
     id="rect18" /><rect
     x="217.456"
     y="650.311"
     width="108.307"
     height="216.614"
     style="fill:#10081a;"
     id="rect19" /><rect
     x="542.376"
     y="650.311"
     width="2599.363"
     height="216.614"
     style="fill:#454048;"
     id="rect21" /><rect
     x="3141.739"
     y="650.311"
     width="108.307"
     height="216.614"
     style="fill:#10081a;"
     id="rect22" /><rect
     x="109.149"
     y="758.617"
     width="108.307"
     height="1841.215"
     style="fill:#10081a;"
     id="rect23" /><rect
     x="434.069"
     y="758.617"
     width="108.307"
     height="108.307"
     style="fill:#454048;"
     id="rect25" /><rect
     x="3250.045"
     y="758.617"
     width="108.307"
     height="1841.215"
     style="fill:#10081a;"
     id="rect26" /><rect
     x="434.069"
     y="866.924"
     width="2707.67"
     height="216.614"
     style="fill:#3f3b44;"
     id="rect28" /><rect
     x="3141.739"
     y="866.924"
     width="108.307"
     height="1624.602"
     style="fill:#39353e;"
     id="rect29" /><rect
     x="325.762"
     y="975.231"
     width="108.307"
     height="108.307"
     style="fill:#3f3b44;"
     id="rect30" /><rect
     x="325.762"
     y="1083.538"
     width="2815.976"
     height="108.307"
     style="fill:#454048;"
     id="rect31" /><rect
     x="325.762"
     y="1191.844"
     width="433.227"
     height="108.307"
     style="fill:#454048;"
     id="rect32" /><rect
     x="1083.91"
     y="1191.844"
     width="2057.829"
     height="108.307"
     style="fill:#454048;"
     id="rect34" /><rect
     x="325.762"
     y="1300.151"
     width="541.534"
     height="216.614"
     style="fill:#3f3b44;"
     id="rect35" /><rect
     x="1192.217"
     y="1300.151"
     width="1949.522"
     height="108.307"
     style="fill:#3f3b44;"
     id="rect37" /><rect
     x="867.296"
     y="1408.458"
     width="108.307"
     height="108.307"
     style="fill:#3f3b44;"
     id="rect38" /><rect
     x="1300.523"
     y="1408.458"
     width="1841.215"
     height="108.307"
     style="fill:#3f3b44;"
     id="rect40" /><rect
     x="217.456"
     y="1516.765"
     width="108.307"
     height="974.761"
     style="fill:#887d95;"
     id="rect41" /><rect
     x="325.762"
     y="1516.765"
     width="758.147"
     height="216.614"
     style="fill:#454048;"
     id="rect42" /><rect
     x="1408.83"
     y="1516.765"
     width="1732.908"
     height="108.307"
     style="fill:#454048;"
     id="rect44" /><rect
     x="1083.91"
     y="1625.072"
     width="108.307"
     height="108.307"
     style="fill:#454048;"
     id="rect45" /><rect
     x="1517.137"
     y="1625.072"
     width="1624.602"
     height="108.307"
     style="fill:#454048;"
     id="rect47" /><rect
     x="325.762"
     y="1733.378"
     width="974.761"
     height="108.307"
     style="fill:#3f3b44;"
     id="rect48" /><rect
     x="1625.444"
     y="1733.378"
     width="1516.295"
     height="216.614"
     style="fill:#3f3b44;"
     id="rect50" /><rect
     x="325.762"
     y="1841.685"
     width="866.454"
     height="108.307"
     style="fill:#3f3b44;"
     id="rect51" /><rect
     x="1517.137"
     y="1841.685"
     width="108.307"
     height="108.307"
     style="fill:#3f3b44;"
     id="rect53" /><rect
     x="325.762"
     y="1949.992"
     width="758.147"
     height="108.307"
     style="fill:#454048;"
     id="rect54" /><rect
     x="1408.83"
     y="1949.992"
     width="1732.908"
     height="216.614"
     style="fill:#454048;"
     id="rect56" /><rect
     x="325.762"
     y="2058.299"
     width="649.841"
     height="108.307"
     style="fill:#454048;"
     id="rect57" /><rect
     x="1300.523"
     y="2058.299"
     width="108.307"
     height="108.307"
     style="fill:#454048;"
     id="rect59" /><rect
     x="325.762"
     y="2166.605"
     width="541.534"
     height="108.307"
     style="fill:#3f3b44;"
     id="rect60" /><rect
     x="1192.217"
     y="2166.605"
     width="433.227"
     height="216.614"
     style="fill:#3f3b44;"
     id="rect62" /><rect
     x="2600.205"
     y="2166.605"
     width="541.534"
     height="216.614"
     style="fill:#3f3b44;"
     id="rect64" /><rect
     x="325.762"
     y="2274.912"
     width="433.227"
     height="108.307"
     style="fill:#3f3b44;"
     id="rect65" /><path
     id="rect66"
     style="fill:#bdadd1"
     d="M 758.98901,2274.9121 H 1083.909 v 108.307 H 758.98901 Z M 1625.444,2166.605 h 974.761 v 216.614 h -974.761 z m -758.14798,0 H 1192.216 v 108.307 H 867.29602 Z M 975.60303,2058.2991 H 1300.523 v 108.307 H 975.60303 Z M 1083.91,1949.9919 h 324.92 v 108.307 h -324.92 z m 108.307,-108.3068 h 324.9201 v 108.307 H 1192.217 Z m 108.3059,-108.307 h 324.9201 v 108.307 H 1300.5229 Z M 1192.217,1625.072 h 324.9201 v 108.307 H 1192.217 Z M 1083.91,1516.765 h 324.92 v 108.307 H 1083.91 Z M 975.60303,1408.458 H 1300.523 v 108.307 H 975.60303 Z M 867.29602,1300.151 H 1192.216 v 108.307 H 867.29602 Z M 758.98901,1191.844 H 1083.909 v 108.307 H 758.98901 Z M 217.45599,866.92401 h 108.307 V 1516.765 h -108.307 z M 325.76199,758.617 h 108.307 v 216.614 h -108.307 z m 0,-108.30603 h 216.614 v 108.307 h -216.614 z M 434.069,542.00403 h 216.614 v 108.307 H 434.069 Z M 542.37598,433.69699 h 324.92001 v 108.307 H 542.37598 Z M 758.98901,325.39001 H 1083.909 v 108.307 H 758.98901 Z M 975.60303,217.08299 H 1408.83 v 108.307 H 975.60303 Z" /><rect
     x="1083.91"
     y="2274.912"
     width="108.307"
     height="108.307"
     style="fill:#3f3b44;"
     id="rect67" /><rect
     x="325.762"
     y="2383.219"
     width="2707.67"
     height="216.614"
     style="fill:#454048;"
     id="rect68" /><rect
     x="3033.432"
     y="2383.219"
     width="108.307"
     height="324.92"
     style="fill:#39353e;"
     id="rect69" /><rect
     x="217.456"
     y="2491.526"
     width="108.307"
     height="324.92"
     style="fill:#10081a;"
     id="rect70" /><rect
     x="3141.739"
     y="2491.526"
     width="108.307"
     height="324.92"
     style="fill:#10081a;"
     id="rect71" /><rect
     x="325.762"
     y="2599.833"
     width="2599.363"
     height="108.307"
     style="fill:#3f3b44;"
     id="rect72" /><rect
     x="2925.125"
     y="2599.833"
     width="108.307"
     height="216.614"
     style="fill:#39353e;"
     id="rect73" /><rect
     x="325.762"
     y="2708.139"
     width="108.307"
     height="216.614"
     style="fill:#10081a;"
     id="rect74" /><rect
     x="434.069"
     y="2708.139"
     width="2382.749"
     height="108.307"
     style="fill:#3f3b44;"
     id="rect75" /><rect
     x="2816.818"
     y="2708.139"
     width="108.307"
     height="216.614"
     style="fill:#39353e;"
     id="rect76" /><rect
     x="3033.432"
     y="2708.139"
     width="108.307"
     height="216.614"
     style="fill:#10081a;"
     id="rect77" /><rect
     x="434.069"
     y="2816.446"
     width="108.307"
     height="216.614"
     style="fill:#10081a;"
     id="rect78" /><rect
     x="542.376"
     y="2816.446"
     width="2166.136"
     height="108.307"
     style="fill:#454048;"
     id="rect79" /><rect
     x="2708.512"
     y="2816.446"
     width="108.307"
     height="216.614"
     style="fill:#39353e;"
     id="rect80" /><rect
     x="2925.125"
     y="2816.446"
     width="108.307"
     height="216.614"
     style="fill:#10081a;"
     id="rect81" /><rect
     x="542.376"
     y="2924.753"
     width="108.307"
     height="216.614"
     style="fill:#10081a;"
     id="rect82" /><rect
     x="650.683"
     y="2924.753"
     width="1949.522"
     height="108.307"
     style="fill:#454048;"
     id="rect83" /><rect
     x="2600.205"
     y="2924.753"
     width="108.307"
     height="216.614"
     style="fill:#39353e;"
     id="rect84" /><rect
     x="2816.818"
     y="2924.753"
     width="108.307"
     height="216.614"
     style="fill:#10081a;"
     id="rect85" /><rect
     x="650.683"
     y="3033.06"
     width="108.307"
     height="216.614"
     style="fill:#10081a;"
     id="rect86" /><rect
     x="758.989"
     y="3033.06"
     width="1624.602"
     height="108.307"
     style="fill:#3f3b44;"
     id="rect87" /><rect
     x="2383.591"
     y="3033.06"
     width="216.614"
     height="108.307"
     style="fill:#39353e;"
     id="rect88" /><rect
     x="2708.512"
     y="3033.06"
     width="108.307"
     height="216.614"
     style="fill:#10081a;"
     id="rect89" /><rect
     x="758.989"
     y="3141.366"
     width="216.614"
     height="108.307"
     style="fill:#10081a;"
     id="rect90" /><rect
     x="975.603"
     y="3141.366"
     width="1516.295"
     height="108.307"
     style="fill:#39353e;"
     id="rect91" /><rect
     x="2491.898"
     y="3141.366"
     width="216.614"
     height="108.307"
     style="fill:#10081a;"
     id="rect92" /><rect
     x="867.296"
     y="3249.673"
     width="1732.908"
     height="108.307"
     style="fill:#10081a;"
     id="rect93" /></svg>
