<?xml version='1.0' encoding='utf-8'?>
<svg xmlns="http://www.w3.org/2000/svg" viewBox="0 0 3358.439 3358.0589999999997" width="512" height="512" version="1.1" xml:space="preserve" style="fill-rule:evenodd;clip-rule:evenodd;stroke-linejoin:round;stroke-miterlimit:2;"><rect x="867.383" y="108.856" width="1732.908" height="108.307" style="fill:#070a0b;" /><rect x="650.769" y="217.162" width="324.92" height="108.307" style="fill:#070a0b;" /><rect x="975.69" y="217.162" width="1516.295" height="108.307" style="fill:#fff;" /><rect x="2491.985" y="217.162" width="324.92" height="108.307" style="fill:#070a0b;" /><rect x="542.463" y="325.469" width="216.614" height="108.307" style="fill:#070a0b;" /><rect x="759.076" y="325.469" width="433.227" height="108.307" style="fill:#fff;" /><rect x="1192.303" y="325.469" width="1191.375" height="649.841" style="fill:#dacbf8;" /><rect x="2383.678" y="325.469" width="324.92" height="108.307" style="fill:#fff;" /><rect x="2708.598" y="325.469" width="216.614" height="108.307" style="fill:#070a0b;" /><rect x="434.156" y="433.776" width="216.614" height="108.307" style="fill:#070a0b;" /><rect x="650.769" y="433.776" width="324.92" height="108.307" style="fill:#fff;" /><rect x="975.69" y="433.776" width="216.614" height="866.454" style="fill:#dacbf8;" /><rect x="2383.678" y="433.776" width="216.614" height="866.454" style="fill:#dacbf8;" /><rect x="2600.291" y="433.776" width="216.614" height="108.307" style="fill:#fff;" /><rect x="2816.905" y="433.776" width="216.614" height="108.307" style="fill:#070a0b;" /><rect x="325.849" y="542.083" width="216.614" height="108.307" style="fill:#070a0b;" /><rect x="542.463" y="542.083" width="216.614" height="108.307" style="fill:#fff;" /><rect x="759.076" y="542.083" width="216.614" height="1083.068" style="fill:#dacbf8;" /><rect x="2600.291" y="542.083" width="108.307" height="1083.068" style="fill:#dacbf8;" /><rect x="2708.598" y="542.083" width="216.614" height="108.307" style="fill:#fff;" /><rect x="2925.212" y="542.083" width="216.614" height="108.307" style="fill:#070a0b;" /><rect x="217.542" y="650.389" width="216.614" height="108.307" style="fill:#070a0b;" /><rect x="434.156" y="650.389" width="216.614" height="108.307" style="fill:#e2daf0;" /><rect x="650.769" y="650.389" width="108.307" height="974.761" style="fill:#dacbf8;" /><rect x="2708.598" y="650.389" width="108.307" height="974.761" style="fill:#dacbf8;" /><rect x="2816.905" y="650.389" width="216.614" height="108.307" style="fill:#fff;" /><rect x="3033.519" y="650.389" width="216.614" height="108.307" style="fill:#070a0b;" /><rect x="217.542" y="758.696" width="108.307" height="216.614" style="fill:#070a0b;" /><rect x="325.849" y="758.696" width="108.307" height="216.614" style="fill:#c5b6e2;" /><rect x="434.156" y="758.696" width="108.307" height="108.307" style="fill:#e2daf0;" /><rect x="542.463" y="758.696" width="108.307" height="866.454" style="fill:#dacbf8;" /><rect x="2816.905" y="758.696" width="108.307" height="866.454" style="fill:#dacbf8;" /><rect x="2925.212" y="758.696" width="108.307" height="108.307" style="fill:#fff;" /><rect x="3033.519" y="758.696" width="108.307" height="108.307" style="fill:#e2daf0;" /><rect x="3141.825" y="758.696" width="108.307" height="216.614" style="fill:#070a0b;" /><rect x="109.235" y="867.003" width="108.307" height="324.92" style="fill:#070a0b;" /><rect x="434.156" y="867.003" width="108.307" height="758.147" style="fill:#dacbf8;" /><rect x="2925.212" y="867.003" width="108.307" height="758.147" style="fill:#dacbf8;" /><rect x="3033.519" y="867.003" width="108.307" height="108.307" style="fill:#c5b6e2;" /><rect x="3250.132" y="867.003" width="108.307" height="433.227" style="fill:#070a0b;" /><rect x="217.542" y="975.31" width="216.614" height="108.307" style="fill:#ae9ad7;" /><rect x="1192.303" y="975.31" width="216.614" height="108.307" style="fill:#dacbf8;" /><rect x="1408.917" y="975.31" width="216.614" height="108.307" style="fill:#d5c0ff;" /><rect x="1625.53" y="975.31" width="324.92" height="108.307" /><rect x="1950.451" y="975.31" width="216.614" height="108.307" style="fill:#d5c0ff;" /><rect x="2167.064" y="975.31" width="216.614" height="108.307" style="fill:#dacbf8;" /><rect x="3033.519" y="975.31" width="108.307" height="649.841" style="fill:#dacbf8;" /><rect x="3141.825" y="975.31" width="108.307" height="108.307" style="fill:#8b6dc6;" /><rect x="217.542" y="1083.617" width="108.307" height="108.307" style="fill:#7e5dc0;" /><rect x="325.849" y="1083.617" width="108.307" height="541.534" style="fill:#dacbf8;" /><rect x="1192.303" y="1083.617" width="108.307" height="108.307" style="fill:#dacbf8;" /><rect x="1300.61" y="1083.617" width="108.307" height="108.307" style="fill:#d5c0ff;" /><rect x="1408.917" y="1083.617" width="324.92" height="108.307" /><rect x="1733.837" y="1083.617" width="216.614" height="108.307" style="fill:#000014;" /><rect x="1950.451" y="1083.617" width="216.614" height="108.307" /><rect x="2167.064" y="1083.617" width="108.307" height="108.307" style="fill:#d5c0ff;" /><rect x="2275.371" y="1083.617" width="108.307" height="108.307" style="fill:#dacbf8;" /><rect x="3141.825" y="1083.617" width="108.307" height="108.307" style="fill:#6e49b8;" /><rect x="109.235" y="1191.923" width="108.307" height="108.307" /><rect x="217.542" y="1191.923" width="108.307" height="108.307" style="fill:#6e49b8;" /><rect x="1192.303" y="1191.923" width="108.307" height="108.307" style="fill:#d5c0ff;" /><rect x="1300.61" y="1191.923" width="216.614" height="324.92" /><rect x="1517.224" y="1191.923" width="216.614" height="108.307" style="fill:#000014;" /><rect x="1733.837" y="1191.923" width="108.307" height="108.307" /><rect x="1842.144" y="1191.923" width="324.92" height="108.307" style="fill:#000014;" /><rect x="2167.064" y="1191.923" width="108.307" height="108.307" /><rect x="2275.371" y="1191.923" width="108.307" height="108.307" style="fill:#d5c0ff;" /><rect x="3141.825" y="1191.923" width="108.307" height="1299.681" style="fill:#5125aa;" /><rect x="109.235" y="1300.23" width="108.307" height="1299.681" style="fill:#070a0b;" /><rect x="217.542" y="1300.23" width="108.307" height="1191.375" style="fill:#5125aa;" /><rect x="975.69" y="1300.23" width="108.307" height="216.614" style="fill:#dacbf8;" /><rect x="1083.996" y="1300.23" width="108.307" height="216.614" style="fill:#d5c0ff;" /><rect x="1192.303" y="1300.23" width="108.307" height="433.227" /><rect x="1517.224" y="1300.23" width="108.307" height="108.307" /><rect x="1625.53" y="1300.23" width="108.307" height="108.307" style="fill:#ab82ff;" /><rect x="1733.837" y="1300.23" width="216.614" height="108.307" style="fill:#c2a4ff;" /><rect x="1950.451" y="1300.23" width="108.307" height="108.307" /><rect x="2058.757" y="1300.23" width="216.614" height="108.307" style="fill:#000014;" /><rect x="2275.371" y="1300.23" width="108.307" height="216.614" /><rect x="2383.678" y="1300.23" width="108.307" height="216.614" style="fill:#d5c0ff;" /><rect x="2491.985" y="1300.23" width="108.307" height="216.614" style="fill:#dacbf8;" /><rect x="3250.132" y="1300.23" width="108.307" height="108.307" /><rect x="1517.224" y="1408.537" width="108.307" height="108.307" style="fill:#ab82ff;" /><rect x="1625.53" y="1408.537" width="324.92" height="108.307" style="fill:#5c5864;" /><rect x="1950.451" y="1408.537" width="108.307" height="108.307" style="fill:#c2a4ff;" /><rect x="2058.757" y="1408.537" width="108.307" height="108.307" /><rect x="2167.064" y="1408.537" width="108.307" height="216.614" style="fill:#000014;" /><rect x="3250.132" y="1408.537" width="108.307" height="1191.375" style="fill:#070a0b;" /><rect x="975.69" y="1516.844" width="108.307" height="108.307" style="fill:#d5c0ff;" /><rect x="1083.996" y="1516.844" width="108.307" height="108.307" /><rect x="1300.61" y="1516.844" width="108.307" height="433.227" /><rect x="1408.917" y="1516.844" width="108.307" height="108.307" style="fill:#ab82ff;" /><rect x="1517.224" y="1516.844" width="216.614" height="541.534" style="fill:#5c5864;" /><rect x="1733.837" y="1516.844" width="108.307" height="108.307" style="fill:#f2f7ff;" /><rect x="1842.144" y="1516.844" width="108.307" height="108.307" style="fill:#e8f0ff;" /><rect x="1950.451" y="1516.844" width="108.307" height="541.534" style="fill:#5c5864;" /><rect x="2058.757" y="1516.844" width="108.307" height="108.307" style="fill:#c2a4ff;" /><rect x="2275.371" y="1516.844" width="108.307" height="216.614" style="fill:#000014;" /><rect x="2383.678" y="1516.844" width="108.307" height="108.307" /><rect x="2491.985" y="1516.844" width="108.307" height="108.307" style="fill:#d5c0ff;" /><rect x="325.849" y="1625.15" width="866.454" height="108.307" style="fill:#000014;" /><rect x="1408.917" y="1625.15" width="108.307" height="324.92" style="fill:#5c5864;" /><rect x="1733.837" y="1625.15" width="108.307" height="108.307" style="fill:#e5eeff;" /><rect x="1842.144" y="1625.15" width="108.307" height="108.307" style="fill:#f2f7ff;" /><rect x="2058.757" y="1625.15" width="108.307" height="324.92" style="fill:#5c5864;" /><rect x="2167.064" y="1625.15" width="108.307" height="649.841" /><rect x="2383.678" y="1625.15" width="758.147" height="108.307" style="fill:#000014;" /><rect x="325.849" y="1733.457" width="758.147" height="108.307" /><rect x="1083.996" y="1733.457" width="216.614" height="108.307" style="fill:#000014;" /><rect x="1733.837" y="1733.457" width="216.614" height="433.227" style="fill:#5c5864;" /><rect x="2275.371" y="1733.457" width="866.454" height="108.307" /><rect x="325.849" y="1841.764" width="649.841" height="541.534" style="fill:#8756e8;" /><rect x="975.69" y="1841.764" width="108.307" height="108.307" style="fill:#7e4be7;" /><rect x="1083.996" y="1841.764" width="108.307" height="108.307" /><rect x="1192.303" y="1841.764" width="108.307" height="216.614" style="fill:#000014;" /><rect x="2275.371" y="1841.764" width="216.614" height="108.307" /><rect x="2491.985" y="1841.764" width="108.307" height="108.307" style="fill:#7e4be7;" /><rect x="2600.291" y="1841.764" width="541.534" height="541.534" style="fill:#8756e8;" /><rect x="975.69" y="1950.071" width="108.307" height="1083.068" style="fill:#8756e8;" /><rect x="1083.996" y="1950.071" width="108.307" height="216.614" style="fill:#7e4be7;" /><rect x="1300.61" y="1950.071" width="108.307" height="324.92" style="fill:#000014;" /><rect x="1408.917" y="1950.071" width="108.307" height="433.227" /><rect x="2058.757" y="1950.071" width="108.307" height="433.227" /><rect x="2275.371" y="1950.071" width="108.307" height="216.614" /><rect x="2383.678" y="1950.071" width="108.307" height="216.614" style="fill:#7e4be7;" /><rect x="2491.985" y="1950.071" width="108.307" height="1083.068" style="fill:#8756e8;" /><rect x="1192.303" y="2058.378" width="108.307" height="108.307" /><rect x="1517.224" y="2058.378" width="108.307" height="324.92" /><rect x="1625.53" y="2058.378" width="108.307" height="108.307" style="fill:#5c5864;" /><rect x="1950.451" y="2058.378" width="108.307" height="324.92" /><rect x="1083.996" y="2166.684" width="108.307" height="866.454" style="fill:#8756e8;" /><rect x="1192.303" y="2166.684" width="108.307" height="108.307" style="fill:#7e4be7;" /><rect x="1625.53" y="2166.684" width="324.92" height="324.92" /><rect x="2275.371" y="2166.684" width="108.307" height="108.307" style="fill:#7e4be7;" /><rect x="2383.678" y="2166.684" width="108.307" height="866.454" style="fill:#8756e8;" /><rect x="1192.303" y="2274.991" width="108.307" height="758.147" style="fill:#8756e8;" /><rect x="1300.61" y="2274.991" width="108.307" height="108.307" style="fill:#7e4be7;" /><rect x="2167.064" y="2274.991" width="108.307" height="108.307" style="fill:#7e4be7;" /><rect x="2275.371" y="2274.991" width="108.307" height="758.147" style="fill:#8756e8;" /><rect x="325.849" y="2383.298" width="108.307" height="324.92" style="fill:#5125aa;" /><rect x="434.156" y="2383.298" width="541.534" height="216.614" style="fill:#8756e8;" /><rect x="1300.61" y="2383.298" width="108.307" height="649.841" style="fill:#8756e8;" /><rect x="1408.917" y="2383.298" width="216.614" height="108.307" style="fill:#7e4be7;" /><rect x="1950.451" y="2383.298" width="108.307" height="108.307" style="fill:#7e4be7;" /><rect x="2058.757" y="2383.298" width="216.614" height="649.841" style="fill:#8756e8;" /><rect x="2600.291" y="2383.298" width="433.227" height="216.614" style="fill:#8756e8;" /><rect x="3033.519" y="2383.298" width="108.307" height="324.92" style="fill:#5125aa;" /><rect x="217.542" y="2491.605" width="108.307" height="324.92" style="fill:#070a0b;" /><rect x="1408.917" y="2491.605" width="216.614" height="541.534" style="fill:#8756e8;" /><rect x="1625.53" y="2491.605" width="324.92" height="108.307" style="fill:#7e4be7;" /><rect x="1950.451" y="2491.605" width="108.307" height="541.534" style="fill:#8756e8;" /><rect x="3141.825" y="2491.605" width="108.307" height="324.92" style="fill:#070a0b;" /><rect x="434.156" y="2599.911" width="108.307" height="216.614" style="fill:#5125aa;" /><rect x="542.463" y="2599.911" width="433.227" height="108.307" style="fill:#8756e8;" /><rect x="1625.53" y="2599.911" width="324.92" height="433.227" style="fill:#8756e8;" /><rect x="2600.291" y="2599.911" width="324.92" height="108.307" style="fill:#8756e8;" /><rect x="2925.212" y="2599.911" width="108.307" height="216.614" style="fill:#5125aa;" /><rect x="325.849" y="2708.218" width="108.307" height="216.614" style="fill:#070a0b;" /><rect x="542.463" y="2708.218" width="108.307" height="216.614" style="fill:#5125aa;" /><rect x="650.769" y="2708.218" width="324.92" height="108.307" style="fill:#8756e8;" /><rect x="2600.291" y="2708.218" width="216.614" height="108.307" style="fill:#8756e8;" /><rect x="2816.905" y="2708.218" width="108.307" height="216.614" style="fill:#5125aa;" /><rect x="3033.519" y="2708.218" width="108.307" height="216.614" style="fill:#070a0b;" /><rect x="434.156" y="2816.525" width="108.307" height="216.614" style="fill:#070a0b;" /><rect x="650.769" y="2816.525" width="108.307" height="216.614" style="fill:#5125aa;" /><rect x="759.076" y="2816.525" width="216.614" height="108.307" style="fill:#8756e8;" /><rect x="2600.291" y="2816.525" width="108.307" height="108.307" style="fill:#8756e8;" /><rect x="2708.598" y="2816.525" width="108.307" height="216.614" style="fill:#5125aa;" /><rect x="2925.212" y="2816.525" width="108.307" height="216.614" style="fill:#070a0b;" /><rect x="542.463" y="2924.832" width="108.307" height="216.614" style="fill:#070a0b;" /><rect x="759.076" y="2924.832" width="108.307" height="216.614" style="fill:#5125aa;" /><rect x="867.383" y="2924.832" width="108.307" height="108.307" style="fill:#8756e8;" /><rect x="2600.291" y="2924.832" width="108.307" height="216.614" style="fill:#5125aa;" /><rect x="2816.905" y="2924.832" width="108.307" height="216.614" style="fill:#070a0b;" /><rect x="650.769" y="3033.139" width="108.307" height="216.614" style="fill:#070a0b;" /><rect x="867.383" y="3033.139" width="1732.908" height="108.307" style="fill:#5125aa;" /><rect x="2708.598" y="3033.139" width="108.307" height="216.614" style="fill:#070a0b;" /><rect x="759.076" y="3141.445" width="216.614" height="108.307" style="fill:#070a0b;" /><rect x="975.69" y="3141.445" width="1516.295" height="108.307" style="fill:#1e074e;" /><rect x="2491.985" y="3141.445" width="216.614" height="108.307" style="fill:#070a0b;" /><rect x="867.383" y="3249.752" width="1732.908" height="108.307" style="fill:#070a0b;" /></svg>