<?xml version='1.0' encoding='utf-8'?>
<svg xmlns="http://www.w3.org/2000/svg" viewBox="0 0 3357.5570000000002 3357.739" width="512" height="512" version="1.1" xml:space="preserve" style="fill-rule:evenodd;clip-rule:evenodd;stroke-linejoin:round;stroke-miterlimit:2;"><rect x="866.501" y="108.535" width="1732.908" height="108.307" style="fill:#280d3c;" /><rect x="649.887" y="216.842" width="324.92" height="108.307" style="fill:#280d3c;" /><rect x="974.808" y="216.842" width="1516.295" height="108.307" style="fill:#cd7bdb;" /><rect x="2491.103" y="216.842" width="324.92" height="108.307" style="fill:#280d3c;" /><rect x="433.274" y="325.148" width="324.92" height="108.307" style="fill:#280d3c;" /><rect x="758.194" y="325.148" width="216.614" height="108.307" style="fill:#cd7bdb;" /><rect x="974.808" y="325.148" width="1732.908" height="541.534" style="fill:#a347ba;" /><rect x="2707.716" y="325.148" width="216.614" height="108.307" style="fill:#280d3c;" /><rect x="324.967" y="433.455" width="216.614" height="108.307" style="fill:#280d3c;" /><rect x="541.581" y="433.455" width="216.614" height="108.307" style="fill:#cd7bdb;" /><rect x="758.194" y="433.455" width="216.614" height="1083.068" style="fill:#a347ba;" /><rect x="2707.716" y="433.455" width="108.307" height="2382.749" style="fill:#a347ba;" /><rect x="2816.023" y="433.455" width="216.614" height="108.307" style="fill:#280d3c;" /><rect x="216.66" y="541.762" width="216.614" height="108.307" style="fill:#280d3c;" /><rect x="433.274" y="541.762" width="108.307" height="108.307" style="fill:#cd7bdb;" /><rect x="541.581" y="541.762" width="216.614" height="2382.749" style="fill:#a347ba;" /><rect x="2816.023" y="541.762" width="108.307" height="2166.136" style="fill:#a347ba;" /><rect x="2924.33" y="541.762" width="216.614" height="108.307" style="fill:#280d3c;" /><rect x="216.66" y="650.069" width="108.307" height="216.614" style="fill:#280d3c;" /><rect x="324.967" y="650.069" width="108.307" height="216.614" style="fill:#cd7bdb;" /><rect x="433.274" y="650.069" width="108.307" height="433.227" style="fill:#a347ba;" /><rect x="2924.33" y="650.069" width="108.307" height="1949.522" style="fill:#a347ba;" /><rect x="3032.637" y="650.069" width="216.614" height="108.307" style="fill:#280d3c;" /><rect x="108.353" y="758.375" width="108.307" height="108.307" style="fill:#060606;" /><rect x="3032.637" y="758.375" width="108.307" height="1624.602" style="fill:#a347ba;" /><rect x="3140.943" y="758.375" width="216.614" height="108.307" style="fill:#280d3c;" /><rect x="108.353" y="866.682" width="108.307" height="1732.908" style="fill:#280d3c;" /><rect x="216.66" y="866.682" width="108.307" height="1516.295" style="fill:#cd7bdb;" /><rect x="324.967" y="866.682" width="108.307" height="216.614" style="fill:#a347ba;" /><rect x="974.808" y="866.682" width="541.534" height="108.307" style="fill:#a347ba;" /><rect x="1516.342" y="866.682" width="433.227" height="108.307" style="fill:#57535e;" /><rect x="1949.569" y="866.682" width="108.307" height="108.307" style="fill:#3d3846;" /><rect x="2057.876" y="866.682" width="649.841" height="108.307" style="fill:#a347ba;" /><rect x="3140.943" y="866.682" width="108.307" height="1624.602" style="fill:#772b8b;" /><rect x="3249.25" y="866.682" width="108.307" height="1732.908" style="fill:#280d3c;" /><rect x="974.808" y="974.989" width="324.92" height="108.307" style="fill:#a347ba;" /><rect x="1299.728" y="974.989" width="216.614" height="108.307" style="fill:#57535e;" /><rect x="1516.342" y="974.989" width="541.534" height="216.614" style="fill:#e4e3e1;" /><rect x="2057.876" y="974.989" width="216.614" height="108.307" style="fill:#3d3846;" /><rect x="2274.489" y="974.989" width="433.227" height="108.307" style="fill:#a347ba;" /><rect x="324.967" y="1083.296" width="108.307" height="216.614" style="fill:#ddd;" /><rect x="433.274" y="1083.296" width="108.307" height="216.614" style="fill:#635c64;" /><rect x="974.808" y="1083.296" width="216.614" height="108.307" style="fill:#a347ba;" /><rect x="1191.421" y="1083.296" width="108.307" height="108.307" style="fill:#57535e;" /><rect x="1299.728" y="1083.296" width="216.614" height="1407.988" style="fill:#e4e3e1;" /><rect x="2057.876" y="1083.296" width="216.614" height="1407.988" style="fill:#e4e3e1;" /><rect x="2274.489" y="1083.296" width="108.307" height="108.307" style="fill:#3d3846;" /><rect x="2382.796" y="1083.296" width="324.92" height="108.307" style="fill:#a347ba;" /><rect x="974.808" y="1191.603" width="108.307" height="108.307" style="fill:#a347ba;" /><rect x="1083.115" y="1191.603" width="108.307" height="108.307" style="fill:#57535e;" /><rect x="1191.421" y="1191.603" width="108.307" height="1191.375" style="fill:#e4e3e1;" /><rect x="1516.342" y="1191.603" width="216.614" height="108.307" style="fill:#e4e3e1;" /><rect x="1732.955" y="1191.603" width="108.307" height="108.307" style="fill:#1f1c24;" /><rect x="1841.262" y="1191.603" width="216.614" height="108.307" style="fill:#e4e3e1;" /><rect x="2274.489" y="1191.603" width="108.307" height="1191.375" style="fill:#e4e3e1;" /><rect x="2382.796" y="1191.603" width="108.307" height="108.307" style="fill:#3d3846;" /><rect x="2491.103" y="1191.603" width="216.614" height="108.307" style="fill:#a347ba;" /><rect x="324.967" y="1299.909" width="216.614" height="758.147" style="fill:#a347ba;" /><rect x="974.808" y="1299.909" width="108.307" height="216.614" style="fill:#57535e;" /><rect x="1083.115" y="1299.909" width="108.307" height="974.761" style="fill:#e4e3e1;" /><rect x="1516.342" y="1299.909" width="108.307" height="1299.681" style="fill:#e4e3e1;" /><rect x="1624.648" y="1299.909" width="216.614" height="866.454" style="fill:#3d3846;" /><rect x="1841.262" y="1299.909" width="108.307" height="324.92" style="fill:#1f1c24;" /><rect x="1949.569" y="1299.909" width="108.307" height="1299.681" style="fill:#e4e3e1;" /><rect x="2382.796" y="1299.909" width="108.307" height="974.761" style="fill:#e4e3e1;" /><rect x="2491.103" y="1299.909" width="108.307" height="216.614" style="fill:#3d3846;" /><rect x="2599.409" y="1299.909" width="108.307" height="216.614" style="fill:#a347ba;" /><rect x="758.194" y="1516.523" width="108.307" height="1624.602" style="fill:#a347ba;" /><rect x="866.501" y="1516.523" width="108.307" height="324.92" style="fill:#57535e;" /><rect x="974.808" y="1516.523" width="108.307" height="541.534" style="fill:#e4e3e1;" /><rect x="2491.103" y="1516.523" width="108.307" height="541.534" style="fill:#e4e3e1;" /><rect x="2599.409" y="1516.523" width="108.307" height="541.534" style="fill:#1f1c24;" /><rect x="1841.262" y="1624.83" width="108.307" height="108.307" style="fill:#e4e3e1;" /><rect x="1841.262" y="1733.136" width="108.307" height="541.534" style="fill:#1f1c24;" /><rect x="866.501" y="1841.443" width="108.307" height="216.614" style="fill:#3d3846;" /><rect x="324.967" y="2058.057" width="108.307" height="216.614" style="fill:#ddd;" /><rect x="433.274" y="2058.057" width="108.307" height="216.614" style="fill:#635c64;" /><rect x="866.501" y="2058.057" width="108.307" height="1083.068" style="fill:#a347ba;" /><rect x="974.808" y="2058.057" width="108.307" height="216.614" style="fill:#3d3846;" /><rect x="2491.103" y="2058.057" width="108.307" height="216.614" style="fill:#1f1c24;" /><rect x="2599.409" y="2058.057" width="108.307" height="866.454" style="fill:#a347ba;" /><rect x="1624.648" y="2166.364" width="108.307" height="433.227" style="fill:#e4e3e1;" /><rect x="1732.955" y="2166.364" width="108.307" height="108.307" style="fill:#1f1c24;" /><rect x="324.967" y="2274.67" width="216.614" height="433.227" style="fill:#a347ba;" /><rect x="974.808" y="2274.67" width="108.307" height="866.454" style="fill:#a347ba;" /><rect x="1083.115" y="2274.67" width="108.307" height="108.307" style="fill:#3d3846;" /><rect x="1732.955" y="2274.67" width="216.614" height="324.92" style="fill:#e4e3e1;" /><rect x="2382.796" y="2274.67" width="108.307" height="108.307" style="fill:#1f1c24;" /><rect x="2491.103" y="2274.67" width="108.307" height="758.147" style="fill:#a347ba;" /><rect x="216.66" y="2382.977" width="108.307" height="108.307" style="fill:#a347ba;" /><rect x="1083.115" y="2382.977" width="108.307" height="758.147" style="fill:#a347ba;" /><rect x="1191.421" y="2382.977" width="108.307" height="108.307" style="fill:#3d3846;" /><rect x="2274.489" y="2382.977" width="108.307" height="108.307" style="fill:#1f1c24;" /><rect x="2382.796" y="2382.977" width="108.307" height="758.147" style="fill:#a347ba;" /><rect x="3032.637" y="2382.977" width="108.307" height="324.92" style="fill:#772b8b;" /><rect x="216.66" y="2491.284" width="108.307" height="324.92" style="fill:#280d3c;" /><rect x="1191.421" y="2491.284" width="108.307" height="649.841" style="fill:#a347ba;" /><rect x="1299.728" y="2491.284" width="216.614" height="108.307" style="fill:#3d3846;" /><rect x="2057.876" y="2491.284" width="216.614" height="108.307" style="fill:#1f1c24;" /><rect x="2274.489" y="2491.284" width="108.307" height="649.841" style="fill:#a347ba;" /><rect x="3140.943" y="2491.284" width="108.307" height="324.92" style="fill:#280d3c;" /><rect x="1299.728" y="2599.591" width="216.614" height="541.534" style="fill:#a347ba;" /><rect x="1516.342" y="2599.591" width="541.534" height="108.307" style="fill:#1f1c24;" /><rect x="2057.876" y="2599.591" width="216.614" height="541.534" style="fill:#a347ba;" /><rect x="2924.33" y="2599.591" width="108.307" height="216.614" style="fill:#772b8b;" /><rect x="324.967" y="2707.897" width="108.307" height="216.614" style="fill:#280d3c;" /><rect x="433.274" y="2707.897" width="108.307" height="108.307" style="fill:#a347ba;" /><rect x="1516.342" y="2707.897" width="541.534" height="433.227" style="fill:#a347ba;" /><rect x="2816.023" y="2707.897" width="108.307" height="216.614" style="fill:#772b8b;" /><rect x="3032.637" y="2707.897" width="108.307" height="216.614" style="fill:#280d3c;" /><rect x="433.274" y="2816.204" width="108.307" height="216.614" style="fill:#280d3c;" /><rect x="2707.716" y="2816.204" width="108.307" height="216.614" style="fill:#772b8b;" /><rect x="2924.33" y="2816.204" width="108.307" height="216.614" style="fill:#280d3c;" /><rect x="541.581" y="2924.511" width="108.307" height="216.614" style="fill:#280d3c;" /><rect x="649.887" y="2924.511" width="108.307" height="108.307" style="fill:#a347ba;" /><rect x="2599.409" y="2924.511" width="108.307" height="216.614" style="fill:#772b8b;" /><rect x="2816.023" y="2924.511" width="108.307" height="216.614" style="fill:#280d3c;" /><rect x="649.887" y="3032.818" width="108.307" height="216.614" style="fill:#280d3c;" /><rect x="2491.103" y="3032.818" width="108.307" height="216.614" style="fill:#772b8b;" /><rect x="2707.716" y="3032.818" width="108.307" height="216.614" style="fill:#280d3c;" /><rect x="758.194" y="3141.125" width="216.614" height="108.307" style="fill:#280d3c;" /><rect x="974.808" y="3141.125" width="1516.295" height="108.307" style="fill:#772b8b;" /><rect x="2599.409" y="3141.125" width="108.307" height="216.614" style="fill:#280d3c;" /><rect x="866.501" y="3249.431" width="1732.908" height="108.307" style="fill:#280d3c;" /></svg>