<?xml version="1.0" encoding="UTF-8" ?>
<svg version="1.1" width="16384" height="16384" xmlns="http://www.w3.org/2000/svg" shape-rendering="crispEdges">
<rect x="4096" y="512" width="8192" height="512" fill="#1B1B1B" />
<rect x="3072" y="1024" width="1536" height="512" fill="#1B1B1B" />
<rect x="4608" y="1024" width="8704" height="2048" fill="#111111" />
<rect x="2048" y="1536" width="1536" height="512" fill="#1B1B1B" />
<rect x="3584" y="1536" width="1024" height="5632" fill="#111111" />
<rect x="13312" y="1536" width="512" height="12288" fill="#111111" />
<rect x="1536" y="2048" width="1024" height="512" fill="#1B1B1B" />
<rect x="2560" y="2048" width="1024" height="5120" fill="#111111" />
<rect x="13824" y="2048" width="512" height="5632" fill="#111111" />
<rect x="1024" y="2560" width="1024" height="512" fill="#1B1B1B" />
<rect x="2048" y="2560" width="512" height="5120" fill="#111111" />
<rect x="14336" y="2560" width="512" height="5120" fill="#111111" />
<rect x="1024" y="3072" width="512" height="1024" fill="#1B1B1B" />
<rect x="1536" y="3072" width="512" height="4608" fill="#111111" />
<rect x="4608" y="3072" width="3072" height="1536" fill="#111111" />
<rect x="7680" y="3072" width="3072" height="512" fill="#FFFFFF" />
<rect x="10752" y="3072" width="2560" height="1536" fill="#111111" />
<rect x="14848" y="3072" width="512" height="8704" fill="#111111" />
<rect x="512" y="3584" width="512" height="8704" fill="#1B1B1B" />
<rect x="7680" y="3584" width="1024" height="9728" fill="#FFFFFF" />
<rect x="8704" y="3584" width="2048" height="1024" fill="#111111" />
<rect x="1024" y="4096" width="512" height="9216" fill="#111111" />
<rect x="15360" y="4096" width="512" height="8192" fill="#000000" />
<rect x="4608" y="4608" width="1536" height="1024" fill="#111111" />
<rect x="6144" y="4608" width="1024" height="7168" fill="#FFFFFF" />
<rect x="7168" y="4608" width="512" height="8192" fill="#111111" />
<rect x="8704" y="4608" width="512" height="10752" fill="#111111" />
<rect x="9216" y="4608" width="2560" height="512" fill="#FFFFFF" />
<rect x="11776" y="4608" width="1536" height="1024" fill="#111111" />
<rect x="9216" y="5120" width="1024" height="6144" fill="#FFFFFF" />
<rect x="10240" y="5120" width="1536" height="512" fill="#111111" />
<rect x="4608" y="5632" width="1024" height="4608" fill="#FFFFFF" />
<rect x="5632" y="5632" width="512" height="5632" fill="#111111" />
<rect x="10240" y="5632" width="512" height="9728" fill="#111111" />
<rect x="10752" y="5632" width="2560" height="512" fill="#FFFFFF" />
<rect x="10752" y="6144" width="1024" height="4096" fill="#FFFFFF" />
<rect x="11776" y="6144" width="1536" height="1024" fill="#111111" />
<rect x="2560" y="7168" width="512" height="7680" fill="#111111" />
<rect x="3072" y="7168" width="1024" height="1536" fill="#FFFFFF" />
<rect x="4096" y="7168" width="512" height="2560" fill="#111111" />
<rect x="11776" y="7168" width="512" height="7680" fill="#111111" />
<rect x="12288" y="7168" width="1024" height="1536" fill="#FFFFFF" />
<rect x="1536" y="7680" width="1024" height="512" fill="#FFFFFF" />
<rect x="13824" y="7680" width="1024" height="512" fill="#FFFFFF" />
<rect x="1536" y="8192" width="1024" height="5632" fill="#111111" />
<rect x="13824" y="8192" width="1024" height="4608" fill="#111111" />
<rect x="3072" y="8704" width="1024" height="1024" fill="#111111" />
<rect x="12288" y="8704" width="1024" height="5632" fill="#111111" />
<rect x="3072" y="9728" width="512" height="5632" fill="#111111" />
<rect x="3584" y="9728" width="1024" height="512" fill="#FFFFFF" />
<rect x="3584" y="10240" width="2048" height="1024" fill="#111111" />
<rect x="10752" y="10240" width="1024" height="5120" fill="#111111" />
<rect x="3584" y="11264" width="1536" height="4096" fill="#111111" />
<rect x="5120" y="11264" width="1024" height="512" fill="#FFFFFF" />
<rect x="9216" y="11264" width="1024" height="4096" fill="#111111" />
<rect x="5120" y="11776" width="2048" height="1024" fill="#111111" />
<rect x="14848" y="11776" width="512" height="1536" fill="#000000" />
<rect x="5120" y="12800" width="1024" height="2560" fill="#111111" />
<rect x="6144" y="12800" width="1536" height="512" fill="#FFFFFF" />
<rect x="13824" y="12800" width="512" height="512" fill="#111111" />
<rect x="14336" y="12800" width="512" height="1024" fill="#000000" />
<rect x="6144" y="13312" width="2560" height="2048" fill="#111111" />
<rect x="13824" y="13312" width="512" height="1024" fill="#000000" />
<rect x="2048" y="13824" width="512" height="512" fill="#111111" />
<rect x="13312" y="13824" width="512" height="1024" fill="#000000" />
<rect x="12288" y="14336" width="512" height="512" fill="#111111" />
<rect x="12800" y="14336" width="512" height="1024" fill="#000000" />
<rect x="11776" y="14848" width="1024" height="512" fill="#000000" />
<rect x="4096" y="15360" width="8192" height="512" fill="#000000" />
</svg>