<svg width="22" height="22" viewBox="0 0 22 22" fill="currentColor" xmlns="http://www.w3.org/2000/svg">
<defs id="defs3051"><style type="text/css" id="current-color-scheme">.ColorScheme-Text { color: #232629; }</style></defs>
<path d="M10.1523 3.35449C10.5441 2.72855 11.4558 2.72855 11.8476 3.35449L14.1484 7.03027C14.2856 7.2495 14.502 7.4079 14.7529 7.4707L18.9599 8.52246C19.6763 8.7016 19.9586 9.56873 19.4843 10.1348L16.6992 13.459C16.5331 13.6572 16.4499 13.9119 16.4677 14.1699L16.7675 18.4961C16.8185 19.2328 16.0804 19.7684 15.3955 19.4922L11.374 17.8711C11.134 17.7743 10.8659 17.7743 10.6259 17.8711L6.60445 19.4922L6.47554 19.5352C5.83027 19.7013 5.18457 19.1868 5.23238 18.4961L5.53218 14.1699C5.54783 13.944 5.48633 13.7204 5.35933 13.5352L5.30074 13.459L2.51558 10.1348C2.04128 9.56873 2.32357 8.7016 3.04 8.52246L7.24703 7.4707C7.49789 7.4079 7.71433 7.2495 7.85152 7.03027L10.1523 3.35449ZM9.03804 7.77344C8.70865 8.2996 8.18812 8.67754 7.5859 8.82812L3.99898 9.72461L6.37398 12.5596C6.77268 13.0354 6.97156 13.6472 6.92867 14.2666L6.67281 17.9551L10.1025 16.5723L10.3212 16.4961C10.838 16.3437 11.3936 16.3691 11.8974 16.5723L15.3261 17.9551L15.0712 14.2666C15.0284 13.6473 15.2272 13.0355 15.6259 12.5596L18 9.72461L14.414 8.82812C13.8118 8.67754 13.2913 8.2996 12.9619 7.77344L11 4.63867L9.03804 7.77344Z" class="ColorScheme-Text" fill="currentColor"/>
</svg>
