<svg width="22" height="22" viewBox="0 0 22 22" fill="currentColor" xmlns="http://www.w3.org/2000/svg">
<defs id="defs3051"><style type="text/css" id="current-color-scheme">.ColorScheme-Text { color: #232629; }</style></defs>
<path d="M19 9.2998V7C19 5.89543 18.1046 5 17 5H15.0312L14.9014 4.99609C14.5985 4.97641 14.3036 4.88747 14.0391 4.73633L11.4609 3.26367C11.1588 3.09102 10.8168 3 10.4688 3H5C3.89543 3 3 3.89543 3 5V12.2998V13.7002V16C3 17.1046 3.89543 18 5 18H17C18.1046 18 19 17.1046 19 16V10.7002V9.2998ZM17.5996 7V9.2998H11.7402C11.0957 9.2998 10.4718 9.53075 9.98242 9.9502L7.60645 11.9873C7.37083 12.1893 7.07009 12.2998 6.75977 12.2998H4.40039V5C4.40039 4.66863 4.66863 4.40039 5 4.40039H10.4688C10.5732 4.40039 10.6759 4.42769 10.7666 4.47949L13.3447 5.95215C13.8584 6.24556 14.4397 6.40039 15.0312 6.40039H17C17.3314 6.40039 17.5996 6.66863 17.5996 7ZM17.5996 10.7002V16C17.5996 16.3314 17.3314 16.5996 17 16.5996H5C4.66863 16.5996 4.40039 16.3314 4.40039 16V13.7002H6.75977C7.40429 13.7002 8.02822 13.4693 8.51758 13.0498L10.8936 11.0127C11.1292 10.8107 11.4299 10.7002 11.7402 10.7002H17.5996Z" class="ColorScheme-Text" fill="currentColor"/>
</svg>
