<svg width="22" height="22" viewBox="0 0 22 22" fill="currentColor" xmlns="http://www.w3.org/2000/svg">
<defs id="defs3051"><style type="text/css" id="current-color-scheme">.ColorScheme-Text { color: #232629; }</style></defs>
<path d="M18.5996 11C18.5996 6.80264 15.1974 3.40039 11 3.40039C6.80264 3.40039 3.40039 6.80264 3.40039 11C3.40039 15.1974 6.80264 18.5996 11 18.5996V20C6.02944 20 2 15.9706 2 11C2 6.02944 6.02944 2 11 2C15.9706 2 20 6.02944 20 11C20 15.9706 15.9706 20 11 20V18.5996C15.1974 18.5996 18.5996 15.1974 18.5996 11Z" class="ColorScheme-Text" fill="currentColor"/>
<path d="M17.2998 6C17.2998 6.12242 17.2393 6.30359 16.9395 6.53906C16.6359 6.77736 16.1611 7.00669 15.5332 7.20312C14.2843 7.59378 12.6092 7.7998 11 7.7998C9.39082 7.7998 7.71572 7.59378 6.4668 7.20312C5.8389 7.00669 5.36412 6.77736 5.06055 6.53906C4.76068 6.30359 4.7002 6.12242 4.7002 6H3.2998C3.2998 6.70601 3.70045 7.25202 4.19531 7.64062C4.68647 8.02627 5.3412 8.31769 6.04883 8.53906C7.47139 8.98405 9.29576 9.2002 11 9.2002C12.7042 9.2002 14.5286 8.98405 15.9512 8.53906C16.6588 8.31769 17.3135 8.02627 17.8047 7.64062C18.2996 7.25202 18.7002 6.70601 18.7002 6H17.2998Z" class="ColorScheme-Text" fill="currentColor"/>
<path d="M17.2998 15.5C17.2998 15.3776 17.2393 15.1964 16.9395 14.9609C16.6359 14.7226 16.1611 14.4933 15.5332 14.2969C14.2843 13.9062 12.6092 13.7002 11 13.7002C9.39082 13.7002 7.71572 13.9062 6.4668 14.2969C5.8389 14.4933 5.36412 14.7226 5.06055 14.9609C4.76068 15.1964 4.7002 15.3776 4.7002 15.5H3.2998C3.2998 14.794 3.70045 14.248 4.19531 13.8594C4.68647 13.4737 5.3412 13.1823 6.04883 12.9609C7.47139 12.516 9.29576 12.2998 11 12.2998C12.7042 12.2998 14.5286 12.516 15.9512 12.9609C16.6588 13.1823 17.3135 13.4737 17.8047 13.8594C18.2996 14.248 18.7002 14.794 18.7002 15.5H17.2998Z" class="ColorScheme-Text" fill="currentColor"/>
<path d="M8.2998 11.2422C8.29983 8.48666 8.81663 6.34615 9.34082 4.88477C9.60277 4.15448 9.86691 3.59448 10.0684 3.21191C10.1691 3.02061 10.2536 2.87315 10.3154 2.77148C10.3463 2.72076 10.3715 2.6814 10.3896 2.65332C10.3987 2.6394 10.4066 2.62842 10.4121 2.62012C10.4149 2.61596 10.4171 2.6121 10.4189 2.60937C10.4199 2.60801 10.4212 2.60647 10.4219 2.60547L10.4229 2.60449V2.60352C10.6418 2.28501 11.0779 2.20401 11.3965 2.42285C11.7151 2.64187 11.7952 3.07889 11.5762 3.39746C11.5741 3.40054 11.5708 3.40672 11.5654 3.41504C11.5544 3.43214 11.5364 3.4601 11.5127 3.49902C11.4651 3.57728 11.3934 3.6995 11.3066 3.86426C11.1331 4.19378 10.8971 4.69409 10.6592 5.35742C10.1834 6.68384 9.70022 8.66461 9.7002 11.2422C9.7002 13.8189 10.1826 15.6719 10.6514 16.8652C10.8861 17.4627 11.1187 17.8969 11.2871 18.1758C11.3713 18.3153 11.4396 18.4167 11.4844 18.4795C11.5065 18.5105 11.5226 18.5324 11.5322 18.5449C11.537 18.5512 11.5407 18.555 11.542 18.5566V18.5576C11.7854 18.8558 11.7426 19.2948 11.4453 19.54C11.1843 19.7553 10.8139 19.7496 10.5605 19.5449L10.46 19.4453L10.459 19.4443L10.458 19.4424C10.4572 19.4414 10.456 19.4406 10.4551 19.4395C10.4529 19.4367 10.4504 19.4327 10.4473 19.4287C10.441 19.4209 10.4325 19.411 10.4229 19.3984C10.4032 19.3729 10.3761 19.3373 10.3438 19.292C10.2791 19.2014 10.1912 19.0705 10.0879 18.8994C9.88129 18.5571 9.61381 18.0519 9.34863 17.377C8.81746 16.0248 8.2998 13.9986 8.2998 11.2422Z" class="ColorScheme-Text" fill="currentColor"/>
<path d="M13.7002 11.2422C13.7002 8.48666 13.1834 6.34615 12.6592 4.88477C12.3972 4.15448 12.1331 3.59448 11.9316 3.21191C11.8309 3.02061 11.7464 2.87315 11.6846 2.77148C11.6537 2.72076 11.6285 2.6814 11.6104 2.65332C11.6013 2.6394 11.5934 2.62842 11.5879 2.62012C11.5851 2.61596 11.5829 2.6121 11.5811 2.60937C11.5801 2.60801 11.5788 2.60647 11.5781 2.60547L11.5771 2.60449V2.60352C11.3582 2.28501 10.9221 2.20401 10.6035 2.42285C10.2849 2.64187 10.2048 3.07889 10.4238 3.39746C10.4259 3.40054 10.4292 3.40672 10.4346 3.41504C10.4456 3.43214 10.4636 3.4601 10.4873 3.49902C10.5349 3.57728 10.6066 3.6995 10.6934 3.86426C10.8669 4.19378 11.1029 4.69409 11.3408 5.35742C11.8166 6.68384 12.2998 8.66461 12.2998 11.2422C12.2998 13.8189 11.8174 15.6719 11.3486 16.8652C11.1139 17.4627 10.8813 17.8969 10.7129 18.1758C10.6287 18.3153 10.5604 18.4167 10.5156 18.4795C10.4935 18.5105 10.4774 18.5324 10.4678 18.5449C10.463 18.5512 10.4593 18.555 10.458 18.5566V18.5576C10.2146 18.8558 10.2574 19.2948 10.5547 19.54C10.8157 19.7553 11.1861 19.7496 11.4395 19.5449L11.54 19.4453L11.541 19.4443L11.542 19.4424C11.5428 19.4414 11.544 19.4406 11.5449 19.4395C11.5471 19.4367 11.5496 19.4327 11.5527 19.4287C11.559 19.4209 11.5675 19.411 11.5771 19.3984C11.5968 19.3729 11.6239 19.3373 11.6562 19.292C11.7209 19.2014 11.8088 19.0705 11.9121 18.8994C12.1187 18.5571 12.3862 18.0519 12.6514 17.377C13.1825 16.0248 13.7002 13.9986 13.7002 11.2422Z" class="ColorScheme-Text" fill="currentColor"/>
</svg>
