<svg width="22" height="22" viewBox="0 0 22 22" fill="currentColor" xmlns="http://www.w3.org/2000/svg">
<defs id="defs3051"><style type="text/css" id="current-color-scheme">.ColorScheme-Text { color: #232629; }</style></defs>
<path d="M5.42969 16.8906L9.67578 13.252L9.875 13.0967C10.8297 12.4247 12.1193 12.465 13.0303 13.1953L13.2197 13.3623L16.5703 16.6172V4.42969H5.42969V16.8906ZM18 17.1611C18 18.1556 16.8793 18.6914 16.1123 18.1455L15.9639 18.0225L12.2227 14.3877C11.7777 13.9559 11.0773 13.9345 10.6064 14.3379L5.98047 18.3018C5.20206 18.9688 4 18.4158 4 17.3906V4.2002C4 3.57892 4.4721 3.06737 5.07715 3.00586L5.2002 3H16.7998C17.4625 3 18 3.53745 18 4.2002V17.1611Z" class="ColorScheme-Text" fill="currentColor"/>
</svg>
