<svg width="22" height="22" viewBox="0 0 22 22" fill="currentColor" xmlns="http://www.w3.org/2000/svg">
<defs id="defs3051"><style type="text/css" id="current-color-scheme">.ColorScheme-Text { color: #232629; }</style></defs>
<path d="M12.1002 17.7504C12.0998 18.1368 11.7861 18.4494 11.3996 18.4492C11.0132 18.449 10.6998 18.136 10.6999 17.7496L10.7071 4.9996C10.7073 4.613 11.0211 4.29958 11.4077 4.2998C11.7943 4.30002 12.1077 4.6138 12.1075 5.0004L12.1002 17.7504Z" class="ColorScheme-Text" fill="currentColor"/>
<path d="M8.90015 16C8.90015 16.3866 8.58655 16.7002 8.19996 16.7002C7.81336 16.7002 7.49976 16.3866 7.49976 16L7.49976 7C7.49976 6.6134 7.81335 6.29981 8.19995 6.2998C8.58655 6.2998 8.90015 6.6134 8.90015 7L8.90015 16Z" class="ColorScheme-Text" fill="currentColor"/>
<path d="M15.3074 14.7676C15.3072 15.1541 14.9937 15.4678 14.6072 15.4678C14.2207 15.4678 13.9071 15.1541 13.907 14.7676V7C13.907 6.6134 14.2206 6.2998 14.6072 6.2998C14.9938 6.2998 15.3074 6.6134 15.3074 7V14.7676Z" class="ColorScheme-Text" fill="currentColor"/>
<path d="M5.7002 13C5.7002 13.3866 5.3866 13.7002 5 13.7002C4.6134 13.7002 4.2998 13.3866 4.2998 13V10C4.2998 9.6134 4.6134 9.2998 5 9.2998C5.3866 9.2998 5.7002 9.6134 5.7002 10V13Z" class="ColorScheme-Text" fill="currentColor"/>
<path d="M18.5076 14C18.5076 14.3866 18.194 14.7002 17.8074 14.7002C17.4208 14.7002 17.1072 14.3866 17.1072 14V9C17.1072 8.6134 17.4208 8.2998 17.8074 8.2998C18.194 8.2998 18.5076 8.6134 18.5076 9V14Z" class="ColorScheme-Text" fill="currentColor"/>
</svg>
