<svg width="22" height="22" viewBox="0 0 22 22" fill="currentColor" xmlns="http://www.w3.org/2000/svg">
<defs id="defs3051"><style type="text/css" id="current-color-scheme">.ColorScheme-Text { color: #232629; }</style></defs>
<path d="M17 17.5996V19H5V17.5996H17ZM17.5996 17V5C17.5996 4.66863 17.3314 4.40039 17 4.40039H5C4.66863 4.40039 4.40039 4.66863 4.40039 5V17C4.40039 17.3314 4.66863 17.5996 5 17.5996V19C3.89543 19 3 18.1046 3 17V5C3 3.89543 3.89543 3 5 3H17C18.1046 3 19 3.89543 19 5V17C19 18.1046 18.1046 19 17 19V17.5996C17.3314 17.5996 17.5996 17.3314 17.5996 17Z" class="ColorScheme-Text" fill="currentColor"/>
<path d="M5.59033 10.0495C6.33761 9.12167 7.72277 9.04188 8.57178 9.87762L10.4302 11.7077C11.1809 12.4468 12.4165 12.3314 13.0181 11.4665C14.0355 10.0037 16.1533 9.87593 17.3394 11.2057L18.9185 12.9763L18.396 13.4431L17.8735 13.9089L16.2944 12.1374C15.7107 11.483 14.6682 11.5463 14.1675 12.2663C13.0704 13.8434 10.8178 14.0526 9.44873 12.7048L7.58936 10.8757C7.33065 10.621 6.90902 10.6449 6.68115 10.9274L4.14893 14.071L3.604 13.6325L3.05908 13.1931L5.59033 10.0495Z" class="ColorScheme-Text" fill="currentColor"/>
<path d="M15.6362 7.39957C15.6362 8.228 14.9647 8.89957 14.1362 8.89957C13.3078 8.89957 12.6362 8.228 12.6362 7.39957C12.6362 6.57115 13.3078 5.89957 14.1362 5.89957C14.9647 5.89957 15.6362 6.57115 15.6362 7.39957Z" class="ColorScheme-Text" fill="currentColor"/>
</svg>
