<svg width="22" height="22" viewBox="0 0 22 22" fill="currentColor" xmlns="http://www.w3.org/2000/svg">
<defs id="defs3051"><style type="text/css" id="current-color-scheme">.ColorScheme-Text { color: #232629; }</style></defs>
<path d="M17 17.5996V19H5V17.5996H17ZM17.5996 17V5C17.5996 4.66863 17.3314 4.40039 17 4.40039H5C4.66863 4.40039 4.40039 4.66863 4.40039 5V17C4.40039 17.3314 4.66863 17.5996 5 17.5996V19C3.89543 19 3 18.1046 3 17V5C3 3.89543 3.89543 3 5 3H17C18.1046 3 19 3.89543 19 5V17C19 18.1046 18.1046 19 17 19V17.5996C17.3314 17.5996 17.5996 17.3314 17.5996 17Z" class="ColorScheme-Text" fill="currentColor"/>
<path d="M7.40039 8.59961H8.59961V7.40039H7.40039V8.59961ZM10 9L9.99512 9.10254C9.94379 9.60667 9.51768 10 9 10H7C6.44772 10 6 9.55228 6 9V7C6 6.44772 6.44772 6 7 6H9L9.10254 6.00488C9.60667 6.05621 10 6.48232 10 7V9Z" class="ColorScheme-Text" fill="currentColor"/>
<path d="M13.4004 8.59961H14.5996V7.40039H13.4004V8.59961ZM16 9L15.9951 9.10254C15.9438 9.60667 15.5177 10 15 10H13C12.4477 10 12 9.55228 12 9V7C12 6.44772 12.4477 6 13 6H15L15.1025 6.00488C15.6067 6.05621 16 6.48232 16 7V9Z" class="ColorScheme-Text" fill="currentColor"/>
</svg>
