<svg width="22" height="22" viewBox="0 0 22 22" fill="currentColor" xmlns="http://www.w3.org/2000/svg">
<defs id="defs3051"><style type="text/css" id="current-color-scheme">.ColorScheme-Text { color: #232629; }</style></defs>
<path d="M17 17.5996V19H5V17.5996H17ZM17.5996 17V13C17.5996 12.6686 17.3314 12.4004 17 12.4004H13C11.1222 12.4004 9.59961 10.8778 9.59961 9V5C9.59961 4.66863 9.33137 4.40039 9 4.40039H5C4.66863 4.40039 4.40039 4.66863 4.40039 5V17C4.40039 17.3314 4.66863 17.5996 5 17.5996V19C3.89543 19 3 18.1046 3 17V5C3 3.89543 3.89543 3 5 3H9L9.2041 3.01074C10.2128 3.113 11 3.96435 11 5V9L11.0107 9.2041C11.113 10.2128 11.9643 11 13 11H17C18.1046 11 19 11.8954 19 13V17C19 18.1046 18.1046 19 17 19V17.5996C17.3314 17.5996 17.5996 17.3314 17.5996 17Z" class="ColorScheme-Text" fill="currentColor"/>
<path d="M17.2998 9V5.5C17.2998 4.78203 16.718 4.2002 16 4.2002H13C12.6134 4.2002 12.2998 3.8866 12.2998 3.5C12.2998 3.1134 12.6134 2.7998 13 2.7998H16C17.4912 2.7998 18.7002 4.00883 18.7002 5.5V9C18.7002 9.3866 18.3866 9.7002 18 9.7002C17.6134 9.7002 17.2998 9.3866 17.2998 9Z" class="ColorScheme-Text" fill="currentColor"/>
</svg>
