<svg width="22" height="22" viewBox="0 0 22 22" fill="currentColor" xmlns="http://www.w3.org/2000/svg">
<defs id="defs3051"><style type="text/css" id="current-color-scheme">.ColorScheme-Text { color: #232629; }</style></defs>
<path d="M17 17.5996V19H5V17.5996H17ZM17.5996 17V5C17.5996 4.66863 17.3314 4.40039 17 4.40039H5C4.66863 4.40039 4.40039 4.66863 4.40039 5V17C4.40039 17.3314 4.66863 17.5996 5 17.5996V19C3.89543 19 3 18.1046 3 17V5C3 3.89543 3.89543 3 5 3H17C18.1046 3 19 3.89543 19 5V17C19 18.1046 18.1046 19 17 19V17.5996C17.3314 17.5996 17.5996 17.3314 17.5996 17Z" class="ColorScheme-Text" fill="currentColor"/>
<rect x="6" y="6" width="4.44618" height="4.44618" rx="0.2" class="ColorScheme-Text" fill="currentColor"/>
<rect x="11.5576" y="6" width="4.44618" height="4.44618" rx="0.2" class="ColorScheme-Text" fill="currentColor"/>
<rect x="11.5576" y="11.5577" width="4.44618" height="4.44618" rx="0.2" class="ColorScheme-Text" fill="currentColor"/>
<rect x="6" y="11.5577" width="4.44618" height="4.44618" rx="0.2" class="ColorScheme-Text" fill="currentColor"/>
</svg>
