<svg width="22" height="22" viewBox="0 0 22 22" fill="currentColor" xmlns="http://www.w3.org/2000/svg">
<defs id="defs3051"><style type="text/css" id="current-color-scheme">.ColorScheme-Text { color: #232629; }</style></defs>
<path d="M17.1111 13.8549C17.118 13.8472 17.1301 13.8338 17.1462 13.8145C17.1787 13.7756 17.2281 13.7142 17.2876 13.6317C17.4071 13.466 17.5649 13.219 17.7107 12.9056C18.0025 12.2789 18.2376 11.4039 18.0419 10.3692C17.847 9.33942 17.3243 8.67412 16.8509 8.26088C16.6122 8.0526 16.3863 7.90882 16.2236 7.81901C16.1429 7.77447 16.0789 7.7435 16.0378 7.72495C16.0174 7.71571 16.0024 7.70952 15.9946 7.7063L15.9925 7.7057C15.6303 7.5704 15.4461 7.16663 15.5814 6.80449C15.7167 6.44234 16.1205 6.25815 16.4826 6.39346L16.237 7.04919C16.4616 6.4479 16.481 6.39843 16.4828 6.39442L16.4838 6.39424L16.4849 6.39502C16.486 6.39543 16.4878 6.3957 16.4891 6.39621C16.4918 6.39722 16.4953 6.39894 16.4988 6.40033C16.506 6.40315 16.515 6.40675 16.5257 6.41115C16.5479 6.42024 16.5775 6.433 16.6134 6.44922C16.6853 6.4817 16.7835 6.52931 16.9002 6.59374C17.133 6.72228 17.4444 6.92078 17.7714 7.20613C18.4291 7.78017 19.153 8.70894 19.4179 10.1089C19.6819 11.5042 19.3602 12.6802 18.9804 13.4963C18.7905 13.9041 18.5844 14.2271 18.4234 14.4505C18.3428 14.5623 18.2721 14.6495 18.2204 14.7115C18.1945 14.7425 18.1728 14.7672 18.1568 14.7852C18.1488 14.7942 18.1424 14.8021 18.1372 14.8077C18.1347 14.8105 18.1325 14.813 18.1306 14.815C18.1297 14.8159 18.1288 14.8167 18.1281 14.8174L18.1273 14.8186C18.1272 14.8187 18.1264 14.8195 17.8496 14.559L18.1266 14.8197C17.8615 15.1012 17.4177 15.1141 17.1362 14.849C16.8555 14.5842 16.8422 14.1422 17.1063 13.8608C17.1074 13.8596 17.109 13.8574 17.1111 13.8549Z" class="ColorScheme-Text" fill="currentColor"/>
<path d="M12.9589 3.55566C13.2042 3.25694 13.6455 3.21363 13.9442 3.45898C14.2429 3.70436 14.2862 4.1456 14.0409 4.44433L3.88367 16.8096C3.72292 17.0053 3.86195 17.2996 4.11512 17.2998H16.9999C17.3865 17.2998 17.7001 17.6134 17.7001 18C17.7001 18.3866 17.3865 18.7002 16.9999 18.7002H4.11512C2.67963 18.7 1.89047 17.0302 2.80164 15.9209L12.9589 3.55566Z" class="ColorScheme-Text" fill="currentColor"/>
</svg>
