<svg width="22" height="22" viewBox="0 0 22 22" fill="currentColor" xmlns="http://www.w3.org/2000/svg">
<defs id="defs3051"><style type="text/css" id="current-color-scheme">.ColorScheme-Text { color: #232629; }</style></defs>
<path d="M12.6262 17.5048V16.2099C12.6262 15.8233 12.9398 15.5097 13.3264 15.5097C13.713 15.5097 14.0266 15.8233 14.0266 16.2099V17.5048C14.0266 17.6317 14.1392 17.7733 14.3264 17.7733H17.3264C17.5137 17.7733 17.6262 17.6317 17.6262 17.5048V9.75967C17.626 9.63261 17.5132 9.49209 17.3264 9.49209H14.384C14.3505 9.5221 14.2986 9.58114 14.2415 9.67959C14.115 9.89739 14.0373 10.1667 14.0237 10.3241C13.956 11.1108 13.8759 11.7844 13.7454 12.3437C13.6147 12.9032 13.4214 13.4032 13.092 13.8056C12.4009 14.6497 11.3253 14.8163 10.0002 14.8163C9.12337 14.8163 8.28265 14.421 7.56079 13.9247C6.82886 13.4215 6.14572 12.7638 5.5686 12.1278C5.17312 11.692 4.82071 11.2567 4.52661 10.8739V17.5048C4.52661 17.6317 4.63918 17.7733 4.82642 17.7733H9.00024C9.18734 17.7732 9.30005 17.6316 9.30005 17.5048V17.2235C9.30025 16.8371 9.61377 16.5243 10.0002 16.5243C10.3866 16.5244 10.7002 16.8372 10.7004 17.2235V17.5048C10.7004 18.4472 9.91747 19.1726 9.00024 19.1728H4.82642C3.90909 19.1728 3.12622 18.4473 3.12622 17.5048V9.75967C3.12641 8.81735 3.9092 8.0917 4.82642 8.0917H8.74243C9.18171 8.09177 9.63565 8.2567 9.98462 8.50576C10.3226 8.74703 10.7003 9.17355 10.7004 9.75967V13.3895C11.4862 13.3286 11.8133 13.158 12.009 12.9188C12.1482 12.7488 12.2757 12.4808 12.3821 12.0253C12.4885 11.5695 12.5625 10.9804 12.6292 10.205C12.6614 9.82967 12.8071 9.36249 13.0305 8.97744C13.225 8.64248 13.644 8.09192 14.3254 8.0917H17.3264C18.2439 8.0917 19.0264 8.81763 19.0266 9.75967V17.5048C19.0266 18.4473 18.2437 19.1728 17.3264 19.1728H14.3264C13.4091 19.1728 12.6262 18.4473 12.6262 17.5048ZM5.28833 9.55654C5.61271 10.0039 6.07011 10.5972 6.60571 11.1874C7.1441 11.7807 7.74475 12.3527 8.35376 12.7714C8.68809 13.0012 9.00585 13.1687 9.30005 13.2763V9.77627C9.2947 9.76413 9.26941 9.71556 9.17114 9.64541C9.02949 9.54434 8.85527 9.49218 8.74243 9.49209H5.24341C5.25837 9.51289 5.27273 9.53502 5.28833 9.55654Z" class="ColorScheme-Text" fill="currentColor"/>
<path d="M16.926 4.89285C16.9258 4.37194 16.4769 3.87337 15.8264 3.87337C15.1759 3.87337 14.727 4.37194 14.7268 4.89285C14.7268 5.4139 15.1758 5.91331 15.8264 5.91331V7.31363L15.5706 7.30094C14.31 7.17689 13.3264 6.14586 13.3264 4.89285C13.3266 3.5564 14.4458 2.47305 15.8264 2.47305C17.207 2.47305 18.3262 3.5564 18.3264 4.89285C18.3264 6.22948 17.2071 7.31363 15.8264 7.31363V5.91331C16.477 5.91331 16.926 5.4139 16.926 4.89285Z" class="ColorScheme-Text" fill="currentColor"/>
<path d="M7.27344 4.89285C7.27323 4.37194 6.8243 3.87337 6.17383 3.87337C5.52336 3.87337 5.07443 4.37194 5.07422 4.89285C5.07422 5.4139 5.52321 5.91331 6.17383 5.91331V7.31363L5.91797 7.30094C4.65744 7.17689 3.67383 6.14586 3.67383 4.89285C3.67403 3.5564 4.79324 2.47305 6.17383 2.47305C7.55441 2.47305 8.67362 3.5564 8.67383 4.89285C8.67383 6.22948 7.55454 7.31363 6.17383 7.31363V5.91331C6.82445 5.91331 7.27344 5.4139 7.27344 4.89285Z" class="ColorScheme-Text" fill="currentColor"/>
</svg>
