<svg width="22" height="22" viewBox="0 0 22 22" fill="currentColor" xmlns="http://www.w3.org/2000/svg">
<defs id="defs3051"><style type="text/css" id="current-color-scheme">.ColorScheme-Text { color: #232629; }</style></defs>
<path d="M10.2998 3.5C10.2998 3.1134 10.6133 2.7998 10.9999 2.7998C11.3865 2.7998 11.7001 3.1134 11.7001 3.5V12.3096L14.5048 9.50488C14.7782 9.23152 15.2217 9.23152 15.4951 9.50488C15.7684 9.77825 15.7684 10.2218 15.4951 10.4951L11.4951 14.4951C11.2217 14.7685 10.7782 14.7685 10.5048 14.4951L6.50483 10.4951C6.23146 10.2218 6.23146 9.77825 6.50483 9.50488C6.7782 9.23152 7.2217 9.23152 7.49506 9.50488L10.2998 12.3096V3.5Z" class="ColorScheme-Text" fill="currentColor"/>
<path d="M3.2998 16V14C3.2998 13.6134 3.6134 13.2998 4 13.2998C4.3866 13.2998 4.7002 13.6134 4.7002 14V16C4.7002 16.718 5.28203 17.2998 6 17.2998H16C16.718 17.2998 17.2998 16.718 17.2998 16V14C17.2998 13.6134 17.6134 13.2998 18 13.2998C18.3866 13.2998 18.7002 13.6134 18.7002 14V16C18.7002 17.4912 17.4912 18.7002 16 18.7002H6C4.50883 18.7002 3.2998 17.4912 3.2998 16Z" class="ColorScheme-Text" fill="currentColor"/>
</svg>
