<?xml version="1.0" encoding="UTF-8" ?>
<svg version="1.1" width="32" height="32" xmlns="http://www.w3.org/2000/svg" shape-rendering="crispEdges">
<defs id="current-color-scheme"><style id="current-color-scheme-current-text" type="text/css">.ColorScheme-Text { color: #232629; }</style></defs>
<rect x="2" y="4" width="15" height="1" fill="#3F0E22" />
<rect x="1" y="5" width="2" height="1" fill="#3F0E22" />
<rect x="3" y="5" width="13" height="2" fill="#781B40" />
<rect x="16" y="5" width="2" height="1" fill="#3F0E22" />
<rect x="1" y="6" width="1" height="5" fill="#3F0E22" />
<rect x="2" y="6" width="1" height="4" fill="#781B40" />
<rect x="16" y="6" width="1" height="2" fill="#781B40" />
<rect x="17" y="6" width="2" height="1" fill="#3F0E22" />
<rect x="3" y="7" width="1" height="1" fill="#781B40" />
<rect x="4" y="7" width="12" height="3" fill="#FFFFFF" />
<rect x="17" y="7" width="1" height="2" fill="#781B40" />
<rect x="18" y="7" width="12" height="1" fill="#3F0E22" />
<rect x="3" y="8" width="1" height="2" fill="#FFFFFF" />
<rect x="16" y="8" width="1" height="2" fill="#FFFFFF" />
<rect x="18" y="8" width="11" height="1" fill="#781B40" />
<rect x="29" y="8" width="2" height="1" fill="#3F0E22" />
<rect x="17" y="9" width="13" height="1" fill="#FFFFFF" />
<rect x="30" y="9" width="1" height="2" fill="#3F0E22" />
<rect x="2" y="10" width="28" height="1" fill="#E793B4" />
<rect x="1" y="11" width="2" height="1" fill="#E793B4" />
<rect x="3" y="11" width="26" height="1" fill="#CE668F" />
<rect x="29" y="11" width="2" height="1" fill="#E793B4" />
<rect x="1" y="12" width="1" height="4" fill="#E793B4" />
<rect x="2" y="12" width="28" height="1" fill="#CF628D" />
<rect x="30" y="12" width="1" height="4" fill="#E793B4" />
<rect x="2" y="13" width="28" height="1" fill="#D05F8C" />
<rect x="2" y="14" width="28" height="1" fill="#D15C8A" />
<rect x="2" y="15" width="28" height="1" fill="#D25887" />
<rect x="1" y="16" width="1" height="11" fill="#E079A1" />
<rect x="2" y="16" width="28" height="1" fill="#D15586" />
<rect x="30" y="16" width="1" height="11" fill="#E079A1" />
<rect x="2" y="17" width="28" height="1" fill="#D25285" />
<rect x="2" y="18" width="28" height="1" fill="#D34E83" />
<rect x="2" y="19" width="28" height="1" fill="#D34A81" />
<rect x="2" y="20" width="28" height="1" fill="#D5487F" />
<rect x="2" y="21" width="28" height="1" fill="#D5457C" />
<rect x="2" y="22" width="28" height="1" fill="#D4427C" />
<rect x="2" y="23" width="28" height="1" fill="#D4407B" />
<rect x="2" y="24" width="28" height="1" fill="#D33E78" />
<rect x="2" y="25" width="28" height="1" fill="#D23B77" />
<rect x="2" y="26" width="28" height="1" fill="#D23B76" />
<rect x="1" y="27" width="2" height="1" fill="#A22555" />
<rect x="3" y="27" width="26" height="1" fill="#D23B76" />
<rect x="29" y="27" width="2" height="1" fill="#A22555" />
<rect x="2" y="28" width="28" height="1" fill="#A22555" />
</svg>