<svg width="22" height="22" viewBox="0 0 22 22" fill="currentColor" xmlns="http://www.w3.org/2000/svg">
<defs id="defs3051"><style type="text/css" id="current-color-scheme">.ColorScheme-Text { color: #232629; }</style></defs>
<path d="M17.5996 11C17.5996 7.35492 14.6451 4.40039 11 4.40039C7.35492 4.40039 4.40039 7.35492 4.40039 11C4.40039 14.6451 7.35492 17.5996 11 17.5996V19C6.58172 19 3 15.4183 3 11C3 6.58172 6.58172 3 11 3C15.4183 3 19 6.58172 19 11C19 15.4183 15.4183 19 11 19V17.5996C14.6451 17.5996 17.5996 14.6451 17.5996 11Z" class="ColorScheme-Text" fill="currentColor"/>
<path d="M10.2998 12V8C10.2998 7.6134 10.6134 7.2998 11 7.2998C11.3866 7.2998 11.7002 7.6134 11.7002 8V12C11.7002 12.3866 11.3866 12.7002 11 12.7002C10.6134 12.7002 10.2998 12.3866 10.2998 12Z" class="ColorScheme-Text" fill="currentColor"/>
<path d="M14 11.2998C14.3866 11.2998 14.7002 11.6134 14.7002 12C14.7002 12.3866 14.3866 12.7002 14 12.7002H11C10.6134 12.7002 10.2998 12.3866 10.2998 12C10.2998 11.6134 10.6134 11.2998 11 11.2998H14Z" class="ColorScheme-Text" fill="currentColor"/>
</svg>
