<svg width="22" height="22" viewBox="0 0 22 22" fill="currentColor" xmlns="http://www.w3.org/2000/svg">
    <defs id="defs3051"><style type="text/css" id="current-color-scheme">.ColorScheme-Text { color: #232629; }</style></defs>
    <path d="M17 16.5996V18H5V16.5996H17ZM17.5996 16V7C17.5996 6.66863 17.3314 6.40039 17 6.40039H14.5C14.444 6.40039 14.3883 6.39532 14.333 6.38867L12.6602 8.62012C12.1502 9.29999 11.3498 9.7002 10.5 9.7002H4.40039V16C4.40039 16.3314 4.66863 16.5996 5 16.5996V18C3.89543 18 3 17.1046 3 16V5C3 3.89543 3.89543 3 5 3H10.4688C10.8168 3 11.1588 3.09102 11.4609 3.26367L14.5 5H17C18.1046 5 19 5.89543 19 7V16C19 17.1046 18.1046 18 17 18V16.5996C17.3314 16.5996 17.5996 16.3314 17.5996 16ZM4.40039 8.29981H10.5C10.9091 8.29981 11.2945 8.10753 11.54 7.78027L13.041 5.77832L10.7666 4.47949C10.6759 4.42769 10.5732 4.40039 10.4688 4.40039H5C4.66863 4.40039 4.40039 4.66863 4.40039 5V8.29981Z" class="ColorScheme-Text" fill="currentColor"/>
</svg>
