<svg width="22" height="22" viewBox="0 0 22 22" fill="currentColor" xmlns="http://www.w3.org/2000/svg">
<defs id="defs3051"><style type="text/css" id="current-color-scheme">.ColorScheme-Text { color: #232629; }</style></defs>
<path d="M17 17.5996V19H5V17.5996H17ZM17.5996 17V6C17.5996 5.66863 17.3314 5.40039 17 5.40039H5C4.66863 5.40039 4.40039 5.66863 4.40039 6V17C4.40039 17.3314 4.66863 17.5996 5 17.5996V19C3.89543 19 3 18.1046 3 17V6C3 4.89543 3.89543 4 5 4H17C18.1046 4 19 4.89543 19 6V17C19 18.1046 18.1046 19 17 19V17.5996C17.3314 17.5996 17.5996 17.3314 17.5996 17Z" class="ColorScheme-Text" fill="currentColor"/>
<path d="M9.7998 11V7.5C9.7998 7.1134 10.1134 6.7998 10.5 6.7998C10.8866 6.7998 11.2002 7.1134 11.2002 7.5V11C11.2002 11.1657 11.3343 11.2998 11.5 11.2998H13.5C13.8866 11.2998 14.2002 11.6134 14.2002 12C14.2002 12.3866 13.8866 12.7002 13.5 12.7002H11.5C10.5611 12.7002 9.7998 11.9389 9.7998 11Z" class="ColorScheme-Text" fill="currentColor"/>
</svg>
