<svg width="22" height="22" viewBox="0 0 22 22" fill="currentColor" xmlns="http://www.w3.org/2000/svg">
<defs id="defs3051"><style type="text/css" id="current-color-scheme">.ColorScheme-Text { color: #232629; }</style></defs>
<path d="M16.8868 5.2998C17.8972 5.2998 18.6846 6.17603 18.5772 7.18066L17.5098 17.1494C17.3367 18.7636 15.2148 19.2398 14.3682 17.8545L10.5626 11.627C10.5313 11.5758 10.4853 11.5346 10.4307 11.5098L3.91314 8.54785C2.24888 7.79137 2.78834 5.30017 4.61627 5.2998H16.8868ZM4.61627 6.7002C4.51557 6.70028 4.45735 6.73112 4.41998 6.76367C4.3766 6.80154 4.33951 6.86167 4.3233 6.93652C4.3071 7.01138 4.31607 7.08137 4.3399 7.13379C4.36047 7.17893 4.40043 7.23168 4.49224 7.27344L11.0098 10.2354C11.3193 10.376 11.5806 10.6064 11.7579 10.8965L15.5635 17.125C15.7131 17.3689 16.0867 17.2847 16.1172 17L17.1856 7.03223C17.2046 6.85491 17.0651 6.7002 16.8868 6.7002H4.61627Z" class="ColorScheme-Text" fill="currentColor"/>
<path d="M16.1239 6.40918C16.4501 6.20162 16.8831 6.29787 17.0907 6.62402C17.2983 6.95018 17.202 7.38327 16.8759 7.59082L11.3759 11.0908C11.0497 11.2984 10.6166 11.2021 10.4091 10.876C10.2015 10.5498 10.2977 10.1167 10.6239 9.90918L16.1239 6.40918Z" class="ColorScheme-Text" fill="currentColor"/>
</svg>
