<svg width="22" height="22" viewBox="0 0 22 22" fill="currentColor" xmlns="http://www.w3.org/2000/svg">
<defs id="defs3051"><style type="text/css" id="current-color-scheme">.ColorScheme-Text { color: #232629; }</style></defs>
<path d="M17 17.0996V18.5H5V17.0996H17ZM17.5996 16.5V7C17.5996 6.66863 17.3314 6.40039 17 6.40039H5C4.66863 6.40039 4.40039 6.66863 4.40039 7V16.5C4.40039 16.8314 4.66863 17.0996 5 17.0996V18.5C3.96435 18.5 3.113 17.7128 3.01074 16.7041L3 16.5V7C3 5.89543 3.89543 5 5 5H17C18.1046 5 19 5.89543 19 7V16.5C19 17.6046 18.1046 18.5 17 18.5V17.0996C17.3314 17.0996 17.5996 16.8314 17.5996 16.5Z" class="ColorScheme-Text" fill="currentColor"/>
<path d="M4.97656 5.9873C4.69335 5.72432 4.2504 5.74039 3.9873 6.02344C3.72432 6.30665 3.74039 6.7496 4.02344 7.01269L10.2891 12.8301C10.9784 13.4702 12.0561 13.4292 12.6943 12.7383L18.0146 6.97461C18.2766 6.69052 18.2586 6.2475 17.9746 5.98535C17.6905 5.72336 17.2475 5.7414 16.9854 6.02539L11.666 11.7881C11.5534 11.9101 11.3629 11.9177 11.2412 11.8047L4.97656 5.9873Z" class="ColorScheme-Text" fill="currentColor"/>
</svg>
