<svg width="22" height="22" viewBox="0 0 22 22" fill="currentColor" xmlns="http://www.w3.org/2000/svg">
<defs id="defs3051"><style type="text/css" id="current-color-scheme">.ColorScheme-Text { color: #232629; }</style></defs>
<path d="M17 17.5996V19H5V17.5996H17ZM17.5996 17V8.39355L12.1768 11.4443C11.4462 11.8553 10.5538 11.8553 9.82324 11.4443L4.40039 8.39355V17C4.40039 17.3314 4.66863 17.5996 5 17.5996V19C3.96435 19 3.113 18.2128 3.01074 17.2041L3 17V7.70996C3 6.9452 3.82366 6.46312 4.49023 6.83789L10.5098 10.2246C10.7761 10.3743 11.0939 10.3926 11.373 10.2803L11.4902 10.2246L17.5098 6.83789C18.1763 6.46312 19 6.9452 19 7.70996V17C19 18.1046 18.1046 19 17 19V17.5996C17.3314 17.5996 17.5996 17.3314 17.5996 17Z" class="ColorScheme-Text" fill="currentColor"/>
<path d="M6.31262 5.94426C5.96681 6.1169 5.54689 5.97657 5.37414 5.63079C5.2015 5.28498 5.34184 4.86506 5.68762 4.69231L10.2404 2.4179C10.7187 2.17894 11.2816 2.17894 11.7599 2.4179L16.3126 4.69231C16.6584 4.86506 16.7987 5.28498 16.6261 5.63079C16.4534 5.97657 16.0334 6.1169 15.6876 5.94426L11.1339 3.66985C11.0496 3.62784 10.9506 3.62784 10.8663 3.66985L6.31262 5.94426Z" class="ColorScheme-Text" fill="currentColor"/>
</svg>
