<svg width="22" height="22" viewBox="0 0 22 22" fill="currentColor" xmlns="http://www.w3.org/2000/svg">
<defs id="defs3051"><style type="text/css" id="current-color-scheme">.ColorScheme-Text { color: #232629; }</style></defs>
<path d="M15.4226 8.2998C15.8092 8.2998 16.1228 8.6134 16.1228 9C16.1228 9.3866 15.8092 9.7002 15.4226 9.7002L10.4226 9.7002C10.036 9.7002 9.72241 9.3866 9.72241 9C9.72241 8.6134 10.036 8.2998 10.4226 8.2998L15.4226 8.2998Z" class="ColorScheme-Text" fill="currentColor"/>
<path d="M15.4226 12.2998C15.8092 12.2998 16.1228 12.6134 16.1228 13C16.1228 13.3866 15.8092 13.7002 15.4226 13.7002L10.4226 13.7002C10.036 13.7002 9.72241 13.3866 9.72241 13C9.72241 12.6134 10.036 12.2998 10.4226 12.2998L15.4226 12.2998Z" class="ColorScheme-Text" fill="currentColor"/>
<path d="M6.96191 9.7002C6.57531 9.7002 6.26172 9.3866 6.26172 9C6.26172 8.6134 6.57531 8.2998 6.96191 8.2998L7 8.2998C7.3866 8.2998 7.7002 8.6134 7.7002 9C7.7002 9.3866 7.3866 9.7002 7 9.7002L6.96191 9.7002Z" class="ColorScheme-Text" fill="currentColor"/>
<path d="M6.92383 13.7002C6.53723 13.7002 6.22363 13.3866 6.22363 13C6.22363 12.6134 6.53723 12.2998 6.92383 12.2998L7 12.2998C7.3866 12.2998 7.7002 12.6134 7.7002 13C7.7002 13.3866 7.3866 13.7002 7 13.7002L6.92383 13.7002Z" class="ColorScheme-Text" fill="currentColor"/>
<path d="M17 4.42969V3H5V4.42969H17ZM17.5703 5V17C17.5703 17.3148 17.3148 17.5703 17 17.5703H5C4.6852 17.5703 4.42969 17.3148 4.42969 17V5C4.42969 4.6852 4.6852 4.42969 5 4.42969V3C3.89543 3 3 3.89543 3 5V17C3 18.1046 3.89543 19 5 19H17C18.1046 19 19 18.1046 19 17V5C19 3.89543 18.1046 3 17 3V4.42969C17.3148 4.42969 17.5703 4.6852 17.5703 5Z" class="ColorScheme-Text" fill="currentColor"/>
</svg>
