<svg width="22" height="22" viewBox="0 0 22 22" fill="currentColor" xmlns="http://www.w3.org/2000/svg">
<defs id="defs3051"><style type="text/css" id="current-color-scheme">.ColorScheme-Text { color: #232629; }</style></defs>
<path d="M11.0001 3C9.07899 3 7.23658 3.31607 5.87816 3.87868C4.51974 4.44129 3.75659 5.20435 3.75659 6V16C3.75659 16.7956 4.51974 17.5587 5.87816 18.1213C7.23658 18.6839 9.07899 19 11.0001 19C12.9212 19 14.7636 18.6839 16.122 18.1213C17.4804 17.5587 18.2436 16.7956 18.2436 16V6C18.2436 5.20435 17.4804 4.44129 16.122 3.87868C14.7636 3.31607 12.9212 3 11.0001 3ZM11.0001 4C12.681 4 14.2932 4.21071 15.4818 4.58579C16.6704 4.96086 17.3382 5.46957 17.3382 6C17.3382 6.53043 16.6704 7.03914 15.4818 7.41421C14.2932 7.78929 12.681 8 11.0001 8C9.31913 8 7.70702 7.78929 6.5184 7.41421C5.32979 7.03914 4.66203 6.53043 4.66203 6C4.66203 5.46957 5.32979 4.96086 6.5184 4.58579C7.70702 4.21071 9.31913 4 11.0001 4ZM17.3382 7.4V11C17.3382 11.5304 16.6704 12.0391 15.4818 12.4142C14.2932 12.7893 12.681 13 11.0001 13C9.31913 13 7.70702 12.7893 6.5184 12.4142C5.32979 12.0391 4.66203 11.5304 4.66203 11V7.4C5.27178 7.87867 6.18282 8.28011 7.29862 8.56179C8.41442 8.84346 9.69342 8.99488 11.0001 9C12.3068 8.99488 13.5858 8.84346 14.7016 8.56179C15.8174 8.28011 16.7284 7.87867 17.3382 7.4ZM17.3382 12.4V16C17.3382 16.5304 16.6704 17.0391 15.4818 17.4142C14.2932 17.7893 12.681 18 11.0001 18C9.31913 18 7.70702 17.7893 6.5184 17.4142C5.32979 17.0391 4.66203 16.5304 4.66203 16V12.4C5.27178 12.8787 6.18282 13.2801 7.29862 13.5618C8.41442 13.8435 9.69342 13.9949 11.0001 14C12.3068 13.9949 13.5858 13.8435 14.7016 13.5618C15.8174 13.2801 16.7284 12.8787 17.3382 12.4Z" class="ColorScheme-Text" fill="currentColor"/>
<path d="M18.2439 6C18.2439 5.2541 17.573 4.53664 16.3699 3.98633L16.1218 3.87891C14.7634 3.31632 12.9208 3 10.9998 3C9.07878 3.00004 7.23603 3.31633 5.87769 3.87891L5.63062 3.98633C4.42736 4.53666 3.75659 5.25404 3.75659 6V16C3.75659 16.7956 4.51957 17.5585 5.87769 18.1211C7.23603 18.6837 9.07878 19 10.9998 19C12.9208 19 14.7634 18.6837 16.1218 18.1211C17.3956 17.5936 18.1465 16.8901 18.2351 16.1484L18.2439 16V6ZM17.1384 16V12.7842C16.5217 13.183 15.7047 13.515 14.7507 13.7559C13.6172 14.042 12.3215 14.195 11.0007 14.2002H10.9998C9.67903 14.195 8.38323 14.042 7.24976 13.7559C6.29586 13.5151 5.4788 13.1829 4.86206 12.7842V16C4.86206 16.1749 4.97222 16.3831 5.26538 16.6064C5.55553 16.8275 5.9962 17.0398 6.57886 17.2236C7.74245 17.5908 9.33285 17.7998 10.9998 17.7998V18C9.31892 18 7.70685 17.7891 6.51831 17.4141C5.32977 17.039 4.66187 16.5304 4.66187 16V12.4004C5.2716 12.879 6.18288 13.2799 7.29858 13.5615C8.41429 13.8432 9.6932 13.9949 10.9998 14C12.1432 13.9955 13.2659 13.8789 14.2761 13.6611L14.7019 13.5615C15.8175 13.2799 16.7289 12.879 17.3386 12.4004V16L17.3308 16.0996C17.2528 16.5937 16.596 17.0625 15.4822 17.4141L15.0173 17.5469C13.8894 17.8386 12.4708 18 10.9998 18V17.7998C12.6669 17.7998 14.2579 17.5908 15.4216 17.2236C16.0041 17.0398 16.444 16.8274 16.7341 16.6064C17.0274 16.3831 17.1384 16.175 17.1384 16ZM17.1384 11V7.78418C16.5217 8.18295 15.7047 8.51503 14.7507 8.75586C13.6172 9.04201 12.3215 9.19502 11.0007 9.2002H10.9998C9.67903 9.19502 8.38323 9.04199 7.24976 8.75586C6.29586 8.51506 5.4788 8.18291 4.86206 7.78418V11C4.86206 11.1749 4.97222 11.3831 5.26538 11.6064C5.55553 11.8275 5.9962 12.0398 6.57886 12.2236C7.74245 12.5908 9.33285 12.7998 10.9998 12.7998V13C9.31892 13 7.70685 12.7891 6.51831 12.4141C5.32977 12.039 4.66187 11.5304 4.66187 11V7.40039C5.2716 7.87902 6.18288 8.27986 7.29858 8.56152C8.41429 8.84318 9.6932 8.99486 10.9998 9C12.1432 8.99552 13.2659 8.87894 14.2761 8.66113L14.7019 8.56152C15.8175 8.27985 16.7289 7.87901 17.3386 7.40039V11L17.3308 11.0996C17.2528 11.5937 16.596 12.0625 15.4822 12.4141L15.0173 12.5469C13.8894 12.8386 12.4708 13 10.9998 13V12.7998C12.6669 12.7998 14.2579 12.5908 15.4216 12.2236C16.0041 12.0398 16.444 11.8274 16.7341 11.6064C17.0274 11.3831 17.1384 11.175 17.1384 11ZM17.1384 6C17.1384 5.82503 17.0274 5.61695 16.7341 5.39355C16.444 5.1726 16.0041 4.96016 15.4216 4.77637C14.2579 4.40916 12.6669 4.2002 10.9998 4.2002C9.33285 4.20022 7.74245 4.40924 6.57886 4.77637C5.9962 4.96023 5.55553 5.17252 5.26538 5.39355C4.97222 5.61692 4.86206 5.82506 4.86206 6C4.86206 6.17494 4.97222 6.38308 5.26538 6.60645C5.55553 6.82748 5.9962 7.03977 6.57886 7.22363C7.74245 7.59076 9.33285 7.79978 10.9998 7.7998V8C9.31892 7.99997 7.70685 7.78911 6.51831 7.41406C5.32977 7.03899 4.66187 6.53041 4.66187 6C4.66187 5.53586 5.17328 5.08832 6.09741 4.73242L6.51831 4.58594C7.70685 4.21089 9.31892 4.00003 10.9998 4C12.6807 4 14.2936 4.21086 15.4822 4.58594C16.6705 4.961 17.3386 5.46963 17.3386 6L17.3308 6.09961C17.2528 6.59374 16.596 7.06253 15.4822 7.41406L15.0173 7.54688C13.8894 7.83855 12.4708 8 10.9998 8V7.7998C12.6669 7.7998 14.2579 7.59084 15.4216 7.22363C16.0041 7.03984 16.444 6.8274 16.7341 6.60645C17.0274 6.38305 17.1384 6.17497 17.1384 6ZM18.4431 16C18.4431 16.4661 18.2193 16.9035 17.8337 17.2891C17.4488 17.6739 16.8932 18.0181 16.199 18.3057C14.8101 18.8809 12.9395 19.2002 10.9998 19.2002C9.06018 19.2002 7.19031 18.8809 5.80151 18.3057C5.10719 18.0181 4.55171 17.674 4.16675 17.2891C3.78113 16.9034 3.5564 16.4661 3.5564 16V6C3.5564 5.53388 3.78113 5.09655 4.16675 4.71094C4.55171 4.32602 5.10719 3.98193 5.80151 3.69434C7.19031 3.11914 9.06018 2.79984 10.9998 2.7998C12.9395 2.7998 14.8101 3.11911 16.199 3.69434C16.8932 3.9819 17.4488 4.32607 17.8337 4.71094C18.2193 5.09652 18.4431 5.53394 18.4431 6V16Z" class="ColorScheme-Text" fill="currentColor"/>
</svg>
