<svg width="22" height="22" viewBox="0 0 22 22" fill="currentColor" xmlns="http://www.w3.org/2000/svg">
<defs id="defs3051"><style type="text/css" id="current-color-scheme">.ColorScheme-Text { color: #232629; }</style></defs>
<path d="M15.5 17.5703V19H6.5V17.5703H15.5ZM17.5703 15.5C17.5703 14.3568 16.6432 13.4297 15.5 13.4297H6.5C5.35677 13.4297 4.42969 14.3568 4.42969 15.5C4.42969 16.6432 5.35677 17.5703 6.5 17.5703V19L6.32031 18.9951C4.47083 18.9016 3 17.3727 3 15.5C3 13.567 4.567 12 6.5 12H15.5C17.433 12 19 13.567 19 15.5C19 17.433 17.433 19 15.5 19V17.5703C16.6432 17.5703 17.5703 16.6432 17.5703 15.5Z" class="ColorScheme-Text" fill="currentColor"/>
<path d="M13.5703 7C13.5703 5.58063 12.4194 4.42969 11 4.42969C9.58063 4.42969 8.42969 5.58063 8.42969 7C8.42969 8.41937 9.58063 9.57031 11 9.57031V11C8.79086 11 7 9.20914 7 7C7 4.79086 8.79086 3 11 3C13.2091 3 15 4.79086 15 7C15 9.20914 13.2091 11 11 11V9.57031C12.4194 9.57031 13.5703 8.41937 13.5703 7Z" class="ColorScheme-Text" fill="currentColor"/>
</svg>
