<svg width="22" height="22" viewBox="0 0 22 22" fill="currentColor" xmlns="http://www.w3.org/2000/svg">
<defs id="defs3051"><style type="text/css" id="current-color-scheme">.ColorScheme-Text { color: #232629; }</style></defs>
<path d="M11.0186 14.1465C12.0855 14.1465 12.9484 15.0151 12.9414 16.082L12.9316 17.5996H17.5352V19H4.46484V17.5996H9.09375L9.10352 16.0488C9.11043 14.9963 9.96598 14.1466 11.0186 14.1465ZM17.5996 17.5352V10.4902C17.5995 10.4731 17.5932 10.4564 17.5811 10.4443L12.0732 5.02148C11.4778 4.43525 10.5222 4.43525 9.92676 5.02148L4.41895 10.4443C4.40676 10.4564 4.40048 10.4731 4.40039 10.4902V17.5352C4.40039 17.571 4.42903 17.5996 4.46484 17.5996V19L4.31543 18.9922C3.57662 18.9173 3 18.2937 3 17.5352V10.4902C3.00008 10.147 3.12056 9.81637 3.33789 9.55469L3.4375 9.44726L8.94434 4.02441C10.0847 2.90158 11.9153 2.90158 13.0557 4.02441L18.5625 9.44726C18.842 9.72251 18.9999 10.0979 19 10.4902V17.5352C19 18.3442 18.3442 19 17.5352 19V17.5996C17.571 17.5996 17.5996 17.571 17.5996 17.5352Z" class="ColorScheme-Text" fill="currentColor"/>
</svg>
