<svg width="22" height="22" viewBox="0 0 22 22" fill="currentColor" xmlns="http://www.w3.org/2000/svg">
<defs id="defs3051"><style type="text/css" id="current-color-scheme">.ColorScheme-Text { color: #232629; }</style></defs>
<path d="M13.1826 17.5996V19H8.44922V17.5996H13.1826ZM17 7L15.1514 17.3516C14.981 18.3054 14.1516 19 13.1826 19V17.5996C13.4733 17.5996 13.7223 17.3916 13.7734 17.1055L15.3281 8.40039H6.61426L7.85449 17.085C7.89674 17.3805 8.15064 17.5996 8.44922 17.5996V19L8.26465 18.9912C7.41216 18.913 6.70226 18.2976 6.50391 17.4648L6.46875 17.2832L5 7H17Z" class="ColorScheme-Text" fill="currentColor"/>
<path d="M17.3755 7.0376C17.7619 7.03804 18.0745 7.35173 18.0743 7.7382C18.0741 8.12467 17.7611 8.438 17.3747 8.43799L4.62469 8.43073C4.23809 8.43051 3.92467 8.11673 3.92489 7.73013C3.92511 7.34353 4.23889 7.03012 4.62549 7.03034L17.3755 7.0376Z" class="ColorScheme-Text" fill="currentColor"/>
<path d="M14.8838 3.55196C15.2703 3.5521 15.584 3.86564 15.584 4.25216C15.584 4.63867 15.2703 4.95222 14.8838 4.95235H7.11621C6.72961 4.95235 6.41602 4.63876 6.41602 4.25216C6.41602 3.86556 6.72961 3.55196 7.11621 3.55196H14.8838Z" class="ColorScheme-Text" fill="currentColor"/>
</svg>
